ISO-10303-21;
HEADER;
/* Generated by software containing ST-Developer
 * from STEP Tools, Inc. (www.steptools.com) 
 */

FILE_DESCRIPTION(
/* description */ (''),
/* implementation_level */ '2;1');

FILE_NAME(
/* name */ 'jst-vh-2p_short-up.step',
/* time_stamp */ '2025-12-31T17:46:37Z',
/* author */ ('sam'),
/* organization */ (''),
/* preprocessor_version */ 'ST-DEVELOPER v20',
/* originating_system */ 'Autodesk Inventor 2025',
/* authorisation */ '');

FILE_SCHEMA (('AUTOMOTIVE_DESIGN { 1 0 10303 214 3 1 1 }'));
ENDSEC;

DATA;
#10=MECHANICAL_DESIGN_GEOMETRIC_PRESENTATION_REPRESENTATION('',(#41,#42,
#43),#1518);
#11=ITEM_DEFINED_TRANSFORMATION($,$,#979,#1020);
#12=ITEM_DEFINED_TRANSFORMATION($,$,#1005,#1021);
#13=ITEM_DEFINED_TRANSFORMATION($,$,#1005,#1022);
#14=ITEM_DEFINED_TRANSFORMATION($,$,#978,#1032);
#15=ITEM_DEFINED_TRANSFORMATION($,$,#1023,#1033);
#16=ITEM_DEFINED_TRANSFORMATION($,$,#1023,#1034);
#17=(
REPRESENTATION_RELATIONSHIP($,$,#1541,#1540)
REPRESENTATION_RELATIONSHIP_WITH_TRANSFORMATION(#11)
SHAPE_REPRESENTATION_RELATIONSHIP()
);
#18=(
REPRESENTATION_RELATIONSHIP($,$,#1542,#1540)
REPRESENTATION_RELATIONSHIP_WITH_TRANSFORMATION(#12)
SHAPE_REPRESENTATION_RELATIONSHIP()
);
#19=(
REPRESENTATION_RELATIONSHIP($,$,#1542,#1540)
REPRESENTATION_RELATIONSHIP_WITH_TRANSFORMATION(#13)
SHAPE_REPRESENTATION_RELATIONSHIP()
);
#20=(
REPRESENTATION_RELATIONSHIP($,$,#1540,#1539)
REPRESENTATION_RELATIONSHIP_WITH_TRANSFORMATION(#14)
SHAPE_REPRESENTATION_RELATIONSHIP()
);
#21=(
REPRESENTATION_RELATIONSHIP($,$,#1543,#1539)
REPRESENTATION_RELATIONSHIP_WITH_TRANSFORMATION(#15)
SHAPE_REPRESENTATION_RELATIONSHIP()
);
#22=(
REPRESENTATION_RELATIONSHIP($,$,#1543,#1539)
REPRESENTATION_RELATIONSHIP_WITH_TRANSFORMATION(#16)
SHAPE_REPRESENTATION_RELATIONSHIP()
);
#23=CONTEXT_DEPENDENT_SHAPE_REPRESENTATION(#17,#1532);
#24=CONTEXT_DEPENDENT_SHAPE_REPRESENTATION(#18,#1533);
#25=CONTEXT_DEPENDENT_SHAPE_REPRESENTATION(#19,#1534);
#26=CONTEXT_DEPENDENT_SHAPE_REPRESENTATION(#20,#1536);
#27=CONTEXT_DEPENDENT_SHAPE_REPRESENTATION(#21,#1537);
#28=CONTEXT_DEPENDENT_SHAPE_REPRESENTATION(#22,#1538);
#29=NEXT_ASSEMBLY_USAGE_OCCURRENCE('BxP-VH_2_1','BxP-VH_2_1',
'BxP-VH_2_1',#1546,#1547,'BxP-VH_2_1');
#30=NEXT_ASSEMBLY_USAGE_OCCURRENCE('pin_2','pin_2','pin_2',#1546,#1548,
'pin_2');
#31=NEXT_ASSEMBLY_USAGE_OCCURRENCE('pin_3','pin_3','pin_3',#1546,#1548,
'pin_3');
#32=NEXT_ASSEMBLY_USAGE_OCCURRENCE('B2P-VH:1','B2P-VH:1','B2P-VH:1',#1545,
#1546,'B2P-VH:1');
#33=NEXT_ASSEMBLY_USAGE_OCCURRENCE('jst-vh-2p_wire_short-up:1',
'jst-vh-2p_wire_short-up:1','jst-vh-2p_wire_short-up:1',#1545,#1549,
'jst-vh-2p_wire_short-up:1');
#34=NEXT_ASSEMBLY_USAGE_OCCURRENCE('jst-vh-2p_wire_short-up:2',
'jst-vh-2p_wire_short-up:2','jst-vh-2p_wire_short-up:2',#1545,#1549,
'jst-vh-2p_wire_short-up:2');
#35=SHAPE_REPRESENTATION_RELATIONSHIP('SRR','None',#1541,#38);
#36=SHAPE_REPRESENTATION_RELATIONSHIP('SRR','None',#1542,#39);
#37=SHAPE_REPRESENTATION_RELATIONSHIP('SRR','None',#1543,#40);
#38=ADVANCED_BREP_SHAPE_REPRESENTATION('',(#44),#1515);
#39=ADVANCED_BREP_SHAPE_REPRESENTATION('',(#45),#1516);
#40=ADVANCED_BREP_SHAPE_REPRESENTATION('',(#46),#1517);
#41=STYLED_ITEM('',(#921),#44);
#42=STYLED_ITEM('',(#922),#45);
#43=STYLED_ITEM('',(#920),#46);
#44=MANIFOLD_SOLID_BREP('Solid1',#880);
#45=MANIFOLD_SOLID_BREP('Solid1',#881);
#46=MANIFOLD_SOLID_BREP('Solid2',#882);
#47=FACE_BOUND('',#112,.T.);
#48=FACE_BOUND('',#113,.T.);
#49=FACE_BOUND('',#115,.T.);
#50=FACE_BOUND('',#116,.T.);
#51=FACE_OUTER_BOUND('',#98,.T.);
#52=FACE_OUTER_BOUND('',#99,.T.);
#53=FACE_OUTER_BOUND('',#100,.T.);
#54=FACE_OUTER_BOUND('',#101,.T.);
#55=FACE_OUTER_BOUND('',#102,.T.);
#56=FACE_OUTER_BOUND('',#103,.T.);
#57=FACE_OUTER_BOUND('',#104,.T.);
#58=FACE_OUTER_BOUND('',#105,.T.);
#59=FACE_OUTER_BOUND('',#106,.T.);
#60=FACE_OUTER_BOUND('',#107,.T.);
#61=FACE_OUTER_BOUND('',#108,.T.);
#62=FACE_OUTER_BOUND('',#109,.T.);
#63=FACE_OUTER_BOUND('',#110,.T.);
#64=FACE_OUTER_BOUND('',#111,.T.);
#65=FACE_OUTER_BOUND('',#114,.T.);
#66=FACE_OUTER_BOUND('',#117,.T.);
#67=FACE_OUTER_BOUND('',#118,.T.);
#68=FACE_OUTER_BOUND('',#119,.T.);
#69=FACE_OUTER_BOUND('',#120,.T.);
#70=FACE_OUTER_BOUND('',#121,.T.);
#71=FACE_OUTER_BOUND('',#122,.T.);
#72=FACE_OUTER_BOUND('',#123,.T.);
#73=FACE_OUTER_BOUND('',#124,.T.);
#74=FACE_OUTER_BOUND('',#125,.T.);
#75=FACE_OUTER_BOUND('',#126,.T.);
#76=FACE_OUTER_BOUND('',#127,.T.);
#77=FACE_OUTER_BOUND('',#128,.T.);
#78=FACE_OUTER_BOUND('',#129,.T.);
#79=FACE_OUTER_BOUND('',#130,.T.);
#80=FACE_OUTER_BOUND('',#131,.T.);
#81=FACE_OUTER_BOUND('',#132,.T.);
#82=FACE_OUTER_BOUND('',#133,.T.);
#83=FACE_OUTER_BOUND('',#134,.T.);
#84=FACE_OUTER_BOUND('',#135,.T.);
#85=FACE_OUTER_BOUND('',#136,.T.);
#86=FACE_OUTER_BOUND('',#137,.T.);
#87=FACE_OUTER_BOUND('',#138,.T.);
#88=FACE_OUTER_BOUND('',#139,.T.);
#89=FACE_OUTER_BOUND('',#140,.T.);
#90=FACE_OUTER_BOUND('',#141,.T.);
#91=FACE_OUTER_BOUND('',#142,.T.);
#92=FACE_OUTER_BOUND('',#143,.T.);
#93=FACE_OUTER_BOUND('',#144,.T.);
#94=FACE_OUTER_BOUND('',#145,.T.);
#95=FACE_OUTER_BOUND('',#146,.T.);
#96=FACE_OUTER_BOUND('',#147,.T.);
#97=FACE_OUTER_BOUND('',#148,.T.);
#98=EDGE_LOOP('',(#560,#561,#562,#563,#564,#565,#566,#567,#568,#569));
#99=EDGE_LOOP('',(#570,#571,#572,#573));
#100=EDGE_LOOP('',(#574,#575,#576,#577));
#101=EDGE_LOOP('',(#578,#579,#580,#581));
#102=EDGE_LOOP('',(#582,#583,#584,#585));
#103=EDGE_LOOP('',(#586,#587,#588,#589));
#104=EDGE_LOOP('',(#590,#591,#592,#593));
#105=EDGE_LOOP('',(#594,#595,#596,#597));
#106=EDGE_LOOP('',(#598,#599,#600,#601));
#107=EDGE_LOOP('',(#602,#603,#604,#605));
#108=EDGE_LOOP('',(#606,#607,#608,#609));
#109=EDGE_LOOP('',(#610,#611,#612,#613));
#110=EDGE_LOOP('',(#614,#615,#616,#617));
#111=EDGE_LOOP('',(#618,#619,#620,#621,#622,#623));
#112=EDGE_LOOP('',(#624,#625,#626,#627));
#113=EDGE_LOOP('',(#628,#629,#630,#631));
#114=EDGE_LOOP('',(#632,#633,#634,#635,#636,#637,#638,#639));
#115=EDGE_LOOP('',(#640,#641,#642,#643));
#116=EDGE_LOOP('',(#644,#645,#646,#647));
#117=EDGE_LOOP('',(#648,#649,#650,#651));
#118=EDGE_LOOP('',(#652,#653,#654,#655));
#119=EDGE_LOOP('',(#656,#657,#658,#659));
#120=EDGE_LOOP('',(#660,#661,#662,#663));
#121=EDGE_LOOP('',(#664,#665,#666,#667));
#122=EDGE_LOOP('',(#668,#669,#670,#671));
#123=EDGE_LOOP('',(#672,#673,#674,#675));
#124=EDGE_LOOP('',(#676,#677,#678,#679));
#125=EDGE_LOOP('',(#680,#681,#682,#683));
#126=EDGE_LOOP('',(#684,#685,#686,#687,#688,#689,#690,#691,#692,#693));
#127=EDGE_LOOP('',(#694,#695,#696,#697));
#128=EDGE_LOOP('',(#698,#699,#700,#701));
#129=EDGE_LOOP('',(#702,#703,#704,#705));
#130=EDGE_LOOP('',(#706,#707,#708,#709));
#131=EDGE_LOOP('',(#710,#711,#712,#713));
#132=EDGE_LOOP('',(#714,#715,#716,#717));
#133=EDGE_LOOP('',(#718,#719,#720,#721));
#134=EDGE_LOOP('',(#722,#723,#724,#725));
#135=EDGE_LOOP('',(#726,#727,#728,#729));
#136=EDGE_LOOP('',(#730,#731,#732,#733));
#137=EDGE_LOOP('',(#734,#735,#736,#737));
#138=EDGE_LOOP('',(#738,#739,#740,#741));
#139=EDGE_LOOP('',(#742,#743,#744,#745));
#140=EDGE_LOOP('',(#746,#747,#748,#749));
#141=EDGE_LOOP('',(#750,#751,#752,#753));
#142=EDGE_LOOP('',(#754,#755,#756,#757));
#143=EDGE_LOOP('',(#758,#759,#760,#761));
#144=EDGE_LOOP('',(#762,#763,#764,#765,#766,#767));
#145=EDGE_LOOP('',(#768,#769,#770,#771));
#146=EDGE_LOOP('',(#772,#773,#774,#775,#776,#777));
#147=EDGE_LOOP('',(#778,#779,#780,#781));
#148=EDGE_LOOP('',(#782,#783,#784,#785));
#149=LINE('',#1270,#262);
#150=LINE('',#1272,#263);
#151=LINE('',#1274,#264);
#152=LINE('',#1276,#265);
#153=LINE('',#1278,#266);
#154=LINE('',#1280,#267);
#155=LINE('',#1282,#268);
#156=LINE('',#1284,#269);
#157=LINE('',#1286,#270);
#158=LINE('',#1287,#271);
#159=LINE('',#1290,#272);
#160=LINE('',#1292,#273);
#161=LINE('',#1293,#274);
#162=LINE('',#1296,#275);
#163=LINE('',#1297,#276);
#164=LINE('',#1300,#277);
#165=LINE('',#1301,#278);
#166=LINE('',#1304,#279);
#167=LINE('',#1305,#280);
#168=LINE('',#1308,#281);
#169=LINE('',#1309,#282);
#170=LINE('',#1312,#283);
#171=LINE('',#1313,#284);
#172=LINE('',#1316,#285);
#173=LINE('',#1317,#286);
#174=LINE('',#1320,#287);
#175=LINE('',#1321,#288);
#176=LINE('',#1325,#289);
#177=LINE('',#1327,#290);
#178=LINE('',#1329,#291);
#179=LINE('',#1330,#292);
#180=LINE('',#1333,#293);
#181=LINE('',#1335,#294);
#182=LINE('',#1336,#295);
#183=LINE('',#1339,#296);
#184=LINE('',#1341,#297);
#185=LINE('',#1342,#298);
#186=LINE('',#1344,#299);
#187=LINE('',#1345,#300);
#188=LINE('',#1348,#301);
#189=LINE('',#1350,#302);
#190=LINE('',#1352,#303);
#191=LINE('',#1354,#304);
#192=LINE('',#1355,#305);
#193=LINE('',#1358,#306);
#194=LINE('',#1360,#307);
#195=LINE('',#1362,#308);
#196=LINE('',#1363,#309);
#197=LINE('',#1366,#310);
#198=LINE('',#1368,#311);
#199=LINE('',#1370,#312);
#200=LINE('',#1372,#313);
#201=LINE('',#1374,#314);
#202=LINE('',#1375,#315);
#203=LINE('',#1378,#316);
#204=LINE('',#1380,#317);
#205=LINE('',#1382,#318);
#206=LINE('',#1383,#319);
#207=LINE('',#1385,#320);
#208=LINE('',#1386,#321);
#209=LINE('',#1388,#322);
#210=LINE('',#1391,#323);
#211=LINE('',#1393,#324);
#212=LINE('',#1395,#325);
#213=LINE('',#1396,#326);
#214=LINE('',#1398,#327);
#215=LINE('',#1400,#328);
#216=LINE('',#1407,#329);
#217=LINE('',#1409,#330);
#218=LINE('',#1411,#331);
#219=LINE('',#1412,#332);
#220=LINE('',#1416,#333);
#221=LINE('',#1417,#334);
#222=LINE('',#1418,#335);
#223=LINE('',#1422,#336);
#224=LINE('',#1423,#337);
#225=LINE('',#1424,#338);
#226=LINE('',#1426,#339);
#227=LINE('',#1427,#340);
#228=LINE('',#1431,#341);
#229=LINE('',#1433,#342);
#230=LINE('',#1435,#343);
#231=LINE('',#1436,#344);
#232=LINE('',#1440,#345);
#233=LINE('',#1441,#346);
#234=LINE('',#1442,#347);
#235=LINE('',#1446,#348);
#236=LINE('',#1447,#349);
#237=LINE('',#1448,#350);
#238=LINE('',#1450,#351);
#239=LINE('',#1451,#352);
#240=LINE('',#1453,#353);
#241=LINE('',#1454,#354);
#242=LINE('',#1456,#355);
#243=LINE('',#1457,#356);
#244=LINE('',#1469,#357);
#245=LINE('',#1471,#358);
#246=LINE('',#1473,#359);
#247=LINE('',#1474,#360);
#248=LINE('',#1477,#361);
#249=LINE('',#1479,#362);
#250=LINE('',#1480,#363);
#251=LINE('',#1483,#364);
#252=LINE('',#1485,#365);
#253=LINE('',#1486,#366);
#254=LINE('',#1489,#367);
#255=LINE('',#1491,#368);
#256=LINE('',#1492,#369);
#257=LINE('',#1495,#370);
#258=LINE('',#1497,#371);
#259=LINE('',#1498,#372);
#260=LINE('',#1500,#373);
#261=LINE('',#1501,#374);
#262=VECTOR('',#1043,1000.);
#263=VECTOR('',#1044,1000.);
#264=VECTOR('',#1045,1000.);
#265=VECTOR('',#1046,1000.);
#266=VECTOR('',#1047,1000.);
#267=VECTOR('',#1048,1000.);
#268=VECTOR('',#1049,1000.);
#269=VECTOR('',#1050,1000.);
#270=VECTOR('',#1051,1000.);
#271=VECTOR('',#1052,1000.);
#272=VECTOR('',#1055,1000.);
#273=VECTOR('',#1056,1000.);
#274=VECTOR('',#1057,1000.);
#275=VECTOR('',#1060,1000.);
#276=VECTOR('',#1061,1000.);
#277=VECTOR('',#1064,1000.);
#278=VECTOR('',#1065,1000.);
#279=VECTOR('',#1068,1000.);
#280=VECTOR('',#1069,1000.);
#281=VECTOR('',#1072,1000.);
#282=VECTOR('',#1073,1000.);
#283=VECTOR('',#1076,1000.);
#284=VECTOR('',#1077,1000.);
#285=VECTOR('',#1080,1000.);
#286=VECTOR('',#1081,1000.);
#287=VECTOR('',#1084,1000.);
#288=VECTOR('',#1085,1000.);
#289=VECTOR('',#1088,1000.);
#290=VECTOR('',#1089,1000.);
#291=VECTOR('',#1090,1000.);
#292=VECTOR('',#1091,1000.);
#293=VECTOR('',#1094,1000.);
#294=VECTOR('',#1095,1000.);
#295=VECTOR('',#1096,1000.);
#296=VECTOR('',#1099,1000.);
#297=VECTOR('',#1100,1000.);
#298=VECTOR('',#1101,1000.);
#299=VECTOR('',#1104,1000.);
#300=VECTOR('',#1105,1000.);
#301=VECTOR('',#1108,1000.);
#302=VECTOR('',#1109,1000.);
#303=VECTOR('',#1110,1000.);
#304=VECTOR('',#1111,1000.);
#305=VECTOR('',#1112,1000.);
#306=VECTOR('',#1113,1000.);
#307=VECTOR('',#1114,1000.);
#308=VECTOR('',#1115,1000.);
#309=VECTOR('',#1116,1000.);
#310=VECTOR('',#1119,1000.);
#311=VECTOR('',#1120,1000.);
#312=VECTOR('',#1121,1000.);
#313=VECTOR('',#1122,1000.);
#314=VECTOR('',#1123,1000.);
#315=VECTOR('',#1124,1000.);
#316=VECTOR('',#1125,1000.);
#317=VECTOR('',#1126,1000.);
#318=VECTOR('',#1127,1000.);
#319=VECTOR('',#1128,1000.);
#320=VECTOR('',#1131,1000.);
#321=VECTOR('',#1132,1000.);
#322=VECTOR('',#1135,1000.);
#323=VECTOR('',#1140,1000.);
#324=VECTOR('',#1143,1000.);
#325=VECTOR('',#1146,1000.);
#326=VECTOR('',#1147,1000.);
#327=VECTOR('',#1150,1000.);
#328=VECTOR('',#1153,1000.);
#329=VECTOR('',#1162,1000.);
#330=VECTOR('',#1163,1000.);
#331=VECTOR('',#1164,1000.);
#332=VECTOR('',#1165,1000.);
#333=VECTOR('',#1168,1000.);
#334=VECTOR('',#1169,1000.);
#335=VECTOR('',#1170,1000.);
#336=VECTOR('',#1173,1000.);
#337=VECTOR('',#1174,1000.);
#338=VECTOR('',#1175,1000.);
#339=VECTOR('',#1178,1000.);
#340=VECTOR('',#1179,1000.);
#341=VECTOR('',#1182,1000.);
#342=VECTOR('',#1183,1000.);
#343=VECTOR('',#1184,1000.);
#344=VECTOR('',#1185,1000.);
#345=VECTOR('',#1188,1000.);
#346=VECTOR('',#1189,1000.);
#347=VECTOR('',#1190,1000.);
#348=VECTOR('',#1193,1000.);
#349=VECTOR('',#1194,1000.);
#350=VECTOR('',#1195,1000.);
#351=VECTOR('',#1198,1000.);
#352=VECTOR('',#1199,1000.);
#353=VECTOR('',#1202,1000.);
#354=VECTOR('',#1203,1000.);
#355=VECTOR('',#1206,1000.);
#356=VECTOR('',#1207,1000.);
#357=VECTOR('',#1226,10.);
#358=VECTOR('',#1227,10.);
#359=VECTOR('',#1228,10.);
#360=VECTOR('',#1229,10.);
#361=VECTOR('',#1232,10.);
#362=VECTOR('',#1233,10.);
#363=VECTOR('',#1234,10.);
#364=VECTOR('',#1237,10.);
#365=VECTOR('',#1238,10.);
#366=VECTOR('',#1239,10.);
#367=VECTOR('',#1242,10.);
#368=VECTOR('',#1243,10.);
#369=VECTOR('',#1244,10.);
#370=VECTOR('',#1247,10.);
#371=VECTOR('',#1248,10.);
#372=VECTOR('',#1249,10.);
#373=VECTOR('',#1252,10.);
#374=VECTOR('',#1253,10.);
#375=VERTEX_POINT('',#1268);
#376=VERTEX_POINT('',#1269);
#377=VERTEX_POINT('',#1271);
#378=VERTEX_POINT('',#1273);
#379=VERTEX_POINT('',#1275);
#380=VERTEX_POINT('',#1277);
#381=VERTEX_POINT('',#1279);
#382=VERTEX_POINT('',#1281);
#383=VERTEX_POINT('',#1283);
#384=VERTEX_POINT('',#1285);
#385=VERTEX_POINT('',#1289);
#386=VERTEX_POINT('',#1291);
#387=VERTEX_POINT('',#1295);
#388=VERTEX_POINT('',#1299);
#389=VERTEX_POINT('',#1303);
#390=VERTEX_POINT('',#1307);
#391=VERTEX_POINT('',#1311);
#392=VERTEX_POINT('',#1315);
#393=VERTEX_POINT('',#1319);
#394=VERTEX_POINT('',#1323);
#395=VERTEX_POINT('',#1324);
#396=VERTEX_POINT('',#1326);
#397=VERTEX_POINT('',#1328);
#398=VERTEX_POINT('',#1332);
#399=VERTEX_POINT('',#1334);
#400=VERTEX_POINT('',#1338);
#401=VERTEX_POINT('',#1340);
#402=VERTEX_POINT('',#1347);
#403=VERTEX_POINT('',#1349);
#404=VERTEX_POINT('',#1351);
#405=VERTEX_POINT('',#1353);
#406=VERTEX_POINT('',#1356);
#407=VERTEX_POINT('',#1357);
#408=VERTEX_POINT('',#1359);
#409=VERTEX_POINT('',#1361);
#410=VERTEX_POINT('',#1365);
#411=VERTEX_POINT('',#1367);
#412=VERTEX_POINT('',#1369);
#413=VERTEX_POINT('',#1371);
#414=VERTEX_POINT('',#1373);
#415=VERTEX_POINT('',#1376);
#416=VERTEX_POINT('',#1377);
#417=VERTEX_POINT('',#1379);
#418=VERTEX_POINT('',#1381);
#419=VERTEX_POINT('',#1405);
#420=VERTEX_POINT('',#1406);
#421=VERTEX_POINT('',#1408);
#422=VERTEX_POINT('',#1410);
#423=VERTEX_POINT('',#1414);
#424=VERTEX_POINT('',#1415);
#425=VERTEX_POINT('',#1420);
#426=VERTEX_POINT('',#1421);
#427=VERTEX_POINT('',#1429);
#428=VERTEX_POINT('',#1430);
#429=VERTEX_POINT('',#1432);
#430=VERTEX_POINT('',#1434);
#431=VERTEX_POINT('',#1438);
#432=VERTEX_POINT('',#1439);
#433=VERTEX_POINT('',#1444);
#434=VERTEX_POINT('',#1445);
#435=VERTEX_POINT('',#1467);
#436=VERTEX_POINT('',#1468);
#437=VERTEX_POINT('',#1470);
#438=VERTEX_POINT('',#1472);
#439=VERTEX_POINT('',#1476);
#440=VERTEX_POINT('',#1478);
#441=VERTEX_POINT('',#1482);
#442=VERTEX_POINT('',#1484);
#443=VERTEX_POINT('',#1488);
#444=VERTEX_POINT('',#1490);
#445=VERTEX_POINT('',#1494);
#446=VERTEX_POINT('',#1496);
#447=EDGE_CURVE('',#375,#376,#149,.T.);
#448=EDGE_CURVE('',#377,#375,#150,.T.);
#449=EDGE_CURVE('',#378,#377,#151,.T.);
#450=EDGE_CURVE('',#379,#378,#152,.T.);
#451=EDGE_CURVE('',#380,#379,#153,.T.);
#452=EDGE_CURVE('',#381,#380,#154,.T.);
#453=EDGE_CURVE('',#382,#381,#155,.T.);
#454=EDGE_CURVE('',#383,#382,#156,.T.);
#455=EDGE_CURVE('',#384,#383,#157,.T.);
#456=EDGE_CURVE('',#376,#384,#158,.T.);
#457=EDGE_CURVE('',#385,#377,#159,.T.);
#458=EDGE_CURVE('',#386,#385,#160,.T.);
#459=EDGE_CURVE('',#386,#378,#161,.T.);
#460=EDGE_CURVE('',#387,#386,#162,.T.);
#461=EDGE_CURVE('',#387,#379,#163,.T.);
#462=EDGE_CURVE('',#388,#387,#164,.T.);
#463=EDGE_CURVE('',#388,#380,#165,.T.);
#464=EDGE_CURVE('',#389,#388,#166,.T.);
#465=EDGE_CURVE('',#389,#381,#167,.T.);
#466=EDGE_CURVE('',#390,#389,#168,.T.);
#467=EDGE_CURVE('',#390,#382,#169,.T.);
#468=EDGE_CURVE('',#391,#390,#170,.T.);
#469=EDGE_CURVE('',#391,#383,#171,.T.);
#470=EDGE_CURVE('',#392,#391,#172,.T.);
#471=EDGE_CURVE('',#392,#384,#173,.T.);
#472=EDGE_CURVE('',#393,#392,#174,.T.);
#473=EDGE_CURVE('',#393,#376,#175,.T.);
#474=EDGE_CURVE('',#394,#395,#176,.T.);
#475=EDGE_CURVE('',#396,#395,#177,.T.);
#476=EDGE_CURVE('',#397,#396,#178,.T.);
#477=EDGE_CURVE('',#397,#394,#179,.T.);
#478=EDGE_CURVE('',#395,#398,#180,.T.);
#479=EDGE_CURVE('',#399,#398,#181,.T.);
#480=EDGE_CURVE('',#396,#399,#182,.T.);
#481=EDGE_CURVE('',#398,#400,#183,.T.);
#482=EDGE_CURVE('',#401,#400,#184,.T.);
#483=EDGE_CURVE('',#399,#401,#185,.T.);
#484=EDGE_CURVE('',#400,#394,#186,.T.);
#485=EDGE_CURVE('',#401,#397,#187,.T.);
#486=EDGE_CURVE('',#385,#402,#188,.T.);
#487=EDGE_CURVE('',#377,#403,#189,.T.);
#488=EDGE_CURVE('',#403,#404,#190,.T.);
#489=EDGE_CURVE('',#404,#405,#191,.T.);
#490=EDGE_CURVE('',#402,#405,#192,.T.);
#491=EDGE_CURVE('',#406,#407,#193,.T.);
#492=EDGE_CURVE('',#407,#408,#194,.T.);
#493=EDGE_CURVE('',#408,#409,#195,.T.);
#494=EDGE_CURVE('',#409,#406,#196,.T.);
#495=EDGE_CURVE('',#410,#393,#197,.T.);
#496=EDGE_CURVE('',#410,#411,#198,.T.);
#497=EDGE_CURVE('',#411,#412,#199,.T.);
#498=EDGE_CURVE('',#413,#412,#200,.T.);
#499=EDGE_CURVE('',#414,#413,#201,.T.);
#500=EDGE_CURVE('',#375,#414,#202,.T.);
#501=EDGE_CURVE('',#415,#416,#203,.T.);
#502=EDGE_CURVE('',#417,#415,#204,.T.);
#503=EDGE_CURVE('',#418,#417,#205,.T.);
#504=EDGE_CURVE('',#416,#418,#206,.T.);
#505=EDGE_CURVE('',#413,#404,#207,.T.);
#506=EDGE_CURVE('',#414,#403,#208,.T.);
#507=EDGE_CURVE('',#405,#412,#209,.T.);
#508=EDGE_CURVE('',#411,#402,#210,.T.);
#509=EDGE_CURVE('',#385,#410,#211,.T.);
#510=EDGE_CURVE('',#415,#409,#212,.T.);
#511=EDGE_CURVE('',#416,#406,#213,.T.);
#512=EDGE_CURVE('',#417,#408,#214,.T.);
#513=EDGE_CURVE('',#418,#407,#215,.T.);
#514=EDGE_CURVE('',#419,#420,#216,.T.);
#515=EDGE_CURVE('',#421,#420,#217,.T.);
#516=EDGE_CURVE('',#421,#422,#218,.T.);
#517=EDGE_CURVE('',#419,#422,#219,.T.);
#518=EDGE_CURVE('',#423,#424,#220,.T.);
#519=EDGE_CURVE('',#422,#424,#221,.T.);
#520=EDGE_CURVE('',#423,#421,#222,.T.);
#521=EDGE_CURVE('',#425,#426,#223,.T.);
#522=EDGE_CURVE('',#420,#426,#224,.T.);
#523=EDGE_CURVE('',#425,#419,#225,.T.);
#524=EDGE_CURVE('',#426,#423,#226,.T.);
#525=EDGE_CURVE('',#424,#425,#227,.T.);
#526=EDGE_CURVE('',#427,#428,#228,.T.);
#527=EDGE_CURVE('',#429,#428,#229,.T.);
#528=EDGE_CURVE('',#429,#430,#230,.T.);
#529=EDGE_CURVE('',#427,#430,#231,.T.);
#530=EDGE_CURVE('',#431,#432,#232,.T.);
#531=EDGE_CURVE('',#430,#432,#233,.T.);
#532=EDGE_CURVE('',#431,#429,#234,.T.);
#533=EDGE_CURVE('',#433,#434,#235,.T.);
#534=EDGE_CURVE('',#428,#434,#236,.T.);
#535=EDGE_CURVE('',#433,#427,#237,.T.);
#536=EDGE_CURVE('',#434,#431,#238,.T.);
#537=EDGE_CURVE('',#432,#433,#239,.T.);
#538=EDGE_CURVE('',#431,#421,#240,.T.);
#539=EDGE_CURVE('',#423,#429,#241,.T.);
#540=EDGE_CURVE('',#426,#428,#242,.T.);
#541=EDGE_CURVE('',#434,#420,#243,.T.);
#542=EDGE_CURVE('',#435,#436,#244,.T.);
#543=EDGE_CURVE('',#435,#437,#245,.T.);
#544=EDGE_CURVE('',#438,#437,#246,.T.);
#545=EDGE_CURVE('',#436,#438,#247,.T.);
#546=EDGE_CURVE('',#437,#439,#248,.T.);
#547=EDGE_CURVE('',#439,#440,#249,.T.);
#548=EDGE_CURVE('',#440,#438,#250,.T.);
#549=EDGE_CURVE('',#441,#436,#251,.T.);
#550=EDGE_CURVE('',#441,#442,#252,.T.);
#551=EDGE_CURVE('',#442,#435,#253,.T.);
#552=EDGE_CURVE('',#443,#441,#254,.T.);
#553=EDGE_CURVE('',#444,#440,#255,.T.);
#554=EDGE_CURVE('',#443,#444,#256,.T.);
#555=EDGE_CURVE('',#445,#443,#257,.T.);
#556=EDGE_CURVE('',#446,#444,#258,.T.);
#557=EDGE_CURVE('',#445,#446,#259,.T.);
#558=EDGE_CURVE('',#442,#445,#260,.T.);
#559=EDGE_CURVE('',#446,#439,#261,.T.);
#560=ORIENTED_EDGE('',*,*,#447,.F.);
#561=ORIENTED_EDGE('',*,*,#448,.F.);
#562=ORIENTED_EDGE('',*,*,#449,.F.);
#563=ORIENTED_EDGE('',*,*,#450,.F.);
#564=ORIENTED_EDGE('',*,*,#451,.F.);
#565=ORIENTED_EDGE('',*,*,#452,.F.);
#566=ORIENTED_EDGE('',*,*,#453,.F.);
#567=ORIENTED_EDGE('',*,*,#454,.F.);
#568=ORIENTED_EDGE('',*,*,#455,.F.);
#569=ORIENTED_EDGE('',*,*,#456,.F.);
#570=ORIENTED_EDGE('',*,*,#457,.F.);
#571=ORIENTED_EDGE('',*,*,#458,.F.);
#572=ORIENTED_EDGE('',*,*,#459,.T.);
#573=ORIENTED_EDGE('',*,*,#449,.T.);
#574=ORIENTED_EDGE('',*,*,#459,.F.);
#575=ORIENTED_EDGE('',*,*,#460,.F.);
#576=ORIENTED_EDGE('',*,*,#461,.T.);
#577=ORIENTED_EDGE('',*,*,#450,.T.);
#578=ORIENTED_EDGE('',*,*,#461,.F.);
#579=ORIENTED_EDGE('',*,*,#462,.F.);
#580=ORIENTED_EDGE('',*,*,#463,.T.);
#581=ORIENTED_EDGE('',*,*,#451,.T.);
#582=ORIENTED_EDGE('',*,*,#463,.F.);
#583=ORIENTED_EDGE('',*,*,#464,.F.);
#584=ORIENTED_EDGE('',*,*,#465,.T.);
#585=ORIENTED_EDGE('',*,*,#452,.T.);
#586=ORIENTED_EDGE('',*,*,#465,.F.);
#587=ORIENTED_EDGE('',*,*,#466,.F.);
#588=ORIENTED_EDGE('',*,*,#467,.T.);
#589=ORIENTED_EDGE('',*,*,#453,.T.);
#590=ORIENTED_EDGE('',*,*,#467,.F.);
#591=ORIENTED_EDGE('',*,*,#468,.F.);
#592=ORIENTED_EDGE('',*,*,#469,.T.);
#593=ORIENTED_EDGE('',*,*,#454,.T.);
#594=ORIENTED_EDGE('',*,*,#469,.F.);
#595=ORIENTED_EDGE('',*,*,#470,.F.);
#596=ORIENTED_EDGE('',*,*,#471,.T.);
#597=ORIENTED_EDGE('',*,*,#455,.T.);
#598=ORIENTED_EDGE('',*,*,#471,.F.);
#599=ORIENTED_EDGE('',*,*,#472,.F.);
#600=ORIENTED_EDGE('',*,*,#473,.T.);
#601=ORIENTED_EDGE('',*,*,#456,.T.);
#602=ORIENTED_EDGE('',*,*,#474,.T.);
#603=ORIENTED_EDGE('',*,*,#475,.F.);
#604=ORIENTED_EDGE('',*,*,#476,.F.);
#605=ORIENTED_EDGE('',*,*,#477,.T.);
#606=ORIENTED_EDGE('',*,*,#478,.T.);
#607=ORIENTED_EDGE('',*,*,#479,.F.);
#608=ORIENTED_EDGE('',*,*,#480,.F.);
#609=ORIENTED_EDGE('',*,*,#475,.T.);
#610=ORIENTED_EDGE('',*,*,#481,.T.);
#611=ORIENTED_EDGE('',*,*,#482,.F.);
#612=ORIENTED_EDGE('',*,*,#483,.F.);
#613=ORIENTED_EDGE('',*,*,#479,.T.);
#614=ORIENTED_EDGE('',*,*,#484,.T.);
#615=ORIENTED_EDGE('',*,*,#477,.F.);
#616=ORIENTED_EDGE('',*,*,#485,.F.);
#617=ORIENTED_EDGE('',*,*,#482,.T.);
#618=ORIENTED_EDGE('',*,*,#486,.F.);
#619=ORIENTED_EDGE('',*,*,#457,.T.);
#620=ORIENTED_EDGE('',*,*,#487,.T.);
#621=ORIENTED_EDGE('',*,*,#488,.T.);
#622=ORIENTED_EDGE('',*,*,#489,.T.);
#623=ORIENTED_EDGE('',*,*,#490,.F.);
#624=ORIENTED_EDGE('',*,*,#491,.T.);
#625=ORIENTED_EDGE('',*,*,#492,.T.);
#626=ORIENTED_EDGE('',*,*,#493,.T.);
#627=ORIENTED_EDGE('',*,*,#494,.T.);
#628=ORIENTED_EDGE('',*,*,#474,.F.);
#629=ORIENTED_EDGE('',*,*,#484,.F.);
#630=ORIENTED_EDGE('',*,*,#481,.F.);
#631=ORIENTED_EDGE('',*,*,#478,.F.);
#632=ORIENTED_EDGE('',*,*,#473,.F.);
#633=ORIENTED_EDGE('',*,*,#495,.F.);
#634=ORIENTED_EDGE('',*,*,#496,.T.);
#635=ORIENTED_EDGE('',*,*,#497,.T.);
#636=ORIENTED_EDGE('',*,*,#498,.F.);
#637=ORIENTED_EDGE('',*,*,#499,.F.);
#638=ORIENTED_EDGE('',*,*,#500,.F.);
#639=ORIENTED_EDGE('',*,*,#447,.T.);
#640=ORIENTED_EDGE('',*,*,#485,.T.);
#641=ORIENTED_EDGE('',*,*,#476,.T.);
#642=ORIENTED_EDGE('',*,*,#480,.T.);
#643=ORIENTED_EDGE('',*,*,#483,.T.);
#644=ORIENTED_EDGE('',*,*,#501,.F.);
#645=ORIENTED_EDGE('',*,*,#502,.F.);
#646=ORIENTED_EDGE('',*,*,#503,.F.);
#647=ORIENTED_EDGE('',*,*,#504,.F.);
#648=ORIENTED_EDGE('',*,*,#505,.T.);
#649=ORIENTED_EDGE('',*,*,#488,.F.);
#650=ORIENTED_EDGE('',*,*,#506,.F.);
#651=ORIENTED_EDGE('',*,*,#499,.T.);
#652=ORIENTED_EDGE('',*,*,#498,.T.);
#653=ORIENTED_EDGE('',*,*,#507,.F.);
#654=ORIENTED_EDGE('',*,*,#489,.F.);
#655=ORIENTED_EDGE('',*,*,#505,.F.);
#656=ORIENTED_EDGE('',*,*,#487,.F.);
#657=ORIENTED_EDGE('',*,*,#448,.T.);
#658=ORIENTED_EDGE('',*,*,#500,.T.);
#659=ORIENTED_EDGE('',*,*,#506,.T.);
#660=ORIENTED_EDGE('',*,*,#507,.T.);
#661=ORIENTED_EDGE('',*,*,#497,.F.);
#662=ORIENTED_EDGE('',*,*,#508,.T.);
#663=ORIENTED_EDGE('',*,*,#490,.T.);
#664=ORIENTED_EDGE('',*,*,#486,.T.);
#665=ORIENTED_EDGE('',*,*,#508,.F.);
#666=ORIENTED_EDGE('',*,*,#496,.F.);
#667=ORIENTED_EDGE('',*,*,#509,.F.);
#668=ORIENTED_EDGE('',*,*,#494,.F.);
#669=ORIENTED_EDGE('',*,*,#510,.F.);
#670=ORIENTED_EDGE('',*,*,#501,.T.);
#671=ORIENTED_EDGE('',*,*,#511,.T.);
#672=ORIENTED_EDGE('',*,*,#493,.F.);
#673=ORIENTED_EDGE('',*,*,#512,.F.);
#674=ORIENTED_EDGE('',*,*,#502,.T.);
#675=ORIENTED_EDGE('',*,*,#510,.T.);
#676=ORIENTED_EDGE('',*,*,#492,.F.);
#677=ORIENTED_EDGE('',*,*,#513,.F.);
#678=ORIENTED_EDGE('',*,*,#503,.T.);
#679=ORIENTED_EDGE('',*,*,#512,.T.);
#680=ORIENTED_EDGE('',*,*,#491,.F.);
#681=ORIENTED_EDGE('',*,*,#511,.F.);
#682=ORIENTED_EDGE('',*,*,#504,.T.);
#683=ORIENTED_EDGE('',*,*,#513,.T.);
#684=ORIENTED_EDGE('',*,*,#495,.T.);
#685=ORIENTED_EDGE('',*,*,#472,.T.);
#686=ORIENTED_EDGE('',*,*,#470,.T.);
#687=ORIENTED_EDGE('',*,*,#468,.T.);
#688=ORIENTED_EDGE('',*,*,#466,.T.);
#689=ORIENTED_EDGE('',*,*,#464,.T.);
#690=ORIENTED_EDGE('',*,*,#462,.T.);
#691=ORIENTED_EDGE('',*,*,#460,.T.);
#692=ORIENTED_EDGE('',*,*,#458,.T.);
#693=ORIENTED_EDGE('',*,*,#509,.T.);
#694=ORIENTED_EDGE('',*,*,#514,.T.);
#695=ORIENTED_EDGE('',*,*,#515,.F.);
#696=ORIENTED_EDGE('',*,*,#516,.T.);
#697=ORIENTED_EDGE('',*,*,#517,.F.);
#698=ORIENTED_EDGE('',*,*,#518,.T.);
#699=ORIENTED_EDGE('',*,*,#519,.F.);
#700=ORIENTED_EDGE('',*,*,#516,.F.);
#701=ORIENTED_EDGE('',*,*,#520,.F.);
#702=ORIENTED_EDGE('',*,*,#521,.T.);
#703=ORIENTED_EDGE('',*,*,#522,.F.);
#704=ORIENTED_EDGE('',*,*,#514,.F.);
#705=ORIENTED_EDGE('',*,*,#523,.F.);
#706=ORIENTED_EDGE('',*,*,#518,.F.);
#707=ORIENTED_EDGE('',*,*,#524,.F.);
#708=ORIENTED_EDGE('',*,*,#521,.F.);
#709=ORIENTED_EDGE('',*,*,#525,.F.);
#710=ORIENTED_EDGE('',*,*,#526,.T.);
#711=ORIENTED_EDGE('',*,*,#527,.F.);
#712=ORIENTED_EDGE('',*,*,#528,.T.);
#713=ORIENTED_EDGE('',*,*,#529,.F.);
#714=ORIENTED_EDGE('',*,*,#530,.T.);
#715=ORIENTED_EDGE('',*,*,#531,.F.);
#716=ORIENTED_EDGE('',*,*,#528,.F.);
#717=ORIENTED_EDGE('',*,*,#532,.F.);
#718=ORIENTED_EDGE('',*,*,#533,.T.);
#719=ORIENTED_EDGE('',*,*,#534,.F.);
#720=ORIENTED_EDGE('',*,*,#526,.F.);
#721=ORIENTED_EDGE('',*,*,#535,.F.);
#722=ORIENTED_EDGE('',*,*,#530,.F.);
#723=ORIENTED_EDGE('',*,*,#536,.F.);
#724=ORIENTED_EDGE('',*,*,#533,.F.);
#725=ORIENTED_EDGE('',*,*,#537,.F.);
#726=ORIENTED_EDGE('',*,*,#538,.F.);
#727=ORIENTED_EDGE('',*,*,#532,.T.);
#728=ORIENTED_EDGE('',*,*,#539,.F.);
#729=ORIENTED_EDGE('',*,*,#520,.T.);
#730=ORIENTED_EDGE('',*,*,#540,.T.);
#731=ORIENTED_EDGE('',*,*,#534,.T.);
#732=ORIENTED_EDGE('',*,*,#541,.T.);
#733=ORIENTED_EDGE('',*,*,#522,.T.);
#734=ORIENTED_EDGE('',*,*,#541,.F.);
#735=ORIENTED_EDGE('',*,*,#536,.T.);
#736=ORIENTED_EDGE('',*,*,#538,.T.);
#737=ORIENTED_EDGE('',*,*,#515,.T.);
#738=ORIENTED_EDGE('',*,*,#535,.T.);
#739=ORIENTED_EDGE('',*,*,#529,.T.);
#740=ORIENTED_EDGE('',*,*,#531,.T.);
#741=ORIENTED_EDGE('',*,*,#537,.T.);
#742=ORIENTED_EDGE('',*,*,#539,.T.);
#743=ORIENTED_EDGE('',*,*,#527,.T.);
#744=ORIENTED_EDGE('',*,*,#540,.F.);
#745=ORIENTED_EDGE('',*,*,#524,.T.);
#746=ORIENTED_EDGE('',*,*,#523,.T.);
#747=ORIENTED_EDGE('',*,*,#517,.T.);
#748=ORIENTED_EDGE('',*,*,#519,.T.);
#749=ORIENTED_EDGE('',*,*,#525,.T.);
#750=ORIENTED_EDGE('',*,*,#542,.F.);
#751=ORIENTED_EDGE('',*,*,#543,.T.);
#752=ORIENTED_EDGE('',*,*,#544,.F.);
#753=ORIENTED_EDGE('',*,*,#545,.F.);
#754=ORIENTED_EDGE('',*,*,#544,.T.);
#755=ORIENTED_EDGE('',*,*,#546,.T.);
#756=ORIENTED_EDGE('',*,*,#547,.T.);
#757=ORIENTED_EDGE('',*,*,#548,.T.);
#758=ORIENTED_EDGE('',*,*,#542,.T.);
#759=ORIENTED_EDGE('',*,*,#549,.F.);
#760=ORIENTED_EDGE('',*,*,#550,.T.);
#761=ORIENTED_EDGE('',*,*,#551,.T.);
#762=ORIENTED_EDGE('',*,*,#552,.T.);
#763=ORIENTED_EDGE('',*,*,#549,.T.);
#764=ORIENTED_EDGE('',*,*,#545,.T.);
#765=ORIENTED_EDGE('',*,*,#548,.F.);
#766=ORIENTED_EDGE('',*,*,#553,.F.);
#767=ORIENTED_EDGE('',*,*,#554,.F.);
#768=ORIENTED_EDGE('',*,*,#555,.T.);
#769=ORIENTED_EDGE('',*,*,#554,.T.);
#770=ORIENTED_EDGE('',*,*,#556,.F.);
#771=ORIENTED_EDGE('',*,*,#557,.F.);
#772=ORIENTED_EDGE('',*,*,#558,.T.);
#773=ORIENTED_EDGE('',*,*,#557,.T.);
#774=ORIENTED_EDGE('',*,*,#559,.T.);
#775=ORIENTED_EDGE('',*,*,#546,.F.);
#776=ORIENTED_EDGE('',*,*,#543,.F.);
#777=ORIENTED_EDGE('',*,*,#551,.F.);
#778=ORIENTED_EDGE('',*,*,#559,.F.);
#779=ORIENTED_EDGE('',*,*,#556,.T.);
#780=ORIENTED_EDGE('',*,*,#553,.T.);
#781=ORIENTED_EDGE('',*,*,#547,.F.);
#782=ORIENTED_EDGE('',*,*,#558,.F.);
#783=ORIENTED_EDGE('',*,*,#550,.F.);
#784=ORIENTED_EDGE('',*,*,#552,.F.);
#785=ORIENTED_EDGE('',*,*,#555,.F.);
#786=PLANE('',#980);
#787=PLANE('',#981);
#788=PLANE('',#982);
#789=PLANE('',#983);
#790=PLANE('',#984);
#791=PLANE('',#985);
#792=PLANE('',#986);
#793=PLANE('',#987);
#794=PLANE('',#988);
#795=PLANE('',#989);
#796=PLANE('',#990);
#797=PLANE('',#991);
#798=PLANE('',#992);
#799=PLANE('',#993);
#800=PLANE('',#994);
#801=PLANE('',#995);
#802=PLANE('',#996);
#803=PLANE('',#997);
#804=PLANE('',#998);
#805=PLANE('',#999);
#806=PLANE('',#1000);
#807=PLANE('',#1001);
#808=PLANE('',#1002);
#809=PLANE('',#1003);
#810=PLANE('',#1004);
#811=PLANE('',#1006);
#812=PLANE('',#1007);
#813=PLANE('',#1008);
#814=PLANE('',#1009);
#815=PLANE('',#1010);
#816=PLANE('',#1011);
#817=PLANE('',#1012);
#818=PLANE('',#1013);
#819=PLANE('',#1014);
#820=PLANE('',#1015);
#821=PLANE('',#1016);
#822=PLANE('',#1017);
#823=PLANE('',#1018);
#824=PLANE('',#1019);
#825=PLANE('',#1024);
#826=PLANE('',#1025);
#827=PLANE('',#1026);
#828=PLANE('',#1027);
#829=PLANE('',#1028);
#830=PLANE('',#1029);
#831=PLANE('',#1030);
#832=PLANE('',#1031);
#833=ADVANCED_FACE('',(#51),#786,.T.);
#834=ADVANCED_FACE('',(#52),#787,.F.);
#835=ADVANCED_FACE('',(#53),#788,.F.);
#836=ADVANCED_FACE('',(#54),#789,.F.);
#837=ADVANCED_FACE('',(#55),#790,.F.);
#838=ADVANCED_FACE('',(#56),#791,.F.);
#839=ADVANCED_FACE('',(#57),#792,.F.);
#840=ADVANCED_FACE('',(#58),#793,.F.);
#841=ADVANCED_FACE('',(#59),#794,.F.);
#842=ADVANCED_FACE('',(#60),#795,.F.);
#843=ADVANCED_FACE('',(#61),#796,.F.);
#844=ADVANCED_FACE('',(#62),#797,.F.);
#845=ADVANCED_FACE('',(#63),#798,.F.);
#846=ADVANCED_FACE('',(#64,#47,#48),#799,.F.);
#847=ADVANCED_FACE('',(#65,#49,#50),#800,.T.);
#848=ADVANCED_FACE('',(#66),#801,.T.);
#849=ADVANCED_FACE('',(#67),#802,.T.);
#850=ADVANCED_FACE('',(#68),#803,.T.);
#851=ADVANCED_FACE('',(#69),#804,.T.);
#852=ADVANCED_FACE('',(#70),#805,.T.);
#853=ADVANCED_FACE('',(#71),#806,.F.);
#854=ADVANCED_FACE('',(#72),#807,.F.);
#855=ADVANCED_FACE('',(#73),#808,.F.);
#856=ADVANCED_FACE('',(#74),#809,.F.);
#857=ADVANCED_FACE('',(#75),#810,.T.);
#858=ADVANCED_FACE('',(#76),#811,.F.);
#859=ADVANCED_FACE('',(#77),#812,.F.);
#860=ADVANCED_FACE('',(#78),#813,.T.);
#861=ADVANCED_FACE('',(#79),#814,.F.);
#862=ADVANCED_FACE('',(#80),#815,.F.);
#863=ADVANCED_FACE('',(#81),#816,.F.);
#864=ADVANCED_FACE('',(#82),#817,.T.);
#865=ADVANCED_FACE('',(#83),#818,.F.);
#866=ADVANCED_FACE('',(#84),#819,.F.);
#867=ADVANCED_FACE('',(#85),#820,.T.);
#868=ADVANCED_FACE('',(#86),#821,.F.);
#869=ADVANCED_FACE('',(#87),#822,.F.);
#870=ADVANCED_FACE('',(#88),#823,.F.);
#871=ADVANCED_FACE('',(#89),#824,.F.);
#872=ADVANCED_FACE('',(#90),#825,.T.);
#873=ADVANCED_FACE('',(#91),#826,.T.);
#874=ADVANCED_FACE('',(#92),#827,.T.);
#875=ADVANCED_FACE('',(#93),#828,.T.);
#876=ADVANCED_FACE('',(#94),#829,.T.);
#877=ADVANCED_FACE('',(#95),#830,.T.);
#878=ADVANCED_FACE('',(#96),#831,.T.);
#879=ADVANCED_FACE('',(#97),#832,.F.);
#880=CLOSED_SHELL('',(#833,#834,#835,#836,#837,#838,#839,#840,#841,#842,
#843,#844,#845,#846,#847,#848,#849,#850,#851,#852,#853,#854,#855,#856,#857));
#881=CLOSED_SHELL('',(#858,#859,#860,#861,#862,#863,#864,#865,#866,#867,
#868,#869,#870,#871));
#882=CLOSED_SHELL('',(#872,#873,#874,#875,#876,#877,#878,#879));
#883=DERIVED_UNIT_ELEMENT(#890,1.);
#884=DERIVED_UNIT_ELEMENT(#1520,-3.);
#885=DERIVED_UNIT_ELEMENT(#890,1.);
#886=DERIVED_UNIT_ELEMENT(#1520,-3.);
#887=DERIVED_UNIT_ELEMENT(#890,1.);
#888=DERIVED_UNIT_ELEMENT(#1520,-3.);
#889=DIMENSIONAL_EXPONENTS(0.,1.,0.,0.,0.,0.,0.);
#890=(
CONVERSION_BASED_UNIT('gram',#892)
MASS_UNIT()
NAMED_UNIT(#889)
);
#891=(
MASS_UNIT()
NAMED_UNIT(*)
SI_UNIT(.KILO.,.GRAM.)
);
#892=MASS_MEASURE_WITH_UNIT(MASS_MEASURE(0.001),#891);
#893=DERIVED_UNIT((#883,#884));
#894=DERIVED_UNIT((#885,#886));
#895=DERIVED_UNIT((#887,#888));
#896=MEASURE_REPRESENTATION_ITEM('density measure',
POSITIVE_RATIO_MEASURE(1.),#893);
#897=MEASURE_REPRESENTATION_ITEM('density measure',
POSITIVE_RATIO_MEASURE(1.),#894);
#898=MEASURE_REPRESENTATION_ITEM('density measure',
POSITIVE_RATIO_MEASURE(1.),#895);
#899=PROPERTY_DEFINITION_REPRESENTATION(#914,#905);
#900=PROPERTY_DEFINITION_REPRESENTATION(#915,#906);
#901=PROPERTY_DEFINITION_REPRESENTATION(#916,#907);
#902=PROPERTY_DEFINITION_REPRESENTATION(#917,#908);
#903=PROPERTY_DEFINITION_REPRESENTATION(#918,#909);
#904=PROPERTY_DEFINITION_REPRESENTATION(#919,#910);
#905=REPRESENTATION('material name',(#911),#1515);
#906=REPRESENTATION('density',(#896),#1515);
#907=REPRESENTATION('material name',(#912),#1516);
#908=REPRESENTATION('density',(#897),#1516);
#909=REPRESENTATION('material name',(#913),#1517);
#910=REPRESENTATION('density',(#898),#1517);
#911=DESCRIPTIVE_REPRESENTATION_ITEM('Generic','Generic');
#912=DESCRIPTIVE_REPRESENTATION_ITEM('Generic','Generic');
#913=DESCRIPTIVE_REPRESENTATION_ITEM('Generic','Generic');
#914=PROPERTY_DEFINITION('material property','material name',#1547);
#915=PROPERTY_DEFINITION('material property','density of part',#1547);
#916=PROPERTY_DEFINITION('material property','material name',#1548);
#917=PROPERTY_DEFINITION('material property','density of part',#1548);
#918=PROPERTY_DEFINITION('material property','material name',#1549);
#919=PROPERTY_DEFINITION('material property','density of part',#1549);
#920=PRESENTATION_STYLE_ASSIGNMENT((#923));
#921=PRESENTATION_STYLE_ASSIGNMENT((#924));
#922=PRESENTATION_STYLE_ASSIGNMENT((#925));
#923=SURFACE_STYLE_USAGE(.BOTH.,#932);
#924=SURFACE_STYLE_USAGE(.BOTH.,#933);
#925=SURFACE_STYLE_USAGE(.BOTH.,#934);
#926=SURFACE_STYLE_RENDERING_WITH_PROPERTIES($,#944,(#929));
#927=SURFACE_STYLE_RENDERING_WITH_PROPERTIES($,#945,(#930));
#928=SURFACE_STYLE_RENDERING_WITH_PROPERTIES($,#946,(#931));
#929=SURFACE_STYLE_TRANSPARENT(0.);
#930=SURFACE_STYLE_TRANSPARENT(0.);
#931=SURFACE_STYLE_TRANSPARENT(0.);
#932=SURFACE_SIDE_STYLE('',(#935,#926));
#933=SURFACE_SIDE_STYLE('',(#936,#927));
#934=SURFACE_SIDE_STYLE('',(#937,#928));
#935=SURFACE_STYLE_FILL_AREA(#938);
#936=SURFACE_STYLE_FILL_AREA(#939);
#937=SURFACE_STYLE_FILL_AREA(#940);
#938=FILL_AREA_STYLE('',(#941));
#939=FILL_AREA_STYLE('',(#942));
#940=FILL_AREA_STYLE('',(#943));
#941=FILL_AREA_STYLE_COLOUR('',#944);
#942=FILL_AREA_STYLE_COLOUR('',#945);
#943=FILL_AREA_STYLE_COLOUR('',#946);
#944=COLOUR_RGB('',0.749019607843137,0.749019607843137,0.749019607843137);
#945=COLOUR_RGB('',1.,1.,1.);
#946=COLOUR_RGB('',0.796078431372549,0.823529411764706,0.937254901960784);
#947=DATE_TIME_ROLE('creation_date');
#948=DATE_TIME_ROLE('creation_date');
#949=DATE_TIME_ROLE('creation_date');
#950=DATE_TIME_ROLE('creation_date');
#951=DATE_TIME_ROLE('creation_date');
#952=APPLIED_DATE_AND_TIME_ASSIGNMENT(#957,#947,(#1545));
#953=APPLIED_DATE_AND_TIME_ASSIGNMENT(#958,#948,(#1546));
#954=APPLIED_DATE_AND_TIME_ASSIGNMENT(#959,#949,(#1547));
#955=APPLIED_DATE_AND_TIME_ASSIGNMENT(#960,#950,(#1548));
#956=APPLIED_DATE_AND_TIME_ASSIGNMENT(#961,#951,(#1549));
#957=DATE_AND_TIME(#962,#967);
#958=DATE_AND_TIME(#963,#968);
#959=DATE_AND_TIME(#964,#969);
#960=DATE_AND_TIME(#965,#970);
#961=DATE_AND_TIME(#966,#971);
#962=CALENDAR_DATE(2025,13,12);
#963=CALENDAR_DATE(2023,10,12);
#964=CALENDAR_DATE(2025,13,12);
#965=CALENDAR_DATE(2025,13,12);
#966=CALENDAR_DATE(2025,13,12);
#967=LOCAL_TIME(0,0,0.,#972);
#968=LOCAL_TIME(14,15,22.,#973);
#969=LOCAL_TIME(0,0,0.,#974);
#970=LOCAL_TIME(0,0,0.,#975);
#971=LOCAL_TIME(0,0,0.,#976);
#972=COORDINATED_UNIVERSAL_TIME_OFFSET(0,0,.BEHIND.);
#973=COORDINATED_UNIVERSAL_TIME_OFFSET(0,0,.BEHIND.);
#974=COORDINATED_UNIVERSAL_TIME_OFFSET(0,0,.BEHIND.);
#975=COORDINATED_UNIVERSAL_TIME_OFFSET(0,0,.BEHIND.);
#976=COORDINATED_UNIVERSAL_TIME_OFFSET(0,0,.BEHIND.);
#977=AXIS2_PLACEMENT_3D('',#1264,#1035,#1036);
#978=AXIS2_PLACEMENT_3D('',#1265,#1037,#1038);
#979=AXIS2_PLACEMENT_3D('',#1266,#1039,#1040);
#980=AXIS2_PLACEMENT_3D('',#1267,#1041,#1042);
#981=AXIS2_PLACEMENT_3D('',#1288,#1053,#1054);
#982=AXIS2_PLACEMENT_3D('',#1294,#1058,#1059);
#983=AXIS2_PLACEMENT_3D('',#1298,#1062,#1063);
#984=AXIS2_PLACEMENT_3D('',#1302,#1066,#1067);
#985=AXIS2_PLACEMENT_3D('',#1306,#1070,#1071);
#986=AXIS2_PLACEMENT_3D('',#1310,#1074,#1075);
#987=AXIS2_PLACEMENT_3D('',#1314,#1078,#1079);
#988=AXIS2_PLACEMENT_3D('',#1318,#1082,#1083);
#989=AXIS2_PLACEMENT_3D('',#1322,#1086,#1087);
#990=AXIS2_PLACEMENT_3D('',#1331,#1092,#1093);
#991=AXIS2_PLACEMENT_3D('',#1337,#1097,#1098);
#992=AXIS2_PLACEMENT_3D('',#1343,#1102,#1103);
#993=AXIS2_PLACEMENT_3D('',#1346,#1106,#1107);
#994=AXIS2_PLACEMENT_3D('',#1364,#1117,#1118);
#995=AXIS2_PLACEMENT_3D('',#1384,#1129,#1130);
#996=AXIS2_PLACEMENT_3D('',#1387,#1133,#1134);
#997=AXIS2_PLACEMENT_3D('',#1389,#1136,#1137);
#998=AXIS2_PLACEMENT_3D('',#1390,#1138,#1139);
#999=AXIS2_PLACEMENT_3D('',#1392,#1141,#1142);
#1000=AXIS2_PLACEMENT_3D('',#1394,#1144,#1145);
#1001=AXIS2_PLACEMENT_3D('',#1397,#1148,#1149);
#1002=AXIS2_PLACEMENT_3D('',#1399,#1151,#1152);
#1003=AXIS2_PLACEMENT_3D('',#1401,#1154,#1155);
#1004=AXIS2_PLACEMENT_3D('',#1402,#1156,#1157);
#1005=AXIS2_PLACEMENT_3D('',#1403,#1158,#1159);
#1006=AXIS2_PLACEMENT_3D('',#1404,#1160,#1161);
#1007=AXIS2_PLACEMENT_3D('',#1413,#1166,#1167);
#1008=AXIS2_PLACEMENT_3D('',#1419,#1171,#1172);
#1009=AXIS2_PLACEMENT_3D('',#1425,#1176,#1177);
#1010=AXIS2_PLACEMENT_3D('',#1428,#1180,#1181);
#1011=AXIS2_PLACEMENT_3D('',#1437,#1186,#1187);
#1012=AXIS2_PLACEMENT_3D('',#1443,#1191,#1192);
#1013=AXIS2_PLACEMENT_3D('',#1449,#1196,#1197);
#1014=AXIS2_PLACEMENT_3D('',#1452,#1200,#1201);
#1015=AXIS2_PLACEMENT_3D('',#1455,#1204,#1205);
#1016=AXIS2_PLACEMENT_3D('',#1458,#1208,#1209);
#1017=AXIS2_PLACEMENT_3D('',#1459,#1210,#1211);
#1018=AXIS2_PLACEMENT_3D('',#1460,#1212,#1213);
#1019=AXIS2_PLACEMENT_3D('',#1461,#1214,#1215);
#1020=AXIS2_PLACEMENT_3D('',#1462,#1216,#1217);
#1021=AXIS2_PLACEMENT_3D('',#1463,#1218,#1219);
#1022=AXIS2_PLACEMENT_3D('',#1464,#1220,#1221);
#1023=AXIS2_PLACEMENT_3D('',#1465,#1222,#1223);
#1024=AXIS2_PLACEMENT_3D('',#1466,#1224,#1225);
#1025=AXIS2_PLACEMENT_3D('',#1475,#1230,#1231);
#1026=AXIS2_PLACEMENT_3D('',#1481,#1235,#1236);
#1027=AXIS2_PLACEMENT_3D('',#1487,#1240,#1241);
#1028=AXIS2_PLACEMENT_3D('',#1493,#1245,#1246);
#1029=AXIS2_PLACEMENT_3D('',#1499,#1250,#1251);
#1030=AXIS2_PLACEMENT_3D('',#1502,#1254,#1255);
#1031=AXIS2_PLACEMENT_3D('',#1503,#1256,#1257);
#1032=AXIS2_PLACEMENT_3D('',#1504,#1258,#1259);
#1033=AXIS2_PLACEMENT_3D('',#1505,#1260,#1261);
#1034=AXIS2_PLACEMENT_3D('',#1506,#1262,#1263);
#1035=DIRECTION('axis',(0.,0.,1.));
#1036=DIRECTION('refdir',(1.,0.,0.));
#1037=DIRECTION('axis',(0.,0.,1.));
#1038=DIRECTION('refdir',(1.,0.,0.));
#1039=DIRECTION('axis',(0.,0.,1.));
#1040=DIRECTION('refdir',(1.,0.,0.));
#1041=DIRECTION('center_axis',(-1.,0.,0.));
#1042=DIRECTION('ref_axis',(0.,0.,1.));
#1043=DIRECTION('',(0.,-6.19544098563206E-16,-1.));
#1044=DIRECTION('',(0.,-1.,-5.22507071077352E-17));
#1045=DIRECTION('',(0.,-1.,-5.22507071077352E-17));
#1046=DIRECTION('',(0.,-0.939692620785908,0.342020143325669));
#1047=DIRECTION('',(0.,0.,1.));
#1048=DIRECTION('',(0.,0.939692620785908,0.342020143325669));
#1049=DIRECTION('',(0.,1.,-3.74173923714684E-15));
#1050=DIRECTION('',(0.,0.500000000000007,-0.866025403784435));
#1051=DIRECTION('',(0.,1.,9.06198830734151E-16));
#1052=DIRECTION('',(0.,0.707106781186548,-0.707106781186547));
#1053=DIRECTION('center_axis',(0.,5.22507071077352E-17,-1.));
#1054=DIRECTION('ref_axis',(0.,1.,5.22507071077352E-17));
#1055=DIRECTION('',(-1.,0.,0.));
#1056=DIRECTION('',(0.,-1.,-5.22507071077352E-17));
#1057=DIRECTION('',(-1.,0.,0.));
#1058=DIRECTION('center_axis',(0.,-0.342020143325669,-0.939692620785908));
#1059=DIRECTION('ref_axis',(0.,0.939692620785908,-0.342020143325669));
#1060=DIRECTION('',(0.,-0.939692620785908,0.342020143325669));
#1061=DIRECTION('',(-1.,0.,0.));
#1062=DIRECTION('center_axis',(0.,-1.,0.));
#1063=DIRECTION('ref_axis',(0.,0.,-1.));
#1064=DIRECTION('',(0.,0.,1.));
#1065=DIRECTION('',(-1.,0.,0.));
#1066=DIRECTION('center_axis',(0.,-0.342020143325669,0.939692620785908));
#1067=DIRECTION('ref_axis',(0.,-0.939692620785908,-0.342020143325669));
#1068=DIRECTION('',(0.,0.939692620785908,0.342020143325669));
#1069=DIRECTION('',(-1.,0.,0.));
#1070=DIRECTION('center_axis',(0.,3.74173923714684E-15,1.));
#1071=DIRECTION('ref_axis',(0.,-1.,3.74173923714684E-15));
#1072=DIRECTION('',(0.,1.,-3.74173923714684E-15));
#1073=DIRECTION('',(-1.,0.,0.));
#1074=DIRECTION('center_axis',(0.,0.866025403784435,0.500000000000007));
#1075=DIRECTION('ref_axis',(0.,-0.500000000000007,0.866025403784435));
#1076=DIRECTION('',(0.,0.500000000000007,-0.866025403784435));
#1077=DIRECTION('',(-1.,0.,0.));
#1078=DIRECTION('center_axis',(0.,-9.06198830734151E-16,1.));
#1079=DIRECTION('ref_axis',(0.,-1.,-9.06198830734151E-16));
#1080=DIRECTION('',(0.,1.,9.06198830734151E-16));
#1081=DIRECTION('',(-1.,0.,0.));
#1082=DIRECTION('center_axis',(0.,0.707106781186547,0.707106781186548));
#1083=DIRECTION('ref_axis',(0.,-0.707106781186548,0.707106781186547));
#1084=DIRECTION('',(0.,0.707106781186548,-0.707106781186547));
#1085=DIRECTION('',(-1.,0.,0.));
#1086=DIRECTION('center_axis',(0.,0.,1.));
#1087=DIRECTION('ref_axis',(1.,0.,0.));
#1088=DIRECTION('',(1.,0.,0.));
#1089=DIRECTION('',(0.,1.,0.));
#1090=DIRECTION('',(1.,0.,0.));
#1091=DIRECTION('',(0.,1.,0.));
#1092=DIRECTION('center_axis',(1.,0.,0.));
#1093=DIRECTION('ref_axis',(0.,0.,-1.));
#1094=DIRECTION('',(0.,0.,-1.));
#1095=DIRECTION('',(0.,1.,0.));
#1096=DIRECTION('',(0.,0.,-1.));
#1097=DIRECTION('center_axis',(0.,0.,-1.));
#1098=DIRECTION('ref_axis',(-1.,0.,0.));
#1099=DIRECTION('',(-1.,0.,0.));
#1100=DIRECTION('',(0.,1.,0.));
#1101=DIRECTION('',(-1.,0.,0.));
#1102=DIRECTION('center_axis',(-1.,0.,0.));
#1103=DIRECTION('ref_axis',(0.,0.,1.));
#1104=DIRECTION('',(0.,0.,1.));
#1105=DIRECTION('',(0.,0.,1.));
#1106=DIRECTION('center_axis',(0.,-1.,0.));
#1107=DIRECTION('ref_axis',(0.,0.,-1.));
#1108=DIRECTION('',(1.,0.,0.));
#1109=DIRECTION('',(-1.,0.,0.));
#1110=DIRECTION('',(0.,0.,1.));
#1111=DIRECTION('',(1.,0.,0.));
#1112=DIRECTION('',(0.,0.,1.));
#1113=DIRECTION('',(-1.,0.,0.));
#1114=DIRECTION('',(0.,0.,-1.));
#1115=DIRECTION('',(1.,0.,0.));
#1116=DIRECTION('',(0.,0.,1.));
#1117=DIRECTION('center_axis',(0.,-1.,0.));
#1118=DIRECTION('ref_axis',(0.,0.,-1.));
#1119=DIRECTION('',(0.,-6.19544098563206E-16,-1.));
#1120=DIRECTION('',(1.,0.,0.));
#1121=DIRECTION('',(0.,0.,1.));
#1122=DIRECTION('',(1.,0.,0.));
#1123=DIRECTION('',(0.,0.,1.));
#1124=DIRECTION('',(-1.,0.,0.));
#1125=DIRECTION('',(0.,0.,1.));
#1126=DIRECTION('',(1.,0.,0.));
#1127=DIRECTION('',(0.,0.,-1.));
#1128=DIRECTION('',(-1.,0.,0.));
#1129=DIRECTION('center_axis',(-1.,0.,0.));
#1130=DIRECTION('ref_axis',(0.,0.,1.));
#1131=DIRECTION('',(0.,1.,0.));
#1132=DIRECTION('',(0.,1.,0.));
#1133=DIRECTION('center_axis',(0.,0.,1.));
#1134=DIRECTION('ref_axis',(1.,0.,0.));
#1135=DIRECTION('',(0.,-1.,0.));
#1136=DIRECTION('center_axis',(0.,0.,-1.));
#1137=DIRECTION('ref_axis',(-1.,0.,0.));
#1138=DIRECTION('center_axis',(1.,0.,0.));
#1139=DIRECTION('ref_axis',(0.,0.,-1.));
#1140=DIRECTION('',(0.,1.,0.));
#1141=DIRECTION('center_axis',(0.,0.,-1.));
#1142=DIRECTION('ref_axis',(1.,0.,0.));
#1143=DIRECTION('',(0.,-1.,-5.22507071077352E-17));
#1144=DIRECTION('center_axis',(1.,0.,0.));
#1145=DIRECTION('ref_axis',(0.,0.,1.));
#1146=DIRECTION('',(0.,1.,0.));
#1147=DIRECTION('',(0.,1.,0.));
#1148=DIRECTION('center_axis',(0.,0.,-1.));
#1149=DIRECTION('ref_axis',(1.,0.,0.));
#1150=DIRECTION('',(0.,1.,0.));
#1151=DIRECTION('center_axis',(-1.,0.,0.));
#1152=DIRECTION('ref_axis',(0.,0.,-1.));
#1153=DIRECTION('',(0.,1.,0.));
#1154=DIRECTION('center_axis',(0.,0.,1.));
#1155=DIRECTION('ref_axis',(-1.,0.,0.));
#1156=DIRECTION('center_axis',(1.,0.,0.));
#1157=DIRECTION('ref_axis',(0.,0.,1.));
#1158=DIRECTION('axis',(0.,0.,1.));
#1159=DIRECTION('refdir',(1.,0.,0.));
#1160=DIRECTION('center_axis',(0.,0.258819045102519,-0.965925826289069));
#1161=DIRECTION('ref_axis',(-1.,0.,0.));
#1162=DIRECTION('',(0.250562807085729,0.935113126531031,0.250562807085729));
#1163=DIRECTION('',(1.,0.,0.));
#1164=DIRECTION('',(0.250562807085729,-0.935113126531031,-0.250562807085729));
#1165=DIRECTION('',(-1.,0.,0.));
#1166=DIRECTION('center_axis',(0.965925826289069,0.258819045102519,0.));
#1167=DIRECTION('ref_axis',(0.,0.,-1.));
#1168=DIRECTION('',(0.250562807085729,-0.935113126531031,0.250562807085729));
#1169=DIRECTION('',(0.,0.,-1.));
#1170=DIRECTION('',(0.,0.,1.));
#1171=DIRECTION('center_axis',(0.965925826289069,-0.258819045102519,0.));
#1172=DIRECTION('ref_axis',(0.,0.,-1.));
#1173=DIRECTION('',(0.250562807085729,0.935113126531031,-0.250562807085729));
#1174=DIRECTION('',(0.,0.,-1.));
#1175=DIRECTION('',(0.,0.,1.));
#1176=DIRECTION('center_axis',(0.,0.258819045102519,0.965925826289069));
#1177=DIRECTION('ref_axis',(1.,0.,0.));
#1178=DIRECTION('',(-1.,0.,0.));
#1179=DIRECTION('',(1.,0.,0.));
#1180=DIRECTION('center_axis',(0.,-0.258819045102519,0.965925826289069));
#1181=DIRECTION('ref_axis',(-1.,0.,0.));
#1182=DIRECTION('',(0.250562807085729,-0.935113126531031,-0.250562807085729));
#1183=DIRECTION('',(1.,0.,0.));
#1184=DIRECTION('',(0.250562807085729,0.935113126531031,0.250562807085729));
#1185=DIRECTION('',(-1.,0.,0.));
#1186=DIRECTION('center_axis',(0.965925826289069,-0.258819045102519,0.));
#1187=DIRECTION('ref_axis',(0.,0.,-1.));
#1188=DIRECTION('',(0.250562807085729,0.935113126531031,-0.250562807085729));
#1189=DIRECTION('',(0.,0.,1.));
#1190=DIRECTION('',(0.,0.,-1.));
#1191=DIRECTION('center_axis',(0.965925826289069,0.258819045102519,0.));
#1192=DIRECTION('ref_axis',(0.,0.,-1.));
#1193=DIRECTION('',(0.250562807085729,-0.935113126531031,0.250562807085729));
#1194=DIRECTION('',(0.,0.,1.));
#1195=DIRECTION('',(0.,0.,-1.));
#1196=DIRECTION('center_axis',(0.,-0.258819045102519,-0.965925826289069));
#1197=DIRECTION('ref_axis',(0.,-0.965925826289069,0.258819045102518));
#1198=DIRECTION('',(-1.,0.,0.));
#1199=DIRECTION('',(1.,0.,0.));
#1200=DIRECTION('center_axis',(1.,0.,0.));
#1201=DIRECTION('ref_axis',(0.,1.,0.));
#1202=DIRECTION('',(0.,-1.,0.));
#1203=DIRECTION('',(0.,1.,0.));
#1204=DIRECTION('center_axis',(1.,0.,0.));
#1205=DIRECTION('ref_axis',(0.,1.,0.));
#1206=DIRECTION('',(0.,1.,0.));
#1207=DIRECTION('',(0.,-1.,0.));
#1208=DIRECTION('center_axis',(0.,0.,-1.));
#1209=DIRECTION('ref_axis',(0.,-1.,0.));
#1210=DIRECTION('center_axis',(0.,-1.,0.));
#1211=DIRECTION('ref_axis',(0.,0.,-1.));
#1212=DIRECTION('center_axis',(0.,0.,1.));
#1213=DIRECTION('ref_axis',(1.,0.,0.));
#1214=DIRECTION('center_axis',(0.,1.,0.));
#1215=DIRECTION('ref_axis',(1.,0.,0.));
#1216=DIRECTION('',(0.,0.,1.));
#1217=DIRECTION('',(1.,0.,0.));
#1218=DIRECTION('',(0.,0.,1.));
#1219=DIRECTION('',(1.,0.,0.));
#1220=DIRECTION('',(0.,0.,1.));
#1221=DIRECTION('',(1.,0.,0.));
#1222=DIRECTION('axis',(0.,0.,1.));
#1223=DIRECTION('refdir',(1.,0.,0.));
#1224=DIRECTION('center_axis',(0.,-1.,0.));
#1225=DIRECTION('ref_axis',(1.,0.,0.));
#1226=DIRECTION('',(-1.,0.,0.));
#1227=DIRECTION('',(0.,0.,1.));
#1228=DIRECTION('',(1.,0.,0.));
#1229=DIRECTION('',(0.,0.,1.));
#1230=DIRECTION('center_axis',(0.,0.,1.));
#1231=DIRECTION('ref_axis',(1.,0.,0.));
#1232=DIRECTION('',(0.,1.,0.));
#1233=DIRECTION('',(-1.,0.,0.));
#1234=DIRECTION('',(1.38777878078144E-16,-1.,0.));
#1235=DIRECTION('center_axis',(0.,0.,1.));
#1236=DIRECTION('ref_axis',(1.,0.,0.));
#1237=DIRECTION('',(0.,1.,0.));
#1238=DIRECTION('',(1.,0.,0.));
#1239=DIRECTION('',(0.,1.,0.));
#1240=DIRECTION('center_axis',(-1.,0.,2.08166817117217E-16));
#1241=DIRECTION('ref_axis',(2.08166817117217E-16,0.,1.));
#1242=DIRECTION('',(2.08166817117217E-16,0.,1.));
#1243=DIRECTION('',(2.08166817117217E-16,0.,1.));
#1244=DIRECTION('',(0.,1.,0.));
#1245=DIRECTION('center_axis',(-2.77555756156289E-16,0.,-1.));
#1246=DIRECTION('ref_axis',(-1.,0.,2.77555756156289E-16));
#1247=DIRECTION('',(-1.,0.,2.77555756156289E-16));
#1248=DIRECTION('',(-1.,0.,2.77555756156289E-16));
#1249=DIRECTION('',(0.,1.,0.));
#1250=DIRECTION('center_axis',(1.,0.,-6.93889390390723E-17));
#1251=DIRECTION('ref_axis',(-6.93889390390723E-17,0.,-1.));
#1252=DIRECTION('',(-6.93889390390723E-17,0.,-1.));
#1253=DIRECTION('',(0.,0.,1.));
#1254=DIRECTION('center_axis',(0.,1.,0.));
#1255=DIRECTION('ref_axis',(0.,0.,1.));
#1256=DIRECTION('center_axis',(0.,1.,0.));
#1257=DIRECTION('ref_axis',(0.,0.,1.));
#1258=DIRECTION('',(0.,0.,1.));
#1259=DIRECTION('',(1.,0.,0.));
#1260=DIRECTION('',(5.55111512312578E-17,1.,1.23259516440783E-31));
#1261=DIRECTION('',(1.,-5.55111512312578E-17,-1.8094140993039E-16));
#1262=DIRECTION('',(-3.05311331771918E-16,1.,2.08481916479918E-32));
#1263=DIRECTION('',(1.,3.05311331771918E-16,-6.95187799052354E-18));
#1264=CARTESIAN_POINT('',(0.,0.,0.));
#1265=CARTESIAN_POINT('',(0.,0.,0.));
#1266=CARTESIAN_POINT('',(0.,0.,0.));
#1267=CARTESIAN_POINT('Origin',(-0.570000000000001,0.,0.));
#1268=CARTESIAN_POINT('',(-0.570000000000001,-4.33680868994202E-16,-2.));
#1269=CARTESIAN_POINT('',(-0.570000000000001,-4.33680868994202E-16,-2.69999999999993));
#1270=CARTESIAN_POINT('',(-0.570000000000001,-4.33680868994202E-16,-2.69999999999993));
#1271=CARTESIAN_POINT('',(-0.570000000000001,3.2,-2.));
#1272=CARTESIAN_POINT('',(-0.570000000000001,0.,-2.));
#1273=CARTESIAN_POINT('',(-0.570000000000001,8.3,-2.));
#1274=CARTESIAN_POINT('',(-0.570000000000001,0.,-2.));
#1275=CARTESIAN_POINT('',(-0.570000000000001,9.4,-2.40036725769282));
#1276=CARTESIAN_POINT('',(-0.570000000000001,8.3,-2.));
#1277=CARTESIAN_POINT('',(-0.570000000000001,9.4,-3.2996327423071));
#1278=CARTESIAN_POINT('',(-0.570000000000001,9.4,-2.40036725769282));
#1279=CARTESIAN_POINT('',(-0.570000000000001,8.3,-3.69999999999993));
#1280=CARTESIAN_POINT('',(-0.570000000000001,9.4,-3.2996327423071));
#1281=CARTESIAN_POINT('',(-0.570000000000001,7.48867513459483,-3.69999999999992));
#1282=CARTESIAN_POINT('',(-0.570000000000001,8.3,-3.69999999999993));
#1283=CARTESIAN_POINT('',(-0.570000000000001,7.20000000000001,-3.19999999999993));
#1284=CARTESIAN_POINT('',(-0.570000000000001,7.48867513459483,-3.69999999999992));
#1285=CARTESIAN_POINT('',(-0.570000000000001,0.5,-3.19999999999993));
#1286=CARTESIAN_POINT('',(-0.570000000000001,7.20000000000001,-3.19999999999993));
#1287=CARTESIAN_POINT('',(-0.570000000000001,0.5,-3.19999999999993));
#1288=CARTESIAN_POINT('Origin',(16.41,0.,-2.));
#1289=CARTESIAN_POINT('',(4.53,3.2,-2.));
#1290=CARTESIAN_POINT('',(-1.95,3.2,-2.));
#1291=CARTESIAN_POINT('',(4.53,8.3,-2.));
#1292=CARTESIAN_POINT('',(4.53,0.,-2.));
#1293=CARTESIAN_POINT('',(16.41,8.3,-2.));
#1294=CARTESIAN_POINT('Origin',(16.41,8.3,-2.));
#1295=CARTESIAN_POINT('',(4.53,9.4,-2.40036725769282));
#1296=CARTESIAN_POINT('',(4.53,8.3,-2.));
#1297=CARTESIAN_POINT('',(16.41,9.4,-2.40036725769282));
#1298=CARTESIAN_POINT('Origin',(16.41,9.4,-2.40036725769282));
#1299=CARTESIAN_POINT('',(4.53,9.4,-3.2996327423071));
#1300=CARTESIAN_POINT('',(4.53,9.4,-2.40036725769282));
#1301=CARTESIAN_POINT('',(16.41,9.4,-3.2996327423071));
#1302=CARTESIAN_POINT('Origin',(16.41,9.4,-3.2996327423071));
#1303=CARTESIAN_POINT('',(4.53,8.3,-3.69999999999993));
#1304=CARTESIAN_POINT('',(4.53,9.4,-3.2996327423071));
#1305=CARTESIAN_POINT('',(16.41,8.3,-3.69999999999993));
#1306=CARTESIAN_POINT('Origin',(16.41,8.3,-3.69999999999993));
#1307=CARTESIAN_POINT('',(4.53,7.48867513459483,-3.69999999999992));
#1308=CARTESIAN_POINT('',(4.53,8.3,-3.69999999999993));
#1309=CARTESIAN_POINT('',(16.41,7.48867513459483,-3.69999999999992));
#1310=CARTESIAN_POINT('Origin',(16.41,7.48867513459483,-3.69999999999992));
#1311=CARTESIAN_POINT('',(4.53,7.20000000000001,-3.19999999999993));
#1312=CARTESIAN_POINT('',(4.53,7.48867513459483,-3.69999999999992));
#1313=CARTESIAN_POINT('',(16.41,7.20000000000001,-3.19999999999993));
#1314=CARTESIAN_POINT('Origin',(16.41,7.20000000000001,-3.19999999999993));
#1315=CARTESIAN_POINT('',(4.53,0.5,-3.19999999999993));
#1316=CARTESIAN_POINT('',(4.53,7.20000000000001,-3.19999999999993));
#1317=CARTESIAN_POINT('',(16.41,0.5,-3.19999999999993));
#1318=CARTESIAN_POINT('Origin',(16.41,0.5,-3.19999999999993));
#1319=CARTESIAN_POINT('',(4.53,-4.33680868994202E-16,-2.69999999999993));
#1320=CARTESIAN_POINT('',(4.53,0.5,-3.19999999999993));
#1321=CARTESIAN_POINT('',(16.41,-4.33680868994202E-16,-2.69999999999993));
#1322=CARTESIAN_POINT('Origin',(-0.570000000000004,-4.33680868994202E-16,
0.569999999999999));
#1323=CARTESIAN_POINT('',(-0.570000000000004,3.2,0.569999999999999));
#1324=CARTESIAN_POINT('',(0.569999999999999,3.2,0.569999999999999));
#1325=CARTESIAN_POINT('',(-0.570000000000004,3.2,0.569999999999999));
#1326=CARTESIAN_POINT('',(0.569999999999999,-4.33680868994202E-16,0.569999999999999));
#1327=CARTESIAN_POINT('',(0.569999999999999,-4.33680868994202E-16,0.569999999999999));
#1328=CARTESIAN_POINT('',(-0.570000000000004,-4.33680868994202E-16,0.569999999999999));
#1329=CARTESIAN_POINT('',(-0.570000000000004,-4.33680868994202E-16,0.569999999999999));
#1330=CARTESIAN_POINT('',(-0.570000000000004,-4.33680868994202E-16,0.569999999999999));
#1331=CARTESIAN_POINT('Origin',(0.569999999999999,-4.33680868994202E-16,
-0.57));
#1332=CARTESIAN_POINT('',(0.569999999999999,3.2,-0.57));
#1333=CARTESIAN_POINT('',(0.569999999999999,3.2,-0.57));
#1334=CARTESIAN_POINT('',(0.569999999999999,-4.33680868994202E-16,-0.57));
#1335=CARTESIAN_POINT('',(0.569999999999999,-4.33680868994202E-16,-0.57));
#1336=CARTESIAN_POINT('',(0.569999999999999,-4.33680868994202E-16,-0.57));
#1337=CARTESIAN_POINT('Origin',(-0.570000000000004,-4.33680868994202E-16,
-0.57));
#1338=CARTESIAN_POINT('',(-0.570000000000004,3.2,-0.57));
#1339=CARTESIAN_POINT('',(-0.570000000000004,3.2,-0.57));
#1340=CARTESIAN_POINT('',(-0.570000000000004,-4.33680868994202E-16,-0.57));
#1341=CARTESIAN_POINT('',(-0.570000000000004,-4.33680868994202E-16,-0.57));
#1342=CARTESIAN_POINT('',(-0.570000000000004,-4.33680868994202E-16,-0.57));
#1343=CARTESIAN_POINT('Origin',(-0.570000000000004,-4.33680868994202E-16,
-0.57));
#1344=CARTESIAN_POINT('',(-0.570000000000004,3.2,-0.57));
#1345=CARTESIAN_POINT('',(-0.570000000000004,-4.33680868994202E-16,-0.57));
#1346=CARTESIAN_POINT('Origin',(0.,3.2,0.));
#1347=CARTESIAN_POINT('',(5.91,3.2,-2.));
#1348=CARTESIAN_POINT('',(5.91,3.2,-2.));
#1349=CARTESIAN_POINT('',(-1.95,3.2,-2.));
#1350=CARTESIAN_POINT('',(-1.95,3.2,-2.));
#1351=CARTESIAN_POINT('',(-1.95,3.2,4.8));
#1352=CARTESIAN_POINT('',(-1.95,3.2,4.8));
#1353=CARTESIAN_POINT('',(5.91,3.2,4.8));
#1354=CARTESIAN_POINT('',(-1.95,3.2,4.8));
#1355=CARTESIAN_POINT('',(5.91,3.2,4.8));
#1356=CARTESIAN_POINT('',(4.53,3.2,0.569999999999999));
#1357=CARTESIAN_POINT('',(3.39,3.2,0.569999999999999));
#1358=CARTESIAN_POINT('',(4.53,3.2,0.569999999999999));
#1359=CARTESIAN_POINT('',(3.39,3.2,-0.57));
#1360=CARTESIAN_POINT('',(3.39,3.2,-0.57));
#1361=CARTESIAN_POINT('',(4.53,3.2,-0.57));
#1362=CARTESIAN_POINT('',(4.53,3.2,-0.57));
#1363=CARTESIAN_POINT('',(4.53,3.2,-0.57));
#1364=CARTESIAN_POINT('Origin',(0.,-4.33680868994202E-16,0.));
#1365=CARTESIAN_POINT('',(4.53,-4.33680868994202E-16,-2.));
#1366=CARTESIAN_POINT('',(4.53,-4.33680868994202E-16,-2.69999999999993));
#1367=CARTESIAN_POINT('',(5.91,-4.33680868994202E-16,-2.));
#1368=CARTESIAN_POINT('',(5.91,-4.33680868994202E-16,-2.));
#1369=CARTESIAN_POINT('',(5.91,-4.33680868994202E-16,4.8));
#1370=CARTESIAN_POINT('',(5.91,-4.33680868994202E-16,4.8));
#1371=CARTESIAN_POINT('',(-1.95,-4.33680868994202E-16,4.8));
#1372=CARTESIAN_POINT('',(-1.95,-4.33680868994202E-16,4.8));
#1373=CARTESIAN_POINT('',(-1.95,-4.33680868994202E-16,-2.));
#1374=CARTESIAN_POINT('',(-1.95,-4.33680868994202E-16,4.8));
#1375=CARTESIAN_POINT('',(-1.95,-4.33680868994202E-16,-2.));
#1376=CARTESIAN_POINT('',(4.53,-4.33680868994202E-16,-0.57));
#1377=CARTESIAN_POINT('',(4.53,-4.33680868994202E-16,0.569999999999999));
#1378=CARTESIAN_POINT('',(4.53,-4.33680868994202E-16,-0.57));
#1379=CARTESIAN_POINT('',(3.39,-4.33680868994202E-16,-0.57));
#1380=CARTESIAN_POINT('',(4.53,-4.33680868994202E-16,-0.57));
#1381=CARTESIAN_POINT('',(3.39,-4.33680868994202E-16,0.569999999999999));
#1382=CARTESIAN_POINT('',(3.39,-4.33680868994202E-16,-0.57));
#1383=CARTESIAN_POINT('',(4.53,-4.33680868994202E-16,0.569999999999999));
#1384=CARTESIAN_POINT('Origin',(-1.95,-4.33680868994202E-16,4.8));
#1385=CARTESIAN_POINT('',(-1.95,-4.33680868994202E-16,4.8));
#1386=CARTESIAN_POINT('',(-1.95,-4.33680868994202E-16,-2.));
#1387=CARTESIAN_POINT('Origin',(-1.95,-4.33680868994202E-16,4.8));
#1388=CARTESIAN_POINT('',(5.91,3.2,4.8));
#1389=CARTESIAN_POINT('Origin',(-1.95,-4.33680868994202E-16,-2.));
#1390=CARTESIAN_POINT('Origin',(5.91,0.,0.));
#1391=CARTESIAN_POINT('',(5.91,-4.33680868994202E-16,-2.));
#1392=CARTESIAN_POINT('Origin',(5.91,-4.33680868994202E-16,-2.));
#1393=CARTESIAN_POINT('',(4.53,0.,-2.));
#1394=CARTESIAN_POINT('Origin',(4.53,-4.33680868994202E-16,-0.57));
#1395=CARTESIAN_POINT('',(4.53,-4.33680868994202E-16,-0.57));
#1396=CARTESIAN_POINT('',(4.53,-4.33680868994202E-16,0.569999999999999));
#1397=CARTESIAN_POINT('Origin',(4.53,-4.33680868994202E-16,-0.57));
#1398=CARTESIAN_POINT('',(3.39,-4.33680868994202E-16,-0.57));
#1399=CARTESIAN_POINT('Origin',(3.39,-4.33680868994202E-16,-0.57));
#1400=CARTESIAN_POINT('',(3.39,-4.33680868994202E-16,0.569999999999999));
#1401=CARTESIAN_POINT('Origin',(4.53,-4.33680868994202E-16,0.569999999999999));
#1402=CARTESIAN_POINT('Origin',(4.53,0.,0.));
#1403=CARTESIAN_POINT('',(0.,0.,0.));
#1404=CARTESIAN_POINT('Origin',(0.57,-3.7,0.355640646055101));
#1405=CARTESIAN_POINT('',(0.355640646055101,-3.7,0.355640646055101));
#1406=CARTESIAN_POINT('',(0.57,-2.9,0.57));
#1407=CARTESIAN_POINT('',(0.534214419432032,-3.03355360485799,0.534214419432032));
#1408=CARTESIAN_POINT('',(-0.57,-2.9,0.57));
#1409=CARTESIAN_POINT('',(0.57,-2.9,0.57));
#1410=CARTESIAN_POINT('',(-0.355640646055101,-3.7,0.355640646055101));
#1411=CARTESIAN_POINT('',(-0.369098495057018,-3.64977462376425,0.369098495057018));
#1412=CARTESIAN_POINT('',(0.57,-3.7,0.355640646055101));
#1413=CARTESIAN_POINT('Origin',(-0.355640646055101,-3.7,0.57));
#1414=CARTESIAN_POINT('',(-0.57,-2.9,-0.57));
#1415=CARTESIAN_POINT('',(-0.355640646055101,-3.7,-0.355640646055101));
#1416=CARTESIAN_POINT('',(-0.297527333921083,-3.91688183348027,-0.297527333921083));
#1417=CARTESIAN_POINT('',(-0.355640646055101,-3.7,0.57));
#1418=CARTESIAN_POINT('',(-0.57,-2.9,0.));
#1419=CARTESIAN_POINT('Origin',(0.57,-2.9,0.));
#1420=CARTESIAN_POINT('',(0.355640646055101,-3.7,-0.355640646055101));
#1421=CARTESIAN_POINT('',(0.57,-2.9,-0.57));
#1422=CARTESIAN_POINT('',(0.57,-2.9,-0.57));
#1423=CARTESIAN_POINT('',(0.57,-2.9,-0.57));
#1424=CARTESIAN_POINT('',(0.355640646055101,-3.7,0.57));
#1425=CARTESIAN_POINT('Origin',(0.57,-2.9,-0.57));
#1426=CARTESIAN_POINT('',(0.57,-2.9,-0.57));
#1427=CARTESIAN_POINT('',(0.57,-3.7,-0.355640646055101));
#1428=CARTESIAN_POINT('Origin',(0.57,10.9,-0.355640646055101));
#1429=CARTESIAN_POINT('',(0.355640646055101,10.9,-0.355640646055101));
#1430=CARTESIAN_POINT('',(0.57,10.1,-0.57));
#1431=CARTESIAN_POINT('',(0.534214419432032,10.233553604858,-0.534214419432032));
#1432=CARTESIAN_POINT('',(-0.57,10.1,-0.57));
#1433=CARTESIAN_POINT('',(0.57,10.1,-0.57));
#1434=CARTESIAN_POINT('',(-0.355640646055101,10.9,-0.355640646055101));
#1435=CARTESIAN_POINT('',(-0.297527333921082,11.1168818334803,-0.297527333921082));
#1436=CARTESIAN_POINT('',(0.57,10.9,-0.355640646055101));
#1437=CARTESIAN_POINT('Origin',(-0.355640646055101,10.9,0.57));
#1438=CARTESIAN_POINT('',(-0.57,10.1,0.57));
#1439=CARTESIAN_POINT('',(-0.355640646055101,10.9,0.355640646055101));
#1440=CARTESIAN_POINT('',(-0.369098495057018,10.8497746237643,0.369098495057018));
#1441=CARTESIAN_POINT('',(-0.355640646055101,10.9,0.57));
#1442=CARTESIAN_POINT('',(-0.57,10.1,0.));
#1443=CARTESIAN_POINT('Origin',(0.57,10.1,0.));
#1444=CARTESIAN_POINT('',(0.355640646055101,10.9,0.355640646055101));
#1445=CARTESIAN_POINT('',(0.57,10.1,0.57));
#1446=CARTESIAN_POINT('',(0.57,10.1,0.57));
#1447=CARTESIAN_POINT('',(0.57,10.1,0.57));
#1448=CARTESIAN_POINT('',(0.355640646055101,10.9,-0.57));
#1449=CARTESIAN_POINT('Origin',(0.57,10.1,0.57));
#1450=CARTESIAN_POINT('',(0.57,10.1,0.57));
#1451=CARTESIAN_POINT('',(0.57,10.9,0.355640646055101));
#1452=CARTESIAN_POINT('Origin',(-0.57,0.,0.));
#1453=CARTESIAN_POINT('',(-0.57,10.9,0.57));
#1454=CARTESIAN_POINT('',(-0.57,-3.7,-0.57));
#1455=CARTESIAN_POINT('Origin',(0.57,0.,0.));
#1456=CARTESIAN_POINT('',(0.57,-3.7,-0.57));
#1457=CARTESIAN_POINT('',(0.57,10.9,0.57));
#1458=CARTESIAN_POINT('Origin',(0.57,10.9,0.57));
#1459=CARTESIAN_POINT('Origin',(0.57,10.9,0.57));
#1460=CARTESIAN_POINT('Origin',(0.57,-3.7,-0.57));
#1461=CARTESIAN_POINT('Origin',(0.57,-3.7,0.57));
#1462=CARTESIAN_POINT('',(-1.98,4.33680868994202E-16,0.));
#1463=CARTESIAN_POINT('',(-1.98,0.,-1.51788304147971E-15));
#1464=CARTESIAN_POINT('',(1.98,0.,-1.51788304147971E-15));
#1465=CARTESIAN_POINT('',(0.,0.,0.));
#1466=CARTESIAN_POINT('Origin',(-0.5,18.2,0.5));
#1467=CARTESIAN_POINT('',(0.5,18.2,0.5));
#1468=CARTESIAN_POINT('',(-0.5,18.2,0.5));
#1469=CARTESIAN_POINT('',(-0.5,18.2,0.5));
#1470=CARTESIAN_POINT('',(0.5,18.2,3.6));
#1471=CARTESIAN_POINT('',(0.5,18.2,0.5));
#1472=CARTESIAN_POINT('',(-0.5,18.2,3.6));
#1473=CARTESIAN_POINT('',(-0.5,18.2,3.6));
#1474=CARTESIAN_POINT('',(-0.5,18.2,0.5));
#1475=CARTESIAN_POINT('Origin',(-2.08166817117217E-16,18.7,3.6));
#1476=CARTESIAN_POINT('',(0.5,19.2,3.6));
#1477=CARTESIAN_POINT('',(0.5,0.,3.6));
#1478=CARTESIAN_POINT('',(-0.5,19.2,3.6));
#1479=CARTESIAN_POINT('',(0.5,19.2,3.6));
#1480=CARTESIAN_POINT('',(-0.5,19.2,3.6));
#1481=CARTESIAN_POINT('Origin',(-0.5,0.,0.5));
#1482=CARTESIAN_POINT('',(-0.5,0.,0.5));
#1483=CARTESIAN_POINT('',(-0.5,0.,0.5));
#1484=CARTESIAN_POINT('',(0.5,0.,0.5));
#1485=CARTESIAN_POINT('',(-0.5,0.,0.5));
#1486=CARTESIAN_POINT('',(0.5,0.,0.5));
#1487=CARTESIAN_POINT('Origin',(-0.5,0.,-0.5));
#1488=CARTESIAN_POINT('',(-0.5,0.,-0.5));
#1489=CARTESIAN_POINT('',(-0.5,0.,-0.5));
#1490=CARTESIAN_POINT('',(-0.5,19.2,-0.5));
#1491=CARTESIAN_POINT('',(-0.5,19.2,-0.5));
#1492=CARTESIAN_POINT('',(-0.5,0.,-0.5));
#1493=CARTESIAN_POINT('Origin',(0.5,0.,-0.5));
#1494=CARTESIAN_POINT('',(0.5,0.,-0.5));
#1495=CARTESIAN_POINT('',(0.5,0.,-0.5));
#1496=CARTESIAN_POINT('',(0.5,19.2,-0.5));
#1497=CARTESIAN_POINT('',(0.5,19.2,-0.5));
#1498=CARTESIAN_POINT('',(0.5,0.,-0.5));
#1499=CARTESIAN_POINT('Origin',(0.5,0.,0.5));
#1500=CARTESIAN_POINT('',(0.5,0.,0.5));
#1501=CARTESIAN_POINT('',(0.5,19.2,0.5));
#1502=CARTESIAN_POINT('Origin',(-1.38777878078145E-16,19.2,0.));
#1503=CARTESIAN_POINT('Origin',(-1.73472347597681E-16,0.,0.));
#1504=CARTESIAN_POINT('',(0.,0.,0.));
#1505=CARTESIAN_POINT('',(-1.98,-7.3,18.7));
#1506=CARTESIAN_POINT('',(1.98,-7.3,18.7));
#1507=UNCERTAINTY_MEASURE_WITH_UNIT(LENGTH_MEASURE(0.01),#1519,
'DISTANCE_ACCURACY_VALUE',
'Maximum model space distance between geometric entities at asserted c
onnectivities');
#1508=UNCERTAINTY_MEASURE_WITH_UNIT(LENGTH_MEASURE(0.01),#1519,
'DISTANCE_ACCURACY_VALUE',
'Maximum model space distance between geometric entities at asserted c
onnectivities');
#1509=UNCERTAINTY_MEASURE_WITH_UNIT(LENGTH_MEASURE(0.01),#1519,
'DISTANCE_ACCURACY_VALUE',
'Maximum model space distance between geometric entities at asserted c
onnectivities');
#1510=UNCERTAINTY_MEASURE_WITH_UNIT(LENGTH_MEASURE(0.01),#1519,
'DISTANCE_ACCURACY_VALUE',
'Maximum model space distance between geometric entities at asserted c
onnectivities');
#1511=UNCERTAINTY_MEASURE_WITH_UNIT(LENGTH_MEASURE(0.01),#1519,
'DISTANCE_ACCURACY_VALUE',
'Maximum model space distance between geometric entities at asserted c
onnectivities');
#1512=UNCERTAINTY_MEASURE_WITH_UNIT(LENGTH_MEASURE(0.01),#1519,
'DISTANCE_ACCURACY_VALUE',
'Maximum model space distance between geometric entities at asserted c
onnectivities');
#1513=(
GEOMETRIC_REPRESENTATION_CONTEXT(3)
GLOBAL_UNCERTAINTY_ASSIGNED_CONTEXT((#1507))
GLOBAL_UNIT_ASSIGNED_CONTEXT((#1519,#1521,#1522))
REPRESENTATION_CONTEXT('','3D')
);
#1514=(
GEOMETRIC_REPRESENTATION_CONTEXT(3)
GLOBAL_UNCERTAINTY_ASSIGNED_CONTEXT((#1508))
GLOBAL_UNIT_ASSIGNED_CONTEXT((#1519,#1521,#1522))
REPRESENTATION_CONTEXT('','3D')
);
#1515=(
GEOMETRIC_REPRESENTATION_CONTEXT(3)
GLOBAL_UNCERTAINTY_ASSIGNED_CONTEXT((#1509))
GLOBAL_UNIT_ASSIGNED_CONTEXT((#1519,#1521,#1522))
REPRESENTATION_CONTEXT('','3D')
);
#1516=(
GEOMETRIC_REPRESENTATION_CONTEXT(3)
GLOBAL_UNCERTAINTY_ASSIGNED_CONTEXT((#1510))
GLOBAL_UNIT_ASSIGNED_CONTEXT((#1519,#1521,#1522))
REPRESENTATION_CONTEXT('','3D')
);
#1517=(
GEOMETRIC_REPRESENTATION_CONTEXT(3)
GLOBAL_UNCERTAINTY_ASSIGNED_CONTEXT((#1511))
GLOBAL_UNIT_ASSIGNED_CONTEXT((#1519,#1521,#1522))
REPRESENTATION_CONTEXT('','3D')
);
#1518=(
GEOMETRIC_REPRESENTATION_CONTEXT(3)
GLOBAL_UNCERTAINTY_ASSIGNED_CONTEXT((#1512))
GLOBAL_UNIT_ASSIGNED_CONTEXT((#1519,#1521,#1522))
REPRESENTATION_CONTEXT('','3D')
);
#1519=(
LENGTH_UNIT()
NAMED_UNIT(*)
SI_UNIT(.MILLI.,.METRE.)
);
#1520=(
LENGTH_UNIT()
NAMED_UNIT(*)
SI_UNIT(.CENTI.,.METRE.)
);
#1521=(
NAMED_UNIT(*)
PLANE_ANGLE_UNIT()
SI_UNIT($,.RADIAN.)
);
#1522=(
NAMED_UNIT(*)
SI_UNIT($,.STERADIAN.)
SOLID_ANGLE_UNIT()
);
#1523=SHAPE_DEFINITION_REPRESENTATION(#1528,#1539);
#1524=SHAPE_DEFINITION_REPRESENTATION(#1529,#1540);
#1525=SHAPE_DEFINITION_REPRESENTATION(#1530,#1541);
#1526=SHAPE_DEFINITION_REPRESENTATION(#1531,#1542);
#1527=SHAPE_DEFINITION_REPRESENTATION(#1535,#1543);
#1528=PRODUCT_DEFINITION_SHAPE('',$,#1545);
#1529=PRODUCT_DEFINITION_SHAPE('',$,#1546);
#1530=PRODUCT_DEFINITION_SHAPE('',$,#1547);
#1531=PRODUCT_DEFINITION_SHAPE('',$,#1548);
#1532=PRODUCT_DEFINITION_SHAPE($,$,#29);
#1533=PRODUCT_DEFINITION_SHAPE($,$,#30);
#1534=PRODUCT_DEFINITION_SHAPE($,$,#31);
#1535=PRODUCT_DEFINITION_SHAPE('',$,#1549);
#1536=PRODUCT_DEFINITION_SHAPE($,$,#32);
#1537=PRODUCT_DEFINITION_SHAPE($,$,#33);
#1538=PRODUCT_DEFINITION_SHAPE($,$,#34);
#1539=SHAPE_REPRESENTATION('',(#977,#1032,#1033,#1034),#1513);
#1540=SHAPE_REPRESENTATION('',(#978,#1020,#1021,#1022),#1514);
#1541=SHAPE_REPRESENTATION('',(#979),#1515);
#1542=SHAPE_REPRESENTATION('',(#1005),#1516);
#1543=SHAPE_REPRESENTATION('',(#1023),#1517);
#1544=PRODUCT_DEFINITION_CONTEXT('part definition',#1561,'design');
#1545=PRODUCT_DEFINITION('jst-vh-2p','jst-vh-2p_short-up',#1550,#1544);
#1546=PRODUCT_DEFINITION('B2P-VH','B2P-VH',#1551,#1544);
#1547=PRODUCT_DEFINITION('BxP-VH_2','BxP-VH_2',#1552,#1544);
#1548=PRODUCT_DEFINITION('pin','pin',#1553,#1544);
#1549=PRODUCT_DEFINITION('jst-vh-2p_wire','jst-vh-2p_wire_short-up',#1554,
#1544);
#1550=PRODUCT_DEFINITION_FORMATION('',$,#1563);
#1551=PRODUCT_DEFINITION_FORMATION('ANY',$,#1564);
#1552=PRODUCT_DEFINITION_FORMATION('ANY',$,#1565);
#1553=PRODUCT_DEFINITION_FORMATION('ANY',$,#1566);
#1554=PRODUCT_DEFINITION_FORMATION('',$,#1567);
#1555=PRODUCT_RELATED_PRODUCT_CATEGORY('jst-vh-2p_short-up',
'jst-vh-2p_short-up',(#1563));
#1556=PRODUCT_RELATED_PRODUCT_CATEGORY('B2P-VH','B2P-VH',(#1564));
#1557=PRODUCT_RELATED_PRODUCT_CATEGORY('BxP-VH_2','BxP-VH_2',(#1565));
#1558=PRODUCT_RELATED_PRODUCT_CATEGORY('pin','pin',(#1566));
#1559=PRODUCT_RELATED_PRODUCT_CATEGORY('jst-vh-2p_wire_short-up',
'jst-vh-2p_wire_short-up',(#1567));
#1560=APPLICATION_PROTOCOL_DEFINITION('international standard',
'automotive_design',2009,#1561);
#1561=APPLICATION_CONTEXT(
'Core Data for Automotive Mechanical Design Process');
#1562=PRODUCT_CONTEXT('part definition',#1561,'mechanical');
#1563=PRODUCT('jst-vh-2p','jst-vh-2p_short-up',$,(#1562));
#1564=PRODUCT('B2P-VH','B2P-VH','STEP AP214',(#1562));
#1565=PRODUCT('BxP-VH_2','BxP-VH_2',$,(#1562));
#1566=PRODUCT('pin','pin',$,(#1562));
#1567=PRODUCT('jst-vh-2p_wire','jst-vh-2p_wire_short-up',$,(#1562));
ENDSEC;
END-ISO-10303-21;
