ISO-10303-21;
HEADER;
/* Generated by software containing ST-Developer
 * from STEP Tools, Inc. (www.steptools.com) 
 */

FILE_DESCRIPTION(
/* description */ (''),
/* implementation_level */ '2;1');

FILE_NAME(
/* name */ 'switch.step',
/* time_stamp */ '2025-12-13T10:51:34Z',
/* author */ ('sam'),
/* organization */ (''),
/* preprocessor_version */ 'ST-DEVELOPER v20',
/* originating_system */ 'Autodesk Inventor 2025',
/* authorisation */ '');

FILE_SCHEMA (('AUTOMOTIVE_DESIGN { 1 0 10303 214 3 1 1 }'));
ENDSEC;

DATA;
#10=MECHANICAL_DESIGN_GEOMETRIC_PRESENTATION_REPRESENTATION('',(#27,#28),
#1291);
#11=ITEM_DEFINED_TRANSFORMATION($,$,#819,#869);
#12=ITEM_DEFINED_TRANSFORMATION($,$,#862,#870);
#13=ITEM_DEFINED_TRANSFORMATION($,$,#862,#871);
#14=(
REPRESENTATION_RELATIONSHIP($,$,#1306,#1305)
REPRESENTATION_RELATIONSHIP_WITH_TRANSFORMATION(#11)
SHAPE_REPRESENTATION_RELATIONSHIP()
);
#15=(
REPRESENTATION_RELATIONSHIP($,$,#1307,#1305)
REPRESENTATION_RELATIONSHIP_WITH_TRANSFORMATION(#12)
SHAPE_REPRESENTATION_RELATIONSHIP()
);
#16=(
REPRESENTATION_RELATIONSHIP($,$,#1307,#1305)
REPRESENTATION_RELATIONSHIP_WITH_TRANSFORMATION(#13)
SHAPE_REPRESENTATION_RELATIONSHIP()
);
#17=CONTEXT_DEPENDENT_SHAPE_REPRESENTATION(#14,#1302);
#18=CONTEXT_DEPENDENT_SHAPE_REPRESENTATION(#15,#1303);
#19=CONTEXT_DEPENDENT_SHAPE_REPRESENTATION(#16,#1304);
#20=NEXT_ASSEMBLY_USAGE_OCCURRENCE('switch:1','switch:1','switch:1',#1309,
#1310,'switch:1');
#21=NEXT_ASSEMBLY_USAGE_OCCURRENCE('switch-wire:1','switch-wire:1',
'switch-wire:1',#1309,#1311,'switch-wire:1');
#22=NEXT_ASSEMBLY_USAGE_OCCURRENCE('switch-wire:2','switch-wire:2',
'switch-wire:2',#1309,#1311,'switch-wire:2');
#23=SHAPE_REPRESENTATION_RELATIONSHIP('SRR','None',#1306,#25);
#24=SHAPE_REPRESENTATION_RELATIONSHIP('SRR','None',#1307,#26);
#25=ADVANCED_BREP_SHAPE_REPRESENTATION('',(#29),#1289);
#26=ADVANCED_BREP_SHAPE_REPRESENTATION('',(#30),#1290);
#27=STYLED_ITEM('',(#791),#29);
#28=STYLED_ITEM('',(#791),#30);
#29=MANIFOLD_SOLID_BREP('Solid1',#763);
#30=MANIFOLD_SOLID_BREP('Solid1',#764);
#31=FACE_BOUND('',#116,.T.);
#32=FACE_BOUND('',#126,.T.);
#33=FACE_BOUND('',#127,.T.);
#34=FACE_BOUND('',#128,.T.);
#35=ELLIPSE('',#843,0.707106781186547,0.5);
#36=ELLIPSE('',#844,0.707106781186548,0.5);
#37=ELLIPSE('',#846,0.707106781186548,0.5);
#38=ELLIPSE('',#848,0.707106781186548,0.5);
#39=CYLINDRICAL_SURFACE('',#842,0.5);
#40=CYLINDRICAL_SURFACE('',#845,0.5);
#41=CYLINDRICAL_SURFACE('',#847,0.5);
#42=CYLINDRICAL_SURFACE('',#849,0.5);
#43=FACE_OUTER_BOUND('',#87,.T.);
#44=FACE_OUTER_BOUND('',#88,.T.);
#45=FACE_OUTER_BOUND('',#89,.T.);
#46=FACE_OUTER_BOUND('',#90,.T.);
#47=FACE_OUTER_BOUND('',#91,.T.);
#48=FACE_OUTER_BOUND('',#92,.T.);
#49=FACE_OUTER_BOUND('',#93,.T.);
#50=FACE_OUTER_BOUND('',#94,.T.);
#51=FACE_OUTER_BOUND('',#95,.T.);
#52=FACE_OUTER_BOUND('',#96,.T.);
#53=FACE_OUTER_BOUND('',#97,.T.);
#54=FACE_OUTER_BOUND('',#98,.T.);
#55=FACE_OUTER_BOUND('',#99,.T.);
#56=FACE_OUTER_BOUND('',#100,.T.);
#57=FACE_OUTER_BOUND('',#101,.T.);
#58=FACE_OUTER_BOUND('',#102,.T.);
#59=FACE_OUTER_BOUND('',#103,.T.);
#60=FACE_OUTER_BOUND('',#104,.T.);
#61=FACE_OUTER_BOUND('',#105,.T.);
#62=FACE_OUTER_BOUND('',#106,.T.);
#63=FACE_OUTER_BOUND('',#107,.T.);
#64=FACE_OUTER_BOUND('',#108,.T.);
#65=FACE_OUTER_BOUND('',#109,.T.);
#66=FACE_OUTER_BOUND('',#110,.T.);
#67=FACE_OUTER_BOUND('',#111,.T.);
#68=FACE_OUTER_BOUND('',#112,.T.);
#69=FACE_OUTER_BOUND('',#113,.T.);
#70=FACE_OUTER_BOUND('',#114,.T.);
#71=FACE_OUTER_BOUND('',#115,.T.);
#72=FACE_OUTER_BOUND('',#117,.T.);
#73=FACE_OUTER_BOUND('',#118,.T.);
#74=FACE_OUTER_BOUND('',#119,.T.);
#75=FACE_OUTER_BOUND('',#120,.T.);
#76=FACE_OUTER_BOUND('',#121,.T.);
#77=FACE_OUTER_BOUND('',#122,.T.);
#78=FACE_OUTER_BOUND('',#123,.T.);
#79=FACE_OUTER_BOUND('',#124,.T.);
#80=FACE_OUTER_BOUND('',#125,.T.);
#81=FACE_OUTER_BOUND('',#129,.T.);
#82=FACE_OUTER_BOUND('',#130,.T.);
#83=FACE_OUTER_BOUND('',#131,.T.);
#84=FACE_OUTER_BOUND('',#132,.T.);
#85=FACE_OUTER_BOUND('',#133,.T.);
#86=FACE_OUTER_BOUND('',#134,.T.);
#87=EDGE_LOOP('',(#483,#484,#485,#486));
#88=EDGE_LOOP('',(#487,#488,#489,#490));
#89=EDGE_LOOP('',(#491,#492,#493,#494));
#90=EDGE_LOOP('',(#495,#496,#497,#498));
#91=EDGE_LOOP('',(#499,#500,#501,#502));
#92=EDGE_LOOP('',(#503,#504,#505,#506));
#93=EDGE_LOOP('',(#507,#508,#509,#510));
#94=EDGE_LOOP('',(#511,#512,#513,#514));
#95=EDGE_LOOP('',(#515,#516,#517,#518));
#96=EDGE_LOOP('',(#519,#520,#521,#522));
#97=EDGE_LOOP('',(#523,#524,#525,#526));
#98=EDGE_LOOP('',(#527,#528,#529,#530));
#99=EDGE_LOOP('',(#531,#532,#533,#534));
#100=EDGE_LOOP('',(#535,#536,#537,#538));
#101=EDGE_LOOP('',(#539,#540,#541,#542));
#102=EDGE_LOOP('',(#543,#544,#545,#546));
#103=EDGE_LOOP('',(#547,#548,#549,#550));
#104=EDGE_LOOP('',(#551,#552,#553,#554));
#105=EDGE_LOOP('',(#555,#556,#557,#558));
#106=EDGE_LOOP('',(#559,#560,#561,#562));
#107=EDGE_LOOP('',(#563,#564,#565,#566));
#108=EDGE_LOOP('',(#567,#568,#569,#570));
#109=EDGE_LOOP('',(#571,#572,#573,#574));
#110=EDGE_LOOP('',(#575,#576,#577,#578));
#111=EDGE_LOOP('',(#579,#580,#581,#582));
#112=EDGE_LOOP('',(#583,#584,#585,#586));
#113=EDGE_LOOP('',(#587,#588,#589,#590));
#114=EDGE_LOOP('',(#591,#592,#593,#594));
#115=EDGE_LOOP('',(#595,#596,#597,#598));
#116=EDGE_LOOP('',(#599,#600,#601,#602,#603,#604));
#117=EDGE_LOOP('',(#605,#606,#607,#608,#609,#610));
#118=EDGE_LOOP('',(#611,#612,#613,#614));
#119=EDGE_LOOP('',(#615,#616,#617,#618));
#120=EDGE_LOOP('',(#619,#620,#621,#622));
#121=EDGE_LOOP('',(#623,#624,#625,#626));
#122=EDGE_LOOP('',(#627,#628,#629,#630));
#123=EDGE_LOOP('',(#631,#632,#633,#634));
#124=EDGE_LOOP('',(#635,#636,#637,#638));
#125=EDGE_LOOP('',(#639,#640,#641,#642));
#126=EDGE_LOOP('',(#643,#644,#645,#646));
#127=EDGE_LOOP('',(#647,#648,#649,#650));
#128=EDGE_LOOP('',(#651,#652,#653,#654));
#129=EDGE_LOOP('',(#655,#656,#657,#658));
#130=EDGE_LOOP('',(#659,#660,#661,#662));
#131=EDGE_LOOP('',(#663,#664,#665,#666));
#132=EDGE_LOOP('',(#667,#668,#669,#670));
#133=EDGE_LOOP('',(#671,#672,#673,#674));
#134=EDGE_LOOP('',(#675,#676,#677,#678));
#135=LINE('',#1079,#229);
#136=LINE('',#1081,#230);
#137=LINE('',#1083,#231);
#138=LINE('',#1084,#232);
#139=LINE('',#1087,#233);
#140=LINE('',#1089,#234);
#141=LINE('',#1090,#235);
#142=LINE('',#1093,#236);
#143=LINE('',#1095,#237);
#144=LINE('',#1096,#238);
#145=LINE('',#1098,#239);
#146=LINE('',#1099,#240);
#147=LINE('',#1104,#241);
#148=LINE('',#1106,#242);
#149=LINE('',#1108,#243);
#150=LINE('',#1109,#244);
#151=LINE('',#1112,#245);
#152=LINE('',#1114,#246);
#153=LINE('',#1115,#247);
#154=LINE('',#1118,#248);
#155=LINE('',#1120,#249);
#156=LINE('',#1121,#250);
#157=LINE('',#1123,#251);
#158=LINE('',#1124,#252);
#159=LINE('',#1129,#253);
#160=LINE('',#1131,#254);
#161=LINE('',#1133,#255);
#162=LINE('',#1134,#256);
#163=LINE('',#1137,#257);
#164=LINE('',#1139,#258);
#165=LINE('',#1140,#259);
#166=LINE('',#1143,#260);
#167=LINE('',#1145,#261);
#168=LINE('',#1146,#262);
#169=LINE('',#1148,#263);
#170=LINE('',#1149,#264);
#171=LINE('',#1154,#265);
#172=LINE('',#1156,#266);
#173=LINE('',#1158,#267);
#174=LINE('',#1159,#268);
#175=LINE('',#1162,#269);
#176=LINE('',#1164,#270);
#177=LINE('',#1165,#271);
#178=LINE('',#1168,#272);
#179=LINE('',#1170,#273);
#180=LINE('',#1171,#274);
#181=LINE('',#1173,#275);
#182=LINE('',#1174,#276);
#183=LINE('',#1177,#277);
#184=LINE('',#1179,#278);
#185=LINE('',#1180,#279);
#186=LINE('',#1183,#280);
#187=LINE('',#1184,#281);
#188=LINE('',#1189,#282);
#189=LINE('',#1193,#283);
#190=LINE('',#1197,#284);
#191=LINE('',#1200,#285);
#192=LINE('',#1203,#286);
#193=LINE('',#1206,#287);
#194=LINE('',#1208,#288);
#195=LINE('',#1209,#289);
#196=LINE('',#1212,#290);
#197=LINE('',#1214,#291);
#198=LINE('',#1215,#292);
#199=LINE('',#1218,#293);
#200=LINE('',#1219,#294);
#201=LINE('',#1222,#295);
#202=LINE('',#1224,#296);
#203=LINE('',#1226,#297);
#204=LINE('',#1227,#298);
#205=LINE('',#1229,#299);
#206=LINE('',#1231,#300);
#207=LINE('',#1233,#301);
#208=LINE('',#1234,#302);
#209=LINE('',#1238,#303);
#210=LINE('',#1239,#304);
#211=LINE('',#1242,#305);
#212=LINE('',#1243,#306);
#213=LINE('',#1245,#307);
#214=LINE('',#1249,#308);
#215=LINE('',#1250,#309);
#216=LINE('',#1252,#310);
#217=LINE('',#1258,#311);
#218=LINE('',#1260,#312);
#219=LINE('',#1262,#313);
#220=LINE('',#1263,#314);
#221=LINE('',#1266,#315);
#222=LINE('',#1268,#316);
#223=LINE('',#1269,#317);
#224=LINE('',#1272,#318);
#225=LINE('',#1274,#319);
#226=LINE('',#1275,#320);
#227=LINE('',#1277,#321);
#228=LINE('',#1278,#322);
#229=VECTOR('',#878,10.);
#230=VECTOR('',#879,10.);
#231=VECTOR('',#880,10.);
#232=VECTOR('',#881,10.);
#233=VECTOR('',#884,10.);
#234=VECTOR('',#885,10.);
#235=VECTOR('',#886,10.);
#236=VECTOR('',#889,10.);
#237=VECTOR('',#890,10.);
#238=VECTOR('',#891,10.);
#239=VECTOR('',#894,10.);
#240=VECTOR('',#895,10.);
#241=VECTOR('',#900,10.);
#242=VECTOR('',#901,10.);
#243=VECTOR('',#902,10.);
#244=VECTOR('',#903,10.);
#245=VECTOR('',#906,10.);
#246=VECTOR('',#907,10.);
#247=VECTOR('',#908,10.);
#248=VECTOR('',#911,10.);
#249=VECTOR('',#912,10.);
#250=VECTOR('',#913,10.);
#251=VECTOR('',#916,10.);
#252=VECTOR('',#917,10.);
#253=VECTOR('',#922,10.);
#254=VECTOR('',#923,10.);
#255=VECTOR('',#924,10.);
#256=VECTOR('',#925,10.);
#257=VECTOR('',#928,10.);
#258=VECTOR('',#929,10.);
#259=VECTOR('',#930,10.);
#260=VECTOR('',#933,10.);
#261=VECTOR('',#934,10.);
#262=VECTOR('',#935,10.);
#263=VECTOR('',#938,10.);
#264=VECTOR('',#939,10.);
#265=VECTOR('',#944,10.);
#266=VECTOR('',#945,10.);
#267=VECTOR('',#946,10.);
#268=VECTOR('',#947,10.);
#269=VECTOR('',#950,10.);
#270=VECTOR('',#951,10.);
#271=VECTOR('',#952,10.);
#272=VECTOR('',#955,10.);
#273=VECTOR('',#956,10.);
#274=VECTOR('',#957,10.);
#275=VECTOR('',#960,10.);
#276=VECTOR('',#961,10.);
#277=VECTOR('',#964,10.);
#278=VECTOR('',#965,10.);
#279=VECTOR('',#966,10.);
#280=VECTOR('',#969,10.);
#281=VECTOR('',#970,10.);
#282=VECTOR('',#975,10.);
#283=VECTOR('',#978,10.);
#284=VECTOR('',#983,10.);
#285=VECTOR('',#986,10.);
#286=VECTOR('',#989,10.);
#287=VECTOR('',#992,10.);
#288=VECTOR('',#995,10.);
#289=VECTOR('',#996,10.);
#290=VECTOR('',#999,10.);
#291=VECTOR('',#1000,10.);
#292=VECTOR('',#1001,10.);
#293=VECTOR('',#1004,10.);
#294=VECTOR('',#1005,10.);
#295=VECTOR('',#1008,10.);
#296=VECTOR('',#1009,10.);
#297=VECTOR('',#1010,10.);
#298=VECTOR('',#1011,10.);
#299=VECTOR('',#1014,10.);
#300=VECTOR('',#1015,10.);
#301=VECTOR('',#1016,10.);
#302=VECTOR('',#1017,10.);
#303=VECTOR('',#1022,10.);
#304=VECTOR('',#1023,10.);
#305=VECTOR('',#1026,10.);
#306=VECTOR('',#1027,10.);
#307=VECTOR('',#1030,10.);
#308=VECTOR('',#1035,10.);
#309=VECTOR('',#1036,10.);
#310=VECTOR('',#1039,10.);
#311=VECTOR('',#1046,10.);
#312=VECTOR('',#1047,10.);
#313=VECTOR('',#1048,10.);
#314=VECTOR('',#1049,10.);
#315=VECTOR('',#1052,10.);
#316=VECTOR('',#1053,10.);
#317=VECTOR('',#1054,10.);
#318=VECTOR('',#1057,10.);
#319=VECTOR('',#1058,10.);
#320=VECTOR('',#1059,10.);
#321=VECTOR('',#1062,10.);
#322=VECTOR('',#1063,10.);
#323=VERTEX_POINT('',#1077);
#324=VERTEX_POINT('',#1078);
#325=VERTEX_POINT('',#1080);
#326=VERTEX_POINT('',#1082);
#327=VERTEX_POINT('',#1086);
#328=VERTEX_POINT('',#1088);
#329=VERTEX_POINT('',#1092);
#330=VERTEX_POINT('',#1094);
#331=VERTEX_POINT('',#1102);
#332=VERTEX_POINT('',#1103);
#333=VERTEX_POINT('',#1105);
#334=VERTEX_POINT('',#1107);
#335=VERTEX_POINT('',#1111);
#336=VERTEX_POINT('',#1113);
#337=VERTEX_POINT('',#1117);
#338=VERTEX_POINT('',#1119);
#339=VERTEX_POINT('',#1127);
#340=VERTEX_POINT('',#1128);
#341=VERTEX_POINT('',#1130);
#342=VERTEX_POINT('',#1132);
#343=VERTEX_POINT('',#1136);
#344=VERTEX_POINT('',#1138);
#345=VERTEX_POINT('',#1142);
#346=VERTEX_POINT('',#1144);
#347=VERTEX_POINT('',#1152);
#348=VERTEX_POINT('',#1153);
#349=VERTEX_POINT('',#1155);
#350=VERTEX_POINT('',#1157);
#351=VERTEX_POINT('',#1161);
#352=VERTEX_POINT('',#1163);
#353=VERTEX_POINT('',#1167);
#354=VERTEX_POINT('',#1169);
#355=VERTEX_POINT('',#1176);
#356=VERTEX_POINT('',#1178);
#357=VERTEX_POINT('',#1182);
#358=VERTEX_POINT('',#1187);
#359=VERTEX_POINT('',#1188);
#360=VERTEX_POINT('',#1190);
#361=VERTEX_POINT('',#1192);
#362=VERTEX_POINT('',#1196);
#363=VERTEX_POINT('',#1198);
#364=VERTEX_POINT('',#1202);
#365=VERTEX_POINT('',#1204);
#366=VERTEX_POINT('',#1211);
#367=VERTEX_POINT('',#1213);
#368=VERTEX_POINT('',#1217);
#369=VERTEX_POINT('',#1221);
#370=VERTEX_POINT('',#1223);
#371=VERTEX_POINT('',#1225);
#372=VERTEX_POINT('',#1230);
#373=VERTEX_POINT('',#1232);
#374=VERTEX_POINT('',#1237);
#375=VERTEX_POINT('',#1241);
#376=VERTEX_POINT('',#1248);
#377=VERTEX_POINT('',#1256);
#378=VERTEX_POINT('',#1257);
#379=VERTEX_POINT('',#1259);
#380=VERTEX_POINT('',#1261);
#381=VERTEX_POINT('',#1265);
#382=VERTEX_POINT('',#1267);
#383=VERTEX_POINT('',#1271);
#384=VERTEX_POINT('',#1273);
#385=EDGE_CURVE('',#323,#324,#135,.T.);
#386=EDGE_CURVE('',#323,#325,#136,.T.);
#387=EDGE_CURVE('',#326,#325,#137,.T.);
#388=EDGE_CURVE('',#324,#326,#138,.T.);
#389=EDGE_CURVE('',#324,#327,#139,.T.);
#390=EDGE_CURVE('',#328,#326,#140,.T.);
#391=EDGE_CURVE('',#327,#328,#141,.T.);
#392=EDGE_CURVE('',#327,#329,#142,.T.);
#393=EDGE_CURVE('',#330,#328,#143,.T.);
#394=EDGE_CURVE('',#329,#330,#144,.T.);
#395=EDGE_CURVE('',#329,#323,#145,.T.);
#396=EDGE_CURVE('',#325,#330,#146,.T.);
#397=EDGE_CURVE('',#331,#332,#147,.T.);
#398=EDGE_CURVE('',#331,#333,#148,.T.);
#399=EDGE_CURVE('',#334,#333,#149,.T.);
#400=EDGE_CURVE('',#332,#334,#150,.T.);
#401=EDGE_CURVE('',#332,#335,#151,.T.);
#402=EDGE_CURVE('',#336,#334,#152,.T.);
#403=EDGE_CURVE('',#335,#336,#153,.T.);
#404=EDGE_CURVE('',#335,#337,#154,.T.);
#405=EDGE_CURVE('',#338,#336,#155,.T.);
#406=EDGE_CURVE('',#337,#338,#156,.T.);
#407=EDGE_CURVE('',#337,#331,#157,.T.);
#408=EDGE_CURVE('',#333,#338,#158,.T.);
#409=EDGE_CURVE('',#339,#340,#159,.T.);
#410=EDGE_CURVE('',#339,#341,#160,.T.);
#411=EDGE_CURVE('',#342,#341,#161,.T.);
#412=EDGE_CURVE('',#340,#342,#162,.T.);
#413=EDGE_CURVE('',#340,#343,#163,.T.);
#414=EDGE_CURVE('',#344,#342,#164,.T.);
#415=EDGE_CURVE('',#343,#344,#165,.T.);
#416=EDGE_CURVE('',#343,#345,#166,.T.);
#417=EDGE_CURVE('',#346,#344,#167,.T.);
#418=EDGE_CURVE('',#345,#346,#168,.T.);
#419=EDGE_CURVE('',#345,#339,#169,.T.);
#420=EDGE_CURVE('',#341,#346,#170,.T.);
#421=EDGE_CURVE('',#347,#348,#171,.T.);
#422=EDGE_CURVE('',#348,#349,#172,.T.);
#423=EDGE_CURVE('',#349,#350,#173,.T.);
#424=EDGE_CURVE('',#347,#350,#174,.T.);
#425=EDGE_CURVE('',#348,#351,#175,.T.);
#426=EDGE_CURVE('',#351,#352,#176,.T.);
#427=EDGE_CURVE('',#352,#349,#177,.T.);
#428=EDGE_CURVE('',#351,#353,#178,.T.);
#429=EDGE_CURVE('',#353,#354,#179,.T.);
#430=EDGE_CURVE('',#354,#352,#180,.T.);
#431=EDGE_CURVE('',#350,#354,#181,.T.);
#432=EDGE_CURVE('',#353,#347,#182,.T.);
#433=EDGE_CURVE('',#355,#350,#183,.T.);
#434=EDGE_CURVE('',#356,#355,#184,.T.);
#435=EDGE_CURVE('',#356,#354,#185,.T.);
#436=EDGE_CURVE('',#357,#349,#186,.T.);
#437=EDGE_CURVE('',#355,#357,#187,.T.);
#438=EDGE_CURVE('',#358,#359,#188,.T.);
#439=EDGE_CURVE('',#359,#360,#35,.T.);
#440=EDGE_CURVE('',#360,#361,#189,.T.);
#441=EDGE_CURVE('',#358,#361,#36,.T.);
#442=EDGE_CURVE('',#359,#362,#190,.T.);
#443=EDGE_CURVE('',#362,#363,#37,.T.);
#444=EDGE_CURVE('',#363,#360,#191,.T.);
#445=EDGE_CURVE('',#362,#364,#192,.T.);
#446=EDGE_CURVE('',#364,#365,#38,.T.);
#447=EDGE_CURVE('',#365,#363,#193,.T.);
#448=EDGE_CURVE('',#361,#365,#194,.T.);
#449=EDGE_CURVE('',#364,#358,#195,.T.);
#450=EDGE_CURVE('',#366,#361,#196,.T.);
#451=EDGE_CURVE('',#366,#367,#197,.T.);
#452=EDGE_CURVE('',#367,#365,#198,.T.);
#453=EDGE_CURVE('',#368,#360,#199,.T.);
#454=EDGE_CURVE('',#368,#366,#200,.T.);
#455=EDGE_CURVE('',#357,#369,#201,.T.);
#456=EDGE_CURVE('',#369,#370,#202,.T.);
#457=EDGE_CURVE('',#370,#371,#203,.T.);
#458=EDGE_CURVE('',#371,#356,#204,.T.);
#459=EDGE_CURVE('',#371,#352,#205,.T.);
#460=EDGE_CURVE('',#372,#371,#206,.T.);
#461=EDGE_CURVE('',#373,#372,#207,.T.);
#462=EDGE_CURVE('',#357,#373,#208,.T.);
#463=EDGE_CURVE('',#373,#374,#209,.T.);
#464=EDGE_CURVE('',#369,#374,#210,.T.);
#465=EDGE_CURVE('',#370,#375,#211,.T.);
#466=EDGE_CURVE('',#375,#372,#212,.T.);
#467=EDGE_CURVE('',#374,#375,#213,.T.);
#468=EDGE_CURVE('',#367,#376,#214,.T.);
#469=EDGE_CURVE('',#376,#363,#215,.T.);
#470=EDGE_CURVE('',#376,#368,#216,.T.);
#471=EDGE_CURVE('',#377,#378,#217,.T.);
#472=EDGE_CURVE('',#378,#379,#218,.T.);
#473=EDGE_CURVE('',#380,#379,#219,.T.);
#474=EDGE_CURVE('',#377,#380,#220,.T.);
#475=EDGE_CURVE('',#381,#377,#221,.T.);
#476=EDGE_CURVE('',#382,#380,#222,.T.);
#477=EDGE_CURVE('',#381,#382,#223,.T.);
#478=EDGE_CURVE('',#383,#381,#224,.T.);
#479=EDGE_CURVE('',#384,#382,#225,.T.);
#480=EDGE_CURVE('',#383,#384,#226,.T.);
#481=EDGE_CURVE('',#378,#383,#227,.T.);
#482=EDGE_CURVE('',#379,#384,#228,.T.);
#483=ORIENTED_EDGE('',*,*,#385,.F.);
#484=ORIENTED_EDGE('',*,*,#386,.T.);
#485=ORIENTED_EDGE('',*,*,#387,.F.);
#486=ORIENTED_EDGE('',*,*,#388,.F.);
#487=ORIENTED_EDGE('',*,*,#389,.F.);
#488=ORIENTED_EDGE('',*,*,#388,.T.);
#489=ORIENTED_EDGE('',*,*,#390,.F.);
#490=ORIENTED_EDGE('',*,*,#391,.F.);
#491=ORIENTED_EDGE('',*,*,#392,.F.);
#492=ORIENTED_EDGE('',*,*,#391,.T.);
#493=ORIENTED_EDGE('',*,*,#393,.F.);
#494=ORIENTED_EDGE('',*,*,#394,.F.);
#495=ORIENTED_EDGE('',*,*,#395,.F.);
#496=ORIENTED_EDGE('',*,*,#394,.T.);
#497=ORIENTED_EDGE('',*,*,#396,.F.);
#498=ORIENTED_EDGE('',*,*,#386,.F.);
#499=ORIENTED_EDGE('',*,*,#396,.T.);
#500=ORIENTED_EDGE('',*,*,#393,.T.);
#501=ORIENTED_EDGE('',*,*,#390,.T.);
#502=ORIENTED_EDGE('',*,*,#387,.T.);
#503=ORIENTED_EDGE('',*,*,#397,.F.);
#504=ORIENTED_EDGE('',*,*,#398,.T.);
#505=ORIENTED_EDGE('',*,*,#399,.F.);
#506=ORIENTED_EDGE('',*,*,#400,.F.);
#507=ORIENTED_EDGE('',*,*,#401,.F.);
#508=ORIENTED_EDGE('',*,*,#400,.T.);
#509=ORIENTED_EDGE('',*,*,#402,.F.);
#510=ORIENTED_EDGE('',*,*,#403,.F.);
#511=ORIENTED_EDGE('',*,*,#404,.F.);
#512=ORIENTED_EDGE('',*,*,#403,.T.);
#513=ORIENTED_EDGE('',*,*,#405,.F.);
#514=ORIENTED_EDGE('',*,*,#406,.F.);
#515=ORIENTED_EDGE('',*,*,#407,.F.);
#516=ORIENTED_EDGE('',*,*,#406,.T.);
#517=ORIENTED_EDGE('',*,*,#408,.F.);
#518=ORIENTED_EDGE('',*,*,#398,.F.);
#519=ORIENTED_EDGE('',*,*,#408,.T.);
#520=ORIENTED_EDGE('',*,*,#405,.T.);
#521=ORIENTED_EDGE('',*,*,#402,.T.);
#522=ORIENTED_EDGE('',*,*,#399,.T.);
#523=ORIENTED_EDGE('',*,*,#409,.F.);
#524=ORIENTED_EDGE('',*,*,#410,.T.);
#525=ORIENTED_EDGE('',*,*,#411,.F.);
#526=ORIENTED_EDGE('',*,*,#412,.F.);
#527=ORIENTED_EDGE('',*,*,#413,.F.);
#528=ORIENTED_EDGE('',*,*,#412,.T.);
#529=ORIENTED_EDGE('',*,*,#414,.F.);
#530=ORIENTED_EDGE('',*,*,#415,.F.);
#531=ORIENTED_EDGE('',*,*,#416,.F.);
#532=ORIENTED_EDGE('',*,*,#415,.T.);
#533=ORIENTED_EDGE('',*,*,#417,.F.);
#534=ORIENTED_EDGE('',*,*,#418,.F.);
#535=ORIENTED_EDGE('',*,*,#419,.F.);
#536=ORIENTED_EDGE('',*,*,#418,.T.);
#537=ORIENTED_EDGE('',*,*,#420,.F.);
#538=ORIENTED_EDGE('',*,*,#410,.F.);
#539=ORIENTED_EDGE('',*,*,#420,.T.);
#540=ORIENTED_EDGE('',*,*,#417,.T.);
#541=ORIENTED_EDGE('',*,*,#414,.T.);
#542=ORIENTED_EDGE('',*,*,#411,.T.);
#543=ORIENTED_EDGE('',*,*,#421,.T.);
#544=ORIENTED_EDGE('',*,*,#422,.T.);
#545=ORIENTED_EDGE('',*,*,#423,.T.);
#546=ORIENTED_EDGE('',*,*,#424,.F.);
#547=ORIENTED_EDGE('',*,*,#425,.T.);
#548=ORIENTED_EDGE('',*,*,#426,.T.);
#549=ORIENTED_EDGE('',*,*,#427,.T.);
#550=ORIENTED_EDGE('',*,*,#422,.F.);
#551=ORIENTED_EDGE('',*,*,#428,.T.);
#552=ORIENTED_EDGE('',*,*,#429,.T.);
#553=ORIENTED_EDGE('',*,*,#430,.T.);
#554=ORIENTED_EDGE('',*,*,#426,.F.);
#555=ORIENTED_EDGE('',*,*,#431,.T.);
#556=ORIENTED_EDGE('',*,*,#429,.F.);
#557=ORIENTED_EDGE('',*,*,#432,.T.);
#558=ORIENTED_EDGE('',*,*,#424,.T.);
#559=ORIENTED_EDGE('',*,*,#431,.F.);
#560=ORIENTED_EDGE('',*,*,#433,.F.);
#561=ORIENTED_EDGE('',*,*,#434,.F.);
#562=ORIENTED_EDGE('',*,*,#435,.T.);
#563=ORIENTED_EDGE('',*,*,#423,.F.);
#564=ORIENTED_EDGE('',*,*,#436,.F.);
#565=ORIENTED_EDGE('',*,*,#437,.F.);
#566=ORIENTED_EDGE('',*,*,#433,.T.);
#567=ORIENTED_EDGE('',*,*,#421,.F.);
#568=ORIENTED_EDGE('',*,*,#432,.F.);
#569=ORIENTED_EDGE('',*,*,#428,.F.);
#570=ORIENTED_EDGE('',*,*,#425,.F.);
#571=ORIENTED_EDGE('',*,*,#438,.T.);
#572=ORIENTED_EDGE('',*,*,#439,.T.);
#573=ORIENTED_EDGE('',*,*,#440,.T.);
#574=ORIENTED_EDGE('',*,*,#441,.F.);
#575=ORIENTED_EDGE('',*,*,#442,.T.);
#576=ORIENTED_EDGE('',*,*,#443,.T.);
#577=ORIENTED_EDGE('',*,*,#444,.T.);
#578=ORIENTED_EDGE('',*,*,#439,.F.);
#579=ORIENTED_EDGE('',*,*,#445,.T.);
#580=ORIENTED_EDGE('',*,*,#446,.T.);
#581=ORIENTED_EDGE('',*,*,#447,.T.);
#582=ORIENTED_EDGE('',*,*,#443,.F.);
#583=ORIENTED_EDGE('',*,*,#448,.T.);
#584=ORIENTED_EDGE('',*,*,#446,.F.);
#585=ORIENTED_EDGE('',*,*,#449,.T.);
#586=ORIENTED_EDGE('',*,*,#441,.T.);
#587=ORIENTED_EDGE('',*,*,#448,.F.);
#588=ORIENTED_EDGE('',*,*,#450,.F.);
#589=ORIENTED_EDGE('',*,*,#451,.T.);
#590=ORIENTED_EDGE('',*,*,#452,.T.);
#591=ORIENTED_EDGE('',*,*,#440,.F.);
#592=ORIENTED_EDGE('',*,*,#453,.F.);
#593=ORIENTED_EDGE('',*,*,#454,.T.);
#594=ORIENTED_EDGE('',*,*,#450,.T.);
#595=ORIENTED_EDGE('',*,*,#438,.F.);
#596=ORIENTED_EDGE('',*,*,#449,.F.);
#597=ORIENTED_EDGE('',*,*,#445,.F.);
#598=ORIENTED_EDGE('',*,*,#442,.F.);
#599=ORIENTED_EDGE('',*,*,#437,.T.);
#600=ORIENTED_EDGE('',*,*,#455,.T.);
#601=ORIENTED_EDGE('',*,*,#456,.T.);
#602=ORIENTED_EDGE('',*,*,#457,.T.);
#603=ORIENTED_EDGE('',*,*,#458,.T.);
#604=ORIENTED_EDGE('',*,*,#434,.T.);
#605=ORIENTED_EDGE('',*,*,#427,.F.);
#606=ORIENTED_EDGE('',*,*,#459,.F.);
#607=ORIENTED_EDGE('',*,*,#460,.F.);
#608=ORIENTED_EDGE('',*,*,#461,.F.);
#609=ORIENTED_EDGE('',*,*,#462,.F.);
#610=ORIENTED_EDGE('',*,*,#436,.T.);
#611=ORIENTED_EDGE('',*,*,#430,.F.);
#612=ORIENTED_EDGE('',*,*,#435,.F.);
#613=ORIENTED_EDGE('',*,*,#458,.F.);
#614=ORIENTED_EDGE('',*,*,#459,.T.);
#615=ORIENTED_EDGE('',*,*,#462,.T.);
#616=ORIENTED_EDGE('',*,*,#463,.T.);
#617=ORIENTED_EDGE('',*,*,#464,.F.);
#618=ORIENTED_EDGE('',*,*,#455,.F.);
#619=ORIENTED_EDGE('',*,*,#460,.T.);
#620=ORIENTED_EDGE('',*,*,#457,.F.);
#621=ORIENTED_EDGE('',*,*,#465,.T.);
#622=ORIENTED_EDGE('',*,*,#466,.T.);
#623=ORIENTED_EDGE('',*,*,#456,.F.);
#624=ORIENTED_EDGE('',*,*,#464,.T.);
#625=ORIENTED_EDGE('',*,*,#467,.T.);
#626=ORIENTED_EDGE('',*,*,#465,.F.);
#627=ORIENTED_EDGE('',*,*,#461,.T.);
#628=ORIENTED_EDGE('',*,*,#466,.F.);
#629=ORIENTED_EDGE('',*,*,#467,.F.);
#630=ORIENTED_EDGE('',*,*,#463,.F.);
#631=ORIENTED_EDGE('',*,*,#447,.F.);
#632=ORIENTED_EDGE('',*,*,#452,.F.);
#633=ORIENTED_EDGE('',*,*,#468,.T.);
#634=ORIENTED_EDGE('',*,*,#469,.T.);
#635=ORIENTED_EDGE('',*,*,#444,.F.);
#636=ORIENTED_EDGE('',*,*,#469,.F.);
#637=ORIENTED_EDGE('',*,*,#470,.T.);
#638=ORIENTED_EDGE('',*,*,#453,.T.);
#639=ORIENTED_EDGE('',*,*,#470,.F.);
#640=ORIENTED_EDGE('',*,*,#468,.F.);
#641=ORIENTED_EDGE('',*,*,#451,.F.);
#642=ORIENTED_EDGE('',*,*,#454,.F.);
#643=ORIENTED_EDGE('',*,*,#385,.T.);
#644=ORIENTED_EDGE('',*,*,#389,.T.);
#645=ORIENTED_EDGE('',*,*,#392,.T.);
#646=ORIENTED_EDGE('',*,*,#395,.T.);
#647=ORIENTED_EDGE('',*,*,#397,.T.);
#648=ORIENTED_EDGE('',*,*,#401,.T.);
#649=ORIENTED_EDGE('',*,*,#404,.T.);
#650=ORIENTED_EDGE('',*,*,#407,.T.);
#651=ORIENTED_EDGE('',*,*,#409,.T.);
#652=ORIENTED_EDGE('',*,*,#413,.T.);
#653=ORIENTED_EDGE('',*,*,#416,.T.);
#654=ORIENTED_EDGE('',*,*,#419,.T.);
#655=ORIENTED_EDGE('',*,*,#471,.T.);
#656=ORIENTED_EDGE('',*,*,#472,.T.);
#657=ORIENTED_EDGE('',*,*,#473,.F.);
#658=ORIENTED_EDGE('',*,*,#474,.F.);
#659=ORIENTED_EDGE('',*,*,#475,.T.);
#660=ORIENTED_EDGE('',*,*,#474,.T.);
#661=ORIENTED_EDGE('',*,*,#476,.F.);
#662=ORIENTED_EDGE('',*,*,#477,.F.);
#663=ORIENTED_EDGE('',*,*,#478,.T.);
#664=ORIENTED_EDGE('',*,*,#477,.T.);
#665=ORIENTED_EDGE('',*,*,#479,.F.);
#666=ORIENTED_EDGE('',*,*,#480,.F.);
#667=ORIENTED_EDGE('',*,*,#481,.T.);
#668=ORIENTED_EDGE('',*,*,#480,.T.);
#669=ORIENTED_EDGE('',*,*,#482,.F.);
#670=ORIENTED_EDGE('',*,*,#472,.F.);
#671=ORIENTED_EDGE('',*,*,#482,.T.);
#672=ORIENTED_EDGE('',*,*,#479,.T.);
#673=ORIENTED_EDGE('',*,*,#476,.T.);
#674=ORIENTED_EDGE('',*,*,#473,.T.);
#675=ORIENTED_EDGE('',*,*,#481,.F.);
#676=ORIENTED_EDGE('',*,*,#471,.F.);
#677=ORIENTED_EDGE('',*,*,#475,.F.);
#678=ORIENTED_EDGE('',*,*,#478,.F.);
#679=PLANE('',#820);
#680=PLANE('',#821);
#681=PLANE('',#822);
#682=PLANE('',#823);
#683=PLANE('',#824);
#684=PLANE('',#825);
#685=PLANE('',#826);
#686=PLANE('',#827);
#687=PLANE('',#828);
#688=PLANE('',#829);
#689=PLANE('',#830);
#690=PLANE('',#831);
#691=PLANE('',#832);
#692=PLANE('',#833);
#693=PLANE('',#834);
#694=PLANE('',#835);
#695=PLANE('',#836);
#696=PLANE('',#837);
#697=PLANE('',#838);
#698=PLANE('',#839);
#699=PLANE('',#840);
#700=PLANE('',#841);
#701=PLANE('',#850);
#702=PLANE('',#851);
#703=PLANE('',#852);
#704=PLANE('',#853);
#705=PLANE('',#854);
#706=PLANE('',#855);
#707=PLANE('',#856);
#708=PLANE('',#857);
#709=PLANE('',#858);
#710=PLANE('',#859);
#711=PLANE('',#860);
#712=PLANE('',#861);
#713=PLANE('',#863);
#714=PLANE('',#864);
#715=PLANE('',#865);
#716=PLANE('',#866);
#717=PLANE('',#867);
#718=PLANE('',#868);
#719=ADVANCED_FACE('',(#43),#679,.T.);
#720=ADVANCED_FACE('',(#44),#680,.T.);
#721=ADVANCED_FACE('',(#45),#681,.T.);
#722=ADVANCED_FACE('',(#46),#682,.T.);
#723=ADVANCED_FACE('',(#47),#683,.T.);
#724=ADVANCED_FACE('',(#48),#684,.T.);
#725=ADVANCED_FACE('',(#49),#685,.T.);
#726=ADVANCED_FACE('',(#50),#686,.T.);
#727=ADVANCED_FACE('',(#51),#687,.T.);
#728=ADVANCED_FACE('',(#52),#688,.T.);
#729=ADVANCED_FACE('',(#53),#689,.T.);
#730=ADVANCED_FACE('',(#54),#690,.T.);
#731=ADVANCED_FACE('',(#55),#691,.T.);
#732=ADVANCED_FACE('',(#56),#692,.T.);
#733=ADVANCED_FACE('',(#57),#693,.T.);
#734=ADVANCED_FACE('',(#58),#694,.T.);
#735=ADVANCED_FACE('',(#59),#695,.T.);
#736=ADVANCED_FACE('',(#60),#696,.T.);
#737=ADVANCED_FACE('',(#61),#697,.T.);
#738=ADVANCED_FACE('',(#62),#698,.T.);
#739=ADVANCED_FACE('',(#63),#699,.T.);
#740=ADVANCED_FACE('',(#64),#700,.T.);
#741=ADVANCED_FACE('',(#65),#39,.T.);
#742=ADVANCED_FACE('',(#66),#40,.T.);
#743=ADVANCED_FACE('',(#67),#41,.T.);
#744=ADVANCED_FACE('',(#68),#42,.T.);
#745=ADVANCED_FACE('',(#69),#701,.T.);
#746=ADVANCED_FACE('',(#70),#702,.T.);
#747=ADVANCED_FACE('',(#71,#31),#703,.T.);
#748=ADVANCED_FACE('',(#72),#704,.T.);
#749=ADVANCED_FACE('',(#73),#705,.T.);
#750=ADVANCED_FACE('',(#74),#706,.F.);
#751=ADVANCED_FACE('',(#75),#707,.F.);
#752=ADVANCED_FACE('',(#76),#708,.F.);
#753=ADVANCED_FACE('',(#77),#709,.F.);
#754=ADVANCED_FACE('',(#78),#710,.T.);
#755=ADVANCED_FACE('',(#79),#711,.T.);
#756=ADVANCED_FACE('',(#80,#32,#33,#34),#712,.F.);
#757=ADVANCED_FACE('',(#81),#713,.T.);
#758=ADVANCED_FACE('',(#82),#714,.T.);
#759=ADVANCED_FACE('',(#83),#715,.T.);
#760=ADVANCED_FACE('',(#84),#716,.T.);
#761=ADVANCED_FACE('',(#85),#717,.T.);
#762=ADVANCED_FACE('',(#86),#718,.F.);
#763=CLOSED_SHELL('',(#719,#720,#721,#722,#723,#724,#725,#726,#727,#728,
#729,#730,#731,#732,#733,#734,#735,#736,#737,#738,#739,#740,#741,#742,#743,
#744,#745,#746,#747,#748,#749,#750,#751,#752,#753,#754,#755,#756));
#764=CLOSED_SHELL('',(#757,#758,#759,#760,#761,#762));
#765=DERIVED_UNIT_ELEMENT(#770,1.);
#766=DERIVED_UNIT_ELEMENT(#1293,-3.);
#767=DERIVED_UNIT_ELEMENT(#770,1.);
#768=DERIVED_UNIT_ELEMENT(#1293,-3.);
#769=DIMENSIONAL_EXPONENTS(0.,1.,0.,0.,0.,0.,0.);
#770=(
CONVERSION_BASED_UNIT('gram',#772)
MASS_UNIT()
NAMED_UNIT(#769)
);
#771=(
MASS_UNIT()
NAMED_UNIT(*)
SI_UNIT(.KILO.,.GRAM.)
);
#772=MASS_MEASURE_WITH_UNIT(MASS_MEASURE(0.001),#771);
#773=DERIVED_UNIT((#765,#766));
#774=DERIVED_UNIT((#767,#768));
#775=MEASURE_REPRESENTATION_ITEM('density measure',
POSITIVE_RATIO_MEASURE(1.),#773);
#776=MEASURE_REPRESENTATION_ITEM('density measure',
POSITIVE_RATIO_MEASURE(1.),#774);
#777=PROPERTY_DEFINITION_REPRESENTATION(#787,#781);
#778=PROPERTY_DEFINITION_REPRESENTATION(#788,#782);
#779=PROPERTY_DEFINITION_REPRESENTATION(#789,#783);
#780=PROPERTY_DEFINITION_REPRESENTATION(#790,#784);
#781=REPRESENTATION('material name',(#785),#1289);
#782=REPRESENTATION('density',(#775),#1289);
#783=REPRESENTATION('material name',(#786),#1290);
#784=REPRESENTATION('density',(#776),#1290);
#785=DESCRIPTIVE_REPRESENTATION_ITEM('Generic','Generic');
#786=DESCRIPTIVE_REPRESENTATION_ITEM('Generic','Generic');
#787=PROPERTY_DEFINITION('material property','material name',#1310);
#788=PROPERTY_DEFINITION('material property','density of part',#1310);
#789=PROPERTY_DEFINITION('material property','material name',#1311);
#790=PROPERTY_DEFINITION('material property','density of part',#1311);
#791=PRESENTATION_STYLE_ASSIGNMENT((#792));
#792=SURFACE_STYLE_USAGE(.BOTH.,#795);
#793=SURFACE_STYLE_RENDERING_WITH_PROPERTIES($,#799,(#794));
#794=SURFACE_STYLE_TRANSPARENT(0.);
#795=SURFACE_SIDE_STYLE('',(#796,#793));
#796=SURFACE_STYLE_FILL_AREA(#797);
#797=FILL_AREA_STYLE('',(#798));
#798=FILL_AREA_STYLE_COLOUR('',#799);
#799=COLOUR_RGB('',0.749019607843137,0.749019607843137,0.749019607843137);
#800=DATE_TIME_ROLE('creation_date');
#801=DATE_TIME_ROLE('creation_date');
#802=DATE_TIME_ROLE('creation_date');
#803=APPLIED_DATE_AND_TIME_ASSIGNMENT(#806,#800,(#1309));
#804=APPLIED_DATE_AND_TIME_ASSIGNMENT(#807,#801,(#1310));
#805=APPLIED_DATE_AND_TIME_ASSIGNMENT(#808,#802,(#1311));
#806=DATE_AND_TIME(#809,#812);
#807=DATE_AND_TIME(#810,#813);
#808=DATE_AND_TIME(#811,#814);
#809=CALENDAR_DATE(2025,13,12);
#810=CALENDAR_DATE(2025,13,12);
#811=CALENDAR_DATE(2025,13,12);
#812=LOCAL_TIME(0,0,0.,#815);
#813=LOCAL_TIME(0,0,0.,#816);
#814=LOCAL_TIME(0,0,0.,#817);
#815=COORDINATED_UNIVERSAL_TIME_OFFSET(0,0,.BEHIND.);
#816=COORDINATED_UNIVERSAL_TIME_OFFSET(0,0,.BEHIND.);
#817=COORDINATED_UNIVERSAL_TIME_OFFSET(0,0,.BEHIND.);
#818=AXIS2_PLACEMENT_3D('',#1074,#872,#873);
#819=AXIS2_PLACEMENT_3D('',#1075,#874,#875);
#820=AXIS2_PLACEMENT_3D('',#1076,#876,#877);
#821=AXIS2_PLACEMENT_3D('',#1085,#882,#883);
#822=AXIS2_PLACEMENT_3D('',#1091,#887,#888);
#823=AXIS2_PLACEMENT_3D('',#1097,#892,#893);
#824=AXIS2_PLACEMENT_3D('',#1100,#896,#897);
#825=AXIS2_PLACEMENT_3D('',#1101,#898,#899);
#826=AXIS2_PLACEMENT_3D('',#1110,#904,#905);
#827=AXIS2_PLACEMENT_3D('',#1116,#909,#910);
#828=AXIS2_PLACEMENT_3D('',#1122,#914,#915);
#829=AXIS2_PLACEMENT_3D('',#1125,#918,#919);
#830=AXIS2_PLACEMENT_3D('',#1126,#920,#921);
#831=AXIS2_PLACEMENT_3D('',#1135,#926,#927);
#832=AXIS2_PLACEMENT_3D('',#1141,#931,#932);
#833=AXIS2_PLACEMENT_3D('',#1147,#936,#937);
#834=AXIS2_PLACEMENT_3D('',#1150,#940,#941);
#835=AXIS2_PLACEMENT_3D('',#1151,#942,#943);
#836=AXIS2_PLACEMENT_3D('',#1160,#948,#949);
#837=AXIS2_PLACEMENT_3D('',#1166,#953,#954);
#838=AXIS2_PLACEMENT_3D('',#1172,#958,#959);
#839=AXIS2_PLACEMENT_3D('',#1175,#962,#963);
#840=AXIS2_PLACEMENT_3D('',#1181,#967,#968);
#841=AXIS2_PLACEMENT_3D('',#1185,#971,#972);
#842=AXIS2_PLACEMENT_3D('',#1186,#973,#974);
#843=AXIS2_PLACEMENT_3D('',#1191,#976,#977);
#844=AXIS2_PLACEMENT_3D('',#1194,#979,#980);
#845=AXIS2_PLACEMENT_3D('',#1195,#981,#982);
#846=AXIS2_PLACEMENT_3D('',#1199,#984,#985);
#847=AXIS2_PLACEMENT_3D('',#1201,#987,#988);
#848=AXIS2_PLACEMENT_3D('',#1205,#990,#991);
#849=AXIS2_PLACEMENT_3D('',#1207,#993,#994);
#850=AXIS2_PLACEMENT_3D('',#1210,#997,#998);
#851=AXIS2_PLACEMENT_3D('',#1216,#1002,#1003);
#852=AXIS2_PLACEMENT_3D('',#1220,#1006,#1007);
#853=AXIS2_PLACEMENT_3D('',#1228,#1012,#1013);
#854=AXIS2_PLACEMENT_3D('',#1235,#1018,#1019);
#855=AXIS2_PLACEMENT_3D('',#1236,#1020,#1021);
#856=AXIS2_PLACEMENT_3D('',#1240,#1024,#1025);
#857=AXIS2_PLACEMENT_3D('',#1244,#1028,#1029);
#858=AXIS2_PLACEMENT_3D('',#1246,#1031,#1032);
#859=AXIS2_PLACEMENT_3D('',#1247,#1033,#1034);
#860=AXIS2_PLACEMENT_3D('',#1251,#1037,#1038);
#861=AXIS2_PLACEMENT_3D('',#1253,#1040,#1041);
#862=AXIS2_PLACEMENT_3D('',#1254,#1042,#1043);
#863=AXIS2_PLACEMENT_3D('',#1255,#1044,#1045);
#864=AXIS2_PLACEMENT_3D('',#1264,#1050,#1051);
#865=AXIS2_PLACEMENT_3D('',#1270,#1055,#1056);
#866=AXIS2_PLACEMENT_3D('',#1276,#1060,#1061);
#867=AXIS2_PLACEMENT_3D('',#1279,#1064,#1065);
#868=AXIS2_PLACEMENT_3D('',#1280,#1066,#1067);
#869=AXIS2_PLACEMENT_3D('',#1281,#1068,#1069);
#870=AXIS2_PLACEMENT_3D('',#1282,#1070,#1071);
#871=AXIS2_PLACEMENT_3D('',#1283,#1072,#1073);
#872=DIRECTION('axis',(0.,0.,1.));
#873=DIRECTION('refdir',(1.,0.,0.));
#874=DIRECTION('axis',(0.,0.,1.));
#875=DIRECTION('refdir',(1.,0.,0.));
#876=DIRECTION('center_axis',(1.,-9.25185853854297E-16,0.));
#877=DIRECTION('ref_axis',(-9.25185853854297E-16,-1.,0.));
#878=DIRECTION('',(9.25185853854297E-16,1.,0.));
#879=DIRECTION('',(0.,0.,-1.));
#880=DIRECTION('',(-9.25185853854297E-16,-1.,0.));
#881=DIRECTION('',(0.,0.,-1.));
#882=DIRECTION('center_axis',(2.08166817117217E-16,1.,0.));
#883=DIRECTION('ref_axis',(1.,-2.08166817117217E-16,0.));
#884=DIRECTION('',(-1.,2.08166817117217E-16,0.));
#885=DIRECTION('',(1.,-2.08166817117217E-16,0.));
#886=DIRECTION('',(0.,0.,-1.));
#887=DIRECTION('center_axis',(-1.,0.,0.));
#888=DIRECTION('ref_axis',(0.,1.,0.));
#889=DIRECTION('',(0.,-1.,0.));
#890=DIRECTION('',(0.,1.,0.));
#891=DIRECTION('',(0.,0.,-1.));
#892=DIRECTION('center_axis',(-1.73472347597681E-16,-1.,0.));
#893=DIRECTION('ref_axis',(-1.,1.73472347597681E-16,0.));
#894=DIRECTION('',(1.,-1.73472347597681E-16,0.));
#895=DIRECTION('',(-1.,1.73472347597681E-16,0.));
#896=DIRECTION('center_axis',(0.,0.,-1.));
#897=DIRECTION('ref_axis',(-1.,0.,0.));
#898=DIRECTION('center_axis',(1.,-1.15648231731787E-16,0.));
#899=DIRECTION('ref_axis',(-1.15648231731787E-16,-1.,0.));
#900=DIRECTION('',(1.15648231731787E-16,1.,0.));
#901=DIRECTION('',(0.,0.,-1.));
#902=DIRECTION('',(-1.15648231731787E-16,-1.,0.));
#903=DIRECTION('',(0.,0.,-1.));
#904=DIRECTION('center_axis',(0.,1.,0.));
#905=DIRECTION('ref_axis',(1.,0.,0.));
#906=DIRECTION('',(-1.,0.,0.));
#907=DIRECTION('',(1.,0.,0.));
#908=DIRECTION('',(0.,0.,-1.));
#909=DIRECTION('center_axis',(-1.,-1.15648231731787E-16,0.));
#910=DIRECTION('ref_axis',(-1.15648231731787E-16,1.,0.));
#911=DIRECTION('',(1.15648231731787E-16,-1.,0.));
#912=DIRECTION('',(-1.15648231731787E-16,1.,0.));
#913=DIRECTION('',(0.,0.,-1.));
#914=DIRECTION('center_axis',(0.,-1.,0.));
#915=DIRECTION('ref_axis',(-1.,0.,0.));
#916=DIRECTION('',(1.,0.,0.));
#917=DIRECTION('',(-1.,0.,0.));
#918=DIRECTION('center_axis',(0.,0.,-1.));
#919=DIRECTION('ref_axis',(-1.,0.,0.));
#920=DIRECTION('center_axis',(1.,0.,0.));
#921=DIRECTION('ref_axis',(0.,-1.,0.));
#922=DIRECTION('',(0.,1.,0.));
#923=DIRECTION('',(0.,0.,-1.));
#924=DIRECTION('',(0.,-1.,0.));
#925=DIRECTION('',(0.,0.,-1.));
#926=DIRECTION('center_axis',(-6.93889390390722E-17,1.,0.));
#927=DIRECTION('ref_axis',(1.,6.93889390390722E-17,0.));
#928=DIRECTION('',(-1.,-6.93889390390722E-17,0.));
#929=DIRECTION('',(1.,6.93889390390722E-17,0.));
#930=DIRECTION('',(0.,0.,-1.));
#931=DIRECTION('center_axis',(-1.,-1.85037170770859E-15,0.));
#932=DIRECTION('ref_axis',(-1.85037170770859E-15,1.,0.));
#933=DIRECTION('',(1.85037170770859E-15,-1.,0.));
#934=DIRECTION('',(-1.85037170770859E-15,1.,0.));
#935=DIRECTION('',(0.,0.,-1.));
#936=DIRECTION('center_axis',(3.46944695195361E-17,-1.,0.));
#937=DIRECTION('ref_axis',(-1.,-3.46944695195361E-17,0.));
#938=DIRECTION('',(1.,3.46944695195361E-17,0.));
#939=DIRECTION('',(-1.,-3.46944695195361E-17,0.));
#940=DIRECTION('center_axis',(0.,0.,-1.));
#941=DIRECTION('ref_axis',(-1.,0.,0.));
#942=DIRECTION('center_axis',(0.,-0.707106781186548,0.707106781186547));
#943=DIRECTION('ref_axis',(1.,0.,0.));
#944=DIRECTION('',(-1.,0.,0.));
#945=DIRECTION('',(-0.577350269189626,-0.577350269189626,-0.577350269189626));
#946=DIRECTION('',(1.,0.,0.));
#947=DIRECTION('',(0.577350269189625,-0.577350269189626,-0.577350269189626));
#948=DIRECTION('center_axis',(-0.707106781186548,0.,0.707106781186547));
#949=DIRECTION('ref_axis',(0.707106781186547,0.,0.707106781186548));
#950=DIRECTION('',(0.,1.,0.));
#951=DIRECTION('',(-0.577350269189626,0.577350269189626,-0.577350269189626));
#952=DIRECTION('',(0.,-1.,0.));
#953=DIRECTION('center_axis',(0.,0.707106781186548,0.707106781186547));
#954=DIRECTION('ref_axis',(1.,0.,0.));
#955=DIRECTION('',(1.,0.,0.));
#956=DIRECTION('',(0.577350269189625,0.577350269189626,-0.577350269189626));
#957=DIRECTION('',(-1.,0.,0.));
#958=DIRECTION('center_axis',(0.707106781186548,0.,0.707106781186547));
#959=DIRECTION('ref_axis',(0.707106781186547,0.,-0.707106781186548));
#960=DIRECTION('',(0.,1.,0.));
#961=DIRECTION('',(0.,-1.,0.));
#962=DIRECTION('center_axis',(1.,0.,0.));
#963=DIRECTION('ref_axis',(0.,1.,0.));
#964=DIRECTION('',(0.,0.,1.));
#965=DIRECTION('',(0.,-1.,0.));
#966=DIRECTION('',(0.,0.,1.));
#967=DIRECTION('center_axis',(0.,-1.,0.));
#968=DIRECTION('ref_axis',(1.,0.,0.));
#969=DIRECTION('',(0.,0.,1.));
#970=DIRECTION('',(-1.,0.,0.));
#971=DIRECTION('center_axis',(0.,0.,1.));
#972=DIRECTION('ref_axis',(1.,0.,0.));
#973=DIRECTION('center_axis',(1.,2.28575328599297E-16,0.));
#974=DIRECTION('ref_axis',(0.,-0.707106781186548,0.707106781186548));
#975=DIRECTION('',(-1.,-2.28575328599297E-16,0.));
#976=DIRECTION('center_axis',(0.707106781186548,-0.707106781186547,0.));
#977=DIRECTION('ref_axis',(-0.707106781186547,-0.707106781186548,0.));
#978=DIRECTION('',(1.,2.28575328599297E-16,0.));
#979=DIRECTION('center_axis',(0.707106781186548,0.707106781186547,7.85046229341888E-16));
#980=DIRECTION('ref_axis',(0.707106781186547,-0.707106781186548,7.85046229341887E-16));
#981=DIRECTION('center_axis',(0.,-1.,0.));
#982=DIRECTION('ref_axis',(-0.707106781186547,0.,0.707106781186548));
#983=DIRECTION('',(0.,1.,0.));
#984=DIRECTION('center_axis',(-0.707106781186548,-0.707106781186547,7.85046229341888E-16));
#985=DIRECTION('ref_axis',(-0.707106781186547,0.707106781186548,7.85046229341887E-16));
#986=DIRECTION('',(0.,-1.,0.));
#987=DIRECTION('center_axis',(-1.,-1.30614473485313E-16,0.));
#988=DIRECTION('ref_axis',(0.,0.707106781186547,0.707106781186548));
#989=DIRECTION('',(1.,1.30614473485313E-16,0.));
#990=DIRECTION('center_axis',(-0.707106781186548,0.707106781186547,0.));
#991=DIRECTION('ref_axis',(0.707106781186547,0.707106781186548,0.));
#992=DIRECTION('',(-1.,-1.30614473485313E-16,0.));
#993=DIRECTION('center_axis',(-1.58603289232165E-16,1.,0.));
#994=DIRECTION('ref_axis',(0.707106781186547,3.92523114670944E-16,0.707106781186548));
#995=DIRECTION('',(-1.58603289232165E-16,1.,0.));
#996=DIRECTION('',(1.58603289232165E-16,-1.,0.));
#997=DIRECTION('center_axis',(1.,1.58603289232165E-16,0.));
#998=DIRECTION('ref_axis',(-1.58603289232165E-16,1.,0.));
#999=DIRECTION('',(0.,0.,1.));
#1000=DIRECTION('',(-1.58603289232165E-16,1.,0.));
#1001=DIRECTION('',(0.,0.,1.));
#1002=DIRECTION('center_axis',(2.28575328599297E-16,-1.,0.));
#1003=DIRECTION('ref_axis',(1.,2.28575328599297E-16,0.));
#1004=DIRECTION('',(0.,0.,1.));
#1005=DIRECTION('',(1.,2.28575328599297E-16,0.));
#1006=DIRECTION('center_axis',(0.,0.,1.));
#1007=DIRECTION('ref_axis',(1.,0.,0.));
#1008=DIRECTION('',(-1.,0.,0.));
#1009=DIRECTION('',(0.,1.,0.));
#1010=DIRECTION('',(1.,0.,0.));
#1011=DIRECTION('',(1.,0.,0.));
#1012=DIRECTION('center_axis',(-1.,0.,0.));
#1013=DIRECTION('ref_axis',(0.,-1.,0.));
#1014=DIRECTION('',(0.,0.,1.));
#1015=DIRECTION('',(0.,0.,1.));
#1016=DIRECTION('',(0.,1.,0.));
#1017=DIRECTION('',(0.,0.,-1.));
#1018=DIRECTION('center_axis',(0.,1.,0.));
#1019=DIRECTION('ref_axis',(-1.,0.,0.));
#1020=DIRECTION('center_axis',(0.,-1.,0.));
#1021=DIRECTION('ref_axis',(-1.,0.,0.));
#1022=DIRECTION('',(-1.,0.,0.));
#1023=DIRECTION('',(0.,0.,-1.));
#1024=DIRECTION('center_axis',(0.,1.,0.));
#1025=DIRECTION('ref_axis',(1.,0.,0.));
#1026=DIRECTION('',(0.,0.,-1.));
#1027=DIRECTION('',(1.,0.,0.));
#1028=DIRECTION('center_axis',(-1.,0.,0.));
#1029=DIRECTION('ref_axis',(0.,1.,0.));
#1030=DIRECTION('',(0.,1.,0.));
#1031=DIRECTION('center_axis',(0.,0.,-1.));
#1032=DIRECTION('ref_axis',(-1.,0.,0.));
#1033=DIRECTION('center_axis',(-1.30614473485313E-16,1.,0.));
#1034=DIRECTION('ref_axis',(-1.,-1.30614473485313E-16,0.));
#1035=DIRECTION('',(-1.,-1.30614473485313E-16,0.));
#1036=DIRECTION('',(0.,0.,1.));
#1037=DIRECTION('center_axis',(-1.,0.,0.));
#1038=DIRECTION('ref_axis',(0.,-1.,0.));
#1039=DIRECTION('',(0.,-1.,0.));
#1040=DIRECTION('center_axis',(0.,0.,1.));
#1041=DIRECTION('ref_axis',(1.,0.,0.));
#1042=DIRECTION('axis',(0.,0.,1.));
#1043=DIRECTION('refdir',(1.,0.,0.));
#1044=DIRECTION('center_axis',(0.,0.,1.));
#1045=DIRECTION('ref_axis',(1.,0.,0.));
#1046=DIRECTION('',(1.,0.,0.));
#1047=DIRECTION('',(0.,1.,0.));
#1048=DIRECTION('',(1.,0.,0.));
#1049=DIRECTION('',(0.,1.,0.));
#1050=DIRECTION('center_axis',(-1.,0.,0.));
#1051=DIRECTION('ref_axis',(0.,0.,1.));
#1052=DIRECTION('',(0.,0.,1.));
#1053=DIRECTION('',(0.,0.,1.));
#1054=DIRECTION('',(0.,1.,0.));
#1055=DIRECTION('center_axis',(0.,0.,-1.));
#1056=DIRECTION('ref_axis',(-1.,0.,0.));
#1057=DIRECTION('',(-1.,0.,0.));
#1058=DIRECTION('',(-1.,0.,0.));
#1059=DIRECTION('',(0.,1.,0.));
#1060=DIRECTION('center_axis',(1.,0.,0.));
#1061=DIRECTION('ref_axis',(0.,0.,-1.));
#1062=DIRECTION('',(0.,0.,-1.));
#1063=DIRECTION('',(0.,0.,-1.));
#1064=DIRECTION('center_axis',(0.,1.,0.));
#1065=DIRECTION('ref_axis',(0.,0.,1.));
#1066=DIRECTION('center_axis',(0.,1.,0.));
#1067=DIRECTION('ref_axis',(0.,0.,1.));
#1068=DIRECTION('',(0.,0.,1.));
#1069=DIRECTION('',(1.,0.,0.));
#1070=DIRECTION('',(-2.63983124320303E-34,-6.00722965345231E-17,1.));
#1071=DIRECTION('',(1.,1.11022302462515E-16,6.93334779979405E-33));
#1072=DIRECTION('',(0.,0.,1.));
#1073=DIRECTION('',(1.,0.,0.));
#1074=CARTESIAN_POINT('',(0.,0.,0.));
#1075=CARTESIAN_POINT('',(0.,0.,0.));
#1076=CARTESIAN_POINT('Origin',(-2.25,0.15,0.));
#1077=CARTESIAN_POINT('',(-2.25,-0.15,0.));
#1078=CARTESIAN_POINT('',(-2.25,0.15,0.));
#1079=CARTESIAN_POINT('',(-2.25,0.0750000000000011,0.));
#1080=CARTESIAN_POINT('',(-2.25,-0.15,-3.7));
#1081=CARTESIAN_POINT('',(-2.25,-0.15,0.));
#1082=CARTESIAN_POINT('',(-2.25,0.15,-3.7));
#1083=CARTESIAN_POINT('',(-2.25,0.15,-3.7));
#1084=CARTESIAN_POINT('',(-2.25,0.15,0.));
#1085=CARTESIAN_POINT('Origin',(-2.75,0.15,0.));
#1086=CARTESIAN_POINT('',(-2.75,0.15,0.));
#1087=CARTESIAN_POINT('',(-1.375,0.15,0.));
#1088=CARTESIAN_POINT('',(-2.75,0.15,-3.7));
#1089=CARTESIAN_POINT('',(-2.75,0.15,-3.7));
#1090=CARTESIAN_POINT('',(-2.75,0.15,0.));
#1091=CARTESIAN_POINT('Origin',(-2.75,-0.15,0.));
#1092=CARTESIAN_POINT('',(-2.75,-0.15,0.));
#1093=CARTESIAN_POINT('',(-2.75,-0.0749999999999999,0.));
#1094=CARTESIAN_POINT('',(-2.75,-0.15,-3.7));
#1095=CARTESIAN_POINT('',(-2.75,-0.15,-3.7));
#1096=CARTESIAN_POINT('',(-2.75,-0.15,0.));
#1097=CARTESIAN_POINT('Origin',(-2.25,-0.15,0.));
#1098=CARTESIAN_POINT('',(-1.125,-0.15,0.));
#1099=CARTESIAN_POINT('',(-2.25,-0.15,-3.7));
#1100=CARTESIAN_POINT('Origin',(-2.5,0.,-3.7));
#1101=CARTESIAN_POINT('Origin',(0.25,0.15,0.));
#1102=CARTESIAN_POINT('',(0.25,-0.15,0.));
#1103=CARTESIAN_POINT('',(0.25,0.15,0.));
#1104=CARTESIAN_POINT('',(0.25,0.075,0.));
#1105=CARTESIAN_POINT('',(0.25,-0.15,-3.7));
#1106=CARTESIAN_POINT('',(0.25,-0.15,0.));
#1107=CARTESIAN_POINT('',(0.25,0.15,-3.7));
#1108=CARTESIAN_POINT('',(0.25,0.15,-3.7));
#1109=CARTESIAN_POINT('',(0.25,0.15,0.));
#1110=CARTESIAN_POINT('Origin',(-0.25,0.15,0.));
#1111=CARTESIAN_POINT('',(-0.25,0.15,0.));
#1112=CARTESIAN_POINT('',(-0.125,0.15,0.));
#1113=CARTESIAN_POINT('',(-0.25,0.15,-3.7));
#1114=CARTESIAN_POINT('',(-0.25,0.15,-3.7));
#1115=CARTESIAN_POINT('',(-0.25,0.15,0.));
#1116=CARTESIAN_POINT('Origin',(-0.25,-0.15,0.));
#1117=CARTESIAN_POINT('',(-0.25,-0.15,0.));
#1118=CARTESIAN_POINT('',(-0.25,-0.075,0.));
#1119=CARTESIAN_POINT('',(-0.25,-0.15,-3.7));
#1120=CARTESIAN_POINT('',(-0.25,-0.15,-3.7));
#1121=CARTESIAN_POINT('',(-0.25,-0.15,0.));
#1122=CARTESIAN_POINT('Origin',(0.25,-0.15,0.));
#1123=CARTESIAN_POINT('',(0.125,-0.15,0.));
#1124=CARTESIAN_POINT('',(0.25,-0.15,-3.7));
#1125=CARTESIAN_POINT('Origin',(0.,-3.46944695195361E-17,-3.7));
#1126=CARTESIAN_POINT('Origin',(2.75,0.15,0.));
#1127=CARTESIAN_POINT('',(2.75,-0.15,0.));
#1128=CARTESIAN_POINT('',(2.75,0.15,0.));
#1129=CARTESIAN_POINT('',(2.75,0.0750000000000001,0.));
#1130=CARTESIAN_POINT('',(2.75,-0.15,-3.7));
#1131=CARTESIAN_POINT('',(2.75,-0.15,0.));
#1132=CARTESIAN_POINT('',(2.75,0.15,-3.7));
#1133=CARTESIAN_POINT('',(2.75,0.15,-3.7));
#1134=CARTESIAN_POINT('',(2.75,0.15,0.));
#1135=CARTESIAN_POINT('Origin',(2.25,0.15,0.));
#1136=CARTESIAN_POINT('',(2.25,0.15,0.));
#1137=CARTESIAN_POINT('',(1.125,0.15,0.));
#1138=CARTESIAN_POINT('',(2.25,0.15,-3.7));
#1139=CARTESIAN_POINT('',(2.25,0.15,-3.7));
#1140=CARTESIAN_POINT('',(2.25,0.15,0.));
#1141=CARTESIAN_POINT('Origin',(2.25,-0.15,0.));
#1142=CARTESIAN_POINT('',(2.25,-0.15,0.));
#1143=CARTESIAN_POINT('',(2.25,-0.0749999999999979,0.));
#1144=CARTESIAN_POINT('',(2.25,-0.15,-3.7));
#1145=CARTESIAN_POINT('',(2.25,-0.15,-3.7));
#1146=CARTESIAN_POINT('',(2.25,-0.15,0.));
#1147=CARTESIAN_POINT('Origin',(2.75,-0.15,0.));
#1148=CARTESIAN_POINT('',(1.375,-0.15,0.));
#1149=CARTESIAN_POINT('',(2.75,-0.15,-3.7));
#1150=CARTESIAN_POINT('Origin',(2.5,0.,-3.7));
#1151=CARTESIAN_POINT('Origin',(0.57,-0.72,6.4));
#1152=CARTESIAN_POINT('',(1.6,-0.62,6.5));
#1153=CARTESIAN_POINT('',(0.36,-0.62,6.5));
#1154=CARTESIAN_POINT('',(0.57,-0.62,6.5));
#1155=CARTESIAN_POINT('',(0.16,-0.82,6.3));
#1156=CARTESIAN_POINT('',(0.36,-0.62,6.5));
#1157=CARTESIAN_POINT('',(1.8,-0.82,6.3));
#1158=CARTESIAN_POINT('',(0.57,-0.82,6.3));
#1159=CARTESIAN_POINT('',(1.6,-0.62,6.5));
#1160=CARTESIAN_POINT('Origin',(0.26,0.41,6.4));
#1161=CARTESIAN_POINT('',(0.36,0.62,6.5));
#1162=CARTESIAN_POINT('',(0.36,0.41,6.5));
#1163=CARTESIAN_POINT('',(0.16,0.82,6.3));
#1164=CARTESIAN_POINT('',(0.36,0.62,6.5));
#1165=CARTESIAN_POINT('',(0.16,0.41,6.3));
#1166=CARTESIAN_POINT('Origin',(1.39,0.72,6.4));
#1167=CARTESIAN_POINT('',(1.6,0.62,6.5));
#1168=CARTESIAN_POINT('',(1.39,0.62,6.5));
#1169=CARTESIAN_POINT('',(1.8,0.82,6.3));
#1170=CARTESIAN_POINT('',(1.6,0.62,6.5));
#1171=CARTESIAN_POINT('',(1.39,0.82,6.3));
#1172=CARTESIAN_POINT('Origin',(1.7,-0.41,6.4));
#1173=CARTESIAN_POINT('',(1.8,-0.41,6.3));
#1174=CARTESIAN_POINT('',(1.6,-0.41,6.5));
#1175=CARTESIAN_POINT('Origin',(1.8,-0.82,2.5));
#1176=CARTESIAN_POINT('',(1.8,-0.82,3.5));
#1177=CARTESIAN_POINT('',(1.8,-0.82,2.5));
#1178=CARTESIAN_POINT('',(1.8,0.82,3.5));
#1179=CARTESIAN_POINT('',(1.8,0.41,3.5));
#1180=CARTESIAN_POINT('',(1.8,0.82,2.5));
#1181=CARTESIAN_POINT('Origin',(0.16,-0.82,2.5));
#1182=CARTESIAN_POINT('',(0.16,-0.82,3.5));
#1183=CARTESIAN_POINT('',(0.16,-0.82,2.5));
#1184=CARTESIAN_POINT('',(0.9,-0.82,3.5));
#1185=CARTESIAN_POINT('Origin',(0.98,0.,6.5));
#1186=CARTESIAN_POINT('Origin',(-2.125,-1.25,3.));
#1187=CARTESIAN_POINT('',(3.75,-1.25,3.5));
#1188=CARTESIAN_POINT('',(-3.75,-1.25,3.5));
#1189=CARTESIAN_POINT('',(-2.125,-1.25,3.5));
#1190=CARTESIAN_POINT('',(-4.25,-1.75,3.));
#1191=CARTESIAN_POINT('Origin',(-3.75,-1.25,3.));
#1192=CARTESIAN_POINT('',(4.25,-1.75,3.));
#1193=CARTESIAN_POINT('',(-2.125,-1.75,3.));
#1194=CARTESIAN_POINT('Origin',(3.75,-1.25,3.));
#1195=CARTESIAN_POINT('Origin',(-3.75,0.875,3.));
#1196=CARTESIAN_POINT('',(-3.75,1.25,3.5));
#1197=CARTESIAN_POINT('',(-3.75,0.875,3.5));
#1198=CARTESIAN_POINT('',(-4.25,1.75,3.));
#1199=CARTESIAN_POINT('Origin',(-3.75,1.25,3.));
#1200=CARTESIAN_POINT('',(-4.25,0.875,3.));
#1201=CARTESIAN_POINT('Origin',(2.125,1.25,3.));
#1202=CARTESIAN_POINT('',(3.75,1.25,3.5));
#1203=CARTESIAN_POINT('',(2.125,1.25,3.5));
#1204=CARTESIAN_POINT('',(4.25,1.75,3.));
#1205=CARTESIAN_POINT('Origin',(3.75,1.25,3.));
#1206=CARTESIAN_POINT('',(2.125,1.75,3.));
#1207=CARTESIAN_POINT('Origin',(3.75,-0.874999999999999,3.));
#1208=CARTESIAN_POINT('',(4.25,-0.874999999999999,3.));
#1209=CARTESIAN_POINT('',(3.75,-0.874999999999999,3.5));
#1210=CARTESIAN_POINT('Origin',(4.25,-1.75,0.));
#1211=CARTESIAN_POINT('',(4.25,-1.75,0.));
#1212=CARTESIAN_POINT('',(4.25,-1.75,0.));
#1213=CARTESIAN_POINT('',(4.25,1.75,0.));
#1214=CARTESIAN_POINT('',(4.25,-1.75,0.));
#1215=CARTESIAN_POINT('',(4.25,1.75,0.));
#1216=CARTESIAN_POINT('Origin',(-4.25,-1.75,0.));
#1217=CARTESIAN_POINT('',(-4.25,-1.75,0.));
#1218=CARTESIAN_POINT('',(-4.25,-1.75,0.));
#1219=CARTESIAN_POINT('',(-4.25,-1.75,0.));
#1220=CARTESIAN_POINT('Origin',(0.,2.77555756156289E-16,3.5));
#1221=CARTESIAN_POINT('',(-1.8,-0.82,3.5));
#1222=CARTESIAN_POINT('',(0.9,-0.82,3.5));
#1223=CARTESIAN_POINT('',(-1.8,0.82,3.5));
#1224=CARTESIAN_POINT('',(-1.8,-0.41,3.5));
#1225=CARTESIAN_POINT('',(0.16,0.82,3.5));
#1226=CARTESIAN_POINT('',(-0.9,0.82,3.5));
#1227=CARTESIAN_POINT('',(-0.9,0.82,3.5));
#1228=CARTESIAN_POINT('Origin',(0.16,0.82,2.5));
#1229=CARTESIAN_POINT('',(0.16,0.82,2.5));
#1230=CARTESIAN_POINT('',(0.16,0.82,2.5));
#1231=CARTESIAN_POINT('',(0.16,0.82,3.));
#1232=CARTESIAN_POINT('',(0.16,-0.82,2.5));
#1233=CARTESIAN_POINT('',(0.16,0.41,2.5));
#1234=CARTESIAN_POINT('',(0.16,-0.82,3.));
#1235=CARTESIAN_POINT('Origin',(1.8,0.82,2.5));
#1236=CARTESIAN_POINT('Origin',(1.8,-0.82,3.5));
#1237=CARTESIAN_POINT('',(-1.8,-0.82,2.5));
#1238=CARTESIAN_POINT('',(-1.8,-0.82,2.5));
#1239=CARTESIAN_POINT('',(-1.8,-0.82,3.5));
#1240=CARTESIAN_POINT('Origin',(-1.8,0.82,3.5));
#1241=CARTESIAN_POINT('',(-1.8,0.82,2.5));
#1242=CARTESIAN_POINT('',(-1.8,0.82,3.5));
#1243=CARTESIAN_POINT('',(1.8,0.82,2.5));
#1244=CARTESIAN_POINT('Origin',(-1.8,-0.82,3.5));
#1245=CARTESIAN_POINT('',(-1.8,0.82,2.5));
#1246=CARTESIAN_POINT('Origin',(0.,0.,2.5));
#1247=CARTESIAN_POINT('Origin',(4.25,1.75,0.));
#1248=CARTESIAN_POINT('',(-4.25,1.75,0.));
#1249=CARTESIAN_POINT('',(4.25,1.75,0.));
#1250=CARTESIAN_POINT('',(-4.25,1.75,0.));
#1251=CARTESIAN_POINT('Origin',(-4.25,1.75,0.));
#1252=CARTESIAN_POINT('',(-4.25,1.75,0.));
#1253=CARTESIAN_POINT('Origin',(-2.77555756156289E-16,1.38777878078145E-16,
0.));
#1254=CARTESIAN_POINT('',(0.,0.,0.));
#1255=CARTESIAN_POINT('Origin',(-0.32,0.,0.32));
#1256=CARTESIAN_POINT('',(-0.32,0.,0.32));
#1257=CARTESIAN_POINT('',(0.32,0.,0.32));
#1258=CARTESIAN_POINT('',(-0.32,0.,0.32));
#1259=CARTESIAN_POINT('',(0.32,15.6,0.32));
#1260=CARTESIAN_POINT('',(0.32,0.,0.32));
#1261=CARTESIAN_POINT('',(-0.32,15.6,0.32));
#1262=CARTESIAN_POINT('',(-0.32,15.6,0.32));
#1263=CARTESIAN_POINT('',(-0.32,0.,0.32));
#1264=CARTESIAN_POINT('Origin',(-0.32,0.,-0.32));
#1265=CARTESIAN_POINT('',(-0.32,0.,-0.32));
#1266=CARTESIAN_POINT('',(-0.32,0.,-0.32));
#1267=CARTESIAN_POINT('',(-0.32,15.6,-0.32));
#1268=CARTESIAN_POINT('',(-0.32,15.6,-0.32));
#1269=CARTESIAN_POINT('',(-0.32,0.,-0.32));
#1270=CARTESIAN_POINT('Origin',(0.32,0.,-0.32));
#1271=CARTESIAN_POINT('',(0.32,0.,-0.32));
#1272=CARTESIAN_POINT('',(0.32,0.,-0.32));
#1273=CARTESIAN_POINT('',(0.32,15.6,-0.32));
#1274=CARTESIAN_POINT('',(0.32,15.6,-0.32));
#1275=CARTESIAN_POINT('',(0.32,0.,-0.32));
#1276=CARTESIAN_POINT('Origin',(0.32,0.,0.32));
#1277=CARTESIAN_POINT('',(0.32,0.,0.32));
#1278=CARTESIAN_POINT('',(0.32,15.6,0.32));
#1279=CARTESIAN_POINT('Origin',(0.,15.6,0.));
#1280=CARTESIAN_POINT('Origin',(0.,0.,0.));
#1281=CARTESIAN_POINT('',(-4.8598687409395,-7.51341679224243,-1.4));
#1282=CARTESIAN_POINT('',(-4.85986874093949,-23.2634167922424,-4.78));
#1283=CARTESIAN_POINT('',(-7.3598687409395,-23.2634167922424,-4.78));
#1284=UNCERTAINTY_MEASURE_WITH_UNIT(LENGTH_MEASURE(0.01),#1292,
'DISTANCE_ACCURACY_VALUE',
'Maximum model space distance between geometric entities at asserted c
onnectivities');
#1285=UNCERTAINTY_MEASURE_WITH_UNIT(LENGTH_MEASURE(0.01),#1292,
'DISTANCE_ACCURACY_VALUE',
'Maximum model space distance between geometric entities at asserted c
onnectivities');
#1286=UNCERTAINTY_MEASURE_WITH_UNIT(LENGTH_MEASURE(0.01),#1292,
'DISTANCE_ACCURACY_VALUE',
'Maximum model space distance between geometric entities at asserted c
onnectivities');
#1287=UNCERTAINTY_MEASURE_WITH_UNIT(LENGTH_MEASURE(0.01),#1292,
'DISTANCE_ACCURACY_VALUE',
'Maximum model space distance between geometric entities at asserted c
onnectivities');
#1288=(
GEOMETRIC_REPRESENTATION_CONTEXT(3)
GLOBAL_UNCERTAINTY_ASSIGNED_CONTEXT((#1284))
GLOBAL_UNIT_ASSIGNED_CONTEXT((#1292,#1294,#1295))
REPRESENTATION_CONTEXT('','3D')
);
#1289=(
GEOMETRIC_REPRESENTATION_CONTEXT(3)
GLOBAL_UNCERTAINTY_ASSIGNED_CONTEXT((#1285))
GLOBAL_UNIT_ASSIGNED_CONTEXT((#1292,#1294,#1295))
REPRESENTATION_CONTEXT('','3D')
);
#1290=(
GEOMETRIC_REPRESENTATION_CONTEXT(3)
GLOBAL_UNCERTAINTY_ASSIGNED_CONTEXT((#1286))
GLOBAL_UNIT_ASSIGNED_CONTEXT((#1292,#1294,#1295))
REPRESENTATION_CONTEXT('','3D')
);
#1291=(
GEOMETRIC_REPRESENTATION_CONTEXT(3)
GLOBAL_UNCERTAINTY_ASSIGNED_CONTEXT((#1287))
GLOBAL_UNIT_ASSIGNED_CONTEXT((#1292,#1294,#1295))
REPRESENTATION_CONTEXT('','3D')
);
#1292=(
LENGTH_UNIT()
NAMED_UNIT(*)
SI_UNIT(.MILLI.,.METRE.)
);
#1293=(
LENGTH_UNIT()
NAMED_UNIT(*)
SI_UNIT(.CENTI.,.METRE.)
);
#1294=(
NAMED_UNIT(*)
PLANE_ANGLE_UNIT()
SI_UNIT($,.RADIAN.)
);
#1295=(
NAMED_UNIT(*)
SI_UNIT($,.STERADIAN.)
SOLID_ANGLE_UNIT()
);
#1296=SHAPE_DEFINITION_REPRESENTATION(#1299,#1305);
#1297=SHAPE_DEFINITION_REPRESENTATION(#1300,#1306);
#1298=SHAPE_DEFINITION_REPRESENTATION(#1301,#1307);
#1299=PRODUCT_DEFINITION_SHAPE('',$,#1309);
#1300=PRODUCT_DEFINITION_SHAPE('',$,#1310);
#1301=PRODUCT_DEFINITION_SHAPE('',$,#1311);
#1302=PRODUCT_DEFINITION_SHAPE($,$,#20);
#1303=PRODUCT_DEFINITION_SHAPE($,$,#21);
#1304=PRODUCT_DEFINITION_SHAPE($,$,#22);
#1305=SHAPE_REPRESENTATION('',(#818,#869,#870,#871),#1288);
#1306=SHAPE_REPRESENTATION('',(#819),#1289);
#1307=SHAPE_REPRESENTATION('',(#862),#1290);
#1308=PRODUCT_DEFINITION_CONTEXT('part definition',#1319,'design');
#1309=PRODUCT_DEFINITION('switch','switch',#1312,#1308);
#1310=PRODUCT_DEFINITION('switch_1','switch',#1313,#1308);
#1311=PRODUCT_DEFINITION('switch-wire','switch-wire',#1314,#1308);
#1312=PRODUCT_DEFINITION_FORMATION('',$,#1321);
#1313=PRODUCT_DEFINITION_FORMATION('',$,#1322);
#1314=PRODUCT_DEFINITION_FORMATION('',$,#1323);
#1315=PRODUCT_RELATED_PRODUCT_CATEGORY('switch','switch',(#1321));
#1316=PRODUCT_RELATED_PRODUCT_CATEGORY('switch','switch',(#1322));
#1317=PRODUCT_RELATED_PRODUCT_CATEGORY('switch-wire','switch-wire',(#1323));
#1318=APPLICATION_PROTOCOL_DEFINITION('international standard',
'automotive_design',2009,#1319);
#1319=APPLICATION_CONTEXT(
'Core Data for Automotive Mechanical Design Process');
#1320=PRODUCT_CONTEXT('part definition',#1319,'mechanical');
#1321=PRODUCT('switch','switch',$,(#1320));
#1322=PRODUCT('switch_1','switch',$,(#1320));
#1323=PRODUCT('switch-wire','switch-wire',$,(#1320));
ENDSEC;
END-ISO-10303-21;
