ISO-10303-21;
HEADER;
FILE_DESCRIPTION(('FreeCAD Model'),'2;1');
FILE_NAME(
'C:/Users/Ric/Desktop/UNI/Blast Furnace/slide 
switch\\needs_legs_closer_together_v004_cp.step','2020-02-23T03:58:54',(
    'kicad StepUp'),('ksu MCAD'),'Open CASCADE STEP processor 7.3',
  'FreeCAD','Unknown');
FILE_SCHEMA(('AUTOMOTIVE_DESIGN { 1 0 10303 214 1 1 1 1 }'));
ENDSEC;
DATA;
#1 = APPLICATION_PROTOCOL_DEFINITION('international standard',
  'automotive_design',2000,#2);
#2 = APPLICATION_CONTEXT(
  'core data for automotive mechanical design processes');
#3 = SHAPE_DEFINITION_REPRESENTATION(#4,#10);
#4 = PRODUCT_DEFINITION_SHAPE('','',#5);
#5 = PRODUCT_DEFINITION('design','',#6,#9);
#6 = PRODUCT_DEFINITION_FORMATION('','',#7);
#7 = PRODUCT('needs_legs_closer_together_v004_cp',
  'needs_legs_closer_together_v004_cp','',(#8));
#8 = PRODUCT_CONTEXT('',#2,'mechanical');
#9 = PRODUCT_DEFINITION_CONTEXT('part definition',#2,'design');
#10 = SHAPE_REPRESENTATION('',(#11,#15,#1335),#1893);
#11 = AXIS2_PLACEMENT_3D('',#12,#13,#14);
#12 = CARTESIAN_POINT('',(0.,0.,0.));
#13 = DIRECTION('',(0.,0.,1.));
#14 = DIRECTION('',(1.,0.,-0.));
#15 = MANIFOLD_SOLID_BREP('',#16);
#16 = CLOSED_SHELL('',(#17,#57,#97,#119,#141,#172,#196,#208,#248,#288,
    #310,#332,#363,#387,#399,#439,#470,#501,#523,#554,#578,#590,#684,
    #715,#739,#756,#798,#830,#862,#884,#931,#955,#967,#1007,#1037,#1062,
    #1079,#1096,#1147,#1159,#1176,#1188,#1219,#1236,#1253,#1265,#1277,
    #1294,#1306,#1323));
#17 = ADVANCED_FACE('',(#18),#52,.T.);
#18 = FACE_BOUND('',#19,.T.);
#19 = EDGE_LOOP('',(#20,#30,#38,#46));
#20 = ORIENTED_EDGE('',*,*,#21,.T.);
#21 = EDGE_CURVE('',#22,#24,#26,.T.);
#22 = VERTEX_POINT('',#23);
#23 = CARTESIAN_POINT('',(-2.375,0.14,-2.395));
#24 = VERTEX_POINT('',#25);
#25 = CARTESIAN_POINT('',(-2.375,-0.11,-2.395));
#26 = LINE('',#27,#28);
#27 = CARTESIAN_POINT('',(-2.375,7.75E-02,-2.395));
#28 = VECTOR('',#29,1.);
#29 = DIRECTION('',(0.,-1.,0.));
#30 = ORIENTED_EDGE('',*,*,#31,.T.);
#31 = EDGE_CURVE('',#24,#32,#34,.T.);
#32 = VERTEX_POINT('',#33);
#33 = CARTESIAN_POINT('',(-2.475,-1.E-02,-2.495));
#34 = LINE('',#35,#36);
#35 = CARTESIAN_POINT('',(-2.375,-0.11,-2.395));
#36 = VECTOR('',#37,1.);
#37 = DIRECTION('',(-0.57735026919,0.57735026919,-0.57735026919));
#38 = ORIENTED_EDGE('',*,*,#39,.T.);
#39 = EDGE_CURVE('',#32,#40,#42,.T.);
#40 = VERTEX_POINT('',#41);
#41 = CARTESIAN_POINT('',(-2.475,4.E-02,-2.495));
#42 = LINE('',#43,#44);
#43 = CARTESIAN_POINT('',(-2.475,7.75E-02,-2.495));
#44 = VECTOR('',#45,1.);
#45 = DIRECTION('',(0.,1.,0.));
#46 = ORIENTED_EDGE('',*,*,#47,.T.);
#47 = EDGE_CURVE('',#40,#22,#48,.T.);
#48 = LINE('',#49,#50);
#49 = CARTESIAN_POINT('',(-2.475,4.E-02,-2.495));
#50 = VECTOR('',#51,1.);
#51 = DIRECTION('',(0.57735026919,0.57735026919,0.57735026919));
#52 = PLANE('',#53);
#53 = AXIS2_PLACEMENT_3D('',#54,#55,#56);
#54 = CARTESIAN_POINT('',(-2.425,7.75E-02,-2.445));
#55 = DIRECTION('',(0.707106781187,0.,-0.707106781187));
#56 = DIRECTION('',(-0.707106781187,0.,-0.707106781187));
#57 = ADVANCED_FACE('',(#58),#92,.T.);
#58 = FACE_BOUND('',#59,.T.);
#59 = EDGE_LOOP('',(#60,#70,#78,#86));
#60 = ORIENTED_EDGE('',*,*,#61,.T.);
#61 = EDGE_CURVE('',#62,#64,#66,.T.);
#62 = VERTEX_POINT('',#63);
#63 = CARTESIAN_POINT('',(-2.525,4.E-02,-2.495));
#64 = VERTEX_POINT('',#65);
#65 = CARTESIAN_POINT('',(-2.525,-1.E-02,-2.495));
#66 = LINE('',#67,#68);
#67 = CARTESIAN_POINT('',(-2.525,-4.75E-02,-2.495));
#68 = VECTOR('',#69,1.);
#69 = DIRECTION('',(0.,-1.,0.));
#70 = ORIENTED_EDGE('',*,*,#71,.T.);
#71 = EDGE_CURVE('',#64,#72,#74,.T.);
#72 = VERTEX_POINT('',#73);
#73 = CARTESIAN_POINT('',(-2.625,-0.11,-2.395));
#74 = LINE('',#75,#76);
#75 = CARTESIAN_POINT('',(-2.525,-1.E-02,-2.495));
#76 = VECTOR('',#77,1.);
#77 = DIRECTION('',(-0.57735026919,-0.57735026919,0.57735026919));
#78 = ORIENTED_EDGE('',*,*,#79,.T.);
#79 = EDGE_CURVE('',#72,#80,#82,.T.);
#80 = VERTEX_POINT('',#81);
#81 = CARTESIAN_POINT('',(-2.625,0.14,-2.395));
#82 = LINE('',#83,#84);
#83 = CARTESIAN_POINT('',(-2.625,-4.75E-02,-2.395));
#84 = VECTOR('',#85,1.);
#85 = DIRECTION('',(0.,1.,0.));
#86 = ORIENTED_EDGE('',*,*,#87,.T.);
#87 = EDGE_CURVE('',#80,#62,#88,.T.);
#88 = LINE('',#89,#90);
#89 = CARTESIAN_POINT('',(-2.625,0.14,-2.395));
#90 = VECTOR('',#91,1.);
#91 = DIRECTION('',(0.57735026919,-0.57735026919,-0.57735026919));
#92 = PLANE('',#93);
#93 = AXIS2_PLACEMENT_3D('',#94,#95,#96);
#94 = CARTESIAN_POINT('',(-2.575,-4.75E-02,-2.445));
#95 = DIRECTION('',(-0.707106781187,0.,-0.707106781187));
#96 = DIRECTION('',(-0.707106781187,0.,0.707106781187));
#97 = ADVANCED_FACE('',(#98),#114,.T.);
#98 = FACE_BOUND('',#99,.T.);
#99 = EDGE_LOOP('',(#100,#106,#107,#113));
#100 = ORIENTED_EDGE('',*,*,#101,.T.);
#101 = EDGE_CURVE('',#24,#72,#102,.T.);
#102 = LINE('',#103,#104);
#103 = CARTESIAN_POINT('',(-2.4375,-0.11,-2.395));
#104 = VECTOR('',#105,1.);
#105 = DIRECTION('',(-1.,0.,0.));
#106 = ORIENTED_EDGE('',*,*,#71,.F.);
#107 = ORIENTED_EDGE('',*,*,#108,.T.);
#108 = EDGE_CURVE('',#64,#32,#109,.T.);
#109 = LINE('',#110,#111);
#110 = CARTESIAN_POINT('',(-2.4375,-1.E-02,-2.495));
#111 = VECTOR('',#112,1.);
#112 = DIRECTION('',(1.,0.,0.));
#113 = ORIENTED_EDGE('',*,*,#31,.F.);
#114 = PLANE('',#115);
#115 = AXIS2_PLACEMENT_3D('',#116,#117,#118);
#116 = CARTESIAN_POINT('',(-2.4375,-6.E-02,-2.445));
#117 = DIRECTION('',(0.,-0.707106781187,-0.707106781187));
#118 = DIRECTION('',(-1.,0.,0.));
#119 = ADVANCED_FACE('',(#120),#136,.T.);
#120 = FACE_BOUND('',#121,.T.);
#121 = EDGE_LOOP('',(#122,#128,#129,#135));
#122 = ORIENTED_EDGE('',*,*,#123,.T.);
#123 = EDGE_CURVE('',#80,#22,#124,.T.);
#124 = LINE('',#125,#126);
#125 = CARTESIAN_POINT('',(-2.5625,0.14,-2.395));
#126 = VECTOR('',#127,1.);
#127 = DIRECTION('',(1.,-6.938893903907E-17,0.));
#128 = ORIENTED_EDGE('',*,*,#47,.F.);
#129 = ORIENTED_EDGE('',*,*,#130,.T.);
#130 = EDGE_CURVE('',#40,#62,#131,.T.);
#131 = LINE('',#132,#133);
#132 = CARTESIAN_POINT('',(-2.5625,4.E-02,-2.495));
#133 = VECTOR('',#134,1.);
#134 = DIRECTION('',(-1.,6.938893903907E-17,0.));
#135 = ORIENTED_EDGE('',*,*,#87,.F.);
#136 = PLANE('',#137);
#137 = AXIS2_PLACEMENT_3D('',#138,#139,#140);
#138 = CARTESIAN_POINT('',(-2.5625,9.E-02,-2.445));
#139 = DIRECTION('',(4.906538933387E-17,0.707106781187,-0.707106781187)
  );
#140 = DIRECTION('',(-1.,1.232595164408E-32,-6.938893903907E-17));
#141 = ADVANCED_FACE('',(#142),#167,.T.);
#142 = FACE_BOUND('',#143,.T.);
#143 = EDGE_LOOP('',(#144,#145,#153,#161));
#144 = ORIENTED_EDGE('',*,*,#123,.F.);
#145 = ORIENTED_EDGE('',*,*,#146,.F.);
#146 = EDGE_CURVE('',#147,#80,#149,.T.);
#147 = VERTEX_POINT('',#148);
#148 = CARTESIAN_POINT('',(-2.625,0.14,0.715));
#149 = LINE('',#150,#151);
#150 = CARTESIAN_POINT('',(-2.625,0.14,1.5E-02));
#151 = VECTOR('',#152,1.);
#152 = DIRECTION('',(0.,0.,-1.));
#153 = ORIENTED_EDGE('',*,*,#154,.T.);
#154 = EDGE_CURVE('',#147,#155,#157,.T.);
#155 = VERTEX_POINT('',#156);
#156 = CARTESIAN_POINT('',(-2.375,0.14,0.715));
#157 = LINE('',#158,#159);
#158 = CARTESIAN_POINT('',(-2.5625,0.14,0.715));
#159 = VECTOR('',#160,1.);
#160 = DIRECTION('',(1.,-6.938893903907E-17,0.));
#161 = ORIENTED_EDGE('',*,*,#162,.T.);
#162 = EDGE_CURVE('',#155,#22,#163,.T.);
#163 = LINE('',#164,#165);
#164 = CARTESIAN_POINT('',(-2.375,0.14,1.5E-02));
#165 = VECTOR('',#166,1.);
#166 = DIRECTION('',(0.,0.,-1.));
#167 = PLANE('',#168);
#168 = AXIS2_PLACEMENT_3D('',#169,#170,#171);
#169 = CARTESIAN_POINT('',(-2.625,0.14,1.5E-02));
#170 = DIRECTION('',(6.938893903907E-17,1.,0.));
#171 = DIRECTION('',(1.,-6.938893903907E-17,0.));
#172 = ADVANCED_FACE('',(#173),#191,.T.);
#173 = FACE_BOUND('',#174,.T.);
#174 = EDGE_LOOP('',(#175,#176,#184,#190));
#175 = ORIENTED_EDGE('',*,*,#79,.F.);
#176 = ORIENTED_EDGE('',*,*,#177,.F.);
#177 = EDGE_CURVE('',#178,#72,#180,.T.);
#178 = VERTEX_POINT('',#179);
#179 = CARTESIAN_POINT('',(-2.625,-0.11,0.715));
#180 = LINE('',#181,#182);
#181 = CARTESIAN_POINT('',(-2.625,-0.11,1.5E-02));
#182 = VECTOR('',#183,1.);
#183 = DIRECTION('',(0.,0.,-1.));
#184 = ORIENTED_EDGE('',*,*,#185,.T.);
#185 = EDGE_CURVE('',#178,#147,#186,.T.);
#186 = LINE('',#187,#188);
#187 = CARTESIAN_POINT('',(-2.625,-4.75E-02,0.715));
#188 = VECTOR('',#189,1.);
#189 = DIRECTION('',(0.,1.,0.));
#190 = ORIENTED_EDGE('',*,*,#146,.T.);
#191 = PLANE('',#192);
#192 = AXIS2_PLACEMENT_3D('',#193,#194,#195);
#193 = CARTESIAN_POINT('',(-2.625,-0.11,1.5E-02));
#194 = DIRECTION('',(-1.,0.,0.));
#195 = DIRECTION('',(0.,1.,0.));
#196 = ADVANCED_FACE('',(#197),#203,.F.);
#197 = FACE_BOUND('',#198,.T.);
#198 = EDGE_LOOP('',(#199,#200,#201,#202));
#199 = ORIENTED_EDGE('',*,*,#61,.F.);
#200 = ORIENTED_EDGE('',*,*,#130,.F.);
#201 = ORIENTED_EDGE('',*,*,#39,.F.);
#202 = ORIENTED_EDGE('',*,*,#108,.F.);
#203 = PLANE('',#204);
#204 = AXIS2_PLACEMENT_3D('',#205,#206,#207);
#205 = CARTESIAN_POINT('',(-2.5,1.5E-02,-2.495));
#206 = DIRECTION('',(0.,0.,1.));
#207 = DIRECTION('',(1.,0.,0.));
#208 = ADVANCED_FACE('',(#209),#243,.T.);
#209 = FACE_BOUND('',#210,.T.);
#210 = EDGE_LOOP('',(#211,#221,#229,#237));
#211 = ORIENTED_EDGE('',*,*,#212,.T.);
#212 = EDGE_CURVE('',#213,#215,#217,.T.);
#213 = VERTEX_POINT('',#214);
#214 = CARTESIAN_POINT('',(2.625,0.14,-2.395));
#215 = VERTEX_POINT('',#216);
#216 = CARTESIAN_POINT('',(2.625,-0.11,-2.395));
#217 = LINE('',#218,#219);
#218 = CARTESIAN_POINT('',(2.625,7.75E-02,-2.395));
#219 = VECTOR('',#220,1.);
#220 = DIRECTION('',(0.,-1.,0.));
#221 = ORIENTED_EDGE('',*,*,#222,.T.);
#222 = EDGE_CURVE('',#215,#223,#225,.T.);
#223 = VERTEX_POINT('',#224);
#224 = CARTESIAN_POINT('',(2.525,-1.E-02,-2.495));
#225 = LINE('',#226,#227);
#226 = CARTESIAN_POINT('',(2.625,-0.11,-2.395));
#227 = VECTOR('',#228,1.);
#228 = DIRECTION('',(-0.57735026919,0.57735026919,-0.57735026919));
#229 = ORIENTED_EDGE('',*,*,#230,.T.);
#230 = EDGE_CURVE('',#223,#231,#233,.T.);
#231 = VERTEX_POINT('',#232);
#232 = CARTESIAN_POINT('',(2.525,4.E-02,-2.495));
#233 = LINE('',#234,#235);
#234 = CARTESIAN_POINT('',(2.525,7.75E-02,-2.495));
#235 = VECTOR('',#236,1.);
#236 = DIRECTION('',(0.,1.,0.));
#237 = ORIENTED_EDGE('',*,*,#238,.T.);
#238 = EDGE_CURVE('',#231,#213,#239,.T.);
#239 = LINE('',#240,#241);
#240 = CARTESIAN_POINT('',(2.525,4.E-02,-2.495));
#241 = VECTOR('',#242,1.);
#242 = DIRECTION('',(0.57735026919,0.57735026919,0.57735026919));
#243 = PLANE('',#244);
#244 = AXIS2_PLACEMENT_3D('',#245,#246,#247);
#245 = CARTESIAN_POINT('',(2.575,7.75E-02,-2.445));
#246 = DIRECTION('',(0.707106781187,0.,-0.707106781187));
#247 = DIRECTION('',(-0.707106781187,0.,-0.707106781187));
#248 = ADVANCED_FACE('',(#249),#283,.T.);
#249 = FACE_BOUND('',#250,.T.);
#250 = EDGE_LOOP('',(#251,#261,#269,#277));
#251 = ORIENTED_EDGE('',*,*,#252,.T.);
#252 = EDGE_CURVE('',#253,#255,#257,.T.);
#253 = VERTEX_POINT('',#254);
#254 = CARTESIAN_POINT('',(2.475,4.E-02,-2.495));
#255 = VERTEX_POINT('',#256);
#256 = CARTESIAN_POINT('',(2.475,-1.E-02,-2.495));
#257 = LINE('',#258,#259);
#258 = CARTESIAN_POINT('',(2.475,-4.75E-02,-2.495));
#259 = VECTOR('',#260,1.);
#260 = DIRECTION('',(0.,-1.,0.));
#261 = ORIENTED_EDGE('',*,*,#262,.T.);
#262 = EDGE_CURVE('',#255,#263,#265,.T.);
#263 = VERTEX_POINT('',#264);
#264 = CARTESIAN_POINT('',(2.375,-0.11,-2.395));
#265 = LINE('',#266,#267);
#266 = CARTESIAN_POINT('',(2.475,-1.E-02,-2.495));
#267 = VECTOR('',#268,1.);
#268 = DIRECTION('',(-0.57735026919,-0.57735026919,0.57735026919));
#269 = ORIENTED_EDGE('',*,*,#270,.T.);
#270 = EDGE_CURVE('',#263,#271,#273,.T.);
#271 = VERTEX_POINT('',#272);
#272 = CARTESIAN_POINT('',(2.375,0.14,-2.395));
#273 = LINE('',#274,#275);
#274 = CARTESIAN_POINT('',(2.375,-4.75E-02,-2.395));
#275 = VECTOR('',#276,1.);
#276 = DIRECTION('',(0.,1.,0.));
#277 = ORIENTED_EDGE('',*,*,#278,.T.);
#278 = EDGE_CURVE('',#271,#253,#279,.T.);
#279 = LINE('',#280,#281);
#280 = CARTESIAN_POINT('',(2.375,0.14,-2.395));
#281 = VECTOR('',#282,1.);
#282 = DIRECTION('',(0.57735026919,-0.57735026919,-0.57735026919));
#283 = PLANE('',#284);
#284 = AXIS2_PLACEMENT_3D('',#285,#286,#287);
#285 = CARTESIAN_POINT('',(2.425,-4.75E-02,-2.445));
#286 = DIRECTION('',(-0.707106781187,0.,-0.707106781187));
#287 = DIRECTION('',(-0.707106781187,0.,0.707106781187));
#288 = ADVANCED_FACE('',(#289),#305,.T.);
#289 = FACE_BOUND('',#290,.T.);
#290 = EDGE_LOOP('',(#291,#297,#298,#304));
#291 = ORIENTED_EDGE('',*,*,#292,.T.);
#292 = EDGE_CURVE('',#215,#263,#293,.T.);
#293 = LINE('',#294,#295);
#294 = CARTESIAN_POINT('',(2.5625,-0.11,-2.395));
#295 = VECTOR('',#296,1.);
#296 = DIRECTION('',(-1.,0.,0.));
#297 = ORIENTED_EDGE('',*,*,#262,.F.);
#298 = ORIENTED_EDGE('',*,*,#299,.T.);
#299 = EDGE_CURVE('',#255,#223,#300,.T.);
#300 = LINE('',#301,#302);
#301 = CARTESIAN_POINT('',(2.5625,-1.E-02,-2.495));
#302 = VECTOR('',#303,1.);
#303 = DIRECTION('',(1.,0.,0.));
#304 = ORIENTED_EDGE('',*,*,#222,.F.);
#305 = PLANE('',#306);
#306 = AXIS2_PLACEMENT_3D('',#307,#308,#309);
#307 = CARTESIAN_POINT('',(2.5625,-6.E-02,-2.445));
#308 = DIRECTION('',(0.,-0.707106781187,-0.707106781187));
#309 = DIRECTION('',(-1.,0.,0.));
#310 = ADVANCED_FACE('',(#311),#327,.T.);
#311 = FACE_BOUND('',#312,.T.);
#312 = EDGE_LOOP('',(#313,#319,#320,#326));
#313 = ORIENTED_EDGE('',*,*,#314,.T.);
#314 = EDGE_CURVE('',#271,#213,#315,.T.);
#315 = LINE('',#316,#317);
#316 = CARTESIAN_POINT('',(2.4375,0.14,-2.395));
#317 = VECTOR('',#318,1.);
#318 = DIRECTION('',(1.,-6.938893903907E-17,0.));
#319 = ORIENTED_EDGE('',*,*,#238,.F.);
#320 = ORIENTED_EDGE('',*,*,#321,.T.);
#321 = EDGE_CURVE('',#231,#253,#322,.T.);
#322 = LINE('',#323,#324);
#323 = CARTESIAN_POINT('',(2.4375,4.E-02,-2.495));
#324 = VECTOR('',#325,1.);
#325 = DIRECTION('',(-1.,6.938893903907E-17,0.));
#326 = ORIENTED_EDGE('',*,*,#278,.F.);
#327 = PLANE('',#328);
#328 = AXIS2_PLACEMENT_3D('',#329,#330,#331);
#329 = CARTESIAN_POINT('',(2.4375,9.E-02,-2.445));
#330 = DIRECTION('',(4.906538933387E-17,0.707106781187,-0.707106781187)
  );
#331 = DIRECTION('',(-1.,1.232595164408E-32,-6.938893903907E-17));
#332 = ADVANCED_FACE('',(#333),#358,.T.);
#333 = FACE_BOUND('',#334,.T.);
#334 = EDGE_LOOP('',(#335,#336,#344,#352));
#335 = ORIENTED_EDGE('',*,*,#314,.F.);
#336 = ORIENTED_EDGE('',*,*,#337,.F.);
#337 = EDGE_CURVE('',#338,#271,#340,.T.);
#338 = VERTEX_POINT('',#339);
#339 = CARTESIAN_POINT('',(2.375,0.14,0.715));
#340 = LINE('',#341,#342);
#341 = CARTESIAN_POINT('',(2.375,0.14,1.5E-02));
#342 = VECTOR('',#343,1.);
#343 = DIRECTION('',(0.,0.,-1.));
#344 = ORIENTED_EDGE('',*,*,#345,.T.);
#345 = EDGE_CURVE('',#338,#346,#348,.T.);
#346 = VERTEX_POINT('',#347);
#347 = CARTESIAN_POINT('',(2.625,0.14,0.715));
#348 = LINE('',#349,#350);
#349 = CARTESIAN_POINT('',(2.4375,0.14,0.715));
#350 = VECTOR('',#351,1.);
#351 = DIRECTION('',(1.,-6.938893903907E-17,0.));
#352 = ORIENTED_EDGE('',*,*,#353,.T.);
#353 = EDGE_CURVE('',#346,#213,#354,.T.);
#354 = LINE('',#355,#356);
#355 = CARTESIAN_POINT('',(2.625,0.14,1.5E-02));
#356 = VECTOR('',#357,1.);
#357 = DIRECTION('',(0.,0.,-1.));
#358 = PLANE('',#359);
#359 = AXIS2_PLACEMENT_3D('',#360,#361,#362);
#360 = CARTESIAN_POINT('',(2.375,0.14,1.5E-02));
#361 = DIRECTION('',(6.938893903907E-17,1.,0.));
#362 = DIRECTION('',(1.,-6.938893903907E-17,0.));
#363 = ADVANCED_FACE('',(#364),#382,.T.);
#364 = FACE_BOUND('',#365,.T.);
#365 = EDGE_LOOP('',(#366,#367,#375,#381));
#366 = ORIENTED_EDGE('',*,*,#270,.F.);
#367 = ORIENTED_EDGE('',*,*,#368,.F.);
#368 = EDGE_CURVE('',#369,#263,#371,.T.);
#369 = VERTEX_POINT('',#370);
#370 = CARTESIAN_POINT('',(2.375,-0.11,0.715));
#371 = LINE('',#372,#373);
#372 = CARTESIAN_POINT('',(2.375,-0.11,1.5E-02));
#373 = VECTOR('',#374,1.);
#374 = DIRECTION('',(0.,0.,-1.));
#375 = ORIENTED_EDGE('',*,*,#376,.T.);
#376 = EDGE_CURVE('',#369,#338,#377,.T.);
#377 = LINE('',#378,#379);
#378 = CARTESIAN_POINT('',(2.375,-4.75E-02,0.715));
#379 = VECTOR('',#380,1.);
#380 = DIRECTION('',(0.,1.,0.));
#381 = ORIENTED_EDGE('',*,*,#337,.T.);
#382 = PLANE('',#383);
#383 = AXIS2_PLACEMENT_3D('',#384,#385,#386);
#384 = CARTESIAN_POINT('',(2.375,-0.11,1.5E-02));
#385 = DIRECTION('',(-1.,0.,0.));
#386 = DIRECTION('',(0.,1.,0.));
#387 = ADVANCED_FACE('',(#388),#394,.F.);
#388 = FACE_BOUND('',#389,.T.);
#389 = EDGE_LOOP('',(#390,#391,#392,#393));
#390 = ORIENTED_EDGE('',*,*,#252,.F.);
#391 = ORIENTED_EDGE('',*,*,#321,.F.);
#392 = ORIENTED_EDGE('',*,*,#230,.F.);
#393 = ORIENTED_EDGE('',*,*,#299,.F.);
#394 = PLANE('',#395);
#395 = AXIS2_PLACEMENT_3D('',#396,#397,#398);
#396 = CARTESIAN_POINT('',(2.5,1.5E-02,-2.495));
#397 = DIRECTION('',(0.,0.,1.));
#398 = DIRECTION('',(1.,0.,0.));
#399 = ADVANCED_FACE('',(#400),#434,.T.);
#400 = FACE_BOUND('',#401,.T.);
#401 = EDGE_LOOP('',(#402,#412,#420,#428));
#402 = ORIENTED_EDGE('',*,*,#403,.T.);
#403 = EDGE_CURVE('',#404,#406,#408,.T.);
#404 = VERTEX_POINT('',#405);
#405 = CARTESIAN_POINT('',(0.125,-0.11,-2.395));
#406 = VERTEX_POINT('',#407);
#407 = CARTESIAN_POINT('',(-0.125,-0.11,-2.395));
#408 = LINE('',#409,#410);
#409 = CARTESIAN_POINT('',(6.25E-02,-0.11,-2.395));
#410 = VECTOR('',#411,1.);
#411 = DIRECTION('',(-1.,0.,0.));
#412 = ORIENTED_EDGE('',*,*,#413,.T.);
#413 = EDGE_CURVE('',#406,#414,#416,.T.);
#414 = VERTEX_POINT('',#415);
#415 = CARTESIAN_POINT('',(-2.5E-02,-1.E-02,-2.495));
#416 = LINE('',#417,#418);
#417 = CARTESIAN_POINT('',(-0.125,-0.11,-2.395));
#418 = VECTOR('',#419,1.);
#419 = DIRECTION('',(0.57735026919,0.57735026919,-0.57735026919));
#420 = ORIENTED_EDGE('',*,*,#421,.T.);
#421 = EDGE_CURVE('',#414,#422,#424,.T.);
#422 = VERTEX_POINT('',#423);
#423 = CARTESIAN_POINT('',(2.5E-02,-1.E-02,-2.495));
#424 = LINE('',#425,#426);
#425 = CARTESIAN_POINT('',(6.25E-02,-1.E-02,-2.495));
#426 = VECTOR('',#427,1.);
#427 = DIRECTION('',(1.,0.,0.));
#428 = ORIENTED_EDGE('',*,*,#429,.T.);
#429 = EDGE_CURVE('',#422,#404,#430,.T.);
#430 = LINE('',#431,#432);
#431 = CARTESIAN_POINT('',(2.5E-02,-1.E-02,-2.495));
#432 = VECTOR('',#433,1.);
#433 = DIRECTION('',(0.57735026919,-0.57735026919,0.57735026919));
#434 = PLANE('',#435);
#435 = AXIS2_PLACEMENT_3D('',#436,#437,#438);
#436 = CARTESIAN_POINT('',(6.25E-02,-6.E-02,-2.445));
#437 = DIRECTION('',(0.,-0.707106781187,-0.707106781187));
#438 = DIRECTION('',(-1.,0.,0.));
#439 = ADVANCED_FACE('',(#440),#465,.T.);
#440 = FACE_BOUND('',#441,.T.);
#441 = EDGE_LOOP('',(#442,#450,#458,#464));
#442 = ORIENTED_EDGE('',*,*,#443,.T.);
#443 = EDGE_CURVE('',#406,#444,#446,.T.);
#444 = VERTEX_POINT('',#445);
#445 = CARTESIAN_POINT('',(-0.125,0.14,-2.395));
#446 = LINE('',#447,#448);
#447 = CARTESIAN_POINT('',(-0.125,-4.75E-02,-2.395));
#448 = VECTOR('',#449,1.);
#449 = DIRECTION('',(0.,1.,0.));
#450 = ORIENTED_EDGE('',*,*,#451,.T.);
#451 = EDGE_CURVE('',#444,#452,#454,.T.);
#452 = VERTEX_POINT('',#453);
#453 = CARTESIAN_POINT('',(-2.5E-02,4.E-02,-2.495));
#454 = LINE('',#455,#456);
#455 = CARTESIAN_POINT('',(-0.125,0.14,-2.395));
#456 = VECTOR('',#457,1.);
#457 = DIRECTION('',(0.57735026919,-0.57735026919,-0.57735026919));
#458 = ORIENTED_EDGE('',*,*,#459,.T.);
#459 = EDGE_CURVE('',#452,#414,#460,.T.);
#460 = LINE('',#461,#462);
#461 = CARTESIAN_POINT('',(-2.5E-02,-4.75E-02,-2.495));
#462 = VECTOR('',#463,1.);
#463 = DIRECTION('',(0.,-1.,0.));
#464 = ORIENTED_EDGE('',*,*,#413,.F.);
#465 = PLANE('',#466);
#466 = AXIS2_PLACEMENT_3D('',#467,#468,#469);
#467 = CARTESIAN_POINT('',(-7.5E-02,-4.75E-02,-2.445));
#468 = DIRECTION('',(-0.707106781187,0.,-0.707106781187));
#469 = DIRECTION('',(-0.707106781187,0.,0.707106781187));
#470 = ADVANCED_FACE('',(#471),#496,.T.);
#471 = FACE_BOUND('',#472,.T.);
#472 = EDGE_LOOP('',(#473,#481,#482,#490));
#473 = ORIENTED_EDGE('',*,*,#474,.T.);
#474 = EDGE_CURVE('',#475,#452,#477,.T.);
#475 = VERTEX_POINT('',#476);
#476 = CARTESIAN_POINT('',(2.5E-02,4.E-02,-2.495));
#477 = LINE('',#478,#479);
#478 = CARTESIAN_POINT('',(-6.25E-02,4.E-02,-2.495));
#479 = VECTOR('',#480,1.);
#480 = DIRECTION('',(-1.,6.938893903907E-17,0.));
#481 = ORIENTED_EDGE('',*,*,#451,.F.);
#482 = ORIENTED_EDGE('',*,*,#483,.T.);
#483 = EDGE_CURVE('',#444,#484,#486,.T.);
#484 = VERTEX_POINT('',#485);
#485 = CARTESIAN_POINT('',(0.125,0.14,-2.395));
#486 = LINE('',#487,#488);
#487 = CARTESIAN_POINT('',(-6.25E-02,0.14,-2.395));
#488 = VECTOR('',#489,1.);
#489 = DIRECTION('',(1.,-6.938893903907E-17,0.));
#490 = ORIENTED_EDGE('',*,*,#491,.F.);
#491 = EDGE_CURVE('',#475,#484,#492,.T.);
#492 = LINE('',#493,#494);
#493 = CARTESIAN_POINT('',(2.5E-02,4.E-02,-2.495));
#494 = VECTOR('',#495,1.);
#495 = DIRECTION('',(0.57735026919,0.57735026919,0.57735026919));
#496 = PLANE('',#497);
#497 = AXIS2_PLACEMENT_3D('',#498,#499,#500);
#498 = CARTESIAN_POINT('',(-6.25E-02,9.E-02,-2.445));
#499 = DIRECTION('',(4.906538933387E-17,0.707106781187,-0.707106781187)
  );
#500 = DIRECTION('',(-1.,1.232595164408E-32,-6.938893903907E-17));
#501 = ADVANCED_FACE('',(#502),#518,.T.);
#502 = FACE_BOUND('',#503,.T.);
#503 = EDGE_LOOP('',(#504,#510,#511,#517));
#504 = ORIENTED_EDGE('',*,*,#505,.T.);
#505 = EDGE_CURVE('',#484,#404,#506,.T.);
#506 = LINE('',#507,#508);
#507 = CARTESIAN_POINT('',(0.125,7.75E-02,-2.395));
#508 = VECTOR('',#509,1.);
#509 = DIRECTION('',(0.,-1.,0.));
#510 = ORIENTED_EDGE('',*,*,#429,.F.);
#511 = ORIENTED_EDGE('',*,*,#512,.T.);
#512 = EDGE_CURVE('',#422,#475,#513,.T.);
#513 = LINE('',#514,#515);
#514 = CARTESIAN_POINT('',(2.5E-02,7.75E-02,-2.495));
#515 = VECTOR('',#516,1.);
#516 = DIRECTION('',(0.,1.,0.));
#517 = ORIENTED_EDGE('',*,*,#491,.T.);
#518 = PLANE('',#519);
#519 = AXIS2_PLACEMENT_3D('',#520,#521,#522);
#520 = CARTESIAN_POINT('',(7.5E-02,7.75E-02,-2.445));
#521 = DIRECTION('',(0.707106781187,0.,-0.707106781187));
#522 = DIRECTION('',(-0.707106781187,0.,-0.707106781187));
#523 = ADVANCED_FACE('',(#524),#549,.T.);
#524 = FACE_BOUND('',#525,.T.);
#525 = EDGE_LOOP('',(#526,#527,#535,#543));
#526 = ORIENTED_EDGE('',*,*,#443,.F.);
#527 = ORIENTED_EDGE('',*,*,#528,.F.);
#528 = EDGE_CURVE('',#529,#406,#531,.T.);
#529 = VERTEX_POINT('',#530);
#530 = CARTESIAN_POINT('',(-0.125,-0.11,0.715));
#531 = LINE('',#532,#533);
#532 = CARTESIAN_POINT('',(-0.125,-0.11,1.5E-02));
#533 = VECTOR('',#534,1.);
#534 = DIRECTION('',(0.,0.,-1.));
#535 = ORIENTED_EDGE('',*,*,#536,.T.);
#536 = EDGE_CURVE('',#529,#537,#539,.T.);
#537 = VERTEX_POINT('',#538);
#538 = CARTESIAN_POINT('',(-0.125,0.14,0.715));
#539 = LINE('',#540,#541);
#540 = CARTESIAN_POINT('',(-0.125,-4.75E-02,0.715));
#541 = VECTOR('',#542,1.);
#542 = DIRECTION('',(0.,1.,0.));
#543 = ORIENTED_EDGE('',*,*,#544,.F.);
#544 = EDGE_CURVE('',#444,#537,#545,.T.);
#545 = LINE('',#546,#547);
#546 = CARTESIAN_POINT('',(-0.125,0.14,1.5E-02));
#547 = VECTOR('',#548,1.);
#548 = DIRECTION('',(0.,0.,1.));
#549 = PLANE('',#550);
#550 = AXIS2_PLACEMENT_3D('',#551,#552,#553);
#551 = CARTESIAN_POINT('',(-0.125,-0.11,1.5E-02));
#552 = DIRECTION('',(-1.,0.,0.));
#553 = DIRECTION('',(0.,1.,0.));
#554 = ADVANCED_FACE('',(#555),#573,.T.);
#555 = FACE_BOUND('',#556,.T.);
#556 = EDGE_LOOP('',(#557,#558,#566,#572));
#557 = ORIENTED_EDGE('',*,*,#403,.F.);
#558 = ORIENTED_EDGE('',*,*,#559,.T.);
#559 = EDGE_CURVE('',#404,#560,#562,.T.);
#560 = VERTEX_POINT('',#561);
#561 = CARTESIAN_POINT('',(0.125,-0.11,0.715));
#562 = LINE('',#563,#564);
#563 = CARTESIAN_POINT('',(0.125,-0.11,1.5E-02));
#564 = VECTOR('',#565,1.);
#565 = DIRECTION('',(0.,0.,1.));
#566 = ORIENTED_EDGE('',*,*,#567,.T.);
#567 = EDGE_CURVE('',#560,#529,#568,.T.);
#568 = LINE('',#569,#570);
#569 = CARTESIAN_POINT('',(6.25E-02,-0.11,0.715));
#570 = VECTOR('',#571,1.);
#571 = DIRECTION('',(-1.,0.,0.));
#572 = ORIENTED_EDGE('',*,*,#528,.T.);
#573 = PLANE('',#574);
#574 = AXIS2_PLACEMENT_3D('',#575,#576,#577);
#575 = CARTESIAN_POINT('',(0.125,-0.11,1.5E-02));
#576 = DIRECTION('',(0.,-1.,0.));
#577 = DIRECTION('',(-1.,0.,0.));
#578 = ADVANCED_FACE('',(#579),#585,.F.);
#579 = FACE_BOUND('',#580,.T.);
#580 = EDGE_LOOP('',(#581,#582,#583,#584));
#581 = ORIENTED_EDGE('',*,*,#421,.F.);
#582 = ORIENTED_EDGE('',*,*,#459,.F.);
#583 = ORIENTED_EDGE('',*,*,#474,.F.);
#584 = ORIENTED_EDGE('',*,*,#512,.F.);
#585 = PLANE('',#586);
#586 = AXIS2_PLACEMENT_3D('',#587,#588,#589);
#587 = CARTESIAN_POINT('',(1.110223024625E-15,1.5E-02,-2.495));
#588 = DIRECTION('',(0.,0.,1.));
#589 = DIRECTION('',(1.,0.,0.));
#590 = ADVANCED_FACE('',(#591,#625,#643,#661),#679,.F.);
#591 = FACE_BOUND('',#592,.T.);
#592 = EDGE_LOOP('',(#593,#603,#611,#619));
#593 = ORIENTED_EDGE('',*,*,#594,.F.);
#594 = EDGE_CURVE('',#595,#597,#599,.T.);
#595 = VERTEX_POINT('',#596);
#596 = CARTESIAN_POINT('',(-4.295,-1.87,0.715));
#597 = VERTEX_POINT('',#598);
#598 = CARTESIAN_POINT('',(4.295,-1.87,0.715));
#599 = LINE('',#600,#601);
#600 = CARTESIAN_POINT('',(-2.1475,-1.87,0.715));
#601 = VECTOR('',#602,1.);
#602 = DIRECTION('',(1.,0.,0.));
#603 = ORIENTED_EDGE('',*,*,#604,.F.);
#604 = EDGE_CURVE('',#605,#595,#607,.T.);
#605 = VERTEX_POINT('',#606);
#606 = CARTESIAN_POINT('',(-4.295,1.9,0.715));
#607 = LINE('',#608,#609);
#608 = CARTESIAN_POINT('',(-4.295,0.9575,0.715));
#609 = VECTOR('',#610,1.);
#610 = DIRECTION('',(0.,-1.,0.));
#611 = ORIENTED_EDGE('',*,*,#612,.F.);
#612 = EDGE_CURVE('',#613,#605,#615,.T.);
#613 = VERTEX_POINT('',#614);
#614 = CARTESIAN_POINT('',(4.295,1.9,0.715));
#615 = LINE('',#616,#617);
#616 = CARTESIAN_POINT('',(2.1475,1.9,0.715));
#617 = VECTOR('',#618,1.);
#618 = DIRECTION('',(-1.,0.,0.));
#619 = ORIENTED_EDGE('',*,*,#620,.F.);
#620 = EDGE_CURVE('',#597,#613,#621,.T.);
#621 = LINE('',#622,#623);
#622 = CARTESIAN_POINT('',(4.295,-0.9275,0.715));
#623 = VECTOR('',#624,1.);
#624 = DIRECTION('',(0.,1.,0.));
#625 = FACE_BOUND('',#626,.T.);
#626 = EDGE_LOOP('',(#627,#628,#629,#637));
#627 = ORIENTED_EDGE('',*,*,#345,.F.);
#628 = ORIENTED_EDGE('',*,*,#376,.F.);
#629 = ORIENTED_EDGE('',*,*,#630,.F.);
#630 = EDGE_CURVE('',#631,#369,#633,.T.);
#631 = VERTEX_POINT('',#632);
#632 = CARTESIAN_POINT('',(2.625,-0.11,0.715));
#633 = LINE('',#634,#635);
#634 = CARTESIAN_POINT('',(2.5625,-0.11,0.715));
#635 = VECTOR('',#636,1.);
#636 = DIRECTION('',(-1.,0.,0.));
#637 = ORIENTED_EDGE('',*,*,#638,.F.);
#638 = EDGE_CURVE('',#346,#631,#639,.T.);
#639 = LINE('',#640,#641);
#640 = CARTESIAN_POINT('',(2.625,7.75E-02,0.715));
#641 = VECTOR('',#642,1.);
#642 = DIRECTION('',(0.,-1.,0.));
#643 = FACE_BOUND('',#644,.T.);
#644 = EDGE_LOOP('',(#645,#646,#647,#655));
#645 = ORIENTED_EDGE('',*,*,#154,.F.);
#646 = ORIENTED_EDGE('',*,*,#185,.F.);
#647 = ORIENTED_EDGE('',*,*,#648,.F.);
#648 = EDGE_CURVE('',#649,#178,#651,.T.);
#649 = VERTEX_POINT('',#650);
#650 = CARTESIAN_POINT('',(-2.375,-0.11,0.715));
#651 = LINE('',#652,#653);
#652 = CARTESIAN_POINT('',(-2.4375,-0.11,0.715));
#653 = VECTOR('',#654,1.);
#654 = DIRECTION('',(-1.,0.,0.));
#655 = ORIENTED_EDGE('',*,*,#656,.F.);
#656 = EDGE_CURVE('',#155,#649,#657,.T.);
#657 = LINE('',#658,#659);
#658 = CARTESIAN_POINT('',(-2.375,7.75E-02,0.715));
#659 = VECTOR('',#660,1.);
#660 = DIRECTION('',(0.,-1.,0.));
#661 = FACE_BOUND('',#662,.T.);
#662 = EDGE_LOOP('',(#663,#664,#672,#678));
#663 = ORIENTED_EDGE('',*,*,#567,.F.);
#664 = ORIENTED_EDGE('',*,*,#665,.F.);
#665 = EDGE_CURVE('',#666,#560,#668,.T.);
#666 = VERTEX_POINT('',#667);
#667 = CARTESIAN_POINT('',(0.125,0.14,0.715));
#668 = LINE('',#669,#670);
#669 = CARTESIAN_POINT('',(0.125,7.75E-02,0.715));
#670 = VECTOR('',#671,1.);
#671 = DIRECTION('',(0.,-1.,0.));
#672 = ORIENTED_EDGE('',*,*,#673,.F.);
#673 = EDGE_CURVE('',#537,#666,#674,.T.);
#674 = LINE('',#675,#676);
#675 = CARTESIAN_POINT('',(-6.25E-02,0.14,0.715));
#676 = VECTOR('',#677,1.);
#677 = DIRECTION('',(1.,-6.938893903907E-17,0.));
#678 = ORIENTED_EDGE('',*,*,#536,.F.);
#679 = PLANE('',#680);
#680 = AXIS2_PLACEMENT_3D('',#681,#682,#683);
#681 = CARTESIAN_POINT('',(0.,1.5E-02,0.715));
#682 = DIRECTION('',(0.,0.,1.));
#683 = DIRECTION('',(1.,0.,0.));
#684 = ADVANCED_FACE('',(#685),#710,.T.);
#685 = FACE_BOUND('',#686,.T.);
#686 = EDGE_LOOP('',(#687,#688,#696,#704));
#687 = ORIENTED_EDGE('',*,*,#604,.T.);
#688 = ORIENTED_EDGE('',*,*,#689,.T.);
#689 = EDGE_CURVE('',#595,#690,#692,.T.);
#690 = VERTEX_POINT('',#691);
#691 = CARTESIAN_POINT('',(-4.295,-1.87,3.535));
#692 = LINE('',#693,#694);
#693 = CARTESIAN_POINT('',(-4.295,-1.87,1.5E-02));
#694 = VECTOR('',#695,1.);
#695 = DIRECTION('',(0.,0.,1.));
#696 = ORIENTED_EDGE('',*,*,#697,.F.);
#697 = EDGE_CURVE('',#698,#690,#700,.T.);
#698 = VERTEX_POINT('',#699);
#699 = CARTESIAN_POINT('',(-4.295,1.9,3.535));
#700 = LINE('',#701,#702);
#701 = CARTESIAN_POINT('',(-4.295,0.9575,3.535));
#702 = VECTOR('',#703,1.);
#703 = DIRECTION('',(0.,-1.,0.));
#704 = ORIENTED_EDGE('',*,*,#705,.F.);
#705 = EDGE_CURVE('',#605,#698,#706,.T.);
#706 = LINE('',#707,#708);
#707 = CARTESIAN_POINT('',(-4.295,1.9,1.5E-02));
#708 = VECTOR('',#709,1.);
#709 = DIRECTION('',(0.,0.,1.));
#710 = PLANE('',#711);
#711 = AXIS2_PLACEMENT_3D('',#712,#713,#714);
#712 = CARTESIAN_POINT('',(-4.295,1.9,1.5E-02));
#713 = DIRECTION('',(-1.,0.,0.));
#714 = DIRECTION('',(0.,-1.,0.));
#715 = ADVANCED_FACE('',(#716),#734,.T.);
#716 = FACE_BOUND('',#717,.T.);
#717 = EDGE_LOOP('',(#718,#719,#727,#733));
#718 = ORIENTED_EDGE('',*,*,#594,.T.);
#719 = ORIENTED_EDGE('',*,*,#720,.T.);
#720 = EDGE_CURVE('',#597,#721,#723,.T.);
#721 = VERTEX_POINT('',#722);
#722 = CARTESIAN_POINT('',(4.295,-1.87,3.535));
#723 = LINE('',#724,#725);
#724 = CARTESIAN_POINT('',(4.295,-1.87,1.5E-02));
#725 = VECTOR('',#726,1.);
#726 = DIRECTION('',(0.,0.,1.));
#727 = ORIENTED_EDGE('',*,*,#728,.F.);
#728 = EDGE_CURVE('',#690,#721,#729,.T.);
#729 = LINE('',#730,#731);
#730 = CARTESIAN_POINT('',(-2.1475,-1.87,3.535));
#731 = VECTOR('',#732,1.);
#732 = DIRECTION('',(1.,0.,0.));
#733 = ORIENTED_EDGE('',*,*,#689,.F.);
#734 = PLANE('',#735);
#735 = AXIS2_PLACEMENT_3D('',#736,#737,#738);
#736 = CARTESIAN_POINT('',(-4.295,-1.87,1.5E-02));
#737 = DIRECTION('',(0.,-1.,0.));
#738 = DIRECTION('',(1.,0.,0.));
#739 = ADVANCED_FACE('',(#740),#751,.T.);
#740 = FACE_BOUND('',#741,.T.);
#741 = EDGE_LOOP('',(#742,#743,#744,#745));
#742 = ORIENTED_EDGE('',*,*,#483,.F.);
#743 = ORIENTED_EDGE('',*,*,#544,.T.);
#744 = ORIENTED_EDGE('',*,*,#673,.T.);
#745 = ORIENTED_EDGE('',*,*,#746,.F.);
#746 = EDGE_CURVE('',#484,#666,#747,.T.);
#747 = LINE('',#748,#749);
#748 = CARTESIAN_POINT('',(0.125,0.14,1.5E-02));
#749 = VECTOR('',#750,1.);
#750 = DIRECTION('',(0.,0.,1.));
#751 = PLANE('',#752);
#752 = AXIS2_PLACEMENT_3D('',#753,#754,#755);
#753 = CARTESIAN_POINT('',(-0.125,0.14,1.5E-02));
#754 = DIRECTION('',(6.938893903907E-17,1.,0.));
#755 = DIRECTION('',(1.,-6.938893903907E-17,0.));
#756 = ADVANCED_FACE('',(#757),#793,.T.);
#757 = FACE_BOUND('',#758,.T.);
#758 = EDGE_LOOP('',(#759,#769,#778,#786));
#759 = ORIENTED_EDGE('',*,*,#760,.T.);
#760 = EDGE_CURVE('',#761,#763,#765,.T.);
#761 = VERTEX_POINT('',#762);
#762 = CARTESIAN_POINT('',(0.475,0.49,6.355));
#763 = VERTEX_POINT('',#764);
#764 = CARTESIAN_POINT('',(1.425,0.49,6.355));
#765 = LINE('',#766,#767);
#766 = CARTESIAN_POINT('',(1.3125,0.49,6.355));
#767 = VECTOR('',#768,1.);
#768 = DIRECTION('',(1.,0.,0.));
#769 = ORIENTED_EDGE('',*,*,#770,.T.);
#770 = EDGE_CURVE('',#763,#771,#773,.T.);
#771 = VERTEX_POINT('',#772);
#772 = CARTESIAN_POINT('',(1.675,0.74,6.105));
#773 = ELLIPSE('',#774,0.353553390593,0.25);
#774 = AXIS2_PLACEMENT_3D('',#775,#776,#777);
#775 = CARTESIAN_POINT('',(1.425,0.49,6.105));
#776 = DIRECTION('',(-0.707106781187,0.707106781187,0.));
#777 = DIRECTION('',(0.707106781187,0.707106781187,0.));
#778 = ORIENTED_EDGE('',*,*,#779,.T.);
#779 = EDGE_CURVE('',#771,#780,#782,.T.);
#780 = VERTEX_POINT('',#781);
#781 = CARTESIAN_POINT('',(0.225,0.74,6.105));
#782 = LINE('',#783,#784);
#783 = CARTESIAN_POINT('',(1.3125,0.74,6.105));
#784 = VECTOR('',#785,1.);
#785 = DIRECTION('',(-1.,0.,0.));
#786 = ORIENTED_EDGE('',*,*,#787,.F.);
#787 = EDGE_CURVE('',#761,#780,#788,.T.);
#788 = ELLIPSE('',#789,0.353553390593,0.25);
#789 = AXIS2_PLACEMENT_3D('',#790,#791,#792);
#790 = CARTESIAN_POINT('',(0.475,0.49,6.105));
#791 = DIRECTION('',(-0.707106781187,-0.707106781187,-1.962615573354E-16
    ));
#792 = DIRECTION('',(-0.707106781187,0.707106781187,-1.962615573354E-16)
  );
#793 = CYLINDRICAL_SURFACE('',#794,0.25);
#794 = AXIS2_PLACEMENT_3D('',#795,#796,#797);
#795 = CARTESIAN_POINT('',(1.3125,0.49,6.105));
#796 = DIRECTION('',(-1.,0.,0.));
#797 = DIRECTION('',(0.,0.707106781187,0.707106781187));
#798 = ADVANCED_FACE('',(#799),#825,.T.);
#799 = FACE_BOUND('',#800,.T.);
#800 = EDGE_LOOP('',(#801,#809,#818,#824));
#801 = ORIENTED_EDGE('',*,*,#802,.T.);
#802 = EDGE_CURVE('',#763,#803,#805,.T.);
#803 = VERTEX_POINT('',#804);
#804 = CARTESIAN_POINT('',(1.425,-0.46,6.355));
#805 = LINE('',#806,#807);
#806 = CARTESIAN_POINT('',(1.425,-0.3475,6.355));
#807 = VECTOR('',#808,1.);
#808 = DIRECTION('',(0.,-1.,0.));
#809 = ORIENTED_EDGE('',*,*,#810,.T.);
#810 = EDGE_CURVE('',#803,#811,#813,.T.);
#811 = VERTEX_POINT('',#812);
#812 = CARTESIAN_POINT('',(1.675,-0.71,6.105));
#813 = ELLIPSE('',#814,0.353553390593,0.25);
#814 = AXIS2_PLACEMENT_3D('',#815,#816,#817);
#815 = CARTESIAN_POINT('',(1.425,-0.46,6.105));
#816 = DIRECTION('',(0.707106781187,0.707106781187,0.));
#817 = DIRECTION('',(0.707106781187,-0.707106781187,0.));
#818 = ORIENTED_EDGE('',*,*,#819,.T.);
#819 = EDGE_CURVE('',#811,#771,#820,.T.);
#820 = LINE('',#821,#822);
#821 = CARTESIAN_POINT('',(1.675,-0.3475,6.105));
#822 = VECTOR('',#823,1.);
#823 = DIRECTION('',(0.,1.,0.));
#824 = ORIENTED_EDGE('',*,*,#770,.F.);
#825 = CYLINDRICAL_SURFACE('',#826,0.25);
#826 = AXIS2_PLACEMENT_3D('',#827,#828,#829);
#827 = CARTESIAN_POINT('',(1.425,-0.3475,6.105));
#828 = DIRECTION('',(0.,1.,0.));
#829 = DIRECTION('',(0.707106781187,0.,0.707106781187));
#830 = ADVANCED_FACE('',(#831),#857,.T.);
#831 = FACE_BOUND('',#832,.T.);
#832 = EDGE_LOOP('',(#833,#841,#850,#856));
#833 = ORIENTED_EDGE('',*,*,#834,.T.);
#834 = EDGE_CURVE('',#803,#835,#837,.T.);
#835 = VERTEX_POINT('',#836);
#836 = CARTESIAN_POINT('',(0.475,-0.46,6.355));
#837 = LINE('',#838,#839);
#838 = CARTESIAN_POINT('',(0.5875,-0.46,6.355));
#839 = VECTOR('',#840,1.);
#840 = DIRECTION('',(-1.,0.,0.));
#841 = ORIENTED_EDGE('',*,*,#842,.T.);
#842 = EDGE_CURVE('',#835,#843,#845,.T.);
#843 = VERTEX_POINT('',#844);
#844 = CARTESIAN_POINT('',(0.225,-0.71,6.105));
#845 = ELLIPSE('',#846,0.353553390593,0.25);
#846 = AXIS2_PLACEMENT_3D('',#847,#848,#849);
#847 = CARTESIAN_POINT('',(0.475,-0.46,6.105));
#848 = DIRECTION('',(0.707106781187,-0.707106781187,0.));
#849 = DIRECTION('',(-0.707106781187,-0.707106781187,0.));
#850 = ORIENTED_EDGE('',*,*,#851,.T.);
#851 = EDGE_CURVE('',#843,#811,#852,.T.);
#852 = LINE('',#853,#854);
#853 = CARTESIAN_POINT('',(0.5875,-0.71,6.105));
#854 = VECTOR('',#855,1.);
#855 = DIRECTION('',(1.,0.,0.));
#856 = ORIENTED_EDGE('',*,*,#810,.F.);
#857 = CYLINDRICAL_SURFACE('',#858,0.25);
#858 = AXIS2_PLACEMENT_3D('',#859,#860,#861);
#859 = CARTESIAN_POINT('',(0.5875,-0.46,6.105));
#860 = DIRECTION('',(1.,0.,0.));
#861 = DIRECTION('',(0.,-0.707106781187,0.707106781187));
#862 = ADVANCED_FACE('',(#863),#879,.T.);
#863 = FACE_BOUND('',#864,.T.);
#864 = EDGE_LOOP('',(#865,#871,#872,#878));
#865 = ORIENTED_EDGE('',*,*,#866,.T.);
#866 = EDGE_CURVE('',#780,#843,#867,.T.);
#867 = LINE('',#868,#869);
#868 = CARTESIAN_POINT('',(0.225,0.3775,6.105));
#869 = VECTOR('',#870,1.);
#870 = DIRECTION('',(0.,-1.,0.));
#871 = ORIENTED_EDGE('',*,*,#842,.F.);
#872 = ORIENTED_EDGE('',*,*,#873,.T.);
#873 = EDGE_CURVE('',#835,#761,#874,.T.);
#874 = LINE('',#875,#876);
#875 = CARTESIAN_POINT('',(0.475,0.3775,6.355));
#876 = VECTOR('',#877,1.);
#877 = DIRECTION('',(0.,1.,0.));
#878 = ORIENTED_EDGE('',*,*,#787,.T.);
#879 = CYLINDRICAL_SURFACE('',#880,0.25);
#880 = AXIS2_PLACEMENT_3D('',#881,#882,#883);
#881 = CARTESIAN_POINT('',(0.475,0.3775,6.105));
#882 = DIRECTION('',(0.,-1.,0.));
#883 = DIRECTION('',(-0.707106781187,0.,0.707106781187));
#884 = ADVANCED_FACE('',(#885),#926,.T.);
#885 = FACE_BOUND('',#886,.T.);
#886 = EDGE_LOOP('',(#887,#888,#896,#904,#912,#920));
#887 = ORIENTED_EDGE('',*,*,#866,.F.);
#888 = ORIENTED_EDGE('',*,*,#889,.F.);
#889 = EDGE_CURVE('',#890,#780,#892,.T.);
#890 = VERTEX_POINT('',#891);
#891 = CARTESIAN_POINT('',(0.225,0.74,3.785));
#892 = LINE('',#893,#894);
#893 = CARTESIAN_POINT('',(0.225,0.74,3.535));
#894 = VECTOR('',#895,1.);
#895 = DIRECTION('',(0.,0.,1.));
#896 = ORIENTED_EDGE('',*,*,#897,.F.);
#897 = EDGE_CURVE('',#898,#890,#900,.T.);
#898 = VERTEX_POINT('',#899);
#899 = CARTESIAN_POINT('',(0.225,0.74,3.535));
#900 = LINE('',#901,#902);
#901 = CARTESIAN_POINT('',(0.225,0.74,3.66));
#902 = VECTOR('',#903,1.);
#903 = DIRECTION('',(0.,0.,1.));
#904 = ORIENTED_EDGE('',*,*,#905,.F.);
#905 = EDGE_CURVE('',#906,#898,#908,.T.);
#906 = VERTEX_POINT('',#907);
#907 = CARTESIAN_POINT('',(0.225,-0.71,3.535));
#908 = LINE('',#909,#910);
#909 = CARTESIAN_POINT('',(0.225,0.3775,3.535));
#910 = VECTOR('',#911,1.);
#911 = DIRECTION('',(0.,1.,0.));
#912 = ORIENTED_EDGE('',*,*,#913,.F.);
#913 = EDGE_CURVE('',#914,#906,#916,.T.);
#914 = VERTEX_POINT('',#915);
#915 = CARTESIAN_POINT('',(0.225,-0.71,3.785));
#916 = LINE('',#917,#918);
#917 = CARTESIAN_POINT('',(0.225,-0.71,3.66));
#918 = VECTOR('',#919,1.);
#919 = DIRECTION('',(0.,0.,-1.));
#920 = ORIENTED_EDGE('',*,*,#921,.T.);
#921 = EDGE_CURVE('',#914,#843,#922,.T.);
#922 = LINE('',#923,#924);
#923 = CARTESIAN_POINT('',(0.225,-0.71,3.535));
#924 = VECTOR('',#925,1.);
#925 = DIRECTION('',(0.,0.,1.));
#926 = PLANE('',#927);
#927 = AXIS2_PLACEMENT_3D('',#928,#929,#930);
#928 = CARTESIAN_POINT('',(0.225,0.74,3.535));
#929 = DIRECTION('',(-1.,0.,0.));
#930 = DIRECTION('',(0.,-1.,0.));
#931 = ADVANCED_FACE('',(#932),#950,.T.);
#932 = FACE_BOUND('',#933,.T.);
#933 = EDGE_LOOP('',(#934,#935,#943,#949));
#934 = ORIENTED_EDGE('',*,*,#779,.F.);
#935 = ORIENTED_EDGE('',*,*,#936,.F.);
#936 = EDGE_CURVE('',#937,#771,#939,.T.);
#937 = VERTEX_POINT('',#938);
#938 = CARTESIAN_POINT('',(1.675,0.74,3.785));
#939 = LINE('',#940,#941);
#940 = CARTESIAN_POINT('',(1.675,0.74,3.535));
#941 = VECTOR('',#942,1.);
#942 = DIRECTION('',(0.,0.,1.));
#943 = ORIENTED_EDGE('',*,*,#944,.F.);
#944 = EDGE_CURVE('',#890,#937,#945,.T.);
#945 = LINE('',#946,#947);
#946 = CARTESIAN_POINT('',(-0.8375,0.74,3.785));
#947 = VECTOR('',#948,1.);
#948 = DIRECTION('',(1.,0.,0.));
#949 = ORIENTED_EDGE('',*,*,#889,.T.);
#950 = PLANE('',#951);
#951 = AXIS2_PLACEMENT_3D('',#952,#953,#954);
#952 = CARTESIAN_POINT('',(1.675,0.74,3.535));
#953 = DIRECTION('',(0.,1.,0.));
#954 = DIRECTION('',(-1.,0.,0.));
#955 = ADVANCED_FACE('',(#956),#962,.T.);
#956 = FACE_BOUND('',#957,.T.);
#957 = EDGE_LOOP('',(#958,#959,#960,#961));
#958 = ORIENTED_EDGE('',*,*,#760,.F.);
#959 = ORIENTED_EDGE('',*,*,#873,.F.);
#960 = ORIENTED_EDGE('',*,*,#834,.F.);
#961 = ORIENTED_EDGE('',*,*,#802,.F.);
#962 = PLANE('',#963);
#963 = AXIS2_PLACEMENT_3D('',#964,#965,#966);
#964 = CARTESIAN_POINT('',(0.95,1.5E-02,6.355));
#965 = DIRECTION('',(0.,0.,1.));
#966 = DIRECTION('',(-1.,0.,0.));
#967 = ADVANCED_FACE('',(#968),#1002,.T.);
#968 = FACE_BOUND('',#969,.T.);
#969 = EDGE_LOOP('',(#970,#980,#989,#995));
#970 = ORIENTED_EDGE('',*,*,#971,.T.);
#971 = EDGE_CURVE('',#972,#974,#976,.T.);
#972 = VERTEX_POINT('',#973);
#973 = CARTESIAN_POINT('',(-4.045,1.65,3.785));
#974 = VERTEX_POINT('',#975);
#975 = CARTESIAN_POINT('',(4.045,1.65,3.785));
#976 = LINE('',#977,#978);
#977 = CARTESIAN_POINT('',(2.1475,1.65,3.785));
#978 = VECTOR('',#979,1.);
#979 = DIRECTION('',(1.,0.,0.));
#980 = ORIENTED_EDGE('',*,*,#981,.T.);
#981 = EDGE_CURVE('',#974,#982,#984,.T.);
#982 = VERTEX_POINT('',#983);
#983 = CARTESIAN_POINT('',(4.295,1.9,3.535));
#984 = ELLIPSE('',#985,0.353553390593,0.25);
#985 = AXIS2_PLACEMENT_3D('',#986,#987,#988);
#986 = CARTESIAN_POINT('',(4.045,1.65,3.535));
#987 = DIRECTION('',(-0.707106781187,0.707106781187,-7.850462293414E-16)
  );
#988 = DIRECTION('',(0.707106781187,0.707106781187,-7.850462293414E-16)
  );
#989 = ORIENTED_EDGE('',*,*,#990,.T.);
#990 = EDGE_CURVE('',#982,#698,#991,.T.);
#991 = LINE('',#992,#993);
#992 = CARTESIAN_POINT('',(2.1475,1.9,3.535));
#993 = VECTOR('',#994,1.);
#994 = DIRECTION('',(-1.,0.,0.));
#995 = ORIENTED_EDGE('',*,*,#996,.F.);
#996 = EDGE_CURVE('',#972,#698,#997,.T.);
#997 = ELLIPSE('',#998,0.353553390593,0.25);
#998 = AXIS2_PLACEMENT_3D('',#999,#1000,#1001);
#999 = CARTESIAN_POINT('',(-4.045,1.65,3.535));
#1000 = DIRECTION('',(-0.707106781187,-0.707106781187,
    -1.570092458683E-15));
#1001 = DIRECTION('',(-0.707106781187,0.707106781187,-1.570092458683E-15
    ));
#1002 = CYLINDRICAL_SURFACE('',#1003,0.25);
#1003 = AXIS2_PLACEMENT_3D('',#1004,#1005,#1006);
#1004 = CARTESIAN_POINT('',(2.1475,1.65,3.535));
#1005 = DIRECTION('',(-1.,0.,0.));
#1006 = DIRECTION('',(0.,0.707106781187,0.707106781187));
#1007 = ADVANCED_FACE('',(#1008),#1032,.T.);
#1008 = FACE_BOUND('',#1009,.T.);
#1009 = EDGE_LOOP('',(#1010,#1018,#1025,#1031));
#1010 = ORIENTED_EDGE('',*,*,#1011,.T.);
#1011 = EDGE_CURVE('',#974,#1012,#1014,.T.);
#1012 = VERTEX_POINT('',#1013);
#1013 = CARTESIAN_POINT('',(4.045,-1.62,3.785));
#1014 = LINE('',#1015,#1016);
#1015 = CARTESIAN_POINT('',(4.045,-0.9275,3.785));
#1016 = VECTOR('',#1017,1.);
#1017 = DIRECTION('',(0.,-1.,0.));
#1018 = ORIENTED_EDGE('',*,*,#1019,.T.);
#1019 = EDGE_CURVE('',#1012,#721,#1020,.T.);
#1020 = ELLIPSE('',#1021,0.353553390593,0.25);
#1021 = AXIS2_PLACEMENT_3D('',#1022,#1023,#1024);
#1022 = CARTESIAN_POINT('',(4.045,-1.62,3.535));
#1023 = DIRECTION('',(0.707106781187,0.707106781187,-1.570092458683E-15)
  );
#1024 = DIRECTION('',(0.707106781187,-0.707106781187,-1.570092458683E-15
    ));
#1025 = ORIENTED_EDGE('',*,*,#1026,.T.);
#1026 = EDGE_CURVE('',#721,#982,#1027,.T.);
#1027 = LINE('',#1028,#1029);
#1028 = CARTESIAN_POINT('',(4.295,-0.9275,3.535));
#1029 = VECTOR('',#1030,1.);
#1030 = DIRECTION('',(0.,1.,0.));
#1031 = ORIENTED_EDGE('',*,*,#981,.F.);
#1032 = CYLINDRICAL_SURFACE('',#1033,0.25);
#1033 = AXIS2_PLACEMENT_3D('',#1034,#1035,#1036);
#1034 = CARTESIAN_POINT('',(4.045,-0.9275,3.535));
#1035 = DIRECTION('',(0.,1.,0.));
#1036 = DIRECTION('',(0.707106781187,0.,0.707106781187));
#1037 = ADVANCED_FACE('',(#1038),#1057,.T.);
#1038 = FACE_BOUND('',#1039,.T.);
#1039 = EDGE_LOOP('',(#1040,#1048,#1055,#1056));
#1040 = ORIENTED_EDGE('',*,*,#1041,.T.);
#1041 = EDGE_CURVE('',#1012,#1042,#1044,.T.);
#1042 = VERTEX_POINT('',#1043);
#1043 = CARTESIAN_POINT('',(-4.045,-1.62,3.785));
#1044 = LINE('',#1045,#1046);
#1045 = CARTESIAN_POINT('',(-2.1475,-1.62,3.785));
#1046 = VECTOR('',#1047,1.);
#1047 = DIRECTION('',(-1.,0.,0.));
#1048 = ORIENTED_EDGE('',*,*,#1049,.T.);
#1049 = EDGE_CURVE('',#1042,#690,#1050,.T.);
#1050 = ELLIPSE('',#1051,0.353553390593,0.25);
#1051 = AXIS2_PLACEMENT_3D('',#1052,#1053,#1054);
#1052 = CARTESIAN_POINT('',(-4.045,-1.62,3.535));
#1053 = DIRECTION('',(0.707106781187,-0.707106781187,-7.850462293414E-16
    ));
#1054 = DIRECTION('',(-0.707106781187,-0.707106781187,
    -7.850462293414E-16));
#1055 = ORIENTED_EDGE('',*,*,#728,.T.);
#1056 = ORIENTED_EDGE('',*,*,#1019,.F.);
#1057 = CYLINDRICAL_SURFACE('',#1058,0.25);
#1058 = AXIS2_PLACEMENT_3D('',#1059,#1060,#1061);
#1059 = CARTESIAN_POINT('',(-2.1475,-1.62,3.535));
#1060 = DIRECTION('',(1.,0.,0.));
#1061 = DIRECTION('',(0.,-0.707106781187,0.707106781187));
#1062 = ADVANCED_FACE('',(#1063),#1074,.T.);
#1063 = FACE_BOUND('',#1064,.T.);
#1064 = EDGE_LOOP('',(#1065,#1066,#1067,#1073));
#1065 = ORIENTED_EDGE('',*,*,#697,.T.);
#1066 = ORIENTED_EDGE('',*,*,#1049,.F.);
#1067 = ORIENTED_EDGE('',*,*,#1068,.T.);
#1068 = EDGE_CURVE('',#1042,#972,#1069,.T.);
#1069 = LINE('',#1070,#1071);
#1070 = CARTESIAN_POINT('',(-4.045,0.9575,3.785));
#1071 = VECTOR('',#1072,1.);
#1072 = DIRECTION('',(0.,1.,0.));
#1073 = ORIENTED_EDGE('',*,*,#996,.T.);
#1074 = CYLINDRICAL_SURFACE('',#1075,0.25);
#1075 = AXIS2_PLACEMENT_3D('',#1076,#1077,#1078);
#1076 = CARTESIAN_POINT('',(-4.045,0.9575,3.535));
#1077 = DIRECTION('',(0.,-1.,0.));
#1078 = DIRECTION('',(-0.707106781187,0.,0.707106781187));
#1079 = ADVANCED_FACE('',(#1080),#1091,.T.);
#1080 = FACE_BOUND('',#1081,.T.);
#1081 = EDGE_LOOP('',(#1082,#1083,#1084,#1085));
#1082 = ORIENTED_EDGE('',*,*,#612,.T.);
#1083 = ORIENTED_EDGE('',*,*,#705,.T.);
#1084 = ORIENTED_EDGE('',*,*,#990,.F.);
#1085 = ORIENTED_EDGE('',*,*,#1086,.F.);
#1086 = EDGE_CURVE('',#613,#982,#1087,.T.);
#1087 = LINE('',#1088,#1089);
#1088 = CARTESIAN_POINT('',(4.295,1.9,1.5E-02));
#1089 = VECTOR('',#1090,1.);
#1090 = DIRECTION('',(0.,0.,1.));
#1091 = PLANE('',#1092);
#1092 = AXIS2_PLACEMENT_3D('',#1093,#1094,#1095);
#1093 = CARTESIAN_POINT('',(4.295,1.9,1.5E-02));
#1094 = DIRECTION('',(0.,1.,0.));
#1095 = DIRECTION('',(-1.,0.,0.));
#1096 = ADVANCED_FACE('',(#1097,#1103),#1142,.T.);
#1097 = FACE_BOUND('',#1098,.T.);
#1098 = EDGE_LOOP('',(#1099,#1100,#1101,#1102));
#1099 = ORIENTED_EDGE('',*,*,#971,.F.);
#1100 = ORIENTED_EDGE('',*,*,#1068,.F.);
#1101 = ORIENTED_EDGE('',*,*,#1041,.F.);
#1102 = ORIENTED_EDGE('',*,*,#1011,.F.);
#1103 = FACE_BOUND('',#1104,.T.);
#1104 = EDGE_LOOP('',(#1105,#1115,#1121,#1122,#1130,#1136));
#1105 = ORIENTED_EDGE('',*,*,#1106,.T.);
#1106 = EDGE_CURVE('',#1107,#1109,#1111,.T.);
#1107 = VERTEX_POINT('',#1108);
#1108 = CARTESIAN_POINT('',(-1.675,-0.71,3.785));
#1109 = VERTEX_POINT('',#1110);
#1110 = CARTESIAN_POINT('',(-1.675,0.74,3.785));
#1111 = LINE('',#1112,#1113);
#1112 = CARTESIAN_POINT('',(-1.675,-0.3475,3.785));
#1113 = VECTOR('',#1114,1.);
#1114 = DIRECTION('',(0.,1.,0.));
#1115 = ORIENTED_EDGE('',*,*,#1116,.T.);
#1116 = EDGE_CURVE('',#1109,#890,#1117,.T.);
#1117 = LINE('',#1118,#1119);
#1118 = CARTESIAN_POINT('',(-0.8375,0.74,3.785));
#1119 = VECTOR('',#1120,1.);
#1120 = DIRECTION('',(1.,0.,0.));
#1121 = ORIENTED_EDGE('',*,*,#944,.T.);
#1122 = ORIENTED_EDGE('',*,*,#1123,.T.);
#1123 = EDGE_CURVE('',#937,#1124,#1126,.T.);
#1124 = VERTEX_POINT('',#1125);
#1125 = CARTESIAN_POINT('',(1.675,-0.71,3.785));
#1126 = LINE('',#1127,#1128);
#1127 = CARTESIAN_POINT('',(1.675,0.3775,3.785));
#1128 = VECTOR('',#1129,1.);
#1129 = DIRECTION('',(0.,-1.,0.));
#1130 = ORIENTED_EDGE('',*,*,#1131,.T.);
#1131 = EDGE_CURVE('',#1124,#914,#1132,.T.);
#1132 = LINE('',#1133,#1134);
#1133 = CARTESIAN_POINT('',(0.8375,-0.71,3.785));
#1134 = VECTOR('',#1135,1.);
#1135 = DIRECTION('',(-1.,0.,0.));
#1136 = ORIENTED_EDGE('',*,*,#1137,.T.);
#1137 = EDGE_CURVE('',#914,#1107,#1138,.T.);
#1138 = LINE('',#1139,#1140);
#1139 = CARTESIAN_POINT('',(0.8375,-0.71,3.785));
#1140 = VECTOR('',#1141,1.);
#1141 = DIRECTION('',(-1.,0.,0.));
#1142 = PLANE('',#1143);
#1143 = AXIS2_PLACEMENT_3D('',#1144,#1145,#1146);
#1144 = CARTESIAN_POINT('',(0.,1.5E-02,3.785));
#1145 = DIRECTION('',(0.,0.,1.));
#1146 = DIRECTION('',(-1.,0.,0.));
#1147 = ADVANCED_FACE('',(#1148),#1154,.T.);
#1148 = FACE_BOUND('',#1149,.T.);
#1149 = EDGE_LOOP('',(#1150,#1151,#1152,#1153));
#1150 = ORIENTED_EDGE('',*,*,#505,.F.);
#1151 = ORIENTED_EDGE('',*,*,#746,.T.);
#1152 = ORIENTED_EDGE('',*,*,#665,.T.);
#1153 = ORIENTED_EDGE('',*,*,#559,.F.);
#1154 = PLANE('',#1155);
#1155 = AXIS2_PLACEMENT_3D('',#1156,#1157,#1158);
#1156 = CARTESIAN_POINT('',(0.125,0.14,1.5E-02));
#1157 = DIRECTION('',(1.,0.,0.));
#1158 = DIRECTION('',(0.,-1.,0.));
#1159 = ADVANCED_FACE('',(#1160),#1171,.T.);
#1160 = FACE_BOUND('',#1161,.T.);
#1161 = EDGE_LOOP('',(#1162,#1163,#1164,#1165));
#1162 = ORIENTED_EDGE('',*,*,#851,.F.);
#1163 = ORIENTED_EDGE('',*,*,#921,.F.);
#1164 = ORIENTED_EDGE('',*,*,#1131,.F.);
#1165 = ORIENTED_EDGE('',*,*,#1166,.T.);
#1166 = EDGE_CURVE('',#1124,#811,#1167,.T.);
#1167 = LINE('',#1168,#1169);
#1168 = CARTESIAN_POINT('',(1.675,-0.71,3.535));
#1169 = VECTOR('',#1170,1.);
#1170 = DIRECTION('',(0.,0.,1.));
#1171 = PLANE('',#1172);
#1172 = AXIS2_PLACEMENT_3D('',#1173,#1174,#1175);
#1173 = CARTESIAN_POINT('',(0.225,-0.71,3.535));
#1174 = DIRECTION('',(0.,-1.,0.));
#1175 = DIRECTION('',(1.,0.,0.));
#1176 = ADVANCED_FACE('',(#1177),#1183,.T.);
#1177 = FACE_BOUND('',#1178,.T.);
#1178 = EDGE_LOOP('',(#1179,#1180,#1181,#1182));
#1179 = ORIENTED_EDGE('',*,*,#819,.F.);
#1180 = ORIENTED_EDGE('',*,*,#1166,.F.);
#1181 = ORIENTED_EDGE('',*,*,#1123,.F.);
#1182 = ORIENTED_EDGE('',*,*,#936,.T.);
#1183 = PLANE('',#1184);
#1184 = AXIS2_PLACEMENT_3D('',#1185,#1186,#1187);
#1185 = CARTESIAN_POINT('',(1.675,-0.71,3.535));
#1186 = DIRECTION('',(1.,0.,0.));
#1187 = DIRECTION('',(0.,1.,0.));
#1188 = ADVANCED_FACE('',(#1189),#1214,.F.);
#1189 = FACE_BOUND('',#1190,.T.);
#1190 = EDGE_LOOP('',(#1191,#1192,#1200,#1208));
#1191 = ORIENTED_EDGE('',*,*,#1106,.F.);
#1192 = ORIENTED_EDGE('',*,*,#1193,.T.);
#1193 = EDGE_CURVE('',#1107,#1194,#1196,.T.);
#1194 = VERTEX_POINT('',#1195);
#1195 = CARTESIAN_POINT('',(-1.675,-0.71,3.535));
#1196 = LINE('',#1197,#1198);
#1197 = CARTESIAN_POINT('',(-1.675,-0.71,3.785));
#1198 = VECTOR('',#1199,1.);
#1199 = DIRECTION('',(0.,0.,-1.));
#1200 = ORIENTED_EDGE('',*,*,#1201,.T.);
#1201 = EDGE_CURVE('',#1194,#1202,#1204,.T.);
#1202 = VERTEX_POINT('',#1203);
#1203 = CARTESIAN_POINT('',(-1.675,0.74,3.535));
#1204 = LINE('',#1205,#1206);
#1205 = CARTESIAN_POINT('',(-1.675,0.74,3.535));
#1206 = VECTOR('',#1207,1.);
#1207 = DIRECTION('',(0.,1.,0.));
#1208 = ORIENTED_EDGE('',*,*,#1209,.F.);
#1209 = EDGE_CURVE('',#1109,#1202,#1210,.T.);
#1210 = LINE('',#1211,#1212);
#1211 = CARTESIAN_POINT('',(-1.675,0.74,3.785));
#1212 = VECTOR('',#1213,1.);
#1213 = DIRECTION('',(0.,0.,-1.));
#1214 = PLANE('',#1215);
#1215 = AXIS2_PLACEMENT_3D('',#1216,#1217,#1218);
#1216 = CARTESIAN_POINT('',(-1.675,-0.71,3.785));
#1217 = DIRECTION('',(-1.,0.,0.));
#1218 = DIRECTION('',(0.,1.,0.));
#1219 = ADVANCED_FACE('',(#1220),#1231,.F.);
#1220 = FACE_BOUND('',#1221,.T.);
#1221 = EDGE_LOOP('',(#1222,#1223,#1229,#1230));
#1222 = ORIENTED_EDGE('',*,*,#913,.T.);
#1223 = ORIENTED_EDGE('',*,*,#1224,.T.);
#1224 = EDGE_CURVE('',#906,#1194,#1225,.T.);
#1225 = LINE('',#1226,#1227);
#1226 = CARTESIAN_POINT('',(-1.675,-0.71,3.535));
#1227 = VECTOR('',#1228,1.);
#1228 = DIRECTION('',(-1.,0.,0.));
#1229 = ORIENTED_EDGE('',*,*,#1193,.F.);
#1230 = ORIENTED_EDGE('',*,*,#1137,.F.);
#1231 = PLANE('',#1232);
#1232 = AXIS2_PLACEMENT_3D('',#1233,#1234,#1235);
#1233 = CARTESIAN_POINT('',(1.675,-0.71,3.785));
#1234 = DIRECTION('',(0.,-1.,0.));
#1235 = DIRECTION('',(-1.,0.,0.));
#1236 = ADVANCED_FACE('',(#1237),#1248,.F.);
#1237 = FACE_BOUND('',#1238,.T.);
#1238 = EDGE_LOOP('',(#1239,#1240,#1241,#1242));
#1239 = ORIENTED_EDGE('',*,*,#897,.T.);
#1240 = ORIENTED_EDGE('',*,*,#1116,.F.);
#1241 = ORIENTED_EDGE('',*,*,#1209,.T.);
#1242 = ORIENTED_EDGE('',*,*,#1243,.T.);
#1243 = EDGE_CURVE('',#1202,#898,#1244,.T.);
#1244 = LINE('',#1245,#1246);
#1245 = CARTESIAN_POINT('',(1.675,0.74,3.535));
#1246 = VECTOR('',#1247,1.);
#1247 = DIRECTION('',(1.,0.,0.));
#1248 = PLANE('',#1249);
#1249 = AXIS2_PLACEMENT_3D('',#1250,#1251,#1252);
#1250 = CARTESIAN_POINT('',(-1.675,0.74,3.785));
#1251 = DIRECTION('',(0.,1.,0.));
#1252 = DIRECTION('',(1.,0.,0.));
#1253 = ADVANCED_FACE('',(#1254),#1260,.F.);
#1254 = FACE_BOUND('',#1255,.T.);
#1255 = EDGE_LOOP('',(#1256,#1257,#1258,#1259));
#1256 = ORIENTED_EDGE('',*,*,#905,.T.);
#1257 = ORIENTED_EDGE('',*,*,#1243,.F.);
#1258 = ORIENTED_EDGE('',*,*,#1201,.F.);
#1259 = ORIENTED_EDGE('',*,*,#1224,.F.);
#1260 = PLANE('',#1261);
#1261 = AXIS2_PLACEMENT_3D('',#1262,#1263,#1264);
#1262 = CARTESIAN_POINT('',(0.,1.5E-02,3.535));
#1263 = DIRECTION('',(0.,0.,-1.));
#1264 = DIRECTION('',(1.,0.,0.));
#1265 = ADVANCED_FACE('',(#1266),#1272,.T.);
#1266 = FACE_BOUND('',#1267,.T.);
#1267 = EDGE_LOOP('',(#1268,#1269,#1270,#1271));
#1268 = ORIENTED_EDGE('',*,*,#620,.T.);
#1269 = ORIENTED_EDGE('',*,*,#1086,.T.);
#1270 = ORIENTED_EDGE('',*,*,#1026,.F.);
#1271 = ORIENTED_EDGE('',*,*,#720,.F.);
#1272 = PLANE('',#1273);
#1273 = AXIS2_PLACEMENT_3D('',#1274,#1275,#1276);
#1274 = CARTESIAN_POINT('',(4.295,-1.87,1.5E-02));
#1275 = DIRECTION('',(1.,0.,0.));
#1276 = DIRECTION('',(0.,1.,0.));
#1277 = ADVANCED_FACE('',(#1278),#1289,.T.);
#1278 = FACE_BOUND('',#1279,.T.);
#1279 = EDGE_LOOP('',(#1280,#1281,#1287,#1288));
#1280 = ORIENTED_EDGE('',*,*,#101,.F.);
#1281 = ORIENTED_EDGE('',*,*,#1282,.F.);
#1282 = EDGE_CURVE('',#649,#24,#1283,.T.);
#1283 = LINE('',#1284,#1285);
#1284 = CARTESIAN_POINT('',(-2.375,-0.11,1.5E-02));
#1285 = VECTOR('',#1286,1.);
#1286 = DIRECTION('',(0.,0.,-1.));
#1287 = ORIENTED_EDGE('',*,*,#648,.T.);
#1288 = ORIENTED_EDGE('',*,*,#177,.T.);
#1289 = PLANE('',#1290);
#1290 = AXIS2_PLACEMENT_3D('',#1291,#1292,#1293);
#1291 = CARTESIAN_POINT('',(-2.375,-0.11,1.5E-02));
#1292 = DIRECTION('',(0.,-1.,0.));
#1293 = DIRECTION('',(-1.,0.,0.));
#1294 = ADVANCED_FACE('',(#1295),#1301,.T.);
#1295 = FACE_BOUND('',#1296,.T.);
#1296 = EDGE_LOOP('',(#1297,#1298,#1299,#1300));
#1297 = ORIENTED_EDGE('',*,*,#21,.F.);
#1298 = ORIENTED_EDGE('',*,*,#162,.F.);
#1299 = ORIENTED_EDGE('',*,*,#656,.T.);
#1300 = ORIENTED_EDGE('',*,*,#1282,.T.);
#1301 = PLANE('',#1302);
#1302 = AXIS2_PLACEMENT_3D('',#1303,#1304,#1305);
#1303 = CARTESIAN_POINT('',(-2.375,0.14,1.5E-02));
#1304 = DIRECTION('',(1.,0.,0.));
#1305 = DIRECTION('',(0.,-1.,0.));
#1306 = ADVANCED_FACE('',(#1307),#1318,.T.);
#1307 = FACE_BOUND('',#1308,.T.);
#1308 = EDGE_LOOP('',(#1309,#1310,#1316,#1317));
#1309 = ORIENTED_EDGE('',*,*,#292,.F.);
#1310 = ORIENTED_EDGE('',*,*,#1311,.F.);
#1311 = EDGE_CURVE('',#631,#215,#1312,.T.);
#1312 = LINE('',#1313,#1314);
#1313 = CARTESIAN_POINT('',(2.625,-0.11,1.5E-02));
#1314 = VECTOR('',#1315,1.);
#1315 = DIRECTION('',(0.,0.,-1.));
#1316 = ORIENTED_EDGE('',*,*,#630,.T.);
#1317 = ORIENTED_EDGE('',*,*,#368,.T.);
#1318 = PLANE('',#1319);
#1319 = AXIS2_PLACEMENT_3D('',#1320,#1321,#1322);
#1320 = CARTESIAN_POINT('',(2.625,-0.11,1.5E-02));
#1321 = DIRECTION('',(0.,-1.,0.));
#1322 = DIRECTION('',(-1.,0.,0.));
#1323 = ADVANCED_FACE('',(#1324),#1330,.T.);
#1324 = FACE_BOUND('',#1325,.T.);
#1325 = EDGE_LOOP('',(#1326,#1327,#1328,#1329));
#1326 = ORIENTED_EDGE('',*,*,#212,.F.);
#1327 = ORIENTED_EDGE('',*,*,#353,.F.);
#1328 = ORIENTED_EDGE('',*,*,#638,.T.);
#1329 = ORIENTED_EDGE('',*,*,#1311,.T.);
#1330 = PLANE('',#1331);
#1331 = AXIS2_PLACEMENT_3D('',#1332,#1333,#1334);
#1332 = CARTESIAN_POINT('',(2.625,0.14,1.5E-02));
#1333 = DIRECTION('',(1.,0.,0.));
#1334 = DIRECTION('',(0.,-1.,0.));
#1335 = MANIFOLD_SOLID_BREP('',#1336);
#1336 = CLOSED_SHELL('',(#1337,#1377,#1408,#1439,#1461,#1501,#1532,#1563
    ,#1585,#1625,#1656,#1687,#1709,#1749,#1780,#1811,#1833,#1863));
#1337 = ADVANCED_FACE('',(#1338),#1372,.T.);
#1338 = FACE_BOUND('',#1339,.T.);
#1339 = EDGE_LOOP('',(#1340,#1350,#1358,#1366));
#1340 = ORIENTED_EDGE('',*,*,#1341,.F.);
#1341 = EDGE_CURVE('',#1342,#1344,#1346,.T.);
#1342 = VERTEX_POINT('',#1343);
#1343 = CARTESIAN_POINT('',(-0.125,-0.11,0.715));
#1344 = VERTEX_POINT('',#1345);
#1345 = CARTESIAN_POINT('',(-0.125,0.14,0.715));
#1346 = LINE('',#1347,#1348);
#1347 = CARTESIAN_POINT('',(-0.125,-4.75E-02,0.715));
#1348 = VECTOR('',#1349,1.);
#1349 = DIRECTION('',(0.,1.,0.));
#1350 = ORIENTED_EDGE('',*,*,#1351,.T.);
#1351 = EDGE_CURVE('',#1342,#1352,#1354,.T.);
#1352 = VERTEX_POINT('',#1353);
#1353 = CARTESIAN_POINT('',(-0.125,-0.11,1.5E-02));
#1354 = LINE('',#1355,#1356);
#1355 = CARTESIAN_POINT('',(-0.125,-0.11,0.715));
#1356 = VECTOR('',#1357,1.);
#1357 = DIRECTION('',(0.,0.,-1.));
#1358 = ORIENTED_EDGE('',*,*,#1359,.F.);
#1359 = EDGE_CURVE('',#1360,#1352,#1362,.T.);
#1360 = VERTEX_POINT('',#1361);
#1361 = CARTESIAN_POINT('',(-0.125,0.14,1.5E-02));
#1362 = LINE('',#1363,#1364);
#1363 = CARTESIAN_POINT('',(-0.125,-4.75E-02,1.5E-02));
#1364 = VECTOR('',#1365,1.);
#1365 = DIRECTION('',(0.,-1.,0.));
#1366 = ORIENTED_EDGE('',*,*,#1367,.F.);
#1367 = EDGE_CURVE('',#1344,#1360,#1368,.T.);
#1368 = LINE('',#1369,#1370);
#1369 = CARTESIAN_POINT('',(-0.125,0.14,0.715));
#1370 = VECTOR('',#1371,1.);
#1371 = DIRECTION('',(0.,0.,-1.));
#1372 = PLANE('',#1373);
#1373 = AXIS2_PLACEMENT_3D('',#1374,#1375,#1376);
#1374 = CARTESIAN_POINT('',(-0.125,0.14,0.715));
#1375 = DIRECTION('',(1.,0.,0.));
#1376 = DIRECTION('',(0.,-1.,0.));
#1377 = ADVANCED_FACE('',(#1378),#1403,.T.);
#1378 = FACE_BOUND('',#1379,.T.);
#1379 = EDGE_LOOP('',(#1380,#1388,#1389,#1397));
#1380 = ORIENTED_EDGE('',*,*,#1381,.F.);
#1381 = EDGE_CURVE('',#1344,#1382,#1384,.T.);
#1382 = VERTEX_POINT('',#1383);
#1383 = CARTESIAN_POINT('',(0.125,0.14,0.715));
#1384 = LINE('',#1385,#1386);
#1385 = CARTESIAN_POINT('',(-6.25E-02,0.14,0.715));
#1386 = VECTOR('',#1387,1.);
#1387 = DIRECTION('',(1.,-6.938893903907E-17,0.));
#1388 = ORIENTED_EDGE('',*,*,#1367,.T.);
#1389 = ORIENTED_EDGE('',*,*,#1390,.F.);
#1390 = EDGE_CURVE('',#1391,#1360,#1393,.T.);
#1391 = VERTEX_POINT('',#1392);
#1392 = CARTESIAN_POINT('',(0.125,0.14,1.5E-02));
#1393 = LINE('',#1394,#1395);
#1394 = CARTESIAN_POINT('',(-6.25E-02,0.14,1.5E-02));
#1395 = VECTOR('',#1396,1.);
#1396 = DIRECTION('',(-1.,6.938893903907E-17,0.));
#1397 = ORIENTED_EDGE('',*,*,#1398,.F.);
#1398 = EDGE_CURVE('',#1382,#1391,#1399,.T.);
#1399 = LINE('',#1400,#1401);
#1400 = CARTESIAN_POINT('',(0.125,0.14,0.715));
#1401 = VECTOR('',#1402,1.);
#1402 = DIRECTION('',(0.,0.,-1.));
#1403 = PLANE('',#1404);
#1404 = AXIS2_PLACEMENT_3D('',#1405,#1406,#1407);
#1405 = CARTESIAN_POINT('',(0.125,0.14,0.715));
#1406 = DIRECTION('',(-6.938893903907E-17,-1.,0.));
#1407 = DIRECTION('',(-1.,6.938893903907E-17,0.));
#1408 = ADVANCED_FACE('',(#1409),#1434,.T.);
#1409 = FACE_BOUND('',#1410,.T.);
#1410 = EDGE_LOOP('',(#1411,#1419,#1420,#1428));
#1411 = ORIENTED_EDGE('',*,*,#1412,.F.);
#1412 = EDGE_CURVE('',#1382,#1413,#1415,.T.);
#1413 = VERTEX_POINT('',#1414);
#1414 = CARTESIAN_POINT('',(0.125,-0.11,0.715));
#1415 = LINE('',#1416,#1417);
#1416 = CARTESIAN_POINT('',(0.125,7.75E-02,0.715));
#1417 = VECTOR('',#1418,1.);
#1418 = DIRECTION('',(0.,-1.,0.));
#1419 = ORIENTED_EDGE('',*,*,#1398,.T.);
#1420 = ORIENTED_EDGE('',*,*,#1421,.F.);
#1421 = EDGE_CURVE('',#1422,#1391,#1424,.T.);
#1422 = VERTEX_POINT('',#1423);
#1423 = CARTESIAN_POINT('',(0.125,-0.11,1.5E-02));
#1424 = LINE('',#1425,#1426);
#1425 = CARTESIAN_POINT('',(0.125,7.75E-02,1.5E-02));
#1426 = VECTOR('',#1427,1.);
#1427 = DIRECTION('',(0.,1.,0.));
#1428 = ORIENTED_EDGE('',*,*,#1429,.F.);
#1429 = EDGE_CURVE('',#1413,#1422,#1430,.T.);
#1430 = LINE('',#1431,#1432);
#1431 = CARTESIAN_POINT('',(0.125,-0.11,0.715));
#1432 = VECTOR('',#1433,1.);
#1433 = DIRECTION('',(0.,0.,-1.));
#1434 = PLANE('',#1435);
#1435 = AXIS2_PLACEMENT_3D('',#1436,#1437,#1438);
#1436 = CARTESIAN_POINT('',(0.125,-0.11,0.715));
#1437 = DIRECTION('',(-1.,0.,0.));
#1438 = DIRECTION('',(0.,1.,0.));
#1439 = ADVANCED_FACE('',(#1440),#1456,.T.);
#1440 = FACE_BOUND('',#1441,.T.);
#1441 = EDGE_LOOP('',(#1442,#1448,#1449,#1455));
#1442 = ORIENTED_EDGE('',*,*,#1443,.F.);
#1443 = EDGE_CURVE('',#1413,#1342,#1444,.T.);
#1444 = LINE('',#1445,#1446);
#1445 = CARTESIAN_POINT('',(6.25E-02,-0.11,0.715));
#1446 = VECTOR('',#1447,1.);
#1447 = DIRECTION('',(-1.,0.,0.));
#1448 = ORIENTED_EDGE('',*,*,#1429,.T.);
#1449 = ORIENTED_EDGE('',*,*,#1450,.F.);
#1450 = EDGE_CURVE('',#1352,#1422,#1451,.T.);
#1451 = LINE('',#1452,#1453);
#1452 = CARTESIAN_POINT('',(6.25E-02,-0.11,1.5E-02));
#1453 = VECTOR('',#1454,1.);
#1454 = DIRECTION('',(1.,0.,0.));
#1455 = ORIENTED_EDGE('',*,*,#1351,.F.);
#1456 = PLANE('',#1457);
#1457 = AXIS2_PLACEMENT_3D('',#1458,#1459,#1460);
#1458 = CARTESIAN_POINT('',(-0.125,-0.11,0.715));
#1459 = DIRECTION('',(0.,1.,0.));
#1460 = DIRECTION('',(1.,0.,0.));
#1461 = ADVANCED_FACE('',(#1462),#1496,.T.);
#1462 = FACE_BOUND('',#1463,.T.);
#1463 = EDGE_LOOP('',(#1464,#1474,#1482,#1490));
#1464 = ORIENTED_EDGE('',*,*,#1465,.F.);
#1465 = EDGE_CURVE('',#1466,#1468,#1470,.T.);
#1466 = VERTEX_POINT('',#1467);
#1467 = CARTESIAN_POINT('',(-2.375,0.14,0.715));
#1468 = VERTEX_POINT('',#1469);
#1469 = CARTESIAN_POINT('',(-2.375,-0.11,0.715));
#1470 = LINE('',#1471,#1472);
#1471 = CARTESIAN_POINT('',(-2.375,7.75E-02,0.715));
#1472 = VECTOR('',#1473,1.);
#1473 = DIRECTION('',(0.,-1.,0.));
#1474 = ORIENTED_EDGE('',*,*,#1475,.T.);
#1475 = EDGE_CURVE('',#1466,#1476,#1478,.T.);
#1476 = VERTEX_POINT('',#1477);
#1477 = CARTESIAN_POINT('',(-2.375,0.14,1.5E-02));
#1478 = LINE('',#1479,#1480);
#1479 = CARTESIAN_POINT('',(-2.375,0.14,0.715));
#1480 = VECTOR('',#1481,1.);
#1481 = DIRECTION('',(0.,0.,-1.));
#1482 = ORIENTED_EDGE('',*,*,#1483,.F.);
#1483 = EDGE_CURVE('',#1484,#1476,#1486,.T.);
#1484 = VERTEX_POINT('',#1485);
#1485 = CARTESIAN_POINT('',(-2.375,-0.11,1.5E-02));
#1486 = LINE('',#1487,#1488);
#1487 = CARTESIAN_POINT('',(-2.375,7.75E-02,1.5E-02));
#1488 = VECTOR('',#1489,1.);
#1489 = DIRECTION('',(0.,1.,0.));
#1490 = ORIENTED_EDGE('',*,*,#1491,.F.);
#1491 = EDGE_CURVE('',#1468,#1484,#1492,.T.);
#1492 = LINE('',#1493,#1494);
#1493 = CARTESIAN_POINT('',(-2.375,-0.11,0.715));
#1494 = VECTOR('',#1495,1.);
#1495 = DIRECTION('',(0.,0.,-1.));
#1496 = PLANE('',#1497);
#1497 = AXIS2_PLACEMENT_3D('',#1498,#1499,#1500);
#1498 = CARTESIAN_POINT('',(-2.375,-0.11,0.715));
#1499 = DIRECTION('',(-1.,0.,0.));
#1500 = DIRECTION('',(0.,1.,0.));
#1501 = ADVANCED_FACE('',(#1502),#1527,.T.);
#1502 = FACE_BOUND('',#1503,.T.);
#1503 = EDGE_LOOP('',(#1504,#1512,#1513,#1521));
#1504 = ORIENTED_EDGE('',*,*,#1505,.F.);
#1505 = EDGE_CURVE('',#1468,#1506,#1508,.T.);
#1506 = VERTEX_POINT('',#1507);
#1507 = CARTESIAN_POINT('',(-2.625,-0.11,0.715));
#1508 = LINE('',#1509,#1510);
#1509 = CARTESIAN_POINT('',(-2.4375,-0.11,0.715));
#1510 = VECTOR('',#1511,1.);
#1511 = DIRECTION('',(-1.,0.,0.));
#1512 = ORIENTED_EDGE('',*,*,#1491,.T.);
#1513 = ORIENTED_EDGE('',*,*,#1514,.F.);
#1514 = EDGE_CURVE('',#1515,#1484,#1517,.T.);
#1515 = VERTEX_POINT('',#1516);
#1516 = CARTESIAN_POINT('',(-2.625,-0.11,1.5E-02));
#1517 = LINE('',#1518,#1519);
#1518 = CARTESIAN_POINT('',(-2.4375,-0.11,1.5E-02));
#1519 = VECTOR('',#1520,1.);
#1520 = DIRECTION('',(1.,0.,0.));
#1521 = ORIENTED_EDGE('',*,*,#1522,.F.);
#1522 = EDGE_CURVE('',#1506,#1515,#1523,.T.);
#1523 = LINE('',#1524,#1525);
#1524 = CARTESIAN_POINT('',(-2.625,-0.11,0.715));
#1525 = VECTOR('',#1526,1.);
#1526 = DIRECTION('',(0.,0.,-1.));
#1527 = PLANE('',#1528);
#1528 = AXIS2_PLACEMENT_3D('',#1529,#1530,#1531);
#1529 = CARTESIAN_POINT('',(-2.625,-0.11,0.715));
#1530 = DIRECTION('',(0.,1.,0.));
#1531 = DIRECTION('',(1.,0.,0.));
#1532 = ADVANCED_FACE('',(#1533),#1558,.T.);
#1533 = FACE_BOUND('',#1534,.T.);
#1534 = EDGE_LOOP('',(#1535,#1543,#1544,#1552));
#1535 = ORIENTED_EDGE('',*,*,#1536,.F.);
#1536 = EDGE_CURVE('',#1506,#1537,#1539,.T.);
#1537 = VERTEX_POINT('',#1538);
#1538 = CARTESIAN_POINT('',(-2.625,0.14,0.715));
#1539 = LINE('',#1540,#1541);
#1540 = CARTESIAN_POINT('',(-2.625,-4.75E-02,0.715));
#1541 = VECTOR('',#1542,1.);
#1542 = DIRECTION('',(0.,1.,0.));
#1543 = ORIENTED_EDGE('',*,*,#1522,.T.);
#1544 = ORIENTED_EDGE('',*,*,#1545,.F.);
#1545 = EDGE_CURVE('',#1546,#1515,#1548,.T.);
#1546 = VERTEX_POINT('',#1547);
#1547 = CARTESIAN_POINT('',(-2.625,0.14,1.5E-02));
#1548 = LINE('',#1549,#1550);
#1549 = CARTESIAN_POINT('',(-2.625,-4.75E-02,1.5E-02));
#1550 = VECTOR('',#1551,1.);
#1551 = DIRECTION('',(0.,-1.,0.));
#1552 = ORIENTED_EDGE('',*,*,#1553,.F.);
#1553 = EDGE_CURVE('',#1537,#1546,#1554,.T.);
#1554 = LINE('',#1555,#1556);
#1555 = CARTESIAN_POINT('',(-2.625,0.14,0.715));
#1556 = VECTOR('',#1557,1.);
#1557 = DIRECTION('',(0.,0.,-1.));
#1558 = PLANE('',#1559);
#1559 = AXIS2_PLACEMENT_3D('',#1560,#1561,#1562);
#1560 = CARTESIAN_POINT('',(-2.625,0.14,0.715));
#1561 = DIRECTION('',(1.,0.,0.));
#1562 = DIRECTION('',(0.,-1.,0.));
#1563 = ADVANCED_FACE('',(#1564),#1580,.T.);
#1564 = FACE_BOUND('',#1565,.T.);
#1565 = EDGE_LOOP('',(#1566,#1572,#1573,#1579));
#1566 = ORIENTED_EDGE('',*,*,#1567,.F.);
#1567 = EDGE_CURVE('',#1537,#1466,#1568,.T.);
#1568 = LINE('',#1569,#1570);
#1569 = CARTESIAN_POINT('',(-2.5625,0.14,0.715));
#1570 = VECTOR('',#1571,1.);
#1571 = DIRECTION('',(1.,-6.938893903907E-17,0.));
#1572 = ORIENTED_EDGE('',*,*,#1553,.T.);
#1573 = ORIENTED_EDGE('',*,*,#1574,.F.);
#1574 = EDGE_CURVE('',#1476,#1546,#1575,.T.);
#1575 = LINE('',#1576,#1577);
#1576 = CARTESIAN_POINT('',(-2.5625,0.14,1.5E-02));
#1577 = VECTOR('',#1578,1.);
#1578 = DIRECTION('',(-1.,6.938893903907E-17,0.));
#1579 = ORIENTED_EDGE('',*,*,#1475,.F.);
#1580 = PLANE('',#1581);
#1581 = AXIS2_PLACEMENT_3D('',#1582,#1583,#1584);
#1582 = CARTESIAN_POINT('',(-2.375,0.14,0.715));
#1583 = DIRECTION('',(-6.938893903907E-17,-1.,0.));
#1584 = DIRECTION('',(-1.,6.938893903907E-17,0.));
#1585 = ADVANCED_FACE('',(#1586),#1620,.T.);
#1586 = FACE_BOUND('',#1587,.T.);
#1587 = EDGE_LOOP('',(#1588,#1598,#1606,#1614));
#1588 = ORIENTED_EDGE('',*,*,#1589,.F.);
#1589 = EDGE_CURVE('',#1590,#1592,#1594,.T.);
#1590 = VERTEX_POINT('',#1591);
#1591 = CARTESIAN_POINT('',(2.625,0.14,0.715));
#1592 = VERTEX_POINT('',#1593);
#1593 = CARTESIAN_POINT('',(2.625,-0.11,0.715));
#1594 = LINE('',#1595,#1596);
#1595 = CARTESIAN_POINT('',(2.625,7.75E-02,0.715));
#1596 = VECTOR('',#1597,1.);
#1597 = DIRECTION('',(0.,-1.,0.));
#1598 = ORIENTED_EDGE('',*,*,#1599,.T.);
#1599 = EDGE_CURVE('',#1590,#1600,#1602,.T.);
#1600 = VERTEX_POINT('',#1601);
#1601 = CARTESIAN_POINT('',(2.625,0.14,1.5E-02));
#1602 = LINE('',#1603,#1604);
#1603 = CARTESIAN_POINT('',(2.625,0.14,0.715));
#1604 = VECTOR('',#1605,1.);
#1605 = DIRECTION('',(0.,0.,-1.));
#1606 = ORIENTED_EDGE('',*,*,#1607,.F.);
#1607 = EDGE_CURVE('',#1608,#1600,#1610,.T.);
#1608 = VERTEX_POINT('',#1609);
#1609 = CARTESIAN_POINT('',(2.625,-0.11,1.5E-02));
#1610 = LINE('',#1611,#1612);
#1611 = CARTESIAN_POINT('',(2.625,7.75E-02,1.5E-02));
#1612 = VECTOR('',#1613,1.);
#1613 = DIRECTION('',(0.,1.,0.));
#1614 = ORIENTED_EDGE('',*,*,#1615,.F.);
#1615 = EDGE_CURVE('',#1592,#1608,#1616,.T.);
#1616 = LINE('',#1617,#1618);
#1617 = CARTESIAN_POINT('',(2.625,-0.11,0.715));
#1618 = VECTOR('',#1619,1.);
#1619 = DIRECTION('',(0.,0.,-1.));
#1620 = PLANE('',#1621);
#1621 = AXIS2_PLACEMENT_3D('',#1622,#1623,#1624);
#1622 = CARTESIAN_POINT('',(2.625,-0.11,0.715));
#1623 = DIRECTION('',(-1.,0.,0.));
#1624 = DIRECTION('',(0.,1.,0.));
#1625 = ADVANCED_FACE('',(#1626),#1651,.T.);
#1626 = FACE_BOUND('',#1627,.T.);
#1627 = EDGE_LOOP('',(#1628,#1636,#1637,#1645));
#1628 = ORIENTED_EDGE('',*,*,#1629,.F.);
#1629 = EDGE_CURVE('',#1592,#1630,#1632,.T.);
#1630 = VERTEX_POINT('',#1631);
#1631 = CARTESIAN_POINT('',(2.375,-0.11,0.715));
#1632 = LINE('',#1633,#1634);
#1633 = CARTESIAN_POINT('',(2.5625,-0.11,0.715));
#1634 = VECTOR('',#1635,1.);
#1635 = DIRECTION('',(-1.,0.,0.));
#1636 = ORIENTED_EDGE('',*,*,#1615,.T.);
#1637 = ORIENTED_EDGE('',*,*,#1638,.F.);
#1638 = EDGE_CURVE('',#1639,#1608,#1641,.T.);
#1639 = VERTEX_POINT('',#1640);
#1640 = CARTESIAN_POINT('',(2.375,-0.11,1.5E-02));
#1641 = LINE('',#1642,#1643);
#1642 = CARTESIAN_POINT('',(2.5625,-0.11,1.5E-02));
#1643 = VECTOR('',#1644,1.);
#1644 = DIRECTION('',(1.,0.,0.));
#1645 = ORIENTED_EDGE('',*,*,#1646,.F.);
#1646 = EDGE_CURVE('',#1630,#1639,#1647,.T.);
#1647 = LINE('',#1648,#1649);
#1648 = CARTESIAN_POINT('',(2.375,-0.11,0.715));
#1649 = VECTOR('',#1650,1.);
#1650 = DIRECTION('',(0.,0.,-1.));
#1651 = PLANE('',#1652);
#1652 = AXIS2_PLACEMENT_3D('',#1653,#1654,#1655);
#1653 = CARTESIAN_POINT('',(2.375,-0.11,0.715));
#1654 = DIRECTION('',(0.,1.,0.));
#1655 = DIRECTION('',(1.,0.,0.));
#1656 = ADVANCED_FACE('',(#1657),#1682,.T.);
#1657 = FACE_BOUND('',#1658,.T.);
#1658 = EDGE_LOOP('',(#1659,#1667,#1668,#1676));
#1659 = ORIENTED_EDGE('',*,*,#1660,.F.);
#1660 = EDGE_CURVE('',#1630,#1661,#1663,.T.);
#1661 = VERTEX_POINT('',#1662);
#1662 = CARTESIAN_POINT('',(2.375,0.14,0.715));
#1663 = LINE('',#1664,#1665);
#1664 = CARTESIAN_POINT('',(2.375,-4.75E-02,0.715));
#1665 = VECTOR('',#1666,1.);
#1666 = DIRECTION('',(0.,1.,0.));
#1667 = ORIENTED_EDGE('',*,*,#1646,.T.);
#1668 = ORIENTED_EDGE('',*,*,#1669,.F.);
#1669 = EDGE_CURVE('',#1670,#1639,#1672,.T.);
#1670 = VERTEX_POINT('',#1671);
#1671 = CARTESIAN_POINT('',(2.375,0.14,1.5E-02));
#1672 = LINE('',#1673,#1674);
#1673 = CARTESIAN_POINT('',(2.375,-4.75E-02,1.5E-02));
#1674 = VECTOR('',#1675,1.);
#1675 = DIRECTION('',(0.,-1.,0.));
#1676 = ORIENTED_EDGE('',*,*,#1677,.F.);
#1677 = EDGE_CURVE('',#1661,#1670,#1678,.T.);
#1678 = LINE('',#1679,#1680);
#1679 = CARTESIAN_POINT('',(2.375,0.14,0.715));
#1680 = VECTOR('',#1681,1.);
#1681 = DIRECTION('',(0.,0.,-1.));
#1682 = PLANE('',#1683);
#1683 = AXIS2_PLACEMENT_3D('',#1684,#1685,#1686);
#1684 = CARTESIAN_POINT('',(2.375,0.14,0.715));
#1685 = DIRECTION('',(1.,0.,0.));
#1686 = DIRECTION('',(0.,-1.,0.));
#1687 = ADVANCED_FACE('',(#1688),#1704,.T.);
#1688 = FACE_BOUND('',#1689,.T.);
#1689 = EDGE_LOOP('',(#1690,#1696,#1697,#1703));
#1690 = ORIENTED_EDGE('',*,*,#1691,.F.);
#1691 = EDGE_CURVE('',#1661,#1590,#1692,.T.);
#1692 = LINE('',#1693,#1694);
#1693 = CARTESIAN_POINT('',(2.4375,0.14,0.715));
#1694 = VECTOR('',#1695,1.);
#1695 = DIRECTION('',(1.,-6.938893903907E-17,0.));
#1696 = ORIENTED_EDGE('',*,*,#1677,.T.);
#1697 = ORIENTED_EDGE('',*,*,#1698,.F.);
#1698 = EDGE_CURVE('',#1600,#1670,#1699,.T.);
#1699 = LINE('',#1700,#1701);
#1700 = CARTESIAN_POINT('',(2.4375,0.14,1.5E-02));
#1701 = VECTOR('',#1702,1.);
#1702 = DIRECTION('',(-1.,6.938893903907E-17,0.));
#1703 = ORIENTED_EDGE('',*,*,#1599,.F.);
#1704 = PLANE('',#1705);
#1705 = AXIS2_PLACEMENT_3D('',#1706,#1707,#1708);
#1706 = CARTESIAN_POINT('',(2.625,0.14,0.715));
#1707 = DIRECTION('',(-6.938893903907E-17,-1.,0.));
#1708 = DIRECTION('',(-1.,6.938893903907E-17,0.));
#1709 = ADVANCED_FACE('',(#1710),#1744,.T.);
#1710 = FACE_BOUND('',#1711,.T.);
#1711 = EDGE_LOOP('',(#1712,#1722,#1730,#1738));
#1712 = ORIENTED_EDGE('',*,*,#1713,.F.);
#1713 = EDGE_CURVE('',#1714,#1716,#1718,.T.);
#1714 = VERTEX_POINT('',#1715);
#1715 = CARTESIAN_POINT('',(4.295,-1.87,0.715));
#1716 = VERTEX_POINT('',#1717);
#1717 = CARTESIAN_POINT('',(4.295,1.9,0.715));
#1718 = LINE('',#1719,#1720);
#1719 = CARTESIAN_POINT('',(4.295,-0.9275,0.715));
#1720 = VECTOR('',#1721,1.);
#1721 = DIRECTION('',(0.,1.,0.));
#1722 = ORIENTED_EDGE('',*,*,#1723,.T.);
#1723 = EDGE_CURVE('',#1714,#1724,#1726,.T.);
#1724 = VERTEX_POINT('',#1725);
#1725 = CARTESIAN_POINT('',(4.295,-1.87,1.5E-02));
#1726 = LINE('',#1727,#1728);
#1727 = CARTESIAN_POINT('',(4.295,-1.87,0.715));
#1728 = VECTOR('',#1729,1.);
#1729 = DIRECTION('',(0.,0.,-1.));
#1730 = ORIENTED_EDGE('',*,*,#1731,.F.);
#1731 = EDGE_CURVE('',#1732,#1724,#1734,.T.);
#1732 = VERTEX_POINT('',#1733);
#1733 = CARTESIAN_POINT('',(4.295,1.9,1.5E-02));
#1734 = LINE('',#1735,#1736);
#1735 = CARTESIAN_POINT('',(4.295,-0.9275,1.5E-02));
#1736 = VECTOR('',#1737,1.);
#1737 = DIRECTION('',(0.,-1.,0.));
#1738 = ORIENTED_EDGE('',*,*,#1739,.F.);
#1739 = EDGE_CURVE('',#1716,#1732,#1740,.T.);
#1740 = LINE('',#1741,#1742);
#1741 = CARTESIAN_POINT('',(4.295,1.9,0.715));
#1742 = VECTOR('',#1743,1.);
#1743 = DIRECTION('',(0.,0.,-1.));
#1744 = PLANE('',#1745);
#1745 = AXIS2_PLACEMENT_3D('',#1746,#1747,#1748);
#1746 = CARTESIAN_POINT('',(4.295,1.9,0.715));
#1747 = DIRECTION('',(1.,0.,0.));
#1748 = DIRECTION('',(0.,-1.,0.));
#1749 = ADVANCED_FACE('',(#1750),#1775,.T.);
#1750 = FACE_BOUND('',#1751,.T.);
#1751 = EDGE_LOOP('',(#1752,#1760,#1761,#1769));
#1752 = ORIENTED_EDGE('',*,*,#1753,.F.);
#1753 = EDGE_CURVE('',#1716,#1754,#1756,.T.);
#1754 = VERTEX_POINT('',#1755);
#1755 = CARTESIAN_POINT('',(-4.295,1.9,0.715));
#1756 = LINE('',#1757,#1758);
#1757 = CARTESIAN_POINT('',(2.1475,1.9,0.715));
#1758 = VECTOR('',#1759,1.);
#1759 = DIRECTION('',(-1.,0.,0.));
#1760 = ORIENTED_EDGE('',*,*,#1739,.T.);
#1761 = ORIENTED_EDGE('',*,*,#1762,.F.);
#1762 = EDGE_CURVE('',#1763,#1732,#1765,.T.);
#1763 = VERTEX_POINT('',#1764);
#1764 = CARTESIAN_POINT('',(-4.295,1.9,1.5E-02));
#1765 = LINE('',#1766,#1767);
#1766 = CARTESIAN_POINT('',(2.1475,1.9,1.5E-02));
#1767 = VECTOR('',#1768,1.);
#1768 = DIRECTION('',(1.,0.,0.));
#1769 = ORIENTED_EDGE('',*,*,#1770,.F.);
#1770 = EDGE_CURVE('',#1754,#1763,#1771,.T.);
#1771 = LINE('',#1772,#1773);
#1772 = CARTESIAN_POINT('',(-4.295,1.9,0.715));
#1773 = VECTOR('',#1774,1.);
#1774 = DIRECTION('',(0.,0.,-1.));
#1775 = PLANE('',#1776);
#1776 = AXIS2_PLACEMENT_3D('',#1777,#1778,#1779);
#1777 = CARTESIAN_POINT('',(-4.295,1.9,0.715));
#1778 = DIRECTION('',(0.,1.,0.));
#1779 = DIRECTION('',(1.,0.,0.));
#1780 = ADVANCED_FACE('',(#1781),#1806,.T.);
#1781 = FACE_BOUND('',#1782,.T.);
#1782 = EDGE_LOOP('',(#1783,#1791,#1792,#1800));
#1783 = ORIENTED_EDGE('',*,*,#1784,.F.);
#1784 = EDGE_CURVE('',#1754,#1785,#1787,.T.);
#1785 = VERTEX_POINT('',#1786);
#1786 = CARTESIAN_POINT('',(-4.295,-1.87,0.715));
#1787 = LINE('',#1788,#1789);
#1788 = CARTESIAN_POINT('',(-4.295,0.9575,0.715));
#1789 = VECTOR('',#1790,1.);
#1790 = DIRECTION('',(0.,-1.,0.));
#1791 = ORIENTED_EDGE('',*,*,#1770,.T.);
#1792 = ORIENTED_EDGE('',*,*,#1793,.F.);
#1793 = EDGE_CURVE('',#1794,#1763,#1796,.T.);
#1794 = VERTEX_POINT('',#1795);
#1795 = CARTESIAN_POINT('',(-4.295,-1.87,1.5E-02));
#1796 = LINE('',#1797,#1798);
#1797 = CARTESIAN_POINT('',(-4.295,0.9575,1.5E-02));
#1798 = VECTOR('',#1799,1.);
#1799 = DIRECTION('',(0.,1.,0.));
#1800 = ORIENTED_EDGE('',*,*,#1801,.F.);
#1801 = EDGE_CURVE('',#1785,#1794,#1802,.T.);
#1802 = LINE('',#1803,#1804);
#1803 = CARTESIAN_POINT('',(-4.295,-1.87,0.715));
#1804 = VECTOR('',#1805,1.);
#1805 = DIRECTION('',(0.,0.,-1.));
#1806 = PLANE('',#1807);
#1807 = AXIS2_PLACEMENT_3D('',#1808,#1809,#1810);
#1808 = CARTESIAN_POINT('',(-4.295,-1.87,0.715));
#1809 = DIRECTION('',(-1.,0.,0.));
#1810 = DIRECTION('',(0.,1.,0.));
#1811 = ADVANCED_FACE('',(#1812),#1828,.T.);
#1812 = FACE_BOUND('',#1813,.T.);
#1813 = EDGE_LOOP('',(#1814,#1820,#1821,#1827));
#1814 = ORIENTED_EDGE('',*,*,#1815,.F.);
#1815 = EDGE_CURVE('',#1785,#1714,#1816,.T.);
#1816 = LINE('',#1817,#1818);
#1817 = CARTESIAN_POINT('',(-2.1475,-1.87,0.715));
#1818 = VECTOR('',#1819,1.);
#1819 = DIRECTION('',(1.,0.,0.));
#1820 = ORIENTED_EDGE('',*,*,#1801,.T.);
#1821 = ORIENTED_EDGE('',*,*,#1822,.F.);
#1822 = EDGE_CURVE('',#1724,#1794,#1823,.T.);
#1823 = LINE('',#1824,#1825);
#1824 = CARTESIAN_POINT('',(-2.1475,-1.87,1.5E-02));
#1825 = VECTOR('',#1826,1.);
#1826 = DIRECTION('',(-1.,0.,0.));
#1827 = ORIENTED_EDGE('',*,*,#1723,.F.);
#1828 = PLANE('',#1829);
#1829 = AXIS2_PLACEMENT_3D('',#1830,#1831,#1832);
#1830 = CARTESIAN_POINT('',(4.295,-1.87,0.715));
#1831 = DIRECTION('',(0.,-1.,0.));
#1832 = DIRECTION('',(-1.,0.,0.));
#1833 = ADVANCED_FACE('',(#1834,#1840,#1846,#1852),#1858,.T.);
#1834 = FACE_BOUND('',#1835,.T.);
#1835 = EDGE_LOOP('',(#1836,#1837,#1838,#1839));
#1836 = ORIENTED_EDGE('',*,*,#1822,.T.);
#1837 = ORIENTED_EDGE('',*,*,#1793,.T.);
#1838 = ORIENTED_EDGE('',*,*,#1762,.T.);
#1839 = ORIENTED_EDGE('',*,*,#1731,.T.);
#1840 = FACE_BOUND('',#1841,.T.);
#1841 = EDGE_LOOP('',(#1842,#1843,#1844,#1845));
#1842 = ORIENTED_EDGE('',*,*,#1698,.T.);
#1843 = ORIENTED_EDGE('',*,*,#1669,.T.);
#1844 = ORIENTED_EDGE('',*,*,#1638,.T.);
#1845 = ORIENTED_EDGE('',*,*,#1607,.T.);
#1846 = FACE_BOUND('',#1847,.T.);
#1847 = EDGE_LOOP('',(#1848,#1849,#1850,#1851));
#1848 = ORIENTED_EDGE('',*,*,#1574,.T.);
#1849 = ORIENTED_EDGE('',*,*,#1545,.T.);
#1850 = ORIENTED_EDGE('',*,*,#1514,.T.);
#1851 = ORIENTED_EDGE('',*,*,#1483,.T.);
#1852 = FACE_BOUND('',#1853,.T.);
#1853 = EDGE_LOOP('',(#1854,#1855,#1856,#1857));
#1854 = ORIENTED_EDGE('',*,*,#1450,.T.);
#1855 = ORIENTED_EDGE('',*,*,#1421,.T.);
#1856 = ORIENTED_EDGE('',*,*,#1390,.T.);
#1857 = ORIENTED_EDGE('',*,*,#1359,.T.);
#1858 = PLANE('',#1859);
#1859 = AXIS2_PLACEMENT_3D('',#1860,#1861,#1862);
#1860 = CARTESIAN_POINT('',(0.,1.5E-02,1.5E-02));
#1861 = DIRECTION('',(0.,0.,-1.));
#1862 = DIRECTION('',(-1.,0.,0.));
#1863 = ADVANCED_FACE('',(#1864,#1870,#1876,#1882),#1888,.T.);
#1864 = FACE_BOUND('',#1865,.T.);
#1865 = EDGE_LOOP('',(#1866,#1867,#1868,#1869));
#1866 = ORIENTED_EDGE('',*,*,#1815,.T.);
#1867 = ORIENTED_EDGE('',*,*,#1713,.T.);
#1868 = ORIENTED_EDGE('',*,*,#1753,.T.);
#1869 = ORIENTED_EDGE('',*,*,#1784,.T.);
#1870 = FACE_BOUND('',#1871,.T.);
#1871 = EDGE_LOOP('',(#1872,#1873,#1874,#1875));
#1872 = ORIENTED_EDGE('',*,*,#1691,.T.);
#1873 = ORIENTED_EDGE('',*,*,#1589,.T.);
#1874 = ORIENTED_EDGE('',*,*,#1629,.T.);
#1875 = ORIENTED_EDGE('',*,*,#1660,.T.);
#1876 = FACE_BOUND('',#1877,.T.);
#1877 = EDGE_LOOP('',(#1878,#1879,#1880,#1881));
#1878 = ORIENTED_EDGE('',*,*,#1567,.T.);
#1879 = ORIENTED_EDGE('',*,*,#1465,.T.);
#1880 = ORIENTED_EDGE('',*,*,#1505,.T.);
#1881 = ORIENTED_EDGE('',*,*,#1536,.T.);
#1882 = FACE_BOUND('',#1883,.T.);
#1883 = EDGE_LOOP('',(#1884,#1885,#1886,#1887));
#1884 = ORIENTED_EDGE('',*,*,#1443,.T.);
#1885 = ORIENTED_EDGE('',*,*,#1341,.T.);
#1886 = ORIENTED_EDGE('',*,*,#1381,.T.);
#1887 = ORIENTED_EDGE('',*,*,#1412,.T.);
#1888 = PLANE('',#1889);
#1889 = AXIS2_PLACEMENT_3D('',#1890,#1891,#1892);
#1890 = CARTESIAN_POINT('',(0.,1.5E-02,0.715));
#1891 = DIRECTION('',(0.,0.,1.));
#1892 = DIRECTION('',(1.,0.,0.));
#1893 = ( GEOMETRIC_REPRESENTATION_CONTEXT(3) 
GLOBAL_UNCERTAINTY_ASSIGNED_CONTEXT((#1897)) 
GLOBAL_UNIT_ASSIGNED_CONTEXT((#1894,#1895,#1896)) REPRESENTATION_CONTEXT
('Context #1','3D Context with UNIT and UNCERTAINTY') );
#1894 = ( LENGTH_UNIT() NAMED_UNIT(*) SI_UNIT(.MILLI.,.METRE.) );
#1895 = ( NAMED_UNIT(*) PLANE_ANGLE_UNIT() SI_UNIT($,.RADIAN.) );
#1896 = ( NAMED_UNIT(*) SI_UNIT($,.STERADIAN.) SOLID_ANGLE_UNIT() );
#1897 = UNCERTAINTY_MEASURE_WITH_UNIT(LENGTH_MEASURE(1.E-07),#1894,
  'distance_accuracy_value','confusion accuracy');
#1898 = PRODUCT_RELATED_PRODUCT_CATEGORY('part',$,(#7));
#1899 = MECHANICAL_DESIGN_GEOMETRIC_PRESENTATION_REPRESENTATION('',(
    #1900,#1908,#1915,#1922,#1929,#1936,#1943,#1950,#1957,#1964,#1971,
    #1978,#1985,#1992,#1999,#2006,#2013,#2020,#2027,#2034,#2041,#2048,
    #2056,#2063,#2070,#2077,#2085,#2092,#2099,#2106,#2113,#2120,#2127,
    #2134,#2141,#2148,#2155,#2162,#2169,#2176,#2183,#2190,#2197,#2204,
    #2211,#2218,#2225,#2232,#2239,#2246,#2253,#2261,#2268,#2275,#2282,
    #2289,#2296,#2303,#2310,#2317,#2324,#2331,#2338,#2345,#2352,#2359,
    #2366,#2373),#1893);
#1900 = STYLED_ITEM('color',(#1901),#17);
#1901 = PRESENTATION_STYLE_ASSIGNMENT((#1902));
#1902 = SURFACE_STYLE_USAGE(.BOTH.,#1903);
#1903 = SURFACE_SIDE_STYLE('',(#1904));
#1904 = SURFACE_STYLE_FILL_AREA(#1905);
#1905 = FILL_AREA_STYLE('',(#1906));
#1906 = FILL_AREA_STYLE_COLOUR('',#1907);
#1907 = COLOUR_RGB('',0.960784316063,0.960784316063,0.964705884457);
#1908 = STYLED_ITEM('color',(#1909),#57);
#1909 = PRESENTATION_STYLE_ASSIGNMENT((#1910));
#1910 = SURFACE_STYLE_USAGE(.BOTH.,#1911);
#1911 = SURFACE_SIDE_STYLE('',(#1912));
#1912 = SURFACE_STYLE_FILL_AREA(#1913);
#1913 = FILL_AREA_STYLE('',(#1914));
#1914 = FILL_AREA_STYLE_COLOUR('',#1907);
#1915 = STYLED_ITEM('color',(#1916),#97);
#1916 = PRESENTATION_STYLE_ASSIGNMENT((#1917));
#1917 = SURFACE_STYLE_USAGE(.BOTH.,#1918);
#1918 = SURFACE_SIDE_STYLE('',(#1919));
#1919 = SURFACE_STYLE_FILL_AREA(#1920);
#1920 = FILL_AREA_STYLE('',(#1921));
#1921 = FILL_AREA_STYLE_COLOUR('',#1907);
#1922 = STYLED_ITEM('color',(#1923),#119);
#1923 = PRESENTATION_STYLE_ASSIGNMENT((#1924));
#1924 = SURFACE_STYLE_USAGE(.BOTH.,#1925);
#1925 = SURFACE_SIDE_STYLE('',(#1926));
#1926 = SURFACE_STYLE_FILL_AREA(#1927);
#1927 = FILL_AREA_STYLE('',(#1928));
#1928 = FILL_AREA_STYLE_COLOUR('',#1907);
#1929 = STYLED_ITEM('color',(#1930),#141);
#1930 = PRESENTATION_STYLE_ASSIGNMENT((#1931));
#1931 = SURFACE_STYLE_USAGE(.BOTH.,#1932);
#1932 = SURFACE_SIDE_STYLE('',(#1933));
#1933 = SURFACE_STYLE_FILL_AREA(#1934);
#1934 = FILL_AREA_STYLE('',(#1935));
#1935 = FILL_AREA_STYLE_COLOUR('',#1907);
#1936 = STYLED_ITEM('color',(#1937),#172);
#1937 = PRESENTATION_STYLE_ASSIGNMENT((#1938));
#1938 = SURFACE_STYLE_USAGE(.BOTH.,#1939);
#1939 = SURFACE_SIDE_STYLE('',(#1940));
#1940 = SURFACE_STYLE_FILL_AREA(#1941);
#1941 = FILL_AREA_STYLE('',(#1942));
#1942 = FILL_AREA_STYLE_COLOUR('',#1907);
#1943 = STYLED_ITEM('color',(#1944),#196);
#1944 = PRESENTATION_STYLE_ASSIGNMENT((#1945));
#1945 = SURFACE_STYLE_USAGE(.BOTH.,#1946);
#1946 = SURFACE_SIDE_STYLE('',(#1947));
#1947 = SURFACE_STYLE_FILL_AREA(#1948);
#1948 = FILL_AREA_STYLE('',(#1949));
#1949 = FILL_AREA_STYLE_COLOUR('',#1907);
#1950 = STYLED_ITEM('color',(#1951),#208);
#1951 = PRESENTATION_STYLE_ASSIGNMENT((#1952));
#1952 = SURFACE_STYLE_USAGE(.BOTH.,#1953);
#1953 = SURFACE_SIDE_STYLE('',(#1954));
#1954 = SURFACE_STYLE_FILL_AREA(#1955);
#1955 = FILL_AREA_STYLE('',(#1956));
#1956 = FILL_AREA_STYLE_COLOUR('',#1907);
#1957 = STYLED_ITEM('color',(#1958),#248);
#1958 = PRESENTATION_STYLE_ASSIGNMENT((#1959));
#1959 = SURFACE_STYLE_USAGE(.BOTH.,#1960);
#1960 = SURFACE_SIDE_STYLE('',(#1961));
#1961 = SURFACE_STYLE_FILL_AREA(#1962);
#1962 = FILL_AREA_STYLE('',(#1963));
#1963 = FILL_AREA_STYLE_COLOUR('',#1907);
#1964 = STYLED_ITEM('color',(#1965),#288);
#1965 = PRESENTATION_STYLE_ASSIGNMENT((#1966));
#1966 = SURFACE_STYLE_USAGE(.BOTH.,#1967);
#1967 = SURFACE_SIDE_STYLE('',(#1968));
#1968 = SURFACE_STYLE_FILL_AREA(#1969);
#1969 = FILL_AREA_STYLE('',(#1970));
#1970 = FILL_AREA_STYLE_COLOUR('',#1907);
#1971 = STYLED_ITEM('color',(#1972),#310);
#1972 = PRESENTATION_STYLE_ASSIGNMENT((#1973));
#1973 = SURFACE_STYLE_USAGE(.BOTH.,#1974);
#1974 = SURFACE_SIDE_STYLE('',(#1975));
#1975 = SURFACE_STYLE_FILL_AREA(#1976);
#1976 = FILL_AREA_STYLE('',(#1977));
#1977 = FILL_AREA_STYLE_COLOUR('',#1907);
#1978 = STYLED_ITEM('color',(#1979),#332);
#1979 = PRESENTATION_STYLE_ASSIGNMENT((#1980));
#1980 = SURFACE_STYLE_USAGE(.BOTH.,#1981);
#1981 = SURFACE_SIDE_STYLE('',(#1982));
#1982 = SURFACE_STYLE_FILL_AREA(#1983);
#1983 = FILL_AREA_STYLE('',(#1984));
#1984 = FILL_AREA_STYLE_COLOUR('',#1907);
#1985 = STYLED_ITEM('color',(#1986),#363);
#1986 = PRESENTATION_STYLE_ASSIGNMENT((#1987));
#1987 = SURFACE_STYLE_USAGE(.BOTH.,#1988);
#1988 = SURFACE_SIDE_STYLE('',(#1989));
#1989 = SURFACE_STYLE_FILL_AREA(#1990);
#1990 = FILL_AREA_STYLE('',(#1991));
#1991 = FILL_AREA_STYLE_COLOUR('',#1907);
#1992 = STYLED_ITEM('color',(#1993),#387);
#1993 = PRESENTATION_STYLE_ASSIGNMENT((#1994));
#1994 = SURFACE_STYLE_USAGE(.BOTH.,#1995);
#1995 = SURFACE_SIDE_STYLE('',(#1996));
#1996 = SURFACE_STYLE_FILL_AREA(#1997);
#1997 = FILL_AREA_STYLE('',(#1998));
#1998 = FILL_AREA_STYLE_COLOUR('',#1907);
#1999 = STYLED_ITEM('color',(#2000),#399);
#2000 = PRESENTATION_STYLE_ASSIGNMENT((#2001));
#2001 = SURFACE_STYLE_USAGE(.BOTH.,#2002);
#2002 = SURFACE_SIDE_STYLE('',(#2003));
#2003 = SURFACE_STYLE_FILL_AREA(#2004);
#2004 = FILL_AREA_STYLE('',(#2005));
#2005 = FILL_AREA_STYLE_COLOUR('',#1907);
#2006 = STYLED_ITEM('color',(#2007),#439);
#2007 = PRESENTATION_STYLE_ASSIGNMENT((#2008));
#2008 = SURFACE_STYLE_USAGE(.BOTH.,#2009);
#2009 = SURFACE_SIDE_STYLE('',(#2010));
#2010 = SURFACE_STYLE_FILL_AREA(#2011);
#2011 = FILL_AREA_STYLE('',(#2012));
#2012 = FILL_AREA_STYLE_COLOUR('',#1907);
#2013 = STYLED_ITEM('color',(#2014),#470);
#2014 = PRESENTATION_STYLE_ASSIGNMENT((#2015));
#2015 = SURFACE_STYLE_USAGE(.BOTH.,#2016);
#2016 = SURFACE_SIDE_STYLE('',(#2017));
#2017 = SURFACE_STYLE_FILL_AREA(#2018);
#2018 = FILL_AREA_STYLE('',(#2019));
#2019 = FILL_AREA_STYLE_COLOUR('',#1907);
#2020 = STYLED_ITEM('color',(#2021),#501);
#2021 = PRESENTATION_STYLE_ASSIGNMENT((#2022));
#2022 = SURFACE_STYLE_USAGE(.BOTH.,#2023);
#2023 = SURFACE_SIDE_STYLE('',(#2024));
#2024 = SURFACE_STYLE_FILL_AREA(#2025);
#2025 = FILL_AREA_STYLE('',(#2026));
#2026 = FILL_AREA_STYLE_COLOUR('',#1907);
#2027 = STYLED_ITEM('color',(#2028),#523);
#2028 = PRESENTATION_STYLE_ASSIGNMENT((#2029));
#2029 = SURFACE_STYLE_USAGE(.BOTH.,#2030);
#2030 = SURFACE_SIDE_STYLE('',(#2031));
#2031 = SURFACE_STYLE_FILL_AREA(#2032);
#2032 = FILL_AREA_STYLE('',(#2033));
#2033 = FILL_AREA_STYLE_COLOUR('',#1907);
#2034 = STYLED_ITEM('color',(#2035),#554);
#2035 = PRESENTATION_STYLE_ASSIGNMENT((#2036));
#2036 = SURFACE_STYLE_USAGE(.BOTH.,#2037);
#2037 = SURFACE_SIDE_STYLE('',(#2038));
#2038 = SURFACE_STYLE_FILL_AREA(#2039);
#2039 = FILL_AREA_STYLE('',(#2040));
#2040 = FILL_AREA_STYLE_COLOUR('',#1907);
#2041 = STYLED_ITEM('color',(#2042),#578);
#2042 = PRESENTATION_STYLE_ASSIGNMENT((#2043));
#2043 = SURFACE_STYLE_USAGE(.BOTH.,#2044);
#2044 = SURFACE_SIDE_STYLE('',(#2045));
#2045 = SURFACE_STYLE_FILL_AREA(#2046);
#2046 = FILL_AREA_STYLE('',(#2047));
#2047 = FILL_AREA_STYLE_COLOUR('',#1907);
#2048 = STYLED_ITEM('color',(#2049),#590);
#2049 = PRESENTATION_STYLE_ASSIGNMENT((#2050));
#2050 = SURFACE_STYLE_USAGE(.BOTH.,#2051);
#2051 = SURFACE_SIDE_STYLE('',(#2052));
#2052 = SURFACE_STYLE_FILL_AREA(#2053);
#2053 = FILL_AREA_STYLE('',(#2054));
#2054 = FILL_AREA_STYLE_COLOUR('',#2055);
#2055 = COLOUR_RGB('',1.,0.721568644047,0.20000000298);
#2056 = STYLED_ITEM('color',(#2057),#684);
#2057 = PRESENTATION_STYLE_ASSIGNMENT((#2058));
#2058 = SURFACE_STYLE_USAGE(.BOTH.,#2059);
#2059 = SURFACE_SIDE_STYLE('',(#2060));
#2060 = SURFACE_STYLE_FILL_AREA(#2061);
#2061 = FILL_AREA_STYLE('',(#2062));
#2062 = FILL_AREA_STYLE_COLOUR('',#1907);
#2063 = STYLED_ITEM('color',(#2064),#715);
#2064 = PRESENTATION_STYLE_ASSIGNMENT((#2065));
#2065 = SURFACE_STYLE_USAGE(.BOTH.,#2066);
#2066 = SURFACE_SIDE_STYLE('',(#2067));
#2067 = SURFACE_STYLE_FILL_AREA(#2068);
#2068 = FILL_AREA_STYLE('',(#2069));
#2069 = FILL_AREA_STYLE_COLOUR('',#1907);
#2070 = STYLED_ITEM('color',(#2071),#739);
#2071 = PRESENTATION_STYLE_ASSIGNMENT((#2072));
#2072 = SURFACE_STYLE_USAGE(.BOTH.,#2073);
#2073 = SURFACE_SIDE_STYLE('',(#2074));
#2074 = SURFACE_STYLE_FILL_AREA(#2075);
#2075 = FILL_AREA_STYLE('',(#2076));
#2076 = FILL_AREA_STYLE_COLOUR('',#1907);
#2077 = STYLED_ITEM('color',(#2078),#756);
#2078 = PRESENTATION_STYLE_ASSIGNMENT((#2079));
#2079 = SURFACE_STYLE_USAGE(.BOTH.,#2080);
#2080 = SURFACE_SIDE_STYLE('',(#2081));
#2081 = SURFACE_STYLE_FILL_AREA(#2082);
#2082 = FILL_AREA_STYLE('',(#2083));
#2083 = FILL_AREA_STYLE_COLOUR('',#2084);
#2084 = COLOUR_RGB('',9.803921729326E-02,9.803921729326E-02,
  9.803921729326E-02);
#2085 = STYLED_ITEM('color',(#2086),#798);
#2086 = PRESENTATION_STYLE_ASSIGNMENT((#2087));
#2087 = SURFACE_STYLE_USAGE(.BOTH.,#2088);
#2088 = SURFACE_SIDE_STYLE('',(#2089));
#2089 = SURFACE_STYLE_FILL_AREA(#2090);
#2090 = FILL_AREA_STYLE('',(#2091));
#2091 = FILL_AREA_STYLE_COLOUR('',#2084);
#2092 = STYLED_ITEM('color',(#2093),#830);
#2093 = PRESENTATION_STYLE_ASSIGNMENT((#2094));
#2094 = SURFACE_STYLE_USAGE(.BOTH.,#2095);
#2095 = SURFACE_SIDE_STYLE('',(#2096));
#2096 = SURFACE_STYLE_FILL_AREA(#2097);
#2097 = FILL_AREA_STYLE('',(#2098));
#2098 = FILL_AREA_STYLE_COLOUR('',#2084);
#2099 = STYLED_ITEM('color',(#2100),#862);
#2100 = PRESENTATION_STYLE_ASSIGNMENT((#2101));
#2101 = SURFACE_STYLE_USAGE(.BOTH.,#2102);
#2102 = SURFACE_SIDE_STYLE('',(#2103));
#2103 = SURFACE_STYLE_FILL_AREA(#2104);
#2104 = FILL_AREA_STYLE('',(#2105));
#2105 = FILL_AREA_STYLE_COLOUR('',#2084);
#2106 = STYLED_ITEM('color',(#2107),#884);
#2107 = PRESENTATION_STYLE_ASSIGNMENT((#2108));
#2108 = SURFACE_STYLE_USAGE(.BOTH.,#2109);
#2109 = SURFACE_SIDE_STYLE('',(#2110));
#2110 = SURFACE_STYLE_FILL_AREA(#2111);
#2111 = FILL_AREA_STYLE('',(#2112));
#2112 = FILL_AREA_STYLE_COLOUR('',#2084);
#2113 = STYLED_ITEM('color',(#2114),#931);
#2114 = PRESENTATION_STYLE_ASSIGNMENT((#2115));
#2115 = SURFACE_STYLE_USAGE(.BOTH.,#2116);
#2116 = SURFACE_SIDE_STYLE('',(#2117));
#2117 = SURFACE_STYLE_FILL_AREA(#2118);
#2118 = FILL_AREA_STYLE('',(#2119));
#2119 = FILL_AREA_STYLE_COLOUR('',#2084);
#2120 = STYLED_ITEM('color',(#2121),#955);
#2121 = PRESENTATION_STYLE_ASSIGNMENT((#2122));
#2122 = SURFACE_STYLE_USAGE(.BOTH.,#2123);
#2123 = SURFACE_SIDE_STYLE('',(#2124));
#2124 = SURFACE_STYLE_FILL_AREA(#2125);
#2125 = FILL_AREA_STYLE('',(#2126));
#2126 = FILL_AREA_STYLE_COLOUR('',#2084);
#2127 = STYLED_ITEM('color',(#2128),#967);
#2128 = PRESENTATION_STYLE_ASSIGNMENT((#2129));
#2129 = SURFACE_STYLE_USAGE(.BOTH.,#2130);
#2130 = SURFACE_SIDE_STYLE('',(#2131));
#2131 = SURFACE_STYLE_FILL_AREA(#2132);
#2132 = FILL_AREA_STYLE('',(#2133));
#2133 = FILL_AREA_STYLE_COLOUR('',#1907);
#2134 = STYLED_ITEM('color',(#2135),#1007);
#2135 = PRESENTATION_STYLE_ASSIGNMENT((#2136));
#2136 = SURFACE_STYLE_USAGE(.BOTH.,#2137);
#2137 = SURFACE_SIDE_STYLE('',(#2138));
#2138 = SURFACE_STYLE_FILL_AREA(#2139);
#2139 = FILL_AREA_STYLE('',(#2140));
#2140 = FILL_AREA_STYLE_COLOUR('',#1907);
#2141 = STYLED_ITEM('color',(#2142),#1037);
#2142 = PRESENTATION_STYLE_ASSIGNMENT((#2143));
#2143 = SURFACE_STYLE_USAGE(.BOTH.,#2144);
#2144 = SURFACE_SIDE_STYLE('',(#2145));
#2145 = SURFACE_STYLE_FILL_AREA(#2146);
#2146 = FILL_AREA_STYLE('',(#2147));
#2147 = FILL_AREA_STYLE_COLOUR('',#1907);
#2148 = STYLED_ITEM('color',(#2149),#1062);
#2149 = PRESENTATION_STYLE_ASSIGNMENT((#2150));
#2150 = SURFACE_STYLE_USAGE(.BOTH.,#2151);
#2151 = SURFACE_SIDE_STYLE('',(#2152));
#2152 = SURFACE_STYLE_FILL_AREA(#2153);
#2153 = FILL_AREA_STYLE('',(#2154));
#2154 = FILL_AREA_STYLE_COLOUR('',#1907);
#2155 = STYLED_ITEM('color',(#2156),#1079);
#2156 = PRESENTATION_STYLE_ASSIGNMENT((#2157));
#2157 = SURFACE_STYLE_USAGE(.BOTH.,#2158);
#2158 = SURFACE_SIDE_STYLE('',(#2159));
#2159 = SURFACE_STYLE_FILL_AREA(#2160);
#2160 = FILL_AREA_STYLE('',(#2161));
#2161 = FILL_AREA_STYLE_COLOUR('',#1907);
#2162 = STYLED_ITEM('color',(#2163),#1096);
#2163 = PRESENTATION_STYLE_ASSIGNMENT((#2164));
#2164 = SURFACE_STYLE_USAGE(.BOTH.,#2165);
#2165 = SURFACE_SIDE_STYLE('',(#2166));
#2166 = SURFACE_STYLE_FILL_AREA(#2167);
#2167 = FILL_AREA_STYLE('',(#2168));
#2168 = FILL_AREA_STYLE_COLOUR('',#1907);
#2169 = STYLED_ITEM('color',(#2170),#1147);
#2170 = PRESENTATION_STYLE_ASSIGNMENT((#2171));
#2171 = SURFACE_STYLE_USAGE(.BOTH.,#2172);
#2172 = SURFACE_SIDE_STYLE('',(#2173));
#2173 = SURFACE_STYLE_FILL_AREA(#2174);
#2174 = FILL_AREA_STYLE('',(#2175));
#2175 = FILL_AREA_STYLE_COLOUR('',#1907);
#2176 = STYLED_ITEM('color',(#2177),#1159);
#2177 = PRESENTATION_STYLE_ASSIGNMENT((#2178));
#2178 = SURFACE_STYLE_USAGE(.BOTH.,#2179);
#2179 = SURFACE_SIDE_STYLE('',(#2180));
#2180 = SURFACE_STYLE_FILL_AREA(#2181);
#2181 = FILL_AREA_STYLE('',(#2182));
#2182 = FILL_AREA_STYLE_COLOUR('',#2084);
#2183 = STYLED_ITEM('color',(#2184),#1176);
#2184 = PRESENTATION_STYLE_ASSIGNMENT((#2185));
#2185 = SURFACE_STYLE_USAGE(.BOTH.,#2186);
#2186 = SURFACE_SIDE_STYLE('',(#2187));
#2187 = SURFACE_STYLE_FILL_AREA(#2188);
#2188 = FILL_AREA_STYLE('',(#2189));
#2189 = FILL_AREA_STYLE_COLOUR('',#2084);
#2190 = STYLED_ITEM('color',(#2191),#1188);
#2191 = PRESENTATION_STYLE_ASSIGNMENT((#2192));
#2192 = SURFACE_STYLE_USAGE(.BOTH.,#2193);
#2193 = SURFACE_SIDE_STYLE('',(#2194));
#2194 = SURFACE_STYLE_FILL_AREA(#2195);
#2195 = FILL_AREA_STYLE('',(#2196));
#2196 = FILL_AREA_STYLE_COLOUR('',#1907);
#2197 = STYLED_ITEM('color',(#2198),#1219);
#2198 = PRESENTATION_STYLE_ASSIGNMENT((#2199));
#2199 = SURFACE_STYLE_USAGE(.BOTH.,#2200);
#2200 = SURFACE_SIDE_STYLE('',(#2201));
#2201 = SURFACE_STYLE_FILL_AREA(#2202);
#2202 = FILL_AREA_STYLE('',(#2203));
#2203 = FILL_AREA_STYLE_COLOUR('',#1907);
#2204 = STYLED_ITEM('color',(#2205),#1236);
#2205 = PRESENTATION_STYLE_ASSIGNMENT((#2206));
#2206 = SURFACE_STYLE_USAGE(.BOTH.,#2207);
#2207 = SURFACE_SIDE_STYLE('',(#2208));
#2208 = SURFACE_STYLE_FILL_AREA(#2209);
#2209 = FILL_AREA_STYLE('',(#2210));
#2210 = FILL_AREA_STYLE_COLOUR('',#1907);
#2211 = STYLED_ITEM('color',(#2212),#1253);
#2212 = PRESENTATION_STYLE_ASSIGNMENT((#2213));
#2213 = SURFACE_STYLE_USAGE(.BOTH.,#2214);
#2214 = SURFACE_SIDE_STYLE('',(#2215));
#2215 = SURFACE_STYLE_FILL_AREA(#2216);
#2216 = FILL_AREA_STYLE('',(#2217));
#2217 = FILL_AREA_STYLE_COLOUR('',#2084);
#2218 = STYLED_ITEM('color',(#2219),#1265);
#2219 = PRESENTATION_STYLE_ASSIGNMENT((#2220));
#2220 = SURFACE_STYLE_USAGE(.BOTH.,#2221);
#2221 = SURFACE_SIDE_STYLE('',(#2222));
#2222 = SURFACE_STYLE_FILL_AREA(#2223);
#2223 = FILL_AREA_STYLE('',(#2224));
#2224 = FILL_AREA_STYLE_COLOUR('',#1907);
#2225 = STYLED_ITEM('color',(#2226),#1277);
#2226 = PRESENTATION_STYLE_ASSIGNMENT((#2227));
#2227 = SURFACE_STYLE_USAGE(.BOTH.,#2228);
#2228 = SURFACE_SIDE_STYLE('',(#2229));
#2229 = SURFACE_STYLE_FILL_AREA(#2230);
#2230 = FILL_AREA_STYLE('',(#2231));
#2231 = FILL_AREA_STYLE_COLOUR('',#1907);
#2232 = STYLED_ITEM('color',(#2233),#1294);
#2233 = PRESENTATION_STYLE_ASSIGNMENT((#2234));
#2234 = SURFACE_STYLE_USAGE(.BOTH.,#2235);
#2235 = SURFACE_SIDE_STYLE('',(#2236));
#2236 = SURFACE_STYLE_FILL_AREA(#2237);
#2237 = FILL_AREA_STYLE('',(#2238));
#2238 = FILL_AREA_STYLE_COLOUR('',#1907);
#2239 = STYLED_ITEM('color',(#2240),#1306);
#2240 = PRESENTATION_STYLE_ASSIGNMENT((#2241));
#2241 = SURFACE_STYLE_USAGE(.BOTH.,#2242);
#2242 = SURFACE_SIDE_STYLE('',(#2243));
#2243 = SURFACE_STYLE_FILL_AREA(#2244);
#2244 = FILL_AREA_STYLE('',(#2245));
#2245 = FILL_AREA_STYLE_COLOUR('',#1907);
#2246 = STYLED_ITEM('color',(#2247),#1323);
#2247 = PRESENTATION_STYLE_ASSIGNMENT((#2248));
#2248 = SURFACE_STYLE_USAGE(.BOTH.,#2249);
#2249 = SURFACE_SIDE_STYLE('',(#2250));
#2250 = SURFACE_STYLE_FILL_AREA(#2251);
#2251 = FILL_AREA_STYLE('',(#2252));
#2252 = FILL_AREA_STYLE_COLOUR('',#1907);
#2253 = STYLED_ITEM('color',(#2254),#1337);
#2254 = PRESENTATION_STYLE_ASSIGNMENT((#2255));
#2255 = SURFACE_STYLE_USAGE(.BOTH.,#2256);
#2256 = SURFACE_SIDE_STYLE('',(#2257));
#2257 = SURFACE_STYLE_FILL_AREA(#2258);
#2258 = FILL_AREA_STYLE('',(#2259));
#2259 = FILL_AREA_STYLE_COLOUR('',#2260);
#2260 = COLOUR_RGB('',0.823529422283,0.564705908298,0.333333343267);
#2261 = STYLED_ITEM('color',(#2262),#1377);
#2262 = PRESENTATION_STYLE_ASSIGNMENT((#2263));
#2263 = SURFACE_STYLE_USAGE(.BOTH.,#2264);
#2264 = SURFACE_SIDE_STYLE('',(#2265));
#2265 = SURFACE_STYLE_FILL_AREA(#2266);
#2266 = FILL_AREA_STYLE('',(#2267));
#2267 = FILL_AREA_STYLE_COLOUR('',#2260);
#2268 = STYLED_ITEM('color',(#2269),#1408);
#2269 = PRESENTATION_STYLE_ASSIGNMENT((#2270));
#2270 = SURFACE_STYLE_USAGE(.BOTH.,#2271);
#2271 = SURFACE_SIDE_STYLE('',(#2272));
#2272 = SURFACE_STYLE_FILL_AREA(#2273);
#2273 = FILL_AREA_STYLE('',(#2274));
#2274 = FILL_AREA_STYLE_COLOUR('',#2260);
#2275 = STYLED_ITEM('color',(#2276),#1439);
#2276 = PRESENTATION_STYLE_ASSIGNMENT((#2277));
#2277 = SURFACE_STYLE_USAGE(.BOTH.,#2278);
#2278 = SURFACE_SIDE_STYLE('',(#2279));
#2279 = SURFACE_STYLE_FILL_AREA(#2280);
#2280 = FILL_AREA_STYLE('',(#2281));
#2281 = FILL_AREA_STYLE_COLOUR('',#2260);
#2282 = STYLED_ITEM('color',(#2283),#1461);
#2283 = PRESENTATION_STYLE_ASSIGNMENT((#2284));
#2284 = SURFACE_STYLE_USAGE(.BOTH.,#2285);
#2285 = SURFACE_SIDE_STYLE('',(#2286));
#2286 = SURFACE_STYLE_FILL_AREA(#2287);
#2287 = FILL_AREA_STYLE('',(#2288));
#2288 = FILL_AREA_STYLE_COLOUR('',#2260);
#2289 = STYLED_ITEM('color',(#2290),#1501);
#2290 = PRESENTATION_STYLE_ASSIGNMENT((#2291));
#2291 = SURFACE_STYLE_USAGE(.BOTH.,#2292);
#2292 = SURFACE_SIDE_STYLE('',(#2293));
#2293 = SURFACE_STYLE_FILL_AREA(#2294);
#2294 = FILL_AREA_STYLE('',(#2295));
#2295 = FILL_AREA_STYLE_COLOUR('',#2260);
#2296 = STYLED_ITEM('color',(#2297),#1532);
#2297 = PRESENTATION_STYLE_ASSIGNMENT((#2298));
#2298 = SURFACE_STYLE_USAGE(.BOTH.,#2299);
#2299 = SURFACE_SIDE_STYLE('',(#2300));
#2300 = SURFACE_STYLE_FILL_AREA(#2301);
#2301 = FILL_AREA_STYLE('',(#2302));
#2302 = FILL_AREA_STYLE_COLOUR('',#2260);
#2303 = STYLED_ITEM('color',(#2304),#1563);
#2304 = PRESENTATION_STYLE_ASSIGNMENT((#2305));
#2305 = SURFACE_STYLE_USAGE(.BOTH.,#2306);
#2306 = SURFACE_SIDE_STYLE('',(#2307));
#2307 = SURFACE_STYLE_FILL_AREA(#2308);
#2308 = FILL_AREA_STYLE('',(#2309));
#2309 = FILL_AREA_STYLE_COLOUR('',#2260);
#2310 = STYLED_ITEM('color',(#2311),#1585);
#2311 = PRESENTATION_STYLE_ASSIGNMENT((#2312));
#2312 = SURFACE_STYLE_USAGE(.BOTH.,#2313);
#2313 = SURFACE_SIDE_STYLE('',(#2314));
#2314 = SURFACE_STYLE_FILL_AREA(#2315);
#2315 = FILL_AREA_STYLE('',(#2316));
#2316 = FILL_AREA_STYLE_COLOUR('',#2260);
#2317 = STYLED_ITEM('color',(#2318),#1625);
#2318 = PRESENTATION_STYLE_ASSIGNMENT((#2319));
#2319 = SURFACE_STYLE_USAGE(.BOTH.,#2320);
#2320 = SURFACE_SIDE_STYLE('',(#2321));
#2321 = SURFACE_STYLE_FILL_AREA(#2322);
#2322 = FILL_AREA_STYLE('',(#2323));
#2323 = FILL_AREA_STYLE_COLOUR('',#2260);
#2324 = STYLED_ITEM('color',(#2325),#1656);
#2325 = PRESENTATION_STYLE_ASSIGNMENT((#2326));
#2326 = SURFACE_STYLE_USAGE(.BOTH.,#2327);
#2327 = SURFACE_SIDE_STYLE('',(#2328));
#2328 = SURFACE_STYLE_FILL_AREA(#2329);
#2329 = FILL_AREA_STYLE('',(#2330));
#2330 = FILL_AREA_STYLE_COLOUR('',#2260);
#2331 = STYLED_ITEM('color',(#2332),#1687);
#2332 = PRESENTATION_STYLE_ASSIGNMENT((#2333));
#2333 = SURFACE_STYLE_USAGE(.BOTH.,#2334);
#2334 = SURFACE_SIDE_STYLE('',(#2335));
#2335 = SURFACE_STYLE_FILL_AREA(#2336);
#2336 = FILL_AREA_STYLE('',(#2337));
#2337 = FILL_AREA_STYLE_COLOUR('',#2260);
#2338 = STYLED_ITEM('color',(#2339),#1709);
#2339 = PRESENTATION_STYLE_ASSIGNMENT((#2340));
#2340 = SURFACE_STYLE_USAGE(.BOTH.,#2341);
#2341 = SURFACE_SIDE_STYLE('',(#2342));
#2342 = SURFACE_STYLE_FILL_AREA(#2343);
#2343 = FILL_AREA_STYLE('',(#2344));
#2344 = FILL_AREA_STYLE_COLOUR('',#2260);
#2345 = STYLED_ITEM('color',(#2346),#1749);
#2346 = PRESENTATION_STYLE_ASSIGNMENT((#2347));
#2347 = SURFACE_STYLE_USAGE(.BOTH.,#2348);
#2348 = SURFACE_SIDE_STYLE('',(#2349));
#2349 = SURFACE_STYLE_FILL_AREA(#2350);
#2350 = FILL_AREA_STYLE('',(#2351));
#2351 = FILL_AREA_STYLE_COLOUR('',#2260);
#2352 = STYLED_ITEM('color',(#2353),#1780);
#2353 = PRESENTATION_STYLE_ASSIGNMENT((#2354));
#2354 = SURFACE_STYLE_USAGE(.BOTH.,#2355);
#2355 = SURFACE_SIDE_STYLE('',(#2356));
#2356 = SURFACE_STYLE_FILL_AREA(#2357);
#2357 = FILL_AREA_STYLE('',(#2358));
#2358 = FILL_AREA_STYLE_COLOUR('',#2260);
#2359 = STYLED_ITEM('color',(#2360),#1811);
#2360 = PRESENTATION_STYLE_ASSIGNMENT((#2361));
#2361 = SURFACE_STYLE_USAGE(.BOTH.,#2362);
#2362 = SURFACE_SIDE_STYLE('',(#2363));
#2363 = SURFACE_STYLE_FILL_AREA(#2364);
#2364 = FILL_AREA_STYLE('',(#2365));
#2365 = FILL_AREA_STYLE_COLOUR('',#2260);
#2366 = STYLED_ITEM('color',(#2367),#1833);
#2367 = PRESENTATION_STYLE_ASSIGNMENT((#2368));
#2368 = SURFACE_STYLE_USAGE(.BOTH.,#2369);
#2369 = SURFACE_SIDE_STYLE('',(#2370));
#2370 = SURFACE_STYLE_FILL_AREA(#2371);
#2371 = FILL_AREA_STYLE('',(#2372));
#2372 = FILL_AREA_STYLE_COLOUR('',#2260);
#2373 = STYLED_ITEM('color',(#2374),#1863);
#2374 = PRESENTATION_STYLE_ASSIGNMENT((#2375));
#2375 = SURFACE_STYLE_USAGE(.BOTH.,#2376);
#2376 = SURFACE_SIDE_STYLE('',(#2377));
#2377 = SURFACE_STYLE_FILL_AREA(#2378);
#2378 = FILL_AREA_STYLE('',(#2379));
#2379 = FILL_AREA_STYLE_COLOUR('',#2260);
ENDSEC;
END-ISO-10303-21;
