ISO-10303-21;
HEADER;
/* Generated by software containing ST-Developer
 * from STEP Tools, Inc. (www.steptools.com) 
 */

FILE_DESCRIPTION(
/* description */ (''),
/* implementation_level */ '2;1');

FILE_NAME(
/* name */ 'switch.step',
/* time_stamp */ '2025-12-31T16:13:46Z',
/* author */ ('sam'),
/* organization */ (''),
/* preprocessor_version */ 'ST-DEVELOPER v20',
/* originating_system */ 'Autodesk Inventor 2025',
/* authorisation */ '');

FILE_SCHEMA (('AUTOMOTIVE_DESIGN { 1 0 10303 214 3 1 1 }'));
ENDSEC;

DATA;
#10=MECHANICAL_DESIGN_GEOMETRIC_PRESENTATION_REPRESENTATION('',(#27,#28),
#1357);
#11=ITEM_DEFINED_TRANSFORMATION($,$,#861,#913);
#12=ITEM_DEFINED_TRANSFORMATION($,$,#904,#914);
#13=ITEM_DEFINED_TRANSFORMATION($,$,#904,#915);
#14=(
REPRESENTATION_RELATIONSHIP($,$,#1372,#1371)
REPRESENTATION_RELATIONSHIP_WITH_TRANSFORMATION(#11)
SHAPE_REPRESENTATION_RELATIONSHIP()
);
#15=(
REPRESENTATION_RELATIONSHIP($,$,#1373,#1371)
REPRESENTATION_RELATIONSHIP_WITH_TRANSFORMATION(#12)
SHAPE_REPRESENTATION_RELATIONSHIP()
);
#16=(
REPRESENTATION_RELATIONSHIP($,$,#1373,#1371)
REPRESENTATION_RELATIONSHIP_WITH_TRANSFORMATION(#13)
SHAPE_REPRESENTATION_RELATIONSHIP()
);
#17=CONTEXT_DEPENDENT_SHAPE_REPRESENTATION(#14,#1368);
#18=CONTEXT_DEPENDENT_SHAPE_REPRESENTATION(#15,#1369);
#19=CONTEXT_DEPENDENT_SHAPE_REPRESENTATION(#16,#1370);
#20=NEXT_ASSEMBLY_USAGE_OCCURRENCE('switch:1','switch:1','switch:1',#1375,
#1376,'switch:1');
#21=NEXT_ASSEMBLY_USAGE_OCCURRENCE('switch-wire:1','switch-wire:1',
'switch-wire:1',#1375,#1377,'switch-wire:1');
#22=NEXT_ASSEMBLY_USAGE_OCCURRENCE('switch-wire:2','switch-wire:2',
'switch-wire:2',#1375,#1377,'switch-wire:2');
#23=SHAPE_REPRESENTATION_RELATIONSHIP('SRR','None',#1372,#25);
#24=SHAPE_REPRESENTATION_RELATIONSHIP('SRR','None',#1373,#26);
#25=ADVANCED_BREP_SHAPE_REPRESENTATION('',(#29),#1355);
#26=ADVANCED_BREP_SHAPE_REPRESENTATION('',(#30),#1356);
#27=STYLED_ITEM('',(#833),#29);
#28=STYLED_ITEM('',(#833),#30);
#29=MANIFOLD_SOLID_BREP('Solid1',#805);
#30=MANIFOLD_SOLID_BREP('Solid1',#806);
#31=FACE_BOUND('',#118,.T.);
#32=FACE_BOUND('',#128,.T.);
#33=FACE_BOUND('',#129,.T.);
#34=FACE_BOUND('',#130,.T.);
#35=ELLIPSE('',#885,0.707106781186547,0.5);
#36=ELLIPSE('',#886,0.707106781186548,0.5);
#37=ELLIPSE('',#888,0.707106781186548,0.5);
#38=ELLIPSE('',#890,0.707106781186548,0.5);
#39=CYLINDRICAL_SURFACE('',#884,0.5);
#40=CYLINDRICAL_SURFACE('',#887,0.5);
#41=CYLINDRICAL_SURFACE('',#889,0.5);
#42=CYLINDRICAL_SURFACE('',#891,0.5);
#43=FACE_OUTER_BOUND('',#89,.T.);
#44=FACE_OUTER_BOUND('',#90,.T.);
#45=FACE_OUTER_BOUND('',#91,.T.);
#46=FACE_OUTER_BOUND('',#92,.T.);
#47=FACE_OUTER_BOUND('',#93,.T.);
#48=FACE_OUTER_BOUND('',#94,.T.);
#49=FACE_OUTER_BOUND('',#95,.T.);
#50=FACE_OUTER_BOUND('',#96,.T.);
#51=FACE_OUTER_BOUND('',#97,.T.);
#52=FACE_OUTER_BOUND('',#98,.T.);
#53=FACE_OUTER_BOUND('',#99,.T.);
#54=FACE_OUTER_BOUND('',#100,.T.);
#55=FACE_OUTER_BOUND('',#101,.T.);
#56=FACE_OUTER_BOUND('',#102,.T.);
#57=FACE_OUTER_BOUND('',#103,.T.);
#58=FACE_OUTER_BOUND('',#104,.T.);
#59=FACE_OUTER_BOUND('',#105,.T.);
#60=FACE_OUTER_BOUND('',#106,.T.);
#61=FACE_OUTER_BOUND('',#107,.T.);
#62=FACE_OUTER_BOUND('',#108,.T.);
#63=FACE_OUTER_BOUND('',#109,.T.);
#64=FACE_OUTER_BOUND('',#110,.T.);
#65=FACE_OUTER_BOUND('',#111,.T.);
#66=FACE_OUTER_BOUND('',#112,.T.);
#67=FACE_OUTER_BOUND('',#113,.T.);
#68=FACE_OUTER_BOUND('',#114,.T.);
#69=FACE_OUTER_BOUND('',#115,.T.);
#70=FACE_OUTER_BOUND('',#116,.T.);
#71=FACE_OUTER_BOUND('',#117,.T.);
#72=FACE_OUTER_BOUND('',#119,.T.);
#73=FACE_OUTER_BOUND('',#120,.T.);
#74=FACE_OUTER_BOUND('',#121,.T.);
#75=FACE_OUTER_BOUND('',#122,.T.);
#76=FACE_OUTER_BOUND('',#123,.T.);
#77=FACE_OUTER_BOUND('',#124,.T.);
#78=FACE_OUTER_BOUND('',#125,.T.);
#79=FACE_OUTER_BOUND('',#126,.T.);
#80=FACE_OUTER_BOUND('',#127,.T.);
#81=FACE_OUTER_BOUND('',#131,.T.);
#82=FACE_OUTER_BOUND('',#132,.T.);
#83=FACE_OUTER_BOUND('',#133,.T.);
#84=FACE_OUTER_BOUND('',#134,.T.);
#85=FACE_OUTER_BOUND('',#135,.T.);
#86=FACE_OUTER_BOUND('',#136,.T.);
#87=FACE_OUTER_BOUND('',#137,.T.);
#88=FACE_OUTER_BOUND('',#138,.T.);
#89=EDGE_LOOP('',(#509,#510,#511,#512));
#90=EDGE_LOOP('',(#513,#514,#515,#516));
#91=EDGE_LOOP('',(#517,#518,#519,#520));
#92=EDGE_LOOP('',(#521,#522,#523,#524));
#93=EDGE_LOOP('',(#525,#526,#527,#528));
#94=EDGE_LOOP('',(#529,#530,#531,#532));
#95=EDGE_LOOP('',(#533,#534,#535,#536));
#96=EDGE_LOOP('',(#537,#538,#539,#540));
#97=EDGE_LOOP('',(#541,#542,#543,#544));
#98=EDGE_LOOP('',(#545,#546,#547,#548));
#99=EDGE_LOOP('',(#549,#550,#551,#552));
#100=EDGE_LOOP('',(#553,#554,#555,#556));
#101=EDGE_LOOP('',(#557,#558,#559,#560));
#102=EDGE_LOOP('',(#561,#562,#563,#564));
#103=EDGE_LOOP('',(#565,#566,#567,#568));
#104=EDGE_LOOP('',(#569,#570,#571,#572));
#105=EDGE_LOOP('',(#573,#574,#575,#576));
#106=EDGE_LOOP('',(#577,#578,#579,#580));
#107=EDGE_LOOP('',(#581,#582,#583,#584));
#108=EDGE_LOOP('',(#585,#586,#587,#588));
#109=EDGE_LOOP('',(#589,#590,#591,#592));
#110=EDGE_LOOP('',(#593,#594,#595,#596));
#111=EDGE_LOOP('',(#597,#598,#599,#600));
#112=EDGE_LOOP('',(#601,#602,#603,#604));
#113=EDGE_LOOP('',(#605,#606,#607,#608));
#114=EDGE_LOOP('',(#609,#610,#611,#612));
#115=EDGE_LOOP('',(#613,#614,#615,#616));
#116=EDGE_LOOP('',(#617,#618,#619,#620));
#117=EDGE_LOOP('',(#621,#622,#623,#624));
#118=EDGE_LOOP('',(#625,#626,#627,#628,#629,#630));
#119=EDGE_LOOP('',(#631,#632,#633,#634,#635,#636));
#120=EDGE_LOOP('',(#637,#638,#639,#640));
#121=EDGE_LOOP('',(#641,#642,#643,#644));
#122=EDGE_LOOP('',(#645,#646,#647,#648));
#123=EDGE_LOOP('',(#649,#650,#651,#652));
#124=EDGE_LOOP('',(#653,#654,#655,#656));
#125=EDGE_LOOP('',(#657,#658,#659,#660));
#126=EDGE_LOOP('',(#661,#662,#663,#664));
#127=EDGE_LOOP('',(#665,#666,#667,#668));
#128=EDGE_LOOP('',(#669,#670,#671,#672));
#129=EDGE_LOOP('',(#673,#674,#675,#676));
#130=EDGE_LOOP('',(#677,#678,#679,#680));
#131=EDGE_LOOP('',(#681,#682,#683,#684));
#132=EDGE_LOOP('',(#685,#686,#687,#688));
#133=EDGE_LOOP('',(#689,#690,#691,#692));
#134=EDGE_LOOP('',(#693,#694,#695,#696,#697,#698));
#135=EDGE_LOOP('',(#699,#700,#701,#702));
#136=EDGE_LOOP('',(#703,#704,#705,#706,#707,#708));
#137=EDGE_LOOP('',(#709,#710,#711,#712));
#138=EDGE_LOOP('',(#713,#714,#715,#716));
#139=LINE('',#1133,#239);
#140=LINE('',#1135,#240);
#141=LINE('',#1137,#241);
#142=LINE('',#1138,#242);
#143=LINE('',#1141,#243);
#144=LINE('',#1143,#244);
#145=LINE('',#1144,#245);
#146=LINE('',#1147,#246);
#147=LINE('',#1149,#247);
#148=LINE('',#1150,#248);
#149=LINE('',#1152,#249);
#150=LINE('',#1153,#250);
#151=LINE('',#1158,#251);
#152=LINE('',#1160,#252);
#153=LINE('',#1162,#253);
#154=LINE('',#1163,#254);
#155=LINE('',#1166,#255);
#156=LINE('',#1168,#256);
#157=LINE('',#1169,#257);
#158=LINE('',#1172,#258);
#159=LINE('',#1174,#259);
#160=LINE('',#1175,#260);
#161=LINE('',#1177,#261);
#162=LINE('',#1178,#262);
#163=LINE('',#1183,#263);
#164=LINE('',#1185,#264);
#165=LINE('',#1187,#265);
#166=LINE('',#1188,#266);
#167=LINE('',#1191,#267);
#168=LINE('',#1193,#268);
#169=LINE('',#1194,#269);
#170=LINE('',#1197,#270);
#171=LINE('',#1199,#271);
#172=LINE('',#1200,#272);
#173=LINE('',#1202,#273);
#174=LINE('',#1203,#274);
#175=LINE('',#1208,#275);
#176=LINE('',#1210,#276);
#177=LINE('',#1212,#277);
#178=LINE('',#1213,#278);
#179=LINE('',#1216,#279);
#180=LINE('',#1218,#280);
#181=LINE('',#1219,#281);
#182=LINE('',#1222,#282);
#183=LINE('',#1224,#283);
#184=LINE('',#1225,#284);
#185=LINE('',#1227,#285);
#186=LINE('',#1228,#286);
#187=LINE('',#1231,#287);
#188=LINE('',#1233,#288);
#189=LINE('',#1234,#289);
#190=LINE('',#1237,#290);
#191=LINE('',#1238,#291);
#192=LINE('',#1243,#292);
#193=LINE('',#1247,#293);
#194=LINE('',#1251,#294);
#195=LINE('',#1254,#295);
#196=LINE('',#1257,#296);
#197=LINE('',#1260,#297);
#198=LINE('',#1262,#298);
#199=LINE('',#1263,#299);
#200=LINE('',#1266,#300);
#201=LINE('',#1268,#301);
#202=LINE('',#1269,#302);
#203=LINE('',#1272,#303);
#204=LINE('',#1273,#304);
#205=LINE('',#1276,#305);
#206=LINE('',#1278,#306);
#207=LINE('',#1280,#307);
#208=LINE('',#1281,#308);
#209=LINE('',#1283,#309);
#210=LINE('',#1285,#310);
#211=LINE('',#1287,#311);
#212=LINE('',#1288,#312);
#213=LINE('',#1292,#313);
#214=LINE('',#1293,#314);
#215=LINE('',#1296,#315);
#216=LINE('',#1297,#316);
#217=LINE('',#1299,#317);
#218=LINE('',#1303,#318);
#219=LINE('',#1304,#319);
#220=LINE('',#1306,#320);
#221=LINE('',#1312,#321);
#222=LINE('',#1314,#322);
#223=LINE('',#1316,#323);
#224=LINE('',#1317,#324);
#225=LINE('',#1320,#325);
#226=LINE('',#1322,#326);
#227=LINE('',#1323,#327);
#228=LINE('',#1326,#328);
#229=LINE('',#1328,#329);
#230=LINE('',#1329,#330);
#231=LINE('',#1332,#331);
#232=LINE('',#1334,#332);
#233=LINE('',#1335,#333);
#234=LINE('',#1338,#334);
#235=LINE('',#1340,#335);
#236=LINE('',#1341,#336);
#237=LINE('',#1343,#337);
#238=LINE('',#1344,#338);
#239=VECTOR('',#922,10.);
#240=VECTOR('',#923,10.);
#241=VECTOR('',#924,10.);
#242=VECTOR('',#925,10.);
#243=VECTOR('',#928,10.);
#244=VECTOR('',#929,10.);
#245=VECTOR('',#930,10.);
#246=VECTOR('',#933,10.);
#247=VECTOR('',#934,10.);
#248=VECTOR('',#935,10.);
#249=VECTOR('',#938,10.);
#250=VECTOR('',#939,10.);
#251=VECTOR('',#944,10.);
#252=VECTOR('',#945,10.);
#253=VECTOR('',#946,10.);
#254=VECTOR('',#947,10.);
#255=VECTOR('',#950,10.);
#256=VECTOR('',#951,10.);
#257=VECTOR('',#952,10.);
#258=VECTOR('',#955,10.);
#259=VECTOR('',#956,10.);
#260=VECTOR('',#957,10.);
#261=VECTOR('',#960,10.);
#262=VECTOR('',#961,10.);
#263=VECTOR('',#966,10.);
#264=VECTOR('',#967,10.);
#265=VECTOR('',#968,10.);
#266=VECTOR('',#969,10.);
#267=VECTOR('',#972,10.);
#268=VECTOR('',#973,10.);
#269=VECTOR('',#974,10.);
#270=VECTOR('',#977,10.);
#271=VECTOR('',#978,10.);
#272=VECTOR('',#979,10.);
#273=VECTOR('',#982,10.);
#274=VECTOR('',#983,10.);
#275=VECTOR('',#988,10.);
#276=VECTOR('',#989,10.);
#277=VECTOR('',#990,10.);
#278=VECTOR('',#991,10.);
#279=VECTOR('',#994,10.);
#280=VECTOR('',#995,10.);
#281=VECTOR('',#996,10.);
#282=VECTOR('',#999,10.);
#283=VECTOR('',#1000,10.);
#284=VECTOR('',#1001,10.);
#285=VECTOR('',#1004,10.);
#286=VECTOR('',#1005,10.);
#287=VECTOR('',#1008,10.);
#288=VECTOR('',#1009,10.);
#289=VECTOR('',#1010,10.);
#290=VECTOR('',#1013,10.);
#291=VECTOR('',#1014,10.);
#292=VECTOR('',#1019,10.);
#293=VECTOR('',#1022,10.);
#294=VECTOR('',#1027,10.);
#295=VECTOR('',#1030,10.);
#296=VECTOR('',#1033,10.);
#297=VECTOR('',#1036,10.);
#298=VECTOR('',#1039,10.);
#299=VECTOR('',#1040,10.);
#300=VECTOR('',#1043,10.);
#301=VECTOR('',#1044,10.);
#302=VECTOR('',#1045,10.);
#303=VECTOR('',#1048,10.);
#304=VECTOR('',#1049,10.);
#305=VECTOR('',#1052,10.);
#306=VECTOR('',#1053,10.);
#307=VECTOR('',#1054,10.);
#308=VECTOR('',#1055,10.);
#309=VECTOR('',#1058,10.);
#310=VECTOR('',#1059,10.);
#311=VECTOR('',#1060,10.);
#312=VECTOR('',#1061,10.);
#313=VECTOR('',#1066,10.);
#314=VECTOR('',#1067,10.);
#315=VECTOR('',#1070,10.);
#316=VECTOR('',#1071,10.);
#317=VECTOR('',#1074,10.);
#318=VECTOR('',#1079,10.);
#319=VECTOR('',#1080,10.);
#320=VECTOR('',#1083,10.);
#321=VECTOR('',#1090,10.);
#322=VECTOR('',#1091,10.);
#323=VECTOR('',#1092,10.);
#324=VECTOR('',#1093,10.);
#325=VECTOR('',#1096,10.);
#326=VECTOR('',#1097,10.);
#327=VECTOR('',#1098,10.);
#328=VECTOR('',#1101,10.);
#329=VECTOR('',#1102,10.);
#330=VECTOR('',#1103,10.);
#331=VECTOR('',#1106,10.);
#332=VECTOR('',#1107,10.);
#333=VECTOR('',#1108,10.);
#334=VECTOR('',#1111,10.);
#335=VECTOR('',#1112,10.);
#336=VECTOR('',#1113,10.);
#337=VECTOR('',#1116,10.);
#338=VECTOR('',#1117,10.);
#339=VERTEX_POINT('',#1131);
#340=VERTEX_POINT('',#1132);
#341=VERTEX_POINT('',#1134);
#342=VERTEX_POINT('',#1136);
#343=VERTEX_POINT('',#1140);
#344=VERTEX_POINT('',#1142);
#345=VERTEX_POINT('',#1146);
#346=VERTEX_POINT('',#1148);
#347=VERTEX_POINT('',#1156);
#348=VERTEX_POINT('',#1157);
#349=VERTEX_POINT('',#1159);
#350=VERTEX_POINT('',#1161);
#351=VERTEX_POINT('',#1165);
#352=VERTEX_POINT('',#1167);
#353=VERTEX_POINT('',#1171);
#354=VERTEX_POINT('',#1173);
#355=VERTEX_POINT('',#1181);
#356=VERTEX_POINT('',#1182);
#357=VERTEX_POINT('',#1184);
#358=VERTEX_POINT('',#1186);
#359=VERTEX_POINT('',#1190);
#360=VERTEX_POINT('',#1192);
#361=VERTEX_POINT('',#1196);
#362=VERTEX_POINT('',#1198);
#363=VERTEX_POINT('',#1206);
#364=VERTEX_POINT('',#1207);
#365=VERTEX_POINT('',#1209);
#366=VERTEX_POINT('',#1211);
#367=VERTEX_POINT('',#1215);
#368=VERTEX_POINT('',#1217);
#369=VERTEX_POINT('',#1221);
#370=VERTEX_POINT('',#1223);
#371=VERTEX_POINT('',#1230);
#372=VERTEX_POINT('',#1232);
#373=VERTEX_POINT('',#1236);
#374=VERTEX_POINT('',#1241);
#375=VERTEX_POINT('',#1242);
#376=VERTEX_POINT('',#1244);
#377=VERTEX_POINT('',#1246);
#378=VERTEX_POINT('',#1250);
#379=VERTEX_POINT('',#1252);
#380=VERTEX_POINT('',#1256);
#381=VERTEX_POINT('',#1258);
#382=VERTEX_POINT('',#1265);
#383=VERTEX_POINT('',#1267);
#384=VERTEX_POINT('',#1271);
#385=VERTEX_POINT('',#1275);
#386=VERTEX_POINT('',#1277);
#387=VERTEX_POINT('',#1279);
#388=VERTEX_POINT('',#1284);
#389=VERTEX_POINT('',#1286);
#390=VERTEX_POINT('',#1291);
#391=VERTEX_POINT('',#1295);
#392=VERTEX_POINT('',#1302);
#393=VERTEX_POINT('',#1310);
#394=VERTEX_POINT('',#1311);
#395=VERTEX_POINT('',#1313);
#396=VERTEX_POINT('',#1315);
#397=VERTEX_POINT('',#1319);
#398=VERTEX_POINT('',#1321);
#399=VERTEX_POINT('',#1325);
#400=VERTEX_POINT('',#1327);
#401=VERTEX_POINT('',#1331);
#402=VERTEX_POINT('',#1333);
#403=VERTEX_POINT('',#1337);
#404=VERTEX_POINT('',#1339);
#405=EDGE_CURVE('',#339,#340,#139,.T.);
#406=EDGE_CURVE('',#339,#341,#140,.T.);
#407=EDGE_CURVE('',#342,#341,#141,.T.);
#408=EDGE_CURVE('',#340,#342,#142,.T.);
#409=EDGE_CURVE('',#340,#343,#143,.T.);
#410=EDGE_CURVE('',#344,#342,#144,.T.);
#411=EDGE_CURVE('',#343,#344,#145,.T.);
#412=EDGE_CURVE('',#343,#345,#146,.T.);
#413=EDGE_CURVE('',#346,#344,#147,.T.);
#414=EDGE_CURVE('',#345,#346,#148,.T.);
#415=EDGE_CURVE('',#345,#339,#149,.T.);
#416=EDGE_CURVE('',#341,#346,#150,.T.);
#417=EDGE_CURVE('',#347,#348,#151,.T.);
#418=EDGE_CURVE('',#347,#349,#152,.T.);
#419=EDGE_CURVE('',#350,#349,#153,.T.);
#420=EDGE_CURVE('',#348,#350,#154,.T.);
#421=EDGE_CURVE('',#348,#351,#155,.T.);
#422=EDGE_CURVE('',#352,#350,#156,.T.);
#423=EDGE_CURVE('',#351,#352,#157,.T.);
#424=EDGE_CURVE('',#351,#353,#158,.T.);
#425=EDGE_CURVE('',#354,#352,#159,.T.);
#426=EDGE_CURVE('',#353,#354,#160,.T.);
#427=EDGE_CURVE('',#353,#347,#161,.T.);
#428=EDGE_CURVE('',#349,#354,#162,.T.);
#429=EDGE_CURVE('',#355,#356,#163,.T.);
#430=EDGE_CURVE('',#355,#357,#164,.T.);
#431=EDGE_CURVE('',#358,#357,#165,.T.);
#432=EDGE_CURVE('',#356,#358,#166,.T.);
#433=EDGE_CURVE('',#356,#359,#167,.T.);
#434=EDGE_CURVE('',#360,#358,#168,.T.);
#435=EDGE_CURVE('',#359,#360,#169,.T.);
#436=EDGE_CURVE('',#359,#361,#170,.T.);
#437=EDGE_CURVE('',#362,#360,#171,.T.);
#438=EDGE_CURVE('',#361,#362,#172,.T.);
#439=EDGE_CURVE('',#361,#355,#173,.T.);
#440=EDGE_CURVE('',#357,#362,#174,.T.);
#441=EDGE_CURVE('',#363,#364,#175,.T.);
#442=EDGE_CURVE('',#364,#365,#176,.T.);
#443=EDGE_CURVE('',#365,#366,#177,.T.);
#444=EDGE_CURVE('',#363,#366,#178,.T.);
#445=EDGE_CURVE('',#364,#367,#179,.T.);
#446=EDGE_CURVE('',#367,#368,#180,.T.);
#447=EDGE_CURVE('',#368,#365,#181,.T.);
#448=EDGE_CURVE('',#367,#369,#182,.T.);
#449=EDGE_CURVE('',#369,#370,#183,.T.);
#450=EDGE_CURVE('',#370,#368,#184,.T.);
#451=EDGE_CURVE('',#366,#370,#185,.T.);
#452=EDGE_CURVE('',#369,#363,#186,.T.);
#453=EDGE_CURVE('',#371,#366,#187,.T.);
#454=EDGE_CURVE('',#372,#371,#188,.T.);
#455=EDGE_CURVE('',#372,#370,#189,.T.);
#456=EDGE_CURVE('',#373,#365,#190,.T.);
#457=EDGE_CURVE('',#371,#373,#191,.T.);
#458=EDGE_CURVE('',#374,#375,#192,.T.);
#459=EDGE_CURVE('',#375,#376,#35,.T.);
#460=EDGE_CURVE('',#376,#377,#193,.T.);
#461=EDGE_CURVE('',#374,#377,#36,.T.);
#462=EDGE_CURVE('',#375,#378,#194,.T.);
#463=EDGE_CURVE('',#378,#379,#37,.T.);
#464=EDGE_CURVE('',#379,#376,#195,.T.);
#465=EDGE_CURVE('',#378,#380,#196,.T.);
#466=EDGE_CURVE('',#380,#381,#38,.T.);
#467=EDGE_CURVE('',#381,#379,#197,.T.);
#468=EDGE_CURVE('',#377,#381,#198,.T.);
#469=EDGE_CURVE('',#380,#374,#199,.T.);
#470=EDGE_CURVE('',#382,#377,#200,.T.);
#471=EDGE_CURVE('',#382,#383,#201,.T.);
#472=EDGE_CURVE('',#383,#381,#202,.T.);
#473=EDGE_CURVE('',#384,#376,#203,.T.);
#474=EDGE_CURVE('',#384,#382,#204,.T.);
#475=EDGE_CURVE('',#373,#385,#205,.T.);
#476=EDGE_CURVE('',#385,#386,#206,.T.);
#477=EDGE_CURVE('',#386,#387,#207,.T.);
#478=EDGE_CURVE('',#387,#372,#208,.T.);
#479=EDGE_CURVE('',#387,#368,#209,.T.);
#480=EDGE_CURVE('',#388,#387,#210,.T.);
#481=EDGE_CURVE('',#389,#388,#211,.T.);
#482=EDGE_CURVE('',#373,#389,#212,.T.);
#483=EDGE_CURVE('',#389,#390,#213,.T.);
#484=EDGE_CURVE('',#385,#390,#214,.T.);
#485=EDGE_CURVE('',#386,#391,#215,.T.);
#486=EDGE_CURVE('',#391,#388,#216,.T.);
#487=EDGE_CURVE('',#390,#391,#217,.T.);
#488=EDGE_CURVE('',#383,#392,#218,.T.);
#489=EDGE_CURVE('',#392,#379,#219,.T.);
#490=EDGE_CURVE('',#392,#384,#220,.T.);
#491=EDGE_CURVE('',#393,#394,#221,.T.);
#492=EDGE_CURVE('',#393,#395,#222,.T.);
#493=EDGE_CURVE('',#396,#395,#223,.T.);
#494=EDGE_CURVE('',#394,#396,#224,.T.);
#495=EDGE_CURVE('',#395,#397,#225,.T.);
#496=EDGE_CURVE('',#397,#398,#226,.T.);
#497=EDGE_CURVE('',#398,#396,#227,.T.);
#498=EDGE_CURVE('',#399,#394,#228,.T.);
#499=EDGE_CURVE('',#399,#400,#229,.T.);
#500=EDGE_CURVE('',#400,#393,#230,.T.);
#501=EDGE_CURVE('',#401,#399,#231,.T.);
#502=EDGE_CURVE('',#402,#398,#232,.T.);
#503=EDGE_CURVE('',#401,#402,#233,.T.);
#504=EDGE_CURVE('',#403,#401,#234,.T.);
#505=EDGE_CURVE('',#404,#402,#235,.T.);
#506=EDGE_CURVE('',#403,#404,#236,.T.);
#507=EDGE_CURVE('',#400,#403,#237,.T.);
#508=EDGE_CURVE('',#404,#397,#238,.T.);
#509=ORIENTED_EDGE('',*,*,#405,.F.);
#510=ORIENTED_EDGE('',*,*,#406,.T.);
#511=ORIENTED_EDGE('',*,*,#407,.F.);
#512=ORIENTED_EDGE('',*,*,#408,.F.);
#513=ORIENTED_EDGE('',*,*,#409,.F.);
#514=ORIENTED_EDGE('',*,*,#408,.T.);
#515=ORIENTED_EDGE('',*,*,#410,.F.);
#516=ORIENTED_EDGE('',*,*,#411,.F.);
#517=ORIENTED_EDGE('',*,*,#412,.F.);
#518=ORIENTED_EDGE('',*,*,#411,.T.);
#519=ORIENTED_EDGE('',*,*,#413,.F.);
#520=ORIENTED_EDGE('',*,*,#414,.F.);
#521=ORIENTED_EDGE('',*,*,#415,.F.);
#522=ORIENTED_EDGE('',*,*,#414,.T.);
#523=ORIENTED_EDGE('',*,*,#416,.F.);
#524=ORIENTED_EDGE('',*,*,#406,.F.);
#525=ORIENTED_EDGE('',*,*,#416,.T.);
#526=ORIENTED_EDGE('',*,*,#413,.T.);
#527=ORIENTED_EDGE('',*,*,#410,.T.);
#528=ORIENTED_EDGE('',*,*,#407,.T.);
#529=ORIENTED_EDGE('',*,*,#417,.F.);
#530=ORIENTED_EDGE('',*,*,#418,.T.);
#531=ORIENTED_EDGE('',*,*,#419,.F.);
#532=ORIENTED_EDGE('',*,*,#420,.F.);
#533=ORIENTED_EDGE('',*,*,#421,.F.);
#534=ORIENTED_EDGE('',*,*,#420,.T.);
#535=ORIENTED_EDGE('',*,*,#422,.F.);
#536=ORIENTED_EDGE('',*,*,#423,.F.);
#537=ORIENTED_EDGE('',*,*,#424,.F.);
#538=ORIENTED_EDGE('',*,*,#423,.T.);
#539=ORIENTED_EDGE('',*,*,#425,.F.);
#540=ORIENTED_EDGE('',*,*,#426,.F.);
#541=ORIENTED_EDGE('',*,*,#427,.F.);
#542=ORIENTED_EDGE('',*,*,#426,.T.);
#543=ORIENTED_EDGE('',*,*,#428,.F.);
#544=ORIENTED_EDGE('',*,*,#418,.F.);
#545=ORIENTED_EDGE('',*,*,#428,.T.);
#546=ORIENTED_EDGE('',*,*,#425,.T.);
#547=ORIENTED_EDGE('',*,*,#422,.T.);
#548=ORIENTED_EDGE('',*,*,#419,.T.);
#549=ORIENTED_EDGE('',*,*,#429,.F.);
#550=ORIENTED_EDGE('',*,*,#430,.T.);
#551=ORIENTED_EDGE('',*,*,#431,.F.);
#552=ORIENTED_EDGE('',*,*,#432,.F.);
#553=ORIENTED_EDGE('',*,*,#433,.F.);
#554=ORIENTED_EDGE('',*,*,#432,.T.);
#555=ORIENTED_EDGE('',*,*,#434,.F.);
#556=ORIENTED_EDGE('',*,*,#435,.F.);
#557=ORIENTED_EDGE('',*,*,#436,.F.);
#558=ORIENTED_EDGE('',*,*,#435,.T.);
#559=ORIENTED_EDGE('',*,*,#437,.F.);
#560=ORIENTED_EDGE('',*,*,#438,.F.);
#561=ORIENTED_EDGE('',*,*,#439,.F.);
#562=ORIENTED_EDGE('',*,*,#438,.T.);
#563=ORIENTED_EDGE('',*,*,#440,.F.);
#564=ORIENTED_EDGE('',*,*,#430,.F.);
#565=ORIENTED_EDGE('',*,*,#440,.T.);
#566=ORIENTED_EDGE('',*,*,#437,.T.);
#567=ORIENTED_EDGE('',*,*,#434,.T.);
#568=ORIENTED_EDGE('',*,*,#431,.T.);
#569=ORIENTED_EDGE('',*,*,#441,.T.);
#570=ORIENTED_EDGE('',*,*,#442,.T.);
#571=ORIENTED_EDGE('',*,*,#443,.T.);
#572=ORIENTED_EDGE('',*,*,#444,.F.);
#573=ORIENTED_EDGE('',*,*,#445,.T.);
#574=ORIENTED_EDGE('',*,*,#446,.T.);
#575=ORIENTED_EDGE('',*,*,#447,.T.);
#576=ORIENTED_EDGE('',*,*,#442,.F.);
#577=ORIENTED_EDGE('',*,*,#448,.T.);
#578=ORIENTED_EDGE('',*,*,#449,.T.);
#579=ORIENTED_EDGE('',*,*,#450,.T.);
#580=ORIENTED_EDGE('',*,*,#446,.F.);
#581=ORIENTED_EDGE('',*,*,#451,.T.);
#582=ORIENTED_EDGE('',*,*,#449,.F.);
#583=ORIENTED_EDGE('',*,*,#452,.T.);
#584=ORIENTED_EDGE('',*,*,#444,.T.);
#585=ORIENTED_EDGE('',*,*,#451,.F.);
#586=ORIENTED_EDGE('',*,*,#453,.F.);
#587=ORIENTED_EDGE('',*,*,#454,.F.);
#588=ORIENTED_EDGE('',*,*,#455,.T.);
#589=ORIENTED_EDGE('',*,*,#443,.F.);
#590=ORIENTED_EDGE('',*,*,#456,.F.);
#591=ORIENTED_EDGE('',*,*,#457,.F.);
#592=ORIENTED_EDGE('',*,*,#453,.T.);
#593=ORIENTED_EDGE('',*,*,#441,.F.);
#594=ORIENTED_EDGE('',*,*,#452,.F.);
#595=ORIENTED_EDGE('',*,*,#448,.F.);
#596=ORIENTED_EDGE('',*,*,#445,.F.);
#597=ORIENTED_EDGE('',*,*,#458,.T.);
#598=ORIENTED_EDGE('',*,*,#459,.T.);
#599=ORIENTED_EDGE('',*,*,#460,.T.);
#600=ORIENTED_EDGE('',*,*,#461,.F.);
#601=ORIENTED_EDGE('',*,*,#462,.T.);
#602=ORIENTED_EDGE('',*,*,#463,.T.);
#603=ORIENTED_EDGE('',*,*,#464,.T.);
#604=ORIENTED_EDGE('',*,*,#459,.F.);
#605=ORIENTED_EDGE('',*,*,#465,.T.);
#606=ORIENTED_EDGE('',*,*,#466,.T.);
#607=ORIENTED_EDGE('',*,*,#467,.T.);
#608=ORIENTED_EDGE('',*,*,#463,.F.);
#609=ORIENTED_EDGE('',*,*,#468,.T.);
#610=ORIENTED_EDGE('',*,*,#466,.F.);
#611=ORIENTED_EDGE('',*,*,#469,.T.);
#612=ORIENTED_EDGE('',*,*,#461,.T.);
#613=ORIENTED_EDGE('',*,*,#468,.F.);
#614=ORIENTED_EDGE('',*,*,#470,.F.);
#615=ORIENTED_EDGE('',*,*,#471,.T.);
#616=ORIENTED_EDGE('',*,*,#472,.T.);
#617=ORIENTED_EDGE('',*,*,#460,.F.);
#618=ORIENTED_EDGE('',*,*,#473,.F.);
#619=ORIENTED_EDGE('',*,*,#474,.T.);
#620=ORIENTED_EDGE('',*,*,#470,.T.);
#621=ORIENTED_EDGE('',*,*,#458,.F.);
#622=ORIENTED_EDGE('',*,*,#469,.F.);
#623=ORIENTED_EDGE('',*,*,#465,.F.);
#624=ORIENTED_EDGE('',*,*,#462,.F.);
#625=ORIENTED_EDGE('',*,*,#457,.T.);
#626=ORIENTED_EDGE('',*,*,#475,.T.);
#627=ORIENTED_EDGE('',*,*,#476,.T.);
#628=ORIENTED_EDGE('',*,*,#477,.T.);
#629=ORIENTED_EDGE('',*,*,#478,.T.);
#630=ORIENTED_EDGE('',*,*,#454,.T.);
#631=ORIENTED_EDGE('',*,*,#447,.F.);
#632=ORIENTED_EDGE('',*,*,#479,.F.);
#633=ORIENTED_EDGE('',*,*,#480,.F.);
#634=ORIENTED_EDGE('',*,*,#481,.F.);
#635=ORIENTED_EDGE('',*,*,#482,.F.);
#636=ORIENTED_EDGE('',*,*,#456,.T.);
#637=ORIENTED_EDGE('',*,*,#450,.F.);
#638=ORIENTED_EDGE('',*,*,#455,.F.);
#639=ORIENTED_EDGE('',*,*,#478,.F.);
#640=ORIENTED_EDGE('',*,*,#479,.T.);
#641=ORIENTED_EDGE('',*,*,#482,.T.);
#642=ORIENTED_EDGE('',*,*,#483,.T.);
#643=ORIENTED_EDGE('',*,*,#484,.F.);
#644=ORIENTED_EDGE('',*,*,#475,.F.);
#645=ORIENTED_EDGE('',*,*,#480,.T.);
#646=ORIENTED_EDGE('',*,*,#477,.F.);
#647=ORIENTED_EDGE('',*,*,#485,.T.);
#648=ORIENTED_EDGE('',*,*,#486,.T.);
#649=ORIENTED_EDGE('',*,*,#476,.F.);
#650=ORIENTED_EDGE('',*,*,#484,.T.);
#651=ORIENTED_EDGE('',*,*,#487,.T.);
#652=ORIENTED_EDGE('',*,*,#485,.F.);
#653=ORIENTED_EDGE('',*,*,#481,.T.);
#654=ORIENTED_EDGE('',*,*,#486,.F.);
#655=ORIENTED_EDGE('',*,*,#487,.F.);
#656=ORIENTED_EDGE('',*,*,#483,.F.);
#657=ORIENTED_EDGE('',*,*,#467,.F.);
#658=ORIENTED_EDGE('',*,*,#472,.F.);
#659=ORIENTED_EDGE('',*,*,#488,.T.);
#660=ORIENTED_EDGE('',*,*,#489,.T.);
#661=ORIENTED_EDGE('',*,*,#464,.F.);
#662=ORIENTED_EDGE('',*,*,#489,.F.);
#663=ORIENTED_EDGE('',*,*,#490,.T.);
#664=ORIENTED_EDGE('',*,*,#473,.T.);
#665=ORIENTED_EDGE('',*,*,#490,.F.);
#666=ORIENTED_EDGE('',*,*,#488,.F.);
#667=ORIENTED_EDGE('',*,*,#471,.F.);
#668=ORIENTED_EDGE('',*,*,#474,.F.);
#669=ORIENTED_EDGE('',*,*,#405,.T.);
#670=ORIENTED_EDGE('',*,*,#409,.T.);
#671=ORIENTED_EDGE('',*,*,#412,.T.);
#672=ORIENTED_EDGE('',*,*,#415,.T.);
#673=ORIENTED_EDGE('',*,*,#417,.T.);
#674=ORIENTED_EDGE('',*,*,#421,.T.);
#675=ORIENTED_EDGE('',*,*,#424,.T.);
#676=ORIENTED_EDGE('',*,*,#427,.T.);
#677=ORIENTED_EDGE('',*,*,#429,.T.);
#678=ORIENTED_EDGE('',*,*,#433,.T.);
#679=ORIENTED_EDGE('',*,*,#436,.T.);
#680=ORIENTED_EDGE('',*,*,#439,.T.);
#681=ORIENTED_EDGE('',*,*,#491,.F.);
#682=ORIENTED_EDGE('',*,*,#492,.T.);
#683=ORIENTED_EDGE('',*,*,#493,.F.);
#684=ORIENTED_EDGE('',*,*,#494,.F.);
#685=ORIENTED_EDGE('',*,*,#495,.T.);
#686=ORIENTED_EDGE('',*,*,#496,.T.);
#687=ORIENTED_EDGE('',*,*,#497,.T.);
#688=ORIENTED_EDGE('',*,*,#493,.T.);
#689=ORIENTED_EDGE('',*,*,#491,.T.);
#690=ORIENTED_EDGE('',*,*,#498,.F.);
#691=ORIENTED_EDGE('',*,*,#499,.T.);
#692=ORIENTED_EDGE('',*,*,#500,.T.);
#693=ORIENTED_EDGE('',*,*,#501,.T.);
#694=ORIENTED_EDGE('',*,*,#498,.T.);
#695=ORIENTED_EDGE('',*,*,#494,.T.);
#696=ORIENTED_EDGE('',*,*,#497,.F.);
#697=ORIENTED_EDGE('',*,*,#502,.F.);
#698=ORIENTED_EDGE('',*,*,#503,.F.);
#699=ORIENTED_EDGE('',*,*,#504,.T.);
#700=ORIENTED_EDGE('',*,*,#503,.T.);
#701=ORIENTED_EDGE('',*,*,#505,.F.);
#702=ORIENTED_EDGE('',*,*,#506,.F.);
#703=ORIENTED_EDGE('',*,*,#507,.T.);
#704=ORIENTED_EDGE('',*,*,#506,.T.);
#705=ORIENTED_EDGE('',*,*,#508,.T.);
#706=ORIENTED_EDGE('',*,*,#495,.F.);
#707=ORIENTED_EDGE('',*,*,#492,.F.);
#708=ORIENTED_EDGE('',*,*,#500,.F.);
#709=ORIENTED_EDGE('',*,*,#508,.F.);
#710=ORIENTED_EDGE('',*,*,#505,.T.);
#711=ORIENTED_EDGE('',*,*,#502,.T.);
#712=ORIENTED_EDGE('',*,*,#496,.F.);
#713=ORIENTED_EDGE('',*,*,#507,.F.);
#714=ORIENTED_EDGE('',*,*,#499,.F.);
#715=ORIENTED_EDGE('',*,*,#501,.F.);
#716=ORIENTED_EDGE('',*,*,#504,.F.);
#717=PLANE('',#862);
#718=PLANE('',#863);
#719=PLANE('',#864);
#720=PLANE('',#865);
#721=PLANE('',#866);
#722=PLANE('',#867);
#723=PLANE('',#868);
#724=PLANE('',#869);
#725=PLANE('',#870);
#726=PLANE('',#871);
#727=PLANE('',#872);
#728=PLANE('',#873);
#729=PLANE('',#874);
#730=PLANE('',#875);
#731=PLANE('',#876);
#732=PLANE('',#877);
#733=PLANE('',#878);
#734=PLANE('',#879);
#735=PLANE('',#880);
#736=PLANE('',#881);
#737=PLANE('',#882);
#738=PLANE('',#883);
#739=PLANE('',#892);
#740=PLANE('',#893);
#741=PLANE('',#894);
#742=PLANE('',#895);
#743=PLANE('',#896);
#744=PLANE('',#897);
#745=PLANE('',#898);
#746=PLANE('',#899);
#747=PLANE('',#900);
#748=PLANE('',#901);
#749=PLANE('',#902);
#750=PLANE('',#903);
#751=PLANE('',#905);
#752=PLANE('',#906);
#753=PLANE('',#907);
#754=PLANE('',#908);
#755=PLANE('',#909);
#756=PLANE('',#910);
#757=PLANE('',#911);
#758=PLANE('',#912);
#759=ADVANCED_FACE('',(#43),#717,.T.);
#760=ADVANCED_FACE('',(#44),#718,.T.);
#761=ADVANCED_FACE('',(#45),#719,.T.);
#762=ADVANCED_FACE('',(#46),#720,.T.);
#763=ADVANCED_FACE('',(#47),#721,.T.);
#764=ADVANCED_FACE('',(#48),#722,.T.);
#765=ADVANCED_FACE('',(#49),#723,.T.);
#766=ADVANCED_FACE('',(#50),#724,.T.);
#767=ADVANCED_FACE('',(#51),#725,.T.);
#768=ADVANCED_FACE('',(#52),#726,.T.);
#769=ADVANCED_FACE('',(#53),#727,.T.);
#770=ADVANCED_FACE('',(#54),#728,.T.);
#771=ADVANCED_FACE('',(#55),#729,.T.);
#772=ADVANCED_FACE('',(#56),#730,.T.);
#773=ADVANCED_FACE('',(#57),#731,.T.);
#774=ADVANCED_FACE('',(#58),#732,.T.);
#775=ADVANCED_FACE('',(#59),#733,.T.);
#776=ADVANCED_FACE('',(#60),#734,.T.);
#777=ADVANCED_FACE('',(#61),#735,.T.);
#778=ADVANCED_FACE('',(#62),#736,.T.);
#779=ADVANCED_FACE('',(#63),#737,.T.);
#780=ADVANCED_FACE('',(#64),#738,.T.);
#781=ADVANCED_FACE('',(#65),#39,.T.);
#782=ADVANCED_FACE('',(#66),#40,.T.);
#783=ADVANCED_FACE('',(#67),#41,.T.);
#784=ADVANCED_FACE('',(#68),#42,.T.);
#785=ADVANCED_FACE('',(#69),#739,.T.);
#786=ADVANCED_FACE('',(#70),#740,.T.);
#787=ADVANCED_FACE('',(#71,#31),#741,.T.);
#788=ADVANCED_FACE('',(#72),#742,.T.);
#789=ADVANCED_FACE('',(#73),#743,.T.);
#790=ADVANCED_FACE('',(#74),#744,.F.);
#791=ADVANCED_FACE('',(#75),#745,.F.);
#792=ADVANCED_FACE('',(#76),#746,.F.);
#793=ADVANCED_FACE('',(#77),#747,.F.);
#794=ADVANCED_FACE('',(#78),#748,.T.);
#795=ADVANCED_FACE('',(#79),#749,.T.);
#796=ADVANCED_FACE('',(#80,#32,#33,#34),#750,.F.);
#797=ADVANCED_FACE('',(#81),#751,.T.);
#798=ADVANCED_FACE('',(#82),#752,.T.);
#799=ADVANCED_FACE('',(#83),#753,.T.);
#800=ADVANCED_FACE('',(#84),#754,.T.);
#801=ADVANCED_FACE('',(#85),#755,.T.);
#802=ADVANCED_FACE('',(#86),#756,.T.);
#803=ADVANCED_FACE('',(#87),#757,.T.);
#804=ADVANCED_FACE('',(#88),#758,.F.);
#805=CLOSED_SHELL('',(#759,#760,#761,#762,#763,#764,#765,#766,#767,#768,
#769,#770,#771,#772,#773,#774,#775,#776,#777,#778,#779,#780,#781,#782,#783,
#784,#785,#786,#787,#788,#789,#790,#791,#792,#793,#794,#795,#796));
#806=CLOSED_SHELL('',(#797,#798,#799,#800,#801,#802,#803,#804));
#807=DERIVED_UNIT_ELEMENT(#812,1.);
#808=DERIVED_UNIT_ELEMENT(#1359,-3.);
#809=DERIVED_UNIT_ELEMENT(#812,1.);
#810=DERIVED_UNIT_ELEMENT(#1359,-3.);
#811=DIMENSIONAL_EXPONENTS(0.,1.,0.,0.,0.,0.,0.);
#812=(
CONVERSION_BASED_UNIT('gram',#814)
MASS_UNIT()
NAMED_UNIT(#811)
);
#813=(
MASS_UNIT()
NAMED_UNIT(*)
SI_UNIT(.KILO.,.GRAM.)
);
#814=MASS_MEASURE_WITH_UNIT(MASS_MEASURE(0.001),#813);
#815=DERIVED_UNIT((#807,#808));
#816=DERIVED_UNIT((#809,#810));
#817=MEASURE_REPRESENTATION_ITEM('density measure',
POSITIVE_RATIO_MEASURE(1.),#815);
#818=MEASURE_REPRESENTATION_ITEM('density measure',
POSITIVE_RATIO_MEASURE(1.),#816);
#819=PROPERTY_DEFINITION_REPRESENTATION(#829,#823);
#820=PROPERTY_DEFINITION_REPRESENTATION(#830,#824);
#821=PROPERTY_DEFINITION_REPRESENTATION(#831,#825);
#822=PROPERTY_DEFINITION_REPRESENTATION(#832,#826);
#823=REPRESENTATION('material name',(#827),#1355);
#824=REPRESENTATION('density',(#817),#1355);
#825=REPRESENTATION('material name',(#828),#1356);
#826=REPRESENTATION('density',(#818),#1356);
#827=DESCRIPTIVE_REPRESENTATION_ITEM('Generic','Generic');
#828=DESCRIPTIVE_REPRESENTATION_ITEM('Generic','Generic');
#829=PROPERTY_DEFINITION('material property','material name',#1376);
#830=PROPERTY_DEFINITION('material property','density of part',#1376);
#831=PROPERTY_DEFINITION('material property','material name',#1377);
#832=PROPERTY_DEFINITION('material property','density of part',#1377);
#833=PRESENTATION_STYLE_ASSIGNMENT((#834));
#834=SURFACE_STYLE_USAGE(.BOTH.,#837);
#835=SURFACE_STYLE_RENDERING_WITH_PROPERTIES($,#841,(#836));
#836=SURFACE_STYLE_TRANSPARENT(0.);
#837=SURFACE_SIDE_STYLE('',(#838,#835));
#838=SURFACE_STYLE_FILL_AREA(#839);
#839=FILL_AREA_STYLE('',(#840));
#840=FILL_AREA_STYLE_COLOUR('',#841);
#841=COLOUR_RGB('',0.749019607843137,0.749019607843137,0.749019607843137);
#842=DATE_TIME_ROLE('creation_date');
#843=DATE_TIME_ROLE('creation_date');
#844=DATE_TIME_ROLE('creation_date');
#845=APPLIED_DATE_AND_TIME_ASSIGNMENT(#848,#842,(#1375));
#846=APPLIED_DATE_AND_TIME_ASSIGNMENT(#849,#843,(#1376));
#847=APPLIED_DATE_AND_TIME_ASSIGNMENT(#850,#844,(#1377));
#848=DATE_AND_TIME(#851,#854);
#849=DATE_AND_TIME(#852,#855);
#850=DATE_AND_TIME(#853,#856);
#851=CALENDAR_DATE(2025,13,12);
#852=CALENDAR_DATE(2025,13,12);
#853=CALENDAR_DATE(2025,13,12);
#854=LOCAL_TIME(0,0,0.,#857);
#855=LOCAL_TIME(0,0,0.,#858);
#856=LOCAL_TIME(0,0,0.,#859);
#857=COORDINATED_UNIVERSAL_TIME_OFFSET(0,0,.BEHIND.);
#858=COORDINATED_UNIVERSAL_TIME_OFFSET(0,0,.BEHIND.);
#859=COORDINATED_UNIVERSAL_TIME_OFFSET(0,0,.BEHIND.);
#860=AXIS2_PLACEMENT_3D('',#1128,#916,#917);
#861=AXIS2_PLACEMENT_3D('',#1129,#918,#919);
#862=AXIS2_PLACEMENT_3D('',#1130,#920,#921);
#863=AXIS2_PLACEMENT_3D('',#1139,#926,#927);
#864=AXIS2_PLACEMENT_3D('',#1145,#931,#932);
#865=AXIS2_PLACEMENT_3D('',#1151,#936,#937);
#866=AXIS2_PLACEMENT_3D('',#1154,#940,#941);
#867=AXIS2_PLACEMENT_3D('',#1155,#942,#943);
#868=AXIS2_PLACEMENT_3D('',#1164,#948,#949);
#869=AXIS2_PLACEMENT_3D('',#1170,#953,#954);
#870=AXIS2_PLACEMENT_3D('',#1176,#958,#959);
#871=AXIS2_PLACEMENT_3D('',#1179,#962,#963);
#872=AXIS2_PLACEMENT_3D('',#1180,#964,#965);
#873=AXIS2_PLACEMENT_3D('',#1189,#970,#971);
#874=AXIS2_PLACEMENT_3D('',#1195,#975,#976);
#875=AXIS2_PLACEMENT_3D('',#1201,#980,#981);
#876=AXIS2_PLACEMENT_3D('',#1204,#984,#985);
#877=AXIS2_PLACEMENT_3D('',#1205,#986,#987);
#878=AXIS2_PLACEMENT_3D('',#1214,#992,#993);
#879=AXIS2_PLACEMENT_3D('',#1220,#997,#998);
#880=AXIS2_PLACEMENT_3D('',#1226,#1002,#1003);
#881=AXIS2_PLACEMENT_3D('',#1229,#1006,#1007);
#882=AXIS2_PLACEMENT_3D('',#1235,#1011,#1012);
#883=AXIS2_PLACEMENT_3D('',#1239,#1015,#1016);
#884=AXIS2_PLACEMENT_3D('',#1240,#1017,#1018);
#885=AXIS2_PLACEMENT_3D('',#1245,#1020,#1021);
#886=AXIS2_PLACEMENT_3D('',#1248,#1023,#1024);
#887=AXIS2_PLACEMENT_3D('',#1249,#1025,#1026);
#888=AXIS2_PLACEMENT_3D('',#1253,#1028,#1029);
#889=AXIS2_PLACEMENT_3D('',#1255,#1031,#1032);
#890=AXIS2_PLACEMENT_3D('',#1259,#1034,#1035);
#891=AXIS2_PLACEMENT_3D('',#1261,#1037,#1038);
#892=AXIS2_PLACEMENT_3D('',#1264,#1041,#1042);
#893=AXIS2_PLACEMENT_3D('',#1270,#1046,#1047);
#894=AXIS2_PLACEMENT_3D('',#1274,#1050,#1051);
#895=AXIS2_PLACEMENT_3D('',#1282,#1056,#1057);
#896=AXIS2_PLACEMENT_3D('',#1289,#1062,#1063);
#897=AXIS2_PLACEMENT_3D('',#1290,#1064,#1065);
#898=AXIS2_PLACEMENT_3D('',#1294,#1068,#1069);
#899=AXIS2_PLACEMENT_3D('',#1298,#1072,#1073);
#900=AXIS2_PLACEMENT_3D('',#1300,#1075,#1076);
#901=AXIS2_PLACEMENT_3D('',#1301,#1077,#1078);
#902=AXIS2_PLACEMENT_3D('',#1305,#1081,#1082);
#903=AXIS2_PLACEMENT_3D('',#1307,#1084,#1085);
#904=AXIS2_PLACEMENT_3D('',#1308,#1086,#1087);
#905=AXIS2_PLACEMENT_3D('',#1309,#1088,#1089);
#906=AXIS2_PLACEMENT_3D('',#1318,#1094,#1095);
#907=AXIS2_PLACEMENT_3D('',#1324,#1099,#1100);
#908=AXIS2_PLACEMENT_3D('',#1330,#1104,#1105);
#909=AXIS2_PLACEMENT_3D('',#1336,#1109,#1110);
#910=AXIS2_PLACEMENT_3D('',#1342,#1114,#1115);
#911=AXIS2_PLACEMENT_3D('',#1345,#1118,#1119);
#912=AXIS2_PLACEMENT_3D('',#1346,#1120,#1121);
#913=AXIS2_PLACEMENT_3D('',#1347,#1122,#1123);
#914=AXIS2_PLACEMENT_3D('',#1348,#1124,#1125);
#915=AXIS2_PLACEMENT_3D('',#1349,#1126,#1127);
#916=DIRECTION('axis',(0.,0.,1.));
#917=DIRECTION('refdir',(1.,0.,0.));
#918=DIRECTION('axis',(0.,0.,1.));
#919=DIRECTION('refdir',(1.,0.,0.));
#920=DIRECTION('center_axis',(1.,-9.25185853854297E-16,0.));
#921=DIRECTION('ref_axis',(-9.25185853854297E-16,-1.,0.));
#922=DIRECTION('',(9.25185853854297E-16,1.,0.));
#923=DIRECTION('',(0.,0.,-1.));
#924=DIRECTION('',(-9.25185853854297E-16,-1.,0.));
#925=DIRECTION('',(0.,0.,-1.));
#926=DIRECTION('center_axis',(2.08166817117217E-16,1.,0.));
#927=DIRECTION('ref_axis',(1.,-2.08166817117217E-16,0.));
#928=DIRECTION('',(-1.,2.08166817117217E-16,0.));
#929=DIRECTION('',(1.,-2.08166817117217E-16,0.));
#930=DIRECTION('',(0.,0.,-1.));
#931=DIRECTION('center_axis',(-1.,0.,0.));
#932=DIRECTION('ref_axis',(0.,1.,0.));
#933=DIRECTION('',(0.,-1.,0.));
#934=DIRECTION('',(0.,1.,0.));
#935=DIRECTION('',(0.,0.,-1.));
#936=DIRECTION('center_axis',(-1.73472347597681E-16,-1.,0.));
#937=DIRECTION('ref_axis',(-1.,1.73472347597681E-16,0.));
#938=DIRECTION('',(1.,-1.73472347597681E-16,0.));
#939=DIRECTION('',(-1.,1.73472347597681E-16,0.));
#940=DIRECTION('center_axis',(0.,0.,-1.));
#941=DIRECTION('ref_axis',(-1.,0.,0.));
#942=DIRECTION('center_axis',(1.,-1.15648231731787E-16,0.));
#943=DIRECTION('ref_axis',(-1.15648231731787E-16,-1.,0.));
#944=DIRECTION('',(1.15648231731787E-16,1.,0.));
#945=DIRECTION('',(0.,0.,-1.));
#946=DIRECTION('',(-1.15648231731787E-16,-1.,0.));
#947=DIRECTION('',(0.,0.,-1.));
#948=DIRECTION('center_axis',(0.,1.,0.));
#949=DIRECTION('ref_axis',(1.,0.,0.));
#950=DIRECTION('',(-1.,0.,0.));
#951=DIRECTION('',(1.,0.,0.));
#952=DIRECTION('',(0.,0.,-1.));
#953=DIRECTION('center_axis',(-1.,-1.15648231731787E-16,0.));
#954=DIRECTION('ref_axis',(-1.15648231731787E-16,1.,0.));
#955=DIRECTION('',(1.15648231731787E-16,-1.,0.));
#956=DIRECTION('',(-1.15648231731787E-16,1.,0.));
#957=DIRECTION('',(0.,0.,-1.));
#958=DIRECTION('center_axis',(0.,-1.,0.));
#959=DIRECTION('ref_axis',(-1.,0.,0.));
#960=DIRECTION('',(1.,0.,0.));
#961=DIRECTION('',(-1.,0.,0.));
#962=DIRECTION('center_axis',(0.,0.,-1.));
#963=DIRECTION('ref_axis',(-1.,0.,0.));
#964=DIRECTION('center_axis',(1.,0.,0.));
#965=DIRECTION('ref_axis',(0.,-1.,0.));
#966=DIRECTION('',(0.,1.,0.));
#967=DIRECTION('',(0.,0.,-1.));
#968=DIRECTION('',(0.,-1.,0.));
#969=DIRECTION('',(0.,0.,-1.));
#970=DIRECTION('center_axis',(-6.93889390390722E-17,1.,0.));
#971=DIRECTION('ref_axis',(1.,6.93889390390722E-17,0.));
#972=DIRECTION('',(-1.,-6.93889390390722E-17,0.));
#973=DIRECTION('',(1.,6.93889390390722E-17,0.));
#974=DIRECTION('',(0.,0.,-1.));
#975=DIRECTION('center_axis',(-1.,-1.85037170770859E-15,0.));
#976=DIRECTION('ref_axis',(-1.85037170770859E-15,1.,0.));
#977=DIRECTION('',(1.85037170770859E-15,-1.,0.));
#978=DIRECTION('',(-1.85037170770859E-15,1.,0.));
#979=DIRECTION('',(0.,0.,-1.));
#980=DIRECTION('center_axis',(3.46944695195361E-17,-1.,0.));
#981=DIRECTION('ref_axis',(-1.,-3.46944695195361E-17,0.));
#982=DIRECTION('',(1.,3.46944695195361E-17,0.));
#983=DIRECTION('',(-1.,-3.46944695195361E-17,0.));
#984=DIRECTION('center_axis',(0.,0.,-1.));
#985=DIRECTION('ref_axis',(-1.,0.,0.));
#986=DIRECTION('center_axis',(0.,-0.707106781186548,0.707106781186547));
#987=DIRECTION('ref_axis',(1.,0.,0.));
#988=DIRECTION('',(-1.,0.,0.));
#989=DIRECTION('',(-0.577350269189626,-0.577350269189626,-0.577350269189626));
#990=DIRECTION('',(1.,0.,0.));
#991=DIRECTION('',(0.577350269189625,-0.577350269189626,-0.577350269189626));
#992=DIRECTION('center_axis',(-0.707106781186548,0.,0.707106781186547));
#993=DIRECTION('ref_axis',(0.707106781186547,0.,0.707106781186548));
#994=DIRECTION('',(0.,1.,0.));
#995=DIRECTION('',(-0.577350269189626,0.577350269189626,-0.577350269189626));
#996=DIRECTION('',(0.,-1.,0.));
#997=DIRECTION('center_axis',(0.,0.707106781186548,0.707106781186547));
#998=DIRECTION('ref_axis',(1.,0.,0.));
#999=DIRECTION('',(1.,0.,0.));
#1000=DIRECTION('',(0.577350269189625,0.577350269189626,-0.577350269189626));
#1001=DIRECTION('',(-1.,0.,0.));
#1002=DIRECTION('center_axis',(0.707106781186548,0.,0.707106781186547));
#1003=DIRECTION('ref_axis',(0.707106781186547,0.,-0.707106781186548));
#1004=DIRECTION('',(0.,1.,0.));
#1005=DIRECTION('',(0.,-1.,0.));
#1006=DIRECTION('center_axis',(1.,0.,0.));
#1007=DIRECTION('ref_axis',(0.,1.,0.));
#1008=DIRECTION('',(0.,0.,1.));
#1009=DIRECTION('',(0.,-1.,0.));
#1010=DIRECTION('',(0.,0.,1.));
#1011=DIRECTION('center_axis',(0.,-1.,0.));
#1012=DIRECTION('ref_axis',(1.,0.,0.));
#1013=DIRECTION('',(0.,0.,1.));
#1014=DIRECTION('',(-1.,0.,0.));
#1015=DIRECTION('center_axis',(0.,0.,1.));
#1016=DIRECTION('ref_axis',(1.,0.,0.));
#1017=DIRECTION('center_axis',(1.,2.28575328599297E-16,0.));
#1018=DIRECTION('ref_axis',(0.,-0.707106781186548,0.707106781186548));
#1019=DIRECTION('',(-1.,-2.28575328599297E-16,0.));
#1020=DIRECTION('center_axis',(0.707106781186548,-0.707106781186547,0.));
#1021=DIRECTION('ref_axis',(-0.707106781186547,-0.707106781186548,0.));
#1022=DIRECTION('',(1.,2.28575328599297E-16,0.));
#1023=DIRECTION('center_axis',(0.707106781186548,0.707106781186547,7.85046229341888E-16));
#1024=DIRECTION('ref_axis',(0.707106781186547,-0.707106781186548,7.85046229341887E-16));
#1025=DIRECTION('center_axis',(0.,-1.,0.));
#1026=DIRECTION('ref_axis',(-0.707106781186547,0.,0.707106781186548));
#1027=DIRECTION('',(0.,1.,0.));
#1028=DIRECTION('center_axis',(-0.707106781186548,-0.707106781186547,7.85046229341888E-16));
#1029=DIRECTION('ref_axis',(-0.707106781186547,0.707106781186548,7.85046229341887E-16));
#1030=DIRECTION('',(0.,-1.,0.));
#1031=DIRECTION('center_axis',(-1.,-1.30614473485313E-16,0.));
#1032=DIRECTION('ref_axis',(0.,0.707106781186547,0.707106781186548));
#1033=DIRECTION('',(1.,1.30614473485313E-16,0.));
#1034=DIRECTION('center_axis',(-0.707106781186548,0.707106781186547,0.));
#1035=DIRECTION('ref_axis',(0.707106781186547,0.707106781186548,0.));
#1036=DIRECTION('',(-1.,-1.30614473485313E-16,0.));
#1037=DIRECTION('center_axis',(-1.58603289232165E-16,1.,0.));
#1038=DIRECTION('ref_axis',(0.707106781186547,3.92523114670944E-16,0.707106781186548));
#1039=DIRECTION('',(-1.58603289232165E-16,1.,0.));
#1040=DIRECTION('',(1.58603289232165E-16,-1.,0.));
#1041=DIRECTION('center_axis',(1.,1.58603289232165E-16,0.));
#1042=DIRECTION('ref_axis',(-1.58603289232165E-16,1.,0.));
#1043=DIRECTION('',(0.,0.,1.));
#1044=DIRECTION('',(-1.58603289232165E-16,1.,0.));
#1045=DIRECTION('',(0.,0.,1.));
#1046=DIRECTION('center_axis',(2.28575328599297E-16,-1.,0.));
#1047=DIRECTION('ref_axis',(1.,2.28575328599297E-16,0.));
#1048=DIRECTION('',(0.,0.,1.));
#1049=DIRECTION('',(1.,2.28575328599297E-16,0.));
#1050=DIRECTION('center_axis',(0.,0.,1.));
#1051=DIRECTION('ref_axis',(1.,0.,0.));
#1052=DIRECTION('',(-1.,0.,0.));
#1053=DIRECTION('',(0.,1.,0.));
#1054=DIRECTION('',(1.,0.,0.));
#1055=DIRECTION('',(1.,0.,0.));
#1056=DIRECTION('center_axis',(-1.,0.,0.));
#1057=DIRECTION('ref_axis',(0.,-1.,0.));
#1058=DIRECTION('',(0.,0.,1.));
#1059=DIRECTION('',(0.,0.,1.));
#1060=DIRECTION('',(0.,1.,0.));
#1061=DIRECTION('',(0.,0.,-1.));
#1062=DIRECTION('center_axis',(0.,1.,0.));
#1063=DIRECTION('ref_axis',(-1.,0.,0.));
#1064=DIRECTION('center_axis',(0.,-1.,0.));
#1065=DIRECTION('ref_axis',(-1.,0.,0.));
#1066=DIRECTION('',(-1.,0.,0.));
#1067=DIRECTION('',(0.,0.,-1.));
#1068=DIRECTION('center_axis',(0.,1.,0.));
#1069=DIRECTION('ref_axis',(1.,0.,0.));
#1070=DIRECTION('',(0.,0.,-1.));
#1071=DIRECTION('',(1.,0.,0.));
#1072=DIRECTION('center_axis',(-1.,0.,0.));
#1073=DIRECTION('ref_axis',(0.,1.,0.));
#1074=DIRECTION('',(0.,1.,0.));
#1075=DIRECTION('center_axis',(0.,0.,-1.));
#1076=DIRECTION('ref_axis',(-1.,0.,0.));
#1077=DIRECTION('center_axis',(-1.30614473485313E-16,1.,0.));
#1078=DIRECTION('ref_axis',(-1.,-1.30614473485313E-16,0.));
#1079=DIRECTION('',(-1.,-1.30614473485313E-16,0.));
#1080=DIRECTION('',(0.,0.,1.));
#1081=DIRECTION('center_axis',(-1.,0.,0.));
#1082=DIRECTION('ref_axis',(0.,-1.,0.));
#1083=DIRECTION('',(0.,-1.,0.));
#1084=DIRECTION('center_axis',(0.,0.,1.));
#1085=DIRECTION('ref_axis',(1.,0.,0.));
#1086=DIRECTION('axis',(0.,0.,1.));
#1087=DIRECTION('refdir',(1.,0.,0.));
#1088=DIRECTION('center_axis',(0.,-1.,0.));
#1089=DIRECTION('ref_axis',(1.,0.,-1.38777878078145E-16));
#1090=DIRECTION('',(-1.,0.,1.38777878078145E-16));
#1091=DIRECTION('',(1.36675182955748E-16,0.,1.));
#1092=DIRECTION('',(1.,0.,-1.38777878078145E-16));
#1093=DIRECTION('',(1.36675182955748E-16,0.,1.));
#1094=DIRECTION('center_axis',(1.36675182955748E-16,0.,1.));
#1095=DIRECTION('ref_axis',(1.,0.,-1.36675182955748E-16));
#1096=DIRECTION('',(0.,1.,0.));
#1097=DIRECTION('',(-1.,0.,1.38777878078145E-16));
#1098=DIRECTION('',(2.95272081017329E-18,-1.,-4.09772328593029E-34));
#1099=DIRECTION('center_axis',(1.38777878078145E-16,0.,1.));
#1100=DIRECTION('ref_axis',(1.,0.,-1.38777878078145E-16));
#1101=DIRECTION('',(0.,1.,0.));
#1102=DIRECTION('',(1.,0.,-1.38777878078145E-16));
#1103=DIRECTION('',(0.,1.,0.));
#1104=DIRECTION('center_axis',(-1.,0.,6.93889390390723E-17));
#1105=DIRECTION('ref_axis',(6.93889390390723E-17,0.,1.));
#1106=DIRECTION('',(6.93889390390723E-17,0.,1.));
#1107=DIRECTION('',(6.93889390390723E-17,0.,1.));
#1108=DIRECTION('',(0.,1.,0.));
#1109=DIRECTION('center_axis',(0.,0.,-1.));
#1110=DIRECTION('ref_axis',(-1.,0.,0.));
#1111=DIRECTION('',(-1.,0.,0.));
#1112=DIRECTION('',(-1.,0.,0.));
#1113=DIRECTION('',(0.,1.,0.));
#1114=DIRECTION('center_axis',(1.,0.,0.));
#1115=DIRECTION('ref_axis',(0.,0.,-1.));
#1116=DIRECTION('',(0.,0.,-1.));
#1117=DIRECTION('',(1.36675182955748E-16,0.,1.));
#1118=DIRECTION('center_axis',(0.,1.,0.));
#1119=DIRECTION('ref_axis',(0.,0.,1.));
#1120=DIRECTION('center_axis',(0.,1.,0.));
#1121=DIRECTION('ref_axis',(0.,0.,1.));
#1122=DIRECTION('',(2.40692882291782E-16,1.23455523897722E-15,1.));
#1123=DIRECTION('',(1.,3.33066907387546E-16,-2.40692882291782E-16));
#1124=DIRECTION('',(2.33942471892876E-16,1.23455523897722E-15,1.));
#1125=DIRECTION('',(1.,4.52184586071286E-16,-2.33942471892877E-16));
#1126=DIRECTION('',(2.58871199256426E-16,1.23612673020315E-15,1.));
#1127=DIRECTION('',(1.,3.60822483003175E-16,-2.58871199256427E-16));
#1128=CARTESIAN_POINT('',(0.,0.,0.));
#1129=CARTESIAN_POINT('',(0.,0.,0.));
#1130=CARTESIAN_POINT('Origin',(-2.25,0.15,0.));
#1131=CARTESIAN_POINT('',(-2.25,-0.15,0.));
#1132=CARTESIAN_POINT('',(-2.25,0.15,0.));
#1133=CARTESIAN_POINT('',(-2.25,0.0750000000000011,0.));
#1134=CARTESIAN_POINT('',(-2.25,-0.15,-3.7));
#1135=CARTESIAN_POINT('',(-2.25,-0.15,0.));
#1136=CARTESIAN_POINT('',(-2.25,0.15,-3.7));
#1137=CARTESIAN_POINT('',(-2.25,0.15,-3.7));
#1138=CARTESIAN_POINT('',(-2.25,0.15,0.));
#1139=CARTESIAN_POINT('Origin',(-2.75,0.15,0.));
#1140=CARTESIAN_POINT('',(-2.75,0.15,0.));
#1141=CARTESIAN_POINT('',(-1.375,0.15,0.));
#1142=CARTESIAN_POINT('',(-2.75,0.15,-3.7));
#1143=CARTESIAN_POINT('',(-2.75,0.15,-3.7));
#1144=CARTESIAN_POINT('',(-2.75,0.15,0.));
#1145=CARTESIAN_POINT('Origin',(-2.75,-0.15,0.));
#1146=CARTESIAN_POINT('',(-2.75,-0.15,0.));
#1147=CARTESIAN_POINT('',(-2.75,-0.0749999999999999,0.));
#1148=CARTESIAN_POINT('',(-2.75,-0.15,-3.7));
#1149=CARTESIAN_POINT('',(-2.75,-0.15,-3.7));
#1150=CARTESIAN_POINT('',(-2.75,-0.15,0.));
#1151=CARTESIAN_POINT('Origin',(-2.25,-0.15,0.));
#1152=CARTESIAN_POINT('',(-1.125,-0.15,0.));
#1153=CARTESIAN_POINT('',(-2.25,-0.15,-3.7));
#1154=CARTESIAN_POINT('Origin',(-2.5,0.,-3.7));
#1155=CARTESIAN_POINT('Origin',(0.25,0.15,0.));
#1156=CARTESIAN_POINT('',(0.25,-0.15,0.));
#1157=CARTESIAN_POINT('',(0.25,0.15,0.));
#1158=CARTESIAN_POINT('',(0.25,0.075,0.));
#1159=CARTESIAN_POINT('',(0.25,-0.15,-3.7));
#1160=CARTESIAN_POINT('',(0.25,-0.15,0.));
#1161=CARTESIAN_POINT('',(0.25,0.15,-3.7));
#1162=CARTESIAN_POINT('',(0.25,0.15,-3.7));
#1163=CARTESIAN_POINT('',(0.25,0.15,0.));
#1164=CARTESIAN_POINT('Origin',(-0.25,0.15,0.));
#1165=CARTESIAN_POINT('',(-0.25,0.15,0.));
#1166=CARTESIAN_POINT('',(-0.125,0.15,0.));
#1167=CARTESIAN_POINT('',(-0.25,0.15,-3.7));
#1168=CARTESIAN_POINT('',(-0.25,0.15,-3.7));
#1169=CARTESIAN_POINT('',(-0.25,0.15,0.));
#1170=CARTESIAN_POINT('Origin',(-0.25,-0.15,0.));
#1171=CARTESIAN_POINT('',(-0.25,-0.15,0.));
#1172=CARTESIAN_POINT('',(-0.25,-0.075,0.));
#1173=CARTESIAN_POINT('',(-0.25,-0.15,-3.7));
#1174=CARTESIAN_POINT('',(-0.25,-0.15,-3.7));
#1175=CARTESIAN_POINT('',(-0.25,-0.15,0.));
#1176=CARTESIAN_POINT('Origin',(0.25,-0.15,0.));
#1177=CARTESIAN_POINT('',(0.125,-0.15,0.));
#1178=CARTESIAN_POINT('',(0.25,-0.15,-3.7));
#1179=CARTESIAN_POINT('Origin',(0.,-3.46944695195361E-17,-3.7));
#1180=CARTESIAN_POINT('Origin',(2.75,0.15,0.));
#1181=CARTESIAN_POINT('',(2.75,-0.15,0.));
#1182=CARTESIAN_POINT('',(2.75,0.15,0.));
#1183=CARTESIAN_POINT('',(2.75,0.0750000000000001,0.));
#1184=CARTESIAN_POINT('',(2.75,-0.15,-3.7));
#1185=CARTESIAN_POINT('',(2.75,-0.15,0.));
#1186=CARTESIAN_POINT('',(2.75,0.15,-3.7));
#1187=CARTESIAN_POINT('',(2.75,0.15,-3.7));
#1188=CARTESIAN_POINT('',(2.75,0.15,0.));
#1189=CARTESIAN_POINT('Origin',(2.25,0.15,0.));
#1190=CARTESIAN_POINT('',(2.25,0.15,0.));
#1191=CARTESIAN_POINT('',(1.125,0.15,0.));
#1192=CARTESIAN_POINT('',(2.25,0.15,-3.7));
#1193=CARTESIAN_POINT('',(2.25,0.15,-3.7));
#1194=CARTESIAN_POINT('',(2.25,0.15,0.));
#1195=CARTESIAN_POINT('Origin',(2.25,-0.15,0.));
#1196=CARTESIAN_POINT('',(2.25,-0.15,0.));
#1197=CARTESIAN_POINT('',(2.25,-0.0749999999999979,0.));
#1198=CARTESIAN_POINT('',(2.25,-0.15,-3.7));
#1199=CARTESIAN_POINT('',(2.25,-0.15,-3.7));
#1200=CARTESIAN_POINT('',(2.25,-0.15,0.));
#1201=CARTESIAN_POINT('Origin',(2.75,-0.15,0.));
#1202=CARTESIAN_POINT('',(1.375,-0.15,0.));
#1203=CARTESIAN_POINT('',(2.75,-0.15,-3.7));
#1204=CARTESIAN_POINT('Origin',(2.5,0.,-3.7));
#1205=CARTESIAN_POINT('Origin',(0.57,-0.72,6.4));
#1206=CARTESIAN_POINT('',(1.6,-0.62,6.5));
#1207=CARTESIAN_POINT('',(0.36,-0.62,6.5));
#1208=CARTESIAN_POINT('',(0.57,-0.62,6.5));
#1209=CARTESIAN_POINT('',(0.16,-0.82,6.3));
#1210=CARTESIAN_POINT('',(0.36,-0.62,6.5));
#1211=CARTESIAN_POINT('',(1.8,-0.82,6.3));
#1212=CARTESIAN_POINT('',(0.57,-0.82,6.3));
#1213=CARTESIAN_POINT('',(1.6,-0.62,6.5));
#1214=CARTESIAN_POINT('Origin',(0.26,0.41,6.4));
#1215=CARTESIAN_POINT('',(0.36,0.62,6.5));
#1216=CARTESIAN_POINT('',(0.36,0.41,6.5));
#1217=CARTESIAN_POINT('',(0.16,0.82,6.3));
#1218=CARTESIAN_POINT('',(0.36,0.62,6.5));
#1219=CARTESIAN_POINT('',(0.16,0.41,6.3));
#1220=CARTESIAN_POINT('Origin',(1.39,0.72,6.4));
#1221=CARTESIAN_POINT('',(1.6,0.62,6.5));
#1222=CARTESIAN_POINT('',(1.39,0.62,6.5));
#1223=CARTESIAN_POINT('',(1.8,0.82,6.3));
#1224=CARTESIAN_POINT('',(1.6,0.62,6.5));
#1225=CARTESIAN_POINT('',(1.39,0.82,6.3));
#1226=CARTESIAN_POINT('Origin',(1.7,-0.41,6.4));
#1227=CARTESIAN_POINT('',(1.8,-0.41,6.3));
#1228=CARTESIAN_POINT('',(1.6,-0.41,6.5));
#1229=CARTESIAN_POINT('Origin',(1.8,-0.82,2.5));
#1230=CARTESIAN_POINT('',(1.8,-0.82,3.5));
#1231=CARTESIAN_POINT('',(1.8,-0.82,2.5));
#1232=CARTESIAN_POINT('',(1.8,0.82,3.5));
#1233=CARTESIAN_POINT('',(1.8,0.41,3.5));
#1234=CARTESIAN_POINT('',(1.8,0.82,2.5));
#1235=CARTESIAN_POINT('Origin',(0.16,-0.82,2.5));
#1236=CARTESIAN_POINT('',(0.16,-0.82,3.5));
#1237=CARTESIAN_POINT('',(0.16,-0.82,2.5));
#1238=CARTESIAN_POINT('',(0.9,-0.82,3.5));
#1239=CARTESIAN_POINT('Origin',(0.98,0.,6.5));
#1240=CARTESIAN_POINT('Origin',(-2.125,-1.25,3.));
#1241=CARTESIAN_POINT('',(3.75,-1.25,3.5));
#1242=CARTESIAN_POINT('',(-3.75,-1.25,3.5));
#1243=CARTESIAN_POINT('',(-2.125,-1.25,3.5));
#1244=CARTESIAN_POINT('',(-4.25,-1.75,3.));
#1245=CARTESIAN_POINT('Origin',(-3.75,-1.25,3.));
#1246=CARTESIAN_POINT('',(4.25,-1.75,3.));
#1247=CARTESIAN_POINT('',(-2.125,-1.75,3.));
#1248=CARTESIAN_POINT('Origin',(3.75,-1.25,3.));
#1249=CARTESIAN_POINT('Origin',(-3.75,0.875,3.));
#1250=CARTESIAN_POINT('',(-3.75,1.25,3.5));
#1251=CARTESIAN_POINT('',(-3.75,0.875,3.5));
#1252=CARTESIAN_POINT('',(-4.25,1.75,3.));
#1253=CARTESIAN_POINT('Origin',(-3.75,1.25,3.));
#1254=CARTESIAN_POINT('',(-4.25,0.875,3.));
#1255=CARTESIAN_POINT('Origin',(2.125,1.25,3.));
#1256=CARTESIAN_POINT('',(3.75,1.25,3.5));
#1257=CARTESIAN_POINT('',(2.125,1.25,3.5));
#1258=CARTESIAN_POINT('',(4.25,1.75,3.));
#1259=CARTESIAN_POINT('Origin',(3.75,1.25,3.));
#1260=CARTESIAN_POINT('',(2.125,1.75,3.));
#1261=CARTESIAN_POINT('Origin',(3.75,-0.874999999999999,3.));
#1262=CARTESIAN_POINT('',(4.25,-0.874999999999999,3.));
#1263=CARTESIAN_POINT('',(3.75,-0.874999999999999,3.5));
#1264=CARTESIAN_POINT('Origin',(4.25,-1.75,0.));
#1265=CARTESIAN_POINT('',(4.25,-1.75,0.));
#1266=CARTESIAN_POINT('',(4.25,-1.75,0.));
#1267=CARTESIAN_POINT('',(4.25,1.75,0.));
#1268=CARTESIAN_POINT('',(4.25,-1.75,0.));
#1269=CARTESIAN_POINT('',(4.25,1.75,0.));
#1270=CARTESIAN_POINT('Origin',(-4.25,-1.75,0.));
#1271=CARTESIAN_POINT('',(-4.25,-1.75,0.));
#1272=CARTESIAN_POINT('',(-4.25,-1.75,0.));
#1273=CARTESIAN_POINT('',(-4.25,-1.75,0.));
#1274=CARTESIAN_POINT('Origin',(0.,2.77555756156289E-16,3.5));
#1275=CARTESIAN_POINT('',(-1.8,-0.82,3.5));
#1276=CARTESIAN_POINT('',(0.9,-0.82,3.5));
#1277=CARTESIAN_POINT('',(-1.8,0.82,3.5));
#1278=CARTESIAN_POINT('',(-1.8,-0.41,3.5));
#1279=CARTESIAN_POINT('',(0.16,0.82,3.5));
#1280=CARTESIAN_POINT('',(-0.9,0.82,3.5));
#1281=CARTESIAN_POINT('',(-0.9,0.82,3.5));
#1282=CARTESIAN_POINT('Origin',(0.16,0.82,2.5));
#1283=CARTESIAN_POINT('',(0.16,0.82,2.5));
#1284=CARTESIAN_POINT('',(0.16,0.82,2.5));
#1285=CARTESIAN_POINT('',(0.16,0.82,3.));
#1286=CARTESIAN_POINT('',(0.16,-0.82,2.5));
#1287=CARTESIAN_POINT('',(0.16,0.41,2.5));
#1288=CARTESIAN_POINT('',(0.16,-0.82,3.));
#1289=CARTESIAN_POINT('Origin',(1.8,0.82,2.5));
#1290=CARTESIAN_POINT('Origin',(1.8,-0.82,3.5));
#1291=CARTESIAN_POINT('',(-1.8,-0.82,2.5));
#1292=CARTESIAN_POINT('',(-1.8,-0.82,2.5));
#1293=CARTESIAN_POINT('',(-1.8,-0.82,3.5));
#1294=CARTESIAN_POINT('Origin',(-1.8,0.82,3.5));
#1295=CARTESIAN_POINT('',(-1.8,0.82,2.5));
#1296=CARTESIAN_POINT('',(-1.8,0.82,3.5));
#1297=CARTESIAN_POINT('',(1.8,0.82,2.5));
#1298=CARTESIAN_POINT('Origin',(-1.8,-0.82,3.5));
#1299=CARTESIAN_POINT('',(-1.8,0.82,2.5));
#1300=CARTESIAN_POINT('Origin',(0.,0.,2.5));
#1301=CARTESIAN_POINT('Origin',(4.25,1.75,0.));
#1302=CARTESIAN_POINT('',(-4.25,1.75,0.));
#1303=CARTESIAN_POINT('',(4.25,1.75,0.));
#1304=CARTESIAN_POINT('',(-4.25,1.75,0.));
#1305=CARTESIAN_POINT('Origin',(-4.25,1.75,0.));
#1306=CARTESIAN_POINT('',(-4.25,1.75,0.));
#1307=CARTESIAN_POINT('Origin',(-2.77555756156289E-16,1.38777878078145E-16,
0.));
#1308=CARTESIAN_POINT('',(0.,0.,0.));
#1309=CARTESIAN_POINT('Origin',(-0.25,11.25,0.25));
#1310=CARTESIAN_POINT('',(0.25,11.25,0.25));
#1311=CARTESIAN_POINT('',(-0.25,11.25,0.25));
#1312=CARTESIAN_POINT('',(-0.25,11.25,0.25));
#1313=CARTESIAN_POINT('',(0.25,11.25,3.55));
#1314=CARTESIAN_POINT('',(0.25,11.25,0.25));
#1315=CARTESIAN_POINT('',(-0.25,11.25,3.55));
#1316=CARTESIAN_POINT('',(-0.25,11.25,3.55));
#1317=CARTESIAN_POINT('',(-0.25,11.25,0.25));
#1318=CARTESIAN_POINT('Origin',(4.85722573273506E-16,11.5,3.55));
#1319=CARTESIAN_POINT('',(0.25,11.75,3.55));
#1320=CARTESIAN_POINT('',(0.25,0.,3.55));
#1321=CARTESIAN_POINT('',(-0.25,11.75,3.55));
#1322=CARTESIAN_POINT('',(0.25,11.75,3.55));
#1323=CARTESIAN_POINT('',(-0.25,11.75,3.55));
#1324=CARTESIAN_POINT('Origin',(-0.25,0.,0.25));
#1325=CARTESIAN_POINT('',(-0.25,0.,0.25));
#1326=CARTESIAN_POINT('',(-0.25,0.,0.25));
#1327=CARTESIAN_POINT('',(0.25,0.,0.25));
#1328=CARTESIAN_POINT('',(-0.25,0.,0.25));
#1329=CARTESIAN_POINT('',(0.25,0.,0.25));
#1330=CARTESIAN_POINT('Origin',(-0.25,0.,-0.25));
#1331=CARTESIAN_POINT('',(-0.25,0.,-0.25));
#1332=CARTESIAN_POINT('',(-0.25,0.,-0.25));
#1333=CARTESIAN_POINT('',(-0.25,11.75,-0.25));
#1334=CARTESIAN_POINT('',(-0.25,11.75,-0.25));
#1335=CARTESIAN_POINT('',(-0.25,0.,-0.25));
#1336=CARTESIAN_POINT('Origin',(0.25,0.,-0.25));
#1337=CARTESIAN_POINT('',(0.25,0.,-0.25));
#1338=CARTESIAN_POINT('',(0.25,0.,-0.25));
#1339=CARTESIAN_POINT('',(0.25,11.75,-0.25));
#1340=CARTESIAN_POINT('',(0.25,11.75,-0.25));
#1341=CARTESIAN_POINT('',(0.25,0.,-0.25));
#1342=CARTESIAN_POINT('Origin',(0.25,0.,0.25));
#1343=CARTESIAN_POINT('',(0.25,0.,0.25));
#1344=CARTESIAN_POINT('',(0.25,11.75,0.25));
#1345=CARTESIAN_POINT('Origin',(0.,11.75,3.46944695195361E-17));
#1346=CARTESIAN_POINT('Origin',(1.73472347597681E-17,0.,3.46944695195361E-17));
#1347=CARTESIAN_POINT('',(-9.76114107723589,-10.3396263702836,-9.51231570615741));
#1348=CARTESIAN_POINT('',(-9.76114107723588,-21.9396263702836,-16.7623157061574));
#1349=CARTESIAN_POINT('',(-12.2611410772359,-21.9396263702836,-16.7623157061574));
#1350=UNCERTAINTY_MEASURE_WITH_UNIT(LENGTH_MEASURE(0.01),#1358,
'DISTANCE_ACCURACY_VALUE',
'Maximum model space distance between geometric entities at asserted c
onnectivities');
#1351=UNCERTAINTY_MEASURE_WITH_UNIT(LENGTH_MEASURE(0.01),#1358,
'DISTANCE_ACCURACY_VALUE',
'Maximum model space distance between geometric entities at asserted c
onnectivities');
#1352=UNCERTAINTY_MEASURE_WITH_UNIT(LENGTH_MEASURE(0.01),#1358,
'DISTANCE_ACCURACY_VALUE',
'Maximum model space distance between geometric entities at asserted c
onnectivities');
#1353=UNCERTAINTY_MEASURE_WITH_UNIT(LENGTH_MEASURE(0.01),#1358,
'DISTANCE_ACCURACY_VALUE',
'Maximum model space distance between geometric entities at asserted c
onnectivities');
#1354=(
GEOMETRIC_REPRESENTATION_CONTEXT(3)
GLOBAL_UNCERTAINTY_ASSIGNED_CONTEXT((#1350))
GLOBAL_UNIT_ASSIGNED_CONTEXT((#1358,#1360,#1361))
REPRESENTATION_CONTEXT('','3D')
);
#1355=(
GEOMETRIC_REPRESENTATION_CONTEXT(3)
GLOBAL_UNCERTAINTY_ASSIGNED_CONTEXT((#1351))
GLOBAL_UNIT_ASSIGNED_CONTEXT((#1358,#1360,#1361))
REPRESENTATION_CONTEXT('','3D')
);
#1356=(
GEOMETRIC_REPRESENTATION_CONTEXT(3)
GLOBAL_UNCERTAINTY_ASSIGNED_CONTEXT((#1352))
GLOBAL_UNIT_ASSIGNED_CONTEXT((#1358,#1360,#1361))
REPRESENTATION_CONTEXT('','3D')
);
#1357=(
GEOMETRIC_REPRESENTATION_CONTEXT(3)
GLOBAL_UNCERTAINTY_ASSIGNED_CONTEXT((#1353))
GLOBAL_UNIT_ASSIGNED_CONTEXT((#1358,#1360,#1361))
REPRESENTATION_CONTEXT('','3D')
);
#1358=(
LENGTH_UNIT()
NAMED_UNIT(*)
SI_UNIT(.MILLI.,.METRE.)
);
#1359=(
LENGTH_UNIT()
NAMED_UNIT(*)
SI_UNIT(.CENTI.,.METRE.)
);
#1360=(
NAMED_UNIT(*)
PLANE_ANGLE_UNIT()
SI_UNIT($,.RADIAN.)
);
#1361=(
NAMED_UNIT(*)
SI_UNIT($,.STERADIAN.)
SOLID_ANGLE_UNIT()
);
#1362=SHAPE_DEFINITION_REPRESENTATION(#1365,#1371);
#1363=SHAPE_DEFINITION_REPRESENTATION(#1366,#1372);
#1364=SHAPE_DEFINITION_REPRESENTATION(#1367,#1373);
#1365=PRODUCT_DEFINITION_SHAPE('',$,#1375);
#1366=PRODUCT_DEFINITION_SHAPE('',$,#1376);
#1367=PRODUCT_DEFINITION_SHAPE('',$,#1377);
#1368=PRODUCT_DEFINITION_SHAPE($,$,#20);
#1369=PRODUCT_DEFINITION_SHAPE($,$,#21);
#1370=PRODUCT_DEFINITION_SHAPE($,$,#22);
#1371=SHAPE_REPRESENTATION('',(#860,#913,#914,#915),#1354);
#1372=SHAPE_REPRESENTATION('',(#861),#1355);
#1373=SHAPE_REPRESENTATION('',(#904),#1356);
#1374=PRODUCT_DEFINITION_CONTEXT('part definition',#1385,'design');
#1375=PRODUCT_DEFINITION('switch','switch',#1378,#1374);
#1376=PRODUCT_DEFINITION('switch_1','switch',#1379,#1374);
#1377=PRODUCT_DEFINITION('switch-wire','switch-wire',#1380,#1374);
#1378=PRODUCT_DEFINITION_FORMATION('',$,#1387);
#1379=PRODUCT_DEFINITION_FORMATION('',$,#1388);
#1380=PRODUCT_DEFINITION_FORMATION('',$,#1389);
#1381=PRODUCT_RELATED_PRODUCT_CATEGORY('switch','switch',(#1387));
#1382=PRODUCT_RELATED_PRODUCT_CATEGORY('switch','switch',(#1388));
#1383=PRODUCT_RELATED_PRODUCT_CATEGORY('switch-wire','switch-wire',(#1389));
#1384=APPLICATION_PROTOCOL_DEFINITION('international standard',
'automotive_design',2009,#1385);
#1385=APPLICATION_CONTEXT(
'Core Data for Automotive Mechanical Design Process');
#1386=PRODUCT_CONTEXT('part definition',#1385,'mechanical');
#1387=PRODUCT('switch','switch',$,(#1386));
#1388=PRODUCT('switch_1','switch',$,(#1386));
#1389=PRODUCT('switch-wire','switch-wire',$,(#1386));
ENDSEC;
END-ISO-10303-21;
