%TF.GenerationSoftware,KiCad,Pcbnew,8.0.7*%
%TF.CreationDate,2026-01-16T18:15:20+00:00*%
%TF.ProjectId,ris_command-module,7269735f-636f-46d6-9d61-6e642d6d6f64,rev?*%
%TF.SameCoordinates,Original*%
%TF.FileFunction,Copper,L2,Bot*%
%TF.FilePolarity,Positive*%
%FSLAX46Y46*%
G04 Gerber Fmt 4.6, Leading zero omitted, Abs format (unit mm)*
G04 Created by KiCad (PCBNEW 8.0.7) date 2026-01-16 18:15:20*
%MOMM*%
%LPD*%
G01*
G04 APERTURE LIST*
G04 Aperture macros list*
%AMRoundRect*
0 Rectangle with rounded corners*
0 $1 Rounding radius*
0 $2 $3 $4 $5 $6 $7 $8 $9 X,Y pos of 4 corners*
0 Add a 4 corners polygon primitive as box body*
4,1,4,$2,$3,$4,$5,$6,$7,$8,$9,$2,$3,0*
0 Add four circle primitives for the rounded corners*
1,1,$1+$1,$2,$3*
1,1,$1+$1,$4,$5*
1,1,$1+$1,$6,$7*
1,1,$1+$1,$8,$9*
0 Add four rect primitives between the rounded corners*
20,1,$1+$1,$2,$3,$4,$5,0*
20,1,$1+$1,$4,$5,$6,$7,0*
20,1,$1+$1,$6,$7,$8,$9,0*
20,1,$1+$1,$8,$9,$2,$3,0*%
G04 Aperture macros list end*
%TA.AperFunction,ComponentPad*%
%ADD10R,1.308000X1.308000*%
%TD*%
%TA.AperFunction,ComponentPad*%
%ADD11C,1.308000*%
%TD*%
%TA.AperFunction,ComponentPad*%
%ADD12C,1.600000*%
%TD*%
%TA.AperFunction,ComponentPad*%
%ADD13O,1.600000X1.600000*%
%TD*%
%TA.AperFunction,ComponentPad*%
%ADD14R,1.560000X1.560000*%
%TD*%
%TA.AperFunction,ComponentPad*%
%ADD15C,1.560000*%
%TD*%
%TA.AperFunction,ComponentPad*%
%ADD16C,1.508000*%
%TD*%
%TA.AperFunction,ComponentPad*%
%ADD17R,1.508000X1.508000*%
%TD*%
%TA.AperFunction,ComponentPad*%
%ADD18RoundRect,0.250000X-0.350000X-0.625000X0.350000X-0.625000X0.350000X0.625000X-0.350000X0.625000X0*%
%TD*%
%TA.AperFunction,ComponentPad*%
%ADD19O,1.200000X1.750000*%
%TD*%
%TA.AperFunction,Conductor*%
%ADD20C,0.300000*%
%TD*%
%TA.AperFunction,Conductor*%
%ADD21C,0.200000*%
%TD*%
G04 APERTURE END LIST*
D10*
%TO.P,J3,1,Pin_1*%
%TO.N,GND*%
X167640000Y-99440000D03*
D11*
%TO.P,J3,2,Pin_2*%
%TO.N,+3.3V*%
X167640000Y-97440000D03*
%TO.P,J3,3,Pin_3*%
%TO.N,Net-(J3-Pin_3)*%
X167640000Y-95440000D03*
%TO.P,J3,4,Pin_4*%
%TO.N,Net-(J3-Pin_4)*%
X167640000Y-93440000D03*
%TO.P,J3,5,Pin_5*%
%TO.N,unconnected-(J3-Pin_5-Pad5)*%
X167640000Y-91440000D03*
%TD*%
D12*
%TO.P,R1,1*%
%TO.N,Net-(L1-PadA)*%
X144780000Y-124460000D03*
D13*
%TO.P,R1,2*%
%TO.N,Net-(U6-IO19)*%
X152400000Y-124460000D03*
%TD*%
D10*
%TO.P,J2,1,Pin_1*%
%TO.N,+3.3V*%
X167640000Y-116840000D03*
D11*
%TO.P,J2,2,Pin_2*%
%TO.N,GND*%
X167640000Y-118840000D03*
%TO.P,J2,3,Pin_3*%
%TO.N,Net-(J2-Pin_3)*%
X167640000Y-120840000D03*
%TO.P,J2,4,Pin_4*%
%TO.N,Net-(J2-Pin_4)*%
X167640000Y-122840000D03*
%TO.P,J2,5,Pin_5*%
%TO.N,Net-(J2-Pin_5)*%
X167640000Y-124840000D03*
%TD*%
D14*
%TO.P,U6,J2-1,3V3*%
%TO.N,+3.3V*%
X129540000Y-73660000D03*
D15*
%TO.P,U6,J2-2,EN*%
%TO.N,unconnected-(U6-EN-PadJ2-2)*%
X129540000Y-76200000D03*
%TO.P,U6,J2-3,SENSOR_VP*%
%TO.N,unconnected-(U6-SENSOR_VP-PadJ2-3)*%
X129540000Y-78740000D03*
%TO.P,U6,J2-4,SENSOR_VN*%
%TO.N,unconnected-(U6-SENSOR_VN-PadJ2-4)*%
X129540000Y-81280000D03*
%TO.P,U6,J2-5,IO34*%
%TO.N,unconnected-(U6-IO34-PadJ2-5)*%
X129540000Y-83820000D03*
%TO.P,U6,J2-6,IO35*%
%TO.N,unconnected-(U6-IO35-PadJ2-6)*%
X129540000Y-86360000D03*
%TO.P,U6,J2-7,IO32*%
%TO.N,unconnected-(U6-IO32-PadJ2-7)*%
X129540000Y-88900000D03*
%TO.P,U6,J2-8,IO33*%
%TO.N,unconnected-(U6-IO33-PadJ2-8)*%
X129540000Y-91440000D03*
%TO.P,U6,J2-9,IO25*%
%TO.N,Net-(U6-IO25)*%
X129540000Y-93980000D03*
%TO.P,U6,J2-10,IO26*%
%TO.N,unconnected-(U6-IO26-PadJ2-10)*%
X129540000Y-96520000D03*
%TO.P,U6,J2-11,IO27*%
%TO.N,unconnected-(U6-IO27-PadJ2-11)*%
X129540000Y-99060000D03*
%TO.P,U6,J2-12,IO14*%
%TO.N,unconnected-(U6-IO14-PadJ2-12)*%
X129540000Y-101600000D03*
%TO.P,U6,J2-13,IO12*%
%TO.N,unconnected-(U6-IO12-PadJ2-13)*%
X129540000Y-104140000D03*
%TO.P,U6,J2-14,GND1*%
%TO.N,unconnected-(U6-GND1-PadJ2-14)*%
X129540000Y-106680000D03*
%TO.P,U6,J2-15,IO13*%
%TO.N,unconnected-(U6-IO13-PadJ2-15)*%
X129540000Y-109220000D03*
%TO.P,U6,J2-16,SD2*%
%TO.N,unconnected-(U6-SD2-PadJ2-16)*%
X129540000Y-111760000D03*
%TO.P,U6,J2-17,SD3*%
%TO.N,unconnected-(U6-SD3-PadJ2-17)*%
X129540000Y-114300000D03*
%TO.P,U6,J2-18,CMD*%
%TO.N,unconnected-(U6-CMD-PadJ2-18)*%
X129540000Y-116840000D03*
%TO.P,U6,J2-19,EXT_5V*%
%TO.N,+5V*%
X129540000Y-119380000D03*
%TO.P,U6,J3-1,GND3*%
%TO.N,GND*%
X154940000Y-73660000D03*
%TO.P,U6,J3-2,IO23*%
%TO.N,Net-(J4-Pin_3)*%
X154940000Y-76200000D03*
%TO.P,U6,J3-3,IO22*%
%TO.N,Net-(J3-Pin_4)*%
X154940000Y-78740000D03*
%TO.P,U6,J3-4,TXD0*%
%TO.N,unconnected-(U6-TXD0-PadJ3-4)*%
X154940000Y-81280000D03*
%TO.P,U6,J3-5,RXD0*%
%TO.N,unconnected-(U6-RXD0-PadJ3-5)*%
X154940000Y-83820000D03*
%TO.P,U6,J3-6,IO21*%
%TO.N,Net-(J3-Pin_3)*%
X154940000Y-86360000D03*
%TO.P,U6,J3-7,GND2*%
%TO.N,unconnected-(U6-GND2-PadJ3-7)*%
X154940000Y-88900000D03*
%TO.P,U6,J3-8,IO19*%
%TO.N,Net-(U6-IO19)*%
X154940000Y-91440000D03*
%TO.P,U6,J3-9,IO18*%
%TO.N,Net-(J2-Pin_3)*%
X154940000Y-93980000D03*
%TO.P,U6,J3-10,IO5*%
%TO.N,unconnected-(U6-IO5-PadJ3-10)*%
X154940000Y-96520000D03*
%TO.P,U6,J3-11,IO17*%
%TO.N,Net-(J2-Pin_4)*%
X154940000Y-99060000D03*
%TO.P,U6,J3-12,IO16*%
%TO.N,Net-(J2-Pin_5)*%
X154940000Y-101600000D03*
%TO.P,U6,J3-13,IO4*%
%TO.N,unconnected-(U6-IO4-PadJ3-13)*%
X154940000Y-104140000D03*
%TO.P,U6,J3-14,IO0*%
%TO.N,unconnected-(U6-IO0-PadJ3-14)*%
X154940000Y-106680000D03*
%TO.P,U6,J3-15,IO2*%
%TO.N,unconnected-(U6-IO2-PadJ3-15)*%
X154940000Y-109220000D03*
%TO.P,U6,J3-16,IO15*%
%TO.N,unconnected-(U6-IO15-PadJ3-16)*%
X154940000Y-111760000D03*
%TO.P,U6,J3-17,SD1*%
%TO.N,unconnected-(U6-SD1-PadJ3-17)*%
X154940000Y-114300000D03*
%TO.P,U6,J3-18,SD0*%
%TO.N,unconnected-(U6-SD0-PadJ3-18)*%
X154940000Y-116840000D03*
%TO.P,U6,J3-19,CLK*%
%TO.N,unconnected-(U6-CLK-PadJ3-19)*%
X154940000Y-119380000D03*
%TD*%
D16*
%TO.P,L1,A,A*%
%TO.N,Net-(L1-PadA)*%
X142240000Y-129540000D03*
D17*
%TO.P,L1,C,C*%
%TO.N,GND*%
X139700000Y-129540000D03*
%TD*%
D18*
%TO.P,J1,1,Pin_1*%
%TO.N,+5V*%
X160020000Y-68580000D03*
D19*
%TO.P,J1,2,Pin_2*%
%TO.N,GND*%
X162020000Y-68580000D03*
%TD*%
D17*
%TO.P,SW1,1*%
%TO.N,Net-(U6-IO25)*%
X132080000Y-129540000D03*
D16*
%TO.P,SW1,2*%
%TO.N,+3.3V*%
X129540000Y-129540000D03*
%TD*%
D17*
%TO.P,J4,1,Pin_1*%
%TO.N,GND*%
X167640000Y-71120000D03*
D16*
%TO.P,J4,2,Pin_2*%
%TO.N,+3.3V*%
X167640000Y-73660000D03*
%TO.P,J4,3,Pin_3*%
%TO.N,Net-(J4-Pin_3)*%
X167640000Y-76200000D03*
%TD*%
D20*
%TO.N,+5V*%
X132080000Y-121920000D02*
X157480000Y-121920000D01*
X129540000Y-119380000D02*
X132080000Y-121920000D01*
X157480000Y-121920000D02*
X160020000Y-119380000D01*
X160020000Y-119380000D02*
X160020000Y-68580000D01*
%TO.N,+3.3V*%
X170180000Y-76200000D02*
X167640000Y-73660000D01*
X170180000Y-86360000D02*
X170180000Y-76200000D01*
X170180000Y-114300000D02*
X170180000Y-93980000D01*
D21*
X167640000Y-97440000D02*
X170180000Y-94900000D01*
X170180000Y-94900000D02*
X170180000Y-93980000D01*
D20*
X170180000Y-93980000D02*
X170180000Y-86360000D01*
X167640000Y-116840000D02*
X170180000Y-114300000D01*
%TD*%
%TA.AperFunction,Conductor*%
%TO.N,GND*%
G36*
X172162539Y-64140185D02*
G01*
X172208294Y-64192989D01*
X172219500Y-64244500D01*
X172219500Y-133995500D01*
X172199815Y-134062539D01*
X172147011Y-134108294D01*
X172095500Y-134119500D01*
X125344500Y-134119500D01*
X125277461Y-134099815D01*
X125231706Y-134047011D01*
X125220500Y-133995500D01*
X125220500Y-129540000D01*
X128280708Y-129540000D01*
X128299839Y-129758674D01*
X128356653Y-129970703D01*
X128356654Y-129970706D01*
X128356655Y-129970708D01*
X128449419Y-130169642D01*
X128449423Y-130169650D01*
X128575322Y-130349452D01*
X128575327Y-130349458D01*
X128730541Y-130504672D01*
X128730547Y-130504677D01*
X128910349Y-130630576D01*
X128910351Y-130630577D01*
X128910354Y-130630579D01*
X129109297Y-130723347D01*
X129321326Y-130780161D01*
X129477521Y-130793826D01*
X129539998Y-130799292D01*
X129540000Y-130799292D01*
X129540002Y-130799292D01*
X129600501Y-130793999D01*
X129758674Y-130780161D01*
X129970703Y-130723347D01*
X130169646Y-130630579D01*
X130349457Y-130504674D01*
X130504674Y-130349457D01*
X130599927Y-130213421D01*
X130654501Y-130169798D01*
X130724000Y-130162604D01*
X130786355Y-130194126D01*
X130821769Y-130254356D01*
X130825500Y-130284544D01*
X130825500Y-130341869D01*
X130825501Y-130341876D01*
X130831908Y-130401483D01*
X130882202Y-130536328D01*
X130882206Y-130536335D01*
X130968452Y-130651544D01*
X130968455Y-130651547D01*
X131083664Y-130737793D01*
X131083671Y-130737797D01*
X131218517Y-130788091D01*
X131218516Y-130788091D01*
X131225444Y-130788835D01*
X131278127Y-130794500D01*
X132881872Y-130794499D01*
X132941483Y-130788091D01*
X133076331Y-130737796D01*
X133191546Y-130651546D01*
X133277796Y-130536331D01*
X133328091Y-130401483D01*
X133334500Y-130341873D01*
X133334499Y-128738155D01*
X138446000Y-128738155D01*
X138446000Y-129290000D01*
X139266988Y-129290000D01*
X139234075Y-129347007D01*
X139200000Y-129474174D01*
X139200000Y-129605826D01*
X139234075Y-129732993D01*
X139266988Y-129790000D01*
X138446000Y-129790000D01*
X138446000Y-130341844D01*
X138452401Y-130401372D01*
X138452403Y-130401379D01*
X138502645Y-130536086D01*
X138502649Y-130536093D01*
X138588809Y-130651187D01*
X138588812Y-130651190D01*
X138703906Y-130737350D01*
X138703913Y-130737354D01*
X138838620Y-130787596D01*
X138838627Y-130787598D01*
X138898155Y-130793999D01*
X138898172Y-130794000D01*
X139450000Y-130794000D01*
X139450000Y-129973012D01*
X139507007Y-130005925D01*
X139634174Y-130040000D01*
X139765826Y-130040000D01*
X139892993Y-130005925D01*
X139950000Y-129973012D01*
X139950000Y-130794000D01*
X140501828Y-130794000D01*
X140501844Y-130793999D01*
X140561372Y-130787598D01*
X140561379Y-130787596D01*
X140696086Y-130737354D01*
X140696093Y-130737350D01*
X140811187Y-130651190D01*
X140811190Y-130651187D01*
X140897350Y-130536093D01*
X140897354Y-130536086D01*
X140947596Y-130401379D01*
X140947598Y-130401372D01*
X140953999Y-130341844D01*
X140954000Y-130341827D01*
X140954000Y-130283833D01*
X140973685Y-130216794D01*
X141026489Y-130171039D01*
X141095647Y-130161095D01*
X141159203Y-130190120D01*
X141179573Y-130212708D01*
X141208736Y-130254356D01*
X141275322Y-130349452D01*
X141275327Y-130349458D01*
X141430541Y-130504672D01*
X141430547Y-130504677D01*
X141610349Y-130630576D01*
X141610351Y-130630577D01*
X141610354Y-130630579D01*
X141809297Y-130723347D01*
X142021326Y-130780161D01*
X142177521Y-130793826D01*
X142239998Y-130799292D01*
X142240000Y-130799292D01*
X142240002Y-130799292D01*
X142300501Y-130793999D01*
X142458674Y-130780161D01*
X142670703Y-130723347D01*
X142869646Y-130630579D01*
X143049457Y-130504674D01*
X143204674Y-130349457D01*
X143330579Y-130169646D01*
X143423347Y-129970703D01*
X143480161Y-129758674D01*
X143499292Y-129540000D01*
X143480161Y-129321326D01*
X143423347Y-129109297D01*
X143330579Y-128910354D01*
X143330577Y-128910351D01*
X143330576Y-128910349D01*
X143204677Y-128730547D01*
X143204672Y-128730541D01*
X143049458Y-128575327D01*
X143049452Y-128575322D01*
X142869650Y-128449423D01*
X142869642Y-128449419D01*
X142670708Y-128356655D01*
X142670706Y-128356654D01*
X142670703Y-128356653D01*
X142519885Y-128316240D01*
X142458675Y-128299839D01*
X142458668Y-128299838D01*
X142240002Y-128280708D01*
X142239998Y-128280708D01*
X142021331Y-128299838D01*
X142021324Y-128299839D01*
X141898902Y-128332642D01*
X141809297Y-128356653D01*
X141809295Y-128356653D01*
X141809291Y-128356655D01*
X141610357Y-128449419D01*
X141610349Y-128449423D01*
X141430547Y-128575322D01*
X141430541Y-128575327D01*
X141275327Y-128730541D01*
X141275322Y-128730548D01*
X141179575Y-128867289D01*
X141124998Y-128910914D01*
X141055500Y-128918107D01*
X140993145Y-128886585D01*
X140957731Y-128826355D01*
X140954000Y-128796166D01*
X140954000Y-128738172D01*
X140953999Y-128738155D01*
X140947598Y-128678627D01*
X140947596Y-128678620D01*
X140897354Y-128543913D01*
X140897350Y-128543906D01*
X140811190Y-128428812D01*
X140811187Y-128428809D01*
X140696093Y-128342649D01*
X140696086Y-128342645D01*
X140561379Y-128292403D01*
X140561372Y-128292401D01*
X140501844Y-128286000D01*
X139950000Y-128286000D01*
X139950000Y-129106988D01*
X139892993Y-129074075D01*
X139765826Y-129040000D01*
X139634174Y-129040000D01*
X139507007Y-129074075D01*
X139450000Y-129106988D01*
X139450000Y-128286000D01*
X138898155Y-128286000D01*
X138838627Y-128292401D01*
X138838620Y-128292403D01*
X138703913Y-128342645D01*
X138703906Y-128342649D01*
X138588812Y-128428809D01*
X138588809Y-128428812D01*
X138502649Y-128543906D01*
X138502645Y-128543913D01*
X138452403Y-128678620D01*
X138452401Y-128678627D01*
X138446000Y-128738155D01*
X133334499Y-128738155D01*
X133334499Y-128738128D01*
X133328091Y-128678517D01*
X133289603Y-128575326D01*
X133277797Y-128543671D01*
X133277793Y-128543664D01*
X133191547Y-128428455D01*
X133191544Y-128428452D01*
X133076335Y-128342206D01*
X133076328Y-128342202D01*
X132941482Y-128291908D01*
X132941483Y-128291908D01*
X132881883Y-128285501D01*
X132881881Y-128285500D01*
X132881873Y-128285500D01*
X132881864Y-128285500D01*
X131278129Y-128285500D01*
X131278123Y-128285501D01*
X131218516Y-128291908D01*
X131083671Y-128342202D01*
X131083664Y-128342206D01*
X130968455Y-128428452D01*
X130968452Y-128428455D01*
X130882206Y-128543664D01*
X130882202Y-128543671D01*
X130831908Y-128678517D01*
X130826315Y-128730543D01*
X130825501Y-128738123D01*
X130825500Y-128738135D01*
X130825500Y-128795452D01*
X130805815Y-128862491D01*
X130753011Y-128908246D01*
X130683853Y-128918190D01*
X130620297Y-128889165D01*
X130599925Y-128866575D01*
X130550124Y-128795452D01*
X130504674Y-128730543D01*
X130349457Y-128575326D01*
X130349455Y-128575325D01*
X130349452Y-128575322D01*
X130169650Y-128449423D01*
X130169642Y-128449419D01*
X129970708Y-128356655D01*
X129970706Y-128356654D01*
X129970703Y-128356653D01*
X129819885Y-128316240D01*
X129758675Y-128299839D01*
X129758668Y-128299838D01*
X129540002Y-128280708D01*
X129539998Y-128280708D01*
X129321331Y-128299838D01*
X129321324Y-128299839D01*
X129198902Y-128332642D01*
X129109297Y-128356653D01*
X129109295Y-128356653D01*
X129109291Y-128356655D01*
X128910357Y-128449419D01*
X128910349Y-128449423D01*
X128730547Y-128575322D01*
X128730541Y-128575327D01*
X128575327Y-128730541D01*
X128575322Y-128730547D01*
X128449423Y-128910349D01*
X128449419Y-128910357D01*
X128356655Y-129109291D01*
X128299839Y-129321324D01*
X128299838Y-129321331D01*
X128297592Y-129347007D01*
X128280708Y-129540000D01*
X125220500Y-129540000D01*
X125220500Y-124459998D01*
X143474532Y-124459998D01*
X143474532Y-124460001D01*
X143494364Y-124686686D01*
X143494366Y-124686697D01*
X143553258Y-124906488D01*
X143553261Y-124906497D01*
X143649431Y-125112732D01*
X143649432Y-125112734D01*
X143779954Y-125299141D01*
X143940858Y-125460045D01*
X143940861Y-125460047D01*
X144127266Y-125590568D01*
X144333504Y-125686739D01*
X144553308Y-125745635D01*
X144715230Y-125759801D01*
X144779998Y-125765468D01*
X144780000Y-125765468D01*
X144780002Y-125765468D01*
X144836673Y-125760509D01*
X145006692Y-125745635D01*
X145226496Y-125686739D01*
X145432734Y-125590568D01*
X145619139Y-125460047D01*
X145780047Y-125299139D01*
X145910568Y-125112734D01*
X146006739Y-124906496D01*
X146065635Y-124686692D01*
X146085468Y-124460000D01*
X146085468Y-124459998D01*
X151094532Y-124459998D01*
X151094532Y-124460001D01*
X151114364Y-124686686D01*
X151114366Y-124686697D01*
X151173258Y-124906488D01*
X151173261Y-124906497D01*
X151269431Y-125112732D01*
X151269432Y-125112734D01*
X151399954Y-125299141D01*
X151560858Y-125460045D01*
X151560861Y-125460047D01*
X151747266Y-125590568D01*
X151953504Y-125686739D01*
X152173308Y-125745635D01*
X152335230Y-125759801D01*
X152399998Y-125765468D01*
X152400000Y-125765468D01*
X152400002Y-125765468D01*
X152456673Y-125760509D01*
X152626692Y-125745635D01*
X152846496Y-125686739D01*
X153052734Y-125590568D01*
X153239139Y-125460047D01*
X153400047Y-125299139D01*
X153530568Y-125112734D01*
X153626739Y-124906496D01*
X153685635Y-124686692D01*
X153705468Y-124460000D01*
X153685635Y-124233308D01*
X153626739Y-124013504D01*
X153530568Y-123807266D01*
X153400047Y-123620861D01*
X153400045Y-123620858D01*
X153239141Y-123459954D01*
X153052734Y-123329432D01*
X153052732Y-123329431D01*
X152846497Y-123233261D01*
X152846488Y-123233258D01*
X152626697Y-123174366D01*
X152626693Y-123174365D01*
X152626692Y-123174365D01*
X152626691Y-123174364D01*
X152626686Y-123174364D01*
X152400002Y-123154532D01*
X152399998Y-123154532D01*
X152173313Y-123174364D01*
X152173302Y-123174366D01*
X151953511Y-123233258D01*
X151953502Y-123233261D01*
X151747267Y-123329431D01*
X151747265Y-123329432D01*
X151560858Y-123459954D01*
X151399954Y-123620858D01*
X151269432Y-123807265D01*
X151269431Y-123807267D01*
X151173261Y-124013502D01*
X151173258Y-124013511D01*
X151114366Y-124233302D01*
X151114364Y-124233313D01*
X151094532Y-124459998D01*
X146085468Y-124459998D01*
X146065635Y-124233308D01*
X146006739Y-124013504D01*
X145910568Y-123807266D01*
X145780047Y-123620861D01*
X145780045Y-123620858D01*
X145619141Y-123459954D01*
X145432734Y-123329432D01*
X145432732Y-123329431D01*
X145226497Y-123233261D01*
X145226488Y-123233258D01*
X145006697Y-123174366D01*
X145006693Y-123174365D01*
X145006692Y-123174365D01*
X145006691Y-123174364D01*
X145006686Y-123174364D01*
X144780002Y-123154532D01*
X144779998Y-123154532D01*
X144553313Y-123174364D01*
X144553302Y-123174366D01*
X144333511Y-123233258D01*
X144333502Y-123233261D01*
X144127267Y-123329431D01*
X144127265Y-123329432D01*
X143940858Y-123459954D01*
X143779954Y-123620858D01*
X143649432Y-123807265D01*
X143649431Y-123807267D01*
X143553261Y-124013502D01*
X143553258Y-124013511D01*
X143494366Y-124233302D01*
X143494364Y-124233313D01*
X143474532Y-124459998D01*
X125220500Y-124459998D01*
X125220500Y-76199998D01*
X128254609Y-76199998D01*
X128254609Y-76200001D01*
X128274136Y-76423200D01*
X128274137Y-76423208D01*
X128332126Y-76639625D01*
X128332127Y-76639627D01*
X128332128Y-76639630D01*
X128420732Y-76829642D01*
X128426819Y-76842696D01*
X128426821Y-76842700D01*
X128555329Y-77026228D01*
X128555334Y-77026234D01*
X128713765Y-77184665D01*
X128713771Y-77184670D01*
X128897299Y-77313178D01*
X128897301Y-77313179D01*
X128897304Y-77313181D01*
X128992600Y-77357618D01*
X129045039Y-77403790D01*
X129064191Y-77470984D01*
X129043975Y-77537865D01*
X128992600Y-77582382D01*
X128897306Y-77626818D01*
X128897304Y-77626819D01*
X128713764Y-77755334D01*
X128555334Y-77913764D01*
X128426819Y-78097304D01*
X128426818Y-78097306D01*
X128332129Y-78300368D01*
X128332126Y-78300374D01*
X128274137Y-78516791D01*
X128274136Y-78516799D01*
X128254609Y-78739998D01*
X128254609Y-78740001D01*
X128274136Y-78963200D01*
X128274137Y-78963208D01*
X128332126Y-79179625D01*
X128332127Y-79179627D01*
X128332128Y-79179630D01*
X128426819Y-79382696D01*
X128426821Y-79382700D01*
X128555329Y-79566228D01*
X128555334Y-79566234D01*
X128713765Y-79724665D01*
X128713771Y-79724670D01*
X128897299Y-79853178D01*
X128897301Y-79853179D01*
X128897304Y-79853181D01*
X128992600Y-79897618D01*
X129045039Y-79943790D01*
X129064191Y-80010984D01*
X129043975Y-80077865D01*
X128992600Y-80122382D01*
X128897306Y-80166818D01*
X128897304Y-80166819D01*
X128713764Y-80295334D01*
X128555334Y-80453764D01*
X128426819Y-80637304D01*
X128426818Y-80637306D01*
X128332129Y-80840368D01*
X128332126Y-80840374D01*
X128274137Y-81056791D01*
X128274136Y-81056799D01*
X128254609Y-81279998D01*
X128254609Y-81280001D01*
X128274136Y-81503200D01*
X128274137Y-81503208D01*
X128332126Y-81719625D01*
X128332127Y-81719627D01*
X128332128Y-81719630D01*
X128426819Y-81922696D01*
X128426821Y-81922700D01*
X128555329Y-82106228D01*
X128555334Y-82106234D01*
X128713765Y-82264665D01*
X128713771Y-82264670D01*
X128897299Y-82393178D01*
X128897301Y-82393179D01*
X128897304Y-82393181D01*
X128992600Y-82437618D01*
X129045039Y-82483790D01*
X129064191Y-82550984D01*
X129043975Y-82617865D01*
X128992600Y-82662382D01*
X128897306Y-82706818D01*
X128897304Y-82706819D01*
X128713764Y-82835334D01*
X128555334Y-82993764D01*
X128426819Y-83177304D01*
X128426818Y-83177306D01*
X128332129Y-83380368D01*
X128332126Y-83380374D01*
X128274137Y-83596791D01*
X128274136Y-83596799D01*
X128254609Y-83819998D01*
X128254609Y-83820001D01*
X128274136Y-84043200D01*
X128274137Y-84043208D01*
X128332126Y-84259625D01*
X128332127Y-84259627D01*
X128332128Y-84259630D01*
X128426819Y-84462696D01*
X128426821Y-84462700D01*
X128555329Y-84646228D01*
X128555334Y-84646234D01*
X128713765Y-84804665D01*
X128713771Y-84804670D01*
X128897299Y-84933178D01*
X128897301Y-84933179D01*
X128897304Y-84933181D01*
X128992600Y-84977618D01*
X129045039Y-85023790D01*
X129064191Y-85090984D01*
X129043975Y-85157865D01*
X128992600Y-85202382D01*
X128897306Y-85246818D01*
X128897304Y-85246819D01*
X128713764Y-85375334D01*
X128555334Y-85533764D01*
X128426819Y-85717304D01*
X128426818Y-85717306D01*
X128332129Y-85920368D01*
X128332126Y-85920374D01*
X128274137Y-86136791D01*
X128274136Y-86136799D01*
X128254609Y-86359998D01*
X128254609Y-86360001D01*
X128274136Y-86583200D01*
X128274137Y-86583208D01*
X128332126Y-86799625D01*
X128332127Y-86799627D01*
X128332128Y-86799630D01*
X128426819Y-87002696D01*
X128426821Y-87002700D01*
X128555329Y-87186228D01*
X128555334Y-87186234D01*
X128713765Y-87344665D01*
X128713771Y-87344670D01*
X128897299Y-87473178D01*
X128897301Y-87473179D01*
X128897304Y-87473181D01*
X128992600Y-87517618D01*
X129045039Y-87563790D01*
X129064191Y-87630984D01*
X129043975Y-87697865D01*
X128992600Y-87742382D01*
X128897306Y-87786818D01*
X128897304Y-87786819D01*
X128713764Y-87915334D01*
X128555334Y-88073764D01*
X128426819Y-88257304D01*
X128426818Y-88257306D01*
X128332129Y-88460368D01*
X128332126Y-88460374D01*
X128274137Y-88676791D01*
X128274136Y-88676799D01*
X128254609Y-88899998D01*
X128254609Y-88900001D01*
X128274136Y-89123200D01*
X128274137Y-89123208D01*
X128332126Y-89339625D01*
X128332127Y-89339627D01*
X128332128Y-89339630D01*
X128426819Y-89542696D01*
X128426821Y-89542700D01*
X128555329Y-89726228D01*
X128555334Y-89726234D01*
X128713765Y-89884665D01*
X128713771Y-89884670D01*
X128897299Y-90013178D01*
X128897301Y-90013179D01*
X128897304Y-90013181D01*
X128992600Y-90057618D01*
X129045039Y-90103790D01*
X129064191Y-90170984D01*
X129043975Y-90237865D01*
X128992600Y-90282382D01*
X128897306Y-90326818D01*
X128897304Y-90326819D01*
X128713764Y-90455334D01*
X128555334Y-90613764D01*
X128426819Y-90797304D01*
X128426818Y-90797306D01*
X128332129Y-91000368D01*
X128332126Y-91000374D01*
X128274137Y-91216791D01*
X128274136Y-91216799D01*
X128254609Y-91439998D01*
X128254609Y-91440001D01*
X128274136Y-91663200D01*
X128274137Y-91663208D01*
X128332126Y-91879625D01*
X128332127Y-91879627D01*
X128332128Y-91879630D01*
X128411745Y-92050370D01*
X128426819Y-92082696D01*
X128426821Y-92082700D01*
X128555329Y-92266228D01*
X128555334Y-92266234D01*
X128713765Y-92424665D01*
X128713771Y-92424670D01*
X128897299Y-92553178D01*
X128897301Y-92553179D01*
X128897304Y-92553181D01*
X128992600Y-92597618D01*
X129045039Y-92643790D01*
X129064191Y-92710984D01*
X129043975Y-92777865D01*
X128992600Y-92822382D01*
X128897306Y-92866818D01*
X128897304Y-92866819D01*
X128713764Y-92995334D01*
X128555334Y-93153764D01*
X128426819Y-93337304D01*
X128426818Y-93337306D01*
X128332129Y-93540368D01*
X128332126Y-93540374D01*
X128274137Y-93756791D01*
X128274136Y-93756799D01*
X128254609Y-93979998D01*
X128254609Y-93980001D01*
X128274136Y-94203200D01*
X128274137Y-94203208D01*
X128332126Y-94419625D01*
X128332127Y-94419627D01*
X128332128Y-94419630D01*
X128384358Y-94531637D01*
X128426819Y-94622696D01*
X128426821Y-94622700D01*
X128555329Y-94806228D01*
X128555334Y-94806234D01*
X128713765Y-94964665D01*
X128713771Y-94964670D01*
X128897299Y-95093178D01*
X128897301Y-95093179D01*
X128897304Y-95093181D01*
X128992600Y-95137618D01*
X129045039Y-95183790D01*
X129064191Y-95250984D01*
X129043975Y-95317865D01*
X128992600Y-95362382D01*
X128897306Y-95406818D01*
X128897304Y-95406819D01*
X128713764Y-95535334D01*
X128555334Y-95693764D01*
X128426819Y-95877304D01*
X128426818Y-95877306D01*
X128332129Y-96080368D01*
X128332126Y-96080374D01*
X128274137Y-96296791D01*
X128274136Y-96296799D01*
X128254609Y-96519998D01*
X128254609Y-96520001D01*
X128274136Y-96743200D01*
X128274137Y-96743208D01*
X128332126Y-96959625D01*
X128332127Y-96959627D01*
X128332128Y-96959630D01*
X128360819Y-97021158D01*
X128426819Y-97162696D01*
X128426821Y-97162700D01*
X128555329Y-97346228D01*
X128555334Y-97346234D01*
X128713765Y-97504665D01*
X128713771Y-97504670D01*
X128897299Y-97633178D01*
X128897301Y-97633179D01*
X128897304Y-97633181D01*
X128992600Y-97677618D01*
X129045039Y-97723790D01*
X129064191Y-97790984D01*
X129043975Y-97857865D01*
X128992600Y-97902382D01*
X128897306Y-97946818D01*
X128897304Y-97946819D01*
X128713764Y-98075334D01*
X128555334Y-98233764D01*
X128426819Y-98417304D01*
X128426818Y-98417306D01*
X128332129Y-98620368D01*
X128332126Y-98620374D01*
X128274137Y-98836791D01*
X128274136Y-98836799D01*
X128254609Y-99059998D01*
X128254609Y-99060001D01*
X128274136Y-99283200D01*
X128274137Y-99283208D01*
X128332126Y-99499625D01*
X128332127Y-99499627D01*
X128332128Y-99499630D01*
X128376317Y-99594394D01*
X128426819Y-99702696D01*
X128426821Y-99702700D01*
X128555329Y-99886228D01*
X128555334Y-99886234D01*
X128713765Y-100044665D01*
X128713771Y-100044670D01*
X128897299Y-100173178D01*
X128897301Y-100173179D01*
X128897304Y-100173181D01*
X128992600Y-100217618D01*
X129045039Y-100263790D01*
X129064191Y-100330984D01*
X129043975Y-100397865D01*
X128992600Y-100442382D01*
X128897306Y-100486818D01*
X128897304Y-100486819D01*
X128713764Y-100615334D01*
X128555334Y-100773764D01*
X128426819Y-100957304D01*
X128426818Y-100957306D01*
X128332129Y-101160368D01*
X128332126Y-101160374D01*
X128274137Y-101376791D01*
X128274136Y-101376799D01*
X128254609Y-101599998D01*
X128254609Y-101600001D01*
X128274136Y-101823200D01*
X128274137Y-101823208D01*
X128332126Y-102039625D01*
X128332127Y-102039627D01*
X128332128Y-102039630D01*
X128426819Y-102242696D01*
X128426821Y-102242700D01*
X128555329Y-102426228D01*
X128555334Y-102426234D01*
X128713765Y-102584665D01*
X128713771Y-102584670D01*
X128897299Y-102713178D01*
X128897301Y-102713179D01*
X128897304Y-102713181D01*
X128992600Y-102757618D01*
X129045039Y-102803790D01*
X129064191Y-102870984D01*
X129043975Y-102937865D01*
X128992600Y-102982382D01*
X128897306Y-103026818D01*
X128897304Y-103026819D01*
X128713764Y-103155334D01*
X128555334Y-103313764D01*
X128426819Y-103497304D01*
X128426818Y-103497306D01*
X128332129Y-103700368D01*
X128332126Y-103700374D01*
X128274137Y-103916791D01*
X128274136Y-103916799D01*
X128254609Y-104139998D01*
X128254609Y-104140001D01*
X128274136Y-104363200D01*
X128274137Y-104363208D01*
X128332126Y-104579625D01*
X128332127Y-104579627D01*
X128332128Y-104579630D01*
X128426819Y-104782696D01*
X128426821Y-104782700D01*
X128555329Y-104966228D01*
X128555334Y-104966234D01*
X128713765Y-105124665D01*
X128713771Y-105124670D01*
X128897299Y-105253178D01*
X128897301Y-105253179D01*
X128897304Y-105253181D01*
X128992600Y-105297618D01*
X129045039Y-105343790D01*
X129064191Y-105410984D01*
X129043975Y-105477865D01*
X128992600Y-105522382D01*
X128897306Y-105566818D01*
X128897304Y-105566819D01*
X128713764Y-105695334D01*
X128555334Y-105853764D01*
X128426819Y-106037304D01*
X128426818Y-106037306D01*
X128332129Y-106240368D01*
X128332126Y-106240374D01*
X128274137Y-106456791D01*
X128274136Y-106456799D01*
X128254609Y-106679998D01*
X128254609Y-106680001D01*
X128274136Y-106903200D01*
X128274137Y-106903208D01*
X128332126Y-107119625D01*
X128332127Y-107119627D01*
X128332128Y-107119630D01*
X128426819Y-107322696D01*
X128426821Y-107322700D01*
X128555329Y-107506228D01*
X128555334Y-107506234D01*
X128713765Y-107664665D01*
X128713771Y-107664670D01*
X128897299Y-107793178D01*
X128897301Y-107793179D01*
X128897304Y-107793181D01*
X128992600Y-107837618D01*
X129045039Y-107883790D01*
X129064191Y-107950984D01*
X129043975Y-108017865D01*
X128992600Y-108062382D01*
X128897306Y-108106818D01*
X128897304Y-108106819D01*
X128713764Y-108235334D01*
X128555334Y-108393764D01*
X128426819Y-108577304D01*
X128426818Y-108577306D01*
X128332129Y-108780368D01*
X128332126Y-108780374D01*
X128274137Y-108996791D01*
X128274136Y-108996799D01*
X128254609Y-109219998D01*
X128254609Y-109220001D01*
X128274136Y-109443200D01*
X128274137Y-109443208D01*
X128332126Y-109659625D01*
X128332127Y-109659627D01*
X128332128Y-109659630D01*
X128426819Y-109862696D01*
X128426821Y-109862700D01*
X128555329Y-110046228D01*
X128555334Y-110046234D01*
X128713765Y-110204665D01*
X128713771Y-110204670D01*
X128897299Y-110333178D01*
X128897301Y-110333179D01*
X128897304Y-110333181D01*
X128992600Y-110377618D01*
X129045039Y-110423790D01*
X129064191Y-110490984D01*
X129043975Y-110557865D01*
X128992600Y-110602382D01*
X128897306Y-110646818D01*
X128897304Y-110646819D01*
X128713764Y-110775334D01*
X128555334Y-110933764D01*
X128426819Y-111117304D01*
X128426818Y-111117306D01*
X128332129Y-111320368D01*
X128332126Y-111320374D01*
X128274137Y-111536791D01*
X128274136Y-111536799D01*
X128254609Y-111759998D01*
X128254609Y-111760001D01*
X128274136Y-111983200D01*
X128274137Y-111983208D01*
X128332126Y-112199625D01*
X128332127Y-112199627D01*
X128332128Y-112199630D01*
X128426819Y-112402696D01*
X128426821Y-112402700D01*
X128555329Y-112586228D01*
X128555334Y-112586234D01*
X128713765Y-112744665D01*
X128713771Y-112744670D01*
X128897299Y-112873178D01*
X128897301Y-112873179D01*
X128897304Y-112873181D01*
X128992600Y-112917618D01*
X129045039Y-112963790D01*
X129064191Y-113030984D01*
X129043975Y-113097865D01*
X128992600Y-113142382D01*
X128897306Y-113186818D01*
X128897304Y-113186819D01*
X128713764Y-113315334D01*
X128555334Y-113473764D01*
X128426819Y-113657304D01*
X128426818Y-113657306D01*
X128332129Y-113860368D01*
X128332126Y-113860374D01*
X128274137Y-114076791D01*
X128274136Y-114076799D01*
X128254609Y-114299998D01*
X128254609Y-114300001D01*
X128274136Y-114523200D01*
X128274137Y-114523208D01*
X128332126Y-114739625D01*
X128332127Y-114739627D01*
X128332128Y-114739630D01*
X128426819Y-114942696D01*
X128426821Y-114942700D01*
X128555329Y-115126228D01*
X128555334Y-115126234D01*
X128713765Y-115284665D01*
X128713771Y-115284670D01*
X128897299Y-115413178D01*
X128897301Y-115413179D01*
X128897304Y-115413181D01*
X128992600Y-115457618D01*
X129045039Y-115503790D01*
X129064191Y-115570984D01*
X129043975Y-115637865D01*
X128992600Y-115682382D01*
X128897306Y-115726818D01*
X128897304Y-115726819D01*
X128713764Y-115855334D01*
X128555334Y-116013764D01*
X128426819Y-116197304D01*
X128426818Y-116197306D01*
X128332129Y-116400368D01*
X128332126Y-116400374D01*
X128274137Y-116616791D01*
X128274136Y-116616799D01*
X128254609Y-116839998D01*
X128254609Y-116840001D01*
X128274136Y-117063200D01*
X128274137Y-117063208D01*
X128332126Y-117279625D01*
X128332127Y-117279627D01*
X128332128Y-117279630D01*
X128426819Y-117482696D01*
X128426821Y-117482700D01*
X128555329Y-117666228D01*
X128555334Y-117666234D01*
X128713765Y-117824665D01*
X128713771Y-117824670D01*
X128897299Y-117953178D01*
X128897301Y-117953179D01*
X128897304Y-117953181D01*
X128972165Y-117988089D01*
X128992600Y-117997618D01*
X129045039Y-118043790D01*
X129064191Y-118110984D01*
X129043975Y-118177865D01*
X128992600Y-118222382D01*
X128897306Y-118266818D01*
X128897304Y-118266819D01*
X128713764Y-118395334D01*
X128555334Y-118553764D01*
X128426819Y-118737304D01*
X128426818Y-118737306D01*
X128332129Y-118940368D01*
X128332126Y-118940374D01*
X128274137Y-119156791D01*
X128274136Y-119156799D01*
X128254609Y-119379998D01*
X128254609Y-119380001D01*
X128274136Y-119603200D01*
X128274137Y-119603208D01*
X128332126Y-119819625D01*
X128332127Y-119819627D01*
X128332128Y-119819630D01*
X128426819Y-120022696D01*
X128426821Y-120022700D01*
X128555329Y-120206228D01*
X128555334Y-120206234D01*
X128713765Y-120364665D01*
X128713771Y-120364670D01*
X128897299Y-120493178D01*
X128897301Y-120493179D01*
X128897304Y-120493181D01*
X129100370Y-120587872D01*
X129316794Y-120645863D01*
X129476226Y-120659811D01*
X129539998Y-120665391D01*
X129540000Y-120665391D01*
X129540002Y-120665391D01*
X129570937Y-120662684D01*
X129763206Y-120645863D01*
X129790828Y-120638461D01*
X129860677Y-120640120D01*
X129910607Y-120670553D01*
X131665324Y-122425271D01*
X131665331Y-122425277D01*
X131771871Y-122496464D01*
X131771870Y-122496464D01*
X131806544Y-122510826D01*
X131890256Y-122545501D01*
X131890260Y-122545501D01*
X131890261Y-122545502D01*
X132015928Y-122570500D01*
X132015931Y-122570500D01*
X157544071Y-122570500D01*
X157628615Y-122553682D01*
X157669744Y-122545501D01*
X157788127Y-122496465D01*
X157894669Y-122425277D01*
X160525276Y-119794670D01*
X160571951Y-119724815D01*
X160596464Y-119688129D01*
X160597553Y-119685500D01*
X160645501Y-119569744D01*
X160670500Y-119444069D01*
X160670500Y-73659997D01*
X166380708Y-73659997D01*
X166380708Y-73660002D01*
X166399838Y-73878668D01*
X166399839Y-73878675D01*
X166416240Y-73939885D01*
X166456653Y-74090703D01*
X166456654Y-74090706D01*
X166456655Y-74090708D01*
X166549419Y-74289642D01*
X166549423Y-74289650D01*
X166675322Y-74469452D01*
X166675327Y-74469458D01*
X166830541Y-74624672D01*
X166830547Y-74624677D01*
X167010349Y-74750576D01*
X167010351Y-74750577D01*
X167010354Y-74750579D01*
X167057894Y-74772747D01*
X167154120Y-74817618D01*
X167206560Y-74863790D01*
X167225712Y-74930983D01*
X167205496Y-74997865D01*
X167154120Y-75042382D01*
X167010357Y-75109419D01*
X167010349Y-75109423D01*
X166830547Y-75235322D01*
X166830541Y-75235327D01*
X166675327Y-75390541D01*
X166675322Y-75390547D01*
X166549423Y-75570349D01*
X166549419Y-75570357D01*
X166456655Y-75769291D01*
X166399839Y-75981324D01*
X166399838Y-75981331D01*
X166380708Y-76199997D01*
X166380708Y-76200000D01*
X166399839Y-76418674D01*
X166456653Y-76630703D01*
X166456654Y-76630706D01*
X166456655Y-76630708D01*
X166549419Y-76829642D01*
X166549423Y-76829650D01*
X166675322Y-77009452D01*
X166675327Y-77009458D01*
X166830541Y-77164672D01*
X166830547Y-77164677D01*
X167010349Y-77290576D01*
X167010351Y-77290577D01*
X167010354Y-77290579D01*
X167209297Y-77383347D01*
X167421326Y-77440161D01*
X167577521Y-77453826D01*
X167639998Y-77459292D01*
X167640000Y-77459292D01*
X167640002Y-77459292D01*
X167694668Y-77454509D01*
X167858674Y-77440161D01*
X168070703Y-77383347D01*
X168269646Y-77290579D01*
X168449457Y-77164674D01*
X168604674Y-77009457D01*
X168730579Y-76829646D01*
X168823347Y-76630703D01*
X168880161Y-76418674D01*
X168899292Y-76200000D01*
X168894396Y-76144039D01*
X168908162Y-76075540D01*
X168956777Y-76025357D01*
X169024806Y-76009423D01*
X169090650Y-76032798D01*
X169105605Y-76045551D01*
X169493181Y-76433127D01*
X169526666Y-76494450D01*
X169529500Y-76520808D01*
X169529500Y-94649902D01*
X169509815Y-94716941D01*
X169493181Y-94737583D01*
X168978547Y-95252216D01*
X168917224Y-95285701D01*
X168847532Y-95280717D01*
X168791599Y-95238845D01*
X168771600Y-95198469D01*
X168721153Y-95021164D01*
X168721150Y-95021158D01*
X168625781Y-94829630D01*
X168496841Y-94658886D01*
X168357251Y-94531633D01*
X168320973Y-94471927D01*
X168322733Y-94402079D01*
X168357251Y-94348366D01*
X168496841Y-94221114D01*
X168625781Y-94050370D01*
X168721151Y-93858840D01*
X168721151Y-93858837D01*
X168721153Y-93858835D01*
X168779703Y-93653050D01*
X168779704Y-93653047D01*
X168799446Y-93440000D01*
X168799446Y-93439999D01*
X168779704Y-93226952D01*
X168779703Y-93226949D01*
X168721153Y-93021164D01*
X168721150Y-93021158D01*
X168708289Y-92995329D01*
X168625781Y-92829630D01*
X168496841Y-92658886D01*
X168357251Y-92531633D01*
X168320973Y-92471927D01*
X168322733Y-92402079D01*
X168357251Y-92348366D01*
X168496841Y-92221114D01*
X168625781Y-92050370D01*
X168721151Y-91858840D01*
X168721151Y-91858837D01*
X168721153Y-91858835D01*
X168776813Y-91663208D01*
X168779704Y-91653048D01*
X168799446Y-91440000D01*
X168779704Y-91226952D01*
X168771200Y-91197065D01*
X168721153Y-91021164D01*
X168721150Y-91021158D01*
X168710798Y-91000368D01*
X168625781Y-90829630D01*
X168496841Y-90658886D01*
X168338722Y-90514742D01*
X168338716Y-90514738D01*
X168338713Y-90514736D01*
X168156813Y-90402108D01*
X168156807Y-90402106D01*
X167957297Y-90324815D01*
X167746980Y-90285500D01*
X167533020Y-90285500D01*
X167322703Y-90324815D01*
X167196533Y-90373693D01*
X167123192Y-90402106D01*
X167123186Y-90402108D01*
X166941286Y-90514736D01*
X166941283Y-90514738D01*
X166941279Y-90514740D01*
X166941278Y-90514742D01*
X166783159Y-90658886D01*
X166783158Y-90658887D01*
X166654219Y-90829629D01*
X166558849Y-91021158D01*
X166558846Y-91021164D01*
X166500296Y-91226949D01*
X166500295Y-91226952D01*
X166480554Y-91439999D01*
X166480554Y-91440000D01*
X166500295Y-91653047D01*
X166500296Y-91653050D01*
X166558846Y-91858835D01*
X166558849Y-91858841D01*
X166654219Y-92050370D01*
X166783160Y-92221116D01*
X166922744Y-92348363D01*
X166959026Y-92408074D01*
X166957265Y-92477922D01*
X166922744Y-92531637D01*
X166783160Y-92658883D01*
X166654219Y-92829629D01*
X166558849Y-93021158D01*
X166558846Y-93021164D01*
X166500296Y-93226949D01*
X166500295Y-93226952D01*
X166480554Y-93439999D01*
X166480554Y-93440000D01*
X166500295Y-93653047D01*
X166500296Y-93653050D01*
X166558846Y-93858835D01*
X166558849Y-93858841D01*
X166654219Y-94050370D01*
X166783160Y-94221116D01*
X166922744Y-94348363D01*
X166959026Y-94408074D01*
X166957265Y-94477922D01*
X166922744Y-94531637D01*
X166783160Y-94658883D01*
X166654219Y-94829629D01*
X166558849Y-95021158D01*
X166558846Y-95021164D01*
X166500296Y-95226949D01*
X166500295Y-95226952D01*
X166480554Y-95439999D01*
X166480554Y-95440000D01*
X166500295Y-95653047D01*
X166500296Y-95653050D01*
X166558846Y-95858835D01*
X166558849Y-95858841D01*
X166654219Y-96050370D01*
X166783160Y-96221116D01*
X166922744Y-96348363D01*
X166959026Y-96408074D01*
X166957265Y-96477922D01*
X166922744Y-96531637D01*
X166783160Y-96658883D01*
X166654219Y-96829629D01*
X166558849Y-97021158D01*
X166558846Y-97021164D01*
X166500296Y-97226949D01*
X166500295Y-97226952D01*
X166480554Y-97439999D01*
X166480554Y-97440000D01*
X166500295Y-97653047D01*
X166500296Y-97653050D01*
X166558846Y-97858835D01*
X166558849Y-97858841D01*
X166654219Y-98050370D01*
X166752575Y-98180615D01*
X166777267Y-98245977D01*
X166762702Y-98314311D01*
X166727932Y-98354608D01*
X166628812Y-98428809D01*
X166628809Y-98428812D01*
X166542649Y-98543906D01*
X166542645Y-98543913D01*
X166492403Y-98678620D01*
X166492401Y-98678627D01*
X166486000Y-98738155D01*
X166486000Y-99190000D01*
X167324314Y-99190000D01*
X167319920Y-99194394D01*
X167267259Y-99285606D01*
X167240000Y-99387339D01*
X167240000Y-99492661D01*
X167267259Y-99594394D01*
X167319920Y-99685606D01*
X167324314Y-99690000D01*
X166486000Y-99690000D01*
X166486000Y-100141844D01*
X166492401Y-100201372D01*
X166492403Y-100201379D01*
X166542645Y-100336086D01*
X166542649Y-100336093D01*
X166628809Y-100451187D01*
X166628812Y-100451190D01*
X166743906Y-100537350D01*
X166743913Y-100537354D01*
X166878620Y-100587596D01*
X166878627Y-100587598D01*
X166938155Y-100593999D01*
X166938172Y-100594000D01*
X167390000Y-100594000D01*
X167390000Y-99755686D01*
X167394394Y-99760080D01*
X167485606Y-99812741D01*
X167587339Y-99840000D01*
X167692661Y-99840000D01*
X167794394Y-99812741D01*
X167885606Y-99760080D01*
X167890000Y-99755686D01*
X167890000Y-100594000D01*
X168341828Y-100594000D01*
X168341844Y-100593999D01*
X168401372Y-100587598D01*
X168401379Y-100587596D01*
X168536086Y-100537354D01*
X168536093Y-100537350D01*
X168651187Y-100451190D01*
X168651190Y-100451187D01*
X168737350Y-100336093D01*
X168737354Y-100336086D01*
X168787596Y-100201379D01*
X168787598Y-100201372D01*
X168793999Y-100141844D01*
X168794000Y-100141827D01*
X168794000Y-99690000D01*
X167955686Y-99690000D01*
X167960080Y-99685606D01*
X168012741Y-99594394D01*
X168040000Y-99492661D01*
X168040000Y-99387339D01*
X168012741Y-99285606D01*
X167960080Y-99194394D01*
X167955686Y-99190000D01*
X168794000Y-99190000D01*
X168794000Y-98738172D01*
X168793999Y-98738155D01*
X168787598Y-98678627D01*
X168787596Y-98678620D01*
X168737354Y-98543913D01*
X168737350Y-98543906D01*
X168651190Y-98428812D01*
X168552066Y-98354607D01*
X168510196Y-98298673D01*
X168505212Y-98228981D01*
X168527424Y-98180615D01*
X168625781Y-98050370D01*
X168721151Y-97858840D01*
X168721151Y-97858837D01*
X168721153Y-97858835D01*
X168779703Y-97653050D01*
X168779704Y-97653047D01*
X168799446Y-97440000D01*
X168799446Y-97439999D01*
X168779704Y-97226955D01*
X168779704Y-97226952D01*
X168779702Y-97226946D01*
X168779521Y-97225975D01*
X168779569Y-97225497D01*
X168779175Y-97221243D01*
X168780007Y-97221165D01*
X168786550Y-97156460D01*
X168813725Y-97115508D01*
X169317820Y-96611414D01*
X169379142Y-96577930D01*
X169448834Y-96582914D01*
X169504767Y-96624786D01*
X169529184Y-96690250D01*
X169529500Y-96699096D01*
X169529500Y-113979191D01*
X169509815Y-114046230D01*
X169493181Y-114066872D01*
X167910871Y-115649181D01*
X167849548Y-115682666D01*
X167823190Y-115685500D01*
X166938129Y-115685500D01*
X166938123Y-115685501D01*
X166878516Y-115691908D01*
X166743671Y-115742202D01*
X166743664Y-115742206D01*
X166628455Y-115828452D01*
X166628452Y-115828455D01*
X166542206Y-115943664D01*
X166542202Y-115943671D01*
X166491908Y-116078517D01*
X166485501Y-116138116D01*
X166485500Y-116138135D01*
X166485500Y-117541870D01*
X166485501Y-117541876D01*
X166491908Y-117601483D01*
X166542202Y-117736328D01*
X166542206Y-117736335D01*
X166628452Y-117851544D01*
X166628455Y-117851547D01*
X166743664Y-117937793D01*
X166743671Y-117937797D01*
X166784910Y-117953178D01*
X166878517Y-117988091D01*
X166938127Y-117994500D01*
X167096693Y-117994499D01*
X167163730Y-118014183D01*
X167184372Y-118030818D01*
X167593554Y-118440000D01*
X167587339Y-118440000D01*
X167485606Y-118467259D01*
X167394394Y-118519920D01*
X167319920Y-118594394D01*
X167267259Y-118685606D01*
X167240000Y-118787339D01*
X167240000Y-118793553D01*
X166663980Y-118217533D01*
X166654646Y-118229893D01*
X166559321Y-118421330D01*
X166559315Y-118421345D01*
X166500789Y-118627043D01*
X166500788Y-118627045D01*
X166481056Y-118839999D01*
X166481056Y-118840000D01*
X166500788Y-119052954D01*
X166500789Y-119052956D01*
X166559315Y-119258654D01*
X166559321Y-119258669D01*
X166654642Y-119450099D01*
X166654647Y-119450107D01*
X166663980Y-119462465D01*
X167240000Y-118886445D01*
X167240000Y-118892661D01*
X167267259Y-118994394D01*
X167319920Y-119085606D01*
X167394394Y-119160080D01*
X167485606Y-119212741D01*
X167587339Y-119240000D01*
X167593554Y-119240000D01*
X167009911Y-119823641D01*
X167004862Y-119853040D01*
X166958796Y-119903894D01*
X166941281Y-119914738D01*
X166941277Y-119914742D01*
X166783160Y-120058884D01*
X166654219Y-120229629D01*
X166558849Y-120421158D01*
X166558846Y-120421164D01*
X166500296Y-120626949D01*
X166500295Y-120626952D01*
X166480554Y-120839999D01*
X166480554Y-120840000D01*
X166500295Y-121053047D01*
X166500296Y-121053050D01*
X166558846Y-121258835D01*
X166558849Y-121258841D01*
X166654219Y-121450370D01*
X166783160Y-121621116D01*
X166922744Y-121748363D01*
X166959026Y-121808074D01*
X166957265Y-121877922D01*
X166922744Y-121931637D01*
X166783160Y-122058883D01*
X166654219Y-122229629D01*
X166558849Y-122421158D01*
X166558846Y-122421164D01*
X166500296Y-122626949D01*
X166500295Y-122626952D01*
X166480554Y-122839999D01*
X166480554Y-122840000D01*
X166500295Y-123053047D01*
X166500296Y-123053050D01*
X166558846Y-123258835D01*
X166558849Y-123258841D01*
X166654219Y-123450370D01*
X166783160Y-123621116D01*
X166922744Y-123748363D01*
X166959026Y-123808074D01*
X166957265Y-123877922D01*
X166922744Y-123931637D01*
X166783160Y-124058883D01*
X166654219Y-124229629D01*
X166558849Y-124421158D01*
X166558846Y-124421164D01*
X166500296Y-124626949D01*
X166500295Y-124626952D01*
X166480554Y-124839999D01*
X166480554Y-124840000D01*
X166500295Y-125053047D01*
X166500296Y-125053050D01*
X166558846Y-125258835D01*
X166558849Y-125258840D01*
X166654219Y-125450370D01*
X166783159Y-125621114D01*
X166941278Y-125765258D01*
X166941283Y-125765261D01*
X166941286Y-125765263D01*
X167123186Y-125877891D01*
X167123187Y-125877891D01*
X167123190Y-125877893D01*
X167322703Y-125955185D01*
X167533020Y-125994500D01*
X167533022Y-125994500D01*
X167746978Y-125994500D01*
X167746980Y-125994500D01*
X167957297Y-125955185D01*
X168156810Y-125877893D01*
X168338722Y-125765258D01*
X168496841Y-125621114D01*
X168625781Y-125450370D01*
X168721151Y-125258840D01*
X168721151Y-125258837D01*
X168721153Y-125258835D01*
X168779703Y-125053050D01*
X168779704Y-125053047D01*
X168799446Y-124840000D01*
X168799446Y-124839999D01*
X168779704Y-124626952D01*
X168779703Y-124626949D01*
X168721153Y-124421164D01*
X168721150Y-124421158D01*
X168625781Y-124229630D01*
X168496841Y-124058886D01*
X168357251Y-123931633D01*
X168320973Y-123871927D01*
X168322733Y-123802079D01*
X168357251Y-123748366D01*
X168496841Y-123621114D01*
X168625781Y-123450370D01*
X168721151Y-123258840D01*
X168721151Y-123258837D01*
X168721153Y-123258835D01*
X168779703Y-123053050D01*
X168779704Y-123053047D01*
X168799446Y-122840000D01*
X168799446Y-122839999D01*
X168779704Y-122626952D01*
X168779703Y-122626949D01*
X168721153Y-122421164D01*
X168721150Y-122421158D01*
X168625781Y-122229630D01*
X168496841Y-122058886D01*
X168357251Y-121931633D01*
X168320973Y-121871927D01*
X168322733Y-121802079D01*
X168357251Y-121748366D01*
X168496841Y-121621114D01*
X168625781Y-121450370D01*
X168721151Y-121258840D01*
X168721151Y-121258837D01*
X168721153Y-121258835D01*
X168779703Y-121053050D01*
X168779704Y-121053047D01*
X168799446Y-120840000D01*
X168799446Y-120839999D01*
X168779704Y-120626952D01*
X168779703Y-120626949D01*
X168721153Y-120421164D01*
X168721150Y-120421158D01*
X168625781Y-120229630D01*
X168496841Y-120058886D01*
X168338722Y-119914742D01*
X168321204Y-119903895D01*
X168274570Y-119851868D01*
X168269831Y-119823385D01*
X167686447Y-119240000D01*
X167692661Y-119240000D01*
X167794394Y-119212741D01*
X167885606Y-119160080D01*
X167960080Y-119085606D01*
X168012741Y-118994394D01*
X168040000Y-118892661D01*
X168040000Y-118886446D01*
X168616018Y-119462464D01*
X168616019Y-119462464D01*
X168625352Y-119450107D01*
X168625355Y-119450102D01*
X168720678Y-119258669D01*
X168720684Y-119258654D01*
X168779210Y-119052956D01*
X168779211Y-119052954D01*
X168798944Y-118840000D01*
X168798944Y-118839999D01*
X168779211Y-118627045D01*
X168779210Y-118627043D01*
X168720684Y-118421345D01*
X168720678Y-118421330D01*
X168625357Y-118229901D01*
X168625355Y-118229898D01*
X168616018Y-118217534D01*
X168040000Y-118793552D01*
X168040000Y-118787339D01*
X168012741Y-118685606D01*
X167960080Y-118594394D01*
X167885606Y-118519920D01*
X167794394Y-118467259D01*
X167692661Y-118440000D01*
X167686447Y-118440000D01*
X168095627Y-118030818D01*
X168156950Y-117997333D01*
X168183306Y-117994499D01*
X168341872Y-117994499D01*
X168401483Y-117988091D01*
X168536331Y-117937796D01*
X168651546Y-117851546D01*
X168737796Y-117736331D01*
X168788091Y-117601483D01*
X168794500Y-117541873D01*
X168794499Y-116656806D01*
X168814183Y-116589768D01*
X168830813Y-116569131D01*
X170685276Y-114714670D01*
X170756465Y-114608127D01*
X170805501Y-114489744D01*
X170830500Y-114364069D01*
X170830500Y-93915931D01*
X170830500Y-86295931D01*
X170830500Y-76135931D01*
X170830500Y-76135928D01*
X170805502Y-76010261D01*
X170805501Y-76010260D01*
X170805501Y-76010256D01*
X170756465Y-75891873D01*
X170756464Y-75891870D01*
X170685277Y-75785331D01*
X170685271Y-75785324D01*
X168909325Y-74009379D01*
X168875840Y-73948056D01*
X168877232Y-73889601D01*
X168880161Y-73878674D01*
X168899292Y-73660000D01*
X168880161Y-73441326D01*
X168823347Y-73229297D01*
X168730579Y-73030354D01*
X168730577Y-73030351D01*
X168730576Y-73030349D01*
X168604677Y-72850547D01*
X168604672Y-72850541D01*
X168449458Y-72695327D01*
X168449451Y-72695322D01*
X168312711Y-72599575D01*
X168269086Y-72544998D01*
X168261893Y-72475500D01*
X168293415Y-72413145D01*
X168353645Y-72377731D01*
X168383834Y-72374000D01*
X168441828Y-72374000D01*
X168441844Y-72373999D01*
X168501372Y-72367598D01*
X168501379Y-72367596D01*
X168636086Y-72317354D01*
X168636093Y-72317350D01*
X168751187Y-72231190D01*
X168751190Y-72231187D01*
X168837350Y-72116093D01*
X168837354Y-72116086D01*
X168887596Y-71981379D01*
X168887598Y-71981372D01*
X168893999Y-71921844D01*
X168894000Y-71921827D01*
X168894000Y-71370000D01*
X168073012Y-71370000D01*
X168105925Y-71312993D01*
X168140000Y-71185826D01*
X168140000Y-71054174D01*
X168105925Y-70927007D01*
X168073012Y-70870000D01*
X168894000Y-70870000D01*
X168894000Y-70318172D01*
X168893999Y-70318155D01*
X168887598Y-70258627D01*
X168887596Y-70258620D01*
X168837354Y-70123913D01*
X168837350Y-70123906D01*
X168751190Y-70008812D01*
X168751187Y-70008809D01*
X168636093Y-69922649D01*
X168636086Y-69922645D01*
X168501379Y-69872403D01*
X168501372Y-69872401D01*
X168441844Y-69866000D01*
X167890000Y-69866000D01*
X167890000Y-70686988D01*
X167832993Y-70654075D01*
X167705826Y-70620000D01*
X167574174Y-70620000D01*
X167447007Y-70654075D01*
X167390000Y-70686988D01*
X167390000Y-69866000D01*
X166838155Y-69866000D01*
X166778627Y-69872401D01*
X166778620Y-69872403D01*
X166643913Y-69922645D01*
X166643906Y-69922649D01*
X166528812Y-70008809D01*
X166528809Y-70008812D01*
X166442649Y-70123906D01*
X166442645Y-70123913D01*
X166392403Y-70258620D01*
X166392401Y-70258627D01*
X166386000Y-70318155D01*
X166386000Y-70870000D01*
X167206988Y-70870000D01*
X167174075Y-70927007D01*
X167140000Y-71054174D01*
X167140000Y-71185826D01*
X167174075Y-71312993D01*
X167206988Y-71370000D01*
X166386000Y-71370000D01*
X166386000Y-71921844D01*
X166392401Y-71981372D01*
X166392403Y-71981379D01*
X166442645Y-72116086D01*
X166442649Y-72116093D01*
X166528809Y-72231187D01*
X166528812Y-72231190D01*
X166643906Y-72317350D01*
X166643913Y-72317354D01*
X166778620Y-72367596D01*
X166778627Y-72367598D01*
X166838155Y-72373999D01*
X166838172Y-72374000D01*
X166896166Y-72374000D01*
X166963205Y-72393685D01*
X167008960Y-72446489D01*
X167018904Y-72515647D01*
X166989879Y-72579203D01*
X166967289Y-72599575D01*
X166830548Y-72695322D01*
X166830541Y-72695327D01*
X166675327Y-72850541D01*
X166675322Y-72850547D01*
X166549423Y-73030349D01*
X166549419Y-73030357D01*
X166456655Y-73229291D01*
X166399839Y-73441324D01*
X166399838Y-73441331D01*
X166380708Y-73659997D01*
X160670500Y-73659997D01*
X160670500Y-69970638D01*
X160690185Y-69903599D01*
X160729401Y-69865100D01*
X160838656Y-69797712D01*
X160962712Y-69673656D01*
X161002581Y-69609016D01*
X161054525Y-69562294D01*
X161123488Y-69551071D01*
X161187570Y-69578914D01*
X161195799Y-69586434D01*
X161303397Y-69694032D01*
X161443475Y-69795804D01*
X161597744Y-69874408D01*
X161762415Y-69927914D01*
X161762414Y-69927914D01*
X161769999Y-69929115D01*
X161770000Y-69929114D01*
X161770000Y-68860330D01*
X161789745Y-68880075D01*
X161875255Y-68929444D01*
X161970630Y-68955000D01*
X162069370Y-68955000D01*
X162164745Y-68929444D01*
X162250255Y-68880075D01*
X162270000Y-68860330D01*
X162270000Y-69929115D01*
X162277584Y-69927914D01*
X162442255Y-69874408D01*
X162596524Y-69795804D01*
X162736602Y-69694032D01*
X162859032Y-69571602D01*
X162960804Y-69431524D01*
X163039408Y-69277257D01*
X163092914Y-69112584D01*
X163120000Y-68941571D01*
X163120000Y-68830000D01*
X162300330Y-68830000D01*
X162320075Y-68810255D01*
X162369444Y-68724745D01*
X162395000Y-68629370D01*
X162395000Y-68530630D01*
X162369444Y-68435255D01*
X162320075Y-68349745D01*
X162300330Y-68330000D01*
X163120000Y-68330000D01*
X163120000Y-68218428D01*
X163092914Y-68047415D01*
X163039408Y-67882742D01*
X162960804Y-67728475D01*
X162859032Y-67588397D01*
X162736602Y-67465967D01*
X162596524Y-67364195D01*
X162442257Y-67285591D01*
X162277589Y-67232087D01*
X162277581Y-67232085D01*
X162270000Y-67230884D01*
X162270000Y-68299670D01*
X162250255Y-68279925D01*
X162164745Y-68230556D01*
X162069370Y-68205000D01*
X161970630Y-68205000D01*
X161875255Y-68230556D01*
X161789745Y-68279925D01*
X161770000Y-68299670D01*
X161770000Y-67230884D01*
X161769999Y-67230884D01*
X161762418Y-67232085D01*
X161762410Y-67232087D01*
X161597742Y-67285591D01*
X161443475Y-67364195D01*
X161303401Y-67465964D01*
X161195799Y-67573566D01*
X161134476Y-67607050D01*
X161064784Y-67602066D01*
X161008851Y-67560194D01*
X161002585Y-67550988D01*
X160962712Y-67486344D01*
X160838656Y-67362288D01*
X160689334Y-67270186D01*
X160522797Y-67215001D01*
X160522795Y-67215000D01*
X160420010Y-67204500D01*
X159619998Y-67204500D01*
X159619980Y-67204501D01*
X159517203Y-67215000D01*
X159517200Y-67215001D01*
X159350668Y-67270185D01*
X159350663Y-67270187D01*
X159201342Y-67362289D01*
X159077289Y-67486342D01*
X158985187Y-67635663D01*
X158985186Y-67635666D01*
X158930001Y-67802203D01*
X158930001Y-67802204D01*
X158930000Y-67802204D01*
X158919500Y-67904983D01*
X158919500Y-69255001D01*
X158919501Y-69255018D01*
X158930000Y-69357796D01*
X158930001Y-69357799D01*
X158985185Y-69524331D01*
X158985186Y-69524334D01*
X159077288Y-69673656D01*
X159201344Y-69797712D01*
X159310597Y-69865099D01*
X159357321Y-69917047D01*
X159369500Y-69970638D01*
X159369500Y-119059192D01*
X159349815Y-119126231D01*
X159333181Y-119146873D01*
X157246873Y-121233181D01*
X157185550Y-121266666D01*
X157159192Y-121269500D01*
X132400808Y-121269500D01*
X132333769Y-121249815D01*
X132313127Y-121233181D01*
X130830553Y-119750607D01*
X130797068Y-119689284D01*
X130798460Y-119630829D01*
X130805863Y-119603206D01*
X130825391Y-119380000D01*
X130805863Y-119156794D01*
X130747872Y-118940370D01*
X130653181Y-118737305D01*
X130524667Y-118553767D01*
X130366233Y-118395333D01*
X130366229Y-118395330D01*
X130366228Y-118395329D01*
X130182700Y-118266821D01*
X130182692Y-118266817D01*
X130087400Y-118222382D01*
X130034960Y-118176210D01*
X130015808Y-118109017D01*
X130036023Y-118042135D01*
X130087400Y-117997618D01*
X130088011Y-117997333D01*
X130182696Y-117953181D01*
X130366233Y-117824667D01*
X130524667Y-117666233D01*
X130653181Y-117482696D01*
X130747872Y-117279630D01*
X130805863Y-117063206D01*
X130825391Y-116840000D01*
X130805863Y-116616794D01*
X130747872Y-116400370D01*
X130653181Y-116197305D01*
X130524667Y-116013767D01*
X130366233Y-115855333D01*
X130366229Y-115855330D01*
X130366228Y-115855329D01*
X130182700Y-115726821D01*
X130182692Y-115726817D01*
X130087400Y-115682382D01*
X130034960Y-115636210D01*
X130015808Y-115569017D01*
X130036023Y-115502135D01*
X130087400Y-115457618D01*
X130182696Y-115413181D01*
X130366233Y-115284667D01*
X130524667Y-115126233D01*
X130653181Y-114942696D01*
X130747872Y-114739630D01*
X130805863Y-114523206D01*
X130825391Y-114300000D01*
X130805863Y-114076794D01*
X130747872Y-113860370D01*
X130653181Y-113657305D01*
X130524667Y-113473767D01*
X130366233Y-113315333D01*
X130366229Y-113315330D01*
X130366228Y-113315329D01*
X130182700Y-113186821D01*
X130182692Y-113186817D01*
X130087400Y-113142382D01*
X130034960Y-113096210D01*
X130015808Y-113029017D01*
X130036023Y-112962135D01*
X130087400Y-112917618D01*
X130182696Y-112873181D01*
X130366233Y-112744667D01*
X130524667Y-112586233D01*
X130653181Y-112402696D01*
X130747872Y-112199630D01*
X130805863Y-111983206D01*
X130825391Y-111760000D01*
X130805863Y-111536794D01*
X130747872Y-111320370D01*
X130653181Y-111117305D01*
X130524667Y-110933767D01*
X130366233Y-110775333D01*
X130366229Y-110775330D01*
X130366228Y-110775329D01*
X130182700Y-110646821D01*
X130182692Y-110646817D01*
X130087400Y-110602382D01*
X130034960Y-110556210D01*
X130015808Y-110489017D01*
X130036023Y-110422135D01*
X130087400Y-110377618D01*
X130182696Y-110333181D01*
X130366233Y-110204667D01*
X130524667Y-110046233D01*
X130653181Y-109862696D01*
X130747872Y-109659630D01*
X130805863Y-109443206D01*
X130825391Y-109220000D01*
X130805863Y-108996794D01*
X130747872Y-108780370D01*
X130653181Y-108577305D01*
X130524667Y-108393767D01*
X130366233Y-108235333D01*
X130366229Y-108235330D01*
X130366228Y-108235329D01*
X130182700Y-108106821D01*
X130182692Y-108106817D01*
X130087400Y-108062382D01*
X130034960Y-108016210D01*
X130015808Y-107949017D01*
X130036023Y-107882135D01*
X130087400Y-107837618D01*
X130182696Y-107793181D01*
X130366233Y-107664667D01*
X130524667Y-107506233D01*
X130653181Y-107322696D01*
X130747872Y-107119630D01*
X130805863Y-106903206D01*
X130825391Y-106680000D01*
X130805863Y-106456794D01*
X130747872Y-106240370D01*
X130653181Y-106037305D01*
X130524667Y-105853767D01*
X130366233Y-105695333D01*
X130366229Y-105695330D01*
X130366228Y-105695329D01*
X130182700Y-105566821D01*
X130182692Y-105566817D01*
X130087400Y-105522382D01*
X130034960Y-105476210D01*
X130015808Y-105409017D01*
X130036023Y-105342135D01*
X130087400Y-105297618D01*
X130182696Y-105253181D01*
X130366233Y-105124667D01*
X130524667Y-104966233D01*
X130653181Y-104782696D01*
X130747872Y-104579630D01*
X130805863Y-104363206D01*
X130825391Y-104140000D01*
X130805863Y-103916794D01*
X130747872Y-103700370D01*
X130653181Y-103497305D01*
X130524667Y-103313767D01*
X130366233Y-103155333D01*
X130366229Y-103155330D01*
X130366228Y-103155329D01*
X130182700Y-103026821D01*
X130182692Y-103026817D01*
X130087400Y-102982382D01*
X130034960Y-102936210D01*
X130015808Y-102869017D01*
X130036023Y-102802135D01*
X130087400Y-102757618D01*
X130182696Y-102713181D01*
X130366233Y-102584667D01*
X130524667Y-102426233D01*
X130653181Y-102242696D01*
X130747872Y-102039630D01*
X130805863Y-101823206D01*
X130825391Y-101600000D01*
X130805863Y-101376794D01*
X130747872Y-101160370D01*
X130653181Y-100957305D01*
X130524667Y-100773767D01*
X130366233Y-100615333D01*
X130366229Y-100615330D01*
X130366228Y-100615329D01*
X130182700Y-100486821D01*
X130182692Y-100486817D01*
X130087400Y-100442382D01*
X130034960Y-100396210D01*
X130015808Y-100329017D01*
X130036023Y-100262135D01*
X130087400Y-100217618D01*
X130182696Y-100173181D01*
X130366233Y-100044667D01*
X130524667Y-99886233D01*
X130653181Y-99702696D01*
X130747872Y-99499630D01*
X130805863Y-99283206D01*
X130825391Y-99060000D01*
X130805863Y-98836794D01*
X130747872Y-98620370D01*
X130653181Y-98417305D01*
X130581064Y-98314311D01*
X130524668Y-98233768D01*
X130471514Y-98180614D01*
X130366233Y-98075333D01*
X130366229Y-98075330D01*
X130366228Y-98075329D01*
X130182700Y-97946821D01*
X130182692Y-97946817D01*
X130087400Y-97902382D01*
X130034960Y-97856210D01*
X130015808Y-97789017D01*
X130036023Y-97722135D01*
X130087400Y-97677618D01*
X130182696Y-97633181D01*
X130366233Y-97504667D01*
X130524667Y-97346233D01*
X130653181Y-97162696D01*
X130747872Y-96959630D01*
X130805863Y-96743206D01*
X130825391Y-96520000D01*
X130805863Y-96296794D01*
X130747872Y-96080370D01*
X130653181Y-95877305D01*
X130524667Y-95693767D01*
X130366233Y-95535333D01*
X130366229Y-95535330D01*
X130366228Y-95535329D01*
X130182700Y-95406821D01*
X130182692Y-95406817D01*
X130087400Y-95362382D01*
X130034960Y-95316210D01*
X130015808Y-95249017D01*
X130036023Y-95182135D01*
X130087400Y-95137618D01*
X130182696Y-95093181D01*
X130366233Y-94964667D01*
X130524667Y-94806233D01*
X130653181Y-94622696D01*
X130747872Y-94419630D01*
X130805863Y-94203206D01*
X130825391Y-93980000D01*
X130805863Y-93756794D01*
X130747872Y-93540370D01*
X130653181Y-93337305D01*
X130524667Y-93153767D01*
X130366233Y-92995333D01*
X130366229Y-92995330D01*
X130366228Y-92995329D01*
X130182700Y-92866821D01*
X130182692Y-92866817D01*
X130102944Y-92829630D01*
X130087399Y-92822381D01*
X130034960Y-92776210D01*
X130015808Y-92709017D01*
X130036023Y-92642135D01*
X130087400Y-92597618D01*
X130182696Y-92553181D01*
X130366233Y-92424667D01*
X130524667Y-92266233D01*
X130653181Y-92082696D01*
X130747872Y-91879630D01*
X130805863Y-91663206D01*
X130825391Y-91440000D01*
X130805863Y-91216794D01*
X130747872Y-91000370D01*
X130653181Y-90797305D01*
X130556260Y-90658887D01*
X130524668Y-90613768D01*
X130524664Y-90613764D01*
X130366233Y-90455333D01*
X130366229Y-90455330D01*
X130366228Y-90455329D01*
X130182700Y-90326821D01*
X130182692Y-90326817D01*
X130087400Y-90282382D01*
X130034960Y-90236210D01*
X130015808Y-90169017D01*
X130036023Y-90102135D01*
X130087400Y-90057618D01*
X130182696Y-90013181D01*
X130366233Y-89884667D01*
X130524667Y-89726233D01*
X130653181Y-89542696D01*
X130747872Y-89339630D01*
X130805863Y-89123206D01*
X130825391Y-88900000D01*
X130805863Y-88676794D01*
X130747872Y-88460370D01*
X130653181Y-88257305D01*
X130524667Y-88073767D01*
X130366233Y-87915333D01*
X130366229Y-87915330D01*
X130366228Y-87915329D01*
X130182700Y-87786821D01*
X130182692Y-87786817D01*
X130087400Y-87742382D01*
X130034960Y-87696210D01*
X130015808Y-87629017D01*
X130036023Y-87562135D01*
X130087400Y-87517618D01*
X130182696Y-87473181D01*
X130366233Y-87344667D01*
X130524667Y-87186233D01*
X130653181Y-87002696D01*
X130747872Y-86799630D01*
X130805863Y-86583206D01*
X130825391Y-86360000D01*
X130805863Y-86136794D01*
X130747872Y-85920370D01*
X130653181Y-85717305D01*
X130524667Y-85533767D01*
X130366233Y-85375333D01*
X130366229Y-85375330D01*
X130366228Y-85375329D01*
X130182700Y-85246821D01*
X130182692Y-85246817D01*
X130087400Y-85202382D01*
X130034960Y-85156210D01*
X130015808Y-85089017D01*
X130036023Y-85022135D01*
X130087400Y-84977618D01*
X130182696Y-84933181D01*
X130366233Y-84804667D01*
X130524667Y-84646233D01*
X130653181Y-84462696D01*
X130747872Y-84259630D01*
X130805863Y-84043206D01*
X130825391Y-83820000D01*
X130805863Y-83596794D01*
X130747872Y-83380370D01*
X130653181Y-83177305D01*
X130524667Y-82993767D01*
X130366233Y-82835333D01*
X130366229Y-82835330D01*
X130366228Y-82835329D01*
X130182700Y-82706821D01*
X130182692Y-82706817D01*
X130087400Y-82662382D01*
X130034960Y-82616210D01*
X130015808Y-82549017D01*
X130036023Y-82482135D01*
X130087400Y-82437618D01*
X130182696Y-82393181D01*
X130366233Y-82264667D01*
X130524667Y-82106233D01*
X130653181Y-81922696D01*
X130747872Y-81719630D01*
X130805863Y-81503206D01*
X130825391Y-81280000D01*
X130805863Y-81056794D01*
X130747872Y-80840370D01*
X130653181Y-80637305D01*
X130524667Y-80453767D01*
X130366233Y-80295333D01*
X130366229Y-80295330D01*
X130366228Y-80295329D01*
X130182700Y-80166821D01*
X130182692Y-80166817D01*
X130087400Y-80122382D01*
X130034960Y-80076210D01*
X130015808Y-80009017D01*
X130036023Y-79942135D01*
X130087400Y-79897618D01*
X130182696Y-79853181D01*
X130366233Y-79724667D01*
X130524667Y-79566233D01*
X130653181Y-79382696D01*
X130747872Y-79179630D01*
X130805863Y-78963206D01*
X130825391Y-78740000D01*
X130805863Y-78516794D01*
X130747872Y-78300370D01*
X130653181Y-78097305D01*
X130524667Y-77913767D01*
X130366233Y-77755333D01*
X130366229Y-77755330D01*
X130366228Y-77755329D01*
X130182700Y-77626821D01*
X130182692Y-77626817D01*
X130087400Y-77582382D01*
X130034960Y-77536210D01*
X130015808Y-77469017D01*
X130036023Y-77402135D01*
X130087400Y-77357618D01*
X130182696Y-77313181D01*
X130366233Y-77184667D01*
X130524667Y-77026233D01*
X130653181Y-76842696D01*
X130747872Y-76639630D01*
X130805863Y-76423206D01*
X130825391Y-76200000D01*
X130825391Y-76199998D01*
X153654609Y-76199998D01*
X153654609Y-76200001D01*
X153674136Y-76423200D01*
X153674137Y-76423208D01*
X153732126Y-76639625D01*
X153732127Y-76639627D01*
X153732128Y-76639630D01*
X153820732Y-76829642D01*
X153826819Y-76842696D01*
X153826821Y-76842700D01*
X153955329Y-77026228D01*
X153955334Y-77026234D01*
X154113765Y-77184665D01*
X154113771Y-77184670D01*
X154297299Y-77313178D01*
X154297301Y-77313179D01*
X154297304Y-77313181D01*
X154392600Y-77357618D01*
X154445039Y-77403790D01*
X154464191Y-77470984D01*
X154443975Y-77537865D01*
X154392600Y-77582382D01*
X154297306Y-77626818D01*
X154297304Y-77626819D01*
X154113764Y-77755334D01*
X153955334Y-77913764D01*
X153826819Y-78097304D01*
X153826818Y-78097306D01*
X153732129Y-78300368D01*
X153732126Y-78300374D01*
X153674137Y-78516791D01*
X153674136Y-78516799D01*
X153654609Y-78739998D01*
X153654609Y-78740001D01*
X153674136Y-78963200D01*
X153674137Y-78963208D01*
X153732126Y-79179625D01*
X153732127Y-79179627D01*
X153732128Y-79179630D01*
X153826819Y-79382696D01*
X153826821Y-79382700D01*
X153955329Y-79566228D01*
X153955334Y-79566234D01*
X154113765Y-79724665D01*
X154113771Y-79724670D01*
X154297299Y-79853178D01*
X154297301Y-79853179D01*
X154297304Y-79853181D01*
X154392600Y-79897618D01*
X154445039Y-79943790D01*
X154464191Y-80010984D01*
X154443975Y-80077865D01*
X154392600Y-80122382D01*
X154297306Y-80166818D01*
X154297304Y-80166819D01*
X154113764Y-80295334D01*
X153955334Y-80453764D01*
X153826819Y-80637304D01*
X153826818Y-80637306D01*
X153732129Y-80840368D01*
X153732126Y-80840374D01*
X153674137Y-81056791D01*
X153674136Y-81056799D01*
X153654609Y-81279998D01*
X153654609Y-81280001D01*
X153674136Y-81503200D01*
X153674137Y-81503208D01*
X153732126Y-81719625D01*
X153732127Y-81719627D01*
X153732128Y-81719630D01*
X153826819Y-81922696D01*
X153826821Y-81922700D01*
X153955329Y-82106228D01*
X153955334Y-82106234D01*
X154113765Y-82264665D01*
X154113771Y-82264670D01*
X154297299Y-82393178D01*
X154297301Y-82393179D01*
X154297304Y-82393181D01*
X154392600Y-82437618D01*
X154445039Y-82483790D01*
X154464191Y-82550984D01*
X154443975Y-82617865D01*
X154392600Y-82662382D01*
X154297306Y-82706818D01*
X154297304Y-82706819D01*
X154113764Y-82835334D01*
X153955334Y-82993764D01*
X153826819Y-83177304D01*
X153826818Y-83177306D01*
X153732129Y-83380368D01*
X153732126Y-83380374D01*
X153674137Y-83596791D01*
X153674136Y-83596799D01*
X153654609Y-83819998D01*
X153654609Y-83820001D01*
X153674136Y-84043200D01*
X153674137Y-84043208D01*
X153732126Y-84259625D01*
X153732127Y-84259627D01*
X153732128Y-84259630D01*
X153826819Y-84462696D01*
X153826821Y-84462700D01*
X153955329Y-84646228D01*
X153955334Y-84646234D01*
X154113765Y-84804665D01*
X154113771Y-84804670D01*
X154297299Y-84933178D01*
X154297301Y-84933179D01*
X154297304Y-84933181D01*
X154392600Y-84977618D01*
X154445039Y-85023790D01*
X154464191Y-85090984D01*
X154443975Y-85157865D01*
X154392600Y-85202382D01*
X154297306Y-85246818D01*
X154297304Y-85246819D01*
X154113764Y-85375334D01*
X153955334Y-85533764D01*
X153826819Y-85717304D01*
X153826818Y-85717306D01*
X153732129Y-85920368D01*
X153732126Y-85920374D01*
X153674137Y-86136791D01*
X153674136Y-86136799D01*
X153654609Y-86359998D01*
X153654609Y-86360001D01*
X153674136Y-86583200D01*
X153674137Y-86583208D01*
X153732126Y-86799625D01*
X153732127Y-86799627D01*
X153732128Y-86799630D01*
X153826819Y-87002696D01*
X153826821Y-87002700D01*
X153955329Y-87186228D01*
X153955334Y-87186234D01*
X154113765Y-87344665D01*
X154113771Y-87344670D01*
X154297299Y-87473178D01*
X154297301Y-87473179D01*
X154297304Y-87473181D01*
X154392600Y-87517618D01*
X154445039Y-87563790D01*
X154464191Y-87630984D01*
X154443975Y-87697865D01*
X154392600Y-87742382D01*
X154297306Y-87786818D01*
X154297304Y-87786819D01*
X154113764Y-87915334D01*
X153955334Y-88073764D01*
X153826819Y-88257304D01*
X153826818Y-88257306D01*
X153732129Y-88460368D01*
X153732126Y-88460374D01*
X153674137Y-88676791D01*
X153674136Y-88676799D01*
X153654609Y-88899998D01*
X153654609Y-88900001D01*
X153674136Y-89123200D01*
X153674137Y-89123208D01*
X153732126Y-89339625D01*
X153732127Y-89339627D01*
X153732128Y-89339630D01*
X153826819Y-89542696D01*
X153826821Y-89542700D01*
X153955329Y-89726228D01*
X153955334Y-89726234D01*
X154113765Y-89884665D01*
X154113771Y-89884670D01*
X154297299Y-90013178D01*
X154297301Y-90013179D01*
X154297304Y-90013181D01*
X154392600Y-90057618D01*
X154445039Y-90103790D01*
X154464191Y-90170984D01*
X154443975Y-90237865D01*
X154392600Y-90282382D01*
X154297306Y-90326818D01*
X154297304Y-90326819D01*
X154113764Y-90455334D01*
X153955334Y-90613764D01*
X153826819Y-90797304D01*
X153826818Y-90797306D01*
X153732129Y-91000368D01*
X153732126Y-91000374D01*
X153674137Y-91216791D01*
X153674136Y-91216799D01*
X153654609Y-91439998D01*
X153654609Y-91440001D01*
X153674136Y-91663200D01*
X153674137Y-91663208D01*
X153732126Y-91879625D01*
X153732127Y-91879627D01*
X153732128Y-91879630D01*
X153811745Y-92050370D01*
X153826819Y-92082696D01*
X153826821Y-92082700D01*
X153955329Y-92266228D01*
X153955334Y-92266234D01*
X154113765Y-92424665D01*
X154113771Y-92424670D01*
X154297299Y-92553178D01*
X154297301Y-92553179D01*
X154297304Y-92553181D01*
X154392600Y-92597618D01*
X154445039Y-92643790D01*
X154464191Y-92710984D01*
X154443975Y-92777865D01*
X154392600Y-92822382D01*
X154297306Y-92866818D01*
X154297304Y-92866819D01*
X154113764Y-92995334D01*
X153955334Y-93153764D01*
X153826819Y-93337304D01*
X153826818Y-93337306D01*
X153732129Y-93540368D01*
X153732126Y-93540374D01*
X153674137Y-93756791D01*
X153674136Y-93756799D01*
X153654609Y-93979998D01*
X153654609Y-93980001D01*
X153674136Y-94203200D01*
X153674137Y-94203208D01*
X153732126Y-94419625D01*
X153732127Y-94419627D01*
X153732128Y-94419630D01*
X153784358Y-94531637D01*
X153826819Y-94622696D01*
X153826821Y-94622700D01*
X153955329Y-94806228D01*
X153955334Y-94806234D01*
X154113765Y-94964665D01*
X154113771Y-94964670D01*
X154297299Y-95093178D01*
X154297301Y-95093179D01*
X154297304Y-95093181D01*
X154392600Y-95137618D01*
X154445039Y-95183790D01*
X154464191Y-95250984D01*
X154443975Y-95317865D01*
X154392600Y-95362382D01*
X154297306Y-95406818D01*
X154297304Y-95406819D01*
X154113764Y-95535334D01*
X153955334Y-95693764D01*
X153826819Y-95877304D01*
X153826818Y-95877306D01*
X153732129Y-96080368D01*
X153732126Y-96080374D01*
X153674137Y-96296791D01*
X153674136Y-96296799D01*
X153654609Y-96519998D01*
X153654609Y-96520001D01*
X153674136Y-96743200D01*
X153674137Y-96743208D01*
X153732126Y-96959625D01*
X153732127Y-96959627D01*
X153732128Y-96959630D01*
X153760819Y-97021158D01*
X153826819Y-97162696D01*
X153826821Y-97162700D01*
X153955329Y-97346228D01*
X153955334Y-97346234D01*
X154113765Y-97504665D01*
X154113771Y-97504670D01*
X154297299Y-97633178D01*
X154297301Y-97633179D01*
X154297304Y-97633181D01*
X154392600Y-97677618D01*
X154445039Y-97723790D01*
X154464191Y-97790984D01*
X154443975Y-97857865D01*
X154392600Y-97902382D01*
X154297306Y-97946818D01*
X154297304Y-97946819D01*
X154113764Y-98075334D01*
X153955334Y-98233764D01*
X153826819Y-98417304D01*
X153826818Y-98417306D01*
X153732129Y-98620368D01*
X153732126Y-98620374D01*
X153674137Y-98836791D01*
X153674136Y-98836799D01*
X153654609Y-99059998D01*
X153654609Y-99060001D01*
X153674136Y-99283200D01*
X153674137Y-99283208D01*
X153732126Y-99499625D01*
X153732127Y-99499627D01*
X153732128Y-99499630D01*
X153776317Y-99594394D01*
X153826819Y-99702696D01*
X153826821Y-99702700D01*
X153955329Y-99886228D01*
X153955334Y-99886234D01*
X154113765Y-100044665D01*
X154113771Y-100044670D01*
X154297299Y-100173178D01*
X154297301Y-100173179D01*
X154297304Y-100173181D01*
X154392600Y-100217618D01*
X154445039Y-100263790D01*
X154464191Y-100330984D01*
X154443975Y-100397865D01*
X154392600Y-100442382D01*
X154297306Y-100486818D01*
X154297304Y-100486819D01*
X154113764Y-100615334D01*
X153955334Y-100773764D01*
X153826819Y-100957304D01*
X153826818Y-100957306D01*
X153732129Y-101160368D01*
X153732126Y-101160374D01*
X153674137Y-101376791D01*
X153674136Y-101376799D01*
X153654609Y-101599998D01*
X153654609Y-101600001D01*
X153674136Y-101823200D01*
X153674137Y-101823208D01*
X153732126Y-102039625D01*
X153732127Y-102039627D01*
X153732128Y-102039630D01*
X153826819Y-102242696D01*
X153826821Y-102242700D01*
X153955329Y-102426228D01*
X153955334Y-102426234D01*
X154113765Y-102584665D01*
X154113771Y-102584670D01*
X154297299Y-102713178D01*
X154297301Y-102713179D01*
X154297304Y-102713181D01*
X154392600Y-102757618D01*
X154445039Y-102803790D01*
X154464191Y-102870984D01*
X154443975Y-102937865D01*
X154392600Y-102982382D01*
X154297306Y-103026818D01*
X154297304Y-103026819D01*
X154113764Y-103155334D01*
X153955334Y-103313764D01*
X153826819Y-103497304D01*
X153826818Y-103497306D01*
X153732129Y-103700368D01*
X153732126Y-103700374D01*
X153674137Y-103916791D01*
X153674136Y-103916799D01*
X153654609Y-104139998D01*
X153654609Y-104140001D01*
X153674136Y-104363200D01*
X153674137Y-104363208D01*
X153732126Y-104579625D01*
X153732127Y-104579627D01*
X153732128Y-104579630D01*
X153826819Y-104782696D01*
X153826821Y-104782700D01*
X153955329Y-104966228D01*
X153955334Y-104966234D01*
X154113765Y-105124665D01*
X154113771Y-105124670D01*
X154297299Y-105253178D01*
X154297301Y-105253179D01*
X154297304Y-105253181D01*
X154392600Y-105297618D01*
X154445039Y-105343790D01*
X154464191Y-105410984D01*
X154443975Y-105477865D01*
X154392600Y-105522382D01*
X154297306Y-105566818D01*
X154297304Y-105566819D01*
X154113764Y-105695334D01*
X153955334Y-105853764D01*
X153826819Y-106037304D01*
X153826818Y-106037306D01*
X153732129Y-106240368D01*
X153732126Y-106240374D01*
X153674137Y-106456791D01*
X153674136Y-106456799D01*
X153654609Y-106679998D01*
X153654609Y-106680001D01*
X153674136Y-106903200D01*
X153674137Y-106903208D01*
X153732126Y-107119625D01*
X153732127Y-107119627D01*
X153732128Y-107119630D01*
X153826819Y-107322696D01*
X153826821Y-107322700D01*
X153955329Y-107506228D01*
X153955334Y-107506234D01*
X154113765Y-107664665D01*
X154113771Y-107664670D01*
X154297299Y-107793178D01*
X154297301Y-107793179D01*
X154297304Y-107793181D01*
X154392600Y-107837618D01*
X154445039Y-107883790D01*
X154464191Y-107950984D01*
X154443975Y-108017865D01*
X154392600Y-108062382D01*
X154297306Y-108106818D01*
X154297304Y-108106819D01*
X154113764Y-108235334D01*
X153955334Y-108393764D01*
X153826819Y-108577304D01*
X153826818Y-108577306D01*
X153732129Y-108780368D01*
X153732126Y-108780374D01*
X153674137Y-108996791D01*
X153674136Y-108996799D01*
X153654609Y-109219998D01*
X153654609Y-109220001D01*
X153674136Y-109443200D01*
X153674137Y-109443208D01*
X153732126Y-109659625D01*
X153732127Y-109659627D01*
X153732128Y-109659630D01*
X153826819Y-109862696D01*
X153826821Y-109862700D01*
X153955329Y-110046228D01*
X153955334Y-110046234D01*
X154113765Y-110204665D01*
X154113771Y-110204670D01*
X154297299Y-110333178D01*
X154297301Y-110333179D01*
X154297304Y-110333181D01*
X154392600Y-110377618D01*
X154445039Y-110423790D01*
X154464191Y-110490984D01*
X154443975Y-110557865D01*
X154392600Y-110602382D01*
X154297306Y-110646818D01*
X154297304Y-110646819D01*
X154113764Y-110775334D01*
X153955334Y-110933764D01*
X153826819Y-111117304D01*
X153826818Y-111117306D01*
X153732129Y-111320368D01*
X153732126Y-111320374D01*
X153674137Y-111536791D01*
X153674136Y-111536799D01*
X153654609Y-111759998D01*
X153654609Y-111760001D01*
X153674136Y-111983200D01*
X153674137Y-111983208D01*
X153732126Y-112199625D01*
X153732127Y-112199627D01*
X153732128Y-112199630D01*
X153826819Y-112402696D01*
X153826821Y-112402700D01*
X153955329Y-112586228D01*
X153955334Y-112586234D01*
X154113765Y-112744665D01*
X154113771Y-112744670D01*
X154297299Y-112873178D01*
X154297301Y-112873179D01*
X154297304Y-112873181D01*
X154392600Y-112917618D01*
X154445039Y-112963790D01*
X154464191Y-113030984D01*
X154443975Y-113097865D01*
X154392600Y-113142382D01*
X154297306Y-113186818D01*
X154297304Y-113186819D01*
X154113764Y-113315334D01*
X153955334Y-113473764D01*
X153826819Y-113657304D01*
X153826818Y-113657306D01*
X153732129Y-113860368D01*
X153732126Y-113860374D01*
X153674137Y-114076791D01*
X153674136Y-114076799D01*
X153654609Y-114299998D01*
X153654609Y-114300001D01*
X153674136Y-114523200D01*
X153674137Y-114523208D01*
X153732126Y-114739625D01*
X153732127Y-114739627D01*
X153732128Y-114739630D01*
X153826819Y-114942696D01*
X153826821Y-114942700D01*
X153955329Y-115126228D01*
X153955334Y-115126234D01*
X154113765Y-115284665D01*
X154113771Y-115284670D01*
X154297299Y-115413178D01*
X154297301Y-115413179D01*
X154297304Y-115413181D01*
X154392600Y-115457618D01*
X154445039Y-115503790D01*
X154464191Y-115570984D01*
X154443975Y-115637865D01*
X154392600Y-115682382D01*
X154297306Y-115726818D01*
X154297304Y-115726819D01*
X154113764Y-115855334D01*
X153955334Y-116013764D01*
X153826819Y-116197304D01*
X153826818Y-116197306D01*
X153732129Y-116400368D01*
X153732126Y-116400374D01*
X153674137Y-116616791D01*
X153674136Y-116616799D01*
X153654609Y-116839998D01*
X153654609Y-116840001D01*
X153674136Y-117063200D01*
X153674137Y-117063208D01*
X153732126Y-117279625D01*
X153732127Y-117279627D01*
X153732128Y-117279630D01*
X153826819Y-117482696D01*
X153826821Y-117482700D01*
X153955329Y-117666228D01*
X153955334Y-117666234D01*
X154113765Y-117824665D01*
X154113771Y-117824670D01*
X154297299Y-117953178D01*
X154297301Y-117953179D01*
X154297304Y-117953181D01*
X154372165Y-117988089D01*
X154392600Y-117997618D01*
X154445039Y-118043790D01*
X154464191Y-118110984D01*
X154443975Y-118177865D01*
X154392600Y-118222382D01*
X154297306Y-118266818D01*
X154297304Y-118266819D01*
X154113764Y-118395334D01*
X153955334Y-118553764D01*
X153826819Y-118737304D01*
X153826818Y-118737306D01*
X153732129Y-118940368D01*
X153732126Y-118940374D01*
X153674137Y-119156791D01*
X153674136Y-119156799D01*
X153654609Y-119379998D01*
X153654609Y-119380001D01*
X153674136Y-119603200D01*
X153674137Y-119603208D01*
X153732126Y-119819625D01*
X153732127Y-119819627D01*
X153732128Y-119819630D01*
X153826819Y-120022696D01*
X153826821Y-120022700D01*
X153955329Y-120206228D01*
X153955334Y-120206234D01*
X154113765Y-120364665D01*
X154113771Y-120364670D01*
X154297299Y-120493178D01*
X154297301Y-120493179D01*
X154297304Y-120493181D01*
X154500370Y-120587872D01*
X154716794Y-120645863D01*
X154876226Y-120659811D01*
X154939998Y-120665391D01*
X154940000Y-120665391D01*
X154940002Y-120665391D01*
X154995801Y-120660509D01*
X155163206Y-120645863D01*
X155379630Y-120587872D01*
X155582696Y-120493181D01*
X155766233Y-120364667D01*
X155924667Y-120206233D01*
X156053181Y-120022696D01*
X156147872Y-119819630D01*
X156205863Y-119603206D01*
X156225391Y-119380000D01*
X156205863Y-119156794D01*
X156147872Y-118940370D01*
X156053181Y-118737305D01*
X155924667Y-118553767D01*
X155766233Y-118395333D01*
X155766229Y-118395330D01*
X155766228Y-118395329D01*
X155582700Y-118266821D01*
X155582692Y-118266817D01*
X155487400Y-118222382D01*
X155434960Y-118176210D01*
X155415808Y-118109017D01*
X155436023Y-118042135D01*
X155487400Y-117997618D01*
X155488011Y-117997333D01*
X155582696Y-117953181D01*
X155766233Y-117824667D01*
X155924667Y-117666233D01*
X156053181Y-117482696D01*
X156147872Y-117279630D01*
X156205863Y-117063206D01*
X156225391Y-116840000D01*
X156205863Y-116616794D01*
X156147872Y-116400370D01*
X156053181Y-116197305D01*
X155924667Y-116013767D01*
X155766233Y-115855333D01*
X155766229Y-115855330D01*
X155766228Y-115855329D01*
X155582700Y-115726821D01*
X155582692Y-115726817D01*
X155487400Y-115682382D01*
X155434960Y-115636210D01*
X155415808Y-115569017D01*
X155436023Y-115502135D01*
X155487400Y-115457618D01*
X155582696Y-115413181D01*
X155766233Y-115284667D01*
X155924667Y-115126233D01*
X156053181Y-114942696D01*
X156147872Y-114739630D01*
X156205863Y-114523206D01*
X156225391Y-114300000D01*
X156205863Y-114076794D01*
X156147872Y-113860370D01*
X156053181Y-113657305D01*
X155924667Y-113473767D01*
X155766233Y-113315333D01*
X155766229Y-113315330D01*
X155766228Y-113315329D01*
X155582700Y-113186821D01*
X155582692Y-113186817D01*
X155487400Y-113142382D01*
X155434960Y-113096210D01*
X155415808Y-113029017D01*
X155436023Y-112962135D01*
X155487400Y-112917618D01*
X155582696Y-112873181D01*
X155766233Y-112744667D01*
X155924667Y-112586233D01*
X156053181Y-112402696D01*
X156147872Y-112199630D01*
X156205863Y-111983206D01*
X156225391Y-111760000D01*
X156205863Y-111536794D01*
X156147872Y-111320370D01*
X156053181Y-111117305D01*
X155924667Y-110933767D01*
X155766233Y-110775333D01*
X155766229Y-110775330D01*
X155766228Y-110775329D01*
X155582700Y-110646821D01*
X155582692Y-110646817D01*
X155487400Y-110602382D01*
X155434960Y-110556210D01*
X155415808Y-110489017D01*
X155436023Y-110422135D01*
X155487400Y-110377618D01*
X155582696Y-110333181D01*
X155766233Y-110204667D01*
X155924667Y-110046233D01*
X156053181Y-109862696D01*
X156147872Y-109659630D01*
X156205863Y-109443206D01*
X156225391Y-109220000D01*
X156205863Y-108996794D01*
X156147872Y-108780370D01*
X156053181Y-108577305D01*
X155924667Y-108393767D01*
X155766233Y-108235333D01*
X155766229Y-108235330D01*
X155766228Y-108235329D01*
X155582700Y-108106821D01*
X155582692Y-108106817D01*
X155487400Y-108062382D01*
X155434960Y-108016210D01*
X155415808Y-107949017D01*
X155436023Y-107882135D01*
X155487400Y-107837618D01*
X155582696Y-107793181D01*
X155766233Y-107664667D01*
X155924667Y-107506233D01*
X156053181Y-107322696D01*
X156147872Y-107119630D01*
X156205863Y-106903206D01*
X156225391Y-106680000D01*
X156205863Y-106456794D01*
X156147872Y-106240370D01*
X156053181Y-106037305D01*
X155924667Y-105853767D01*
X155766233Y-105695333D01*
X155766229Y-105695330D01*
X155766228Y-105695329D01*
X155582700Y-105566821D01*
X155582692Y-105566817D01*
X155487400Y-105522382D01*
X155434960Y-105476210D01*
X155415808Y-105409017D01*
X155436023Y-105342135D01*
X155487400Y-105297618D01*
X155582696Y-105253181D01*
X155766233Y-105124667D01*
X155924667Y-104966233D01*
X156053181Y-104782696D01*
X156147872Y-104579630D01*
X156205863Y-104363206D01*
X156225391Y-104140000D01*
X156205863Y-103916794D01*
X156147872Y-103700370D01*
X156053181Y-103497305D01*
X155924667Y-103313767D01*
X155766233Y-103155333D01*
X155766229Y-103155330D01*
X155766228Y-103155329D01*
X155582700Y-103026821D01*
X155582692Y-103026817D01*
X155487400Y-102982382D01*
X155434960Y-102936210D01*
X155415808Y-102869017D01*
X155436023Y-102802135D01*
X155487400Y-102757618D01*
X155582696Y-102713181D01*
X155766233Y-102584667D01*
X155924667Y-102426233D01*
X156053181Y-102242696D01*
X156147872Y-102039630D01*
X156205863Y-101823206D01*
X156225391Y-101600000D01*
X156205863Y-101376794D01*
X156147872Y-101160370D01*
X156053181Y-100957305D01*
X155924667Y-100773767D01*
X155766233Y-100615333D01*
X155766229Y-100615330D01*
X155766228Y-100615329D01*
X155582700Y-100486821D01*
X155582692Y-100486817D01*
X155487400Y-100442382D01*
X155434960Y-100396210D01*
X155415808Y-100329017D01*
X155436023Y-100262135D01*
X155487400Y-100217618D01*
X155582696Y-100173181D01*
X155766233Y-100044667D01*
X155924667Y-99886233D01*
X156053181Y-99702696D01*
X156147872Y-99499630D01*
X156205863Y-99283206D01*
X156225391Y-99060000D01*
X156205863Y-98836794D01*
X156147872Y-98620370D01*
X156053181Y-98417305D01*
X155981064Y-98314311D01*
X155924668Y-98233768D01*
X155871514Y-98180614D01*
X155766233Y-98075333D01*
X155766229Y-98075330D01*
X155766228Y-98075329D01*
X155582700Y-97946821D01*
X155582692Y-97946817D01*
X155487400Y-97902382D01*
X155434960Y-97856210D01*
X155415808Y-97789017D01*
X155436023Y-97722135D01*
X155487400Y-97677618D01*
X155582696Y-97633181D01*
X155766233Y-97504667D01*
X155924667Y-97346233D01*
X156053181Y-97162696D01*
X156147872Y-96959630D01*
X156205863Y-96743206D01*
X156225391Y-96520000D01*
X156205863Y-96296794D01*
X156147872Y-96080370D01*
X156053181Y-95877305D01*
X155924667Y-95693767D01*
X155766233Y-95535333D01*
X155766229Y-95535330D01*
X155766228Y-95535329D01*
X155582700Y-95406821D01*
X155582692Y-95406817D01*
X155487400Y-95362382D01*
X155434960Y-95316210D01*
X155415808Y-95249017D01*
X155436023Y-95182135D01*
X155487400Y-95137618D01*
X155582696Y-95093181D01*
X155766233Y-94964667D01*
X155924667Y-94806233D01*
X156053181Y-94622696D01*
X156147872Y-94419630D01*
X156205863Y-94203206D01*
X156225391Y-93980000D01*
X156205863Y-93756794D01*
X156147872Y-93540370D01*
X156053181Y-93337305D01*
X155924667Y-93153767D01*
X155766233Y-92995333D01*
X155766229Y-92995330D01*
X155766228Y-92995329D01*
X155582700Y-92866821D01*
X155582692Y-92866817D01*
X155502944Y-92829630D01*
X155487399Y-92822381D01*
X155434960Y-92776210D01*
X155415808Y-92709017D01*
X155436023Y-92642135D01*
X155487400Y-92597618D01*
X155582696Y-92553181D01*
X155766233Y-92424667D01*
X155924667Y-92266233D01*
X156053181Y-92082696D01*
X156147872Y-91879630D01*
X156205863Y-91663206D01*
X156225391Y-91440000D01*
X156205863Y-91216794D01*
X156147872Y-91000370D01*
X156053181Y-90797305D01*
X155956260Y-90658887D01*
X155924668Y-90613768D01*
X155924664Y-90613764D01*
X155766233Y-90455333D01*
X155766229Y-90455330D01*
X155766228Y-90455329D01*
X155582700Y-90326821D01*
X155582692Y-90326817D01*
X155487400Y-90282382D01*
X155434960Y-90236210D01*
X155415808Y-90169017D01*
X155436023Y-90102135D01*
X155487400Y-90057618D01*
X155582696Y-90013181D01*
X155766233Y-89884667D01*
X155924667Y-89726233D01*
X156053181Y-89542696D01*
X156147872Y-89339630D01*
X156205863Y-89123206D01*
X156225391Y-88900000D01*
X156205863Y-88676794D01*
X156147872Y-88460370D01*
X156053181Y-88257305D01*
X155924667Y-88073767D01*
X155766233Y-87915333D01*
X155766229Y-87915330D01*
X155766228Y-87915329D01*
X155582700Y-87786821D01*
X155582692Y-87786817D01*
X155487400Y-87742382D01*
X155434960Y-87696210D01*
X155415808Y-87629017D01*
X155436023Y-87562135D01*
X155487400Y-87517618D01*
X155582696Y-87473181D01*
X155766233Y-87344667D01*
X155924667Y-87186233D01*
X156053181Y-87002696D01*
X156147872Y-86799630D01*
X156205863Y-86583206D01*
X156225391Y-86360000D01*
X156205863Y-86136794D01*
X156147872Y-85920370D01*
X156053181Y-85717305D01*
X155924667Y-85533767D01*
X155766233Y-85375333D01*
X155766229Y-85375330D01*
X155766228Y-85375329D01*
X155582700Y-85246821D01*
X155582692Y-85246817D01*
X155487400Y-85202382D01*
X155434960Y-85156210D01*
X155415808Y-85089017D01*
X155436023Y-85022135D01*
X155487400Y-84977618D01*
X155582696Y-84933181D01*
X155766233Y-84804667D01*
X155924667Y-84646233D01*
X156053181Y-84462696D01*
X156147872Y-84259630D01*
X156205863Y-84043206D01*
X156225391Y-83820000D01*
X156205863Y-83596794D01*
X156147872Y-83380370D01*
X156053181Y-83177305D01*
X155924667Y-82993767D01*
X155766233Y-82835333D01*
X155766229Y-82835330D01*
X155766228Y-82835329D01*
X155582700Y-82706821D01*
X155582692Y-82706817D01*
X155487400Y-82662382D01*
X155434960Y-82616210D01*
X155415808Y-82549017D01*
X155436023Y-82482135D01*
X155487400Y-82437618D01*
X155582696Y-82393181D01*
X155766233Y-82264667D01*
X155924667Y-82106233D01*
X156053181Y-81922696D01*
X156147872Y-81719630D01*
X156205863Y-81503206D01*
X156225391Y-81280000D01*
X156205863Y-81056794D01*
X156147872Y-80840370D01*
X156053181Y-80637305D01*
X155924667Y-80453767D01*
X155766233Y-80295333D01*
X155766229Y-80295330D01*
X155766228Y-80295329D01*
X155582700Y-80166821D01*
X155582692Y-80166817D01*
X155487400Y-80122382D01*
X155434960Y-80076210D01*
X155415808Y-80009017D01*
X155436023Y-79942135D01*
X155487400Y-79897618D01*
X155582696Y-79853181D01*
X155766233Y-79724667D01*
X155924667Y-79566233D01*
X156053181Y-79382696D01*
X156147872Y-79179630D01*
X156205863Y-78963206D01*
X156225391Y-78740000D01*
X156205863Y-78516794D01*
X156147872Y-78300370D01*
X156053181Y-78097305D01*
X155924667Y-77913767D01*
X155766233Y-77755333D01*
X155766229Y-77755330D01*
X155766228Y-77755329D01*
X155582700Y-77626821D01*
X155582692Y-77626817D01*
X155487400Y-77582382D01*
X155434960Y-77536210D01*
X155415808Y-77469017D01*
X155436023Y-77402135D01*
X155487400Y-77357618D01*
X155582696Y-77313181D01*
X155766233Y-77184667D01*
X155924667Y-77026233D01*
X156053181Y-76842696D01*
X156147872Y-76639630D01*
X156205863Y-76423206D01*
X156225391Y-76200000D01*
X156205863Y-75976794D01*
X156147872Y-75760370D01*
X156053181Y-75557305D01*
X155988924Y-75465536D01*
X155924668Y-75373768D01*
X155924664Y-75373764D01*
X155766233Y-75215333D01*
X155766229Y-75215330D01*
X155766228Y-75215329D01*
X155582700Y-75086821D01*
X155582696Y-75086819D01*
X155486807Y-75042105D01*
X155434369Y-74995934D01*
X155415217Y-74928740D01*
X155435433Y-74861859D01*
X155486809Y-74817341D01*
X155582450Y-74772743D01*
X155582451Y-74772742D01*
X155651112Y-74724665D01*
X155085739Y-74159292D01*
X155140712Y-74144563D01*
X155259287Y-74076104D01*
X155356104Y-73979287D01*
X155424563Y-73860712D01*
X155439292Y-73805739D01*
X156004665Y-74371112D01*
X156052742Y-74302451D01*
X156052746Y-74302445D01*
X156147399Y-74099459D01*
X156147403Y-74099450D01*
X156205367Y-73883124D01*
X156205369Y-73883113D01*
X156224889Y-73660002D01*
X156224889Y-73659997D01*
X156205369Y-73436886D01*
X156205367Y-73436875D01*
X156147403Y-73220549D01*
X156147399Y-73220540D01*
X156052747Y-73017557D01*
X156052746Y-73017555D01*
X156004664Y-72948887D01*
X156004664Y-72948886D01*
X155439292Y-73514259D01*
X155424563Y-73459288D01*
X155356104Y-73340713D01*
X155259287Y-73243896D01*
X155140712Y-73175437D01*
X155085738Y-73160707D01*
X155651112Y-72595334D01*
X155651112Y-72595333D01*
X155582445Y-72547253D01*
X155582443Y-72547252D01*
X155379459Y-72452600D01*
X155379450Y-72452596D01*
X155163124Y-72394632D01*
X155163113Y-72394630D01*
X154940002Y-72375111D01*
X154939998Y-72375111D01*
X154716886Y-72394630D01*
X154716875Y-72394632D01*
X154500549Y-72452596D01*
X154500540Y-72452600D01*
X154297556Y-72547253D01*
X154228887Y-72595334D01*
X154794260Y-73160707D01*
X154739288Y-73175437D01*
X154620713Y-73243896D01*
X154523896Y-73340713D01*
X154455437Y-73459288D01*
X154440707Y-73514260D01*
X153875334Y-72948887D01*
X153827253Y-73017556D01*
X153732600Y-73220540D01*
X153732596Y-73220549D01*
X153674632Y-73436875D01*
X153674630Y-73436886D01*
X153655111Y-73659997D01*
X153655111Y-73660002D01*
X153674630Y-73883113D01*
X153674632Y-73883124D01*
X153732596Y-74099450D01*
X153732600Y-74099459D01*
X153827252Y-74302443D01*
X153827253Y-74302445D01*
X153875334Y-74371112D01*
X154440707Y-73805739D01*
X154455437Y-73860712D01*
X154523896Y-73979287D01*
X154620713Y-74076104D01*
X154739288Y-74144563D01*
X154794259Y-74159292D01*
X154228886Y-74724664D01*
X154297556Y-74772747D01*
X154297558Y-74772748D01*
X154393190Y-74817342D01*
X154445630Y-74863514D01*
X154464782Y-74930707D01*
X154444567Y-74997588D01*
X154393191Y-75042106D01*
X154307389Y-75082117D01*
X154297303Y-75086820D01*
X154113764Y-75215334D01*
X153955334Y-75373764D01*
X153826819Y-75557304D01*
X153826818Y-75557306D01*
X153732129Y-75760368D01*
X153732126Y-75760374D01*
X153674137Y-75976791D01*
X153674136Y-75976799D01*
X153654609Y-76199998D01*
X130825391Y-76199998D01*
X130805863Y-75976794D01*
X130747872Y-75760370D01*
X130653181Y-75557305D01*
X130588924Y-75465536D01*
X130524668Y-75373768D01*
X130524664Y-75373764D01*
X130366233Y-75215333D01*
X130366229Y-75215330D01*
X130366228Y-75215329D01*
X130295884Y-75166074D01*
X130252259Y-75111497D01*
X130245065Y-75041999D01*
X130276588Y-74979644D01*
X130336817Y-74944230D01*
X130364570Y-74940800D01*
X130364564Y-74940676D01*
X130366347Y-74940580D01*
X130367007Y-74940499D01*
X130367871Y-74940499D01*
X130367872Y-74940499D01*
X130427483Y-74934091D01*
X130562331Y-74883796D01*
X130677546Y-74797546D01*
X130763796Y-74682331D01*
X130814091Y-74547483D01*
X130820500Y-74487873D01*
X130820499Y-72832128D01*
X130814091Y-72772517D01*
X130763796Y-72637669D01*
X130763795Y-72637668D01*
X130763793Y-72637664D01*
X130677547Y-72522455D01*
X130677544Y-72522452D01*
X130562335Y-72436206D01*
X130562328Y-72436202D01*
X130427482Y-72385908D01*
X130427483Y-72385908D01*
X130367883Y-72379501D01*
X130367881Y-72379500D01*
X130367873Y-72379500D01*
X130367864Y-72379500D01*
X128712129Y-72379500D01*
X128712123Y-72379501D01*
X128652516Y-72385908D01*
X128517671Y-72436202D01*
X128517664Y-72436206D01*
X128402455Y-72522452D01*
X128402452Y-72522455D01*
X128316206Y-72637664D01*
X128316202Y-72637671D01*
X128265908Y-72772517D01*
X128259501Y-72832116D01*
X128259501Y-72832123D01*
X128259500Y-72832135D01*
X128259500Y-74487870D01*
X128259501Y-74487876D01*
X128265908Y-74547483D01*
X128316202Y-74682328D01*
X128316206Y-74682335D01*
X128402452Y-74797544D01*
X128402455Y-74797547D01*
X128517664Y-74883793D01*
X128517671Y-74883797D01*
X128561546Y-74900161D01*
X128652517Y-74934091D01*
X128712127Y-74940500D01*
X128712964Y-74940499D01*
X128713149Y-74940554D01*
X128715453Y-74940678D01*
X128715423Y-74941221D01*
X128780006Y-74960168D01*
X128825773Y-75012961D01*
X128835733Y-75082117D01*
X128806723Y-75145679D01*
X128784115Y-75166073D01*
X128713766Y-75215332D01*
X128555334Y-75373764D01*
X128426819Y-75557304D01*
X128426818Y-75557306D01*
X128332129Y-75760368D01*
X128332126Y-75760374D01*
X128274137Y-75976791D01*
X128274136Y-75976799D01*
X128254609Y-76199998D01*
X125220500Y-76199998D01*
X125220500Y-64244500D01*
X125240185Y-64177461D01*
X125292989Y-64131706D01*
X125344500Y-64120500D01*
X172095500Y-64120500D01*
X172162539Y-64140185D01*
G37*
%TD.AperFunction*%
%TD*%
M02*
