%TF.GenerationSoftware,KiCad,Pcbnew,8.0.7*%
%TF.CreationDate,2026-01-16T18:15:21+00:00*%
%TF.ProjectId,ris_command-module,7269735f-636f-46d6-9d61-6e642d6d6f64,rev?*%
%TF.SameCoordinates,Original*%
%TF.FileFunction,Soldermask,Bot*%
%TF.FilePolarity,Negative*%
%FSLAX46Y46*%
G04 Gerber Fmt 4.6, Leading zero omitted, Abs format (unit mm)*
G04 Created by KiCad (PCBNEW 8.0.7) date 2026-01-16 18:15:21*
%MOMM*%
%LPD*%
G01*
G04 APERTURE LIST*
G04 Aperture macros list*
%AMRoundRect*
0 Rectangle with rounded corners*
0 $1 Rounding radius*
0 $2 $3 $4 $5 $6 $7 $8 $9 X,Y pos of 4 corners*
0 Add a 4 corners polygon primitive as box body*
4,1,4,$2,$3,$4,$5,$6,$7,$8,$9,$2,$3,0*
0 Add four circle primitives for the rounded corners*
1,1,$1+$1,$2,$3*
1,1,$1+$1,$4,$5*
1,1,$1+$1,$6,$7*
1,1,$1+$1,$8,$9*
0 Add four rect primitives between the rounded corners*
20,1,$1+$1,$2,$3,$4,$5,0*
20,1,$1+$1,$4,$5,$6,$7,0*
20,1,$1+$1,$6,$7,$8,$9,0*
20,1,$1+$1,$8,$9,$2,$3,0*%
G04 Aperture macros list end*
%ADD10RoundRect,0.102000X-0.654000X0.654000X-0.654000X-0.654000X0.654000X-0.654000X0.654000X0.654000X0*%
%ADD11C,1.512000*%
%ADD12C,1.600000*%
%ADD13O,1.600000X1.600000*%
%ADD14RoundRect,0.102000X0.654000X-0.654000X0.654000X0.654000X-0.654000X0.654000X-0.654000X-0.654000X0*%
%ADD15RoundRect,0.102000X-0.780000X-0.780000X0.780000X-0.780000X0.780000X0.780000X-0.780000X0.780000X0*%
%ADD16C,1.764000*%
%ADD17C,1.712000*%
%ADD18RoundRect,0.102000X-0.754000X-0.754000X0.754000X-0.754000X0.754000X0.754000X-0.754000X0.754000X0*%
%ADD19RoundRect,0.250000X-0.350000X-0.625000X0.350000X-0.625000X0.350000X0.625000X-0.350000X0.625000X0*%
%ADD20O,1.200000X1.750000*%
%ADD21RoundRect,0.102000X0.754000X-0.754000X0.754000X0.754000X-0.754000X0.754000X-0.754000X-0.754000X0*%
G04 APERTURE END LIST*
D10*
%TO.C,J3*%
X167640000Y-99440000D03*
D11*
X167640000Y-97440000D03*
X167640000Y-95440000D03*
X167640000Y-93440000D03*
X167640000Y-91440000D03*
%TD*%
D12*
%TO.C,R1*%
X144780000Y-124460000D03*
D13*
X152400000Y-124460000D03*
%TD*%
D14*
%TO.C,J2*%
X167640000Y-116840000D03*
D11*
X167640000Y-118840000D03*
X167640000Y-120840000D03*
X167640000Y-122840000D03*
X167640000Y-124840000D03*
%TD*%
D15*
%TO.C,U6*%
X129540000Y-73660000D03*
D16*
X129540000Y-76200000D03*
X129540000Y-78740000D03*
X129540000Y-81280000D03*
X129540000Y-83820000D03*
X129540000Y-86360000D03*
X129540000Y-88900000D03*
X129540000Y-91440000D03*
X129540000Y-93980000D03*
X129540000Y-96520000D03*
X129540000Y-99060000D03*
X129540000Y-101600000D03*
X129540000Y-104140000D03*
X129540000Y-106680000D03*
X129540000Y-109220000D03*
X129540000Y-111760000D03*
X129540000Y-114300000D03*
X129540000Y-116840000D03*
X129540000Y-119380000D03*
X154940000Y-73660000D03*
X154940000Y-76200000D03*
X154940000Y-78740000D03*
X154940000Y-81280000D03*
X154940000Y-83820000D03*
X154940000Y-86360000D03*
X154940000Y-88900000D03*
X154940000Y-91440000D03*
X154940000Y-93980000D03*
X154940000Y-96520000D03*
X154940000Y-99060000D03*
X154940000Y-101600000D03*
X154940000Y-104140000D03*
X154940000Y-106680000D03*
X154940000Y-109220000D03*
X154940000Y-111760000D03*
X154940000Y-114300000D03*
X154940000Y-116840000D03*
X154940000Y-119380000D03*
%TD*%
D17*
%TO.C,L1*%
X142240000Y-129540000D03*
D18*
X139700000Y-129540000D03*
%TD*%
D19*
%TO.C,J1*%
X160020000Y-68580000D03*
D20*
X162020000Y-68580000D03*
%TD*%
D18*
%TO.C,SW1*%
X132080000Y-129540000D03*
D17*
X129540000Y-129540000D03*
%TD*%
D21*
%TO.C,J4*%
X167640000Y-71120000D03*
D17*
X167640000Y-73660000D03*
X167640000Y-76200000D03*
%TD*%
M02*
