%TF.GenerationSoftware,KiCad,Pcbnew,8.0.7*%
%TF.CreationDate,2026-01-16T18:15:20+00:00*%
%TF.ProjectId,ris_command-module,7269735f-636f-46d6-9d61-6e642d6d6f64,rev?*%
%TF.SameCoordinates,Original*%
%TF.FileFunction,Copper,L1,Top*%
%TF.FilePolarity,Positive*%
%FSLAX46Y46*%
G04 Gerber Fmt 4.6, Leading zero omitted, Abs format (unit mm)*
G04 Created by KiCad (PCBNEW 8.0.7) date 2026-01-16 18:15:20*
%MOMM*%
%LPD*%
G01*
G04 APERTURE LIST*
G04 Aperture macros list*
%AMRoundRect*
0 Rectangle with rounded corners*
0 $1 Rounding radius*
0 $2 $3 $4 $5 $6 $7 $8 $9 X,Y pos of 4 corners*
0 Add a 4 corners polygon primitive as box body*
4,1,4,$2,$3,$4,$5,$6,$7,$8,$9,$2,$3,0*
0 Add four circle primitives for the rounded corners*
1,1,$1+$1,$2,$3*
1,1,$1+$1,$4,$5*
1,1,$1+$1,$6,$7*
1,1,$1+$1,$8,$9*
0 Add four rect primitives between the rounded corners*
20,1,$1+$1,$2,$3,$4,$5,0*
20,1,$1+$1,$4,$5,$6,$7,0*
20,1,$1+$1,$6,$7,$8,$9,0*
20,1,$1+$1,$8,$9,$2,$3,0*%
G04 Aperture macros list end*
%TA.AperFunction,ComponentPad*%
%ADD10R,1.308000X1.308000*%
%TD*%
%TA.AperFunction,ComponentPad*%
%ADD11C,1.308000*%
%TD*%
%TA.AperFunction,ComponentPad*%
%ADD12C,1.600000*%
%TD*%
%TA.AperFunction,ComponentPad*%
%ADD13O,1.600000X1.600000*%
%TD*%
%TA.AperFunction,ComponentPad*%
%ADD14R,1.560000X1.560000*%
%TD*%
%TA.AperFunction,ComponentPad*%
%ADD15C,1.560000*%
%TD*%
%TA.AperFunction,ComponentPad*%
%ADD16C,1.508000*%
%TD*%
%TA.AperFunction,ComponentPad*%
%ADD17R,1.508000X1.508000*%
%TD*%
%TA.AperFunction,ComponentPad*%
%ADD18RoundRect,0.250000X-0.350000X-0.625000X0.350000X-0.625000X0.350000X0.625000X-0.350000X0.625000X0*%
%TD*%
%TA.AperFunction,ComponentPad*%
%ADD19O,1.200000X1.750000*%
%TD*%
%TA.AperFunction,Conductor*%
%ADD20C,0.300000*%
%TD*%
%TA.AperFunction,Conductor*%
%ADD21C,0.200000*%
%TD*%
G04 APERTURE END LIST*
D10*
%TO.P,J3,1,Pin_1*%
%TO.N,GND*%
X167640000Y-99440000D03*
D11*
%TO.P,J3,2,Pin_2*%
%TO.N,+3.3V*%
X167640000Y-97440000D03*
%TO.P,J3,3,Pin_3*%
%TO.N,Net-(J3-Pin_3)*%
X167640000Y-95440000D03*
%TO.P,J3,4,Pin_4*%
%TO.N,Net-(J3-Pin_4)*%
X167640000Y-93440000D03*
%TO.P,J3,5,Pin_5*%
%TO.N,unconnected-(J3-Pin_5-Pad5)*%
X167640000Y-91440000D03*
%TD*%
D12*
%TO.P,R1,1*%
%TO.N,Net-(L1-PadA)*%
X144780000Y-124460000D03*
D13*
%TO.P,R1,2*%
%TO.N,Net-(U6-IO19)*%
X152400000Y-124460000D03*
%TD*%
D10*
%TO.P,J2,1,Pin_1*%
%TO.N,+3.3V*%
X167640000Y-116840000D03*
D11*
%TO.P,J2,2,Pin_2*%
%TO.N,GND*%
X167640000Y-118840000D03*
%TO.P,J2,3,Pin_3*%
%TO.N,Net-(J2-Pin_3)*%
X167640000Y-120840000D03*
%TO.P,J2,4,Pin_4*%
%TO.N,Net-(J2-Pin_4)*%
X167640000Y-122840000D03*
%TO.P,J2,5,Pin_5*%
%TO.N,Net-(J2-Pin_5)*%
X167640000Y-124840000D03*
%TD*%
D14*
%TO.P,U6,J2-1,3V3*%
%TO.N,+3.3V*%
X129540000Y-73660000D03*
D15*
%TO.P,U6,J2-2,EN*%
%TO.N,unconnected-(U6-EN-PadJ2-2)*%
X129540000Y-76200000D03*
%TO.P,U6,J2-3,SENSOR_VP*%
%TO.N,unconnected-(U6-SENSOR_VP-PadJ2-3)*%
X129540000Y-78740000D03*
%TO.P,U6,J2-4,SENSOR_VN*%
%TO.N,unconnected-(U6-SENSOR_VN-PadJ2-4)*%
X129540000Y-81280000D03*
%TO.P,U6,J2-5,IO34*%
%TO.N,unconnected-(U6-IO34-PadJ2-5)*%
X129540000Y-83820000D03*
%TO.P,U6,J2-6,IO35*%
%TO.N,unconnected-(U6-IO35-PadJ2-6)*%
X129540000Y-86360000D03*
%TO.P,U6,J2-7,IO32*%
%TO.N,unconnected-(U6-IO32-PadJ2-7)*%
X129540000Y-88900000D03*
%TO.P,U6,J2-8,IO33*%
%TO.N,unconnected-(U6-IO33-PadJ2-8)*%
X129540000Y-91440000D03*
%TO.P,U6,J2-9,IO25*%
%TO.N,Net-(U6-IO25)*%
X129540000Y-93980000D03*
%TO.P,U6,J2-10,IO26*%
%TO.N,unconnected-(U6-IO26-PadJ2-10)*%
X129540000Y-96520000D03*
%TO.P,U6,J2-11,IO27*%
%TO.N,unconnected-(U6-IO27-PadJ2-11)*%
X129540000Y-99060000D03*
%TO.P,U6,J2-12,IO14*%
%TO.N,unconnected-(U6-IO14-PadJ2-12)*%
X129540000Y-101600000D03*
%TO.P,U6,J2-13,IO12*%
%TO.N,unconnected-(U6-IO12-PadJ2-13)*%
X129540000Y-104140000D03*
%TO.P,U6,J2-14,GND1*%
%TO.N,unconnected-(U6-GND1-PadJ2-14)*%
X129540000Y-106680000D03*
%TO.P,U6,J2-15,IO13*%
%TO.N,unconnected-(U6-IO13-PadJ2-15)*%
X129540000Y-109220000D03*
%TO.P,U6,J2-16,SD2*%
%TO.N,unconnected-(U6-SD2-PadJ2-16)*%
X129540000Y-111760000D03*
%TO.P,U6,J2-17,SD3*%
%TO.N,unconnected-(U6-SD3-PadJ2-17)*%
X129540000Y-114300000D03*
%TO.P,U6,J2-18,CMD*%
%TO.N,unconnected-(U6-CMD-PadJ2-18)*%
X129540000Y-116840000D03*
%TO.P,U6,J2-19,EXT_5V*%
%TO.N,+5V*%
X129540000Y-119380000D03*
%TO.P,U6,J3-1,GND3*%
%TO.N,GND*%
X154940000Y-73660000D03*
%TO.P,U6,J3-2,IO23*%
%TO.N,Net-(J4-Pin_3)*%
X154940000Y-76200000D03*
%TO.P,U6,J3-3,IO22*%
%TO.N,Net-(J3-Pin_4)*%
X154940000Y-78740000D03*
%TO.P,U6,J3-4,TXD0*%
%TO.N,unconnected-(U6-TXD0-PadJ3-4)*%
X154940000Y-81280000D03*
%TO.P,U6,J3-5,RXD0*%
%TO.N,unconnected-(U6-RXD0-PadJ3-5)*%
X154940000Y-83820000D03*
%TO.P,U6,J3-6,IO21*%
%TO.N,Net-(J3-Pin_3)*%
X154940000Y-86360000D03*
%TO.P,U6,J3-7,GND2*%
%TO.N,unconnected-(U6-GND2-PadJ3-7)*%
X154940000Y-88900000D03*
%TO.P,U6,J3-8,IO19*%
%TO.N,Net-(U6-IO19)*%
X154940000Y-91440000D03*
%TO.P,U6,J3-9,IO18*%
%TO.N,Net-(J2-Pin_3)*%
X154940000Y-93980000D03*
%TO.P,U6,J3-10,IO5*%
%TO.N,unconnected-(U6-IO5-PadJ3-10)*%
X154940000Y-96520000D03*
%TO.P,U6,J3-11,IO17*%
%TO.N,Net-(J2-Pin_4)*%
X154940000Y-99060000D03*
%TO.P,U6,J3-12,IO16*%
%TO.N,Net-(J2-Pin_5)*%
X154940000Y-101600000D03*
%TO.P,U6,J3-13,IO4*%
%TO.N,unconnected-(U6-IO4-PadJ3-13)*%
X154940000Y-104140000D03*
%TO.P,U6,J3-14,IO0*%
%TO.N,unconnected-(U6-IO0-PadJ3-14)*%
X154940000Y-106680000D03*
%TO.P,U6,J3-15,IO2*%
%TO.N,unconnected-(U6-IO2-PadJ3-15)*%
X154940000Y-109220000D03*
%TO.P,U6,J3-16,IO15*%
%TO.N,unconnected-(U6-IO15-PadJ3-16)*%
X154940000Y-111760000D03*
%TO.P,U6,J3-17,SD1*%
%TO.N,unconnected-(U6-SD1-PadJ3-17)*%
X154940000Y-114300000D03*
%TO.P,U6,J3-18,SD0*%
%TO.N,unconnected-(U6-SD0-PadJ3-18)*%
X154940000Y-116840000D03*
%TO.P,U6,J3-19,CLK*%
%TO.N,unconnected-(U6-CLK-PadJ3-19)*%
X154940000Y-119380000D03*
%TD*%
D16*
%TO.P,L1,A,A*%
%TO.N,Net-(L1-PadA)*%
X142240000Y-129540000D03*
D17*
%TO.P,L1,C,C*%
%TO.N,GND*%
X139700000Y-129540000D03*
%TD*%
D18*
%TO.P,J1,1,Pin_1*%
%TO.N,+5V*%
X160020000Y-68580000D03*
D19*
%TO.P,J1,2,Pin_2*%
%TO.N,GND*%
X162020000Y-68580000D03*
%TD*%
D17*
%TO.P,SW1,1*%
%TO.N,Net-(U6-IO25)*%
X132080000Y-129540000D03*
D16*
%TO.P,SW1,2*%
%TO.N,+3.3V*%
X129540000Y-129540000D03*
%TD*%
D17*
%TO.P,J4,1,Pin_1*%
%TO.N,GND*%
X167640000Y-71120000D03*
D16*
%TO.P,J4,2,Pin_2*%
%TO.N,+3.3V*%
X167640000Y-73660000D03*
%TO.P,J4,3,Pin_3*%
%TO.N,Net-(J4-Pin_3)*%
X167640000Y-76200000D03*
%TD*%
D20*
%TO.N,+3.3V*%
X127000000Y-76200000D02*
X127000000Y-127000000D01*
X170180000Y-129540000D02*
X170180000Y-119380000D01*
X129540000Y-73660000D02*
X127000000Y-76200000D01*
X132080000Y-132080000D02*
X167640000Y-132080000D01*
X129540000Y-129540000D02*
X132080000Y-132080000D01*
X170180000Y-119380000D02*
X167640000Y-116840000D01*
X167640000Y-132080000D02*
X170180000Y-129540000D01*
X127000000Y-127000000D02*
X129540000Y-129540000D01*
D21*
%TO.N,Net-(U6-IO19)*%
X152400000Y-124460000D02*
X152400000Y-93980000D01*
X152400000Y-93980000D02*
X154940000Y-91440000D01*
%TO.N,Net-(U6-IO25)*%
X132080000Y-96520000D02*
X129540000Y-93980000D01*
X132080000Y-129540000D02*
X132080000Y-96520000D01*
%TO.N,Net-(J2-Pin_3)*%
X167020000Y-120840000D02*
X161480000Y-115300000D01*
X167640000Y-120840000D02*
X167020000Y-120840000D01*
X161480000Y-115300000D02*
X161480000Y-100520000D01*
X161480000Y-100520000D02*
X154940000Y-93980000D01*
%TO.N,Net-(J2-Pin_5)*%
X167020000Y-124840000D02*
X157480000Y-115300000D01*
X157480000Y-104140000D02*
X154940000Y-101600000D01*
X167640000Y-124840000D02*
X167020000Y-124840000D01*
X157480000Y-115300000D02*
X157480000Y-104140000D01*
%TO.N,Net-(J2-Pin_4)*%
X167020000Y-122840000D02*
X159480000Y-115300000D01*
X159480000Y-115300000D02*
X159480000Y-103600000D01*
X167640000Y-122840000D02*
X167020000Y-122840000D01*
X159480000Y-103600000D02*
X154940000Y-99060000D01*
%TO.N,Net-(J3-Pin_4)*%
X167640000Y-93440000D02*
X162560000Y-88360000D01*
X162560000Y-88360000D02*
X162560000Y-86360000D01*
X162560000Y-86360000D02*
X154940000Y-78740000D01*
%TO.N,Net-(J3-Pin_3)*%
X155222843Y-86642843D02*
X155340000Y-86525686D01*
X164020000Y-95440000D02*
X154940000Y-86360000D01*
X155340000Y-86525686D02*
X155340000Y-86360000D01*
X167640000Y-95440000D02*
X164020000Y-95440000D01*
%TO.N,Net-(L1-PadA)*%
X144780000Y-124460000D02*
X144780000Y-127000000D01*
X144780000Y-127000000D02*
X142240000Y-129540000D01*
%TO.N,Net-(J4-Pin_3)*%
X167640000Y-76200000D02*
X154940000Y-76200000D01*
%TD*%
M02*
