ISO-10303-21;
HEADER;
/* Generated by software containing ST-Developer
 * from STEP Tools, Inc. (www.steptools.com) 
 */

FILE_DESCRIPTION(
/* description */ (''),
/* implementation_level */ '2;1');

FILE_NAME(
/* name */ 'jst-vh-2p.step',
/* time_stamp */ '2025-12-13T17:22:59Z',
/* author */ ('sam'),
/* organization */ (''),
/* preprocessor_version */ 'ST-DEVELOPER v20',
/* originating_system */ 'Autodesk Inventor 2025',
/* authorisation */ '');

FILE_SCHEMA (('AUTOMOTIVE_DESIGN { 1 0 10303 214 3 1 1 }'));
ENDSEC;

DATA;
#10=MECHANICAL_DESIGN_GEOMETRIC_PRESENTATION_REPRESENTATION('',(#41,#42,
#43),#1782);
#11=ITEM_DEFINED_TRANSFORMATION($,$,#1147,#1188);
#12=ITEM_DEFINED_TRANSFORMATION($,$,#1173,#1189);
#13=ITEM_DEFINED_TRANSFORMATION($,$,#1173,#1190);
#14=ITEM_DEFINED_TRANSFORMATION($,$,#1146,#1208);
#15=ITEM_DEFINED_TRANSFORMATION($,$,#1191,#1209);
#16=ITEM_DEFINED_TRANSFORMATION($,$,#1191,#1210);
#17=(
REPRESENTATION_RELATIONSHIP($,$,#1805,#1804)
REPRESENTATION_RELATIONSHIP_WITH_TRANSFORMATION(#11)
SHAPE_REPRESENTATION_RELATIONSHIP()
);
#18=(
REPRESENTATION_RELATIONSHIP($,$,#1806,#1804)
REPRESENTATION_RELATIONSHIP_WITH_TRANSFORMATION(#12)
SHAPE_REPRESENTATION_RELATIONSHIP()
);
#19=(
REPRESENTATION_RELATIONSHIP($,$,#1806,#1804)
REPRESENTATION_RELATIONSHIP_WITH_TRANSFORMATION(#13)
SHAPE_REPRESENTATION_RELATIONSHIP()
);
#20=(
REPRESENTATION_RELATIONSHIP($,$,#1804,#1803)
REPRESENTATION_RELATIONSHIP_WITH_TRANSFORMATION(#14)
SHAPE_REPRESENTATION_RELATIONSHIP()
);
#21=(
REPRESENTATION_RELATIONSHIP($,$,#1807,#1803)
REPRESENTATION_RELATIONSHIP_WITH_TRANSFORMATION(#15)
SHAPE_REPRESENTATION_RELATIONSHIP()
);
#22=(
REPRESENTATION_RELATIONSHIP($,$,#1807,#1803)
REPRESENTATION_RELATIONSHIP_WITH_TRANSFORMATION(#16)
SHAPE_REPRESENTATION_RELATIONSHIP()
);
#23=CONTEXT_DEPENDENT_SHAPE_REPRESENTATION(#17,#1796);
#24=CONTEXT_DEPENDENT_SHAPE_REPRESENTATION(#18,#1797);
#25=CONTEXT_DEPENDENT_SHAPE_REPRESENTATION(#19,#1798);
#26=CONTEXT_DEPENDENT_SHAPE_REPRESENTATION(#20,#1800);
#27=CONTEXT_DEPENDENT_SHAPE_REPRESENTATION(#21,#1801);
#28=CONTEXT_DEPENDENT_SHAPE_REPRESENTATION(#22,#1802);
#29=NEXT_ASSEMBLY_USAGE_OCCURRENCE('BxP-VH_2_1','BxP-VH_2_1',
'BxP-VH_2_1',#1810,#1811,'BxP-VH_2_1');
#30=NEXT_ASSEMBLY_USAGE_OCCURRENCE('pin_2','pin_2','pin_2',#1810,#1812,
'pin_2');
#31=NEXT_ASSEMBLY_USAGE_OCCURRENCE('pin_3','pin_3','pin_3',#1810,#1812,
'pin_3');
#32=NEXT_ASSEMBLY_USAGE_OCCURRENCE('B2P-VH:1','B2P-VH:1','B2P-VH:1',#1809,
#1810,'B2P-VH:1');
#33=NEXT_ASSEMBLY_USAGE_OCCURRENCE('jst-vh-2p_wire:1',
'jst-vh-2p_wire:1','jst-vh-2p_wire:1',#1809,#1813,'jst-vh-2p_wire:1');
#34=NEXT_ASSEMBLY_USAGE_OCCURRENCE('jst-vh-2p_wire:2',
'jst-vh-2p_wire:2','jst-vh-2p_wire:2',#1809,#1813,'jst-vh-2p_wire:2');
#35=SHAPE_REPRESENTATION_RELATIONSHIP('SRR','None',#1805,#38);
#36=SHAPE_REPRESENTATION_RELATIONSHIP('SRR','None',#1806,#39);
#37=SHAPE_REPRESENTATION_RELATIONSHIP('SRR','None',#1807,#40);
#38=ADVANCED_BREP_SHAPE_REPRESENTATION('',(#44),#1779);
#39=ADVANCED_BREP_SHAPE_REPRESENTATION('',(#45),#1780);
#40=ADVANCED_BREP_SHAPE_REPRESENTATION('',(#46),#1781);
#41=STYLED_ITEM('',(#1089),#44);
#42=STYLED_ITEM('',(#1090),#45);
#43=STYLED_ITEM('',(#1088),#46);
#44=MANIFOLD_SOLID_BREP('Solid1',#1048);
#45=MANIFOLD_SOLID_BREP('Solid1',#1049);
#46=MANIFOLD_SOLID_BREP('Solid1',#1050);
#47=FACE_BOUND('',#120,.T.);
#48=FACE_BOUND('',#121,.T.);
#49=FACE_BOUND('',#123,.T.);
#50=FACE_BOUND('',#124,.T.);
#51=FACE_OUTER_BOUND('',#106,.T.);
#52=FACE_OUTER_BOUND('',#107,.T.);
#53=FACE_OUTER_BOUND('',#108,.T.);
#54=FACE_OUTER_BOUND('',#109,.T.);
#55=FACE_OUTER_BOUND('',#110,.T.);
#56=FACE_OUTER_BOUND('',#111,.T.);
#57=FACE_OUTER_BOUND('',#112,.T.);
#58=FACE_OUTER_BOUND('',#113,.T.);
#59=FACE_OUTER_BOUND('',#114,.T.);
#60=FACE_OUTER_BOUND('',#115,.T.);
#61=FACE_OUTER_BOUND('',#116,.T.);
#62=FACE_OUTER_BOUND('',#117,.T.);
#63=FACE_OUTER_BOUND('',#118,.T.);
#64=FACE_OUTER_BOUND('',#119,.T.);
#65=FACE_OUTER_BOUND('',#122,.T.);
#66=FACE_OUTER_BOUND('',#125,.T.);
#67=FACE_OUTER_BOUND('',#126,.T.);
#68=FACE_OUTER_BOUND('',#127,.T.);
#69=FACE_OUTER_BOUND('',#128,.T.);
#70=FACE_OUTER_BOUND('',#129,.T.);
#71=FACE_OUTER_BOUND('',#130,.T.);
#72=FACE_OUTER_BOUND('',#131,.T.);
#73=FACE_OUTER_BOUND('',#132,.T.);
#74=FACE_OUTER_BOUND('',#133,.T.);
#75=FACE_OUTER_BOUND('',#134,.T.);
#76=FACE_OUTER_BOUND('',#135,.T.);
#77=FACE_OUTER_BOUND('',#136,.T.);
#78=FACE_OUTER_BOUND('',#137,.T.);
#79=FACE_OUTER_BOUND('',#138,.T.);
#80=FACE_OUTER_BOUND('',#139,.T.);
#81=FACE_OUTER_BOUND('',#140,.T.);
#82=FACE_OUTER_BOUND('',#141,.T.);
#83=FACE_OUTER_BOUND('',#142,.T.);
#84=FACE_OUTER_BOUND('',#143,.T.);
#85=FACE_OUTER_BOUND('',#144,.T.);
#86=FACE_OUTER_BOUND('',#145,.T.);
#87=FACE_OUTER_BOUND('',#146,.T.);
#88=FACE_OUTER_BOUND('',#147,.T.);
#89=FACE_OUTER_BOUND('',#148,.T.);
#90=FACE_OUTER_BOUND('',#149,.T.);
#91=FACE_OUTER_BOUND('',#150,.T.);
#92=FACE_OUTER_BOUND('',#151,.T.);
#93=FACE_OUTER_BOUND('',#152,.T.);
#94=FACE_OUTER_BOUND('',#153,.T.);
#95=FACE_OUTER_BOUND('',#154,.T.);
#96=FACE_OUTER_BOUND('',#155,.T.);
#97=FACE_OUTER_BOUND('',#156,.T.);
#98=FACE_OUTER_BOUND('',#157,.T.);
#99=FACE_OUTER_BOUND('',#158,.T.);
#100=FACE_OUTER_BOUND('',#159,.T.);
#101=FACE_OUTER_BOUND('',#160,.T.);
#102=FACE_OUTER_BOUND('',#161,.T.);
#103=FACE_OUTER_BOUND('',#162,.T.);
#104=FACE_OUTER_BOUND('',#163,.T.);
#105=FACE_OUTER_BOUND('',#164,.T.);
#106=EDGE_LOOP('',(#664,#665,#666,#667,#668,#669,#670,#671,#672,#673));
#107=EDGE_LOOP('',(#674,#675,#676,#677));
#108=EDGE_LOOP('',(#678,#679,#680,#681));
#109=EDGE_LOOP('',(#682,#683,#684,#685));
#110=EDGE_LOOP('',(#686,#687,#688,#689));
#111=EDGE_LOOP('',(#690,#691,#692,#693));
#112=EDGE_LOOP('',(#694,#695,#696,#697));
#113=EDGE_LOOP('',(#698,#699,#700,#701));
#114=EDGE_LOOP('',(#702,#703,#704,#705));
#115=EDGE_LOOP('',(#706,#707,#708,#709));
#116=EDGE_LOOP('',(#710,#711,#712,#713));
#117=EDGE_LOOP('',(#714,#715,#716,#717));
#118=EDGE_LOOP('',(#718,#719,#720,#721));
#119=EDGE_LOOP('',(#722,#723,#724,#725,#726,#727));
#120=EDGE_LOOP('',(#728,#729,#730,#731));
#121=EDGE_LOOP('',(#732,#733,#734,#735));
#122=EDGE_LOOP('',(#736,#737,#738,#739,#740,#741,#742,#743));
#123=EDGE_LOOP('',(#744,#745,#746,#747));
#124=EDGE_LOOP('',(#748,#749,#750,#751));
#125=EDGE_LOOP('',(#752,#753,#754,#755));
#126=EDGE_LOOP('',(#756,#757,#758,#759));
#127=EDGE_LOOP('',(#760,#761,#762,#763));
#128=EDGE_LOOP('',(#764,#765,#766,#767));
#129=EDGE_LOOP('',(#768,#769,#770,#771));
#130=EDGE_LOOP('',(#772,#773,#774,#775));
#131=EDGE_LOOP('',(#776,#777,#778,#779));
#132=EDGE_LOOP('',(#780,#781,#782,#783));
#133=EDGE_LOOP('',(#784,#785,#786,#787));
#134=EDGE_LOOP('',(#788,#789,#790,#791,#792,#793,#794,#795,#796,#797));
#135=EDGE_LOOP('',(#798,#799,#800,#801));
#136=EDGE_LOOP('',(#802,#803,#804,#805));
#137=EDGE_LOOP('',(#806,#807,#808,#809));
#138=EDGE_LOOP('',(#810,#811,#812,#813));
#139=EDGE_LOOP('',(#814,#815,#816,#817));
#140=EDGE_LOOP('',(#818,#819,#820,#821));
#141=EDGE_LOOP('',(#822,#823,#824,#825));
#142=EDGE_LOOP('',(#826,#827,#828,#829));
#143=EDGE_LOOP('',(#830,#831,#832,#833));
#144=EDGE_LOOP('',(#834,#835,#836,#837));
#145=EDGE_LOOP('',(#838,#839,#840,#841));
#146=EDGE_LOOP('',(#842,#843,#844,#845));
#147=EDGE_LOOP('',(#846,#847,#848,#849));
#148=EDGE_LOOP('',(#850,#851,#852,#853));
#149=EDGE_LOOP('',(#854,#855,#856,#857));
#150=EDGE_LOOP('',(#858,#859,#860,#861));
#151=EDGE_LOOP('',(#862,#863,#864,#865));
#152=EDGE_LOOP('',(#866,#867,#868,#869));
#153=EDGE_LOOP('',(#870,#871,#872,#873));
#154=EDGE_LOOP('',(#874,#875,#876,#877));
#155=EDGE_LOOP('',(#878,#879,#880,#881));
#156=EDGE_LOOP('',(#882,#883,#884,#885));
#157=EDGE_LOOP('',(#886,#887,#888,#889));
#158=EDGE_LOOP('',(#890,#891,#892,#893));
#159=EDGE_LOOP('',(#894,#895,#896,#897));
#160=EDGE_LOOP('',(#898,#899,#900,#901));
#161=EDGE_LOOP('',(#902,#903,#904,#905));
#162=EDGE_LOOP('',(#906,#907,#908,#909));
#163=EDGE_LOOP('',(#910,#911,#912,#913,#914,#915,#916,#917,#918,#919,#920,
#921,#922,#923));
#164=EDGE_LOOP('',(#924,#925,#926,#927,#928,#929,#930,#931,#932,#933,#934,
#935,#936,#937));
#165=LINE('',#1486,#302);
#166=LINE('',#1488,#303);
#167=LINE('',#1490,#304);
#168=LINE('',#1492,#305);
#169=LINE('',#1494,#306);
#170=LINE('',#1496,#307);
#171=LINE('',#1498,#308);
#172=LINE('',#1500,#309);
#173=LINE('',#1502,#310);
#174=LINE('',#1503,#311);
#175=LINE('',#1506,#312);
#176=LINE('',#1508,#313);
#177=LINE('',#1509,#314);
#178=LINE('',#1512,#315);
#179=LINE('',#1513,#316);
#180=LINE('',#1516,#317);
#181=LINE('',#1517,#318);
#182=LINE('',#1520,#319);
#183=LINE('',#1521,#320);
#184=LINE('',#1524,#321);
#185=LINE('',#1525,#322);
#186=LINE('',#1528,#323);
#187=LINE('',#1529,#324);
#188=LINE('',#1532,#325);
#189=LINE('',#1533,#326);
#190=LINE('',#1536,#327);
#191=LINE('',#1537,#328);
#192=LINE('',#1541,#329);
#193=LINE('',#1543,#330);
#194=LINE('',#1545,#331);
#195=LINE('',#1546,#332);
#196=LINE('',#1549,#333);
#197=LINE('',#1551,#334);
#198=LINE('',#1552,#335);
#199=LINE('',#1555,#336);
#200=LINE('',#1557,#337);
#201=LINE('',#1558,#338);
#202=LINE('',#1560,#339);
#203=LINE('',#1561,#340);
#204=LINE('',#1564,#341);
#205=LINE('',#1566,#342);
#206=LINE('',#1568,#343);
#207=LINE('',#1570,#344);
#208=LINE('',#1571,#345);
#209=LINE('',#1574,#346);
#210=LINE('',#1576,#347);
#211=LINE('',#1578,#348);
#212=LINE('',#1579,#349);
#213=LINE('',#1582,#350);
#214=LINE('',#1584,#351);
#215=LINE('',#1586,#352);
#216=LINE('',#1588,#353);
#217=LINE('',#1590,#354);
#218=LINE('',#1591,#355);
#219=LINE('',#1594,#356);
#220=LINE('',#1596,#357);
#221=LINE('',#1598,#358);
#222=LINE('',#1599,#359);
#223=LINE('',#1601,#360);
#224=LINE('',#1602,#361);
#225=LINE('',#1604,#362);
#226=LINE('',#1607,#363);
#227=LINE('',#1609,#364);
#228=LINE('',#1611,#365);
#229=LINE('',#1612,#366);
#230=LINE('',#1614,#367);
#231=LINE('',#1616,#368);
#232=LINE('',#1623,#369);
#233=LINE('',#1625,#370);
#234=LINE('',#1627,#371);
#235=LINE('',#1628,#372);
#236=LINE('',#1632,#373);
#237=LINE('',#1633,#374);
#238=LINE('',#1634,#375);
#239=LINE('',#1638,#376);
#240=LINE('',#1639,#377);
#241=LINE('',#1640,#378);
#242=LINE('',#1642,#379);
#243=LINE('',#1643,#380);
#244=LINE('',#1647,#381);
#245=LINE('',#1649,#382);
#246=LINE('',#1651,#383);
#247=LINE('',#1652,#384);
#248=LINE('',#1656,#385);
#249=LINE('',#1657,#386);
#250=LINE('',#1658,#387);
#251=LINE('',#1662,#388);
#252=LINE('',#1663,#389);
#253=LINE('',#1664,#390);
#254=LINE('',#1666,#391);
#255=LINE('',#1667,#392);
#256=LINE('',#1669,#393);
#257=LINE('',#1670,#394);
#258=LINE('',#1672,#395);
#259=LINE('',#1673,#396);
#260=LINE('',#1685,#397);
#261=LINE('',#1687,#398);
#262=LINE('',#1689,#399);
#263=LINE('',#1690,#400);
#264=LINE('',#1694,#401);
#265=LINE('',#1696,#402);
#266=LINE('',#1698,#403);
#267=LINE('',#1699,#404);
#268=LINE('',#1701,#405);
#269=LINE('',#1702,#406);
#270=LINE('',#1706,#407);
#271=LINE('',#1708,#408);
#272=LINE('',#1710,#409);
#273=LINE('',#1711,#410);
#274=LINE('',#1715,#411);
#275=LINE('',#1717,#412);
#276=LINE('',#1719,#413);
#277=LINE('',#1720,#414);
#278=LINE('',#1722,#415);
#279=LINE('',#1723,#416);
#280=LINE('',#1726,#417);
#281=LINE('',#1728,#418);
#282=LINE('',#1729,#419);
#283=LINE('',#1732,#420);
#284=LINE('',#1734,#421);
#285=LINE('',#1735,#422);
#286=LINE('',#1738,#423);
#287=LINE('',#1740,#424);
#288=LINE('',#1741,#425);
#289=LINE('',#1743,#426);
#290=LINE('',#1744,#427);
#291=LINE('',#1747,#428);
#292=LINE('',#1749,#429);
#293=LINE('',#1750,#430);
#294=LINE('',#1753,#431);
#295=LINE('',#1755,#432);
#296=LINE('',#1756,#433);
#297=LINE('',#1759,#434);
#298=LINE('',#1761,#435);
#299=LINE('',#1762,#436);
#300=LINE('',#1764,#437);
#301=LINE('',#1765,#438);
#302=VECTOR('',#1219,1000.);
#303=VECTOR('',#1220,1000.);
#304=VECTOR('',#1221,1000.);
#305=VECTOR('',#1222,1000.);
#306=VECTOR('',#1223,1000.);
#307=VECTOR('',#1224,1000.);
#308=VECTOR('',#1225,1000.);
#309=VECTOR('',#1226,1000.);
#310=VECTOR('',#1227,1000.);
#311=VECTOR('',#1228,1000.);
#312=VECTOR('',#1231,1000.);
#313=VECTOR('',#1232,1000.);
#314=VECTOR('',#1233,1000.);
#315=VECTOR('',#1236,1000.);
#316=VECTOR('',#1237,1000.);
#317=VECTOR('',#1240,1000.);
#318=VECTOR('',#1241,1000.);
#319=VECTOR('',#1244,1000.);
#320=VECTOR('',#1245,1000.);
#321=VECTOR('',#1248,1000.);
#322=VECTOR('',#1249,1000.);
#323=VECTOR('',#1252,1000.);
#324=VECTOR('',#1253,1000.);
#325=VECTOR('',#1256,1000.);
#326=VECTOR('',#1257,1000.);
#327=VECTOR('',#1260,1000.);
#328=VECTOR('',#1261,1000.);
#329=VECTOR('',#1264,1000.);
#330=VECTOR('',#1265,1000.);
#331=VECTOR('',#1266,1000.);
#332=VECTOR('',#1267,1000.);
#333=VECTOR('',#1270,1000.);
#334=VECTOR('',#1271,1000.);
#335=VECTOR('',#1272,1000.);
#336=VECTOR('',#1275,1000.);
#337=VECTOR('',#1276,1000.);
#338=VECTOR('',#1277,1000.);
#339=VECTOR('',#1280,1000.);
#340=VECTOR('',#1281,1000.);
#341=VECTOR('',#1284,1000.);
#342=VECTOR('',#1285,1000.);
#343=VECTOR('',#1286,1000.);
#344=VECTOR('',#1287,1000.);
#345=VECTOR('',#1288,1000.);
#346=VECTOR('',#1289,1000.);
#347=VECTOR('',#1290,1000.);
#348=VECTOR('',#1291,1000.);
#349=VECTOR('',#1292,1000.);
#350=VECTOR('',#1295,1000.);
#351=VECTOR('',#1296,1000.);
#352=VECTOR('',#1297,1000.);
#353=VECTOR('',#1298,1000.);
#354=VECTOR('',#1299,1000.);
#355=VECTOR('',#1300,1000.);
#356=VECTOR('',#1301,1000.);
#357=VECTOR('',#1302,1000.);
#358=VECTOR('',#1303,1000.);
#359=VECTOR('',#1304,1000.);
#360=VECTOR('',#1307,1000.);
#361=VECTOR('',#1308,1000.);
#362=VECTOR('',#1311,1000.);
#363=VECTOR('',#1316,1000.);
#364=VECTOR('',#1319,1000.);
#365=VECTOR('',#1322,1000.);
#366=VECTOR('',#1323,1000.);
#367=VECTOR('',#1326,1000.);
#368=VECTOR('',#1329,1000.);
#369=VECTOR('',#1338,1000.);
#370=VECTOR('',#1339,1000.);
#371=VECTOR('',#1340,1000.);
#372=VECTOR('',#1341,1000.);
#373=VECTOR('',#1344,1000.);
#374=VECTOR('',#1345,1000.);
#375=VECTOR('',#1346,1000.);
#376=VECTOR('',#1349,1000.);
#377=VECTOR('',#1350,1000.);
#378=VECTOR('',#1351,1000.);
#379=VECTOR('',#1354,1000.);
#380=VECTOR('',#1355,1000.);
#381=VECTOR('',#1358,1000.);
#382=VECTOR('',#1359,1000.);
#383=VECTOR('',#1360,1000.);
#384=VECTOR('',#1361,1000.);
#385=VECTOR('',#1364,1000.);
#386=VECTOR('',#1365,1000.);
#387=VECTOR('',#1366,1000.);
#388=VECTOR('',#1369,1000.);
#389=VECTOR('',#1370,1000.);
#390=VECTOR('',#1371,1000.);
#391=VECTOR('',#1374,1000.);
#392=VECTOR('',#1375,1000.);
#393=VECTOR('',#1378,1000.);
#394=VECTOR('',#1379,1000.);
#395=VECTOR('',#1382,1000.);
#396=VECTOR('',#1383,1000.);
#397=VECTOR('',#1402,10.);
#398=VECTOR('',#1403,10.);
#399=VECTOR('',#1404,10.);
#400=VECTOR('',#1405,10.);
#401=VECTOR('',#1408,10.);
#402=VECTOR('',#1409,10.);
#403=VECTOR('',#1410,10.);
#404=VECTOR('',#1411,10.);
#405=VECTOR('',#1414,10.);
#406=VECTOR('',#1415,10.);
#407=VECTOR('',#1418,10.);
#408=VECTOR('',#1419,10.);
#409=VECTOR('',#1420,10.);
#410=VECTOR('',#1421,10.);
#411=VECTOR('',#1424,10.);
#412=VECTOR('',#1425,10.);
#413=VECTOR('',#1426,10.);
#414=VECTOR('',#1427,10.);
#415=VECTOR('',#1430,10.);
#416=VECTOR('',#1431,10.);
#417=VECTOR('',#1434,10.);
#418=VECTOR('',#1435,10.);
#419=VECTOR('',#1436,10.);
#420=VECTOR('',#1439,10.);
#421=VECTOR('',#1440,10.);
#422=VECTOR('',#1441,10.);
#423=VECTOR('',#1444,10.);
#424=VECTOR('',#1445,10.);
#425=VECTOR('',#1446,10.);
#426=VECTOR('',#1449,10.);
#427=VECTOR('',#1450,10.);
#428=VECTOR('',#1453,10.);
#429=VECTOR('',#1454,10.);
#430=VECTOR('',#1455,10.);
#431=VECTOR('',#1458,10.);
#432=VECTOR('',#1459,10.);
#433=VECTOR('',#1460,10.);
#434=VECTOR('',#1463,10.);
#435=VECTOR('',#1464,10.);
#436=VECTOR('',#1465,10.);
#437=VECTOR('',#1468,10.);
#438=VECTOR('',#1469,10.);
#439=VERTEX_POINT('',#1484);
#440=VERTEX_POINT('',#1485);
#441=VERTEX_POINT('',#1487);
#442=VERTEX_POINT('',#1489);
#443=VERTEX_POINT('',#1491);
#444=VERTEX_POINT('',#1493);
#445=VERTEX_POINT('',#1495);
#446=VERTEX_POINT('',#1497);
#447=VERTEX_POINT('',#1499);
#448=VERTEX_POINT('',#1501);
#449=VERTEX_POINT('',#1505);
#450=VERTEX_POINT('',#1507);
#451=VERTEX_POINT('',#1511);
#452=VERTEX_POINT('',#1515);
#453=VERTEX_POINT('',#1519);
#454=VERTEX_POINT('',#1523);
#455=VERTEX_POINT('',#1527);
#456=VERTEX_POINT('',#1531);
#457=VERTEX_POINT('',#1535);
#458=VERTEX_POINT('',#1539);
#459=VERTEX_POINT('',#1540);
#460=VERTEX_POINT('',#1542);
#461=VERTEX_POINT('',#1544);
#462=VERTEX_POINT('',#1548);
#463=VERTEX_POINT('',#1550);
#464=VERTEX_POINT('',#1554);
#465=VERTEX_POINT('',#1556);
#466=VERTEX_POINT('',#1563);
#467=VERTEX_POINT('',#1565);
#468=VERTEX_POINT('',#1567);
#469=VERTEX_POINT('',#1569);
#470=VERTEX_POINT('',#1572);
#471=VERTEX_POINT('',#1573);
#472=VERTEX_POINT('',#1575);
#473=VERTEX_POINT('',#1577);
#474=VERTEX_POINT('',#1581);
#475=VERTEX_POINT('',#1583);
#476=VERTEX_POINT('',#1585);
#477=VERTEX_POINT('',#1587);
#478=VERTEX_POINT('',#1589);
#479=VERTEX_POINT('',#1592);
#480=VERTEX_POINT('',#1593);
#481=VERTEX_POINT('',#1595);
#482=VERTEX_POINT('',#1597);
#483=VERTEX_POINT('',#1621);
#484=VERTEX_POINT('',#1622);
#485=VERTEX_POINT('',#1624);
#486=VERTEX_POINT('',#1626);
#487=VERTEX_POINT('',#1630);
#488=VERTEX_POINT('',#1631);
#489=VERTEX_POINT('',#1636);
#490=VERTEX_POINT('',#1637);
#491=VERTEX_POINT('',#1645);
#492=VERTEX_POINT('',#1646);
#493=VERTEX_POINT('',#1648);
#494=VERTEX_POINT('',#1650);
#495=VERTEX_POINT('',#1654);
#496=VERTEX_POINT('',#1655);
#497=VERTEX_POINT('',#1660);
#498=VERTEX_POINT('',#1661);
#499=VERTEX_POINT('',#1683);
#500=VERTEX_POINT('',#1684);
#501=VERTEX_POINT('',#1686);
#502=VERTEX_POINT('',#1688);
#503=VERTEX_POINT('',#1692);
#504=VERTEX_POINT('',#1693);
#505=VERTEX_POINT('',#1695);
#506=VERTEX_POINT('',#1697);
#507=VERTEX_POINT('',#1704);
#508=VERTEX_POINT('',#1705);
#509=VERTEX_POINT('',#1707);
#510=VERTEX_POINT('',#1709);
#511=VERTEX_POINT('',#1713);
#512=VERTEX_POINT('',#1714);
#513=VERTEX_POINT('',#1716);
#514=VERTEX_POINT('',#1718);
#515=VERTEX_POINT('',#1725);
#516=VERTEX_POINT('',#1727);
#517=VERTEX_POINT('',#1731);
#518=VERTEX_POINT('',#1733);
#519=VERTEX_POINT('',#1737);
#520=VERTEX_POINT('',#1739);
#521=VERTEX_POINT('',#1746);
#522=VERTEX_POINT('',#1748);
#523=VERTEX_POINT('',#1752);
#524=VERTEX_POINT('',#1754);
#525=VERTEX_POINT('',#1758);
#526=VERTEX_POINT('',#1760);
#527=EDGE_CURVE('',#439,#440,#165,.T.);
#528=EDGE_CURVE('',#441,#439,#166,.T.);
#529=EDGE_CURVE('',#442,#441,#167,.T.);
#530=EDGE_CURVE('',#443,#442,#168,.T.);
#531=EDGE_CURVE('',#444,#443,#169,.T.);
#532=EDGE_CURVE('',#445,#444,#170,.T.);
#533=EDGE_CURVE('',#446,#445,#171,.T.);
#534=EDGE_CURVE('',#447,#446,#172,.T.);
#535=EDGE_CURVE('',#448,#447,#173,.T.);
#536=EDGE_CURVE('',#440,#448,#174,.T.);
#537=EDGE_CURVE('',#449,#441,#175,.T.);
#538=EDGE_CURVE('',#450,#449,#176,.T.);
#539=EDGE_CURVE('',#450,#442,#177,.T.);
#540=EDGE_CURVE('',#451,#450,#178,.T.);
#541=EDGE_CURVE('',#451,#443,#179,.T.);
#542=EDGE_CURVE('',#452,#451,#180,.T.);
#543=EDGE_CURVE('',#452,#444,#181,.T.);
#544=EDGE_CURVE('',#453,#452,#182,.T.);
#545=EDGE_CURVE('',#453,#445,#183,.T.);
#546=EDGE_CURVE('',#454,#453,#184,.T.);
#547=EDGE_CURVE('',#454,#446,#185,.T.);
#548=EDGE_CURVE('',#455,#454,#186,.T.);
#549=EDGE_CURVE('',#455,#447,#187,.T.);
#550=EDGE_CURVE('',#456,#455,#188,.T.);
#551=EDGE_CURVE('',#456,#448,#189,.T.);
#552=EDGE_CURVE('',#457,#456,#190,.T.);
#553=EDGE_CURVE('',#457,#440,#191,.T.);
#554=EDGE_CURVE('',#458,#459,#192,.T.);
#555=EDGE_CURVE('',#460,#459,#193,.T.);
#556=EDGE_CURVE('',#461,#460,#194,.T.);
#557=EDGE_CURVE('',#461,#458,#195,.T.);
#558=EDGE_CURVE('',#459,#462,#196,.T.);
#559=EDGE_CURVE('',#463,#462,#197,.T.);
#560=EDGE_CURVE('',#460,#463,#198,.T.);
#561=EDGE_CURVE('',#462,#464,#199,.T.);
#562=EDGE_CURVE('',#465,#464,#200,.T.);
#563=EDGE_CURVE('',#463,#465,#201,.T.);
#564=EDGE_CURVE('',#464,#458,#202,.T.);
#565=EDGE_CURVE('',#465,#461,#203,.T.);
#566=EDGE_CURVE('',#449,#466,#204,.T.);
#567=EDGE_CURVE('',#441,#467,#205,.T.);
#568=EDGE_CURVE('',#467,#468,#206,.T.);
#569=EDGE_CURVE('',#468,#469,#207,.T.);
#570=EDGE_CURVE('',#466,#469,#208,.T.);
#571=EDGE_CURVE('',#470,#471,#209,.T.);
#572=EDGE_CURVE('',#471,#472,#210,.T.);
#573=EDGE_CURVE('',#472,#473,#211,.T.);
#574=EDGE_CURVE('',#473,#470,#212,.T.);
#575=EDGE_CURVE('',#474,#457,#213,.T.);
#576=EDGE_CURVE('',#474,#475,#214,.T.);
#577=EDGE_CURVE('',#475,#476,#215,.T.);
#578=EDGE_CURVE('',#477,#476,#216,.T.);
#579=EDGE_CURVE('',#478,#477,#217,.T.);
#580=EDGE_CURVE('',#439,#478,#218,.T.);
#581=EDGE_CURVE('',#479,#480,#219,.T.);
#582=EDGE_CURVE('',#481,#479,#220,.T.);
#583=EDGE_CURVE('',#482,#481,#221,.T.);
#584=EDGE_CURVE('',#480,#482,#222,.T.);
#585=EDGE_CURVE('',#477,#468,#223,.T.);
#586=EDGE_CURVE('',#478,#467,#224,.T.);
#587=EDGE_CURVE('',#469,#476,#225,.T.);
#588=EDGE_CURVE('',#475,#466,#226,.T.);
#589=EDGE_CURVE('',#449,#474,#227,.T.);
#590=EDGE_CURVE('',#479,#473,#228,.T.);
#591=EDGE_CURVE('',#480,#470,#229,.T.);
#592=EDGE_CURVE('',#481,#472,#230,.T.);
#593=EDGE_CURVE('',#482,#471,#231,.T.);
#594=EDGE_CURVE('',#483,#484,#232,.T.);
#595=EDGE_CURVE('',#485,#484,#233,.T.);
#596=EDGE_CURVE('',#485,#486,#234,.T.);
#597=EDGE_CURVE('',#483,#486,#235,.T.);
#598=EDGE_CURVE('',#487,#488,#236,.T.);
#599=EDGE_CURVE('',#486,#488,#237,.T.);
#600=EDGE_CURVE('',#487,#485,#238,.T.);
#601=EDGE_CURVE('',#489,#490,#239,.T.);
#602=EDGE_CURVE('',#484,#490,#240,.T.);
#603=EDGE_CURVE('',#489,#483,#241,.T.);
#604=EDGE_CURVE('',#490,#487,#242,.T.);
#605=EDGE_CURVE('',#488,#489,#243,.T.);
#606=EDGE_CURVE('',#491,#492,#244,.T.);
#607=EDGE_CURVE('',#493,#492,#245,.T.);
#608=EDGE_CURVE('',#493,#494,#246,.T.);
#609=EDGE_CURVE('',#491,#494,#247,.T.);
#610=EDGE_CURVE('',#495,#496,#248,.T.);
#611=EDGE_CURVE('',#494,#496,#249,.T.);
#612=EDGE_CURVE('',#495,#493,#250,.T.);
#613=EDGE_CURVE('',#497,#498,#251,.T.);
#614=EDGE_CURVE('',#492,#498,#252,.T.);
#615=EDGE_CURVE('',#497,#491,#253,.T.);
#616=EDGE_CURVE('',#498,#495,#254,.T.);
#617=EDGE_CURVE('',#496,#497,#255,.T.);
#618=EDGE_CURVE('',#495,#485,#256,.T.);
#619=EDGE_CURVE('',#487,#493,#257,.T.);
#620=EDGE_CURVE('',#490,#492,#258,.T.);
#621=EDGE_CURVE('',#498,#484,#259,.T.);
#622=EDGE_CURVE('',#499,#500,#260,.T.);
#623=EDGE_CURVE('',#500,#501,#261,.T.);
#624=EDGE_CURVE('',#502,#501,#262,.T.);
#625=EDGE_CURVE('',#499,#502,#263,.T.);
#626=EDGE_CURVE('',#503,#504,#264,.T.);
#627=EDGE_CURVE('',#503,#505,#265,.T.);
#628=EDGE_CURVE('',#506,#505,#266,.T.);
#629=EDGE_CURVE('',#504,#506,#267,.T.);
#630=EDGE_CURVE('',#501,#506,#268,.T.);
#631=EDGE_CURVE('',#505,#502,#269,.T.);
#632=EDGE_CURVE('',#507,#508,#270,.T.);
#633=EDGE_CURVE('',#507,#509,#271,.T.);
#634=EDGE_CURVE('',#510,#509,#272,.T.);
#635=EDGE_CURVE('',#508,#510,#273,.T.);
#636=EDGE_CURVE('',#511,#512,#274,.T.);
#637=EDGE_CURVE('',#512,#513,#275,.T.);
#638=EDGE_CURVE('',#514,#513,#276,.T.);
#639=EDGE_CURVE('',#511,#514,#277,.T.);
#640=EDGE_CURVE('',#513,#510,#278,.T.);
#641=EDGE_CURVE('',#509,#514,#279,.T.);
#642=EDGE_CURVE('',#515,#507,#280,.T.);
#643=EDGE_CURVE('',#516,#508,#281,.T.);
#644=EDGE_CURVE('',#515,#516,#282,.T.);
#645=EDGE_CURVE('',#517,#515,#283,.T.);
#646=EDGE_CURVE('',#518,#516,#284,.T.);
#647=EDGE_CURVE('',#517,#518,#285,.T.);
#648=EDGE_CURVE('',#519,#517,#286,.T.);
#649=EDGE_CURVE('',#520,#518,#287,.T.);
#650=EDGE_CURVE('',#519,#520,#288,.T.);
#651=EDGE_CURVE('',#499,#519,#289,.T.);
#652=EDGE_CURVE('',#500,#520,#290,.T.);
#653=EDGE_CURVE('',#521,#503,#291,.T.);
#654=EDGE_CURVE('',#522,#504,#292,.T.);
#655=EDGE_CURVE('',#521,#522,#293,.T.);
#656=EDGE_CURVE('',#523,#521,#294,.T.);
#657=EDGE_CURVE('',#524,#522,#295,.T.);
#658=EDGE_CURVE('',#523,#524,#296,.T.);
#659=EDGE_CURVE('',#525,#523,#297,.T.);
#660=EDGE_CURVE('',#526,#524,#298,.T.);
#661=EDGE_CURVE('',#525,#526,#299,.T.);
#662=EDGE_CURVE('',#511,#525,#300,.T.);
#663=EDGE_CURVE('',#512,#526,#301,.T.);
#664=ORIENTED_EDGE('',*,*,#527,.F.);
#665=ORIENTED_EDGE('',*,*,#528,.F.);
#666=ORIENTED_EDGE('',*,*,#529,.F.);
#667=ORIENTED_EDGE('',*,*,#530,.F.);
#668=ORIENTED_EDGE('',*,*,#531,.F.);
#669=ORIENTED_EDGE('',*,*,#532,.F.);
#670=ORIENTED_EDGE('',*,*,#533,.F.);
#671=ORIENTED_EDGE('',*,*,#534,.F.);
#672=ORIENTED_EDGE('',*,*,#535,.F.);
#673=ORIENTED_EDGE('',*,*,#536,.F.);
#674=ORIENTED_EDGE('',*,*,#537,.F.);
#675=ORIENTED_EDGE('',*,*,#538,.F.);
#676=ORIENTED_EDGE('',*,*,#539,.T.);
#677=ORIENTED_EDGE('',*,*,#529,.T.);
#678=ORIENTED_EDGE('',*,*,#539,.F.);
#679=ORIENTED_EDGE('',*,*,#540,.F.);
#680=ORIENTED_EDGE('',*,*,#541,.T.);
#681=ORIENTED_EDGE('',*,*,#530,.T.);
#682=ORIENTED_EDGE('',*,*,#541,.F.);
#683=ORIENTED_EDGE('',*,*,#542,.F.);
#684=ORIENTED_EDGE('',*,*,#543,.T.);
#685=ORIENTED_EDGE('',*,*,#531,.T.);
#686=ORIENTED_EDGE('',*,*,#543,.F.);
#687=ORIENTED_EDGE('',*,*,#544,.F.);
#688=ORIENTED_EDGE('',*,*,#545,.T.);
#689=ORIENTED_EDGE('',*,*,#532,.T.);
#690=ORIENTED_EDGE('',*,*,#545,.F.);
#691=ORIENTED_EDGE('',*,*,#546,.F.);
#692=ORIENTED_EDGE('',*,*,#547,.T.);
#693=ORIENTED_EDGE('',*,*,#533,.T.);
#694=ORIENTED_EDGE('',*,*,#547,.F.);
#695=ORIENTED_EDGE('',*,*,#548,.F.);
#696=ORIENTED_EDGE('',*,*,#549,.T.);
#697=ORIENTED_EDGE('',*,*,#534,.T.);
#698=ORIENTED_EDGE('',*,*,#549,.F.);
#699=ORIENTED_EDGE('',*,*,#550,.F.);
#700=ORIENTED_EDGE('',*,*,#551,.T.);
#701=ORIENTED_EDGE('',*,*,#535,.T.);
#702=ORIENTED_EDGE('',*,*,#551,.F.);
#703=ORIENTED_EDGE('',*,*,#552,.F.);
#704=ORIENTED_EDGE('',*,*,#553,.T.);
#705=ORIENTED_EDGE('',*,*,#536,.T.);
#706=ORIENTED_EDGE('',*,*,#554,.T.);
#707=ORIENTED_EDGE('',*,*,#555,.F.);
#708=ORIENTED_EDGE('',*,*,#556,.F.);
#709=ORIENTED_EDGE('',*,*,#557,.T.);
#710=ORIENTED_EDGE('',*,*,#558,.T.);
#711=ORIENTED_EDGE('',*,*,#559,.F.);
#712=ORIENTED_EDGE('',*,*,#560,.F.);
#713=ORIENTED_EDGE('',*,*,#555,.T.);
#714=ORIENTED_EDGE('',*,*,#561,.T.);
#715=ORIENTED_EDGE('',*,*,#562,.F.);
#716=ORIENTED_EDGE('',*,*,#563,.F.);
#717=ORIENTED_EDGE('',*,*,#559,.T.);
#718=ORIENTED_EDGE('',*,*,#564,.T.);
#719=ORIENTED_EDGE('',*,*,#557,.F.);
#720=ORIENTED_EDGE('',*,*,#565,.F.);
#721=ORIENTED_EDGE('',*,*,#562,.T.);
#722=ORIENTED_EDGE('',*,*,#566,.F.);
#723=ORIENTED_EDGE('',*,*,#537,.T.);
#724=ORIENTED_EDGE('',*,*,#567,.T.);
#725=ORIENTED_EDGE('',*,*,#568,.T.);
#726=ORIENTED_EDGE('',*,*,#569,.T.);
#727=ORIENTED_EDGE('',*,*,#570,.F.);
#728=ORIENTED_EDGE('',*,*,#571,.T.);
#729=ORIENTED_EDGE('',*,*,#572,.T.);
#730=ORIENTED_EDGE('',*,*,#573,.T.);
#731=ORIENTED_EDGE('',*,*,#574,.T.);
#732=ORIENTED_EDGE('',*,*,#554,.F.);
#733=ORIENTED_EDGE('',*,*,#564,.F.);
#734=ORIENTED_EDGE('',*,*,#561,.F.);
#735=ORIENTED_EDGE('',*,*,#558,.F.);
#736=ORIENTED_EDGE('',*,*,#553,.F.);
#737=ORIENTED_EDGE('',*,*,#575,.F.);
#738=ORIENTED_EDGE('',*,*,#576,.T.);
#739=ORIENTED_EDGE('',*,*,#577,.T.);
#740=ORIENTED_EDGE('',*,*,#578,.F.);
#741=ORIENTED_EDGE('',*,*,#579,.F.);
#742=ORIENTED_EDGE('',*,*,#580,.F.);
#743=ORIENTED_EDGE('',*,*,#527,.T.);
#744=ORIENTED_EDGE('',*,*,#565,.T.);
#745=ORIENTED_EDGE('',*,*,#556,.T.);
#746=ORIENTED_EDGE('',*,*,#560,.T.);
#747=ORIENTED_EDGE('',*,*,#563,.T.);
#748=ORIENTED_EDGE('',*,*,#581,.F.);
#749=ORIENTED_EDGE('',*,*,#582,.F.);
#750=ORIENTED_EDGE('',*,*,#583,.F.);
#751=ORIENTED_EDGE('',*,*,#584,.F.);
#752=ORIENTED_EDGE('',*,*,#585,.T.);
#753=ORIENTED_EDGE('',*,*,#568,.F.);
#754=ORIENTED_EDGE('',*,*,#586,.F.);
#755=ORIENTED_EDGE('',*,*,#579,.T.);
#756=ORIENTED_EDGE('',*,*,#578,.T.);
#757=ORIENTED_EDGE('',*,*,#587,.F.);
#758=ORIENTED_EDGE('',*,*,#569,.F.);
#759=ORIENTED_EDGE('',*,*,#585,.F.);
#760=ORIENTED_EDGE('',*,*,#567,.F.);
#761=ORIENTED_EDGE('',*,*,#528,.T.);
#762=ORIENTED_EDGE('',*,*,#580,.T.);
#763=ORIENTED_EDGE('',*,*,#586,.T.);
#764=ORIENTED_EDGE('',*,*,#587,.T.);
#765=ORIENTED_EDGE('',*,*,#577,.F.);
#766=ORIENTED_EDGE('',*,*,#588,.T.);
#767=ORIENTED_EDGE('',*,*,#570,.T.);
#768=ORIENTED_EDGE('',*,*,#566,.T.);
#769=ORIENTED_EDGE('',*,*,#588,.F.);
#770=ORIENTED_EDGE('',*,*,#576,.F.);
#771=ORIENTED_EDGE('',*,*,#589,.F.);
#772=ORIENTED_EDGE('',*,*,#574,.F.);
#773=ORIENTED_EDGE('',*,*,#590,.F.);
#774=ORIENTED_EDGE('',*,*,#581,.T.);
#775=ORIENTED_EDGE('',*,*,#591,.T.);
#776=ORIENTED_EDGE('',*,*,#573,.F.);
#777=ORIENTED_EDGE('',*,*,#592,.F.);
#778=ORIENTED_EDGE('',*,*,#582,.T.);
#779=ORIENTED_EDGE('',*,*,#590,.T.);
#780=ORIENTED_EDGE('',*,*,#572,.F.);
#781=ORIENTED_EDGE('',*,*,#593,.F.);
#782=ORIENTED_EDGE('',*,*,#583,.T.);
#783=ORIENTED_EDGE('',*,*,#592,.T.);
#784=ORIENTED_EDGE('',*,*,#571,.F.);
#785=ORIENTED_EDGE('',*,*,#591,.F.);
#786=ORIENTED_EDGE('',*,*,#584,.T.);
#787=ORIENTED_EDGE('',*,*,#593,.T.);
#788=ORIENTED_EDGE('',*,*,#575,.T.);
#789=ORIENTED_EDGE('',*,*,#552,.T.);
#790=ORIENTED_EDGE('',*,*,#550,.T.);
#791=ORIENTED_EDGE('',*,*,#548,.T.);
#792=ORIENTED_EDGE('',*,*,#546,.T.);
#793=ORIENTED_EDGE('',*,*,#544,.T.);
#794=ORIENTED_EDGE('',*,*,#542,.T.);
#795=ORIENTED_EDGE('',*,*,#540,.T.);
#796=ORIENTED_EDGE('',*,*,#538,.T.);
#797=ORIENTED_EDGE('',*,*,#589,.T.);
#798=ORIENTED_EDGE('',*,*,#594,.T.);
#799=ORIENTED_EDGE('',*,*,#595,.F.);
#800=ORIENTED_EDGE('',*,*,#596,.T.);
#801=ORIENTED_EDGE('',*,*,#597,.F.);
#802=ORIENTED_EDGE('',*,*,#598,.T.);
#803=ORIENTED_EDGE('',*,*,#599,.F.);
#804=ORIENTED_EDGE('',*,*,#596,.F.);
#805=ORIENTED_EDGE('',*,*,#600,.F.);
#806=ORIENTED_EDGE('',*,*,#601,.T.);
#807=ORIENTED_EDGE('',*,*,#602,.F.);
#808=ORIENTED_EDGE('',*,*,#594,.F.);
#809=ORIENTED_EDGE('',*,*,#603,.F.);
#810=ORIENTED_EDGE('',*,*,#598,.F.);
#811=ORIENTED_EDGE('',*,*,#604,.F.);
#812=ORIENTED_EDGE('',*,*,#601,.F.);
#813=ORIENTED_EDGE('',*,*,#605,.F.);
#814=ORIENTED_EDGE('',*,*,#606,.T.);
#815=ORIENTED_EDGE('',*,*,#607,.F.);
#816=ORIENTED_EDGE('',*,*,#608,.T.);
#817=ORIENTED_EDGE('',*,*,#609,.F.);
#818=ORIENTED_EDGE('',*,*,#610,.T.);
#819=ORIENTED_EDGE('',*,*,#611,.F.);
#820=ORIENTED_EDGE('',*,*,#608,.F.);
#821=ORIENTED_EDGE('',*,*,#612,.F.);
#822=ORIENTED_EDGE('',*,*,#613,.T.);
#823=ORIENTED_EDGE('',*,*,#614,.F.);
#824=ORIENTED_EDGE('',*,*,#606,.F.);
#825=ORIENTED_EDGE('',*,*,#615,.F.);
#826=ORIENTED_EDGE('',*,*,#610,.F.);
#827=ORIENTED_EDGE('',*,*,#616,.F.);
#828=ORIENTED_EDGE('',*,*,#613,.F.);
#829=ORIENTED_EDGE('',*,*,#617,.F.);
#830=ORIENTED_EDGE('',*,*,#618,.F.);
#831=ORIENTED_EDGE('',*,*,#612,.T.);
#832=ORIENTED_EDGE('',*,*,#619,.F.);
#833=ORIENTED_EDGE('',*,*,#600,.T.);
#834=ORIENTED_EDGE('',*,*,#620,.T.);
#835=ORIENTED_EDGE('',*,*,#614,.T.);
#836=ORIENTED_EDGE('',*,*,#621,.T.);
#837=ORIENTED_EDGE('',*,*,#602,.T.);
#838=ORIENTED_EDGE('',*,*,#621,.F.);
#839=ORIENTED_EDGE('',*,*,#616,.T.);
#840=ORIENTED_EDGE('',*,*,#618,.T.);
#841=ORIENTED_EDGE('',*,*,#595,.T.);
#842=ORIENTED_EDGE('',*,*,#615,.T.);
#843=ORIENTED_EDGE('',*,*,#609,.T.);
#844=ORIENTED_EDGE('',*,*,#611,.T.);
#845=ORIENTED_EDGE('',*,*,#617,.T.);
#846=ORIENTED_EDGE('',*,*,#619,.T.);
#847=ORIENTED_EDGE('',*,*,#607,.T.);
#848=ORIENTED_EDGE('',*,*,#620,.F.);
#849=ORIENTED_EDGE('',*,*,#604,.T.);
#850=ORIENTED_EDGE('',*,*,#603,.T.);
#851=ORIENTED_EDGE('',*,*,#597,.T.);
#852=ORIENTED_EDGE('',*,*,#599,.T.);
#853=ORIENTED_EDGE('',*,*,#605,.T.);
#854=ORIENTED_EDGE('',*,*,#622,.T.);
#855=ORIENTED_EDGE('',*,*,#623,.T.);
#856=ORIENTED_EDGE('',*,*,#624,.F.);
#857=ORIENTED_EDGE('',*,*,#625,.F.);
#858=ORIENTED_EDGE('',*,*,#626,.F.);
#859=ORIENTED_EDGE('',*,*,#627,.T.);
#860=ORIENTED_EDGE('',*,*,#628,.F.);
#861=ORIENTED_EDGE('',*,*,#629,.F.);
#862=ORIENTED_EDGE('',*,*,#630,.T.);
#863=ORIENTED_EDGE('',*,*,#628,.T.);
#864=ORIENTED_EDGE('',*,*,#631,.T.);
#865=ORIENTED_EDGE('',*,*,#624,.T.);
#866=ORIENTED_EDGE('',*,*,#632,.F.);
#867=ORIENTED_EDGE('',*,*,#633,.T.);
#868=ORIENTED_EDGE('',*,*,#634,.F.);
#869=ORIENTED_EDGE('',*,*,#635,.F.);
#870=ORIENTED_EDGE('',*,*,#636,.T.);
#871=ORIENTED_EDGE('',*,*,#637,.T.);
#872=ORIENTED_EDGE('',*,*,#638,.F.);
#873=ORIENTED_EDGE('',*,*,#639,.F.);
#874=ORIENTED_EDGE('',*,*,#638,.T.);
#875=ORIENTED_EDGE('',*,*,#640,.T.);
#876=ORIENTED_EDGE('',*,*,#634,.T.);
#877=ORIENTED_EDGE('',*,*,#641,.T.);
#878=ORIENTED_EDGE('',*,*,#642,.T.);
#879=ORIENTED_EDGE('',*,*,#632,.T.);
#880=ORIENTED_EDGE('',*,*,#643,.F.);
#881=ORIENTED_EDGE('',*,*,#644,.F.);
#882=ORIENTED_EDGE('',*,*,#645,.T.);
#883=ORIENTED_EDGE('',*,*,#644,.T.);
#884=ORIENTED_EDGE('',*,*,#646,.F.);
#885=ORIENTED_EDGE('',*,*,#647,.F.);
#886=ORIENTED_EDGE('',*,*,#648,.T.);
#887=ORIENTED_EDGE('',*,*,#647,.T.);
#888=ORIENTED_EDGE('',*,*,#649,.F.);
#889=ORIENTED_EDGE('',*,*,#650,.F.);
#890=ORIENTED_EDGE('',*,*,#651,.T.);
#891=ORIENTED_EDGE('',*,*,#650,.T.);
#892=ORIENTED_EDGE('',*,*,#652,.F.);
#893=ORIENTED_EDGE('',*,*,#622,.F.);
#894=ORIENTED_EDGE('',*,*,#653,.T.);
#895=ORIENTED_EDGE('',*,*,#626,.T.);
#896=ORIENTED_EDGE('',*,*,#654,.F.);
#897=ORIENTED_EDGE('',*,*,#655,.F.);
#898=ORIENTED_EDGE('',*,*,#656,.T.);
#899=ORIENTED_EDGE('',*,*,#655,.T.);
#900=ORIENTED_EDGE('',*,*,#657,.F.);
#901=ORIENTED_EDGE('',*,*,#658,.F.);
#902=ORIENTED_EDGE('',*,*,#659,.T.);
#903=ORIENTED_EDGE('',*,*,#658,.T.);
#904=ORIENTED_EDGE('',*,*,#660,.F.);
#905=ORIENTED_EDGE('',*,*,#661,.F.);
#906=ORIENTED_EDGE('',*,*,#662,.T.);
#907=ORIENTED_EDGE('',*,*,#661,.T.);
#908=ORIENTED_EDGE('',*,*,#663,.F.);
#909=ORIENTED_EDGE('',*,*,#636,.F.);
#910=ORIENTED_EDGE('',*,*,#663,.T.);
#911=ORIENTED_EDGE('',*,*,#660,.T.);
#912=ORIENTED_EDGE('',*,*,#657,.T.);
#913=ORIENTED_EDGE('',*,*,#654,.T.);
#914=ORIENTED_EDGE('',*,*,#629,.T.);
#915=ORIENTED_EDGE('',*,*,#630,.F.);
#916=ORIENTED_EDGE('',*,*,#623,.F.);
#917=ORIENTED_EDGE('',*,*,#652,.T.);
#918=ORIENTED_EDGE('',*,*,#649,.T.);
#919=ORIENTED_EDGE('',*,*,#646,.T.);
#920=ORIENTED_EDGE('',*,*,#643,.T.);
#921=ORIENTED_EDGE('',*,*,#635,.T.);
#922=ORIENTED_EDGE('',*,*,#640,.F.);
#923=ORIENTED_EDGE('',*,*,#637,.F.);
#924=ORIENTED_EDGE('',*,*,#642,.F.);
#925=ORIENTED_EDGE('',*,*,#645,.F.);
#926=ORIENTED_EDGE('',*,*,#648,.F.);
#927=ORIENTED_EDGE('',*,*,#651,.F.);
#928=ORIENTED_EDGE('',*,*,#625,.T.);
#929=ORIENTED_EDGE('',*,*,#631,.F.);
#930=ORIENTED_EDGE('',*,*,#627,.F.);
#931=ORIENTED_EDGE('',*,*,#653,.F.);
#932=ORIENTED_EDGE('',*,*,#656,.F.);
#933=ORIENTED_EDGE('',*,*,#659,.F.);
#934=ORIENTED_EDGE('',*,*,#662,.F.);
#935=ORIENTED_EDGE('',*,*,#639,.T.);
#936=ORIENTED_EDGE('',*,*,#641,.F.);
#937=ORIENTED_EDGE('',*,*,#633,.F.);
#938=PLANE('',#1148);
#939=PLANE('',#1149);
#940=PLANE('',#1150);
#941=PLANE('',#1151);
#942=PLANE('',#1152);
#943=PLANE('',#1153);
#944=PLANE('',#1154);
#945=PLANE('',#1155);
#946=PLANE('',#1156);
#947=PLANE('',#1157);
#948=PLANE('',#1158);
#949=PLANE('',#1159);
#950=PLANE('',#1160);
#951=PLANE('',#1161);
#952=PLANE('',#1162);
#953=PLANE('',#1163);
#954=PLANE('',#1164);
#955=PLANE('',#1165);
#956=PLANE('',#1166);
#957=PLANE('',#1167);
#958=PLANE('',#1168);
#959=PLANE('',#1169);
#960=PLANE('',#1170);
#961=PLANE('',#1171);
#962=PLANE('',#1172);
#963=PLANE('',#1174);
#964=PLANE('',#1175);
#965=PLANE('',#1176);
#966=PLANE('',#1177);
#967=PLANE('',#1178);
#968=PLANE('',#1179);
#969=PLANE('',#1180);
#970=PLANE('',#1181);
#971=PLANE('',#1182);
#972=PLANE('',#1183);
#973=PLANE('',#1184);
#974=PLANE('',#1185);
#975=PLANE('',#1186);
#976=PLANE('',#1187);
#977=PLANE('',#1192);
#978=PLANE('',#1193);
#979=PLANE('',#1194);
#980=PLANE('',#1195);
#981=PLANE('',#1196);
#982=PLANE('',#1197);
#983=PLANE('',#1198);
#984=PLANE('',#1199);
#985=PLANE('',#1200);
#986=PLANE('',#1201);
#987=PLANE('',#1202);
#988=PLANE('',#1203);
#989=PLANE('',#1204);
#990=PLANE('',#1205);
#991=PLANE('',#1206);
#992=PLANE('',#1207);
#993=ADVANCED_FACE('',(#51),#938,.T.);
#994=ADVANCED_FACE('',(#52),#939,.F.);
#995=ADVANCED_FACE('',(#53),#940,.F.);
#996=ADVANCED_FACE('',(#54),#941,.F.);
#997=ADVANCED_FACE('',(#55),#942,.F.);
#998=ADVANCED_FACE('',(#56),#943,.F.);
#999=ADVANCED_FACE('',(#57),#944,.F.);
#1000=ADVANCED_FACE('',(#58),#945,.F.);
#1001=ADVANCED_FACE('',(#59),#946,.F.);
#1002=ADVANCED_FACE('',(#60),#947,.F.);
#1003=ADVANCED_FACE('',(#61),#948,.F.);
#1004=ADVANCED_FACE('',(#62),#949,.F.);
#1005=ADVANCED_FACE('',(#63),#950,.F.);
#1006=ADVANCED_FACE('',(#64,#47,#48),#951,.F.);
#1007=ADVANCED_FACE('',(#65,#49,#50),#952,.T.);
#1008=ADVANCED_FACE('',(#66),#953,.T.);
#1009=ADVANCED_FACE('',(#67),#954,.T.);
#1010=ADVANCED_FACE('',(#68),#955,.T.);
#1011=ADVANCED_FACE('',(#69),#956,.T.);
#1012=ADVANCED_FACE('',(#70),#957,.T.);
#1013=ADVANCED_FACE('',(#71),#958,.F.);
#1014=ADVANCED_FACE('',(#72),#959,.F.);
#1015=ADVANCED_FACE('',(#73),#960,.F.);
#1016=ADVANCED_FACE('',(#74),#961,.F.);
#1017=ADVANCED_FACE('',(#75),#962,.T.);
#1018=ADVANCED_FACE('',(#76),#963,.F.);
#1019=ADVANCED_FACE('',(#77),#964,.F.);
#1020=ADVANCED_FACE('',(#78),#965,.T.);
#1021=ADVANCED_FACE('',(#79),#966,.F.);
#1022=ADVANCED_FACE('',(#80),#967,.F.);
#1023=ADVANCED_FACE('',(#81),#968,.F.);
#1024=ADVANCED_FACE('',(#82),#969,.T.);
#1025=ADVANCED_FACE('',(#83),#970,.F.);
#1026=ADVANCED_FACE('',(#84),#971,.F.);
#1027=ADVANCED_FACE('',(#85),#972,.T.);
#1028=ADVANCED_FACE('',(#86),#973,.F.);
#1029=ADVANCED_FACE('',(#87),#974,.F.);
#1030=ADVANCED_FACE('',(#88),#975,.F.);
#1031=ADVANCED_FACE('',(#89),#976,.F.);
#1032=ADVANCED_FACE('',(#90),#977,.T.);
#1033=ADVANCED_FACE('',(#91),#978,.T.);
#1034=ADVANCED_FACE('',(#92),#979,.T.);
#1035=ADVANCED_FACE('',(#93),#980,.T.);
#1036=ADVANCED_FACE('',(#94),#981,.T.);
#1037=ADVANCED_FACE('',(#95),#982,.T.);
#1038=ADVANCED_FACE('',(#96),#983,.T.);
#1039=ADVANCED_FACE('',(#97),#984,.T.);
#1040=ADVANCED_FACE('',(#98),#985,.T.);
#1041=ADVANCED_FACE('',(#99),#986,.T.);
#1042=ADVANCED_FACE('',(#100),#987,.T.);
#1043=ADVANCED_FACE('',(#101),#988,.T.);
#1044=ADVANCED_FACE('',(#102),#989,.T.);
#1045=ADVANCED_FACE('',(#103),#990,.T.);
#1046=ADVANCED_FACE('',(#104),#991,.T.);
#1047=ADVANCED_FACE('',(#105),#992,.F.);
#1048=CLOSED_SHELL('',(#993,#994,#995,#996,#997,#998,#999,#1000,#1001,#1002,
#1003,#1004,#1005,#1006,#1007,#1008,#1009,#1010,#1011,#1012,#1013,#1014,
#1015,#1016,#1017));
#1049=CLOSED_SHELL('',(#1018,#1019,#1020,#1021,#1022,#1023,#1024,#1025,
#1026,#1027,#1028,#1029,#1030,#1031));
#1050=CLOSED_SHELL('',(#1032,#1033,#1034,#1035,#1036,#1037,#1038,#1039,
#1040,#1041,#1042,#1043,#1044,#1045,#1046,#1047));
#1051=DERIVED_UNIT_ELEMENT(#1058,1.);
#1052=DERIVED_UNIT_ELEMENT(#1784,-3.);
#1053=DERIVED_UNIT_ELEMENT(#1058,1.);
#1054=DERIVED_UNIT_ELEMENT(#1784,-3.);
#1055=DERIVED_UNIT_ELEMENT(#1058,1.);
#1056=DERIVED_UNIT_ELEMENT(#1784,-3.);
#1057=DIMENSIONAL_EXPONENTS(0.,1.,0.,0.,0.,0.,0.);
#1058=(
CONVERSION_BASED_UNIT('gram',#1060)
MASS_UNIT()
NAMED_UNIT(#1057)
);
#1059=(
MASS_UNIT()
NAMED_UNIT(*)
SI_UNIT(.KILO.,.GRAM.)
);
#1060=MASS_MEASURE_WITH_UNIT(MASS_MEASURE(0.001),#1059);
#1061=DERIVED_UNIT((#1051,#1052));
#1062=DERIVED_UNIT((#1053,#1054));
#1063=DERIVED_UNIT((#1055,#1056));
#1064=MEASURE_REPRESENTATION_ITEM('density measure',
POSITIVE_RATIO_MEASURE(1.),#1061);
#1065=MEASURE_REPRESENTATION_ITEM('density measure',
POSITIVE_RATIO_MEASURE(1.),#1062);
#1066=MEASURE_REPRESENTATION_ITEM('density measure',
POSITIVE_RATIO_MEASURE(1.),#1063);
#1067=PROPERTY_DEFINITION_REPRESENTATION(#1082,#1073);
#1068=PROPERTY_DEFINITION_REPRESENTATION(#1083,#1074);
#1069=PROPERTY_DEFINITION_REPRESENTATION(#1084,#1075);
#1070=PROPERTY_DEFINITION_REPRESENTATION(#1085,#1076);
#1071=PROPERTY_DEFINITION_REPRESENTATION(#1086,#1077);
#1072=PROPERTY_DEFINITION_REPRESENTATION(#1087,#1078);
#1073=REPRESENTATION('material name',(#1079),#1779);
#1074=REPRESENTATION('density',(#1064),#1779);
#1075=REPRESENTATION('material name',(#1080),#1780);
#1076=REPRESENTATION('density',(#1065),#1780);
#1077=REPRESENTATION('material name',(#1081),#1781);
#1078=REPRESENTATION('density',(#1066),#1781);
#1079=DESCRIPTIVE_REPRESENTATION_ITEM('Generic','Generic');
#1080=DESCRIPTIVE_REPRESENTATION_ITEM('Generic','Generic');
#1081=DESCRIPTIVE_REPRESENTATION_ITEM('Generic','Generic');
#1082=PROPERTY_DEFINITION('material property','material name',#1811);
#1083=PROPERTY_DEFINITION('material property','density of part',#1811);
#1084=PROPERTY_DEFINITION('material property','material name',#1812);
#1085=PROPERTY_DEFINITION('material property','density of part',#1812);
#1086=PROPERTY_DEFINITION('material property','material name',#1813);
#1087=PROPERTY_DEFINITION('material property','density of part',#1813);
#1088=PRESENTATION_STYLE_ASSIGNMENT((#1091));
#1089=PRESENTATION_STYLE_ASSIGNMENT((#1092));
#1090=PRESENTATION_STYLE_ASSIGNMENT((#1093));
#1091=SURFACE_STYLE_USAGE(.BOTH.,#1100);
#1092=SURFACE_STYLE_USAGE(.BOTH.,#1101);
#1093=SURFACE_STYLE_USAGE(.BOTH.,#1102);
#1094=SURFACE_STYLE_RENDERING_WITH_PROPERTIES($,#1112,(#1097));
#1095=SURFACE_STYLE_RENDERING_WITH_PROPERTIES($,#1113,(#1098));
#1096=SURFACE_STYLE_RENDERING_WITH_PROPERTIES($,#1114,(#1099));
#1097=SURFACE_STYLE_TRANSPARENT(0.);
#1098=SURFACE_STYLE_TRANSPARENT(0.);
#1099=SURFACE_STYLE_TRANSPARENT(0.);
#1100=SURFACE_SIDE_STYLE('',(#1103,#1094));
#1101=SURFACE_SIDE_STYLE('',(#1104,#1095));
#1102=SURFACE_SIDE_STYLE('',(#1105,#1096));
#1103=SURFACE_STYLE_FILL_AREA(#1106);
#1104=SURFACE_STYLE_FILL_AREA(#1107);
#1105=SURFACE_STYLE_FILL_AREA(#1108);
#1106=FILL_AREA_STYLE('',(#1109));
#1107=FILL_AREA_STYLE('',(#1110));
#1108=FILL_AREA_STYLE('',(#1111));
#1109=FILL_AREA_STYLE_COLOUR('',#1112);
#1110=FILL_AREA_STYLE_COLOUR('',#1113);
#1111=FILL_AREA_STYLE_COLOUR('',#1114);
#1112=COLOUR_RGB('',0.749019607843137,0.749019607843137,0.749019607843137);
#1113=COLOUR_RGB('',1.,1.,1.);
#1114=COLOUR_RGB('',0.796078431372549,0.823529411764706,0.937254901960784);
#1115=DATE_TIME_ROLE('creation_date');
#1116=DATE_TIME_ROLE('creation_date');
#1117=DATE_TIME_ROLE('creation_date');
#1118=DATE_TIME_ROLE('creation_date');
#1119=DATE_TIME_ROLE('creation_date');
#1120=APPLIED_DATE_AND_TIME_ASSIGNMENT(#1125,#1115,(#1809));
#1121=APPLIED_DATE_AND_TIME_ASSIGNMENT(#1126,#1116,(#1810));
#1122=APPLIED_DATE_AND_TIME_ASSIGNMENT(#1127,#1117,(#1811));
#1123=APPLIED_DATE_AND_TIME_ASSIGNMENT(#1128,#1118,(#1812));
#1124=APPLIED_DATE_AND_TIME_ASSIGNMENT(#1129,#1119,(#1813));
#1125=DATE_AND_TIME(#1130,#1135);
#1126=DATE_AND_TIME(#1131,#1136);
#1127=DATE_AND_TIME(#1132,#1137);
#1128=DATE_AND_TIME(#1133,#1138);
#1129=DATE_AND_TIME(#1134,#1139);
#1130=CALENDAR_DATE(2025,13,12);
#1131=CALENDAR_DATE(2023,10,12);
#1132=CALENDAR_DATE(2025,13,12);
#1133=CALENDAR_DATE(2025,13,12);
#1134=CALENDAR_DATE(2025,13,12);
#1135=LOCAL_TIME(0,0,0.,#1140);
#1136=LOCAL_TIME(14,15,22.,#1141);
#1137=LOCAL_TIME(0,0,0.,#1142);
#1138=LOCAL_TIME(0,0,0.,#1143);
#1139=LOCAL_TIME(0,0,0.,#1144);
#1140=COORDINATED_UNIVERSAL_TIME_OFFSET(0,0,.BEHIND.);
#1141=COORDINATED_UNIVERSAL_TIME_OFFSET(0,0,.BEHIND.);
#1142=COORDINATED_UNIVERSAL_TIME_OFFSET(0,0,.BEHIND.);
#1143=COORDINATED_UNIVERSAL_TIME_OFFSET(0,0,.BEHIND.);
#1144=COORDINATED_UNIVERSAL_TIME_OFFSET(0,0,.BEHIND.);
#1145=AXIS2_PLACEMENT_3D('',#1480,#1211,#1212);
#1146=AXIS2_PLACEMENT_3D('',#1481,#1213,#1214);
#1147=AXIS2_PLACEMENT_3D('',#1482,#1215,#1216);
#1148=AXIS2_PLACEMENT_3D('',#1483,#1217,#1218);
#1149=AXIS2_PLACEMENT_3D('',#1504,#1229,#1230);
#1150=AXIS2_PLACEMENT_3D('',#1510,#1234,#1235);
#1151=AXIS2_PLACEMENT_3D('',#1514,#1238,#1239);
#1152=AXIS2_PLACEMENT_3D('',#1518,#1242,#1243);
#1153=AXIS2_PLACEMENT_3D('',#1522,#1246,#1247);
#1154=AXIS2_PLACEMENT_3D('',#1526,#1250,#1251);
#1155=AXIS2_PLACEMENT_3D('',#1530,#1254,#1255);
#1156=AXIS2_PLACEMENT_3D('',#1534,#1258,#1259);
#1157=AXIS2_PLACEMENT_3D('',#1538,#1262,#1263);
#1158=AXIS2_PLACEMENT_3D('',#1547,#1268,#1269);
#1159=AXIS2_PLACEMENT_3D('',#1553,#1273,#1274);
#1160=AXIS2_PLACEMENT_3D('',#1559,#1278,#1279);
#1161=AXIS2_PLACEMENT_3D('',#1562,#1282,#1283);
#1162=AXIS2_PLACEMENT_3D('',#1580,#1293,#1294);
#1163=AXIS2_PLACEMENT_3D('',#1600,#1305,#1306);
#1164=AXIS2_PLACEMENT_3D('',#1603,#1309,#1310);
#1165=AXIS2_PLACEMENT_3D('',#1605,#1312,#1313);
#1166=AXIS2_PLACEMENT_3D('',#1606,#1314,#1315);
#1167=AXIS2_PLACEMENT_3D('',#1608,#1317,#1318);
#1168=AXIS2_PLACEMENT_3D('',#1610,#1320,#1321);
#1169=AXIS2_PLACEMENT_3D('',#1613,#1324,#1325);
#1170=AXIS2_PLACEMENT_3D('',#1615,#1327,#1328);
#1171=AXIS2_PLACEMENT_3D('',#1617,#1330,#1331);
#1172=AXIS2_PLACEMENT_3D('',#1618,#1332,#1333);
#1173=AXIS2_PLACEMENT_3D('',#1619,#1334,#1335);
#1174=AXIS2_PLACEMENT_3D('',#1620,#1336,#1337);
#1175=AXIS2_PLACEMENT_3D('',#1629,#1342,#1343);
#1176=AXIS2_PLACEMENT_3D('',#1635,#1347,#1348);
#1177=AXIS2_PLACEMENT_3D('',#1641,#1352,#1353);
#1178=AXIS2_PLACEMENT_3D('',#1644,#1356,#1357);
#1179=AXIS2_PLACEMENT_3D('',#1653,#1362,#1363);
#1180=AXIS2_PLACEMENT_3D('',#1659,#1367,#1368);
#1181=AXIS2_PLACEMENT_3D('',#1665,#1372,#1373);
#1182=AXIS2_PLACEMENT_3D('',#1668,#1376,#1377);
#1183=AXIS2_PLACEMENT_3D('',#1671,#1380,#1381);
#1184=AXIS2_PLACEMENT_3D('',#1674,#1384,#1385);
#1185=AXIS2_PLACEMENT_3D('',#1675,#1386,#1387);
#1186=AXIS2_PLACEMENT_3D('',#1676,#1388,#1389);
#1187=AXIS2_PLACEMENT_3D('',#1677,#1390,#1391);
#1188=AXIS2_PLACEMENT_3D('',#1678,#1392,#1393);
#1189=AXIS2_PLACEMENT_3D('',#1679,#1394,#1395);
#1190=AXIS2_PLACEMENT_3D('',#1680,#1396,#1397);
#1191=AXIS2_PLACEMENT_3D('',#1681,#1398,#1399);
#1192=AXIS2_PLACEMENT_3D('',#1682,#1400,#1401);
#1193=AXIS2_PLACEMENT_3D('',#1691,#1406,#1407);
#1194=AXIS2_PLACEMENT_3D('',#1700,#1412,#1413);
#1195=AXIS2_PLACEMENT_3D('',#1703,#1416,#1417);
#1196=AXIS2_PLACEMENT_3D('',#1712,#1422,#1423);
#1197=AXIS2_PLACEMENT_3D('',#1721,#1428,#1429);
#1198=AXIS2_PLACEMENT_3D('',#1724,#1432,#1433);
#1199=AXIS2_PLACEMENT_3D('',#1730,#1437,#1438);
#1200=AXIS2_PLACEMENT_3D('',#1736,#1442,#1443);
#1201=AXIS2_PLACEMENT_3D('',#1742,#1447,#1448);
#1202=AXIS2_PLACEMENT_3D('',#1745,#1451,#1452);
#1203=AXIS2_PLACEMENT_3D('',#1751,#1456,#1457);
#1204=AXIS2_PLACEMENT_3D('',#1757,#1461,#1462);
#1205=AXIS2_PLACEMENT_3D('',#1763,#1466,#1467);
#1206=AXIS2_PLACEMENT_3D('',#1766,#1470,#1471);
#1207=AXIS2_PLACEMENT_3D('',#1767,#1472,#1473);
#1208=AXIS2_PLACEMENT_3D('',#1768,#1474,#1475);
#1209=AXIS2_PLACEMENT_3D('',#1769,#1476,#1477);
#1210=AXIS2_PLACEMENT_3D('',#1770,#1478,#1479);
#1211=DIRECTION('axis',(0.,0.,1.));
#1212=DIRECTION('refdir',(1.,0.,0.));
#1213=DIRECTION('axis',(0.,0.,1.));
#1214=DIRECTION('refdir',(1.,0.,0.));
#1215=DIRECTION('axis',(0.,0.,1.));
#1216=DIRECTION('refdir',(1.,0.,0.));
#1217=DIRECTION('center_axis',(-1.,0.,0.));
#1218=DIRECTION('ref_axis',(0.,0.,1.));
#1219=DIRECTION('',(0.,-6.19544098563206E-16,-1.));
#1220=DIRECTION('',(0.,-1.,-5.22507071077352E-17));
#1221=DIRECTION('',(0.,-1.,-5.22507071077352E-17));
#1222=DIRECTION('',(0.,-0.939692620785908,0.342020143325669));
#1223=DIRECTION('',(0.,0.,1.));
#1224=DIRECTION('',(0.,0.939692620785908,0.342020143325669));
#1225=DIRECTION('',(0.,1.,-3.74173923714684E-15));
#1226=DIRECTION('',(0.,0.500000000000007,-0.866025403784435));
#1227=DIRECTION('',(0.,1.,9.06198830734151E-16));
#1228=DIRECTION('',(0.,0.707106781186548,-0.707106781186547));
#1229=DIRECTION('center_axis',(0.,5.22507071077352E-17,-1.));
#1230=DIRECTION('ref_axis',(0.,1.,5.22507071077352E-17));
#1231=DIRECTION('',(-1.,0.,0.));
#1232=DIRECTION('',(0.,-1.,-5.22507071077352E-17));
#1233=DIRECTION('',(-1.,0.,0.));
#1234=DIRECTION('center_axis',(0.,-0.342020143325669,-0.939692620785908));
#1235=DIRECTION('ref_axis',(0.,0.939692620785908,-0.342020143325669));
#1236=DIRECTION('',(0.,-0.939692620785908,0.342020143325669));
#1237=DIRECTION('',(-1.,0.,0.));
#1238=DIRECTION('center_axis',(0.,-1.,0.));
#1239=DIRECTION('ref_axis',(0.,0.,-1.));
#1240=DIRECTION('',(0.,0.,1.));
#1241=DIRECTION('',(-1.,0.,0.));
#1242=DIRECTION('center_axis',(0.,-0.342020143325669,0.939692620785908));
#1243=DIRECTION('ref_axis',(0.,-0.939692620785908,-0.342020143325669));
#1244=DIRECTION('',(0.,0.939692620785908,0.342020143325669));
#1245=DIRECTION('',(-1.,0.,0.));
#1246=DIRECTION('center_axis',(0.,3.74173923714684E-15,1.));
#1247=DIRECTION('ref_axis',(0.,-1.,3.74173923714684E-15));
#1248=DIRECTION('',(0.,1.,-3.74173923714684E-15));
#1249=DIRECTION('',(-1.,0.,0.));
#1250=DIRECTION('center_axis',(0.,0.866025403784435,0.500000000000007));
#1251=DIRECTION('ref_axis',(0.,-0.500000000000007,0.866025403784435));
#1252=DIRECTION('',(0.,0.500000000000007,-0.866025403784435));
#1253=DIRECTION('',(-1.,0.,0.));
#1254=DIRECTION('center_axis',(0.,-9.06198830734151E-16,1.));
#1255=DIRECTION('ref_axis',(0.,-1.,-9.06198830734151E-16));
#1256=DIRECTION('',(0.,1.,9.06198830734151E-16));
#1257=DIRECTION('',(-1.,0.,0.));
#1258=DIRECTION('center_axis',(0.,0.707106781186547,0.707106781186548));
#1259=DIRECTION('ref_axis',(0.,-0.707106781186548,0.707106781186547));
#1260=DIRECTION('',(0.,0.707106781186548,-0.707106781186547));
#1261=DIRECTION('',(-1.,0.,0.));
#1262=DIRECTION('center_axis',(0.,0.,1.));
#1263=DIRECTION('ref_axis',(1.,0.,0.));
#1264=DIRECTION('',(1.,0.,0.));
#1265=DIRECTION('',(0.,1.,0.));
#1266=DIRECTION('',(1.,0.,0.));
#1267=DIRECTION('',(0.,1.,0.));
#1268=DIRECTION('center_axis',(1.,0.,0.));
#1269=DIRECTION('ref_axis',(0.,0.,-1.));
#1270=DIRECTION('',(0.,0.,-1.));
#1271=DIRECTION('',(0.,1.,0.));
#1272=DIRECTION('',(0.,0.,-1.));
#1273=DIRECTION('center_axis',(0.,0.,-1.));
#1274=DIRECTION('ref_axis',(-1.,0.,0.));
#1275=DIRECTION('',(-1.,0.,0.));
#1276=DIRECTION('',(0.,1.,0.));
#1277=DIRECTION('',(-1.,0.,0.));
#1278=DIRECTION('center_axis',(-1.,0.,0.));
#1279=DIRECTION('ref_axis',(0.,0.,1.));
#1280=DIRECTION('',(0.,0.,1.));
#1281=DIRECTION('',(0.,0.,1.));
#1282=DIRECTION('center_axis',(0.,-1.,0.));
#1283=DIRECTION('ref_axis',(0.,0.,-1.));
#1284=DIRECTION('',(1.,0.,0.));
#1285=DIRECTION('',(-1.,0.,0.));
#1286=DIRECTION('',(0.,0.,1.));
#1287=DIRECTION('',(1.,0.,0.));
#1288=DIRECTION('',(0.,0.,1.));
#1289=DIRECTION('',(-1.,0.,0.));
#1290=DIRECTION('',(0.,0.,-1.));
#1291=DIRECTION('',(1.,0.,0.));
#1292=DIRECTION('',(0.,0.,1.));
#1293=DIRECTION('center_axis',(0.,-1.,0.));
#1294=DIRECTION('ref_axis',(0.,0.,-1.));
#1295=DIRECTION('',(0.,-6.19544098563206E-16,-1.));
#1296=DIRECTION('',(1.,0.,0.));
#1297=DIRECTION('',(0.,0.,1.));
#1298=DIRECTION('',(1.,0.,0.));
#1299=DIRECTION('',(0.,0.,1.));
#1300=DIRECTION('',(-1.,0.,0.));
#1301=DIRECTION('',(0.,0.,1.));
#1302=DIRECTION('',(1.,0.,0.));
#1303=DIRECTION('',(0.,0.,-1.));
#1304=DIRECTION('',(-1.,0.,0.));
#1305=DIRECTION('center_axis',(-1.,0.,0.));
#1306=DIRECTION('ref_axis',(0.,0.,1.));
#1307=DIRECTION('',(0.,1.,0.));
#1308=DIRECTION('',(0.,1.,0.));
#1309=DIRECTION('center_axis',(0.,0.,1.));
#1310=DIRECTION('ref_axis',(1.,0.,0.));
#1311=DIRECTION('',(0.,-1.,0.));
#1312=DIRECTION('center_axis',(0.,0.,-1.));
#1313=DIRECTION('ref_axis',(-1.,0.,0.));
#1314=DIRECTION('center_axis',(1.,0.,0.));
#1315=DIRECTION('ref_axis',(0.,0.,-1.));
#1316=DIRECTION('',(0.,1.,0.));
#1317=DIRECTION('center_axis',(0.,0.,-1.));
#1318=DIRECTION('ref_axis',(1.,0.,0.));
#1319=DIRECTION('',(0.,-1.,-5.22507071077352E-17));
#1320=DIRECTION('center_axis',(1.,0.,0.));
#1321=DIRECTION('ref_axis',(0.,0.,1.));
#1322=DIRECTION('',(0.,1.,0.));
#1323=DIRECTION('',(0.,1.,0.));
#1324=DIRECTION('center_axis',(0.,0.,-1.));
#1325=DIRECTION('ref_axis',(1.,0.,0.));
#1326=DIRECTION('',(0.,1.,0.));
#1327=DIRECTION('center_axis',(-1.,0.,0.));
#1328=DIRECTION('ref_axis',(0.,0.,-1.));
#1329=DIRECTION('',(0.,1.,0.));
#1330=DIRECTION('center_axis',(0.,0.,1.));
#1331=DIRECTION('ref_axis',(-1.,0.,0.));
#1332=DIRECTION('center_axis',(1.,0.,0.));
#1333=DIRECTION('ref_axis',(0.,0.,1.));
#1334=DIRECTION('axis',(0.,0.,1.));
#1335=DIRECTION('refdir',(1.,0.,0.));
#1336=DIRECTION('center_axis',(0.,0.258819045102519,-0.965925826289069));
#1337=DIRECTION('ref_axis',(-1.,0.,0.));
#1338=DIRECTION('',(0.250562807085729,0.935113126531031,0.250562807085729));
#1339=DIRECTION('',(1.,0.,0.));
#1340=DIRECTION('',(0.250562807085729,-0.935113126531031,-0.250562807085729));
#1341=DIRECTION('',(-1.,0.,0.));
#1342=DIRECTION('center_axis',(0.965925826289069,0.258819045102519,0.));
#1343=DIRECTION('ref_axis',(0.,0.,-1.));
#1344=DIRECTION('',(0.250562807085729,-0.935113126531031,0.250562807085729));
#1345=DIRECTION('',(0.,0.,-1.));
#1346=DIRECTION('',(0.,0.,1.));
#1347=DIRECTION('center_axis',(0.965925826289069,-0.258819045102519,0.));
#1348=DIRECTION('ref_axis',(0.,0.,-1.));
#1349=DIRECTION('',(0.250562807085729,0.935113126531031,-0.250562807085729));
#1350=DIRECTION('',(0.,0.,-1.));
#1351=DIRECTION('',(0.,0.,1.));
#1352=DIRECTION('center_axis',(0.,0.258819045102519,0.965925826289069));
#1353=DIRECTION('ref_axis',(1.,0.,0.));
#1354=DIRECTION('',(-1.,0.,0.));
#1355=DIRECTION('',(1.,0.,0.));
#1356=DIRECTION('center_axis',(0.,-0.258819045102519,0.965925826289069));
#1357=DIRECTION('ref_axis',(-1.,0.,0.));
#1358=DIRECTION('',(0.250562807085729,-0.935113126531031,-0.250562807085729));
#1359=DIRECTION('',(1.,0.,0.));
#1360=DIRECTION('',(0.250562807085729,0.935113126531031,0.250562807085729));
#1361=DIRECTION('',(-1.,0.,0.));
#1362=DIRECTION('center_axis',(0.965925826289069,-0.258819045102519,0.));
#1363=DIRECTION('ref_axis',(0.,0.,-1.));
#1364=DIRECTION('',(0.250562807085729,0.935113126531031,-0.250562807085729));
#1365=DIRECTION('',(0.,0.,1.));
#1366=DIRECTION('',(0.,0.,-1.));
#1367=DIRECTION('center_axis',(0.965925826289069,0.258819045102519,0.));
#1368=DIRECTION('ref_axis',(0.,0.,-1.));
#1369=DIRECTION('',(0.250562807085729,-0.935113126531031,0.250562807085729));
#1370=DIRECTION('',(0.,0.,1.));
#1371=DIRECTION('',(0.,0.,-1.));
#1372=DIRECTION('center_axis',(0.,-0.258819045102519,-0.965925826289069));
#1373=DIRECTION('ref_axis',(0.,-0.965925826289069,0.258819045102518));
#1374=DIRECTION('',(-1.,0.,0.));
#1375=DIRECTION('',(1.,0.,0.));
#1376=DIRECTION('center_axis',(1.,0.,0.));
#1377=DIRECTION('ref_axis',(0.,1.,0.));
#1378=DIRECTION('',(0.,-1.,0.));
#1379=DIRECTION('',(0.,1.,0.));
#1380=DIRECTION('center_axis',(1.,0.,0.));
#1381=DIRECTION('ref_axis',(0.,1.,0.));
#1382=DIRECTION('',(0.,1.,0.));
#1383=DIRECTION('',(0.,-1.,0.));
#1384=DIRECTION('center_axis',(0.,0.,-1.));
#1385=DIRECTION('ref_axis',(0.,-1.,0.));
#1386=DIRECTION('center_axis',(0.,-1.,0.));
#1387=DIRECTION('ref_axis',(0.,0.,-1.));
#1388=DIRECTION('center_axis',(0.,0.,1.));
#1389=DIRECTION('ref_axis',(1.,0.,0.));
#1390=DIRECTION('center_axis',(0.,1.,0.));
#1391=DIRECTION('ref_axis',(1.,0.,0.));
#1392=DIRECTION('',(0.,0.,1.));
#1393=DIRECTION('',(1.,0.,0.));
#1394=DIRECTION('',(0.,0.,1.));
#1395=DIRECTION('',(1.,0.,0.));
#1396=DIRECTION('',(0.,0.,1.));
#1397=DIRECTION('',(1.,0.,0.));
#1398=DIRECTION('axis',(0.,0.,1.));
#1399=DIRECTION('refdir',(1.,0.,0.));
#1400=DIRECTION('center_axis',(1.,1.38777878078145E-16,0.));
#1401=DIRECTION('ref_axis',(0.,0.,1.));
#1402=DIRECTION('',(0.,0.,1.));
#1403=DIRECTION('',(1.38777878078145E-16,-1.,0.));
#1404=DIRECTION('',(0.,0.,1.));
#1405=DIRECTION('',(1.38777878078145E-16,-1.,0.));
#1406=DIRECTION('center_axis',(-1.,-1.38777878078145E-16,0.));
#1407=DIRECTION('ref_axis',(0.,0.,-1.));
#1408=DIRECTION('',(0.,0.,1.));
#1409=DIRECTION('',(1.38777878078145E-16,-1.,0.));
#1410=DIRECTION('',(0.,0.,-1.));
#1411=DIRECTION('',(1.38777878078145E-16,-1.,0.));
#1412=DIRECTION('center_axis',(1.38777878078145E-16,-1.,0.));
#1413=DIRECTION('ref_axis',(0.,0.,-1.));
#1414=DIRECTION('',(-1.,-1.83697019872103E-16,0.));
#1415=DIRECTION('',(1.,1.83697019872103E-16,0.));
#1416=DIRECTION('center_axis',(1.,0.,0.));
#1417=DIRECTION('ref_axis',(0.,0.,-1.));
#1418=DIRECTION('',(0.,0.,1.));
#1419=DIRECTION('',(0.,1.,0.));
#1420=DIRECTION('',(0.,0.,-1.));
#1421=DIRECTION('',(0.,1.,0.));
#1422=DIRECTION('center_axis',(-1.,0.,0.));
#1423=DIRECTION('ref_axis',(0.,0.,1.));
#1424=DIRECTION('',(0.,0.,1.));
#1425=DIRECTION('',(0.,1.,0.));
#1426=DIRECTION('',(0.,0.,1.));
#1427=DIRECTION('',(0.,1.,0.));
#1428=DIRECTION('center_axis',(0.,1.,0.));
#1429=DIRECTION('ref_axis',(0.,0.,1.));
#1430=DIRECTION('',(1.,0.,0.));
#1431=DIRECTION('',(-1.,0.,0.));
#1432=DIRECTION('center_axis',(0.962277565688229,0.272069635522114,0.));
#1433=DIRECTION('ref_axis',(-0.272069635522113,0.962277565688229,0.));
#1434=DIRECTION('',(-0.272069635522113,0.962277565688229,0.));
#1435=DIRECTION('',(-0.272069635522113,0.962277565688229,0.));
#1436=DIRECTION('',(0.,0.,1.));
#1437=DIRECTION('center_axis',(0.981908714988526,0.189354892806025,0.));
#1438=DIRECTION('ref_axis',(-0.189354892806025,0.981908714988526,0.));
#1439=DIRECTION('',(-0.189354892806025,0.981908714988526,0.));
#1440=DIRECTION('',(-0.189354892806025,0.981908714988526,0.));
#1441=DIRECTION('',(0.,0.,1.));
#1442=DIRECTION('center_axis',(0.995169530311635,-0.0981713091453926,0.));
#1443=DIRECTION('ref_axis',(0.0981713091453926,0.995169530311635,0.));
#1444=DIRECTION('',(0.0981713091453926,0.995169530311635,0.));
#1445=DIRECTION('',(0.0981713091453926,0.995169530311635,0.));
#1446=DIRECTION('',(0.,0.,1.));
#1447=DIRECTION('center_axis',(0.970365034146184,-0.241643747087472,0.));
#1448=DIRECTION('ref_axis',(0.241643747087472,0.970365034146184,0.));
#1449=DIRECTION('',(0.241643747087472,0.970365034146184,0.));
#1450=DIRECTION('',(0.241643747087472,0.970365034146184,0.));
#1451=DIRECTION('center_axis',(-0.970365034146184,0.241643747087473,0.));
#1452=DIRECTION('ref_axis',(-0.241643747087473,-0.970365034146184,0.));
#1453=DIRECTION('',(-0.241643747087473,-0.970365034146184,0.));
#1454=DIRECTION('',(-0.241643747087473,-0.970365034146184,0.));
#1455=DIRECTION('',(0.,0.,1.));
#1456=DIRECTION('center_axis',(-0.995169530311635,0.0981713091453924,0.));
#1457=DIRECTION('ref_axis',(-0.0981713091453924,-0.995169530311635,0.));
#1458=DIRECTION('',(-0.0981713091453924,-0.995169530311635,0.));
#1459=DIRECTION('',(-0.0981713091453924,-0.995169530311635,0.));
#1460=DIRECTION('',(0.,0.,1.));
#1461=DIRECTION('center_axis',(-0.981908714988526,-0.189354892806025,0.));
#1462=DIRECTION('ref_axis',(0.189354892806025,-0.981908714988526,0.));
#1463=DIRECTION('',(0.189354892806025,-0.981908714988526,0.));
#1464=DIRECTION('',(0.189354892806025,-0.981908714988526,0.));
#1465=DIRECTION('',(0.,0.,1.));
#1466=DIRECTION('center_axis',(-0.962277565688229,-0.272069635522114,0.));
#1467=DIRECTION('ref_axis',(0.272069635522114,-0.962277565688229,0.));
#1468=DIRECTION('',(0.272069635522114,-0.962277565688229,0.));
#1469=DIRECTION('',(0.272069635522114,-0.962277565688229,0.));
#1470=DIRECTION('center_axis',(0.,0.,1.));
#1471=DIRECTION('ref_axis',(1.,0.,0.));
#1472=DIRECTION('center_axis',(0.,0.,1.));
#1473=DIRECTION('ref_axis',(1.,0.,0.));
#1474=DIRECTION('',(0.,0.,1.));
#1475=DIRECTION('',(1.,0.,0.));
#1476=DIRECTION('',(1.12796548640407E-17,-1.87416182996143E-16,1.));
#1477=DIRECTION('',(-1.,-2.7755575615629E-17,1.12796548640407E-17));
#1478=DIRECTION('',(1.87376281645373E-17,-4.34715456040832E-17,-1.));
#1479=DIRECTION('',(1.,2.77555756156289E-17,1.87376281645373E-17));
#1480=CARTESIAN_POINT('',(0.,0.,0.));
#1481=CARTESIAN_POINT('',(0.,0.,0.));
#1482=CARTESIAN_POINT('',(0.,0.,0.));
#1483=CARTESIAN_POINT('Origin',(-0.570000000000001,0.,0.));
#1484=CARTESIAN_POINT('',(-0.570000000000001,-4.33680868994202E-16,-2.));
#1485=CARTESIAN_POINT('',(-0.570000000000001,-4.33680868994202E-16,-2.69999999999993));
#1486=CARTESIAN_POINT('',(-0.570000000000001,-4.33680868994202E-16,-2.69999999999993));
#1487=CARTESIAN_POINT('',(-0.570000000000001,3.2,-2.));
#1488=CARTESIAN_POINT('',(-0.570000000000001,0.,-2.));
#1489=CARTESIAN_POINT('',(-0.570000000000001,8.3,-2.));
#1490=CARTESIAN_POINT('',(-0.570000000000001,0.,-2.));
#1491=CARTESIAN_POINT('',(-0.570000000000001,9.4,-2.40036725769282));
#1492=CARTESIAN_POINT('',(-0.570000000000001,8.3,-2.));
#1493=CARTESIAN_POINT('',(-0.570000000000001,9.4,-3.2996327423071));
#1494=CARTESIAN_POINT('',(-0.570000000000001,9.4,-2.40036725769282));
#1495=CARTESIAN_POINT('',(-0.570000000000001,8.3,-3.69999999999993));
#1496=CARTESIAN_POINT('',(-0.570000000000001,9.4,-3.2996327423071));
#1497=CARTESIAN_POINT('',(-0.570000000000001,7.48867513459483,-3.69999999999992));
#1498=CARTESIAN_POINT('',(-0.570000000000001,8.3,-3.69999999999993));
#1499=CARTESIAN_POINT('',(-0.570000000000001,7.20000000000001,-3.19999999999993));
#1500=CARTESIAN_POINT('',(-0.570000000000001,7.48867513459483,-3.69999999999992));
#1501=CARTESIAN_POINT('',(-0.570000000000001,0.5,-3.19999999999993));
#1502=CARTESIAN_POINT('',(-0.570000000000001,7.20000000000001,-3.19999999999993));
#1503=CARTESIAN_POINT('',(-0.570000000000001,0.5,-3.19999999999993));
#1504=CARTESIAN_POINT('Origin',(16.41,0.,-2.));
#1505=CARTESIAN_POINT('',(4.53,3.2,-2.));
#1506=CARTESIAN_POINT('',(-1.95,3.2,-2.));
#1507=CARTESIAN_POINT('',(4.53,8.3,-2.));
#1508=CARTESIAN_POINT('',(4.53,0.,-2.));
#1509=CARTESIAN_POINT('',(16.41,8.3,-2.));
#1510=CARTESIAN_POINT('Origin',(16.41,8.3,-2.));
#1511=CARTESIAN_POINT('',(4.53,9.4,-2.40036725769282));
#1512=CARTESIAN_POINT('',(4.53,8.3,-2.));
#1513=CARTESIAN_POINT('',(16.41,9.4,-2.40036725769282));
#1514=CARTESIAN_POINT('Origin',(16.41,9.4,-2.40036725769282));
#1515=CARTESIAN_POINT('',(4.53,9.4,-3.2996327423071));
#1516=CARTESIAN_POINT('',(4.53,9.4,-2.40036725769282));
#1517=CARTESIAN_POINT('',(16.41,9.4,-3.2996327423071));
#1518=CARTESIAN_POINT('Origin',(16.41,9.4,-3.2996327423071));
#1519=CARTESIAN_POINT('',(4.53,8.3,-3.69999999999993));
#1520=CARTESIAN_POINT('',(4.53,9.4,-3.2996327423071));
#1521=CARTESIAN_POINT('',(16.41,8.3,-3.69999999999993));
#1522=CARTESIAN_POINT('Origin',(16.41,8.3,-3.69999999999993));
#1523=CARTESIAN_POINT('',(4.53,7.48867513459483,-3.69999999999992));
#1524=CARTESIAN_POINT('',(4.53,8.3,-3.69999999999993));
#1525=CARTESIAN_POINT('',(16.41,7.48867513459483,-3.69999999999992));
#1526=CARTESIAN_POINT('Origin',(16.41,7.48867513459483,-3.69999999999992));
#1527=CARTESIAN_POINT('',(4.53,7.20000000000001,-3.19999999999993));
#1528=CARTESIAN_POINT('',(4.53,7.48867513459483,-3.69999999999992));
#1529=CARTESIAN_POINT('',(16.41,7.20000000000001,-3.19999999999993));
#1530=CARTESIAN_POINT('Origin',(16.41,7.20000000000001,-3.19999999999993));
#1531=CARTESIAN_POINT('',(4.53,0.5,-3.19999999999993));
#1532=CARTESIAN_POINT('',(4.53,7.20000000000001,-3.19999999999993));
#1533=CARTESIAN_POINT('',(16.41,0.5,-3.19999999999993));
#1534=CARTESIAN_POINT('Origin',(16.41,0.5,-3.19999999999993));
#1535=CARTESIAN_POINT('',(4.53,-4.33680868994202E-16,-2.69999999999993));
#1536=CARTESIAN_POINT('',(4.53,0.5,-3.19999999999993));
#1537=CARTESIAN_POINT('',(16.41,-4.33680868994202E-16,-2.69999999999993));
#1538=CARTESIAN_POINT('Origin',(-0.570000000000004,-4.33680868994202E-16,
0.569999999999999));
#1539=CARTESIAN_POINT('',(-0.570000000000004,3.2,0.569999999999999));
#1540=CARTESIAN_POINT('',(0.569999999999999,3.2,0.569999999999999));
#1541=CARTESIAN_POINT('',(-0.570000000000004,3.2,0.569999999999999));
#1542=CARTESIAN_POINT('',(0.569999999999999,-4.33680868994202E-16,0.569999999999999));
#1543=CARTESIAN_POINT('',(0.569999999999999,-4.33680868994202E-16,0.569999999999999));
#1544=CARTESIAN_POINT('',(-0.570000000000004,-4.33680868994202E-16,0.569999999999999));
#1545=CARTESIAN_POINT('',(-0.570000000000004,-4.33680868994202E-16,0.569999999999999));
#1546=CARTESIAN_POINT('',(-0.570000000000004,-4.33680868994202E-16,0.569999999999999));
#1547=CARTESIAN_POINT('Origin',(0.569999999999999,-4.33680868994202E-16,
-0.57));
#1548=CARTESIAN_POINT('',(0.569999999999999,3.2,-0.57));
#1549=CARTESIAN_POINT('',(0.569999999999999,3.2,-0.57));
#1550=CARTESIAN_POINT('',(0.569999999999999,-4.33680868994202E-16,-0.57));
#1551=CARTESIAN_POINT('',(0.569999999999999,-4.33680868994202E-16,-0.57));
#1552=CARTESIAN_POINT('',(0.569999999999999,-4.33680868994202E-16,-0.57));
#1553=CARTESIAN_POINT('Origin',(-0.570000000000004,-4.33680868994202E-16,
-0.57));
#1554=CARTESIAN_POINT('',(-0.570000000000004,3.2,-0.57));
#1555=CARTESIAN_POINT('',(-0.570000000000004,3.2,-0.57));
#1556=CARTESIAN_POINT('',(-0.570000000000004,-4.33680868994202E-16,-0.57));
#1557=CARTESIAN_POINT('',(-0.570000000000004,-4.33680868994202E-16,-0.57));
#1558=CARTESIAN_POINT('',(-0.570000000000004,-4.33680868994202E-16,-0.57));
#1559=CARTESIAN_POINT('Origin',(-0.570000000000004,-4.33680868994202E-16,
-0.57));
#1560=CARTESIAN_POINT('',(-0.570000000000004,3.2,-0.57));
#1561=CARTESIAN_POINT('',(-0.570000000000004,-4.33680868994202E-16,-0.57));
#1562=CARTESIAN_POINT('Origin',(0.,3.2,0.));
#1563=CARTESIAN_POINT('',(5.91,3.2,-2.));
#1564=CARTESIAN_POINT('',(5.91,3.2,-2.));
#1565=CARTESIAN_POINT('',(-1.95,3.2,-2.));
#1566=CARTESIAN_POINT('',(-1.95,3.2,-2.));
#1567=CARTESIAN_POINT('',(-1.95,3.2,4.8));
#1568=CARTESIAN_POINT('',(-1.95,3.2,4.8));
#1569=CARTESIAN_POINT('',(5.91,3.2,4.8));
#1570=CARTESIAN_POINT('',(-1.95,3.2,4.8));
#1571=CARTESIAN_POINT('',(5.91,3.2,4.8));
#1572=CARTESIAN_POINT('',(4.53,3.2,0.569999999999999));
#1573=CARTESIAN_POINT('',(3.39,3.2,0.569999999999999));
#1574=CARTESIAN_POINT('',(4.53,3.2,0.569999999999999));
#1575=CARTESIAN_POINT('',(3.39,3.2,-0.57));
#1576=CARTESIAN_POINT('',(3.39,3.2,-0.57));
#1577=CARTESIAN_POINT('',(4.53,3.2,-0.57));
#1578=CARTESIAN_POINT('',(4.53,3.2,-0.57));
#1579=CARTESIAN_POINT('',(4.53,3.2,-0.57));
#1580=CARTESIAN_POINT('Origin',(0.,-4.33680868994202E-16,0.));
#1581=CARTESIAN_POINT('',(4.53,-4.33680868994202E-16,-2.));
#1582=CARTESIAN_POINT('',(4.53,-4.33680868994202E-16,-2.69999999999993));
#1583=CARTESIAN_POINT('',(5.91,-4.33680868994202E-16,-2.));
#1584=CARTESIAN_POINT('',(5.91,-4.33680868994202E-16,-2.));
#1585=CARTESIAN_POINT('',(5.91,-4.33680868994202E-16,4.8));
#1586=CARTESIAN_POINT('',(5.91,-4.33680868994202E-16,4.8));
#1587=CARTESIAN_POINT('',(-1.95,-4.33680868994202E-16,4.8));
#1588=CARTESIAN_POINT('',(-1.95,-4.33680868994202E-16,4.8));
#1589=CARTESIAN_POINT('',(-1.95,-4.33680868994202E-16,-2.));
#1590=CARTESIAN_POINT('',(-1.95,-4.33680868994202E-16,4.8));
#1591=CARTESIAN_POINT('',(-1.95,-4.33680868994202E-16,-2.));
#1592=CARTESIAN_POINT('',(4.53,-4.33680868994202E-16,-0.57));
#1593=CARTESIAN_POINT('',(4.53,-4.33680868994202E-16,0.569999999999999));
#1594=CARTESIAN_POINT('',(4.53,-4.33680868994202E-16,-0.57));
#1595=CARTESIAN_POINT('',(3.39,-4.33680868994202E-16,-0.57));
#1596=CARTESIAN_POINT('',(4.53,-4.33680868994202E-16,-0.57));
#1597=CARTESIAN_POINT('',(3.39,-4.33680868994202E-16,0.569999999999999));
#1598=CARTESIAN_POINT('',(3.39,-4.33680868994202E-16,-0.57));
#1599=CARTESIAN_POINT('',(4.53,-4.33680868994202E-16,0.569999999999999));
#1600=CARTESIAN_POINT('Origin',(-1.95,-4.33680868994202E-16,4.8));
#1601=CARTESIAN_POINT('',(-1.95,-4.33680868994202E-16,4.8));
#1602=CARTESIAN_POINT('',(-1.95,-4.33680868994202E-16,-2.));
#1603=CARTESIAN_POINT('Origin',(-1.95,-4.33680868994202E-16,4.8));
#1604=CARTESIAN_POINT('',(5.91,3.2,4.8));
#1605=CARTESIAN_POINT('Origin',(-1.95,-4.33680868994202E-16,-2.));
#1606=CARTESIAN_POINT('Origin',(5.91,0.,0.));
#1607=CARTESIAN_POINT('',(5.91,-4.33680868994202E-16,-2.));
#1608=CARTESIAN_POINT('Origin',(5.91,-4.33680868994202E-16,-2.));
#1609=CARTESIAN_POINT('',(4.53,0.,-2.));
#1610=CARTESIAN_POINT('Origin',(4.53,-4.33680868994202E-16,-0.57));
#1611=CARTESIAN_POINT('',(4.53,-4.33680868994202E-16,-0.57));
#1612=CARTESIAN_POINT('',(4.53,-4.33680868994202E-16,0.569999999999999));
#1613=CARTESIAN_POINT('Origin',(4.53,-4.33680868994202E-16,-0.57));
#1614=CARTESIAN_POINT('',(3.39,-4.33680868994202E-16,-0.57));
#1615=CARTESIAN_POINT('Origin',(3.39,-4.33680868994202E-16,-0.57));
#1616=CARTESIAN_POINT('',(3.39,-4.33680868994202E-16,0.569999999999999));
#1617=CARTESIAN_POINT('Origin',(4.53,-4.33680868994202E-16,0.569999999999999));
#1618=CARTESIAN_POINT('Origin',(4.53,0.,0.));
#1619=CARTESIAN_POINT('',(0.,0.,0.));
#1620=CARTESIAN_POINT('Origin',(0.57,-3.7,0.355640646055101));
#1621=CARTESIAN_POINT('',(0.355640646055101,-3.7,0.355640646055101));
#1622=CARTESIAN_POINT('',(0.57,-2.9,0.57));
#1623=CARTESIAN_POINT('',(0.534214419432032,-3.03355360485799,0.534214419432032));
#1624=CARTESIAN_POINT('',(-0.57,-2.9,0.57));
#1625=CARTESIAN_POINT('',(0.57,-2.9,0.57));
#1626=CARTESIAN_POINT('',(-0.355640646055101,-3.7,0.355640646055101));
#1627=CARTESIAN_POINT('',(-0.369098495057018,-3.64977462376425,0.369098495057018));
#1628=CARTESIAN_POINT('',(0.57,-3.7,0.355640646055101));
#1629=CARTESIAN_POINT('Origin',(-0.355640646055101,-3.7,0.57));
#1630=CARTESIAN_POINT('',(-0.57,-2.9,-0.57));
#1631=CARTESIAN_POINT('',(-0.355640646055101,-3.7,-0.355640646055101));
#1632=CARTESIAN_POINT('',(-0.297527333921083,-3.91688183348027,-0.297527333921083));
#1633=CARTESIAN_POINT('',(-0.355640646055101,-3.7,0.57));
#1634=CARTESIAN_POINT('',(-0.57,-2.9,0.));
#1635=CARTESIAN_POINT('Origin',(0.57,-2.9,0.));
#1636=CARTESIAN_POINT('',(0.355640646055101,-3.7,-0.355640646055101));
#1637=CARTESIAN_POINT('',(0.57,-2.9,-0.57));
#1638=CARTESIAN_POINT('',(0.57,-2.9,-0.57));
#1639=CARTESIAN_POINT('',(0.57,-2.9,-0.57));
#1640=CARTESIAN_POINT('',(0.355640646055101,-3.7,0.57));
#1641=CARTESIAN_POINT('Origin',(0.57,-2.9,-0.57));
#1642=CARTESIAN_POINT('',(0.57,-2.9,-0.57));
#1643=CARTESIAN_POINT('',(0.57,-3.7,-0.355640646055101));
#1644=CARTESIAN_POINT('Origin',(0.57,10.9,-0.355640646055101));
#1645=CARTESIAN_POINT('',(0.355640646055101,10.9,-0.355640646055101));
#1646=CARTESIAN_POINT('',(0.57,10.1,-0.57));
#1647=CARTESIAN_POINT('',(0.534214419432032,10.233553604858,-0.534214419432032));
#1648=CARTESIAN_POINT('',(-0.57,10.1,-0.57));
#1649=CARTESIAN_POINT('',(0.57,10.1,-0.57));
#1650=CARTESIAN_POINT('',(-0.355640646055101,10.9,-0.355640646055101));
#1651=CARTESIAN_POINT('',(-0.297527333921082,11.1168818334803,-0.297527333921082));
#1652=CARTESIAN_POINT('',(0.57,10.9,-0.355640646055101));
#1653=CARTESIAN_POINT('Origin',(-0.355640646055101,10.9,0.57));
#1654=CARTESIAN_POINT('',(-0.57,10.1,0.57));
#1655=CARTESIAN_POINT('',(-0.355640646055101,10.9,0.355640646055101));
#1656=CARTESIAN_POINT('',(-0.369098495057018,10.8497746237643,0.369098495057018));
#1657=CARTESIAN_POINT('',(-0.355640646055101,10.9,0.57));
#1658=CARTESIAN_POINT('',(-0.57,10.1,0.));
#1659=CARTESIAN_POINT('Origin',(0.57,10.1,0.));
#1660=CARTESIAN_POINT('',(0.355640646055101,10.9,0.355640646055101));
#1661=CARTESIAN_POINT('',(0.57,10.1,0.57));
#1662=CARTESIAN_POINT('',(0.57,10.1,0.57));
#1663=CARTESIAN_POINT('',(0.57,10.1,0.57));
#1664=CARTESIAN_POINT('',(0.355640646055101,10.9,-0.57));
#1665=CARTESIAN_POINT('Origin',(0.57,10.1,0.57));
#1666=CARTESIAN_POINT('',(0.57,10.1,0.57));
#1667=CARTESIAN_POINT('',(0.57,10.9,0.355640646055101));
#1668=CARTESIAN_POINT('Origin',(-0.57,0.,0.));
#1669=CARTESIAN_POINT('',(-0.57,10.9,0.57));
#1670=CARTESIAN_POINT('',(-0.57,-3.7,-0.57));
#1671=CARTESIAN_POINT('Origin',(0.57,0.,0.));
#1672=CARTESIAN_POINT('',(0.57,-3.7,-0.57));
#1673=CARTESIAN_POINT('',(0.57,10.9,0.57));
#1674=CARTESIAN_POINT('Origin',(0.57,10.9,0.57));
#1675=CARTESIAN_POINT('Origin',(0.57,10.9,0.57));
#1676=CARTESIAN_POINT('Origin',(0.57,-3.7,-0.57));
#1677=CARTESIAN_POINT('Origin',(0.57,-3.7,0.57));
#1678=CARTESIAN_POINT('',(-1.98,4.33680868994202E-16,0.));
#1679=CARTESIAN_POINT('',(-1.98,0.,-1.51788304147971E-15));
#1680=CARTESIAN_POINT('',(1.98,0.,-1.51788304147971E-15));
#1681=CARTESIAN_POINT('',(0.,0.,0.));
#1682=CARTESIAN_POINT('Origin',(1.,1.83697019872103E-16,0.));
#1683=CARTESIAN_POINT('',(1.,1.83697019872103E-16,0.));
#1684=CARTESIAN_POINT('',(1.,0.,1.));
#1685=CARTESIAN_POINT('',(1.,1.83697019872103E-16,0.));
#1686=CARTESIAN_POINT('',(1.,-1.,1.));
#1687=CARTESIAN_POINT('',(1.,1.83697019872103E-16,1.));
#1688=CARTESIAN_POINT('',(1.,-1.,0.));
#1689=CARTESIAN_POINT('',(1.,-1.,0.));
#1690=CARTESIAN_POINT('',(1.,1.83697019872103E-16,0.));
#1691=CARTESIAN_POINT('Origin',(0.,0.,1.));
#1692=CARTESIAN_POINT('',(0.,0.,0.));
#1693=CARTESIAN_POINT('',(0.,0.,1.));
#1694=CARTESIAN_POINT('',(0.,0.,0.));
#1695=CARTESIAN_POINT('',(1.38777878078145E-16,-1.,0.));
#1696=CARTESIAN_POINT('',(0.,0.,0.));
#1697=CARTESIAN_POINT('',(1.38777878078145E-16,-1.,1.));
#1698=CARTESIAN_POINT('',(1.38777878078145E-16,-1.,1.));
#1699=CARTESIAN_POINT('',(0.,0.,1.));
#1700=CARTESIAN_POINT('Origin',(0.5,-1.,0.5));
#1701=CARTESIAN_POINT('',(1.,-1.,1.));
#1702=CARTESIAN_POINT('',(1.38777878078145E-16,-1.,0.));
#1703=CARTESIAN_POINT('Origin',(1.,15.3,1.));
#1704=CARTESIAN_POINT('',(1.,15.3,0.));
#1705=CARTESIAN_POINT('',(1.,15.3,1.));
#1706=CARTESIAN_POINT('',(1.,15.3,0.));
#1707=CARTESIAN_POINT('',(1.,19.3,0.));
#1708=CARTESIAN_POINT('',(1.,15.3,0.));
#1709=CARTESIAN_POINT('',(1.,19.3,1.));
#1710=CARTESIAN_POINT('',(1.,19.3,1.));
#1711=CARTESIAN_POINT('',(1.,15.3,1.));
#1712=CARTESIAN_POINT('Origin',(0.,15.3,0.));
#1713=CARTESIAN_POINT('',(0.,15.3,0.));
#1714=CARTESIAN_POINT('',(0.,15.3,1.));
#1715=CARTESIAN_POINT('',(0.,15.3,0.));
#1716=CARTESIAN_POINT('',(0.,19.3,1.));
#1717=CARTESIAN_POINT('',(0.,15.3,1.));
#1718=CARTESIAN_POINT('',(0.,19.3,0.));
#1719=CARTESIAN_POINT('',(0.,19.3,0.));
#1720=CARTESIAN_POINT('',(0.,15.3,0.));
#1721=CARTESIAN_POINT('Origin',(0.5,19.3,0.5));
#1722=CARTESIAN_POINT('',(0.,19.3,1.));
#1723=CARTESIAN_POINT('',(1.,19.3,0.));
#1724=CARTESIAN_POINT('Origin',(1.92116605054501,12.0419465130241,0.));
#1725=CARTESIAN_POINT('',(1.92116605054501,12.0419465130241,0.));
#1726=CARTESIAN_POINT('',(1.92116605054501,12.0419465130241,0.));
#1727=CARTESIAN_POINT('',(1.92116605054501,12.0419465130241,1.));
#1728=CARTESIAN_POINT('',(1.92116605054501,12.0419465130241,1.));
#1729=CARTESIAN_POINT('',(1.92116605054501,12.0419465130241,0.));
#1730=CARTESIAN_POINT('Origin',(2.5706040013981,8.67425543128272,0.));
#1731=CARTESIAN_POINT('',(2.5706040013981,8.67425543128272,0.));
#1732=CARTESIAN_POINT('',(2.5706040013981,8.67425543128272,0.));
#1733=CARTESIAN_POINT('',(2.5706040013981,8.67425543128272,1.));
#1734=CARTESIAN_POINT('',(2.5706040013981,8.67425543128272,1.));
#1735=CARTESIAN_POINT('',(2.5706040013981,8.67425543128272,0.));
#1736=CARTESIAN_POINT('Origin',(2.18389334915753,4.75414209565636,0.));
#1737=CARTESIAN_POINT('',(2.18389334915753,4.75414209565636,0.));
#1738=CARTESIAN_POINT('',(2.18389334915753,4.75414209565636,0.));
#1739=CARTESIAN_POINT('',(2.18389334915753,4.75414209565636,1.));
#1740=CARTESIAN_POINT('',(2.18389334915753,4.75414209565636,1.));
#1741=CARTESIAN_POINT('',(2.18389334915753,4.75414209565636,0.));
#1742=CARTESIAN_POINT('Origin',(1.,4.25524270914062E-17,0.));
#1743=CARTESIAN_POINT('',(1.,1.11022302462516E-15,0.));
#1744=CARTESIAN_POINT('',(1.,1.11022302462516E-15,1.));
#1745=CARTESIAN_POINT('Origin',(1.18389334915754,4.75414209565636,0.));
#1746=CARTESIAN_POINT('',(1.18389334915754,4.75414209565636,0.));
#1747=CARTESIAN_POINT('',(1.18389334915754,4.75414209565636,0.));
#1748=CARTESIAN_POINT('',(1.18389334915754,4.75414209565636,1.));
#1749=CARTESIAN_POINT('',(1.18389334915754,4.75414209565636,1.));
#1750=CARTESIAN_POINT('',(1.18389334915754,4.75414209565636,0.));
#1751=CARTESIAN_POINT('Origin',(1.5706040013981,8.67425543128272,0.));
#1752=CARTESIAN_POINT('',(1.5706040013981,8.67425543128272,0.));
#1753=CARTESIAN_POINT('',(1.5706040013981,8.67425543128272,0.));
#1754=CARTESIAN_POINT('',(1.5706040013981,8.67425543128272,1.));
#1755=CARTESIAN_POINT('',(1.5706040013981,8.67425543128272,1.));
#1756=CARTESIAN_POINT('',(1.5706040013981,8.67425543128272,0.));
#1757=CARTESIAN_POINT('Origin',(0.921166050545014,12.0419465130241,0.));
#1758=CARTESIAN_POINT('',(0.921166050545014,12.0419465130241,0.));
#1759=CARTESIAN_POINT('',(0.921166050545014,12.0419465130241,0.));
#1760=CARTESIAN_POINT('',(0.921166050545014,12.0419465130241,1.));
#1761=CARTESIAN_POINT('',(0.921166050545014,12.0419465130241,1.));
#1762=CARTESIAN_POINT('',(0.921166050545014,12.0419465130241,0.));
#1763=CARTESIAN_POINT('Origin',(0.,15.3,0.));
#1764=CARTESIAN_POINT('',(0.,15.3,0.));
#1765=CARTESIAN_POINT('',(0.,15.3,1.));
#1766=CARTESIAN_POINT('Origin',(1.28530200069905,7.65,1.));
#1767=CARTESIAN_POINT('Origin',(1.28530200069905,7.65,0.));
#1768=CARTESIAN_POINT('',(0.,0.,0.));
#1769=CARTESIAN_POINT('',(-1.48,-4.7,-0.499999999999995));
#1770=CARTESIAN_POINT('',(1.48,-4.7,0.499999999999998));
#1771=UNCERTAINTY_MEASURE_WITH_UNIT(LENGTH_MEASURE(0.01),#1783,
'DISTANCE_ACCURACY_VALUE',
'Maximum model space distance between geometric entities at asserted c
onnectivities');
#1772=UNCERTAINTY_MEASURE_WITH_UNIT(LENGTH_MEASURE(0.01),#1783,
'DISTANCE_ACCURACY_VALUE',
'Maximum model space distance between geometric entities at asserted c
onnectivities');
#1773=UNCERTAINTY_MEASURE_WITH_UNIT(LENGTH_MEASURE(0.01),#1783,
'DISTANCE_ACCURACY_VALUE',
'Maximum model space distance between geometric entities at asserted c
onnectivities');
#1774=UNCERTAINTY_MEASURE_WITH_UNIT(LENGTH_MEASURE(0.01),#1783,
'DISTANCE_ACCURACY_VALUE',
'Maximum model space distance between geometric entities at asserted c
onnectivities');
#1775=UNCERTAINTY_MEASURE_WITH_UNIT(LENGTH_MEASURE(0.01),#1783,
'DISTANCE_ACCURACY_VALUE',
'Maximum model space distance between geometric entities at asserted c
onnectivities');
#1776=UNCERTAINTY_MEASURE_WITH_UNIT(LENGTH_MEASURE(0.01),#1783,
'DISTANCE_ACCURACY_VALUE',
'Maximum model space distance between geometric entities at asserted c
onnectivities');
#1777=(
GEOMETRIC_REPRESENTATION_CONTEXT(3)
GLOBAL_UNCERTAINTY_ASSIGNED_CONTEXT((#1771))
GLOBAL_UNIT_ASSIGNED_CONTEXT((#1783,#1785,#1786))
REPRESENTATION_CONTEXT('','3D')
);
#1778=(
GEOMETRIC_REPRESENTATION_CONTEXT(3)
GLOBAL_UNCERTAINTY_ASSIGNED_CONTEXT((#1772))
GLOBAL_UNIT_ASSIGNED_CONTEXT((#1783,#1785,#1786))
REPRESENTATION_CONTEXT('','3D')
);
#1779=(
GEOMETRIC_REPRESENTATION_CONTEXT(3)
GLOBAL_UNCERTAINTY_ASSIGNED_CONTEXT((#1773))
GLOBAL_UNIT_ASSIGNED_CONTEXT((#1783,#1785,#1786))
REPRESENTATION_CONTEXT('','3D')
);
#1780=(
GEOMETRIC_REPRESENTATION_CONTEXT(3)
GLOBAL_UNCERTAINTY_ASSIGNED_CONTEXT((#1774))
GLOBAL_UNIT_ASSIGNED_CONTEXT((#1783,#1785,#1786))
REPRESENTATION_CONTEXT('','3D')
);
#1781=(
GEOMETRIC_REPRESENTATION_CONTEXT(3)
GLOBAL_UNCERTAINTY_ASSIGNED_CONTEXT((#1775))
GLOBAL_UNIT_ASSIGNED_CONTEXT((#1783,#1785,#1786))
REPRESENTATION_CONTEXT('','3D')
);
#1782=(
GEOMETRIC_REPRESENTATION_CONTEXT(3)
GLOBAL_UNCERTAINTY_ASSIGNED_CONTEXT((#1776))
GLOBAL_UNIT_ASSIGNED_CONTEXT((#1783,#1785,#1786))
REPRESENTATION_CONTEXT('','3D')
);
#1783=(
LENGTH_UNIT()
NAMED_UNIT(*)
SI_UNIT(.MILLI.,.METRE.)
);
#1784=(
LENGTH_UNIT()
NAMED_UNIT(*)
SI_UNIT(.CENTI.,.METRE.)
);
#1785=(
NAMED_UNIT(*)
PLANE_ANGLE_UNIT()
SI_UNIT($,.RADIAN.)
);
#1786=(
NAMED_UNIT(*)
SI_UNIT($,.STERADIAN.)
SOLID_ANGLE_UNIT()
);
#1787=SHAPE_DEFINITION_REPRESENTATION(#1792,#1803);
#1788=SHAPE_DEFINITION_REPRESENTATION(#1793,#1804);
#1789=SHAPE_DEFINITION_REPRESENTATION(#1794,#1805);
#1790=SHAPE_DEFINITION_REPRESENTATION(#1795,#1806);
#1791=SHAPE_DEFINITION_REPRESENTATION(#1799,#1807);
#1792=PRODUCT_DEFINITION_SHAPE('',$,#1809);
#1793=PRODUCT_DEFINITION_SHAPE('',$,#1810);
#1794=PRODUCT_DEFINITION_SHAPE('',$,#1811);
#1795=PRODUCT_DEFINITION_SHAPE('',$,#1812);
#1796=PRODUCT_DEFINITION_SHAPE($,$,#29);
#1797=PRODUCT_DEFINITION_SHAPE($,$,#30);
#1798=PRODUCT_DEFINITION_SHAPE($,$,#31);
#1799=PRODUCT_DEFINITION_SHAPE('',$,#1813);
#1800=PRODUCT_DEFINITION_SHAPE($,$,#32);
#1801=PRODUCT_DEFINITION_SHAPE($,$,#33);
#1802=PRODUCT_DEFINITION_SHAPE($,$,#34);
#1803=SHAPE_REPRESENTATION('',(#1145,#1208,#1209,#1210),#1777);
#1804=SHAPE_REPRESENTATION('',(#1146,#1188,#1189,#1190),#1778);
#1805=SHAPE_REPRESENTATION('',(#1147),#1779);
#1806=SHAPE_REPRESENTATION('',(#1173),#1780);
#1807=SHAPE_REPRESENTATION('',(#1191),#1781);
#1808=PRODUCT_DEFINITION_CONTEXT('part definition',#1825,'design');
#1809=PRODUCT_DEFINITION('jst-vh-2p','jst-vh-2p',#1814,#1808);
#1810=PRODUCT_DEFINITION('B2P-VH','B2P-VH',#1815,#1808);
#1811=PRODUCT_DEFINITION('BxP-VH_2','BxP-VH_2',#1816,#1808);
#1812=PRODUCT_DEFINITION('pin','pin',#1817,#1808);
#1813=PRODUCT_DEFINITION('jst-vh-2p_wire','jst-vh-2p_wire',#1818,#1808);
#1814=PRODUCT_DEFINITION_FORMATION('',$,#1827);
#1815=PRODUCT_DEFINITION_FORMATION('ANY',$,#1828);
#1816=PRODUCT_DEFINITION_FORMATION('ANY',$,#1829);
#1817=PRODUCT_DEFINITION_FORMATION('ANY',$,#1830);
#1818=PRODUCT_DEFINITION_FORMATION('',$,#1831);
#1819=PRODUCT_RELATED_PRODUCT_CATEGORY('jst-vh-2p','jst-vh-2p',(#1827));
#1820=PRODUCT_RELATED_PRODUCT_CATEGORY('B2P-VH','B2P-VH',(#1828));
#1821=PRODUCT_RELATED_PRODUCT_CATEGORY('BxP-VH_2','BxP-VH_2',(#1829));
#1822=PRODUCT_RELATED_PRODUCT_CATEGORY('pin','pin',(#1830));
#1823=PRODUCT_RELATED_PRODUCT_CATEGORY('jst-vh-2p_wire',
'jst-vh-2p_wire',(#1831));
#1824=APPLICATION_PROTOCOL_DEFINITION('international standard',
'automotive_design',2009,#1825);
#1825=APPLICATION_CONTEXT(
'Core Data for Automotive Mechanical Design Process');
#1826=PRODUCT_CONTEXT('part definition',#1825,'mechanical');
#1827=PRODUCT('jst-vh-2p','jst-vh-2p',$,(#1826));
#1828=PRODUCT('B2P-VH','B2P-VH','STEP AP214',(#1826));
#1829=PRODUCT('BxP-VH_2','BxP-VH_2',$,(#1826));
#1830=PRODUCT('pin','pin',$,(#1826));
#1831=PRODUCT('jst-vh-2p_wire','jst-vh-2p_wire',$,(#1826));
ENDSEC;
END-ISO-10303-21;
