M48
; DRILL file {KiCad 8.0.7} date 2026-01-16T18:11:35+0000
; FORMAT={-:-/ absolute / metric / decimal}
; #@! TF.CreationDate,2026-01-16T18:11:35+00:00
; #@! TF.GenerationSoftware,Kicad,Pcbnew,8.0.7
; #@! TF.FileFunction,Plated,1,2,PTH
FMAT,2
METRIC
; #@! TA.AperFunction,Plated,PTH,ViaDrill
T1C0.300
; #@! TA.AperFunction,Plated,PTH,ComponentDrill
T2C0.800
; #@! TA.AperFunction,Plated,PTH,ComponentDrill
T3C1.118
; #@! TA.AperFunction,Plated,PTH,ComponentDrill
T4C1.230
; #@! TA.AperFunction,Plated,PTH,ComponentDrill
T5C1.600
; #@! TA.AperFunction,Plated,PTH,ComponentDrill
T6C1.700
%
G90
G05
T1
X130.81Y-138.43
X134.62Y-143.1
X137.16Y-145.15
X142.24Y-139.7
T2
X119.38Y-58.42
X119.38Y-66.04
X119.38Y-68.58
X119.38Y-76.2
X119.38Y-78.74
X119.38Y-86.36
X119.38Y-88.9
X119.38Y-96.52
X119.38Y-99.06
X119.38Y-106.68
X119.38Y-109.22
X119.38Y-116.84
X119.38Y-137.16
X119.38Y-139.16
X119.38Y-141.16
X119.38Y-143.16
X119.38Y-145.16
X152.4Y-58.42
X152.4Y-78.74
X152.4Y-99.06
X157.48Y-63.5
X157.48Y-71.12
X157.48Y-83.82
X157.48Y-91.44
X157.48Y-104.14
X157.48Y-111.76
X157.48Y-137.16
X157.48Y-139.16
X157.48Y-141.16
X157.48Y-143.16
X157.48Y-145.16
X160.02Y-58.42
X160.02Y-78.74
X160.02Y-99.06
T3
X129.54Y-123.19
X129.54Y-130.81
X132.08Y-123.19
X132.08Y-130.81
X134.62Y-123.19
X134.62Y-130.81
X137.16Y-123.19
X137.16Y-130.81
X139.7Y-123.19
X139.7Y-130.81
X142.24Y-123.19
X142.24Y-130.81
X144.78Y-123.19
X144.78Y-130.81
X147.32Y-123.19
X147.32Y-130.81
T4
X124.46Y-63.5
X124.46Y-66.04
X124.46Y-68.58
X124.46Y-83.82
X124.46Y-86.36
X124.46Y-88.9
X124.46Y-104.14
X124.46Y-106.68
X124.46Y-109.22
X152.4Y-63.5
X152.4Y-66.04
X152.4Y-68.58
X152.4Y-83.82
X152.4Y-86.36
X152.4Y-88.9
X152.4Y-104.14
X152.4Y-106.68
X152.4Y-109.22
T5
X129.54Y-58.42
X129.54Y-71.12
X129.54Y-78.74
X129.54Y-91.44
X129.54Y-99.06
X129.54Y-111.76
X147.32Y-58.42
X147.32Y-71.12
X147.32Y-78.74
X147.32Y-91.44
X147.32Y-99.06
X147.32Y-111.76
T6
X130.66Y-149.86
X134.62Y-63.5
X134.62Y-67.46
X134.62Y-83.82
X134.62Y-87.78
X134.62Y-104.14
X134.62Y-108.1
X134.62Y-149.86
X142.24Y-63.5
X142.24Y-67.46
X142.24Y-83.82
X142.24Y-87.78
X142.24Y-104.14
X142.24Y-108.1
X142.24Y-149.86
X146.2Y-149.86
M30
