%TF.GenerationSoftware,KiCad,Pcbnew,8.0.7*%
%TF.CreationDate,2026-01-16T18:11:16+00:00*%
%TF.ProjectId,ris_switch-module,7269735f-7377-4697-9463-682d6d6f6475,rev?*%
%TF.SameCoordinates,Original*%
%TF.FileFunction,Copper,L1,Top*%
%TF.FilePolarity,Positive*%
%FSLAX46Y46*%
G04 Gerber Fmt 4.6, Leading zero omitted, Abs format (unit mm)*
G04 Created by KiCad (PCBNEW 8.0.7) date 2026-01-16 18:11:16*
%MOMM*%
%LPD*%
G01*
G04 APERTURE LIST*
%TA.AperFunction,ComponentPad*%
%ADD10R,3.000000X3.000000*%
%TD*%
%TA.AperFunction,ComponentPad*%
%ADD11C,3.000000*%
%TD*%
%TA.AperFunction,ComponentPad*%
%ADD12C,1.600000*%
%TD*%
%TA.AperFunction,ComponentPad*%
%ADD13O,1.600000X1.600000*%
%TD*%
%TA.AperFunction,ComponentPad*%
%ADD14R,1.850000X1.850000*%
%TD*%
%TA.AperFunction,ComponentPad*%
%ADD15C,1.850000*%
%TD*%
%TA.AperFunction,ComponentPad*%
%ADD16R,1.676400X1.676400*%
%TD*%
%TA.AperFunction,ComponentPad*%
%ADD17C,1.676400*%
%TD*%
%TA.AperFunction,ComponentPad*%
%ADD18R,3.200000X3.200000*%
%TD*%
%TA.AperFunction,ComponentPad*%
%ADD19O,3.200000X3.200000*%
%TD*%
%TA.AperFunction,ComponentPad*%
%ADD20R,1.308000X1.308000*%
%TD*%
%TA.AperFunction,ComponentPad*%
%ADD21C,1.308000*%
%TD*%
%TA.AperFunction,ViaPad*%
%ADD22C,0.600000*%
%TD*%
%TA.AperFunction,Conductor*%
%ADD23C,0.200000*%
%TD*%
%TA.AperFunction,Conductor*%
%ADD24C,0.300000*%
%TD*%
%TA.AperFunction,Conductor*%
%ADD25C,1.500000*%
%TD*%
G04 APERTURE END LIST*
D10*
%TO.P,J4,1,Pin_1*%
%TO.N,Net-(D1-K)*%
X142240000Y-63500000D03*
D11*
%TO.P,J4,2,Pin_2*%
%TO.N,Net-(D1-A)*%
X142240000Y-67460000D03*
%TD*%
D12*
%TO.P,R3,1*%
%TO.N,Net-(U5-Q2)*%
X157480000Y-111760000D03*
D13*
%TO.P,R3,2*%
%TO.N,Net-(Q3-Pad1)*%
X157480000Y-104140000D03*
%TD*%
D12*
%TO.P,R9,1*%
%TO.N,GND*%
X160020000Y-99060000D03*
D13*
%TO.P,R9,2*%
%TO.N,Net-(Q3-Pad1)*%
X152400000Y-99060000D03*
%TD*%
D14*
%TO.P,Q3,1*%
%TO.N,Net-(Q3-Pad1)*%
X152400000Y-104140000D03*
D15*
%TO.P,Q3,2*%
%TO.N,Net-(D3-A)*%
X152400000Y-106680000D03*
%TO.P,Q3,3*%
%TO.N,GND*%
X152400000Y-109220000D03*
%TD*%
D16*
%TO.P,U5,1,Q1*%
%TO.N,Net-(U5-Q1)*%
X147320000Y-123190000D03*
D17*
%TO.P,U5,2,Q2*%
%TO.N,Net-(U5-Q2)*%
X144780000Y-123190000D03*
%TO.P,U5,3,Q3*%
%TO.N,Net-(U5-Q3)*%
X142240000Y-123190000D03*
%TO.P,U5,4,Q4*%
%TO.N,Net-(U5-Q4)*%
X139700000Y-123190000D03*
%TO.P,U5,5,Q5*%
%TO.N,Net-(U5-Q5)*%
X137160000Y-123190000D03*
%TO.P,U5,6,Q6*%
%TO.N,unconnected-(U5-Q6-Pad6)*%
X134620000Y-123190000D03*
%TO.P,U5,7,Q7*%
%TO.N,unconnected-(U5-Q7-Pad7)*%
X132080000Y-123190000D03*
%TO.P,U5,8,GND*%
%TO.N,GND*%
X129540000Y-123190000D03*
%TO.P,U5,9,Q7_2*%
%TO.N,Net-(J2-Pin_3)*%
X129540000Y-130810000D03*
%TO.P,U5,10,~MR*%
%TO.N,Net-(J1-Pin_1)*%
X132080000Y-130810000D03*
%TO.P,U5,11,SH_CP*%
%TO.N,Net-(J1-Pin_4)*%
X134620000Y-130810000D03*
%TO.P,U5,12,ST_CP*%
%TO.N,Net-(J1-Pin_5)*%
X137160000Y-130810000D03*
%TO.P,U5,13,~OE*%
%TO.N,GND*%
X139700000Y-130810000D03*
%TO.P,U5,14,DS*%
%TO.N,Net-(J1-Pin_3)*%
X142240000Y-130810000D03*
%TO.P,U5,15,Q0*%
%TO.N,Net-(U5-Q0)*%
X144780000Y-130810000D03*
%TO.P,U5,16,VCC*%
%TO.N,Net-(J1-Pin_1)*%
X147320000Y-130810000D03*
%TD*%
D12*
%TO.P,R1,1*%
%TO.N,Net-(U5-Q0)*%
X157480000Y-71120000D03*
D13*
%TO.P,R1,2*%
%TO.N,Net-(Q1-Pad1)*%
X157480000Y-63500000D03*
%TD*%
D10*
%TO.P,J7,1,Pin_1*%
%TO.N,Net-(D1-K)*%
X134620000Y-67460000D03*
D11*
%TO.P,J7,2,Pin_2*%
%TO.N,Net-(D4-A)*%
X134620000Y-63500000D03*
%TD*%
D12*
%TO.P,R8,1*%
%TO.N,GND*%
X160020000Y-78740000D03*
D13*
%TO.P,R8,2*%
%TO.N,Net-(Q2-Pad1)*%
X152400000Y-78740000D03*
%TD*%
D10*
%TO.P,J5,1,Pin_1*%
%TO.N,Net-(D1-K)*%
X142240000Y-83820000D03*
D11*
%TO.P,J5,2,Pin_2*%
%TO.N,Net-(D2-A)*%
X142240000Y-87780000D03*
%TD*%
D14*
%TO.P,Q1,1*%
%TO.N,Net-(Q1-Pad1)*%
X152400000Y-63500000D03*
D15*
%TO.P,Q1,2*%
%TO.N,Net-(D1-A)*%
X152400000Y-66040000D03*
%TO.P,Q1,3*%
%TO.N,GND*%
X152400000Y-68580000D03*
%TD*%
D18*
%TO.P,D1,1,K*%
%TO.N,Net-(D1-K)*%
X147320000Y-58420000D03*
D19*
%TO.P,D1,2,A*%
%TO.N,Net-(D1-A)*%
X147320000Y-71120000D03*
%TD*%
D12*
%TO.P,R7,1*%
%TO.N,GND*%
X160020000Y-58420000D03*
D13*
%TO.P,R7,2*%
%TO.N,Net-(Q1-Pad1)*%
X152400000Y-58420000D03*
%TD*%
D12*
%TO.P,R2,1*%
%TO.N,Net-(U5-Q1)*%
X157480000Y-91440000D03*
D13*
%TO.P,R2,2*%
%TO.N,Net-(Q2-Pad1)*%
X157480000Y-83820000D03*
%TD*%
D10*
%TO.P,J10,1,Pin_1*%
%TO.N,Net-(D1-K)*%
X142240000Y-149860000D03*
D11*
%TO.P,J10,2,Pin_2*%
%TO.N,GND*%
X146200000Y-149860000D03*
%TD*%
D20*
%TO.P,J2,1,Pin_1*%
%TO.N,Net-(J1-Pin_1)*%
X157480000Y-137160000D03*
D21*
%TO.P,J2,2,Pin_2*%
%TO.N,GND*%
X157480000Y-139160000D03*
%TO.P,J2,3,Pin_3*%
%TO.N,Net-(J2-Pin_3)*%
X157480000Y-141160000D03*
%TO.P,J2,4,Pin_4*%
%TO.N,Net-(J1-Pin_4)*%
X157480000Y-143160000D03*
%TO.P,J2,5,Pin_5*%
%TO.N,Net-(J1-Pin_5)*%
X157480000Y-145160000D03*
%TD*%
D14*
%TO.P,Q5,1*%
%TO.N,Net-(Q5-Pad1)*%
X124460000Y-88900000D03*
D15*
%TO.P,Q5,2*%
%TO.N,Net-(D5-A)*%
X124460000Y-86360000D03*
%TO.P,Q5,3*%
%TO.N,GND*%
X124460000Y-83820000D03*
%TD*%
D14*
%TO.P,Q2,1*%
%TO.N,Net-(Q2-Pad1)*%
X152400000Y-83820000D03*
D15*
%TO.P,Q2,2*%
%TO.N,Net-(D2-A)*%
X152400000Y-86360000D03*
%TO.P,Q2,3*%
%TO.N,GND*%
X152400000Y-88900000D03*
%TD*%
D20*
%TO.P,J1,1,Pin_1*%
%TO.N,Net-(J1-Pin_1)*%
X119380000Y-137160000D03*
D21*
%TO.P,J1,2,Pin_2*%
%TO.N,GND*%
X119380000Y-139160000D03*
%TO.P,J1,3,Pin_3*%
%TO.N,Net-(J1-Pin_3)*%
X119380000Y-141160000D03*
%TO.P,J1,4,Pin_4*%
%TO.N,Net-(J1-Pin_4)*%
X119380000Y-143160000D03*
%TO.P,J1,5,Pin_5*%
%TO.N,Net-(J1-Pin_5)*%
X119380000Y-145160000D03*
%TD*%
D18*
%TO.P,D3,1,K*%
%TO.N,Net-(D1-K)*%
X147320000Y-99060000D03*
D19*
%TO.P,D3,2,A*%
%TO.N,Net-(D3-A)*%
X147320000Y-111760000D03*
%TD*%
D12*
%TO.P,R11,1*%
%TO.N,GND*%
X119380000Y-78740000D03*
D13*
%TO.P,R11,2*%
%TO.N,Net-(Q5-Pad1)*%
X119380000Y-86360000D03*
%TD*%
D12*
%TO.P,R5,1*%
%TO.N,Net-(U5-Q4)*%
X119380000Y-96520000D03*
D13*
%TO.P,R5,2*%
%TO.N,Net-(Q5-Pad1)*%
X119380000Y-88900000D03*
%TD*%
D18*
%TO.P,D4,1,K*%
%TO.N,Net-(D1-K)*%
X129540000Y-71120000D03*
D19*
%TO.P,D4,2,A*%
%TO.N,Net-(D4-A)*%
X129540000Y-58420000D03*
%TD*%
D10*
%TO.P,J8,1,Pin_1*%
%TO.N,Net-(D1-K)*%
X134620000Y-87780000D03*
D11*
%TO.P,J8,2,Pin_2*%
%TO.N,Net-(D5-A)*%
X134620000Y-83820000D03*
%TD*%
D14*
%TO.P,Q4,1*%
%TO.N,Net-(Q4-Pad1)*%
X124460000Y-68580000D03*
D15*
%TO.P,Q4,2*%
%TO.N,Net-(D4-A)*%
X124460000Y-66040000D03*
%TO.P,Q4,3*%
%TO.N,GND*%
X124460000Y-63500000D03*
%TD*%
D10*
%TO.P,J9,1,Pin_1*%
%TO.N,Net-(D1-K)*%
X134620000Y-108100000D03*
D11*
%TO.P,J9,2,Pin_2*%
%TO.N,Net-(D6-A)*%
X134620000Y-104140000D03*
%TD*%
D12*
%TO.P,R12,1*%
%TO.N,GND*%
X119380000Y-99060000D03*
D13*
%TO.P,R12,2*%
%TO.N,Net-(Q6-Pad1)*%
X119380000Y-106680000D03*
%TD*%
D18*
%TO.P,D5,1,K*%
%TO.N,Net-(D1-K)*%
X129540000Y-91440000D03*
D19*
%TO.P,D5,2,A*%
%TO.N,Net-(D5-A)*%
X129540000Y-78740000D03*
%TD*%
D18*
%TO.P,D2,1,K*%
%TO.N,Net-(D1-K)*%
X147320000Y-78740000D03*
D19*
%TO.P,D2,2,A*%
%TO.N,Net-(D2-A)*%
X147320000Y-91440000D03*
%TD*%
D12*
%TO.P,R10,1*%
%TO.N,GND*%
X119380000Y-58420000D03*
D13*
%TO.P,R10,2*%
%TO.N,Net-(Q4-Pad1)*%
X119380000Y-66040000D03*
%TD*%
D18*
%TO.P,D6,1,K*%
%TO.N,Net-(D1-K)*%
X129540000Y-111760000D03*
D19*
%TO.P,D6,2,A*%
%TO.N,Net-(D6-A)*%
X129540000Y-99060000D03*
%TD*%
D12*
%TO.P,R6,1*%
%TO.N,Net-(U5-Q5)*%
X119380000Y-116840000D03*
D13*
%TO.P,R6,2*%
%TO.N,Net-(Q6-Pad1)*%
X119380000Y-109220000D03*
%TD*%
D10*
%TO.P,J3,1,Pin_1*%
%TO.N,Net-(D1-K)*%
X134620000Y-149860000D03*
D11*
%TO.P,J3,2,Pin_2*%
%TO.N,GND*%
X130660000Y-149860000D03*
%TD*%
D14*
%TO.P,Q6,1*%
%TO.N,Net-(Q6-Pad1)*%
X124460000Y-109220000D03*
D15*
%TO.P,Q6,2*%
%TO.N,Net-(D6-A)*%
X124460000Y-106680000D03*
%TO.P,Q6,3*%
%TO.N,GND*%
X124460000Y-104140000D03*
%TD*%
D12*
%TO.P,R4,1*%
%TO.N,Net-(U5-Q3)*%
X119380000Y-76200000D03*
D13*
%TO.P,R4,2*%
%TO.N,Net-(Q4-Pad1)*%
X119380000Y-68580000D03*
%TD*%
D10*
%TO.P,J6,1,Pin_1*%
%TO.N,Net-(D1-K)*%
X142240000Y-104140000D03*
D11*
%TO.P,J6,2,Pin_2*%
%TO.N,Net-(D3-A)*%
X142240000Y-108100000D03*
%TD*%
D22*
%TO.N,Net-(J2-Pin_3)*%
X130810000Y-138430000D03*
%TO.N,Net-(J1-Pin_4)*%
X134620000Y-143100000D03*
%TO.N,Net-(J1-Pin_3)*%
X142240000Y-139700000D03*
%TO.N,Net-(J1-Pin_5)*%
X137160000Y-145150000D03*
%TD*%
D23*
%TO.N,Net-(U5-Q0)*%
X157480000Y-81280000D02*
X160020000Y-83820000D01*
X158750000Y-95250000D02*
X158750000Y-100330000D01*
X161290000Y-102870000D02*
X161290000Y-114300000D01*
X160020000Y-93980000D02*
X158750000Y-95250000D01*
X157480000Y-71120000D02*
X157480000Y-81280000D01*
X160020000Y-83820000D02*
X160020000Y-93980000D01*
X158750000Y-100330000D02*
X161290000Y-102870000D01*
X161290000Y-114300000D02*
X144780000Y-130810000D01*
%TO.N,Net-(U5-Q1)*%
X149860000Y-123190000D02*
X160020000Y-113030000D01*
X157480000Y-101600000D02*
X157480000Y-91440000D01*
X160020000Y-113030000D02*
X160020000Y-104140000D01*
X160020000Y-104140000D02*
X157480000Y-101600000D01*
X147320000Y-123190000D02*
X149860000Y-123190000D01*
%TO.N,Net-(U5-Q2)*%
X144780000Y-123190000D02*
X156210000Y-111760000D01*
X156210000Y-111760000D02*
X157480000Y-111760000D01*
%TO.N,Net-(U5-Q3)*%
X142240000Y-123190000D02*
X139700000Y-120650000D01*
X139700000Y-81280000D02*
X134620000Y-76200000D01*
X134620000Y-76200000D02*
X119380000Y-76200000D01*
X139700000Y-120650000D02*
X139700000Y-81280000D01*
%TO.N,Net-(U5-Q4)*%
X137160000Y-101600000D02*
X137160000Y-120650000D01*
X137160000Y-120650000D02*
X139700000Y-123190000D01*
X137160000Y-101600000D02*
X132080000Y-96520000D01*
X132080000Y-96520000D02*
X119380000Y-96520000D01*
%TO.N,Net-(U5-Q5)*%
X137160000Y-123190000D02*
X130810000Y-116840000D01*
X130810000Y-116840000D02*
X119380000Y-116840000D01*
%TO.N,Net-(J1-Pin_1)*%
X132080000Y-130810000D02*
X132080000Y-134620000D01*
X147320000Y-130810000D02*
X147320000Y-134620000D01*
X147320000Y-134620000D02*
X144780000Y-137160000D01*
D24*
X144780000Y-137160000D02*
X157480000Y-137160000D01*
X129540000Y-137160000D02*
X144780000Y-137160000D01*
D23*
X132080000Y-134620000D02*
X129540000Y-137160000D01*
D24*
X119380000Y-137160000D02*
X129540000Y-137160000D01*
D23*
%TO.N,Net-(J1-Pin_4)*%
X134680000Y-143160000D02*
X157480000Y-143160000D01*
X134560000Y-143160000D02*
X134620000Y-143100000D01*
X134620000Y-143100000D02*
X134680000Y-143160000D01*
X119380000Y-143160000D02*
X134560000Y-143160000D01*
%TO.N,Net-(J1-Pin_3)*%
X140780000Y-141160000D02*
X119380000Y-141160000D01*
X142240000Y-139700000D02*
X140780000Y-141160000D01*
%TO.N,Net-(J1-Pin_5)*%
X137170000Y-145160000D02*
X157480000Y-145160000D01*
X137150000Y-145160000D02*
X137160000Y-145150000D01*
X119380000Y-145160000D02*
X137150000Y-145160000D01*
X137160000Y-145150000D02*
X137170000Y-145160000D01*
D25*
%TO.N,Net-(D1-A)*%
X145900000Y-67460000D02*
X147320000Y-66040000D01*
X147320000Y-66040000D02*
X152400000Y-66040000D01*
X147320000Y-71120000D02*
X143660000Y-67460000D01*
X143660000Y-67460000D02*
X142240000Y-67460000D01*
X142240000Y-67460000D02*
X145900000Y-67460000D01*
%TO.N,Net-(D2-A)*%
X147320000Y-86360000D02*
X152400000Y-86360000D01*
X142240000Y-87780000D02*
X145900000Y-87780000D01*
X147320000Y-91440000D02*
X143660000Y-87780000D01*
X145900000Y-87780000D02*
X147320000Y-86360000D01*
X143660000Y-87780000D02*
X142240000Y-87780000D01*
%TO.N,Net-(D3-A)*%
X147320000Y-106680000D02*
X152400000Y-106680000D01*
X145900000Y-108100000D02*
X147320000Y-106680000D01*
X142240000Y-108100000D02*
X145900000Y-108100000D01*
D23*
X143660000Y-108100000D02*
X142240000Y-108100000D01*
D25*
X147320000Y-111760000D02*
X143660000Y-108100000D01*
%TO.N,Net-(D4-A)*%
X132080000Y-63500000D02*
X129540000Y-66040000D01*
X129540000Y-66040000D02*
X124460000Y-66040000D01*
X129540000Y-58420000D02*
X134620000Y-63500000D01*
X134620000Y-63500000D02*
X132080000Y-63500000D01*
%TO.N,Net-(D5-A)*%
X129540000Y-86360000D02*
X124460000Y-86360000D01*
X132080000Y-83820000D02*
X129540000Y-86360000D01*
X129540000Y-78740000D02*
X134620000Y-83820000D01*
X134620000Y-83820000D02*
X132080000Y-83820000D01*
%TO.N,Net-(D6-A)*%
X132080000Y-104140000D02*
X129540000Y-106680000D01*
X134620000Y-104140000D02*
X132080000Y-104140000D01*
X129540000Y-106680000D02*
X124460000Y-106680000D01*
X129540000Y-99060000D02*
X134620000Y-104140000D01*
D23*
%TO.N,Net-(Q1-Pad1)*%
X152400000Y-63500000D02*
X157480000Y-63500000D01*
X152400000Y-63500000D02*
X152400000Y-58420000D01*
%TO.N,Net-(Q2-Pad1)*%
X152400000Y-83820000D02*
X152400000Y-78740000D01*
X152400000Y-83820000D02*
X157480000Y-83820000D01*
%TO.N,Net-(Q3-Pad1)*%
X152400000Y-104140000D02*
X152400000Y-99060000D01*
X152400000Y-104140000D02*
X157480000Y-104140000D01*
%TO.N,Net-(Q4-Pad1)*%
X121920000Y-68580000D02*
X119380000Y-66040000D01*
X124460000Y-68580000D02*
X121920000Y-68580000D01*
X124460000Y-68580000D02*
X119380000Y-68580000D01*
%TO.N,Net-(Q5-Pad1)*%
X119380000Y-88900000D02*
X124460000Y-88900000D01*
X121920000Y-88900000D02*
X119380000Y-86360000D01*
X124460000Y-88900000D02*
X121920000Y-88900000D01*
%TO.N,Net-(Q6-Pad1)*%
X119380000Y-109220000D02*
X124460000Y-109220000D01*
X124460000Y-109220000D02*
X121920000Y-109220000D01*
X121920000Y-109220000D02*
X119380000Y-106680000D01*
%TO.N,Net-(J2-Pin_3)*%
X154750000Y-138430000D02*
X130810000Y-138430000D01*
X157480000Y-141160000D02*
X154750000Y-138430000D01*
%TD*%
M02*
