%TF.GenerationSoftware,KiCad,Pcbnew,8.0.7*%
%TF.CreationDate,2026-01-16T18:11:16+00:00*%
%TF.ProjectId,ris_switch-module,7269735f-7377-4697-9463-682d6d6f6475,rev?*%
%TF.SameCoordinates,Original*%
%TF.FileFunction,Soldermask,Top*%
%TF.FilePolarity,Negative*%
%FSLAX46Y46*%
G04 Gerber Fmt 4.6, Leading zero omitted, Abs format (unit mm)*
G04 Created by KiCad (PCBNEW 8.0.7) date 2026-01-16 18:11:16*
%MOMM*%
%LPD*%
G01*
G04 APERTURE LIST*
G04 Aperture macros list*
%AMRoundRect*
0 Rectangle with rounded corners*
0 $1 Rounding radius*
0 $2 $3 $4 $5 $6 $7 $8 $9 X,Y pos of 4 corners*
0 Add a 4 corners polygon primitive as box body*
4,1,4,$2,$3,$4,$5,$6,$7,$8,$9,$2,$3,0*
0 Add four circle primitives for the rounded corners*
1,1,$1+$1,$2,$3*
1,1,$1+$1,$4,$5*
1,1,$1+$1,$6,$7*
1,1,$1+$1,$8,$9*
0 Add four rect primitives between the rounded corners*
20,1,$1+$1,$2,$3,$4,$5,0*
20,1,$1+$1,$4,$5,$6,$7,0*
20,1,$1+$1,$6,$7,$8,$9,0*
20,1,$1+$1,$8,$9,$2,$3,0*%
G04 Aperture macros list end*
%ADD10RoundRect,0.102000X-1.500000X1.500000X-1.500000X-1.500000X1.500000X-1.500000X1.500000X1.500000X0*%
%ADD11C,3.204000*%
%ADD12C,1.600000*%
%ADD13O,1.600000X1.600000*%
%ADD14RoundRect,0.102000X-0.925000X0.925000X-0.925000X-0.925000X0.925000X-0.925000X0.925000X0.925000X0*%
%ADD15C,2.054000*%
%ADD16RoundRect,0.102000X-0.838200X0.838200X-0.838200X-0.838200X0.838200X-0.838200X0.838200X0.838200X0*%
%ADD17C,1.880400*%
%ADD18RoundRect,0.102000X1.500000X-1.500000X1.500000X1.500000X-1.500000X1.500000X-1.500000X-1.500000X0*%
%ADD19R,3.200000X3.200000*%
%ADD20O,3.200000X3.200000*%
%ADD21RoundRect,0.102000X-1.500000X-1.500000X1.500000X-1.500000X1.500000X1.500000X-1.500000X1.500000X0*%
%ADD22RoundRect,0.102000X0.654000X-0.654000X0.654000X0.654000X-0.654000X0.654000X-0.654000X-0.654000X0*%
%ADD23C,1.512000*%
%ADD24RoundRect,0.102000X0.925000X-0.925000X0.925000X0.925000X-0.925000X0.925000X-0.925000X-0.925000X0*%
%ADD25RoundRect,0.102000X1.500000X1.500000X-1.500000X1.500000X-1.500000X-1.500000X1.500000X-1.500000X0*%
G04 APERTURE END LIST*
D10*
%TO.C,J4*%
X142240000Y-63500000D03*
D11*
X142240000Y-67460000D03*
%TD*%
D12*
%TO.C,R3*%
X157480000Y-111760000D03*
D13*
X157480000Y-104140000D03*
%TD*%
D12*
%TO.C,R9*%
X160020000Y-99060000D03*
D13*
X152400000Y-99060000D03*
%TD*%
D14*
%TO.C,Q3*%
X152400000Y-104140000D03*
D15*
X152400000Y-106680000D03*
X152400000Y-109220000D03*
%TD*%
D16*
%TO.C,U5*%
X147320000Y-123190000D03*
D17*
X144780000Y-123190000D03*
X142240000Y-123190000D03*
X139700000Y-123190000D03*
X137160000Y-123190000D03*
X134620000Y-123190000D03*
X132080000Y-123190000D03*
X129540000Y-123190000D03*
X129540000Y-130810000D03*
X132080000Y-130810000D03*
X134620000Y-130810000D03*
X137160000Y-130810000D03*
X139700000Y-130810000D03*
X142240000Y-130810000D03*
X144780000Y-130810000D03*
X147320000Y-130810000D03*
%TD*%
D12*
%TO.C,R1*%
X157480000Y-71120000D03*
D13*
X157480000Y-63500000D03*
%TD*%
D18*
%TO.C,J7*%
X134620000Y-67460000D03*
D11*
X134620000Y-63500000D03*
%TD*%
D12*
%TO.C,R8*%
X160020000Y-78740000D03*
D13*
X152400000Y-78740000D03*
%TD*%
D10*
%TO.C,J5*%
X142240000Y-83820000D03*
D11*
X142240000Y-87780000D03*
%TD*%
D14*
%TO.C,Q1*%
X152400000Y-63500000D03*
D15*
X152400000Y-66040000D03*
X152400000Y-68580000D03*
%TD*%
D19*
%TO.C,D1*%
X147320000Y-58420000D03*
D20*
X147320000Y-71120000D03*
%TD*%
D12*
%TO.C,R7*%
X160020000Y-58420000D03*
D13*
X152400000Y-58420000D03*
%TD*%
D12*
%TO.C,R2*%
X157480000Y-91440000D03*
D13*
X157480000Y-83820000D03*
%TD*%
D21*
%TO.C,J10*%
X142240000Y-149860000D03*
D11*
X146200000Y-149860000D03*
%TD*%
D22*
%TO.C,J2*%
X157480000Y-137160000D03*
D23*
X157480000Y-139160000D03*
X157480000Y-141160000D03*
X157480000Y-143160000D03*
X157480000Y-145160000D03*
%TD*%
D24*
%TO.C,Q5*%
X124460000Y-88900000D03*
D15*
X124460000Y-86360000D03*
X124460000Y-83820000D03*
%TD*%
D14*
%TO.C,Q2*%
X152400000Y-83820000D03*
D15*
X152400000Y-86360000D03*
X152400000Y-88900000D03*
%TD*%
D22*
%TO.C,J1*%
X119380000Y-137160000D03*
D23*
X119380000Y-139160000D03*
X119380000Y-141160000D03*
X119380000Y-143160000D03*
X119380000Y-145160000D03*
%TD*%
D19*
%TO.C,D3*%
X147320000Y-99060000D03*
D20*
X147320000Y-111760000D03*
%TD*%
D12*
%TO.C,R11*%
X119380000Y-78740000D03*
D13*
X119380000Y-86360000D03*
%TD*%
D12*
%TO.C,R5*%
X119380000Y-96520000D03*
D13*
X119380000Y-88900000D03*
%TD*%
D19*
%TO.C,D4*%
X129540000Y-71120000D03*
D20*
X129540000Y-58420000D03*
%TD*%
D18*
%TO.C,J8*%
X134620000Y-87780000D03*
D11*
X134620000Y-83820000D03*
%TD*%
D24*
%TO.C,Q4*%
X124460000Y-68580000D03*
D15*
X124460000Y-66040000D03*
X124460000Y-63500000D03*
%TD*%
D18*
%TO.C,J9*%
X134620000Y-108100000D03*
D11*
X134620000Y-104140000D03*
%TD*%
D12*
%TO.C,R12*%
X119380000Y-99060000D03*
D13*
X119380000Y-106680000D03*
%TD*%
D19*
%TO.C,D5*%
X129540000Y-91440000D03*
D20*
X129540000Y-78740000D03*
%TD*%
D19*
%TO.C,D2*%
X147320000Y-78740000D03*
D20*
X147320000Y-91440000D03*
%TD*%
D12*
%TO.C,R10*%
X119380000Y-58420000D03*
D13*
X119380000Y-66040000D03*
%TD*%
D19*
%TO.C,D6*%
X129540000Y-111760000D03*
D20*
X129540000Y-99060000D03*
%TD*%
D12*
%TO.C,R6*%
X119380000Y-116840000D03*
D13*
X119380000Y-109220000D03*
%TD*%
D25*
%TO.C,J3*%
X134620000Y-149860000D03*
D11*
X130660000Y-149860000D03*
%TD*%
D24*
%TO.C,Q6*%
X124460000Y-109220000D03*
D15*
X124460000Y-106680000D03*
X124460000Y-104140000D03*
%TD*%
D12*
%TO.C,R4*%
X119380000Y-76200000D03*
D13*
X119380000Y-68580000D03*
%TD*%
D10*
%TO.C,J6*%
X142240000Y-104140000D03*
D11*
X142240000Y-108100000D03*
%TD*%
M02*
