%TF.GenerationSoftware,KiCad,Pcbnew,8.0.7*%
%TF.CreationDate,2026-01-16T18:11:16+00:00*%
%TF.ProjectId,ris_switch-module,7269735f-7377-4697-9463-682d6d6f6475,rev?*%
%TF.SameCoordinates,Original*%
%TF.FileFunction,Legend,Top*%
%TF.FilePolarity,Positive*%
%FSLAX46Y46*%
G04 Gerber Fmt 4.6, Leading zero omitted, Abs format (unit mm)*
G04 Created by KiCad (PCBNEW 8.0.7) date 2026-01-16 18:11:16*
%MOMM*%
%LPD*%
G01*
G04 APERTURE LIST*
%ADD10C,0.150000*%
%ADD11C,0.152400*%
%ADD12C,0.120000*%
%ADD13C,0.127000*%
%ADD14C,0.200000*%
G04 APERTURE END LIST*
D10*
X156374875Y-133711792D02*
X155898684Y-134045125D01*
X156374875Y-134283220D02*
X155374875Y-134283220D01*
X155374875Y-134283220D02*
X155374875Y-133902268D01*
X155374875Y-133902268D02*
X155422494Y-133807030D01*
X155422494Y-133807030D02*
X155470113Y-133759411D01*
X155470113Y-133759411D02*
X155565351Y-133711792D01*
X155565351Y-133711792D02*
X155708208Y-133711792D01*
X155708208Y-133711792D02*
X155803446Y-133759411D01*
X155803446Y-133759411D02*
X155851065Y-133807030D01*
X155851065Y-133807030D02*
X155898684Y-133902268D01*
X155898684Y-133902268D02*
X155898684Y-134283220D01*
X156374875Y-133283220D02*
X155374875Y-133283220D01*
X156327256Y-132854649D02*
X156374875Y-132711792D01*
X156374875Y-132711792D02*
X156374875Y-132473697D01*
X156374875Y-132473697D02*
X156327256Y-132378459D01*
X156327256Y-132378459D02*
X156279636Y-132330840D01*
X156279636Y-132330840D02*
X156184398Y-132283221D01*
X156184398Y-132283221D02*
X156089160Y-132283221D01*
X156089160Y-132283221D02*
X155993922Y-132330840D01*
X155993922Y-132330840D02*
X155946303Y-132378459D01*
X155946303Y-132378459D02*
X155898684Y-132473697D01*
X155898684Y-132473697D02*
X155851065Y-132664173D01*
X155851065Y-132664173D02*
X155803446Y-132759411D01*
X155803446Y-132759411D02*
X155755827Y-132807030D01*
X155755827Y-132807030D02*
X155660589Y-132854649D01*
X155660589Y-132854649D02*
X155565351Y-132854649D01*
X155565351Y-132854649D02*
X155470113Y-132807030D01*
X155470113Y-132807030D02*
X155422494Y-132759411D01*
X155422494Y-132759411D02*
X155374875Y-132664173D01*
X155374875Y-132664173D02*
X155374875Y-132426078D01*
X155374875Y-132426078D02*
X155422494Y-132283221D01*
X155993922Y-131092744D02*
X155993922Y-130330840D01*
X156327256Y-129140363D02*
X156374875Y-128997506D01*
X156374875Y-128997506D02*
X156374875Y-128759411D01*
X156374875Y-128759411D02*
X156327256Y-128664173D01*
X156327256Y-128664173D02*
X156279636Y-128616554D01*
X156279636Y-128616554D02*
X156184398Y-128568935D01*
X156184398Y-128568935D02*
X156089160Y-128568935D01*
X156089160Y-128568935D02*
X155993922Y-128616554D01*
X155993922Y-128616554D02*
X155946303Y-128664173D01*
X155946303Y-128664173D02*
X155898684Y-128759411D01*
X155898684Y-128759411D02*
X155851065Y-128949887D01*
X155851065Y-128949887D02*
X155803446Y-129045125D01*
X155803446Y-129045125D02*
X155755827Y-129092744D01*
X155755827Y-129092744D02*
X155660589Y-129140363D01*
X155660589Y-129140363D02*
X155565351Y-129140363D01*
X155565351Y-129140363D02*
X155470113Y-129092744D01*
X155470113Y-129092744D02*
X155422494Y-129045125D01*
X155422494Y-129045125D02*
X155374875Y-128949887D01*
X155374875Y-128949887D02*
X155374875Y-128711792D01*
X155374875Y-128711792D02*
X155422494Y-128568935D01*
X155374875Y-128235601D02*
X156374875Y-127997506D01*
X156374875Y-127997506D02*
X155660589Y-127807030D01*
X155660589Y-127807030D02*
X156374875Y-127616554D01*
X156374875Y-127616554D02*
X155374875Y-127378459D01*
X156374875Y-126997506D02*
X155374875Y-126997506D01*
X155374875Y-126664173D02*
X155374875Y-126092745D01*
X156374875Y-126378459D02*
X155374875Y-126378459D01*
X156279636Y-125187983D02*
X156327256Y-125235602D01*
X156327256Y-125235602D02*
X156374875Y-125378459D01*
X156374875Y-125378459D02*
X156374875Y-125473697D01*
X156374875Y-125473697D02*
X156327256Y-125616554D01*
X156327256Y-125616554D02*
X156232017Y-125711792D01*
X156232017Y-125711792D02*
X156136779Y-125759411D01*
X156136779Y-125759411D02*
X155946303Y-125807030D01*
X155946303Y-125807030D02*
X155803446Y-125807030D01*
X155803446Y-125807030D02*
X155612970Y-125759411D01*
X155612970Y-125759411D02*
X155517732Y-125711792D01*
X155517732Y-125711792D02*
X155422494Y-125616554D01*
X155422494Y-125616554D02*
X155374875Y-125473697D01*
X155374875Y-125473697D02*
X155374875Y-125378459D01*
X155374875Y-125378459D02*
X155422494Y-125235602D01*
X155422494Y-125235602D02*
X155470113Y-125187983D01*
X156374875Y-124759411D02*
X155374875Y-124759411D01*
X155851065Y-124759411D02*
X155851065Y-124187983D01*
X156374875Y-124187983D02*
X155374875Y-124187983D01*
X156374875Y-122949887D02*
X155374875Y-122949887D01*
X155374875Y-122949887D02*
X156089160Y-122616554D01*
X156089160Y-122616554D02*
X155374875Y-122283221D01*
X155374875Y-122283221D02*
X156374875Y-122283221D01*
X155374875Y-121616554D02*
X155374875Y-121426078D01*
X155374875Y-121426078D02*
X155422494Y-121330840D01*
X155422494Y-121330840D02*
X155517732Y-121235602D01*
X155517732Y-121235602D02*
X155708208Y-121187983D01*
X155708208Y-121187983D02*
X156041541Y-121187983D01*
X156041541Y-121187983D02*
X156232017Y-121235602D01*
X156232017Y-121235602D02*
X156327256Y-121330840D01*
X156327256Y-121330840D02*
X156374875Y-121426078D01*
X156374875Y-121426078D02*
X156374875Y-121616554D01*
X156374875Y-121616554D02*
X156327256Y-121711792D01*
X156327256Y-121711792D02*
X156232017Y-121807030D01*
X156232017Y-121807030D02*
X156041541Y-121854649D01*
X156041541Y-121854649D02*
X155708208Y-121854649D01*
X155708208Y-121854649D02*
X155517732Y-121807030D01*
X155517732Y-121807030D02*
X155422494Y-121711792D01*
X155422494Y-121711792D02*
X155374875Y-121616554D01*
X156374875Y-120759411D02*
X155374875Y-120759411D01*
X155374875Y-120759411D02*
X155374875Y-120521316D01*
X155374875Y-120521316D02*
X155422494Y-120378459D01*
X155422494Y-120378459D02*
X155517732Y-120283221D01*
X155517732Y-120283221D02*
X155612970Y-120235602D01*
X155612970Y-120235602D02*
X155803446Y-120187983D01*
X155803446Y-120187983D02*
X155946303Y-120187983D01*
X155946303Y-120187983D02*
X156136779Y-120235602D01*
X156136779Y-120235602D02*
X156232017Y-120283221D01*
X156232017Y-120283221D02*
X156327256Y-120378459D01*
X156327256Y-120378459D02*
X156374875Y-120521316D01*
X156374875Y-120521316D02*
X156374875Y-120759411D01*
X155374875Y-119759411D02*
X156184398Y-119759411D01*
X156184398Y-119759411D02*
X156279636Y-119711792D01*
X156279636Y-119711792D02*
X156327256Y-119664173D01*
X156327256Y-119664173D02*
X156374875Y-119568935D01*
X156374875Y-119568935D02*
X156374875Y-119378459D01*
X156374875Y-119378459D02*
X156327256Y-119283221D01*
X156327256Y-119283221D02*
X156279636Y-119235602D01*
X156279636Y-119235602D02*
X156184398Y-119187983D01*
X156184398Y-119187983D02*
X155374875Y-119187983D01*
X156374875Y-118235602D02*
X156374875Y-118711792D01*
X156374875Y-118711792D02*
X155374875Y-118711792D01*
X155851065Y-117902268D02*
X155851065Y-117568935D01*
X156374875Y-117426078D02*
X156374875Y-117902268D01*
X156374875Y-117902268D02*
X155374875Y-117902268D01*
X155374875Y-117902268D02*
X155374875Y-117426078D01*
X157318152Y-134378458D02*
X157984819Y-134140363D01*
X157984819Y-134140363D02*
X157318152Y-133902268D01*
X157984819Y-132997506D02*
X157984819Y-133568934D01*
X157984819Y-133283220D02*
X156984819Y-133283220D01*
X156984819Y-133283220D02*
X157127676Y-133378458D01*
X157127676Y-133378458D02*
X157222914Y-133473696D01*
X157222914Y-133473696D02*
X157270533Y-133568934D01*
X157889580Y-132568934D02*
X157937200Y-132521315D01*
X157937200Y-132521315D02*
X157984819Y-132568934D01*
X157984819Y-132568934D02*
X157937200Y-132616553D01*
X157937200Y-132616553D02*
X157889580Y-132568934D01*
X157889580Y-132568934D02*
X157984819Y-132568934D01*
X156984819Y-131902268D02*
X156984819Y-131807030D01*
X156984819Y-131807030D02*
X157032438Y-131711792D01*
X157032438Y-131711792D02*
X157080057Y-131664173D01*
X157080057Y-131664173D02*
X157175295Y-131616554D01*
X157175295Y-131616554D02*
X157365771Y-131568935D01*
X157365771Y-131568935D02*
X157603866Y-131568935D01*
X157603866Y-131568935D02*
X157794342Y-131616554D01*
X157794342Y-131616554D02*
X157889580Y-131664173D01*
X157889580Y-131664173D02*
X157937200Y-131711792D01*
X157937200Y-131711792D02*
X157984819Y-131807030D01*
X157984819Y-131807030D02*
X157984819Y-131902268D01*
X157984819Y-131902268D02*
X157937200Y-131997506D01*
X157937200Y-131997506D02*
X157889580Y-132045125D01*
X157889580Y-132045125D02*
X157794342Y-132092744D01*
X157794342Y-132092744D02*
X157603866Y-132140363D01*
X157603866Y-132140363D02*
X157365771Y-132140363D01*
X157365771Y-132140363D02*
X157175295Y-132092744D01*
X157175295Y-132092744D02*
X157080057Y-132045125D01*
X157080057Y-132045125D02*
X157032438Y-131997506D01*
X157032438Y-131997506D02*
X156984819Y-131902268D01*
X157889580Y-131140363D02*
X157937200Y-131092744D01*
X157937200Y-131092744D02*
X157984819Y-131140363D01*
X157984819Y-131140363D02*
X157937200Y-131187982D01*
X157937200Y-131187982D02*
X157889580Y-131140363D01*
X157889580Y-131140363D02*
X157984819Y-131140363D01*
X156984819Y-130473697D02*
X156984819Y-130378459D01*
X156984819Y-130378459D02*
X157032438Y-130283221D01*
X157032438Y-130283221D02*
X157080057Y-130235602D01*
X157080057Y-130235602D02*
X157175295Y-130187983D01*
X157175295Y-130187983D02*
X157365771Y-130140364D01*
X157365771Y-130140364D02*
X157603866Y-130140364D01*
X157603866Y-130140364D02*
X157794342Y-130187983D01*
X157794342Y-130187983D02*
X157889580Y-130235602D01*
X157889580Y-130235602D02*
X157937200Y-130283221D01*
X157937200Y-130283221D02*
X157984819Y-130378459D01*
X157984819Y-130378459D02*
X157984819Y-130473697D01*
X157984819Y-130473697D02*
X157937200Y-130568935D01*
X157937200Y-130568935D02*
X157889580Y-130616554D01*
X157889580Y-130616554D02*
X157794342Y-130664173D01*
X157794342Y-130664173D02*
X157603866Y-130711792D01*
X157603866Y-130711792D02*
X157365771Y-130711792D01*
X157365771Y-130711792D02*
X157175295Y-130664173D01*
X157175295Y-130664173D02*
X157080057Y-130616554D01*
X157080057Y-130616554D02*
X157032438Y-130568935D01*
X157032438Y-130568935D02*
X156984819Y-130473697D01*
X157603866Y-128949887D02*
X157603866Y-128187983D01*
X157937200Y-126997506D02*
X157984819Y-126854649D01*
X157984819Y-126854649D02*
X157984819Y-126616554D01*
X157984819Y-126616554D02*
X157937200Y-126521316D01*
X157937200Y-126521316D02*
X157889580Y-126473697D01*
X157889580Y-126473697D02*
X157794342Y-126426078D01*
X157794342Y-126426078D02*
X157699104Y-126426078D01*
X157699104Y-126426078D02*
X157603866Y-126473697D01*
X157603866Y-126473697D02*
X157556247Y-126521316D01*
X157556247Y-126521316D02*
X157508628Y-126616554D01*
X157508628Y-126616554D02*
X157461009Y-126807030D01*
X157461009Y-126807030D02*
X157413390Y-126902268D01*
X157413390Y-126902268D02*
X157365771Y-126949887D01*
X157365771Y-126949887D02*
X157270533Y-126997506D01*
X157270533Y-126997506D02*
X157175295Y-126997506D01*
X157175295Y-126997506D02*
X157080057Y-126949887D01*
X157080057Y-126949887D02*
X157032438Y-126902268D01*
X157032438Y-126902268D02*
X156984819Y-126807030D01*
X156984819Y-126807030D02*
X156984819Y-126568935D01*
X156984819Y-126568935D02*
X157032438Y-126426078D01*
X157699104Y-126045125D02*
X157699104Y-125568935D01*
X157984819Y-126140363D02*
X156984819Y-125807030D01*
X156984819Y-125807030D02*
X157984819Y-125473697D01*
X157984819Y-125140363D02*
X156984819Y-125140363D01*
X156984819Y-125140363D02*
X157699104Y-124807030D01*
X157699104Y-124807030D02*
X156984819Y-124473697D01*
X156984819Y-124473697D02*
X157984819Y-124473697D01*
X157984819Y-123235601D02*
X156984819Y-123235601D01*
X156984819Y-123235601D02*
X156984819Y-122997506D01*
X156984819Y-122997506D02*
X157032438Y-122854649D01*
X157032438Y-122854649D02*
X157127676Y-122759411D01*
X157127676Y-122759411D02*
X157222914Y-122711792D01*
X157222914Y-122711792D02*
X157413390Y-122664173D01*
X157413390Y-122664173D02*
X157556247Y-122664173D01*
X157556247Y-122664173D02*
X157746723Y-122711792D01*
X157746723Y-122711792D02*
X157841961Y-122759411D01*
X157841961Y-122759411D02*
X157937200Y-122854649D01*
X157937200Y-122854649D02*
X157984819Y-122997506D01*
X157984819Y-122997506D02*
X157984819Y-123235601D01*
X157984819Y-122235601D02*
X156984819Y-122235601D01*
X156984819Y-121854649D02*
X157984819Y-121187983D01*
X156984819Y-121187983D02*
X157984819Y-121854649D01*
X156984819Y-120616554D02*
X156984819Y-120426078D01*
X156984819Y-120426078D02*
X157032438Y-120330840D01*
X157032438Y-120330840D02*
X157127676Y-120235602D01*
X157127676Y-120235602D02*
X157318152Y-120187983D01*
X157318152Y-120187983D02*
X157651485Y-120187983D01*
X157651485Y-120187983D02*
X157841961Y-120235602D01*
X157841961Y-120235602D02*
X157937200Y-120330840D01*
X157937200Y-120330840D02*
X157984819Y-120426078D01*
X157984819Y-120426078D02*
X157984819Y-120616554D01*
X157984819Y-120616554D02*
X157937200Y-120711792D01*
X157937200Y-120711792D02*
X157841961Y-120807030D01*
X157841961Y-120807030D02*
X157651485Y-120854649D01*
X157651485Y-120854649D02*
X157318152Y-120854649D01*
X157318152Y-120854649D02*
X157127676Y-120807030D01*
X157127676Y-120807030D02*
X157032438Y-120711792D01*
X157032438Y-120711792D02*
X156984819Y-120616554D01*
X157984819Y-119759411D02*
X156984819Y-119759411D01*
X156984819Y-119759411D02*
X157984819Y-119187983D01*
X157984819Y-119187983D02*
X156984819Y-119187983D01*
X141694819Y-71453333D02*
X142409104Y-71453333D01*
X142409104Y-71453333D02*
X142551961Y-71500952D01*
X142551961Y-71500952D02*
X142647200Y-71596190D01*
X142647200Y-71596190D02*
X142694819Y-71739047D01*
X142694819Y-71739047D02*
X142694819Y-71834285D01*
X142028152Y-70548571D02*
X142694819Y-70548571D01*
X141647200Y-70786666D02*
X142361485Y-71024761D01*
X142361485Y-71024761D02*
X142361485Y-70405714D01*
X160474819Y-108116666D02*
X159998628Y-108449999D01*
X160474819Y-108688094D02*
X159474819Y-108688094D01*
X159474819Y-108688094D02*
X159474819Y-108307142D01*
X159474819Y-108307142D02*
X159522438Y-108211904D01*
X159522438Y-108211904D02*
X159570057Y-108164285D01*
X159570057Y-108164285D02*
X159665295Y-108116666D01*
X159665295Y-108116666D02*
X159808152Y-108116666D01*
X159808152Y-108116666D02*
X159903390Y-108164285D01*
X159903390Y-108164285D02*
X159951009Y-108211904D01*
X159951009Y-108211904D02*
X159998628Y-108307142D01*
X159998628Y-108307142D02*
X159998628Y-108688094D01*
X159474819Y-107783332D02*
X159474819Y-107164285D01*
X159474819Y-107164285D02*
X159855771Y-107497618D01*
X159855771Y-107497618D02*
X159855771Y-107354761D01*
X159855771Y-107354761D02*
X159903390Y-107259523D01*
X159903390Y-107259523D02*
X159951009Y-107211904D01*
X159951009Y-107211904D02*
X160046247Y-107164285D01*
X160046247Y-107164285D02*
X160284342Y-107164285D01*
X160284342Y-107164285D02*
X160379580Y-107211904D01*
X160379580Y-107211904D02*
X160427200Y-107259523D01*
X160427200Y-107259523D02*
X160474819Y-107354761D01*
X160474819Y-107354761D02*
X160474819Y-107640475D01*
X160474819Y-107640475D02*
X160427200Y-107735713D01*
X160427200Y-107735713D02*
X160379580Y-107783332D01*
X156043333Y-96974819D02*
X155710000Y-96498628D01*
X155471905Y-96974819D02*
X155471905Y-95974819D01*
X155471905Y-95974819D02*
X155852857Y-95974819D01*
X155852857Y-95974819D02*
X155948095Y-96022438D01*
X155948095Y-96022438D02*
X155995714Y-96070057D01*
X155995714Y-96070057D02*
X156043333Y-96165295D01*
X156043333Y-96165295D02*
X156043333Y-96308152D01*
X156043333Y-96308152D02*
X155995714Y-96403390D01*
X155995714Y-96403390D02*
X155948095Y-96451009D01*
X155948095Y-96451009D02*
X155852857Y-96498628D01*
X155852857Y-96498628D02*
X155471905Y-96498628D01*
X156519524Y-96974819D02*
X156710000Y-96974819D01*
X156710000Y-96974819D02*
X156805238Y-96927200D01*
X156805238Y-96927200D02*
X156852857Y-96879580D01*
X156852857Y-96879580D02*
X156948095Y-96736723D01*
X156948095Y-96736723D02*
X156995714Y-96546247D01*
X156995714Y-96546247D02*
X156995714Y-96165295D01*
X156995714Y-96165295D02*
X156948095Y-96070057D01*
X156948095Y-96070057D02*
X156900476Y-96022438D01*
X156900476Y-96022438D02*
X156805238Y-95974819D01*
X156805238Y-95974819D02*
X156614762Y-95974819D01*
X156614762Y-95974819D02*
X156519524Y-96022438D01*
X156519524Y-96022438D02*
X156471905Y-96070057D01*
X156471905Y-96070057D02*
X156424286Y-96165295D01*
X156424286Y-96165295D02*
X156424286Y-96403390D01*
X156424286Y-96403390D02*
X156471905Y-96498628D01*
X156471905Y-96498628D02*
X156519524Y-96546247D01*
X156519524Y-96546247D02*
X156614762Y-96593866D01*
X156614762Y-96593866D02*
X156805238Y-96593866D01*
X156805238Y-96593866D02*
X156900476Y-96546247D01*
X156900476Y-96546247D02*
X156948095Y-96498628D01*
X156948095Y-96498628D02*
X156995714Y-96403390D01*
X155490057Y-106775238D02*
X155442438Y-106870476D01*
X155442438Y-106870476D02*
X155347200Y-106965714D01*
X155347200Y-106965714D02*
X155204342Y-107108571D01*
X155204342Y-107108571D02*
X155156723Y-107203809D01*
X155156723Y-107203809D02*
X155156723Y-107299047D01*
X155394819Y-107251428D02*
X155347200Y-107346666D01*
X155347200Y-107346666D02*
X155251961Y-107441904D01*
X155251961Y-107441904D02*
X155061485Y-107489523D01*
X155061485Y-107489523D02*
X154728152Y-107489523D01*
X154728152Y-107489523D02*
X154537676Y-107441904D01*
X154537676Y-107441904D02*
X154442438Y-107346666D01*
X154442438Y-107346666D02*
X154394819Y-107251428D01*
X154394819Y-107251428D02*
X154394819Y-107060952D01*
X154394819Y-107060952D02*
X154442438Y-106965714D01*
X154442438Y-106965714D02*
X154537676Y-106870476D01*
X154537676Y-106870476D02*
X154728152Y-106822857D01*
X154728152Y-106822857D02*
X155061485Y-106822857D01*
X155061485Y-106822857D02*
X155251961Y-106870476D01*
X155251961Y-106870476D02*
X155347200Y-106965714D01*
X155347200Y-106965714D02*
X155394819Y-107060952D01*
X155394819Y-107060952D02*
X155394819Y-107251428D01*
X154394819Y-106489523D02*
X154394819Y-105870476D01*
X154394819Y-105870476D02*
X154775771Y-106203809D01*
X154775771Y-106203809D02*
X154775771Y-106060952D01*
X154775771Y-106060952D02*
X154823390Y-105965714D01*
X154823390Y-105965714D02*
X154871009Y-105918095D01*
X154871009Y-105918095D02*
X154966247Y-105870476D01*
X154966247Y-105870476D02*
X155204342Y-105870476D01*
X155204342Y-105870476D02*
X155299580Y-105918095D01*
X155299580Y-105918095D02*
X155347200Y-105965714D01*
X155347200Y-105965714D02*
X155394819Y-106060952D01*
X155394819Y-106060952D02*
X155394819Y-106346666D01*
X155394819Y-106346666D02*
X155347200Y-106441904D01*
X155347200Y-106441904D02*
X155299580Y-106489523D01*
X149314819Y-131571904D02*
X150124342Y-131571904D01*
X150124342Y-131571904D02*
X150219580Y-131524285D01*
X150219580Y-131524285D02*
X150267200Y-131476666D01*
X150267200Y-131476666D02*
X150314819Y-131381428D01*
X150314819Y-131381428D02*
X150314819Y-131190952D01*
X150314819Y-131190952D02*
X150267200Y-131095714D01*
X150267200Y-131095714D02*
X150219580Y-131048095D01*
X150219580Y-131048095D02*
X150124342Y-131000476D01*
X150124342Y-131000476D02*
X149314819Y-131000476D01*
X149314819Y-130048095D02*
X149314819Y-130524285D01*
X149314819Y-130524285D02*
X149791009Y-130571904D01*
X149791009Y-130571904D02*
X149743390Y-130524285D01*
X149743390Y-130524285D02*
X149695771Y-130429047D01*
X149695771Y-130429047D02*
X149695771Y-130190952D01*
X149695771Y-130190952D02*
X149743390Y-130095714D01*
X149743390Y-130095714D02*
X149791009Y-130048095D01*
X149791009Y-130048095D02*
X149886247Y-130000476D01*
X149886247Y-130000476D02*
X150124342Y-130000476D01*
X150124342Y-130000476D02*
X150219580Y-130048095D01*
X150219580Y-130048095D02*
X150267200Y-130095714D01*
X150267200Y-130095714D02*
X150314819Y-130190952D01*
X150314819Y-130190952D02*
X150314819Y-130429047D01*
X150314819Y-130429047D02*
X150267200Y-130524285D01*
X150267200Y-130524285D02*
X150219580Y-130571904D01*
X160474819Y-67476666D02*
X159998628Y-67809999D01*
X160474819Y-68048094D02*
X159474819Y-68048094D01*
X159474819Y-68048094D02*
X159474819Y-67667142D01*
X159474819Y-67667142D02*
X159522438Y-67571904D01*
X159522438Y-67571904D02*
X159570057Y-67524285D01*
X159570057Y-67524285D02*
X159665295Y-67476666D01*
X159665295Y-67476666D02*
X159808152Y-67476666D01*
X159808152Y-67476666D02*
X159903390Y-67524285D01*
X159903390Y-67524285D02*
X159951009Y-67571904D01*
X159951009Y-67571904D02*
X159998628Y-67667142D01*
X159998628Y-67667142D02*
X159998628Y-68048094D01*
X160474819Y-66524285D02*
X160474819Y-67095713D01*
X160474819Y-66809999D02*
X159474819Y-66809999D01*
X159474819Y-66809999D02*
X159617676Y-66905237D01*
X159617676Y-66905237D02*
X159712914Y-67000475D01*
X159712914Y-67000475D02*
X159760533Y-67095713D01*
X134074819Y-71607133D02*
X134789104Y-71607133D01*
X134789104Y-71607133D02*
X134931961Y-71654752D01*
X134931961Y-71654752D02*
X135027200Y-71749990D01*
X135027200Y-71749990D02*
X135074819Y-71892847D01*
X135074819Y-71892847D02*
X135074819Y-71988085D01*
X134074819Y-71226180D02*
X134074819Y-70559514D01*
X134074819Y-70559514D02*
X135074819Y-70988085D01*
X156043333Y-76654819D02*
X155710000Y-76178628D01*
X155471905Y-76654819D02*
X155471905Y-75654819D01*
X155471905Y-75654819D02*
X155852857Y-75654819D01*
X155852857Y-75654819D02*
X155948095Y-75702438D01*
X155948095Y-75702438D02*
X155995714Y-75750057D01*
X155995714Y-75750057D02*
X156043333Y-75845295D01*
X156043333Y-75845295D02*
X156043333Y-75988152D01*
X156043333Y-75988152D02*
X155995714Y-76083390D01*
X155995714Y-76083390D02*
X155948095Y-76131009D01*
X155948095Y-76131009D02*
X155852857Y-76178628D01*
X155852857Y-76178628D02*
X155471905Y-76178628D01*
X156614762Y-76083390D02*
X156519524Y-76035771D01*
X156519524Y-76035771D02*
X156471905Y-75988152D01*
X156471905Y-75988152D02*
X156424286Y-75892914D01*
X156424286Y-75892914D02*
X156424286Y-75845295D01*
X156424286Y-75845295D02*
X156471905Y-75750057D01*
X156471905Y-75750057D02*
X156519524Y-75702438D01*
X156519524Y-75702438D02*
X156614762Y-75654819D01*
X156614762Y-75654819D02*
X156805238Y-75654819D01*
X156805238Y-75654819D02*
X156900476Y-75702438D01*
X156900476Y-75702438D02*
X156948095Y-75750057D01*
X156948095Y-75750057D02*
X156995714Y-75845295D01*
X156995714Y-75845295D02*
X156995714Y-75892914D01*
X156995714Y-75892914D02*
X156948095Y-75988152D01*
X156948095Y-75988152D02*
X156900476Y-76035771D01*
X156900476Y-76035771D02*
X156805238Y-76083390D01*
X156805238Y-76083390D02*
X156614762Y-76083390D01*
X156614762Y-76083390D02*
X156519524Y-76131009D01*
X156519524Y-76131009D02*
X156471905Y-76178628D01*
X156471905Y-76178628D02*
X156424286Y-76273866D01*
X156424286Y-76273866D02*
X156424286Y-76464342D01*
X156424286Y-76464342D02*
X156471905Y-76559580D01*
X156471905Y-76559580D02*
X156519524Y-76607200D01*
X156519524Y-76607200D02*
X156614762Y-76654819D01*
X156614762Y-76654819D02*
X156805238Y-76654819D01*
X156805238Y-76654819D02*
X156900476Y-76607200D01*
X156900476Y-76607200D02*
X156948095Y-76559580D01*
X156948095Y-76559580D02*
X156995714Y-76464342D01*
X156995714Y-76464342D02*
X156995714Y-76273866D01*
X156995714Y-76273866D02*
X156948095Y-76178628D01*
X156948095Y-76178628D02*
X156900476Y-76131009D01*
X156900476Y-76131009D02*
X156805238Y-76083390D01*
X141694819Y-91773333D02*
X142409104Y-91773333D01*
X142409104Y-91773333D02*
X142551961Y-91820952D01*
X142551961Y-91820952D02*
X142647200Y-91916190D01*
X142647200Y-91916190D02*
X142694819Y-92059047D01*
X142694819Y-92059047D02*
X142694819Y-92154285D01*
X141694819Y-90820952D02*
X141694819Y-91297142D01*
X141694819Y-91297142D02*
X142171009Y-91344761D01*
X142171009Y-91344761D02*
X142123390Y-91297142D01*
X142123390Y-91297142D02*
X142075771Y-91201904D01*
X142075771Y-91201904D02*
X142075771Y-90963809D01*
X142075771Y-90963809D02*
X142123390Y-90868571D01*
X142123390Y-90868571D02*
X142171009Y-90820952D01*
X142171009Y-90820952D02*
X142266247Y-90773333D01*
X142266247Y-90773333D02*
X142504342Y-90773333D01*
X142504342Y-90773333D02*
X142599580Y-90820952D01*
X142599580Y-90820952D02*
X142647200Y-90868571D01*
X142647200Y-90868571D02*
X142694819Y-90963809D01*
X142694819Y-90963809D02*
X142694819Y-91201904D01*
X142694819Y-91201904D02*
X142647200Y-91297142D01*
X142647200Y-91297142D02*
X142599580Y-91344761D01*
X155490057Y-66135238D02*
X155442438Y-66230476D01*
X155442438Y-66230476D02*
X155347200Y-66325714D01*
X155347200Y-66325714D02*
X155204342Y-66468571D01*
X155204342Y-66468571D02*
X155156723Y-66563809D01*
X155156723Y-66563809D02*
X155156723Y-66659047D01*
X155394819Y-66611428D02*
X155347200Y-66706666D01*
X155347200Y-66706666D02*
X155251961Y-66801904D01*
X155251961Y-66801904D02*
X155061485Y-66849523D01*
X155061485Y-66849523D02*
X154728152Y-66849523D01*
X154728152Y-66849523D02*
X154537676Y-66801904D01*
X154537676Y-66801904D02*
X154442438Y-66706666D01*
X154442438Y-66706666D02*
X154394819Y-66611428D01*
X154394819Y-66611428D02*
X154394819Y-66420952D01*
X154394819Y-66420952D02*
X154442438Y-66325714D01*
X154442438Y-66325714D02*
X154537676Y-66230476D01*
X154537676Y-66230476D02*
X154728152Y-66182857D01*
X154728152Y-66182857D02*
X155061485Y-66182857D01*
X155061485Y-66182857D02*
X155251961Y-66230476D01*
X155251961Y-66230476D02*
X155347200Y-66325714D01*
X155347200Y-66325714D02*
X155394819Y-66420952D01*
X155394819Y-66420952D02*
X155394819Y-66611428D01*
X155394819Y-65230476D02*
X155394819Y-65801904D01*
X155394819Y-65516190D02*
X154394819Y-65516190D01*
X154394819Y-65516190D02*
X154537676Y-65611428D01*
X154537676Y-65611428D02*
X154632914Y-65706666D01*
X154632914Y-65706666D02*
X154680533Y-65801904D01*
X150314819Y-71858094D02*
X149314819Y-71858094D01*
X149314819Y-71858094D02*
X149314819Y-71619999D01*
X149314819Y-71619999D02*
X149362438Y-71477142D01*
X149362438Y-71477142D02*
X149457676Y-71381904D01*
X149457676Y-71381904D02*
X149552914Y-71334285D01*
X149552914Y-71334285D02*
X149743390Y-71286666D01*
X149743390Y-71286666D02*
X149886247Y-71286666D01*
X149886247Y-71286666D02*
X150076723Y-71334285D01*
X150076723Y-71334285D02*
X150171961Y-71381904D01*
X150171961Y-71381904D02*
X150267200Y-71477142D01*
X150267200Y-71477142D02*
X150314819Y-71619999D01*
X150314819Y-71619999D02*
X150314819Y-71858094D01*
X150314819Y-70334285D02*
X150314819Y-70905713D01*
X150314819Y-70619999D02*
X149314819Y-70619999D01*
X149314819Y-70619999D02*
X149457676Y-70715237D01*
X149457676Y-70715237D02*
X149552914Y-70810475D01*
X149552914Y-70810475D02*
X149600533Y-70905713D01*
X156043333Y-56334819D02*
X155710000Y-55858628D01*
X155471905Y-56334819D02*
X155471905Y-55334819D01*
X155471905Y-55334819D02*
X155852857Y-55334819D01*
X155852857Y-55334819D02*
X155948095Y-55382438D01*
X155948095Y-55382438D02*
X155995714Y-55430057D01*
X155995714Y-55430057D02*
X156043333Y-55525295D01*
X156043333Y-55525295D02*
X156043333Y-55668152D01*
X156043333Y-55668152D02*
X155995714Y-55763390D01*
X155995714Y-55763390D02*
X155948095Y-55811009D01*
X155948095Y-55811009D02*
X155852857Y-55858628D01*
X155852857Y-55858628D02*
X155471905Y-55858628D01*
X156376667Y-55334819D02*
X157043333Y-55334819D01*
X157043333Y-55334819D02*
X156614762Y-56334819D01*
X160474819Y-87796666D02*
X159998628Y-88129999D01*
X160474819Y-88368094D02*
X159474819Y-88368094D01*
X159474819Y-88368094D02*
X159474819Y-87987142D01*
X159474819Y-87987142D02*
X159522438Y-87891904D01*
X159522438Y-87891904D02*
X159570057Y-87844285D01*
X159570057Y-87844285D02*
X159665295Y-87796666D01*
X159665295Y-87796666D02*
X159808152Y-87796666D01*
X159808152Y-87796666D02*
X159903390Y-87844285D01*
X159903390Y-87844285D02*
X159951009Y-87891904D01*
X159951009Y-87891904D02*
X159998628Y-87987142D01*
X159998628Y-87987142D02*
X159998628Y-88368094D01*
X159570057Y-87415713D02*
X159522438Y-87368094D01*
X159522438Y-87368094D02*
X159474819Y-87272856D01*
X159474819Y-87272856D02*
X159474819Y-87034761D01*
X159474819Y-87034761D02*
X159522438Y-86939523D01*
X159522438Y-86939523D02*
X159570057Y-86891904D01*
X159570057Y-86891904D02*
X159665295Y-86844285D01*
X159665295Y-86844285D02*
X159760533Y-86844285D01*
X159760533Y-86844285D02*
X159903390Y-86891904D01*
X159903390Y-86891904D02*
X160474819Y-87463332D01*
X160474819Y-87463332D02*
X160474819Y-86844285D01*
X149050476Y-149314819D02*
X149050476Y-150029104D01*
X149050476Y-150029104D02*
X149002857Y-150171961D01*
X149002857Y-150171961D02*
X148907619Y-150267200D01*
X148907619Y-150267200D02*
X148764762Y-150314819D01*
X148764762Y-150314819D02*
X148669524Y-150314819D01*
X150050476Y-150314819D02*
X149479048Y-150314819D01*
X149764762Y-150314819D02*
X149764762Y-149314819D01*
X149764762Y-149314819D02*
X149669524Y-149457676D01*
X149669524Y-149457676D02*
X149574286Y-149552914D01*
X149574286Y-149552914D02*
X149479048Y-149600533D01*
X150669524Y-149314819D02*
X150764762Y-149314819D01*
X150764762Y-149314819D02*
X150860000Y-149362438D01*
X150860000Y-149362438D02*
X150907619Y-149410057D01*
X150907619Y-149410057D02*
X150955238Y-149505295D01*
X150955238Y-149505295D02*
X151002857Y-149695771D01*
X151002857Y-149695771D02*
X151002857Y-149933866D01*
X151002857Y-149933866D02*
X150955238Y-150124342D01*
X150955238Y-150124342D02*
X150907619Y-150219580D01*
X150907619Y-150219580D02*
X150860000Y-150267200D01*
X150860000Y-150267200D02*
X150764762Y-150314819D01*
X150764762Y-150314819D02*
X150669524Y-150314819D01*
X150669524Y-150314819D02*
X150574286Y-150267200D01*
X150574286Y-150267200D02*
X150526667Y-150219580D01*
X150526667Y-150219580D02*
X150479048Y-150124342D01*
X150479048Y-150124342D02*
X150431429Y-149933866D01*
X150431429Y-149933866D02*
X150431429Y-149695771D01*
X150431429Y-149695771D02*
X150479048Y-149505295D01*
X150479048Y-149505295D02*
X150526667Y-149410057D01*
X150526667Y-149410057D02*
X150574286Y-149362438D01*
X150574286Y-149362438D02*
X150669524Y-149314819D01*
X152799819Y-145493333D02*
X153514104Y-145493333D01*
X153514104Y-145493333D02*
X153656961Y-145540952D01*
X153656961Y-145540952D02*
X153752200Y-145636190D01*
X153752200Y-145636190D02*
X153799819Y-145779047D01*
X153799819Y-145779047D02*
X153799819Y-145874285D01*
X152895057Y-145064761D02*
X152847438Y-145017142D01*
X152847438Y-145017142D02*
X152799819Y-144921904D01*
X152799819Y-144921904D02*
X152799819Y-144683809D01*
X152799819Y-144683809D02*
X152847438Y-144588571D01*
X152847438Y-144588571D02*
X152895057Y-144540952D01*
X152895057Y-144540952D02*
X152990295Y-144493333D01*
X152990295Y-144493333D02*
X153085533Y-144493333D01*
X153085533Y-144493333D02*
X153228390Y-144540952D01*
X153228390Y-144540952D02*
X153799819Y-145112380D01*
X153799819Y-145112380D02*
X153799819Y-144493333D01*
X122470057Y-86455238D02*
X122422438Y-86550476D01*
X122422438Y-86550476D02*
X122327200Y-86645714D01*
X122327200Y-86645714D02*
X122184342Y-86788571D01*
X122184342Y-86788571D02*
X122136723Y-86883809D01*
X122136723Y-86883809D02*
X122136723Y-86979047D01*
X122374819Y-86931428D02*
X122327200Y-87026666D01*
X122327200Y-87026666D02*
X122231961Y-87121904D01*
X122231961Y-87121904D02*
X122041485Y-87169523D01*
X122041485Y-87169523D02*
X121708152Y-87169523D01*
X121708152Y-87169523D02*
X121517676Y-87121904D01*
X121517676Y-87121904D02*
X121422438Y-87026666D01*
X121422438Y-87026666D02*
X121374819Y-86931428D01*
X121374819Y-86931428D02*
X121374819Y-86740952D01*
X121374819Y-86740952D02*
X121422438Y-86645714D01*
X121422438Y-86645714D02*
X121517676Y-86550476D01*
X121517676Y-86550476D02*
X121708152Y-86502857D01*
X121708152Y-86502857D02*
X122041485Y-86502857D01*
X122041485Y-86502857D02*
X122231961Y-86550476D01*
X122231961Y-86550476D02*
X122327200Y-86645714D01*
X122327200Y-86645714D02*
X122374819Y-86740952D01*
X122374819Y-86740952D02*
X122374819Y-86931428D01*
X121374819Y-85598095D02*
X121374819Y-86074285D01*
X121374819Y-86074285D02*
X121851009Y-86121904D01*
X121851009Y-86121904D02*
X121803390Y-86074285D01*
X121803390Y-86074285D02*
X121755771Y-85979047D01*
X121755771Y-85979047D02*
X121755771Y-85740952D01*
X121755771Y-85740952D02*
X121803390Y-85645714D01*
X121803390Y-85645714D02*
X121851009Y-85598095D01*
X121851009Y-85598095D02*
X121946247Y-85550476D01*
X121946247Y-85550476D02*
X122184342Y-85550476D01*
X122184342Y-85550476D02*
X122279580Y-85598095D01*
X122279580Y-85598095D02*
X122327200Y-85645714D01*
X122327200Y-85645714D02*
X122374819Y-85740952D01*
X122374819Y-85740952D02*
X122374819Y-85979047D01*
X122374819Y-85979047D02*
X122327200Y-86074285D01*
X122327200Y-86074285D02*
X122279580Y-86121904D01*
X155490057Y-86455238D02*
X155442438Y-86550476D01*
X155442438Y-86550476D02*
X155347200Y-86645714D01*
X155347200Y-86645714D02*
X155204342Y-86788571D01*
X155204342Y-86788571D02*
X155156723Y-86883809D01*
X155156723Y-86883809D02*
X155156723Y-86979047D01*
X155394819Y-86931428D02*
X155347200Y-87026666D01*
X155347200Y-87026666D02*
X155251961Y-87121904D01*
X155251961Y-87121904D02*
X155061485Y-87169523D01*
X155061485Y-87169523D02*
X154728152Y-87169523D01*
X154728152Y-87169523D02*
X154537676Y-87121904D01*
X154537676Y-87121904D02*
X154442438Y-87026666D01*
X154442438Y-87026666D02*
X154394819Y-86931428D01*
X154394819Y-86931428D02*
X154394819Y-86740952D01*
X154394819Y-86740952D02*
X154442438Y-86645714D01*
X154442438Y-86645714D02*
X154537676Y-86550476D01*
X154537676Y-86550476D02*
X154728152Y-86502857D01*
X154728152Y-86502857D02*
X155061485Y-86502857D01*
X155061485Y-86502857D02*
X155251961Y-86550476D01*
X155251961Y-86550476D02*
X155347200Y-86645714D01*
X155347200Y-86645714D02*
X155394819Y-86740952D01*
X155394819Y-86740952D02*
X155394819Y-86931428D01*
X154490057Y-86121904D02*
X154442438Y-86074285D01*
X154442438Y-86074285D02*
X154394819Y-85979047D01*
X154394819Y-85979047D02*
X154394819Y-85740952D01*
X154394819Y-85740952D02*
X154442438Y-85645714D01*
X154442438Y-85645714D02*
X154490057Y-85598095D01*
X154490057Y-85598095D02*
X154585295Y-85550476D01*
X154585295Y-85550476D02*
X154680533Y-85550476D01*
X154680533Y-85550476D02*
X154823390Y-85598095D01*
X154823390Y-85598095D02*
X155394819Y-86169523D01*
X155394819Y-86169523D02*
X155394819Y-85550476D01*
X122009819Y-145493333D02*
X122724104Y-145493333D01*
X122724104Y-145493333D02*
X122866961Y-145540952D01*
X122866961Y-145540952D02*
X122962200Y-145636190D01*
X122962200Y-145636190D02*
X123009819Y-145779047D01*
X123009819Y-145779047D02*
X123009819Y-145874285D01*
X123009819Y-144493333D02*
X123009819Y-145064761D01*
X123009819Y-144779047D02*
X122009819Y-144779047D01*
X122009819Y-144779047D02*
X122152676Y-144874285D01*
X122152676Y-144874285D02*
X122247914Y-144969523D01*
X122247914Y-144969523D02*
X122295533Y-145064761D01*
X150314819Y-112498094D02*
X149314819Y-112498094D01*
X149314819Y-112498094D02*
X149314819Y-112259999D01*
X149314819Y-112259999D02*
X149362438Y-112117142D01*
X149362438Y-112117142D02*
X149457676Y-112021904D01*
X149457676Y-112021904D02*
X149552914Y-111974285D01*
X149552914Y-111974285D02*
X149743390Y-111926666D01*
X149743390Y-111926666D02*
X149886247Y-111926666D01*
X149886247Y-111926666D02*
X150076723Y-111974285D01*
X150076723Y-111974285D02*
X150171961Y-112021904D01*
X150171961Y-112021904D02*
X150267200Y-112117142D01*
X150267200Y-112117142D02*
X150314819Y-112259999D01*
X150314819Y-112259999D02*
X150314819Y-112498094D01*
X149314819Y-111593332D02*
X149314819Y-110974285D01*
X149314819Y-110974285D02*
X149695771Y-111307618D01*
X149695771Y-111307618D02*
X149695771Y-111164761D01*
X149695771Y-111164761D02*
X149743390Y-111069523D01*
X149743390Y-111069523D02*
X149791009Y-111021904D01*
X149791009Y-111021904D02*
X149886247Y-110974285D01*
X149886247Y-110974285D02*
X150124342Y-110974285D01*
X150124342Y-110974285D02*
X150219580Y-111021904D01*
X150219580Y-111021904D02*
X150267200Y-111069523D01*
X150267200Y-111069523D02*
X150314819Y-111164761D01*
X150314819Y-111164761D02*
X150314819Y-111450475D01*
X150314819Y-111450475D02*
X150267200Y-111545713D01*
X150267200Y-111545713D02*
X150219580Y-111593332D01*
X117294819Y-83192857D02*
X116818628Y-83526190D01*
X117294819Y-83764285D02*
X116294819Y-83764285D01*
X116294819Y-83764285D02*
X116294819Y-83383333D01*
X116294819Y-83383333D02*
X116342438Y-83288095D01*
X116342438Y-83288095D02*
X116390057Y-83240476D01*
X116390057Y-83240476D02*
X116485295Y-83192857D01*
X116485295Y-83192857D02*
X116628152Y-83192857D01*
X116628152Y-83192857D02*
X116723390Y-83240476D01*
X116723390Y-83240476D02*
X116771009Y-83288095D01*
X116771009Y-83288095D02*
X116818628Y-83383333D01*
X116818628Y-83383333D02*
X116818628Y-83764285D01*
X117294819Y-82240476D02*
X117294819Y-82811904D01*
X117294819Y-82526190D02*
X116294819Y-82526190D01*
X116294819Y-82526190D02*
X116437676Y-82621428D01*
X116437676Y-82621428D02*
X116532914Y-82716666D01*
X116532914Y-82716666D02*
X116580533Y-82811904D01*
X117294819Y-81288095D02*
X117294819Y-81859523D01*
X117294819Y-81573809D02*
X116294819Y-81573809D01*
X116294819Y-81573809D02*
X116437676Y-81669047D01*
X116437676Y-81669047D02*
X116532914Y-81764285D01*
X116532914Y-81764285D02*
X116580533Y-81859523D01*
X117464819Y-92876666D02*
X116988628Y-93209999D01*
X117464819Y-93448094D02*
X116464819Y-93448094D01*
X116464819Y-93448094D02*
X116464819Y-93067142D01*
X116464819Y-93067142D02*
X116512438Y-92971904D01*
X116512438Y-92971904D02*
X116560057Y-92924285D01*
X116560057Y-92924285D02*
X116655295Y-92876666D01*
X116655295Y-92876666D02*
X116798152Y-92876666D01*
X116798152Y-92876666D02*
X116893390Y-92924285D01*
X116893390Y-92924285D02*
X116941009Y-92971904D01*
X116941009Y-92971904D02*
X116988628Y-93067142D01*
X116988628Y-93067142D02*
X116988628Y-93448094D01*
X116464819Y-91971904D02*
X116464819Y-92448094D01*
X116464819Y-92448094D02*
X116941009Y-92495713D01*
X116941009Y-92495713D02*
X116893390Y-92448094D01*
X116893390Y-92448094D02*
X116845771Y-92352856D01*
X116845771Y-92352856D02*
X116845771Y-92114761D01*
X116845771Y-92114761D02*
X116893390Y-92019523D01*
X116893390Y-92019523D02*
X116941009Y-91971904D01*
X116941009Y-91971904D02*
X117036247Y-91924285D01*
X117036247Y-91924285D02*
X117274342Y-91924285D01*
X117274342Y-91924285D02*
X117369580Y-91971904D01*
X117369580Y-91971904D02*
X117417200Y-92019523D01*
X117417200Y-92019523D02*
X117464819Y-92114761D01*
X117464819Y-92114761D02*
X117464819Y-92352856D01*
X117464819Y-92352856D02*
X117417200Y-92448094D01*
X117417200Y-92448094D02*
X117369580Y-92495713D01*
X127454819Y-59158094D02*
X126454819Y-59158094D01*
X126454819Y-59158094D02*
X126454819Y-58919999D01*
X126454819Y-58919999D02*
X126502438Y-58777142D01*
X126502438Y-58777142D02*
X126597676Y-58681904D01*
X126597676Y-58681904D02*
X126692914Y-58634285D01*
X126692914Y-58634285D02*
X126883390Y-58586666D01*
X126883390Y-58586666D02*
X127026247Y-58586666D01*
X127026247Y-58586666D02*
X127216723Y-58634285D01*
X127216723Y-58634285D02*
X127311961Y-58681904D01*
X127311961Y-58681904D02*
X127407200Y-58777142D01*
X127407200Y-58777142D02*
X127454819Y-58919999D01*
X127454819Y-58919999D02*
X127454819Y-59158094D01*
X126788152Y-57729523D02*
X127454819Y-57729523D01*
X126407200Y-57967618D02*
X127121485Y-58205713D01*
X127121485Y-58205713D02*
X127121485Y-57586666D01*
X134074819Y-91773333D02*
X134789104Y-91773333D01*
X134789104Y-91773333D02*
X134931961Y-91820952D01*
X134931961Y-91820952D02*
X135027200Y-91916190D01*
X135027200Y-91916190D02*
X135074819Y-92059047D01*
X135074819Y-92059047D02*
X135074819Y-92154285D01*
X134503390Y-91154285D02*
X134455771Y-91249523D01*
X134455771Y-91249523D02*
X134408152Y-91297142D01*
X134408152Y-91297142D02*
X134312914Y-91344761D01*
X134312914Y-91344761D02*
X134265295Y-91344761D01*
X134265295Y-91344761D02*
X134170057Y-91297142D01*
X134170057Y-91297142D02*
X134122438Y-91249523D01*
X134122438Y-91249523D02*
X134074819Y-91154285D01*
X134074819Y-91154285D02*
X134074819Y-90963809D01*
X134074819Y-90963809D02*
X134122438Y-90868571D01*
X134122438Y-90868571D02*
X134170057Y-90820952D01*
X134170057Y-90820952D02*
X134265295Y-90773333D01*
X134265295Y-90773333D02*
X134312914Y-90773333D01*
X134312914Y-90773333D02*
X134408152Y-90820952D01*
X134408152Y-90820952D02*
X134455771Y-90868571D01*
X134455771Y-90868571D02*
X134503390Y-90963809D01*
X134503390Y-90963809D02*
X134503390Y-91154285D01*
X134503390Y-91154285D02*
X134551009Y-91249523D01*
X134551009Y-91249523D02*
X134598628Y-91297142D01*
X134598628Y-91297142D02*
X134693866Y-91344761D01*
X134693866Y-91344761D02*
X134884342Y-91344761D01*
X134884342Y-91344761D02*
X134979580Y-91297142D01*
X134979580Y-91297142D02*
X135027200Y-91249523D01*
X135027200Y-91249523D02*
X135074819Y-91154285D01*
X135074819Y-91154285D02*
X135074819Y-90963809D01*
X135074819Y-90963809D02*
X135027200Y-90868571D01*
X135027200Y-90868571D02*
X134979580Y-90820952D01*
X134979580Y-90820952D02*
X134884342Y-90773333D01*
X134884342Y-90773333D02*
X134693866Y-90773333D01*
X134693866Y-90773333D02*
X134598628Y-90820952D01*
X134598628Y-90820952D02*
X134551009Y-90868571D01*
X134551009Y-90868571D02*
X134503390Y-90963809D01*
X122470057Y-66135238D02*
X122422438Y-66230476D01*
X122422438Y-66230476D02*
X122327200Y-66325714D01*
X122327200Y-66325714D02*
X122184342Y-66468571D01*
X122184342Y-66468571D02*
X122136723Y-66563809D01*
X122136723Y-66563809D02*
X122136723Y-66659047D01*
X122374819Y-66611428D02*
X122327200Y-66706666D01*
X122327200Y-66706666D02*
X122231961Y-66801904D01*
X122231961Y-66801904D02*
X122041485Y-66849523D01*
X122041485Y-66849523D02*
X121708152Y-66849523D01*
X121708152Y-66849523D02*
X121517676Y-66801904D01*
X121517676Y-66801904D02*
X121422438Y-66706666D01*
X121422438Y-66706666D02*
X121374819Y-66611428D01*
X121374819Y-66611428D02*
X121374819Y-66420952D01*
X121374819Y-66420952D02*
X121422438Y-66325714D01*
X121422438Y-66325714D02*
X121517676Y-66230476D01*
X121517676Y-66230476D02*
X121708152Y-66182857D01*
X121708152Y-66182857D02*
X122041485Y-66182857D01*
X122041485Y-66182857D02*
X122231961Y-66230476D01*
X122231961Y-66230476D02*
X122327200Y-66325714D01*
X122327200Y-66325714D02*
X122374819Y-66420952D01*
X122374819Y-66420952D02*
X122374819Y-66611428D01*
X121708152Y-65325714D02*
X122374819Y-65325714D01*
X121327200Y-65563809D02*
X122041485Y-65801904D01*
X122041485Y-65801904D02*
X122041485Y-65182857D01*
X134074819Y-112093333D02*
X134789104Y-112093333D01*
X134789104Y-112093333D02*
X134931961Y-112140952D01*
X134931961Y-112140952D02*
X135027200Y-112236190D01*
X135027200Y-112236190D02*
X135074819Y-112379047D01*
X135074819Y-112379047D02*
X135074819Y-112474285D01*
X135074819Y-111569523D02*
X135074819Y-111379047D01*
X135074819Y-111379047D02*
X135027200Y-111283809D01*
X135027200Y-111283809D02*
X134979580Y-111236190D01*
X134979580Y-111236190D02*
X134836723Y-111140952D01*
X134836723Y-111140952D02*
X134646247Y-111093333D01*
X134646247Y-111093333D02*
X134265295Y-111093333D01*
X134265295Y-111093333D02*
X134170057Y-111140952D01*
X134170057Y-111140952D02*
X134122438Y-111188571D01*
X134122438Y-111188571D02*
X134074819Y-111283809D01*
X134074819Y-111283809D02*
X134074819Y-111474285D01*
X134074819Y-111474285D02*
X134122438Y-111569523D01*
X134122438Y-111569523D02*
X134170057Y-111617142D01*
X134170057Y-111617142D02*
X134265295Y-111664761D01*
X134265295Y-111664761D02*
X134503390Y-111664761D01*
X134503390Y-111664761D02*
X134598628Y-111617142D01*
X134598628Y-111617142D02*
X134646247Y-111569523D01*
X134646247Y-111569523D02*
X134693866Y-111474285D01*
X134693866Y-111474285D02*
X134693866Y-111283809D01*
X134693866Y-111283809D02*
X134646247Y-111188571D01*
X134646247Y-111188571D02*
X134598628Y-111140952D01*
X134598628Y-111140952D02*
X134503390Y-111093333D01*
X117294819Y-103512857D02*
X116818628Y-103846190D01*
X117294819Y-104084285D02*
X116294819Y-104084285D01*
X116294819Y-104084285D02*
X116294819Y-103703333D01*
X116294819Y-103703333D02*
X116342438Y-103608095D01*
X116342438Y-103608095D02*
X116390057Y-103560476D01*
X116390057Y-103560476D02*
X116485295Y-103512857D01*
X116485295Y-103512857D02*
X116628152Y-103512857D01*
X116628152Y-103512857D02*
X116723390Y-103560476D01*
X116723390Y-103560476D02*
X116771009Y-103608095D01*
X116771009Y-103608095D02*
X116818628Y-103703333D01*
X116818628Y-103703333D02*
X116818628Y-104084285D01*
X117294819Y-102560476D02*
X117294819Y-103131904D01*
X117294819Y-102846190D02*
X116294819Y-102846190D01*
X116294819Y-102846190D02*
X116437676Y-102941428D01*
X116437676Y-102941428D02*
X116532914Y-103036666D01*
X116532914Y-103036666D02*
X116580533Y-103131904D01*
X116390057Y-102179523D02*
X116342438Y-102131904D01*
X116342438Y-102131904D02*
X116294819Y-102036666D01*
X116294819Y-102036666D02*
X116294819Y-101798571D01*
X116294819Y-101798571D02*
X116342438Y-101703333D01*
X116342438Y-101703333D02*
X116390057Y-101655714D01*
X116390057Y-101655714D02*
X116485295Y-101608095D01*
X116485295Y-101608095D02*
X116580533Y-101608095D01*
X116580533Y-101608095D02*
X116723390Y-101655714D01*
X116723390Y-101655714D02*
X117294819Y-102227142D01*
X117294819Y-102227142D02*
X117294819Y-101608095D01*
X127454819Y-79478094D02*
X126454819Y-79478094D01*
X126454819Y-79478094D02*
X126454819Y-79239999D01*
X126454819Y-79239999D02*
X126502438Y-79097142D01*
X126502438Y-79097142D02*
X126597676Y-79001904D01*
X126597676Y-79001904D02*
X126692914Y-78954285D01*
X126692914Y-78954285D02*
X126883390Y-78906666D01*
X126883390Y-78906666D02*
X127026247Y-78906666D01*
X127026247Y-78906666D02*
X127216723Y-78954285D01*
X127216723Y-78954285D02*
X127311961Y-79001904D01*
X127311961Y-79001904D02*
X127407200Y-79097142D01*
X127407200Y-79097142D02*
X127454819Y-79239999D01*
X127454819Y-79239999D02*
X127454819Y-79478094D01*
X126454819Y-78001904D02*
X126454819Y-78478094D01*
X126454819Y-78478094D02*
X126931009Y-78525713D01*
X126931009Y-78525713D02*
X126883390Y-78478094D01*
X126883390Y-78478094D02*
X126835771Y-78382856D01*
X126835771Y-78382856D02*
X126835771Y-78144761D01*
X126835771Y-78144761D02*
X126883390Y-78049523D01*
X126883390Y-78049523D02*
X126931009Y-78001904D01*
X126931009Y-78001904D02*
X127026247Y-77954285D01*
X127026247Y-77954285D02*
X127264342Y-77954285D01*
X127264342Y-77954285D02*
X127359580Y-78001904D01*
X127359580Y-78001904D02*
X127407200Y-78049523D01*
X127407200Y-78049523D02*
X127454819Y-78144761D01*
X127454819Y-78144761D02*
X127454819Y-78382856D01*
X127454819Y-78382856D02*
X127407200Y-78478094D01*
X127407200Y-78478094D02*
X127359580Y-78525713D01*
X150314819Y-92178094D02*
X149314819Y-92178094D01*
X149314819Y-92178094D02*
X149314819Y-91939999D01*
X149314819Y-91939999D02*
X149362438Y-91797142D01*
X149362438Y-91797142D02*
X149457676Y-91701904D01*
X149457676Y-91701904D02*
X149552914Y-91654285D01*
X149552914Y-91654285D02*
X149743390Y-91606666D01*
X149743390Y-91606666D02*
X149886247Y-91606666D01*
X149886247Y-91606666D02*
X150076723Y-91654285D01*
X150076723Y-91654285D02*
X150171961Y-91701904D01*
X150171961Y-91701904D02*
X150267200Y-91797142D01*
X150267200Y-91797142D02*
X150314819Y-91939999D01*
X150314819Y-91939999D02*
X150314819Y-92178094D01*
X149410057Y-91225713D02*
X149362438Y-91178094D01*
X149362438Y-91178094D02*
X149314819Y-91082856D01*
X149314819Y-91082856D02*
X149314819Y-90844761D01*
X149314819Y-90844761D02*
X149362438Y-90749523D01*
X149362438Y-90749523D02*
X149410057Y-90701904D01*
X149410057Y-90701904D02*
X149505295Y-90654285D01*
X149505295Y-90654285D02*
X149600533Y-90654285D01*
X149600533Y-90654285D02*
X149743390Y-90701904D01*
X149743390Y-90701904D02*
X150314819Y-91273332D01*
X150314819Y-91273332D02*
X150314819Y-90654285D01*
X150374819Y-79001904D02*
X149374819Y-79001904D01*
X150374819Y-78430476D02*
X149803390Y-78859047D01*
X149374819Y-78430476D02*
X149946247Y-79001904D01*
X117294819Y-62872857D02*
X116818628Y-63206190D01*
X117294819Y-63444285D02*
X116294819Y-63444285D01*
X116294819Y-63444285D02*
X116294819Y-63063333D01*
X116294819Y-63063333D02*
X116342438Y-62968095D01*
X116342438Y-62968095D02*
X116390057Y-62920476D01*
X116390057Y-62920476D02*
X116485295Y-62872857D01*
X116485295Y-62872857D02*
X116628152Y-62872857D01*
X116628152Y-62872857D02*
X116723390Y-62920476D01*
X116723390Y-62920476D02*
X116771009Y-62968095D01*
X116771009Y-62968095D02*
X116818628Y-63063333D01*
X116818628Y-63063333D02*
X116818628Y-63444285D01*
X117294819Y-61920476D02*
X117294819Y-62491904D01*
X117294819Y-62206190D02*
X116294819Y-62206190D01*
X116294819Y-62206190D02*
X116437676Y-62301428D01*
X116437676Y-62301428D02*
X116532914Y-62396666D01*
X116532914Y-62396666D02*
X116580533Y-62491904D01*
X116294819Y-61301428D02*
X116294819Y-61206190D01*
X116294819Y-61206190D02*
X116342438Y-61110952D01*
X116342438Y-61110952D02*
X116390057Y-61063333D01*
X116390057Y-61063333D02*
X116485295Y-61015714D01*
X116485295Y-61015714D02*
X116675771Y-60968095D01*
X116675771Y-60968095D02*
X116913866Y-60968095D01*
X116913866Y-60968095D02*
X117104342Y-61015714D01*
X117104342Y-61015714D02*
X117199580Y-61063333D01*
X117199580Y-61063333D02*
X117247200Y-61110952D01*
X117247200Y-61110952D02*
X117294819Y-61206190D01*
X117294819Y-61206190D02*
X117294819Y-61301428D01*
X117294819Y-61301428D02*
X117247200Y-61396666D01*
X117247200Y-61396666D02*
X117199580Y-61444285D01*
X117199580Y-61444285D02*
X117104342Y-61491904D01*
X117104342Y-61491904D02*
X116913866Y-61539523D01*
X116913866Y-61539523D02*
X116675771Y-61539523D01*
X116675771Y-61539523D02*
X116485295Y-61491904D01*
X116485295Y-61491904D02*
X116390057Y-61444285D01*
X116390057Y-61444285D02*
X116342438Y-61396666D01*
X116342438Y-61396666D02*
X116294819Y-61301428D01*
X127454819Y-99798094D02*
X126454819Y-99798094D01*
X126454819Y-99798094D02*
X126454819Y-99559999D01*
X126454819Y-99559999D02*
X126502438Y-99417142D01*
X126502438Y-99417142D02*
X126597676Y-99321904D01*
X126597676Y-99321904D02*
X126692914Y-99274285D01*
X126692914Y-99274285D02*
X126883390Y-99226666D01*
X126883390Y-99226666D02*
X127026247Y-99226666D01*
X127026247Y-99226666D02*
X127216723Y-99274285D01*
X127216723Y-99274285D02*
X127311961Y-99321904D01*
X127311961Y-99321904D02*
X127407200Y-99417142D01*
X127407200Y-99417142D02*
X127454819Y-99559999D01*
X127454819Y-99559999D02*
X127454819Y-99798094D01*
X126454819Y-98369523D02*
X126454819Y-98559999D01*
X126454819Y-98559999D02*
X126502438Y-98655237D01*
X126502438Y-98655237D02*
X126550057Y-98702856D01*
X126550057Y-98702856D02*
X126692914Y-98798094D01*
X126692914Y-98798094D02*
X126883390Y-98845713D01*
X126883390Y-98845713D02*
X127264342Y-98845713D01*
X127264342Y-98845713D02*
X127359580Y-98798094D01*
X127359580Y-98798094D02*
X127407200Y-98750475D01*
X127407200Y-98750475D02*
X127454819Y-98655237D01*
X127454819Y-98655237D02*
X127454819Y-98464761D01*
X127454819Y-98464761D02*
X127407200Y-98369523D01*
X127407200Y-98369523D02*
X127359580Y-98321904D01*
X127359580Y-98321904D02*
X127264342Y-98274285D01*
X127264342Y-98274285D02*
X127026247Y-98274285D01*
X127026247Y-98274285D02*
X126931009Y-98321904D01*
X126931009Y-98321904D02*
X126883390Y-98369523D01*
X126883390Y-98369523D02*
X126835771Y-98464761D01*
X126835771Y-98464761D02*
X126835771Y-98655237D01*
X126835771Y-98655237D02*
X126883390Y-98750475D01*
X126883390Y-98750475D02*
X126931009Y-98798094D01*
X126931009Y-98798094D02*
X127026247Y-98845713D01*
X117464819Y-113196666D02*
X116988628Y-113529999D01*
X117464819Y-113768094D02*
X116464819Y-113768094D01*
X116464819Y-113768094D02*
X116464819Y-113387142D01*
X116464819Y-113387142D02*
X116512438Y-113291904D01*
X116512438Y-113291904D02*
X116560057Y-113244285D01*
X116560057Y-113244285D02*
X116655295Y-113196666D01*
X116655295Y-113196666D02*
X116798152Y-113196666D01*
X116798152Y-113196666D02*
X116893390Y-113244285D01*
X116893390Y-113244285D02*
X116941009Y-113291904D01*
X116941009Y-113291904D02*
X116988628Y-113387142D01*
X116988628Y-113387142D02*
X116988628Y-113768094D01*
X116464819Y-112339523D02*
X116464819Y-112529999D01*
X116464819Y-112529999D02*
X116512438Y-112625237D01*
X116512438Y-112625237D02*
X116560057Y-112672856D01*
X116560057Y-112672856D02*
X116702914Y-112768094D01*
X116702914Y-112768094D02*
X116893390Y-112815713D01*
X116893390Y-112815713D02*
X117274342Y-112815713D01*
X117274342Y-112815713D02*
X117369580Y-112768094D01*
X117369580Y-112768094D02*
X117417200Y-112720475D01*
X117417200Y-112720475D02*
X117464819Y-112625237D01*
X117464819Y-112625237D02*
X117464819Y-112434761D01*
X117464819Y-112434761D02*
X117417200Y-112339523D01*
X117417200Y-112339523D02*
X117369580Y-112291904D01*
X117369580Y-112291904D02*
X117274342Y-112244285D01*
X117274342Y-112244285D02*
X117036247Y-112244285D01*
X117036247Y-112244285D02*
X116941009Y-112291904D01*
X116941009Y-112291904D02*
X116893390Y-112339523D01*
X116893390Y-112339523D02*
X116845771Y-112434761D01*
X116845771Y-112434761D02*
X116845771Y-112625237D01*
X116845771Y-112625237D02*
X116893390Y-112720475D01*
X116893390Y-112720475D02*
X116941009Y-112768094D01*
X116941009Y-112768094D02*
X117036247Y-112815713D01*
X126666666Y-149314819D02*
X126666666Y-150029104D01*
X126666666Y-150029104D02*
X126619047Y-150171961D01*
X126619047Y-150171961D02*
X126523809Y-150267200D01*
X126523809Y-150267200D02*
X126380952Y-150314819D01*
X126380952Y-150314819D02*
X126285714Y-150314819D01*
X127047619Y-149314819D02*
X127666666Y-149314819D01*
X127666666Y-149314819D02*
X127333333Y-149695771D01*
X127333333Y-149695771D02*
X127476190Y-149695771D01*
X127476190Y-149695771D02*
X127571428Y-149743390D01*
X127571428Y-149743390D02*
X127619047Y-149791009D01*
X127619047Y-149791009D02*
X127666666Y-149886247D01*
X127666666Y-149886247D02*
X127666666Y-150124342D01*
X127666666Y-150124342D02*
X127619047Y-150219580D01*
X127619047Y-150219580D02*
X127571428Y-150267200D01*
X127571428Y-150267200D02*
X127476190Y-150314819D01*
X127476190Y-150314819D02*
X127190476Y-150314819D01*
X127190476Y-150314819D02*
X127095238Y-150267200D01*
X127095238Y-150267200D02*
X127047619Y-150219580D01*
X122470057Y-106775238D02*
X122422438Y-106870476D01*
X122422438Y-106870476D02*
X122327200Y-106965714D01*
X122327200Y-106965714D02*
X122184342Y-107108571D01*
X122184342Y-107108571D02*
X122136723Y-107203809D01*
X122136723Y-107203809D02*
X122136723Y-107299047D01*
X122374819Y-107251428D02*
X122327200Y-107346666D01*
X122327200Y-107346666D02*
X122231961Y-107441904D01*
X122231961Y-107441904D02*
X122041485Y-107489523D01*
X122041485Y-107489523D02*
X121708152Y-107489523D01*
X121708152Y-107489523D02*
X121517676Y-107441904D01*
X121517676Y-107441904D02*
X121422438Y-107346666D01*
X121422438Y-107346666D02*
X121374819Y-107251428D01*
X121374819Y-107251428D02*
X121374819Y-107060952D01*
X121374819Y-107060952D02*
X121422438Y-106965714D01*
X121422438Y-106965714D02*
X121517676Y-106870476D01*
X121517676Y-106870476D02*
X121708152Y-106822857D01*
X121708152Y-106822857D02*
X122041485Y-106822857D01*
X122041485Y-106822857D02*
X122231961Y-106870476D01*
X122231961Y-106870476D02*
X122327200Y-106965714D01*
X122327200Y-106965714D02*
X122374819Y-107060952D01*
X122374819Y-107060952D02*
X122374819Y-107251428D01*
X121374819Y-105965714D02*
X121374819Y-106156190D01*
X121374819Y-106156190D02*
X121422438Y-106251428D01*
X121422438Y-106251428D02*
X121470057Y-106299047D01*
X121470057Y-106299047D02*
X121612914Y-106394285D01*
X121612914Y-106394285D02*
X121803390Y-106441904D01*
X121803390Y-106441904D02*
X122184342Y-106441904D01*
X122184342Y-106441904D02*
X122279580Y-106394285D01*
X122279580Y-106394285D02*
X122327200Y-106346666D01*
X122327200Y-106346666D02*
X122374819Y-106251428D01*
X122374819Y-106251428D02*
X122374819Y-106060952D01*
X122374819Y-106060952D02*
X122327200Y-105965714D01*
X122327200Y-105965714D02*
X122279580Y-105918095D01*
X122279580Y-105918095D02*
X122184342Y-105870476D01*
X122184342Y-105870476D02*
X121946247Y-105870476D01*
X121946247Y-105870476D02*
X121851009Y-105918095D01*
X121851009Y-105918095D02*
X121803390Y-105965714D01*
X121803390Y-105965714D02*
X121755771Y-106060952D01*
X121755771Y-106060952D02*
X121755771Y-106251428D01*
X121755771Y-106251428D02*
X121803390Y-106346666D01*
X121803390Y-106346666D02*
X121851009Y-106394285D01*
X121851009Y-106394285D02*
X121946247Y-106441904D01*
X117294819Y-72556666D02*
X116818628Y-72889999D01*
X117294819Y-73128094D02*
X116294819Y-73128094D01*
X116294819Y-73128094D02*
X116294819Y-72747142D01*
X116294819Y-72747142D02*
X116342438Y-72651904D01*
X116342438Y-72651904D02*
X116390057Y-72604285D01*
X116390057Y-72604285D02*
X116485295Y-72556666D01*
X116485295Y-72556666D02*
X116628152Y-72556666D01*
X116628152Y-72556666D02*
X116723390Y-72604285D01*
X116723390Y-72604285D02*
X116771009Y-72651904D01*
X116771009Y-72651904D02*
X116818628Y-72747142D01*
X116818628Y-72747142D02*
X116818628Y-73128094D01*
X116628152Y-71699523D02*
X117294819Y-71699523D01*
X116247200Y-71937618D02*
X116961485Y-72175713D01*
X116961485Y-72175713D02*
X116961485Y-71556666D01*
X141694819Y-112093333D02*
X142409104Y-112093333D01*
X142409104Y-112093333D02*
X142551961Y-112140952D01*
X142551961Y-112140952D02*
X142647200Y-112236190D01*
X142647200Y-112236190D02*
X142694819Y-112379047D01*
X142694819Y-112379047D02*
X142694819Y-112474285D01*
X141694819Y-111188571D02*
X141694819Y-111379047D01*
X141694819Y-111379047D02*
X141742438Y-111474285D01*
X141742438Y-111474285D02*
X141790057Y-111521904D01*
X141790057Y-111521904D02*
X141932914Y-111617142D01*
X141932914Y-111617142D02*
X142123390Y-111664761D01*
X142123390Y-111664761D02*
X142504342Y-111664761D01*
X142504342Y-111664761D02*
X142599580Y-111617142D01*
X142599580Y-111617142D02*
X142647200Y-111569523D01*
X142647200Y-111569523D02*
X142694819Y-111474285D01*
X142694819Y-111474285D02*
X142694819Y-111283809D01*
X142694819Y-111283809D02*
X142647200Y-111188571D01*
X142647200Y-111188571D02*
X142599580Y-111140952D01*
X142599580Y-111140952D02*
X142504342Y-111093333D01*
X142504342Y-111093333D02*
X142266247Y-111093333D01*
X142266247Y-111093333D02*
X142171009Y-111140952D01*
X142171009Y-111140952D02*
X142123390Y-111188571D01*
X142123390Y-111188571D02*
X142075771Y-111283809D01*
X142075771Y-111283809D02*
X142075771Y-111474285D01*
X142075771Y-111474285D02*
X142123390Y-111569523D01*
X142123390Y-111569523D02*
X142171009Y-111617142D01*
X142171009Y-111617142D02*
X142266247Y-111664761D01*
D11*
%TO.C,J4*%
X137440000Y-61550000D02*
X144240000Y-61550000D01*
X137440000Y-69410000D02*
X137440000Y-61550000D01*
X144240000Y-61550000D02*
X144240000Y-69410000D01*
X144240000Y-69410000D02*
X137440000Y-69410000D01*
X145940000Y-62800000D02*
X144240000Y-62800000D01*
X145940000Y-62800000D02*
X145940000Y-68160000D01*
X145940000Y-68160000D02*
X144240000Y-68160000D01*
D12*
%TO.C,R3*%
X156110000Y-104680000D02*
X156440000Y-104680000D01*
X156110000Y-111220000D02*
X156110000Y-104680000D01*
X156440000Y-111220000D02*
X156110000Y-111220000D01*
X158520000Y-111220000D02*
X158850000Y-111220000D01*
X158850000Y-104680000D02*
X158520000Y-104680000D01*
X158850000Y-111220000D02*
X158850000Y-104680000D01*
%TO.C,R9*%
X152940000Y-97690000D02*
X152940000Y-98020000D01*
X152940000Y-100430000D02*
X152940000Y-100100000D01*
X159480000Y-97690000D02*
X152940000Y-97690000D01*
X159480000Y-98020000D02*
X159480000Y-97690000D01*
X159480000Y-100100000D02*
X159480000Y-100430000D01*
X159480000Y-100430000D02*
X152940000Y-100430000D01*
D13*
%TO.C,Q3*%
X150990000Y-101410000D02*
X150990000Y-111950000D01*
X150990000Y-111950000D02*
X155690000Y-111950000D01*
X155690000Y-101410000D02*
X150990000Y-101410000D01*
X155690000Y-111950000D02*
X155690000Y-101410000D01*
D14*
X150580000Y-104140000D02*
G75*
G02*
X150380000Y-104140000I-100000J0D01*
G01*
X150380000Y-104140000D02*
G75*
G02*
X150580000Y-104140000I100000J0D01*
G01*
D11*
%TO.C,U5*%
X128676400Y-124180600D02*
X128676400Y-129819400D01*
X148183600Y-126695200D02*
X148183600Y-124510800D01*
X148183600Y-127304800D02*
X148183600Y-126695200D01*
X148183600Y-129819400D02*
X148183600Y-127304800D01*
X148183600Y-127304800D02*
G75*
G02*
X148183600Y-126695200I0J304800D01*
G01*
D12*
%TO.C,R1*%
X156110000Y-64040000D02*
X156440000Y-64040000D01*
X156110000Y-70580000D02*
X156110000Y-64040000D01*
X156440000Y-70580000D02*
X156110000Y-70580000D01*
X158520000Y-70580000D02*
X158850000Y-70580000D01*
X158850000Y-64040000D02*
X158520000Y-64040000D01*
X158850000Y-70580000D02*
X158850000Y-64040000D01*
D11*
%TO.C,J7*%
X130920000Y-62800000D02*
X132620000Y-62800000D01*
X130920000Y-68160000D02*
X130920000Y-62800000D01*
X130920000Y-68160000D02*
X132620000Y-68160000D01*
X132620000Y-61550000D02*
X139420000Y-61550000D01*
X132620000Y-69410000D02*
X132620000Y-61550000D01*
X139420000Y-61550000D02*
X139420000Y-69410000D01*
X139420000Y-69410000D02*
X132620000Y-69410000D01*
D12*
%TO.C,R8*%
X152940000Y-77370000D02*
X152940000Y-77700000D01*
X152940000Y-80110000D02*
X152940000Y-79780000D01*
X159480000Y-77370000D02*
X152940000Y-77370000D01*
X159480000Y-77700000D02*
X159480000Y-77370000D01*
X159480000Y-79780000D02*
X159480000Y-80110000D01*
X159480000Y-80110000D02*
X152940000Y-80110000D01*
D11*
%TO.C,J5*%
X137440000Y-81870000D02*
X144240000Y-81870000D01*
X137440000Y-89730000D02*
X137440000Y-81870000D01*
X144240000Y-81870000D02*
X144240000Y-89730000D01*
X144240000Y-89730000D02*
X137440000Y-89730000D01*
X145940000Y-83120000D02*
X144240000Y-83120000D01*
X145940000Y-83120000D02*
X145940000Y-88480000D01*
X145940000Y-88480000D02*
X144240000Y-88480000D01*
D13*
%TO.C,Q1*%
X150990000Y-60770000D02*
X150990000Y-71310000D01*
X150990000Y-71310000D02*
X155690000Y-71310000D01*
X155690000Y-60770000D02*
X150990000Y-60770000D01*
X155690000Y-71310000D02*
X155690000Y-60770000D01*
D14*
X150580000Y-63500000D02*
G75*
G02*
X150380000Y-63500000I-100000J0D01*
G01*
X150380000Y-63500000D02*
G75*
G02*
X150580000Y-63500000I100000J0D01*
G01*
D12*
%TO.C,D1*%
X144600000Y-59900000D02*
X144600000Y-69640000D01*
X144600000Y-69640000D02*
X145480000Y-69640000D01*
X145480000Y-59900000D02*
X144600000Y-59900000D01*
X149160000Y-59900000D02*
X150040000Y-59900000D01*
X150040000Y-59900000D02*
X150040000Y-69640000D01*
X150040000Y-61325000D02*
X144600000Y-61325000D01*
X150040000Y-61445000D02*
X144600000Y-61445000D01*
X150040000Y-61565000D02*
X144600000Y-61565000D01*
X150040000Y-69640000D02*
X149160000Y-69640000D01*
%TO.C,R7*%
X152940000Y-57050000D02*
X152940000Y-57380000D01*
X152940000Y-59790000D02*
X152940000Y-59460000D01*
X159480000Y-57050000D02*
X152940000Y-57050000D01*
X159480000Y-57380000D02*
X159480000Y-57050000D01*
X159480000Y-59460000D02*
X159480000Y-59790000D01*
X159480000Y-59790000D02*
X152940000Y-59790000D01*
%TO.C,R2*%
X156110000Y-84360000D02*
X156440000Y-84360000D01*
X156110000Y-90900000D02*
X156110000Y-84360000D01*
X156440000Y-90900000D02*
X156110000Y-90900000D01*
X158520000Y-90900000D02*
X158850000Y-90900000D01*
X158850000Y-84360000D02*
X158520000Y-84360000D01*
X158850000Y-90900000D02*
X158850000Y-84360000D01*
D11*
%TO.C,J10*%
X140290000Y-147860000D02*
X148150000Y-147860000D01*
X140290000Y-154660000D02*
X140290000Y-147860000D01*
X141540000Y-146160000D02*
X141540000Y-147860000D01*
X141540000Y-146160000D02*
X146900000Y-146160000D01*
X146900000Y-146160000D02*
X146900000Y-147860000D01*
X148150000Y-147860000D02*
X148150000Y-154660000D01*
X148150000Y-154660000D02*
X140290000Y-154660000D01*
D13*
%TO.C,J2*%
X154680000Y-135210000D02*
X159180000Y-135210000D01*
X154680000Y-147110000D02*
X154680000Y-135210000D01*
X159180000Y-135210000D02*
X159180000Y-147110000D01*
X159180000Y-147110000D02*
X154680000Y-147110000D01*
D14*
X159980000Y-137160000D02*
G75*
G02*
X159780000Y-137160000I-100000J0D01*
G01*
X159780000Y-137160000D02*
G75*
G02*
X159980000Y-137160000I100000J0D01*
G01*
D13*
%TO.C,Q5*%
X121170000Y-81090000D02*
X121170000Y-91630000D01*
X121170000Y-91630000D02*
X125870000Y-91630000D01*
X125870000Y-81090000D02*
X121170000Y-81090000D01*
X125870000Y-91630000D02*
X125870000Y-81090000D01*
D14*
X126480000Y-88900000D02*
G75*
G02*
X126280000Y-88900000I-100000J0D01*
G01*
X126280000Y-88900000D02*
G75*
G02*
X126480000Y-88900000I100000J0D01*
G01*
D13*
%TO.C,Q2*%
X150990000Y-81090000D02*
X150990000Y-91630000D01*
X150990000Y-91630000D02*
X155690000Y-91630000D01*
X155690000Y-81090000D02*
X150990000Y-81090000D01*
X155690000Y-91630000D02*
X155690000Y-81090000D01*
D14*
X150580000Y-83820000D02*
G75*
G02*
X150380000Y-83820000I-100000J0D01*
G01*
X150380000Y-83820000D02*
G75*
G02*
X150580000Y-83820000I100000J0D01*
G01*
D13*
%TO.C,J1*%
X116580000Y-135210000D02*
X121080000Y-135210000D01*
X116580000Y-147110000D02*
X116580000Y-135210000D01*
X121080000Y-135210000D02*
X121080000Y-147110000D01*
X121080000Y-147110000D02*
X116580000Y-147110000D01*
D14*
X121880000Y-137160000D02*
G75*
G02*
X121680000Y-137160000I-100000J0D01*
G01*
X121680000Y-137160000D02*
G75*
G02*
X121880000Y-137160000I100000J0D01*
G01*
D12*
%TO.C,D3*%
X144600000Y-100540000D02*
X144600000Y-110280000D01*
X144600000Y-110280000D02*
X145480000Y-110280000D01*
X145480000Y-100540000D02*
X144600000Y-100540000D01*
X149160000Y-100540000D02*
X150040000Y-100540000D01*
X150040000Y-100540000D02*
X150040000Y-110280000D01*
X150040000Y-101965000D02*
X144600000Y-101965000D01*
X150040000Y-102085000D02*
X144600000Y-102085000D01*
X150040000Y-102205000D02*
X144600000Y-102205000D01*
X150040000Y-110280000D02*
X149160000Y-110280000D01*
%TO.C,R11*%
X118010000Y-79280000D02*
X118010000Y-85820000D01*
X118010000Y-85820000D02*
X118340000Y-85820000D01*
X118340000Y-79280000D02*
X118010000Y-79280000D01*
X120420000Y-79280000D02*
X120750000Y-79280000D01*
X120750000Y-79280000D02*
X120750000Y-85820000D01*
X120750000Y-85820000D02*
X120420000Y-85820000D01*
%TO.C,R5*%
X118010000Y-89440000D02*
X118340000Y-89440000D01*
X118010000Y-95980000D02*
X118010000Y-89440000D01*
X118340000Y-95980000D02*
X118010000Y-95980000D01*
X120420000Y-95980000D02*
X120750000Y-95980000D01*
X120750000Y-89440000D02*
X120420000Y-89440000D01*
X120750000Y-95980000D02*
X120750000Y-89440000D01*
%TO.C,D4*%
X126820000Y-59900000D02*
X127700000Y-59900000D01*
X126820000Y-67975000D02*
X132260000Y-67975000D01*
X126820000Y-68095000D02*
X132260000Y-68095000D01*
X126820000Y-68215000D02*
X132260000Y-68215000D01*
X126820000Y-69640000D02*
X126820000Y-59900000D01*
X127700000Y-69640000D02*
X126820000Y-69640000D01*
X131380000Y-69640000D02*
X132260000Y-69640000D01*
X132260000Y-59900000D02*
X131380000Y-59900000D01*
X132260000Y-69640000D02*
X132260000Y-59900000D01*
D11*
%TO.C,J8*%
X130920000Y-83120000D02*
X132620000Y-83120000D01*
X130920000Y-88480000D02*
X130920000Y-83120000D01*
X130920000Y-88480000D02*
X132620000Y-88480000D01*
X132620000Y-81870000D02*
X139420000Y-81870000D01*
X132620000Y-89730000D02*
X132620000Y-81870000D01*
X139420000Y-81870000D02*
X139420000Y-89730000D01*
X139420000Y-89730000D02*
X132620000Y-89730000D01*
D13*
%TO.C,Q4*%
X121170000Y-60770000D02*
X121170000Y-71310000D01*
X121170000Y-71310000D02*
X125870000Y-71310000D01*
X125870000Y-60770000D02*
X121170000Y-60770000D01*
X125870000Y-71310000D02*
X125870000Y-60770000D01*
D14*
X126480000Y-68580000D02*
G75*
G02*
X126280000Y-68580000I-100000J0D01*
G01*
X126280000Y-68580000D02*
G75*
G02*
X126480000Y-68580000I100000J0D01*
G01*
D11*
%TO.C,J9*%
X130920000Y-103440000D02*
X132620000Y-103440000D01*
X130920000Y-108800000D02*
X130920000Y-103440000D01*
X130920000Y-108800000D02*
X132620000Y-108800000D01*
X132620000Y-102190000D02*
X139420000Y-102190000D01*
X132620000Y-110050000D02*
X132620000Y-102190000D01*
X139420000Y-102190000D02*
X139420000Y-110050000D01*
X139420000Y-110050000D02*
X132620000Y-110050000D01*
D12*
%TO.C,R12*%
X118010000Y-99600000D02*
X118010000Y-106140000D01*
X118010000Y-106140000D02*
X118340000Y-106140000D01*
X118340000Y-99600000D02*
X118010000Y-99600000D01*
X120420000Y-99600000D02*
X120750000Y-99600000D01*
X120750000Y-99600000D02*
X120750000Y-106140000D01*
X120750000Y-106140000D02*
X120420000Y-106140000D01*
%TO.C,D5*%
X126820000Y-80220000D02*
X127700000Y-80220000D01*
X126820000Y-88295000D02*
X132260000Y-88295000D01*
X126820000Y-88415000D02*
X132260000Y-88415000D01*
X126820000Y-88535000D02*
X132260000Y-88535000D01*
X126820000Y-89960000D02*
X126820000Y-80220000D01*
X127700000Y-89960000D02*
X126820000Y-89960000D01*
X131380000Y-89960000D02*
X132260000Y-89960000D01*
X132260000Y-80220000D02*
X131380000Y-80220000D01*
X132260000Y-89960000D02*
X132260000Y-80220000D01*
%TO.C,D2*%
X144600000Y-80220000D02*
X144600000Y-89960000D01*
X144600000Y-89960000D02*
X145480000Y-89960000D01*
X145480000Y-80220000D02*
X144600000Y-80220000D01*
X149160000Y-80220000D02*
X150040000Y-80220000D01*
X150040000Y-80220000D02*
X150040000Y-89960000D01*
X150040000Y-81645000D02*
X144600000Y-81645000D01*
X150040000Y-81765000D02*
X144600000Y-81765000D01*
X150040000Y-81885000D02*
X144600000Y-81885000D01*
X150040000Y-89960000D02*
X149160000Y-89960000D01*
%TO.C,R10*%
X118010000Y-58960000D02*
X118010000Y-65500000D01*
X118010000Y-65500000D02*
X118340000Y-65500000D01*
X118340000Y-58960000D02*
X118010000Y-58960000D01*
X120420000Y-58960000D02*
X120750000Y-58960000D01*
X120750000Y-58960000D02*
X120750000Y-65500000D01*
X120750000Y-65500000D02*
X120420000Y-65500000D01*
%TO.C,D6*%
X126820000Y-100540000D02*
X127700000Y-100540000D01*
X126820000Y-108615000D02*
X132260000Y-108615000D01*
X126820000Y-108735000D02*
X132260000Y-108735000D01*
X126820000Y-108855000D02*
X132260000Y-108855000D01*
X126820000Y-110280000D02*
X126820000Y-100540000D01*
X127700000Y-110280000D02*
X126820000Y-110280000D01*
X131380000Y-110280000D02*
X132260000Y-110280000D01*
X132260000Y-100540000D02*
X131380000Y-100540000D01*
X132260000Y-110280000D02*
X132260000Y-100540000D01*
%TO.C,R6*%
X118010000Y-109760000D02*
X118340000Y-109760000D01*
X118010000Y-116300000D02*
X118010000Y-109760000D01*
X118340000Y-116300000D02*
X118010000Y-116300000D01*
X120420000Y-116300000D02*
X120750000Y-116300000D01*
X120750000Y-109760000D02*
X120420000Y-109760000D01*
X120750000Y-116300000D02*
X120750000Y-109760000D01*
D11*
%TO.C,J3*%
X128710000Y-145060000D02*
X136570000Y-145060000D01*
X128710000Y-151860000D02*
X128710000Y-145060000D01*
X129960000Y-153560000D02*
X129960000Y-151860000D01*
X135320000Y-153560000D02*
X129960000Y-153560000D01*
X135320000Y-153560000D02*
X135320000Y-151860000D01*
X136570000Y-145060000D02*
X136570000Y-151860000D01*
X136570000Y-151860000D02*
X128710000Y-151860000D01*
D13*
%TO.C,Q6*%
X121170000Y-101410000D02*
X121170000Y-111950000D01*
X121170000Y-111950000D02*
X125870000Y-111950000D01*
X125870000Y-101410000D02*
X121170000Y-101410000D01*
X125870000Y-111950000D02*
X125870000Y-101410000D01*
D14*
X126480000Y-109220000D02*
G75*
G02*
X126280000Y-109220000I-100000J0D01*
G01*
X126280000Y-109220000D02*
G75*
G02*
X126480000Y-109220000I100000J0D01*
G01*
D12*
%TO.C,R4*%
X118010000Y-69120000D02*
X118340000Y-69120000D01*
X118010000Y-75660000D02*
X118010000Y-69120000D01*
X118340000Y-75660000D02*
X118010000Y-75660000D01*
X120420000Y-75660000D02*
X120750000Y-75660000D01*
X120750000Y-69120000D02*
X120420000Y-69120000D01*
X120750000Y-75660000D02*
X120750000Y-69120000D01*
D11*
%TO.C,J6*%
X137440000Y-102190000D02*
X144240000Y-102190000D01*
X137440000Y-110050000D02*
X137440000Y-102190000D01*
X144240000Y-102190000D02*
X144240000Y-110050000D01*
X144240000Y-110050000D02*
X137440000Y-110050000D01*
X145940000Y-103440000D02*
X144240000Y-103440000D01*
X145940000Y-103440000D02*
X145940000Y-108800000D01*
X145940000Y-108800000D02*
X144240000Y-108800000D01*
%TD*%
M02*
